ply
format ascii 1.0
comment VCGLIB generated
element vertex 576
property float x
property float y
property float z
property float nx
property float ny
property float nz
element face 192
property list uchar int vertex_indices
end_header
1.206971 0.994586 0.91524 -0.5158021 0.3808332 0.7674074 
0.31493 0.476621 0.572712 -0.5158021 0.3808332 0.7674074 
0.279717 0.269937 0.651613 -0.5158021 0.3808332 0.7674074 
1.206971 0.994586 0.91524 0.3356321 -0.6702659 0.6618872 
0.279717 0.269937 0.651613 0.3356321 -0.6702659 0.6618872 
0.508221 0.256876 0.522516 0.3356321 -0.6702659 0.6618872 
0.31493 0.476621 0.572712 0.06835427 0.3848703 0.9204361 
0 0.450655 0.606957 0.06835427 0.3848703 0.9204361 
-0 0.290175 0.67406 0.06835427 0.3848703 0.9204361 
0.31493 0.476621 0.572712 0.09964315 0.3400065 0.9351293 
-0 0.290175 0.67406 0.09964315 0.3400065 0.9351293 
0.279717 0.269937 0.651613 0.09964315 0.3400065 0.9351293 
0.279717 0.269937 0.651613 0.09199332 0.1865905 0.9781213 
-0 0.290175 0.67406 0.09199332 0.1865905 0.9781213 
-0 -0.005478 0.73046 0.09199332 0.1865905 0.9781213 
0.279717 0.269937 0.651613 0.1616097 0.1164144 0.9799643 
-0 -0.005478 0.73046 0.1616097 0.1164144 0.9799643 
0.28796 -0.006594 0.683104 0.1616097 0.1164144 0.9799643 
0.508221 0.256876 0.522516 0.4936303 0.1129132 0.8623107 
0.279717 0.269937 0.651613 0.4936303 0.1129132 0.8623107 
0.28796 -0.006594 0.683104 0.4936303 0.1129132 0.8623107 
0.508221 0.256876 0.522516 0.5040526 0.1013904 0.8577009 
0.28796 -0.006594 0.683104 0.5040526 0.1013904 0.8577009 
0.528979 -0.009316 0.541784 0.5040526 0.1013904 0.8577009 
0 0.450655 0.606957 -0.07333514 0.3447539 0.9358241 
-0.31493 0.476621 0.572712 -0.07333514 0.3447539 0.9358241 
-0.279717 0.269937 0.651613 -0.07333514 0.3447539 0.9358241 
0 0.450655 0.606957 -0.1014227 0.3837833 0.9178365 
-0.279717 0.269937 0.651613 -0.1014227 0.3837833 0.9178365 
-0 0.290175 0.67406 -0.1014227 0.3837833 0.9178365 
-0.31493 0.476621 0.572712 0.1541208 -0.3468982 0.9251532 
-1.206867 0.994479 0.915477 0.1541208 -0.3468982 0.9251532 
-0.508221 0.256876 0.522516 0.1541208 -0.3468982 0.9251532 
-0.31493 0.476621 0.572712 -0.488075 0.2374664 0.8398765 
-0.508221 0.256876 0.522516 -0.488075 0.2374664 0.8398765 
-0.279717 0.269937 0.651613 -0.488075 0.2374664 0.8398765 
-0.279717 0.269937 0.651613 -0.4937459 0.1010222 0.8637185 
-0.508221 0.256876 0.522516 -0.4937459 0.1010222 0.8637185 
-0.528979 -0.009316 0.541784 -0.4937459 0.1010222 0.8637185 
-0.279717 0.269937 0.651613 -0.5035387 0.1125593 0.8566092 
-0.528979 -0.009316 0.541784 -0.5035387 0.1125593 0.8566092 
-0.28796 -0.006594 0.683104 -0.5035387 0.1125593 0.8566092 
-0 0.290175 0.67406 -0.08774382 0.1152926 0.9894487 
-0.279717 0.269937 0.651613 -0.08774382 0.1152926 0.9894487 
-0.28796 -0.006594 0.683104 -0.08774382 0.1152926 0.9894487 
-0 0.290175 0.67406 -0.1601716 0.1849658 0.9696044 
-0.28796 -0.006594 0.683104 -0.1601716 0.1849658 0.9696044 
-0 -0.005478 0.73046 -0.1601716 0.1849658 0.9696044 
-0 -0.005478 0.73046 -0.1592174 -0.1716519 0.9722065 
-0.28796 -0.006594 0.683104 -0.1592174 -0.1716519 0.9722065 
-0.276249 -0.283379 0.636153 -0.1592174 -0.1716519 0.9722065 
-0 -0.005478 0.73046 -0.148784 -0.1819487 0.9719867 
-0.276249 -0.283379 0.636153 -0.148784 -0.1819487 0.9719867 
-0 -0.292984 0.676641 -0.148784 -0.1819487 0.9719867 
-0.28796 -0.006594 0.683104 -0.498643 -0.1521061 0.8533574 
-0.528979 -0.009316 0.541784 -0.498643 -0.1521061 0.8533574 
-0.499859 -0.273379 0.511732 -0.498643 -0.1521061 0.8533574 
-0.28796 -0.006594 0.683104 -0.4851247 -0.1661556 0.858514 
-0.499859 -0.273379 0.511732 -0.4851247 -0.1661556 0.858514 
-0.276249 -0.283379 0.636153 -0.4851247 -0.1661556 0.858514 
-0.276249 -0.283379 0.636153 -0.4469078 -0.4619904 0.7660537 
-0.499859 -0.273379 0.511732 -0.4469078 -0.4619904 0.7660537 
-0.263358 -0.507931 0.508251 -0.4469078 -0.4619904 0.7660537 
-0.499859 -0.273379 0.511732 0.3597818 0.349935 0.8649292 
-0.710697 -1.21592 0.980769 0.3597818 0.349935 0.8649292 
-0.263358 -0.507931 0.508251 0.3597818 0.349935 0.8649292 
-0 -0.292984 0.676641 -0.1427759 -0.4960378 0.8564821 
-0.276249 -0.283379 0.636153 -0.1427759 -0.4960378 0.8564821 
-0.263358 -0.507931 0.508251 -0.1427759 -0.4960378 0.8564821 
-0 -0.292984 0.676641 -0.1306729 -0.5072334 0.8518444 
-0.263358 -0.507931 0.508251 -0.1306729 -0.5072334 0.8518444 
-0 -0.533856 0.533213 -0.1306729 -0.5072334 0.8518444 
0.528979 -0.009316 0.541784 0.4974408 -0.165498 0.8515651 
0.28796 -0.006594 0.683104 0.4974408 -0.165498 0.8515651 
0.276249 -0.283379 0.636153 0.4974408 -0.165498 0.8515651 
0.528979 -0.009316 0.541784 0.4857679 -0.1515359 0.8608522 
0.276249 -0.283379 0.636153 0.4857679 -0.1515359 0.8608522 
0.499859 -0.273379 0.511733 0.4857679 -0.1515359 0.8608522 
0.28796 -0.006594 0.683104 0.1588882 -0.1816593 0.9704404 
-0 -0.005478 0.73046 0.1588882 -0.1816593 0.9704404 
-0 -0.292984 0.676641 0.1588882 -0.1816593 0.9704404 
0.28796 -0.006594 0.683104 0.1487006 -0.1714939 0.9738984 
-0 -0.292984 0.676641 0.1487006 -0.1714939 0.9738984 
0.276249 -0.283379 0.636153 0.1487006 -0.1714939 0.9738984 
0.276249 -0.283379 0.636153 0.1422561 -0.506417 0.8504733 
-0 -0.292984 0.676641 0.1422561 -0.506417 0.8504733 
-0 -0.533856 0.533213 0.1422561 -0.506417 0.8504733 
0.276249 -0.283379 0.636153 0.1302137 -0.4963521 0.8583 
-0 -0.533856 0.533213 0.1302137 -0.4963521 0.8583 
0.263358 -0.507931 0.508251 0.1302137 -0.4963521 0.8583 
0.499859 -0.273379 0.511733 0.4469051 -0.4619909 0.766055 
0.276249 -0.283379 0.636153 0.4469051 -0.4619909 0.766055 
0.263358 -0.507931 0.508251 0.4469051 -0.4619909 0.766055 
0.499859 -0.273379 0.511733 -0.3597822 0.3499317 0.8649304 
0.263358 -0.507931 0.508251 -0.3597822 0.3499317 0.8649304 
0.710695 -1.215925 0.980767 -0.3597822 0.3499317 0.8649304 
0.453052 -0.474689 -0.378089 0.4784862 -0.7690492 -0.4238092 
0.510725 -0.530111 -0.212406 0.4784862 -0.7690492 -0.4238092 
0.282898 -0.664231 -0.22625 0.4784862 -0.7690492 -0.4238092 
0.453052 -0.474689 -0.378089 0.4172075 -0.7661383 -0.4888457 
0.282898 -0.664231 -0.22625 0.4172075 -0.7661383 -0.4888457 
0.271965 -0.537145 -0.434755 0.4172075 -0.7661383 -0.4888457 
0.510725 -0.530111 -0.212406 0.525096 -0.8433737 -0.113996 
0.533427 -0.549612 0.036439 0.525096 -0.8433737 -0.113996 
0.291655 -0.699908 0.034704 0.525096 -0.8433737 -0.113996 
0.510725 -0.530111 -0.212406 0.5087869 -0.8505017 -0.1333523 
0.291655 -0.699908 0.034704 0.5087869 -0.8505017 -0.1333523 
0.282898 -0.664231 -0.22625 0.5087869 -0.8505017 -0.1333523 
0.282898 -0.664231 -0.22625 0.1616369 -0.9770122 -0.138999 
0.291655 -0.699908 0.034704 0.1616369 -0.9770122 -0.138999 
-0 -0.748084 0.034174 0.1616369 -0.9770122 -0.138999 
0.282898 -0.664231 -0.22625 0.1570097 -0.9770375 -0.1440336 
-0 -0.748084 0.034174 0.1570097 -0.9770375 -0.1440336 
-0 -0.708135 -0.236816 0.1570097 -0.9770375 -0.1440336 
0.271965 -0.537145 -0.434755 0.1499082 -0.8407277 -0.5202928 
0.282898 -0.664231 -0.22625 0.1499082 -0.8407277 -0.5202928 
-0 -0.708135 -0.236816 0.1499082 -0.8407277 -0.5202928 
0.271965 -0.537145 -0.434755 0.1367913 -0.8348389 -0.5332281 
-0 -0.708135 -0.236816 0.1367913 -0.8348389 -0.5332281 
-0 -0.565369 -0.460335 0.1367913 -0.8348389 -0.5332281 
0.533427 -0.549612 0.036439 0.4130078 -0.9090655 0.05499465 
0.510115 -0.5451 0.286095 0.4130078 -0.9090655 0.05499465 
0.279318 -0.649326 0.296508 0.4130078 -0.9090655 0.05499465 
0.533427 -0.549612 0.036439 0.5177985 -0.8350949 0.1857452 
0.279318 -0.649326 0.296508 0.5177985 -0.8350949 0.1857452 
0.291655 -0.699908 0.034704 0.5177985 -0.8350949 0.1857452 
0.510115 -0.5451 0.286095 -0.5469213 -0.6755663 -0.4944568 
0.710695 -1.215925 0.980767 -0.5469213 -0.6755663 -0.4944568 
0.263358 -0.507931 0.508251 -0.5469213 -0.6755663 -0.4944568 
0.510115 -0.5451 0.286095 0.3675436 -0.7603873 0.5354651 
0.263358 -0.507931 0.508251 0.3675436 -0.7603873 0.5354651 
0.279318 -0.649326 0.296508 0.3675436 -0.7603873 0.5354651 
0.279318 -0.649326 0.296508 0.1334955 -0.8195077 0.5573025 
0.263358 -0.507931 0.508251 0.1334955 -0.8195077 0.5573025 
-0 -0.533856 0.533213 0.1334955 -0.8195077 0.5573025 
0.279318 -0.649326 0.296508 0.1356307 -0.8179554 0.5590648 
-0 -0.533856 0.533213 0.1356307 -0.8179554 0.5590648 
-0 -0.688953 0.306294 0.1356307 -0.8179554 0.5590648 
0.291655 -0.699908 0.034704 0.1444565 -0.9702542 0.1942658 
0.279318 -0.649326 0.296508 0.1444565 -0.9702542 0.1942658 
-0 -0.688953 0.306294 0.1444565 -0.9702542 0.1942658 
0.291655 -0.699908 0.034704 0.1589807 -0.9647672 0.2096416 
-0 -0.688953 0.306294 0.1589807 -0.9647672 0.2096416 
-0 -0.748084 0.034174 0.1589807 -0.9647672 0.2096416 
-0 -0.748084 0.034174 -0.1445374 -0.9669342 0.2101125 
-0 -0.688953 0.306294 -0.1445374 -0.9669342 0.2101125 
-0.279318 -0.649327 0.296508 -0.1445374 -0.9669342 0.2101125 
-0 -0.748084 0.034174 -0.1595164 -0.9678439 0.1945062 
-0.279318 -0.649327 0.296508 -0.1595164 -0.9678439 0.1945062 
-0.291655 -0.699908 0.034704 -0.1595164 -0.9678439 0.1945062 
-0 -0.688953 0.306294 -0.1335479 -0.8181889 0.5592244 
-0 -0.533856 0.533213 -0.1335479 -0.8181889 0.5592244 
-0.263358 -0.507931 0.508251 -0.1335479 -0.8181889 0.5592244 
-0 -0.688953 0.306294 -0.1357372 -0.8191736 0.5572522 
-0.263358 -0.507931 0.508251 -0.1357372 -0.8191736 0.5572522 
-0.279318 -0.649327 0.296508 -0.1357372 -0.8191736 0.5572522 
-0.279318 -0.649327 0.296508 -0.3675458 -0.7603849 0.5354671 
-0.263358 -0.507931 0.508251 -0.3675458 -0.7603849 0.5354671 
-0.510115 -0.5451 0.286095 -0.3675458 -0.7603849 0.5354671 
-0.263358 -0.507931 0.508251 0.5469189 -0.6755704 -0.4944536 
-0.710697 -1.21592 0.980769 0.5469189 -0.6755704 -0.4944536 
-0.510115 -0.5451 0.286095 0.5469189 -0.6755704 -0.4944536 
-0.291655 -0.699908 0.034704 -0.4111176 -0.8912279 0.19156 
-0.279318 -0.649327 0.296508 -0.4111176 -0.8912279 0.19156 
-0.510115 -0.5451 0.286095 -0.4111176 -0.8912279 0.19156 
-0.291655 -0.699908 0.034704 -0.526515 -0.8477168 0.06448479 
-0.510115 -0.5451 0.286095 -0.526515 -0.8477168 0.06448479 
-0.533427 -0.549612 0.036439 -0.526515 -0.8477168 0.06448479 
-0 -0.565369 -0.460335 -0.1492067 -0.8333271 -0.5322625 
-0 -0.708135 -0.236816 -0.1492067 -0.8333271 -0.5322625 
-0.282898 -0.664231 -0.22625 -0.1492067 -0.8333271 -0.5322625 
-0 -0.565369 -0.460335 -0.1364386 -0.8427088 -0.520794 
-0.282898 -0.664231 -0.22625 -0.1364386 -0.8427088 -0.520794 
-0.271965 -0.537145 -0.434755 -0.1364386 -0.8427088 -0.520794 
-0 -0.708135 -0.236816 -0.1615308 -0.9763159 -0.1439272 
-0 -0.748084 0.034174 -0.1615308 -0.9763159 -0.1439272 
-0.291655 -0.699908 0.034704 -0.1615308 -0.9763159 -0.1439272 
-0 -0.708135 -0.236816 -0.1569358 -0.9777858 -0.1389469 
-0.291655 -0.699908 0.034704 -0.1569358 -0.9777858 -0.1389469 
-0.282898 -0.664231 -0.22625 -0.1569358 -0.9777858 -0.1389469 
-0.282898 -0.664231 -0.22625 -0.5239712 -0.8413494 -0.1326105 
-0.291655 -0.699908 0.034704 -0.5239712 -0.8413494 -0.1326105 
-0.533427 -0.549612 0.036439 -0.5239712 -0.8413494 -0.1326105 
-0.282898 -0.664231 -0.22625 -0.5091497 -0.8531866 -0.1133102 
-0.533427 -0.549612 0.036439 -0.5091497 -0.8531866 -0.1133102 
-0.510725 -0.530111 -0.212406 -0.5091497 -0.8531866 -0.1133102 
-0.271965 -0.537145 -0.434755 -0.4670065 -0.7439614 -0.4779398 
-0.282898 -0.664231 -0.22625 -0.4670065 -0.7439614 -0.4779398 
-0.510725 -0.530111 -0.212406 -0.4670065 -0.7439614 -0.4779398 
-0.271965 -0.537145 -0.434755 -0.4099288 -0.8125047 -0.414481 
-0.510725 -0.530111 -0.212406 -0.4099288 -0.8125047 -0.414481 
-0.453052 -0.474689 -0.378089 -0.4099288 -0.8125047 -0.414481 
-0.453052 -0.474689 -0.378089 -0.763183 -0.4843897 -0.4276896 
-0.510725 -0.530111 -0.212406 -0.763183 -0.4843897 -0.4276896 
-0.648053 -0.304632 -0.222725 -0.763183 -0.4843897 -0.4276896 
-0.453052 -0.474689 -0.378089 -0.7609115 -0.4230546 -0.4919742 
-0.648053 -0.304632 -0.222725 -0.7609115 -0.4230546 -0.4919742 
-0.516831 -0.296484 -0.432686 -0.7609115 -0.4230546 -0.4919742 
-0.510725 -0.530111 -0.212406 -0.839535 -0.5303038 -0.118148 
-0.533427 -0.549612 0.036439 -0.839535 -0.5303038 -0.118148 
-0.685778 -0.309029 0.039164 -0.839535 -0.5303038 -0.118148 
-0.510725 -0.530111 -0.212406 -0.844119 -0.520075 -0.130327 
-0.685778 -0.309029 0.039164 -0.844119 -0.520075 -0.130327 
-0.648053 -0.304632 -0.222725 -0.844119 -0.520075 -0.130327 
-0.648053 -0.304632 -0.222725 -0.9731806 -0.1800299 -0.143209 
-0.685778 -0.309029 0.039164 -0.9731806 -0.1800299 -0.143209 
-0.740199 -0.017377 0.042344 -0.9731806 -0.1800299 -0.143209 
-0.648053 -0.304632 -0.222725 -0.9733176 -0.1696301 -0.1545268 
-0.740199 -0.017377 0.042344 -0.9733176 -0.1696301 -0.1545268 
-0.696011 -0.022647 -0.230198 -0.9733176 -0.1696301 -0.1545268 
-0.516831 -0.296484 -0.432686 -0.8348935 -0.1559815 -0.5278472 
-0.648053 -0.304632 -0.222725 -0.8348935 -0.1559815 -0.5278472 
-0.696011 -0.022647 -0.230198 -0.8348935 -0.1559815 -0.5278472 
-0.516831 -0.296484 -0.432686 -0.8281285 -0.1406398 -0.5426084 
-0.696011 -0.022647 -0.230198 -0.8281285 -0.1406398 -0.5426084 
-0.547415 -0.027358 -0.455764 -0.8281285 -0.1406398 -0.5426084 
-0.533427 -0.549612 0.036439 -0.8890337 -0.448682 0.09112373 
-0.510115 -0.5451 0.286095 -0.8890337 -0.448682 0.09112373 
-0.636359 -0.29186 0.301339 -0.8890337 -0.448682 0.09112373 
-0.533427 -0.549612 0.036439 -0.828376 -0.5267349 0.1906401 
-0.636359 -0.29186 0.301339 -0.828376 -0.5267349 0.1906401 
-0.685778 -0.309029 0.039164 -0.828376 -0.5267349 0.1906401 
-0.510115 -0.5451 0.286095 -0.9790168 0.1507828 -0.1370787 
-0.710697 -1.21592 0.980769 -0.9790168 0.1507828 -0.1370787 
-0.499859 -0.273379 0.511732 -0.9790168 0.1507828 -0.1370787 
-0.510115 -0.5451 0.286095 -0.7501989 -0.4054277 0.5223314 
-0.499859 -0.273379 0.511732 -0.7501989 -0.4054277 0.5223314 
-0.636359 -0.29186 0.301339 -0.7501989 -0.4054277 0.5223314 
-0.636359 -0.29186 0.301339 -0.8228371 -0.1530244 0.5472867 
-0.499859 -0.273379 0.511732 -0.8228371 -0.1530244 0.5472867 
-0.528979 -0.009316 0.541784 -0.8228371 -0.1530244 0.5472867 
-0.636359 -0.29186 0.301339 -0.8139431 -0.1647507 0.5570942 
-0.528979 -0.009316 0.541784 -0.8139431 -0.1647507 0.5570942 
-0.683336 -0.012902 0.3152 -0.8139431 -0.1647507 0.5570942 
-0.685778 -0.309029 0.039164 -0.965889 -0.1722647 0.1933477 
-0.636359 -0.29186 0.301339 -0.965889 -0.1722647 0.1933477 
-0.683336 -0.012902 0.3152 -0.965889 -0.1722647 0.1933477 
-0.685778 -0.309029 0.039164 -0.9620656 -0.1817359 0.2034744 
-0.683336 -0.012902 0.3152 -0.9620656 -0.1817359 0.2034744 
-0.740199 -0.017377 0.042344 -0.9620656 -0.1817359 0.2034744 
-0.740199 -0.017377 0.042344 -0.9703379 0.1358248 0.1999902 
-0.683336 -0.012902 0.3152 -0.9703379 0.1358248 0.1999902 
-0.645405 0.266984 0.309152 -0.9703379 0.1358248 0.1999902 
-0.740199 -0.017377 0.042344 -0.9709249 0.1448276 0.1906036 
-0.645405 0.266984 0.309152 -0.9709249 0.1448276 0.1906036 
-0.695848 0.275832 0.045475 -0.9709249 0.1448276 0.1906036 
-0.683336 -0.012902 0.3152 -0.8226873 0.1046015 0.5587882 
-0.528979 -0.009316 0.541784 -0.8226873 0.1046015 0.5587882 
-0.508221 0.256876 0.522516 -0.8226873 0.1046015 0.5587882 
-0.683336 -0.012902 0.3152 -0.8319111 0.1244288 0.5407784 
-0.508221 0.256876 0.522516 -0.8319111 0.1244288 0.5407784 
-0.645405 0.266984 0.309152 -0.8319111 0.1244288 0.5407784 
-0.645405 0.266984 0.309152 -0.7294282 0.4757449 0.4915296 
-0.508221 0.256876 0.522516 -0.7294282 0.4757449 0.4915296 
-0.508478 0.487884 0.298545 -0.7294282 0.4757449 0.4915296 
-0.508221 0.256876 0.522516 -0.7514886 -0.4596715 -0.4732517 
-1.206867 0.994479 0.915477 -0.7514886 -0.4596715 -0.4732517 
-0.508478 0.487884 0.298545 -0.7514886 -0.4596715 -0.4732517 
-0.695848 0.275832 0.045475 -0.8327232 0.5246662 0.1769108 
-0.645405 0.266984 0.309152 -0.8327232 0.5246662 0.1769108 
-0.508478 0.487884 0.298545 -0.8327232 0.5246662 0.1769108 
-0.695848 0.275832 0.045475 -0.838653 0.5086786 0.1946975 
-0.508478 0.487884 0.298545 -0.838653 0.5086786 0.1946975 
-0.548074 0.518205 0.048768 -0.838653 0.5086786 0.1946975 
-0.547415 -0.027358 -0.455764 -0.8254334 0.1406099 -0.546707 
-0.696011 -0.022647 -0.230198 -0.8254334 0.1406099 -0.546707 
-0.656147 0.260815 -0.217481 -0.8254334 0.1406099 -0.546707 
-0.547415 -0.027358 -0.455764 -0.8301957 0.1341657 -0.5410867 
-0.656147 0.260815 -0.217481 -0.8301957 0.1341657 -0.5410867 
-0.521731 0.243179 -0.42809 -0.8301957 0.1341657 -0.5410867 
-0.696011 -0.022647 -0.230198 -0.9755881 0.1492882 -0.1610616 
-0.740199 -0.017377 0.042344 -0.9755881 0.1492882 -0.1610616 
-0.695848 0.275832 0.045475 -0.9755881 0.1492882 -0.1610616 
-0.696011 -0.022647 -0.230198 -0.9771783 0.144412 -0.1557811 
-0.695848 0.275832 0.045475 -0.9771783 0.144412 -0.1557811 
-0.656147 0.260815 -0.217481 -0.9771783 0.144412 -0.1557811 
-0.656147 0.260815 -0.217481 -0.8423337 0.515696 -0.1566258 
-0.695848 0.275832 0.045475 -0.8423337 0.515696 -0.1566258 
-0.548074 0.518205 0.048768 -0.8423337 0.515696 -0.1566258 
-0.656147 0.260815 -0.217481 -0.848336 0.5085587 -0.1472896 
-0.548074 0.518205 0.048768 -0.848336 0.5085587 -0.1472896 
-0.522549 0.487939 -0.202749 -0.848336 0.5085587 -0.1472896 
-0.521731 0.243179 -0.42809 -0.7296041 0.4618774 -0.5043285 
-0.656147 0.260815 -0.217481 -0.7296041 0.4618774 -0.5043285 
-0.522549 0.487939 -0.202749 -0.7296041 0.4618774 -0.5043285 
-0.521731 0.243179 -0.42809 -0.7946947 0.4097 -0.4478909 
-0.522549 0.487939 -0.202749 -0.7946947 0.4097 -0.4478909 
-0.460908 0.424377 -0.370261 -0.7946947 0.4097 -0.4478909 
-0.460908 0.424377 -0.370261 -0.3905705 0.462409 -0.7960104 
-0.276865 0.48384 -0.426021 -0.3905705 0.462409 -0.7960104 
-0.290256 0.25455 -0.552647 -0.3905705 0.462409 -0.7960104 
-0.460908 0.424377 -0.370261 -0.4486229 0.4048723 -0.7967534 
-0.290256 0.25455 -0.552647 -0.4486229 0.4048723 -0.7967534 
-0.521731 0.243179 -0.42809 -0.4486229 0.4048723 -0.7967534 
-0.276865 0.48384 -0.426021 -0.1261626 0.4964019 -0.8588761 
0 0.510652 -0.451194 -0.1261626 0.4964019 -0.8588761 
-0 0.264958 -0.593197 -0.1261626 0.4964019 -0.8588761 
-0.276865 0.48384 -0.426021 -0.1380343 0.4849696 -0.8635688 
-0 0.264958 -0.593197 -0.1380343 0.4849696 -0.8635688 
-0.290256 0.25455 -0.552647 -0.1380343 0.4849696 -0.8635688 
-0.290256 0.25455 -0.552647 -0.142217 0.1610841 -0.9766403 
-0 0.264958 -0.593197 -0.142217 0.1610841 -0.9766403 
-0 -0.03104 -0.642018 -0.142217 0.1610841 -0.9766403 
-0.290256 0.25455 -0.552647 -0.1506238 0.1525732 -0.9767466 
-0 -0.03104 -0.642018 -0.1506238 0.1525732 -0.9767466 
-0.300635 -0.030168 -0.595521 -0.1506238 0.1525732 -0.9767466 
-0.521731 0.243179 -0.42809 -0.4742644 0.1479741 -0.8678577 
-0.290256 0.25455 -0.552647 -0.4742644 0.1479741 -0.8678577 
-0.300635 -0.030168 -0.595521 -0.4742644 0.1479741 -0.8678577 
-0.521731 0.243179 -0.42809 -0.4871467 0.1345166 -0.8628983 
-0.300635 -0.030168 -0.595521 -0.4871467 0.1345166 -0.8628983 
-0.547415 -0.027358 -0.455764 -0.4871467 0.1345166 -0.8628983 
0 0.510652 -0.451194 0.1256648 0.4852135 -0.8653185 
0.276865 0.48384 -0.426021 0.1256648 0.4852135 -0.8653185 
0.290256 0.25455 -0.552647 0.1256648 0.4852135 -0.8653185 
0 0.510652 -0.451194 0.1375777 0.4956421 -0.8575613 
0.290256 0.25455 -0.552647 0.1375777 0.4956421 -0.8575613 
-0 0.264958 -0.593197 0.1375777 0.4956421 -0.8575613 
0.276865 0.48384 -0.426021 0.3808579 0.3947011 -0.836157 
0.460908 0.424377 -0.370261 0.3808579 0.3947011 -0.836157 
0.521731 0.243179 -0.42809 0.3808579 0.3947011 -0.836157 
0.276865 0.48384 -0.426021 0.4394407 0.4537837 -0.775224 
0.521731 0.243179 -0.42809 0.4394407 0.4537837 -0.775224 
0.290256 0.25455 -0.552647 0.4394407 0.4537837 -0.775224 
0.290256 0.25455 -0.552647 0.4746756 0.1340482 -0.8698933 
0.521731 0.243179 -0.42809 0.4746756 0.1340482 -0.8698933 
0.547415 -0.027358 -0.455764 0.4746756 0.1340482 -0.8698933 
0.290256 0.25455 -0.552647 0.4861293 0.1474284 -0.8613613 
0.547415 -0.027358 -0.455764 0.4861293 0.1474284 -0.8613613 
0.300635 -0.030168 -0.595521 0.4861293 0.1474284 -0.8613613 
-0 0.264958 -0.593197 0.1421033 0.1524575 -0.9780406 
0.290256 0.25455 -0.552647 0.1421033 0.1524575 -0.9780406 
0.300635 -0.030168 -0.595521 0.1421033 0.1524575 -0.9780406 
-0 0.264958 -0.593197 0.1503986 0.1608872 -0.9754463 
0.300635 -0.030168 -0.595521 0.1503986 0.1608872 -0.9754463 
-0 -0.03104 -0.642018 0.1503986 0.1608872 -0.9754463 
-0 -0.03104 -0.642018 0.1517516 -0.1392068 -0.9785668 
0.300635 -0.030168 -0.595521 0.1517516 -0.1392068 -0.9785668 
0.287943 -0.313265 -0.557217 0.1517516 -0.1392068 -0.9785668 
-0 -0.03104 -0.642018 0.1442124 -0.1469034 -0.9785818 
0.287943 -0.313265 -0.557217 0.1442124 -0.1469034 -0.9785818 
-0 -0.325294 -0.597845 0.1442124 -0.1469034 -0.9785818 
0.300635 -0.030168 -0.595521 0.4897471 -0.1295892 -0.86218 
0.547415 -0.027358 -0.455764 0.4897471 -0.1295892 -0.86218 
0.516831 -0.296484 -0.432686 0.4897471 -0.1295892 -0.86218 
0.300635 -0.030168 -0.595521 0.4811221 -0.1386904 -0.8656134 
0.516831 -0.296484 -0.432686 0.4811221 -0.1386904 -0.8656134 
0.287943 -0.313265 -0.557217 0.4811221 -0.1386904 -0.8656134 
0.287943 -0.313265 -0.557217 0.4594782 -0.4064047 -0.7897564 
0.516831 -0.296484 -0.432686 0.4594782 -0.4064047 -0.7897564 
0.453052 -0.474689 -0.378089 0.4594782 -0.4064047 -0.7897564 
0.287943 -0.313265 -0.557217 0.4058875 -0.4607145 -0.7893019 
0.453052 -0.474689 -0.378089 0.4058875 -0.4607145 -0.7893019 
0.271965 -0.537145 -0.434755 0.4058875 -0.4607145 -0.7893019 
-0 -0.325294 -0.597845 0.1420947 -0.4828126 -0.8641187 
0.287943 -0.313265 -0.557217 0.1420947 -0.4828126 -0.8641187 
0.271965 -0.537145 -0.434755 0.1420947 -0.4828126 -0.8641187 
-0 -0.325294 -0.597845 0.1320301 -0.4926713 -0.8601413 
0.271965 -0.537145 -0.434755 0.1320301 -0.4926713 -0.8601413 
-0 -0.565369 -0.460335 0.1320301 -0.4926713 -0.8601413 
-0.547415 -0.027358 -0.455764 -0.4892334 -0.1384427 -0.8610948 
-0.300635 -0.030168 -0.595521 -0.4892334 -0.1384427 -0.8610948 
-0.287943 -0.313265 -0.557217 -0.4892334 -0.1384427 -0.8610948 
-0.547415 -0.027358 -0.455764 -0.4812019 -0.1290367 -0.8670608 
-0.287943 -0.313265 -0.557217 -0.4812019 -0.1290367 -0.8670608 
-0.516831 -0.296484 -0.432686 -0.4812019 -0.1290367 -0.8670608 
-0.300635 -0.030168 -0.595521 -0.1516067 -0.1467392 -0.9774882 
-0 -0.03104 -0.642018 -0.1516067 -0.1467392 -0.9774882 
-0 -0.325294 -0.597845 -0.1516067 -0.1467392 -0.9774882 
-0.300635 -0.030168 -0.595521 -0.1440489 -0.1390224 -0.9797565 
-0 -0.325294 -0.597845 -0.1440489 -0.1390224 -0.9797565 
-0.287943 -0.313265 -0.557217 -0.1440489 -0.1390224 -0.9797565 
-0.287943 -0.313265 -0.557217 -0.141753 -0.4920034 -0.8589754 
-0 -0.325294 -0.597845 -0.141753 -0.4920034 -0.8589754 
-0 -0.565369 -0.460335 -0.141753 -0.4920034 -0.8589754 
-0.287943 -0.313265 -0.557217 -0.1315443 -0.4829351 -0.8657192 
-0 -0.565369 -0.460335 -0.1315443 -0.4829351 -0.8657192 
-0.271965 -0.537145 -0.434755 -0.1315443 -0.4829351 -0.8657192 
-0.516831 -0.296484 -0.432686 -0.4515042 -0.4527833 -0.7688506 
-0.287943 -0.313265 -0.557217 -0.4515042 -0.4527833 -0.7688506 
-0.271965 -0.537145 -0.434755 -0.4515042 -0.4527833 -0.7688506 
-0.516831 -0.296484 -0.432686 -0.395774 -0.3955639 -0.8287896 
-0.271965 -0.537145 -0.434755 -0.395774 -0.3955639 -0.8287896 
-0.453052 -0.474689 -0.378089 -0.395774 -0.3955639 -0.8287896 
0.460908 0.424377 -0.370261 0.7535337 0.4728646 -0.4567122 
0.522549 0.487939 -0.202749 0.7535337 0.4728646 -0.4567122 
0.656147 0.260815 -0.217481 0.7535337 0.4728646 -0.4567122 
0.460908 0.424377 -0.370261 0.7504126 0.4158562 -0.5137553 
0.656147 0.260815 -0.217481 0.7504126 0.4158562 -0.5137553 
0.521731 0.243179 -0.42809 0.7504126 0.4158562 -0.5137553 
0.522549 0.487939 -0.202749 0.8435559 0.5163204 -0.1477385 
0.548074 0.518205 0.048768 0.8435559 0.5163204 -0.1477385 
0.695848 0.275832 0.045475 0.8435559 0.5163204 -0.1477385 
0.522549 0.487939 -0.202749 0.846789 0.5082704 -0.1568744 
0.695848 0.275832 0.045475 0.846789 0.5082704 -0.1568744 
0.656147 0.260815 -0.217481 0.846789 0.5082704 -0.1568744 
0.656147 0.260815 -0.217481 0.9764081 0.1493576 -0.1559473 
0.695848 0.275832 0.045475 0.9764081 0.1493576 -0.1559473 
0.740199 -0.017377 0.042344 0.9764081 0.1493576 -0.1559473 
0.656147 0.260815 -0.217481 0.976301 0.1445266 -0.1610851 
0.740199 -0.017377 0.042344 0.976301 0.1445266 -0.1610851 
0.696011 -0.022647 -0.230198 0.976301 0.1445266 -0.1610851 
0.521731 0.243179 -0.42809 0.8291516 0.1408759 -0.5409822 
0.656147 0.260815 -0.217481 0.8291516 0.1408759 -0.5409822 
0.696011 -0.022647 -0.230198 0.8291516 0.1408759 -0.5409822 
0.521731 0.243179 -0.42809 0.8262129 0.1344017 -0.5470908 
0.696011 -0.022647 -0.230198 0.8262129 0.1344017 -0.5470908 
0.547415 -0.027358 -0.455764 0.8262129 0.1344017 -0.5470908 
0.548074 0.518205 0.048768 0.8294136 0.5234849 0.1950302 
0.508478 0.487884 0.298545 0.8294136 0.5234849 0.1950302 
0.645405 0.266984 0.309152 0.8294136 0.5234849 0.1950302 
0.548074 0.518205 0.048768 0.841247 0.5104862 0.1780656 
0.645405 0.266984 0.309152 0.841247 0.5104862 0.1780656 
0.695848 0.275832 0.045475 0.841247 0.5104862 0.1780656 
0.508478 0.487884 0.298545 0.7514006 -0.4597412 -0.4733237 
1.206971 0.994586 0.91524 0.7514006 -0.4597412 -0.4733237 
0.508221 0.256876 0.522516 0.7514006 -0.4597412 -0.4733237 
0.508478 0.487884 0.298545 0.7294282 0.4757449 0.4915295 
0.508221 0.256876 0.522516 0.7294282 0.4757449 0.4915295 
0.645405 0.266984 0.309152 0.7294282 0.4757449 0.4915295 
0.645405 0.266984 0.309152 0.8343033 0.1042459 0.5413603 
0.508221 0.256876 0.522516 0.8343033 0.1042459 0.5413603 
0.528979 -0.009316 0.541784 0.8343033 0.1042459 0.5413603 
0.645405 0.266984 0.309152 0.8210506 0.1233156 0.557377 
0.528979 -0.009316 0.541784 0.8210506 0.1233156 0.557377 
0.683336 -0.012902 0.3152 0.8210506 0.1233156 0.557377 
0.695848 0.275832 0.045475 0.972228 0.135877 0.1905526 
0.645405 0.266984 0.309152 0.972228 0.135877 0.1905526 
0.683336 -0.012902 0.3152 0.972228 0.135877 0.1905526 
0.695848 0.275832 0.045475 0.9691685 0.1444658 0.1996048 
0.683336 -0.012902 0.3152 0.9691685 0.1444658 0.1996048 
0.740199 -0.017377 0.042344 0.9691685 0.1444658 0.1996048 
0.740199 -0.017377 0.042344 0.9637383 -0.1724153 0.2036701 
0.683336 -0.012902 0.3152 0.9637383 -0.1724153 0.2036701 
0.636359 -0.29186 0.301339 0.9637383 -0.1724153 0.2036701 
0.740199 -0.017377 0.042344 0.9640443 -0.1819978 0.1936373 
0.636359 -0.29186 0.301339 0.9640443 -0.1819978 0.1936373 
0.685778 -0.309029 0.039164 0.9640443 -0.1819978 0.1936373 
0.683336 -0.012902 0.3152 0.8155336 -0.1534359 0.5579986 
0.528979 -0.009316 0.541784 0.8155336 -0.1534359 0.5579986 
0.499859 -0.273379 0.511733 0.8155336 -0.1534359 0.5579986 
0.683336 -0.012902 0.3152 0.8206623 -0.1653786 0.5469583 
0.499859 -0.273379 0.511733 0.8206623 -0.1653786 0.5469583 
0.636359 -0.29186 0.301339 0.8206623 -0.1653786 0.5469583 
0.636359 -0.29186 0.301339 0.7814509 0.4092056 0.4710471 
0.499859 -0.273379 0.511733 0.7814509 0.4092056 0.4710471 
0.710695 -1.215925 0.980767 0.7814509 0.4092056 0.4710471 
0.636359 -0.29186 0.301339 0.7588624 -0.3450566 -0.5523258 
0.710695 -1.215925 0.980767 0.7588624 -0.3450566 -0.5523258 
0.510115 -0.5451 0.286095 0.7588624 -0.3450566 -0.5523258 
0.685778 -0.309029 0.039164 0.8732666 -0.4470075 0.1938807 
0.636359 -0.29186 0.301339 0.8732666 -0.4470075 0.1938807 
0.510115 -0.5451 0.286095 0.8732666 -0.4470075 0.1938807 
0.685778 -0.309029 0.039164 0.8411049 -0.533635 0.08818369 
0.510115 -0.5451 0.286095 0.8411049 -0.533635 0.08818369 
0.533427 -0.549612 0.036439 0.8411049 -0.533635 0.08818369 
0.547415 -0.027358 -0.455764 0.8264847 -0.1549059 -0.5412276 
0.696011 -0.022647 -0.230198 0.8264847 -0.1549059 -0.5412276 
0.648053 -0.304632 -0.222725 0.8264847 -0.1549059 -0.5412276 
0.547415 -0.027358 -0.455764 0.8371382 -0.1404666 -0.5286481 
0.648053 -0.304632 -0.222725 0.8371382 -0.1404666 -0.5286481 
0.516831 -0.296484 -0.432686 0.8371382 -0.1404666 -0.5286481 
0.696011 -0.022647 -0.230198 0.9715992 -0.1796165 -0.154055 
0.740199 -0.017377 0.042344 0.9715992 -0.1796165 -0.154055 
0.685778 -0.309029 0.039164 0.9715992 -0.1796165 -0.154055 
0.696011 -0.022647 -0.230198 0.9750345 -0.1696246 -0.1433013 
0.685778 -0.309029 0.039164 0.9750345 -0.1696246 -0.1433013 
0.648053 -0.304632 -0.222725 0.9750345 -0.1696246 -0.1433013 
0.648053 -0.304632 -0.222725 0.8383797 -0.5294418 -0.1296574 
0.685778 -0.309029 0.039164 0.8383797 -0.5294418 -0.1296574 
0.533427 -0.549612 0.036439 0.8383797 -0.5294418 -0.1296574 
0.648053 -0.304632 -0.222725 0.8456964 -0.5204688 -0.1179394 
0.533427 -0.549612 0.036439 0.8456964 -0.5204688 -0.1179394 
0.510725 -0.530111 -0.212406 0.8456964 -0.5204688 -0.1179394 
0.516831 -0.296484 -0.432686 0.7391703 -0.4721721 -0.4802924 
0.648053 -0.304632 -0.222725 0.7391703 -0.4721721 -0.4802924 
0.510725 -0.530111 -0.212406 0.7391703 -0.4721721 -0.4802924 
0.516831 -0.296484 -0.432686 0.8059343 -0.4171405 -0.4200758 
0.510725 -0.530111 -0.212406 0.8059343 -0.4171405 -0.4200758 
0.453052 -0.474689 -0.378089 0.8059343 -0.4171405 -0.4200758 
-0.460908 0.424377 -0.370261 -0.4579477 0.7621029 -0.4576933 
-0.522549 0.487939 -0.202749 -0.4579477 0.7621029 -0.4576933 
-0.290992 0.620521 -0.213673 -0.4579477 0.7621029 -0.4576933 
-0.460908 0.424377 -0.370261 -0.4008065 0.758007 -0.5145674 
-0.290992 0.620521 -0.213673 -0.4008065 0.758007 -0.5145674 
-0.276865 0.48384 -0.426021 -0.4008065 0.758007 -0.5145674 
-0.522549 0.487939 -0.202749 -0.5063866 0.8485347 -0.1534977 
-0.548074 0.518205 0.048768 -0.5063866 0.8485347 -0.1534977 
-0.301433 0.666051 0.052395 -0.5063866 0.8485347 -0.1534977 
-0.522549 0.487939 -0.202749 -0.4959078 0.8524894 -0.1653396 
-0.301433 0.666051 0.052395 -0.4959078 0.8524894 -0.1653396 
-0.290992 0.620521 -0.213673 -0.4959078 0.8524894 -0.1653396 
-0.290992 0.620521 -0.213673 -0.1557617 0.9726079 -0.1725465 
-0.301433 0.666051 0.052395 -0.1557617 0.9726079 -0.1725465 
0 0.714575 0.053804 -0.1557617 0.9726079 -0.1725465 
-0.290992 0.620521 -0.213673 -0.1478345 0.9722971 -0.1810614 
0 0.714575 0.053804 -0.1478345 0.9722971 -0.1810614 
0 0.662997 -0.223169 -0.1478345 0.9722971 -0.1810614 
-0.276865 0.48384 -0.426021 -0.1386436 0.8285252 -0.5425164 
-0.290992 0.620521 -0.213673 -0.1386436 0.8285252 -0.5425164 
0 0.662997 -0.223169 -0.1386436 0.8285252 -0.5425164 
-0.276865 0.48384 -0.426021 -0.1299223 0.8244497 -0.5508203 
0 0.662997 -0.223169 -0.1299223 0.8244497 -0.5508203 
0 0.510652 -0.451194 -0.1299223 0.8244497 -0.5508203 
-0.548074 0.518205 0.048768 -0.4948508 0.8497898 0.1816043 
-0.508478 0.487884 0.298545 -0.4948508 0.8497898 0.1816043 
-0.285541 0.612768 0.321647 -0.4948508 0.8497898 0.1816043 
-0.548074 0.518205 0.048768 -0.5062814 0.8397834 0.1960691 
-0.285541 0.612768 0.321647 -0.5062814 0.8397834 0.1960691 
-0.301433 0.666051 0.052395 -0.5062814 0.8397834 0.1960691 
-0.508478 0.487884 0.298545 0.4107771 0.8756359 -0.2540159 
-1.206867 0.994479 0.915477 0.4107771 0.8756359 -0.2540159 
-0.31493 0.476621 0.572712 0.4107771 0.8756359 -0.2540159 
-0.508478 0.487884 0.298545 -0.4825463 0.7923807 0.3732049 
-0.31493 0.476621 0.572712 -0.4825463 0.7923807 0.3732049 
-0.285541 0.612768 0.321647 -0.4825463 0.7923807 0.3732049 
-0.285541 0.612768 0.321647 0.02035674 0.8778843 0.4784401 
-0.31493 0.476621 0.572712 0.02035674 0.8778843 0.4784401 
0 0.450655 0.606957 0.02035674 0.8778843 0.4784401 
-0.285541 0.612768 0.321647 -0.1405038 0.7938379 0.5916757 
0 0.450655 0.606957 -0.1405038 0.7938379 0.5916757 
-0 0.660953 0.324805 -0.1405038 0.7938379 0.5916757 
-0.301433 0.666051 0.052395 -0.1651662 0.9656013 0.2008339 
-0.285541 0.612768 0.321647 -0.1651662 0.9656013 0.2008339 
-0 0.660953 0.324805 -0.1651662 0.9656013 0.2008339 
-0.301433 0.666051 0.052395 -0.1568575 0.9688378 0.1917005 
-0 0.660953 0.324805 -0.1568575 0.9688378 0.1917005 
0 0.714575 0.053804 -0.1568575 0.9688378 0.1917005 
0 0.714575 0.053804 0.1653781 0.9674733 0.1914305 
-0 0.660953 0.324805 0.1653781 0.9674733 0.1914305 
0.285541 0.612768 0.321647 0.1653781 0.9674733 0.1914305 
0 0.714575 0.053804 0.1566145 0.9670696 0.2006197 
0.285541 0.612768 0.321647 0.1566145 0.9670696 0.2006197 
0.301433 0.666051 0.052395 0.1566145 0.9670696 0.2006197 
-0 0.660953 0.324805 -0.001125205 0.8017911 0.5976035 
0 0.450655 0.606957 -0.001125205 0.8017911 0.5976035 
0.31493 0.476621 0.572712 -0.001125205 0.8017911 0.5976035 
-0 0.660953 0.324805 0.1529017 0.8761204 0.4572025 
0.31493 0.476621 0.572712 0.1529017 0.8761204 0.4572025 
0.285541 0.612768 0.321647 0.1529017 0.8761204 0.4572025 
0.285541 0.612768 0.321647 0.4825464 0.7923807 0.3732049 
0.31493 0.476621 0.572712 0.4825464 0.7923807 0.3732049 
0.508478 0.487884 0.298545 0.4825464 0.7923807 0.3732049 
0.31493 0.476621 0.572712 -0.4108513 0.8755852 -0.2540704 
1.206971 0.994586 0.91524 -0.4108513 0.8755852 -0.2540704 
0.508478 0.487884 0.298545 -0.4108513 0.8755852 -0.2540704 
0.301433 0.666051 0.052395 0.494608 0.8465599 0.1967211 
0.285541 0.612768 0.321647 0.494608 0.8465599 0.1967211 
0.508478 0.487884 0.298545 0.494608 0.8465599 0.1967211 
0.301433 0.666051 0.052395 0.5074654 0.8420873 0.182669 
0.508478 0.487884 0.298545 0.5074654 0.8420873 0.182669 
0.548074 0.518205 0.048768 0.5074654 0.8420873 0.182669 
0 0.510652 -0.451194 0.1381641 0.8235227 -0.5502009 
0 0.662997 -0.223169 0.1381641 0.8235227 -0.5502009 
0.290992 0.620521 -0.213673 0.1381641 0.8235227 -0.5502009 
0 0.510652 -0.451194 0.1297085 0.8298162 -0.5427529 
0.290992 0.620521 -0.213673 0.1297085 0.8298162 -0.5427529 
0.276865 0.48384 -0.426021 0.1297085 0.8298162 -0.5427529 
0 0.662997 -0.223169 0.1554871 0.9711428 -0.1808465 
0 0.714575 0.053804 0.1554871 0.9711428 -0.1808465 
0.301433 0.666051 0.052395 0.1554871 0.9711428 -0.1808465 
0 0.662997 -0.223169 0.1477829 0.9738693 -0.1724493 
0.301433 0.666051 0.052395 0.1477829 0.9738693 -0.1724493 
0.290992 0.620521 -0.213673 0.1477829 0.9738693 -0.1724493 
0.290992 0.620521 -0.213673 0.5053295 0.847048 -0.1647782 
0.301433 0.666051 0.052395 0.5053295 0.847048 -0.1647782 
0.548074 0.518205 0.048768 0.5053295 0.847048 -0.1647782 
0.290992 0.620521 -0.213673 0.4964514 0.8544389 -0.1531999 
0.548074 0.518205 0.048768 0.4964514 0.8544389 -0.1531999 
0.522549 0.487939 -0.202749 0.4964514 0.8544389 -0.1531999 
0.276865 0.48384 -0.426021 0.4466719 0.7385064 -0.5050668 
0.290992 0.620521 -0.213673 0.4466719 0.7385064 -0.5050668 
0.522549 0.487939 -0.202749 0.4466719 0.7385064 -0.5050668 
0.276865 0.48384 -0.426021 0.3950312 0.8012461 -0.4493942 
0.522549 0.487939 -0.202749 0.3950312 0.8012461 -0.4493942 
0.460908 0.424377 -0.370261 0.3950312 0.8012461 -0.4493942 
3 0 1 2 
3 3 4 5 
3 6 7 8 
3 9 10 11 
3 12 13 14 
3 15 16 17 
3 18 19 20 
3 21 22 23 
3 24 25 26 
3 27 28 29 
3 30 31 32 
3 33 34 35 
3 36 37 38 
3 39 40 41 
3 42 43 44 
3 45 46 47 
3 48 49 50 
3 51 52 53 
3 54 55 56 
3 57 58 59 
3 60 61 62 
3 63 64 65 
3 66 67 68 
3 69 70 71 
3 72 73 74 
3 75 76 77 
3 78 79 80 
3 81 82 83 
3 84 85 86 
3 87 88 89 
3 90 91 92 
3 93 94 95 
3 96 97 98 
3 99 100 101 
3 102 103 104 
3 105 106 107 
3 108 109 110 
3 111 112 113 
3 114 115 116 
3 117 118 119 
3 120 121 122 
3 123 124 125 
3 126 127 128 
3 129 130 131 
3 132 133 134 
3 135 136 137 
3 138 139 140 
3 141 142 143 
3 144 145 146 
3 147 148 149 
3 150 151 152 
3 153 154 155 
3 156 157 158 
3 159 160 161 
3 162 163 164 
3 165 166 167 
3 168 169 170 
3 171 172 173 
3 174 175 176 
3 177 178 179 
3 180 181 182 
3 183 184 185 
3 186 187 188 
3 189 190 191 
3 192 193 194 
3 195 196 197 
3 198 199 200 
3 201 202 203 
3 204 205 206 
3 207 208 209 
3 210 211 212 
3 213 214 215 
3 216 217 218 
3 219 220 221 
3 222 223 224 
3 225 226 227 
3 228 229 230 
3 231 232 233 
3 234 235 236 
3 237 238 239 
3 240 241 242 
3 243 244 245 
3 246 247 248 
3 249 250 251 
3 252 253 254 
3 255 256 257 
3 258 259 260 
3 261 262 263 
3 264 265 266 
3 267 268 269 
3 270 271 272 
3 273 274 275 
3 276 277 278 
3 279 280 281 
3 282 283 284 
3 285 286 287 
3 288 289 290 
3 291 292 293 
3 294 295 296 
3 297 298 299 
3 300 301 302 
3 303 304 305 
3 306 307 308 
3 309 310 311 
3 312 313 314 
3 315 316 317 
3 318 319 320 
3 321 322 323 
3 324 325 326 
3 327 328 329 
3 330 331 332 
3 333 334 335 
3 336 337 338 
3 339 340 341 
3 342 343 344 
3 345 346 347 
3 348 349 350 
3 351 352 353 
3 354 355 356 
3 357 358 359 
3 360 361 362 
3 363 364 365 
3 366 367 368 
3 369 370 371 
3 372 373 374 
3 375 376 377 
3 378 379 380 
3 381 382 383 
3 384 385 386 
3 387 388 389 
3 390 391 392 
3 393 394 395 
3 396 397 398 
3 399 400 401 
3 402 403 404 
3 405 406 407 
3 408 409 410 
3 411 412 413 
3 414 415 416 
3 417 418 419 
3 420 421 422 
3 423 424 425 
3 426 427 428 
3 429 430 431 
3 432 433 434 
3 435 436 437 
3 438 439 440 
3 441 442 443 
3 444 445 446 
3 447 448 449 
3 450 451 452 
3 453 454 455 
3 456 457 458 
3 459 460 461 
3 462 463 464 
3 465 466 467 
3 468 469 470 
3 471 472 473 
3 474 475 476 
3 477 478 479 
3 480 481 482 
3 483 484 485 
3 486 487 488 
3 489 490 491 
3 492 493 494 
3 495 496 497 
3 498 499 500 
3 501 502 503 
3 504 505 506 
3 507 508 509 
3 510 511 512 
3 513 514 515 
3 516 517 518 
3 519 520 521 
3 522 523 524 
3 525 526 527 
3 528 529 530 
3 531 532 533 
3 534 535 536 
3 537 538 539 
3 540 541 542 
3 543 544 545 
3 546 547 548 
3 549 550 551 
3 552 553 554 
3 555 556 557 
3 558 559 560 
3 561 562 563 
3 564 565 566 
3 567 568 569 
3 570 571 572 
3 573 574 575 
