ply
format ascii 1.0
comment VCGLIB generated
element vertex 562
property float x
property float y
property float z
property float nx
property float ny
property float nz
property float texture_u
property float texture_v
element face 610
property list uchar int vertex_indices
end_header
-1.8393 16.0407 30.0298 -17.49074 6.384703 98.25127 0.912339 0.360380
-4.7998 14.7968 29.2951 -32.95453 -0.109898 94.41392 0.836087 0.360380
-4.4718 14.4773 29.3001 -7.306302 -25.63011 96.38318 0.840144 0.350601
-1.8263 15.5888 29.9567 -16.74271 -29.59727 94.04087 0.908283 0.350601
-5.9544 11.7936 28.5883 -38.98549 -15.79988 90.72209 0.782175 0.306537
-4.6268 8.790501 28.3234 -32.05135 -31.48373 89.33917 0.782182 0.230392
-4.3172 9.110001 28.4319 -7.8586 -6.488278 99.47938 0.791974 0.234442
-5.5036 11.7936 28.6686 -3.625699 -16.05924 98.63548 0.791968 0.302486
1.8214 10.6576 9.468299 6.231971 -93.46098 -35.0173 0.566685 0.480892
-1.5777 7.471201 28.5604 -0.6623089 -99.92813 3.732454 0.566685 0.007425
-4.6733 8.741102 28.2212 -69.69714 -71.60771 -3.827109 0.647206 0.005873
-1.2742 11.9276 9.1291 -62.79906 -65.13991 -42.58018 0.647206 0.479340
-1.5947 7.546601 28.6557 -16.21194 -37.98455 91.07331 0.836106 0.176549
-1.6077 7.998402 28.7288 -17.521 -2.523938 98.42076 0.840161 0.186328
0.8367001 14.4279 30.1513 -69.75597 -71.63294 -1.681666 0.745366 0.257985
-1.8094 15.5134 29.8614 -1.037609 -99.82387 5.841255 0.742136 0.189169
-1.6505 15.6624 28.9692 2.841345 -98.67706 -15.96145 0.764270 0.188557
0.9955 14.5768 29.2591 -67.60605 -69.776 -23.67981 0.767501 0.257374
2.5204 11.7936 30.0971 5.282841 -15.79652 98.60306 0.966270 0.230392
1.1928 14.7968 30.362 -1.651127 -0.1067973 99.98632 0.966262 0.306537
0.8832 14.4773 30.2535 -26.40508 -25.63297 92.98239 0.956470 0.302486
2.0695 11.7936 30.0169 -30.63769 -16.0589 93.82668 0.956477 0.234442
-4.2419 9.1864 28.3724 62.13166 64.48473 44.51268 0.741795 0.305642
-1.5959 8.100801 28.6623 -6.58287 92.67658 36.98269 0.735835 0.375398
-1.437 8.249701 27.77 -2.841345 98.67706 15.96145 0.713774 0.374240
-4.0831 9.335302 27.4801 67.60605 69.776 23.67981 0.719733 0.304484
-1.2742 11.9276 9.1291 -62.79906 -65.13991 -42.58018 0.499713 0.010965
-4.6733 8.741102 28.2212 -69.69714 -71.60771 -3.827109 0.499713 0.482416
-6.0287 11.8071 28.4916 -99.92361 -3.231994 2.197364 0.433241 0.473675
-2.6296 14.9936 9.399499 -93.02414 3.231921 -36.55225 0.433241 0.002224
-4.8499 14.8731 29.2132 -73.63625 65.13971 18.28998 0.352231 0.476038
-1.4508 18.0596 10.1211 -66.7365 71.60744 -20.46012 0.352231 0.004587
4.8438 11.9276 10.2183 73.63625 -65.13971 -18.28998 0.500431 0.475283
1.4447 8.741102 29.3105 66.7365 -71.60744 20.46012 0.500431 0.001816
0.9875998 9.1864 29.3034 -73.67717 64.48475 20.33208 0.741795 0.432853
1.1465 9.335302 28.4112 -71.62503 69.77561 -1.10482 0.719733 0.431695
6.0226 14.9936 10.9399 99.92361 3.231994 -2.197364 0.142050 0.015463
2.6235 11.8071 30.032 93.02515 -3.231956 36.54964 0.142050 0.495586
1.4447 8.741102 29.3105 66.7365 -71.60744 20.46012 0.058127 0.495128
4.8438 11.9276 10.2183 73.63625 -65.13971 -18.28998 0.058127 0.015006
1.9952 11.8071 29.9202 -99.84292 -3.573758 4.31537 0.721966 0.058375
0.8367001 14.4279 30.1513 -69.75597 -71.63294 -1.681666 0.726973 0.001310
0.9955 14.5768 29.2591 -67.60605 -69.776 -23.67981 0.748975 0.000359
2.1541 11.956 29.028 -98.45202 -7.661388e-07 -17.52721 0.743968 0.057423
-4.3929 14.4279 29.2203 66.05282 -71.63175 22.49266 0.738585 0.133540
-5.4005 11.8071 28.6035 92.21891 -3.570741 38.50876 0.732532 0.205391
-5.2416 11.956 27.7113 98.45202 7.661388e-07 17.52721 0.710049 0.203620
-4.234 14.5768 28.328 71.62503 -69.77561 1.10482 0.716102 0.131770
1.3658 8.790501 29.3903 -0.74771 -31.48632 94.91077 0.912357 0.176549
1.0378 9.110001 29.3853 -26.95722 -6.488249 96.0792 0.908300 0.186328
0.9875998 9.1864 29.3034 -73.67717 64.48475 20.33208 0.726973 0.127439
1.1465 9.335302 28.4112 -71.62503 69.77561 -1.10482 0.748975 0.126487
4.6672 18.0596 11.2103 69.69714 71.60771 3.827109 0.202967 0.003599
1.2681 14.8731 30.3024 62.79906 65.13991 42.58018 0.202967 0.483722
-4.2419 9.1864 28.3724 62.13166 64.48473 44.51268 0.738585 0.258367
-4.0831 9.335302 27.4801 67.60605 69.776 23.67981 0.716102 0.256597
-4.3929 14.4279 29.2203 66.05282 -71.63175 22.49266 0.745366 0.132382
-4.234 14.5768 28.328 71.62503 -69.77561 1.10482 0.767501 0.131770
-1.6505 15.6624 28.9692 -17.2961 -16.214 97.14912 0.538114 0.642755
-4.234 14.5768 28.328 -17.2961 -16.214 97.14912 0.538114 0.829399
-5.2416 11.956 27.7113 -17.2961 -16.214 97.14912 0.406321 0.961364
-5.2416 11.956 27.7113 -17.29589 -16.2139 97.14918 0.406321 0.961364
-4.0831 9.335302 27.4801 -17.29589 -16.2139 97.14918 0.219937 0.961345
-1.437 8.249701 27.77 -17.29589 -16.2139 97.14918 0.088144 0.829354
-1.437 8.249701 27.77 -17.2963 -16.214 97.14909 0.088144 0.829354
1.1465 9.335302 28.4112 -17.2963 -16.214 97.14909 0.088144 0.642710
2.1541 11.956 29.028 -17.2963 -16.214 97.14909 0.219937 0.510745
0.9955 14.5768 29.2591 -17.2963 -16.214 97.14909 0.406321 0.510764
-1.6505 15.6624 28.9692 -17.2963 -16.214 97.14909 0.538114 0.642755
-1.437 8.249701 27.77 -17.2961 -16.214 97.14912 0.088144 0.829354
1.5716 19.3295 10.8711 0.6623089 99.92813 -3.732454 0.270088 0.471862
-1.8275 16.1431 29.9633 -6.231971 93.46098 35.0173 0.270088 0.001633
1.2681 14.8731 30.3024 62.79906 65.13991 42.58018 0.351514 0.004303
4.6672 18.0596 11.2103 69.69714 71.60771 3.827109 0.351514 0.474532
-1.4508 18.0596 10.1211 -66.7365 71.60744 -20.46012 0.203684 0.482291
-4.8499 14.8731 29.2132 -73.63625 65.13971 18.28998 0.203684 0.012062
1.4156 8.750001 29.3674 40.55375 -62.06665 67.10533 0.912923 0.175218
2.5873 11.7976 30.0846 60.16212 -11.06319 79.10833 0.967633 0.229858
2.5873 11.7976 30.0846 60.16212 -11.06319 79.10833 0.141814 0.496897
1.4156 8.750001 29.3674 40.55375 -62.06665 67.10533 0.058395 0.496443
-1.5887 7.487702 28.6218 -9.723236 -83.1938 54.62831 0.835543 0.175218
1.4156 8.750001 29.3674 40.55375 -62.06665 67.10533 0.500975 0.000359
-1.5887 7.487702 28.6218 -9.723236 -83.1938 54.62831 0.566831 0.005934
0.8442999 14.4368 30.2148 -56.0353 -56.56331 60.50322 0.743893 0.258364
-1.8203 15.5299 29.9228 -11.63702 -74.77854 65.36629 0.740640 0.189063
-1.8203 15.5299 29.9228 -11.63702 -74.77854 65.36629 0.907720 0.349270
0.8442999 14.4368 30.2148 -56.0353 -56.56331 60.50322 0.955109 0.301953
2.011 11.7976 29.982 -75.47424 -12.58612 64.38346 0.720436 0.058292
0.8442999 14.4368 30.2148 -56.0353 -56.56331 60.50322 0.725478 0.000826
2.011 11.7976 29.982 -75.47424 -12.58612 64.38346 0.955115 0.235036
0.9964 9.158401 29.3609 -58.56886 31.38261 74.73167 0.725478 0.127841
0.9964 9.158401 29.3609 -58.56886 31.38261 74.73167 0.907737 0.187718
-1.6053 8.065201 28.7152 -15.22004 49.60015 85.48788 0.737106 0.375619
0.9964 9.158401 29.3609 -58.56886 31.38261 74.73167 0.743108 0.433478
-1.6053 8.065201 28.7152 -15.22004 49.60015 85.48788 0.840726 0.187718
-4.2699 9.158401 28.4233 29.17936 31.38591 90.35204 0.743108 0.305373
-4.2699 9.158401 28.4233 29.17936 31.38591 90.35204 0.793338 0.235036
-5.4366 11.7976 28.656 48.62031 -12.58614 86.47344 0.733828 0.205730
-4.2699 9.158401 28.4233 29.17936 31.38591 90.35204 0.739923 0.259079
-5.4366 11.7976 28.656 48.62031 -12.58614 86.47344 0.793331 0.301953
-4.422 14.4368 29.2772 31.70941 -56.56127 76.12711 0.739923 0.133375
-4.422 14.4368 29.2772 31.70941 -56.56127 76.12711 0.840710 0.349270
-4.422 14.4368 29.2772 31.70941 -56.56127 76.12711 0.743893 0.131878
1.2401 14.8452 30.3534 37.61435 39.93987 83.60604 0.967625 0.307130
-1.8369 16.1075 30.0162 -13.88002 61.06546 77.96381 0.912904 0.361770
-1.8369 16.1075 30.0162 -13.88002 61.06546 77.96381 0.270242 0.000359
1.2401 14.8452 30.3534 37.61435 39.93986 83.60603 0.351179 0.003013
-4.8412 14.8452 29.2707 -64.1579 39.93768 65.48853 0.835524 0.361770
-4.8412 14.8452 29.2707 -64.1579 39.93768 65.48853 0.204237 0.010726
-6.0129 11.7976 28.5534 -83.76698 -11.06337 53.48547 0.780813 0.307130
-4.6657 8.750001 28.2847 -61.21949 -62.06792 48.98722 0.780821 0.229858
-4.6657 8.750001 28.2847 -61.21949 -62.06792 48.98722 0.499165 0.483889
-6.0129 11.7976 28.5534 -83.76698 -11.06337 53.48547 0.433092 0.475201
-4.8412 14.8452 29.2707 -64.1579 39.93768 65.48853 0.352569 0.477549
1.2401 14.8452 30.3534 37.61435 39.93987 83.60604 0.202365 0.485104
-4.6657 8.750001 28.2847 -61.21949 -62.06792 48.98722 0.646869 0.004391
1.596 19.2211 10.7342 16.21194 37.98455 -91.07331 0.601294 0.617664
-1.3374 17.9886 10.0063 0.74771 31.48632 -94.91077 0.653591 0.670799
-1.409 18.0468 10.0393 -40.55116 62.06744 -67.10618 0.652988 0.672815
1.5873 19.3058 10.7829 9.723236 83.1938 -54.62831 0.599568 0.618538
1.5873 19.3058 10.7829 9.723236 83.1938 -54.62831 0.270309 0.474079
-1.409 18.0468 10.0393 -40.55115 62.06743 -67.10618 0.204478 0.484418
-2.4814 15.013 9.306 -5.279748 15.79655 -98.60322 0.727551 0.669969
-1.166 12.0373 9.043499 1.651127 0.1098974 -99.98631 0.779848 0.615659
-1.2339 11.9678 9.055899 -37.61481 -39.93726 -83.60708 0.781955 0.616490
-2.5776 15.0073 9.3239 -60.16212 11.06319 -79.10833 0.728535 0.671966
-2.5776 15.0073 9.3239 -60.16212 11.06319 -79.10833 0.433026 0.000359
-1.2339 11.9678 9.055899 -37.61481 -39.93726 -83.60707 0.498925 0.009024
4.7717 12.0373 10.1007 32.95453 0.109898 -94.41392 0.727551 0.486548
5.9158 15.013 10.801 38.98831 15.79677 -90.72142 0.653591 0.487378
5.9999 15.0073 10.8511 83.76788 11.06309 -53.48413 0.652988 0.485455
4.8313 11.9678 10.1357 64.1579 -39.93768 -65.48853 0.728535 0.484607
4.8313 11.9678 10.1357 64.1579 -39.93768 -65.48853 0.058512 0.012761
5.9999 15.0073 10.8511 83.76788 11.06309 -53.48413 0.141711 0.013215
4.6003 17.9886 11.0634 32.05104 31.48644 -89.33833 0.601294 0.541688
4.6562 18.0468 11.1191 61.22137 62.06679 -48.98632 0.599568 0.540931
4.6562 18.0468 11.1191 61.22136 62.06679 -48.98632 0.202102 0.001453
4.6562 18.0468 11.1191 61.22137 62.06679 -48.98632 0.351032 0.476726
1.8384 10.8048 9.3727 17.49074 -6.384703 -98.25127 0.779848 0.539683
1.8349 10.7087 9.392098 13.88028 -61.06351 -77.96529 0.781955 0.538883
1.8349 10.7087 9.392098 13.88028 -61.06351 -77.96529 0.001243 0.000359
1.8214 10.6576 9.468299 6.231971 -93.46098 -35.0173 0.000359 0.002495
-1.2339 11.9678 9.055899 -37.61481 -39.93726 -83.60708 0.646721 0.481286
1.8349 10.7087 9.392098 13.88028 -61.06351 -77.96529 0.566895 0.482825
-1.409 18.0468 10.0393 -40.55116 62.06744 -67.10618 0.352716 0.002701
-1.3374 17.9886 10.0063 17.29611 16.2139 -97.14914 0.653591 0.670799
1.596 19.2211 10.7342 17.29611 16.2139 -97.14914 0.601294 0.617664
4.6003 17.9886 11.0634 17.29611 16.2139 -97.14914 0.601294 0.541688
4.6003 17.9886 11.0634 17.2962 16.2139 -97.14912 0.601294 0.541688
5.9158 15.013 10.801 17.2962 16.2139 -97.14912 0.653591 0.487378
4.7717 12.0373 10.1007 17.2962 16.2139 -97.14912 0.727551 0.486548
4.7717 12.0373 10.1007 17.2961 16.214 -97.14912 0.727551 0.486548
1.8384 10.8048 9.3727 17.2961 16.214 -97.14912 0.779848 0.539683
-1.166 12.0373 9.043499 17.2961 16.214 -97.14912 0.779848 0.615659
-2.4814 15.013 9.306 17.2961 16.214 -97.14912 0.727551 0.669969
-1.3374 17.9886 10.0063 17.2961 16.214 -97.14912 0.653591 0.670799
4.7717 12.0373 10.1007 17.29611 16.2139 -97.14914 0.727551 0.486548
0.4743 5.9492 20.5954 17.87781 -17.0874 96.89379 0.994609 0.361348
0.4743 7.044401 20.5954 18.23824 18.52206 96.56242 0.969262 0.361348
-0.4742 7.044401 20.5954 -18.23535 18.51917 96.56352 0.968779 0.339673
-0.4742 5.949101 20.5954 -17.8749 -17.08749 96.89431 0.994126 0.339673
0.7868999 1.528 6.4521 18.25661 -89.78144 40.07481 0.920090 0.639150
-0.7868999 1.528 6.4521 -18.25951 -89.78094 40.0746 0.882711 0.643527
-0.8639998 -1.4738 -0.06659994 -17.25225 -89.39259 41.36817 0.881605 0.489481
0.8639998 -1.4738 -0.06659994 17.24934 -89.39306 41.36839 0.922647 0.484674
0.5066 5.786701 18.8009 98.19314 -18.32693 4.715236 0.820895 0.532619
0.6903 4.316001 12.9707 98.01167 -18.01537 8.316425 0.807160 0.671416
0.6888 5.438001 12.9707 97.83567 20.19771 -4.498514 0.783059 0.664066
0.5066 6.880001 18.8009 97.9112 20.24025 -1.931834 0.797401 0.525450
0.4781 6.908901 18.8009 19.41306 96.82134 -15.77223 0.960970 0.529719
-0.4781 6.908901 18.8009 -19.41018 96.8219 -15.77232 0.938732 0.527506
-0.4743 7.070201 20.5671 -18.54967 97.79908 9.552538 0.942276 0.485080
0.4743 7.070201 20.5671 18.54673 97.79993 9.54952 0.964337 0.487276
-0.5027 5.947101 20.567 -96.51998 -17.48139 19.44984 0.879955 0.990977
-0.5027 7.041301 20.567 -96.97131 17.87193 16.64811 0.856436 0.999117
-0.5065 6.880001 18.8009 -97.9112 20.24025 -1.931834 0.846188 0.959367
-0.5065 5.786701 18.8009 -98.19314 -18.32693 4.715236 0.869686 0.951234
-0.6888 5.438001 12.9707 -97.83567 20.19771 -4.498514 0.832574 0.820956
-0.6903 4.316001 12.9707 -98.01113 -18.01827 8.316381 0.856695 0.812606
-0.7835 2.7211 6.4521 -18.26256 90.03699 -39.49456 0.924882 0.826409
0.7835 2.7211 6.4521 18.26256 90.03699 -39.49456 0.961324 0.830036
0.8626 -0.3218 -0.06659999 19.11107 89.03335 -41.32592 0.964337 0.989172
-0.8626 -0.3218 -0.06659999 -19.11397 89.03284 -41.32568 0.924214 0.985178
-0.6603 5.466901 12.9707 -18.96795 93.47223 -30.05265 0.928265 0.668025
0.6603 5.466901 12.9707 18.97085 93.47169 -30.05248 0.958976 0.671082
0.812 2.692201 6.4521 97.83127 19.43443 -7.165786 0.791891 0.826839
0.8152 1.5569 6.4521 97.78554 -18.57381 9.643913 0.816267 0.834269
0.8924 -1.4449 -0.06659994 96.37611 -23.77742 12.09471 0.830893 0.998925
0.8910999 -0.3507 -0.06659999 98.85107 14.11812 -5.398787 0.807387 0.991756
-0.812 2.692201 6.4521 -97.83127 19.43443 -7.165786 0.841398 0.657969
-0.8152 1.5569 6.4521 -97.78554 -18.57381 9.643913 0.865811 0.649516
-0.4781 5.757801 18.8009 -19.73647 -96.53395 17.07836 0.896648 0.936895
-0.6619 4.2871 12.9707 -19.04982 -92.75552 32.14841 0.886284 0.797774
0.6619 4.2871 12.9707 19.04982 -92.75552 32.14841 0.917725 0.794092
0.4781 5.757801 18.8009 19.73647 -96.53395 17.07836 0.919359 0.934235
0.5027 7.041301 20.567 96.97134 17.86894 16.65121 0.807341 0.485040
0.5027 5.947101 20.567 96.51998 -17.48139 19.44984 0.830855 0.492215
-0.8910999 -0.3507 -0.06659999 -98.85107 14.11812 -5.398787 0.856433 0.492881
-0.8924 -1.4449 -0.06659994 -96.37611 -23.77742 12.09471 0.879957 0.484738
1.8911 -1.9152 1.1656 17.83516 -17.85656 96.76287 0.993657 0.157359
1.8771 1.9152 1.1656 17.80185 17.96367 96.74918 0.905087 0.156719
-1.8771 1.9152 1.1656 -17.80185 17.96367 96.74918 0.903485 0.071003
-1.8911 -1.9152 1.1656 -17.83816 -17.85646 96.76233 0.992043 0.071001
1.8956 1.988 -8.689824e-08 0 100 -4.371139e-06 0.708546 0.674819
-1.8956 1.988 -8.689824e-08 0 100 -4.371139e-06 0.708546 0.760734
-1.878 1.988 1.0928 0 100 -4.371139e-06 0.683044 0.760237
1.878 1.988 1.0928 0 100 -4.371139e-06 0.683044 0.675121
-1.9648 -1.9152 1.0928 -99.98646 0.3591 1.606499 0.652596 0.674608
-1.951 1.9152 1.0929 -99.98646 0.3591 1.606499 0.652596 0.761860
-1.9686 1.9152 -8.371605e-08 -99.98646 0.3591 1.606499 0.627241 0.762005
-1.9648 -1.9152 1.0928 -99.99235 0.2468002 1.212901 0.652596 0.674608
-1.9686 1.9152 -8.371605e-08 -99.99235 0.2468002 1.212901 0.627241 0.762005
-1.978 -1.9152 8.371605e-08 -99.99235 0.2468002 1.212901 0.627246 0.674772
1.978 -1.9152 8.371605e-08 99.9868 0.2468001 1.6063 0.626473 0.675763
1.9686 1.9152 -8.371605e-08 99.9868 0.2468001 1.6063 0.626473 0.761949
1.951 1.9152 1.0928 99.9868 0.2468001 1.6063 0.600740 0.761001
1.978 -1.9152 8.371605e-08 99.99201 0.3591001 1.2128 0.626473 0.675763
1.951 1.9152 1.0928 99.99201 0.3591001 1.2128 0.600740 0.761001
1.9648 -1.9152 1.0928 99.99201 0.3591001 1.2128 0.600729 0.674847
-1.8922 -1.988 1.0928 -17.93304 -96.69365 18.13136 0.655687 0.674810
-1.8915 -1.9667 1.1443 -17.19459 -69.5445 69.77042 0.654531 0.674697
-1.9337 -1.9572 1.1349 -57.52565 -57.51046 58.16656 0.654768 0.673695
-1.9436 -1.9667 1.0928 -69.64708 -69.45478 18.0366 0.655727 0.673532
-1.9428 -1.9152 1.1443 -69.2335 -16.94446 70.13992 0.992076 0.069724
-1.9337 -1.9572 1.1349 -57.52565 -57.51046 58.16656 0.993077 0.069895
-1.8915 -1.9667 1.1443 -17.19459 -69.5445 69.77042 0.993289 0.070900
-1.9648 -1.9152 1.0928 -96.56325 -17.61878 19.10812 0.652596 0.674608
-1.9436 -1.9667 1.0928 -69.64708 -69.45478 18.0366 0.652619 0.673532
-1.9337 -1.9572 1.1349 -57.52565 -57.51046 58.16656 0.653604 0.673783
-1.9428 -1.9152 1.1443 -69.2335 -16.94446 70.13992 0.653813 0.674697
-1.8772 1.9666 1.1443 -17.11509 69.58028 69.75428 0.902350 0.070900
-1.9194 1.9572 1.1349 -57.2443 57.72042 58.23611 0.902575 0.069894
-1.9289 1.9152 1.1443 -69.10175 17.37764 70.16386 0.903518 0.069724
-1.878 1.988 1.0928 -17.86889 96.69636 18.18019 0.683044 0.760237
-1.9295 1.9666 1.0928 -69.37953 69.66954 18.23838 0.683052 0.761286
-1.9194 1.9572 1.1349 -57.2443 57.72042 58.23611 0.682075 0.761001
-1.8772 1.9666 1.1443 -17.11509 69.58028 69.75428 0.681851 0.760096
-1.951 1.9152 1.0929 -96.42587 18.1987 19.25773 0.652596 0.761860
-1.9289 1.9152 1.1443 -69.10175 17.37764 70.16386 0.653813 0.761950
-1.9194 1.9572 1.1349 -57.2443 57.72042 58.23611 0.653604 0.762951
-1.9295 1.9666 1.0928 -69.37953 69.66954 18.23838 0.652619 0.763129
1.8922 -1.988 1.0928 17.93304 -96.69365 18.13136 0.655687 0.761001
1.9437 -1.9667 1.0928 69.64708 -69.45478 18.0366 0.655728 0.762064
1.9337 -1.9572 1.1349 57.52565 -57.51046 58.16656 0.654768 0.761772
1.8916 -1.9667 1.1443 17.19459 -69.5445 69.77042 0.654531 0.760857
1.9648 -1.9152 1.0928 96.5638 -17.61888 19.10523 0.600729 0.674847
1.9428 -1.9152 1.1443 69.2335 -16.94446 70.13992 0.599568 0.674647
1.9337 -1.9572 1.1349 57.52565 -57.51046 58.16656 0.599813 0.673639
1.9437 -1.9667 1.0928 69.64708 -69.45478 18.0366 0.600780 0.673532
1.8916 -1.9667 1.1443 17.19459 -69.5445 69.77042 0.994903 0.157278
1.9337 -1.9572 1.1349 57.52565 -57.51046 58.16656 0.994727 0.158196
1.9428 -1.9152 1.1443 69.2335 -16.94446 70.13992 0.993735 0.158445
1.878 1.988 1.0928 17.86899 96.6969 18.17719 0.683044 0.675121
1.8772 1.9666 1.1443 17.11509 69.58028 69.75428 0.681851 0.675014
1.9194 1.9572 1.1349 57.2443 57.72042 58.23611 0.682075 0.674005
1.9295 1.9666 1.0928 69.37953 69.66954 18.23838 0.683052 0.673833
1.9289 1.9152 1.1443 69.10175 17.37764 70.16386 0.905165 0.157807
1.9194 1.9572 1.1349 57.2443 57.72042 58.23611 0.904213 0.157545
1.8772 1.9666 1.1443 17.11509 69.58028 69.75428 0.903952 0.156623
1.951 1.9152 1.0928 96.42587 18.1987 19.25773 0.600740 0.761001
1.9295 1.9666 1.0928 69.37953 69.66954 18.23838 0.600791 0.762002
1.9194 1.9572 1.1349 57.2443 57.72042 58.23611 0.599823 0.761683
1.9289 1.9152 1.1443 69.10175 17.37764 70.16386 0.599578 0.760799
-1.9054 -1.988 8.689824e-08 -19.67256 -98.04559 0.2350086 0.681093 0.674960
-1.9568 -1.9667 8.596718e-08 -70.96094 -70.45432 0.8576312 0.681134 0.673681
-1.9568 -1.9667 8.596718e-08 -70.96095 -70.45432 0.8576313 0.627269 0.673696
-1.978 -1.9152 8.371605e-08 -98.13057 -19.20247 1.287919 0.627246 0.674772
-1.8956 1.988 -8.689824e-08 -19.67549 98.04477 0.3173988 0.708546 0.760734
-1.9471 1.9666 -8.596281e-08 -70.79 70.6221 1.138334 0.708554 0.761783
-1.9471 1.9666 -8.596281e-08 -70.79 70.6221 1.138334 0.627264 0.763274
-1.9686 1.9152 -8.371605e-08 -98.02009 19.74566 1.474011 0.627241 0.762005
1.9054 -1.988 8.689824e-08 19.67256 -98.04559 0.2350086 0.681093 0.761751
1.9568 -1.9667 8.596718e-08 70.96095 -70.45432 0.8576313 0.681134 0.762815
1.9568 -1.9667 8.596718e-08 70.96094 -70.45432 0.8576312 0.626524 0.674448
1.978 -1.9152 8.371605e-08 98.13057 -19.20247 1.287919 0.626473 0.675763
1.8956 1.988 -8.689824e-08 19.67549 98.04477 0.3173988 0.708546 0.674819
1.9471 1.9666 -8.596281e-08 70.79 70.6221 1.138334 0.708554 0.673532
1.9471 1.9666 -8.596281e-08 70.79 70.6221 1.138334 0.626524 0.762950
1.9686 1.9152 -8.371605e-08 98.02009 19.74566 1.474011 0.626473 0.761949
-1.9054 -1.988 8.689824e-08 0 -100 -9.562887e-05 0.681093 0.674960
1.9054 -1.988 8.689824e-08 0 -100 -9.562887e-05 0.681093 0.761751
1.8922 -1.988 1.0928 0 -100 -9.562887e-05 0.655687 0.761001
-1.9054 -1.988 8.689824e-08 0 -100 -0.0001956289 0.681093 0.674960
1.8922 -1.988 1.0928 0 -100 -0.0001956289 0.655687 0.761001
-1.8922 -1.988 1.0928 0 -100 -0.0001956289 0.655687 0.674810
-0.4743 5.918201 20.5671 -18.22884 -94.91634 25.66321 0.900117 0.979576
-0.4742 5.928201 20.5871 -17.03591 -66.55979 72.66068 0.900112 0.980049
-0.4907 5.931801 20.5834 -57.42477 -55.15113 60.50413 0.899693 0.979999
-0.4944 5.926701 20.567 -69.57516 -68.13159 22.74611 0.899593 0.979619
-0.4943 5.948601 20.587 -69.20532 -16.42236 70.29176 0.994149 0.339176
-0.4907 5.931801 20.5834 -57.42477 -55.15113 60.50413 0.994551 0.339244
-0.4742 5.928201 20.5871 -17.03591 -66.55979 72.66068 0.994632 0.339636
-0.4944 5.926701 20.567 -69.57516 -68.13159 22.74611 0.880359 0.990848
-0.4907 5.931801 20.5834 -57.42477 -55.15113 60.50413 0.880364 0.991252
-0.4943 5.948601 20.587 -69.20532 -16.42236 70.29176 0.880044 0.991448
-0.4742 7.063801 20.5871 -18.28701 72.70856 66.17442 0.968351 0.339636
-0.4907 7.059601 20.5834 -59.00965 59.57128 54.48969 0.968450 0.339244
-0.4943 7.0434 20.587 -70.36887 17.6464 68.82462 0.968813 0.339176
-0.4944 7.061601 20.567 -70.72856 69.76424 11.42032 0.941858 0.485043
-0.4907 7.059601 20.5834 -59.00965 59.57128 54.48969 0.941997 0.484662
-0.4742 7.063801 20.5871 -18.28701 72.70856 66.17442 0.942364 0.484607
-0.4943 7.0434 20.587 -70.36887 17.6464 68.82462 0.856515 0.999591
-0.4907 7.059601 20.5834 -59.00965 59.57128 54.48969 0.856124 0.999641
-0.4944 7.061601 20.567 -70.72856 69.76424 11.42032 0.855967 0.999290
0.4743 5.918201 20.5671 18.22884 -94.91634 25.66321 0.922647 0.976938
0.4944 5.926701 20.567 69.57516 -68.13159 22.74611 0.923078 0.976868
0.4907 5.931801 20.5834 57.42276 -55.15208 60.50517 0.923001 0.977270
0.4743 5.928201 20.5871 17.03588 -66.55667 72.66354 0.922640 0.977410
0.4944 5.948601 20.587 69.20532 -16.42236 70.29176 0.831027 0.491794
0.4907 5.931801 20.5834 57.42276 -55.15208 60.50517 0.831385 0.492002
0.4944 5.926701 20.567 69.57516 -68.13159 22.74611 0.831346 0.492384
0.4743 5.928201 20.5871 17.03588 -66.55667 72.66354 0.995115 0.361311
0.4907 5.931801 20.5834 57.42276 -55.15208 60.50517 0.995051 0.361669
0.4944 5.948601 20.587 69.20532 -16.42236 70.29176 0.994653 0.361770
0.4743 7.063801 20.5871 18.28739 72.71004 66.17268 0.964422 0.486802
0.4907 7.059601 20.5834 59.00957 59.57418 54.48661 0.964818 0.486934
0.4944 7.061601 20.567 70.73036 69.76295 11.4171 0.964853 0.487332
0.4944 7.0434 20.587 70.37006 17.64901 68.82274 0.969317 0.361770
0.4907 7.059601 20.5834 59.00957 59.57418 54.48661 0.968950 0.361669
0.4743 7.063801 20.5871 18.28739 72.71004 66.17268 0.968834 0.361311
0.4944 7.061601 20.567 70.73036 69.76295 11.4171 0.806957 0.484942
0.4907 7.059601 20.5834 59.00957 59.57418 54.48661 0.807149 0.484607
0.4944 7.0434 20.587 70.37006 17.64901 68.82274 0.807501 0.484616
-0.4982 5.766501 18.8019 -71.55175 -68.6769 12.79971 0.896126 0.936965
-0.4982 5.766501 18.8019 -71.55175 -68.6769 12.79971 0.870096 0.951128
-0.4982 6.900301 18.8 -69.84074 70.72265 -10.98094 0.938312 0.527488
-0.4982 6.900301 18.8 -69.84074 70.72265 -10.98094 0.845713 0.959519
0.4982 5.766501 18.8019 71.55175 -68.6769 12.79971 0.919791 0.934193
0.4982 5.766501 18.8019 71.55175 -68.6769 12.79971 0.821390 0.532764
0.4982 6.900301 18.8 69.84227 70.72117 -10.9807 0.961485 0.529795
0.4982 6.900301 18.8 69.84227 70.72117 -10.9807 0.797011 0.525373
0.8828 -0.3302 -0.06659999 73.73375 61.55059 -27.83631 0.807001 0.991659
0.8037 2.7116 6.4497 68.78712 66.69955 -28.62699 0.791509 0.826800
0.8037 2.7116 6.4497 68.78712 66.69955 -28.62699 0.961841 0.830147
0.8828 -0.3302 -0.06659999 73.73375 61.55059 -27.83631 0.964853 0.989226
0.8841 -1.4654 -0.06659994 62.73803 -70.44717 33.1834 0.923078 0.484607
0.8069 1.5376 6.4545 68.94313 -65.89425 30.07981 0.920519 0.639141
0.8069 1.5376 6.4545 68.94313 -65.89425 30.07981 0.816754 0.834378
0.8841 -1.4654 -0.06659994 62.73803 -70.44717 33.1834 0.831385 0.999096
0.6805 5.457801 12.969 69.16592 68.94012 -21.52528 0.782673 0.664011
0.6805 5.457801 12.969 69.16592 68.94012 -21.52528 0.959493 0.671179
-0.8037 2.7116 6.4497 -68.78712 66.69955 -28.62699 0.840930 0.658083
-0.8828 -0.3302 -0.06659999 -73.73375 61.55059 -27.83631 0.855962 0.493054
-0.8828 -0.3302 -0.06659999 -73.73375 61.55059 -27.83631 0.923795 0.985139
-0.8037 2.7116 6.4497 -68.78712 66.69955 -28.62699 0.924461 0.826426
-0.6805 5.457801 12.969 -69.16592 68.94012 -21.52528 0.832103 0.821087
-0.6805 5.457801 12.969 -69.16592 68.94012 -21.52528 0.927844 0.668028
-0.8069 1.5376 6.4545 -68.94611 -65.89114 30.07976 0.882189 0.643629
-0.8841 -1.4654 -0.06659994 -62.73803 -70.44717 33.1834 0.881081 0.489525
-0.8841 -1.4654 -0.06659994 -62.73803 -70.44717 33.1834 0.880364 0.484607
-0.8069 1.5376 6.4545 -68.94611 -65.89114 30.07976 0.866213 0.649445
-0.6819 4.2963 12.9727 -70.59982 -66.66585 23.90256 0.885762 0.797865
-0.6819 4.2963 12.9727 -70.59982 -66.66585 23.90256 0.857102 0.812524
0.6819 4.2963 12.9727 70.59982 -66.66585 23.90256 0.918156 0.794072
0.6819 4.2963 12.9727 70.59982 -66.66585 23.90256 0.807652 0.671538
1.2723 6.785501 18.9636 12.7174 -98.91588 -7.342971 0.704166 0.375625
0.5754 6.785501 19.366 0 -100 4.371139e-06 0.691281 0.388924
0.3322 6.785501 19.1228 0 -100 4.371139e-06 0.684538 0.384959
0.7345999 6.785501 18.4259 7.339893 -98.9161 -12.71743 0.689254 0.366855
-2.2447 8.065101 20.9941 -59.08593 -73.10973 34.11483 0.858169 0.158445
-2.5919 8.065101 19.6981 -68.22858 -73.10857 3.195678e-06 0.825520 0.158445
-1.5174 7.596901 19.6981 -51.65321 -85.6268 3.742867e-06 0.833144 0.131242
-1.3141 7.596901 20.4568 -44.73199 -85.62769 25.82537 0.852258 0.131242
0.0001 8.717 22.6911 0 -26.11543 96.52972 0.666650 0.296559
-1.4964 8.717 22.2901 -48.26311 -26.1153 83.59824 0.666650 0.334272
-1.2959 8.065101 21.9428 -34.11483 -73.10973 59.08593 0.649777 0.331241
0.0001 8.065101 22.2901 0 -73.10857 68.22858 0.649777 0.298581
-0.7481999 7.5656 20.9941 -49.31637 -16.48349 85.41775 0.710173 0.689214
-0.7481999 6.812001 20.9941 -49.5632 -13.19959 85.84441 0.728292 0.689166
0.0001 6.812001 21.1946 0 -13.20237 99.12466 0.728198 0.707868
0.0001 7.5656 21.1946 0 -16.48642 98.63164 0.710080 0.707915
-2.5919 8.717 21.1946 -83.59824 -26.1153 48.26311 0.664509 0.365683
-2.2447 8.065101 20.9941 -59.08593 -73.10973 34.11483 0.647923 0.358443
-1.2721 6.785501 18.9636 -12.71743 -98.9161 -7.339888 0.648514 0.391218
-0.5752 6.785501 19.366 0 -100 4.371139e-06 0.666116 0.395975
-0.6641999 6.785501 19.6981 0 -100 4.371139e-06 0.666116 0.403973
-1.4689 6.785501 19.6981 -14.68583 -98.91576 4.323745e-06 0.648514 0.408905
-1.4964 7.5656 19.6981 -98.63214 -16.48341 7.205126e-07 0.692803 0.452217
-1.4964 6.812001 19.6981 -99.12506 -13.19943 5.769653e-07 0.675347 0.452060
-1.2959 6.812001 20.4463 -85.84572 -13.19979 49.56087 0.676272 0.434195
-1.2959 7.5656 20.4463 -85.41775 -16.48349 49.31637 0.693728 0.434353
-2.5919 8.717 21.1946 -83.59824 -26.1153 48.26311 0.902350 0.053381
-2.9929 8.717 19.6981 -96.52972 -26.11543 1.141542e-06 0.939321 0.055295
-2.5919 8.065101 19.6981 -68.22858 -73.10857 3.195678e-06 0.938745 0.069007
-2.2447 8.065101 20.9941 -59.08593 -73.10973 34.11483 0.906728 0.067349
-0.7344 6.785501 18.4259 -7.339922 -98.9165 -12.71438 0.657124 0.375858
-0.3321 6.785501 19.1228 0 -100 4.371139e-06 0.670009 0.389029
-1.2959 7.5656 18.9499 -85.41817 -16.48057 -49.31661 0.693728 0.469661
-1.2959 6.812001 18.9499 -85.84406 -13.20254 -49.563 0.676272 0.469504
-2.5919 8.717 18.2016 -83.59824 -26.1153 -48.26311 0.975422 0.053381
-2.2447 8.065101 18.4021 -59.08593 -73.10973 -34.11483 0.970010 0.067349
1.2723 6.785501 20.4326 12.7174 -98.91588 7.34298 0.712775 0.408587
0.5754 6.785501 20.0302 0 -100 4.371139e-06 0.695174 0.403829
0.6643 6.785501 19.6981 0 -100 4.371139e-06 0.695174 0.395831
1.4691 6.785501 19.6981 14.6829 -98.9162 4.323765e-06 0.712775 0.390900
-2.5919 8.717 18.2016 -83.59824 -26.1153 -48.26311 0.788016 0.152149
-1.4964 8.717 17.1061 -48.26311 -26.1153 -83.59824 0.768334 0.119807
-1.2959 8.065101 17.4534 -34.11483 -73.10973 -59.08593 0.779784 0.114265
-2.2447 8.065101 18.4021 -59.08593 -73.10973 -34.11483 0.796829 0.142274
-1.2721 6.785501 20.4326 -12.72338 -98.91489 7.345907 0.657124 0.424180
-0.5752 6.785501 20.0302 0 -100 4.371139e-06 0.670009 0.410880
-0.3321 6.785501 20.2734 0 -100 4.371139e-06 0.676752 0.414846
-0.7344 6.785501 20.9703 -7.345903 -98.91489 12.72339 0.672035 0.432949
-0.7481999 7.5656 18.4021 -49.31661 -16.48058 -85.41817 0.887698 0.035821
-0.7481999 6.812001 18.4021 -49.56067 -13.20275 -85.84538 0.887826 0.016924
-1.2959 6.812001 18.9499 -85.84406 -13.20254 -49.563 0.900967 0.016478
-1.2959 7.5656 18.9499 -85.41817 -16.48057 -49.31661 0.900838 0.035375
-1.4964 8.717 17.1061 -48.26311 -26.1153 -83.59824 0.692684 0.235370
0.0001 8.717 16.7051 0 -26.11543 -96.52972 0.692309 0.198344
0.0001 8.065101 17.1061 0 -73.10857 -68.22857 0.709007 0.197936
-1.2959 8.065101 17.4534 -34.11483 -73.10973 -59.08593 0.709332 0.230002
0.0001 6.785501 21.1671 0 -98.91531 14.68888 0.689254 0.432864
0.0001 6.785501 20.3624 0 -100 4.371139e-06 0.684538 0.414807
0.3322 6.785501 20.2734 0 -100 4.371139e-06 0.691281 0.410775
0.7345999 6.785501 20.9703 7.342948 -98.9155 12.72037 0.704166 0.423947
0.0001 7.5656 18.2016 0 -16.48342 -98.63214 0.869158 0.035913
0.0001 6.812001 18.2016 0 -13.20582 -99.12421 0.869285 0.017017
1.4966 8.717 17.1061 48.26311 -26.1153 -83.59824 0.692684 0.160450
1.2961 8.065101 17.4534 34.11483 -73.10973 -59.08593 0.709332 0.165119
0.7483 7.5656 18.4021 49.31637 -16.4835 -85.41775 0.850184 0.035628
0.7483 6.812001 18.4021 49.56027 -13.20875 -85.84469 0.850312 0.016731
1.4966 8.717 17.1061 48.26311 -26.1153 -83.59824 0.702448 0.131053
2.5921 8.717 18.2016 83.59824 -26.1153 -48.26311 0.693739 0.100924
2.2448 8.065101 18.4021 59.08593 -73.10973 -34.11483 0.712176 0.096171
1.2961 8.065101 17.4534 34.11483 -73.10973 -59.08593 0.719718 0.122263
1.2961 7.5656 18.9499 85.41775 -16.48349 -49.31637 0.835861 0.035040
1.2961 6.812001 18.9499 85.84406 -13.20254 -49.563 0.835989 0.016144
2.9931 8.717 19.6981 96.52972 -26.11543 1.141542e-06 0.690551 0.062277
2.5921 8.065101 19.6981 68.22858 -73.10857 3.195678e-06 0.709415 0.062702
-1.2959 7.5656 20.4463 -85.41775 -16.48349 49.31637 0.711312 0.673642
-1.2959 6.812001 20.4463 -85.84572 -13.19979 49.56087 0.729431 0.673595
1.4966 7.5656 19.6981 98.63214 -16.48341 7.205126e-07 0.800071 0.035454
1.4966 6.812001 19.6981 99.12506 -13.19943 5.769653e-07 0.799496 0.017213
1.2961 6.812001 18.9499 85.84406 -13.20254 -49.563 0.818946 0.015609
1.2961 7.5656 18.9499 85.41775 -16.48349 -49.31637 0.819521 0.033850
0.0001 6.785501 19.0338 0 -100 4.371139e-06 0.676752 0.384997
0.0001 6.785501 18.2291 0 -98.9162 -14.6829 0.672035 0.366940
1.2961 7.5656 20.4463 85.41731 -16.48651 49.31612 0.781546 0.033850
1.2961 6.812001 20.4463 85.84572 -13.19979 49.56087 0.780971 0.015609
2.5921 8.717 21.1946 83.59824 -26.1153 48.26311 0.693739 0.025467
2.2448 8.065101 20.9941 59.08593 -73.10973 34.11483 0.712176 0.030824
0.7483 7.5656 20.9941 49.31612 -16.48651 85.41731 0.768909 0.029467
0.7483 6.812001 20.9941 49.56067 -13.20274 85.84538 0.768334 0.011226
1.4966 8.717 22.2901 48.26311 -26.1153 83.59824 0.702448 0.000359
1.2961 8.065101 21.9428 34.11483 -73.10973 59.08593 0.719718 0.009079
0.7483 6.812001 20.9941 49.56067 -13.20274 85.84538 0.729176 0.724689
0.7483 7.5656 20.9941 49.31612 -16.48651 85.41731 0.711058 0.724736
1.4966 8.717 22.2901 48.26311 -26.1153 83.59824 0.664509 0.262650
1.2961 8.065101 21.9428 34.11483 -73.10973 59.08593 0.647923 0.269214
2.5921 10.4897 21.1946 86.60316 2.185523e-06 49.99894 0.651111 0.026810
1.4966 10.4897 22.2901 49.99894 3.785545e-06 86.60316 0.659820 0.001701
2.5921 10.4897 18.2016 86.60316 -2.185523e-06 -49.99894 0.651111 0.102266
2.9931 10.4897 19.6981 100 0 0 0.647923 0.063620
0.0001 10.4897 16.7051 0 -4.371139e-06 -100 0.647923 0.198272
1.4966 10.4897 17.1061 49.99894 -3.785545e-06 -86.60316 0.648299 0.160378
-2.5919 8.717 18.2016 -83.59824 -26.1153 -48.26311 0.693709 0.261606
-2.5919 10.4897 18.2016 -86.60316 -2.185523e-06 -49.99894 0.649324 0.261535
-1.4964 10.4897 17.1061 -49.99894 -3.785545e-06 -86.60316 0.648299 0.235298
-2.5919 10.4898 21.1946 -86.60316 2.185523e-06 49.99894 0.902733 0.010891
-2.9929 10.4897 19.6981 -100 0 0 0.939704 0.012805
-2.5919 10.4897 18.2016 -86.60316 -2.185523e-06 -49.99894 0.975805 0.010891
0.0001 10.4897 22.6911 0 4.371139e-06 100 0.709620 0.296233
-1.4964 10.4897 22.2901 -49.99894 3.785545e-06 86.60316 0.709620 0.333946
2.5921 10.4897 18.2016 86.60316 -2.185523e-06 -49.99894 0.649324 0.131770
2.5921 8.717 18.2016 83.59824 -26.1153 -48.26311 0.693709 0.131842
-2.5919 10.4898 21.1946 -86.60316 2.185523e-06 49.99894 0.707479 0.365357
1.4966 10.4897 22.2901 49.99894 3.785545e-06 86.60316 0.707479 0.262324
2.2448 8.065101 20.9941 59.08593 -73.10973 34.11483 0.883756 0.053914
1.2961 8.065101 21.9428 34.11483 -73.10973 59.08593 0.900801 0.081923
0.7588 7.596901 21.0122 25.82537 -85.62769 44.73199 0.877216 0.086444
1.3142 7.596901 20.4568 44.73199 -85.62769 25.82537 0.867237 0.070046
-1.3141 7.596901 18.9394 -44.73199 -85.62769 -25.82537 0.816347 0.121775
0.0001 8.065101 22.2901 0 -73.10857 68.22858 0.901633 0.114265
0.0001 7.596901 21.2155 0 -85.62597 51.65458 0.877703 0.105377
0.0001 8.065101 17.1061 0 -73.10857 -68.22857 0.778952 0.081923
1.2961 8.065101 17.4534 34.11483 -73.10973 -59.08593 0.794556 0.053914
0.7588 7.596901 18.384 25.82573 -85.62888 -44.72951 0.815017 0.070046
0.0001 7.596901 18.1807 0 -85.63029 -51.6474 0.805882 0.086444
2.5921 8.065101 19.6981 68.22858 -73.10857 3.195678e-06 0.855065 0.037743
1.5175 7.596901 19.6981 51.65093 -85.62817 3.742927e-06 0.850441 0.060579
-0.7586 7.596901 18.384 -25.82573 -85.62888 -44.72951 0.806369 0.105377
2.2448 8.065101 18.4021 59.08593 -73.10973 -34.11483 0.822416 0.037743
1.3142 7.596901 18.9394 44.73199 -85.62769 -25.82537 0.831327 0.060579
-1.2959 8.065101 21.9428 -34.11483 -73.10973 59.08593 0.886028 0.142274
-0.7586 7.596901 21.0122 -25.82503 -85.62653 44.73439 0.868567 0.121775
-0.7463 6.798701 20.9909 -43.49622 -49.31019 75.34312 0.728620 0.689194
0.0001 6.798701 21.1909 0 -49.30725 86.99884 0.728527 0.707850
-0.7413 6.789001 20.9822 -25.98088 -85.43819 45.00344 0.728880 0.689272
0.0001 6.789001 21.1809 0 -85.43589 51.96836 0.728788 0.707802
-0.7413 6.789001 20.9822 -25.98089 -85.4382 45.00345 0.671936 0.433257
0.0001 6.789001 21.1809 0 -85.43589 51.96836 0.689315 0.433171
0.7415 6.789001 20.9822 25.98446 -85.43668 45.00428 0.704367 0.424170
0.7415 6.789001 20.9822 25.98446 -85.43668 45.00428 0.729756 0.724469
0.7465 6.798701 20.9909 43.49831 -49.30605 75.34463 0.729503 0.724630
1.2842 6.789001 20.4395 45.00308 -85.43751 25.98378 0.713057 0.408666
1.2842 6.789001 20.4395 45.00308 -85.43751 25.98378 0.781155 0.014958
1.2929 6.798701 20.4445 75.34329 -49.30719 43.49932 0.781015 0.015262
0.7465 6.798701 20.9909 43.49831 -49.30605 75.34463 0.768409 0.010890
0.7415 6.789001 20.9822 25.98446 -85.43668 45.00428 0.768635 0.010615
1.4929 6.798701 19.6981 86.99956 -49.30597 2.155232e-06 0.799495 0.016863
1.4828 6.789001 19.6981 51.96479 -85.43806 3.734617e-06 0.799510 0.016547
1.4828 6.789001 19.6981 51.96479 -85.43806 3.734617e-06 0.713057 0.390814
1.2929 6.798701 18.9517 75.34328 -49.30721 -43.49932 0.818897 0.015262
1.2842 6.789001 18.9567 45.00345 -85.4382 -25.98088 0.818782 0.014958
1.2842 6.789001 18.9567 45.00345 -85.4382 -25.98088 0.704367 0.375396
0.7465 6.798701 18.4053 43.49963 -49.31066 -75.34084 0.834023 0.010890
0.7483 6.812001 18.4021 49.56027 -13.20875 -85.84469 0.834110 0.011226
0.7415 6.789001 18.414 25.98122 -85.43621 -45.00702 0.833806 0.010615
0.7415 6.789001 18.414 25.98122 -85.43621 -45.00702 0.689316 0.366544
0.7465 6.798701 18.4053 43.49963 -49.31066 -75.34084 0.850357 0.016395
0.0001 6.798701 18.2053 0 -49.3096 -86.99751 0.869284 0.016680
0.7415 6.789001 18.414 25.98122 -85.43621 -45.00702 0.850475 0.016144
0.0001 6.789001 18.2153 0 -85.4359 -51.96835 0.869275 0.016427
0.0001 6.789001 18.2153 0 -85.4359 -51.96835 0.671936 0.366630
-0.7463 6.798701 18.4053 -43.49932 -49.30721 -75.34328 0.887779 0.016588
0.0001 6.798701 18.2053 0 -49.3096 -86.99751 0.671825 0.366400
-0.7413 6.789001 18.414 -25.98088 -85.4382 -45.00344 0.656885 0.375631
-0.7463 6.798701 18.4053 -43.49932 -49.30721 -75.34328 0.656672 0.375462
-1.2927 6.798701 18.9517 -75.34328 -49.30721 -43.49932 0.900887 0.016144
-1.284 6.789001 18.9567 -45.00345 -85.4382 -25.98088 0.648195 0.391135
-1.2927 6.798701 18.9517 -75.34328 -49.30721 -43.49932 0.647923 0.391071
-1.4827 6.789001 19.6981 -51.96479 -85.43806 3.734617e-06 0.648195 0.408987
-1.4927 6.798701 19.6981 -86.99956 -49.30597 2.155232e-06 0.647923 0.409044
-1.4927 6.798701 19.6981 -86.99956 -49.30597 2.155232e-06 0.675057 0.452053
-1.2927 6.798701 18.9517 -75.34328 -49.30721 -43.49932 0.675979 0.469454
-1.284 6.789001 20.4395 -45.00097 -85.43939 25.98125 0.656885 0.424405
-1.2927 6.798701 20.4445 -75.34214 -49.30954 43.49866 0.656672 0.424566
-1.2927 6.798701 20.4445 -75.34214 -49.30954 43.49866 0.675979 0.434233
-0.7463 6.798701 20.9909 -43.49622 -49.31018 75.34312 0.671825 0.433478
-1.2927 6.798701 20.4445 -75.34214 -49.30954 43.49865 0.729756 0.673661
-0.7512 7.584 20.9994 -40.90766 -57.49783 70.85594 0.709716 0.689167
-1.3012 7.584 20.4494 -70.85323 -57.50105 40.90783 0.710860 0.673532
-0.7512 7.584 20.9994 -40.90766 -57.49783 70.85594 0.868348 0.121462
-1.3012 7.584 20.4494 -70.85323 -57.50105 40.90783 0.852197 0.130837
-1.3012 7.584 20.4494 -70.85323 -57.50105 40.90783 0.694129 0.434290
-1.5025 7.584 19.6981 -81.81495 -57.50057 2.513429e-06 0.693200 0.452227
-1.5025 7.584 19.6981 -81.81495 -57.50057 2.513429e-06 0.833270 0.130837
-1.3012 7.584 18.9468 -70.85594 -57.49783 -40.90766 0.694129 0.469743
-1.3012 7.584 18.9468 -70.85594 -57.49783 -40.90766 0.816637 0.121462
-0.7512 7.584 18.3968 -40.90782 -57.50106 -70.85323 0.806756 0.105225
-0.7512 7.584 18.3968 -40.90782 -57.50106 -70.85323 0.887778 0.036287
-1.3012 7.584 18.9468 -70.85594 -57.49783 -40.90766 0.900972 0.035839
0.0001 7.584 18.1955 0 -57.50406 -81.81249 0.806274 0.086476
0.0001 7.584 18.1955 0 -57.50406 -81.81249 0.869161 0.036380
0.7514 7.584 18.3968 40.90459 -57.50384 -70.85284 0.815320 0.070238
0.7514 7.584 18.3968 40.90459 -57.50384 -70.85284 0.850110 0.036093
1.3142 7.596901 18.9394 44.73199 -85.62769 -25.82537 0.819769 0.034753
1.3014 7.584 18.9468 70.8541 -57.50177 -40.90533 0.819601 0.034337
0.7514 7.584 18.3968 40.90459 -57.50384 -70.85284 0.834826 0.029936
0.7588 7.596901 18.384 25.82573 -85.62888 -44.72951 0.835144 0.030308
0.7483 7.5656 18.4021 49.31637 -16.4835 -85.41775 0.834684 0.029467
1.5175 7.596901 19.6981 51.65093 -85.62817 3.742927e-06 0.800047 0.036380
1.5027 7.584 19.6981 81.81495 -57.50057 2.513429e-06 0.800071 0.035948
1.3142 7.596901 20.4568 44.73199 -85.62769 25.82537 0.781262 0.034753
1.3014 7.584 20.4494 70.85323 -57.50105 40.90783 0.781470 0.034337
0.7514 7.584 20.9994 40.90532 -57.50176 70.8541 0.768781 0.029936
0.7588 7.596901 21.0122 25.82537 -85.62769 44.73199 0.768449 0.030308
0.7514 7.584 20.9994 40.90532 -57.50176 70.8541 0.710604 0.724835
0.0001 7.584 21.2007 0 -57.49855 81.81636 0.709622 0.707945
0.7588 7.596901 21.0122 25.82537 -85.62768 44.73199 0.710263 0.725072
0.0001 7.596901 21.2155 0 -85.62597 51.65458 0.709271 0.708015
-0.7586 7.596901 21.0122 -25.82503 -85.62653 44.73439 0.709366 0.689052
3 0 1 2 
3 0 2 3 
3 4 5 6 
3 4 6 7 
3 8 9 10 
3 8 10 11 
3 1 4 7 
3 1 7 2 
3 5 12 13 
3 5 13 6 
3 14 15 16 
3 14 16 17 
3 18 19 20 
3 18 20 21 
3 22 23 24 
3 22 24 25 
3 26 27 28 
3 26 28 29 
3 29 28 30 
3 29 30 31 
3 32 33 9 
3 32 9 8 
3 23 34 35 
3 23 35 24 
3 36 37 38 
3 36 38 39 
3 40 41 42 
3 40 42 43 
3 44 45 46 
3 44 46 47 
3 12 48 49 
3 12 49 13 
3 50 40 43 
3 50 43 51 
3 52 53 37 
3 52 37 36 
3 45 54 55 
3 45 55 46 
3 48 18 21 
3 48 21 49 
3 15 56 57 
3 15 57 16 
3 58 59 60 
3 61 62 63 
3 64 65 66 
3 66 67 68 
3 58 60 69 
3 64 66 68 
3 70 71 72 
3 70 72 73 
3 74 75 71 
3 74 71 70 
3 18 48 76 
3 18 76 77 
3 78 79 38 
3 78 38 37 
3 48 12 80 
3 48 80 76 
3 81 82 9 
3 81 9 33 
3 15 14 83 
3 15 83 84 
3 85 86 20 
3 85 20 3 
3 41 40 87 
3 41 87 88 
3 86 89 21 
3 86 21 20 
3 40 50 90 
3 40 90 87 
3 89 91 49 
3 89 49 21 
3 34 23 92 
3 34 92 93 
3 91 94 13 
3 91 13 49 
3 23 22 95 
3 23 95 92 
3 94 96 6 
3 94 6 13 
3 54 45 97 
3 54 97 98 
3 96 99 7 
3 96 7 6 
3 45 44 100 
3 45 100 97 
3 99 101 2 
3 99 2 7 
3 56 15 84 
3 56 84 102 
3 101 85 3 
3 101 3 2 
3 0 19 103 
3 0 103 104 
3 105 106 72 
3 105 72 71 
3 1 0 104 
3 1 104 107 
3 108 105 71 
3 108 71 75 
3 5 4 109 
3 5 109 110 
3 111 112 28 
3 111 28 27 
3 4 1 107 
3 4 107 109 
3 112 113 30 
3 112 30 28 
3 19 18 77 
3 19 77 103 
3 114 78 37 
3 114 37 53 
3 12 5 110 
3 12 110 80 
3 82 115 10 
3 82 10 9 
3 19 0 3 
3 19 3 20 
3 116 117 118 
3 116 118 119 
3 120 121 74 
3 120 74 70 
3 122 123 124 
3 122 124 125 
3 126 127 26 
3 126 26 29 
3 128 129 130 
3 128 130 131 
3 132 133 36 
3 132 36 39 
3 129 134 135 
3 129 135 130 
3 133 136 52 
3 133 52 36 
3 134 116 119 
3 134 119 135 
3 137 120 70 
3 137 70 73 
3 138 128 131 
3 138 131 139 
3 140 132 39 
3 140 39 141 
3 123 138 139 
3 123 139 124 
3 142 143 8 
3 142 8 11 
3 117 122 125 
3 117 125 118 
3 144 126 29 
3 144 29 31 
3 145 146 147 
3 148 149 150 
3 151 152 153 
3 153 154 155 
3 145 147 156 
3 151 153 155 
3 157 158 159 
3 157 159 160 
3 161 162 163 
3 161 163 164 
3 165 166 167 
3 165 167 168 
3 169 170 171 
3 169 171 172 
3 173 174 175 
3 173 175 176 
3 175 177 178 
3 175 178 176 
3 179 180 181 
3 179 181 182 
3 183 184 180 
3 183 180 179 
3 185 186 187 
3 185 187 188 
3 178 177 189 
3 178 189 190 
3 191 192 193 
3 191 193 194 
3 165 168 195 
3 165 195 196 
3 193 192 162 
3 193 162 161 
3 190 189 197 
3 190 197 198 
3 169 184 183 
3 169 183 170 
3 167 166 186 
3 167 186 185 
3 199 200 201 
3 199 201 202 
3 203 204 205 
3 203 205 206 
3 207 208 209 
3 210 211 212 
3 213 214 215 
3 216 217 218 
3 219 220 221 
3 219 221 222 
3 202 223 224 
3 202 224 225 
3 226 227 228 
3 226 228 229 
3 201 230 231 
3 201 231 232 
3 233 234 235 
3 233 235 236 
3 237 238 239 
3 237 239 240 
3 241 242 243 
3 241 243 244 
3 245 246 247 
3 245 247 248 
3 199 249 250 
3 199 250 251 
3 252 253 254 
3 252 254 255 
3 200 256 257 
3 200 257 258 
3 259 260 261 
3 259 261 262 
3 263 219 222 
3 263 222 264 
3 265 227 226 
3 265 226 266 
3 202 201 232 
3 202 232 223 
3 229 238 237 
3 229 237 226 
3 233 267 268 
3 233 268 234 
3 240 269 270 
3 240 270 237 
3 241 271 272 
3 241 272 242 
3 248 273 274 
3 248 274 245 
3 275 252 255 
3 275 255 276 
3 277 260 259 
3 277 259 278 
3 200 199 251 
3 200 251 256 
3 262 246 245 
3 262 245 259 
3 219 241 244 
3 219 244 220 
3 225 249 199 
3 225 199 202 
3 252 233 236 
3 252 236 253 
3 258 230 201 
3 258 201 200 
3 279 280 281 
3 282 283 284 
3 285 286 287 
3 285 287 288 
3 160 289 290 
3 160 290 291 
3 173 292 293 
3 173 293 294 
3 159 295 296 
3 159 296 297 
3 171 298 299 
3 171 299 300 
3 174 301 302 
3 174 302 303 
3 304 305 306 
3 304 306 307 
3 196 308 309 
3 196 309 310 
3 157 311 312 
3 157 312 313 
3 172 314 315 
3 172 315 316 
3 158 317 318 
3 158 318 319 
3 195 320 321 
3 195 321 322 
3 191 285 288 
3 191 288 323 
3 324 292 173 
3 324 173 176 
3 160 159 297 
3 160 297 289 
3 294 301 174 
3 294 174 173 
3 171 170 325 
3 171 325 298 
3 303 326 175 
3 303 175 174 
3 304 194 327 
3 304 327 305 
3 310 328 165 
3 310 165 196 
3 169 172 316 
3 169 316 329 
3 330 320 195 
3 330 195 168 
3 158 157 313 
3 158 313 317 
3 322 308 196 
3 322 196 195 
3 285 304 307 
3 285 307 286 
3 291 311 157 
3 291 157 160 
3 172 171 300 
3 172 300 314 
3 319 295 159 
3 319 159 158 
3 185 188 331 
3 185 331 332 
3 333 334 181 
3 333 181 180 
3 161 164 335 
3 161 335 336 
3 337 338 187 
3 337 187 186 
3 167 185 332 
3 167 332 339 
3 340 333 180 
3 340 180 184 
3 197 189 341 
3 197 341 342 
3 343 344 179 
3 343 179 182 
3 189 177 345 
3 189 345 341 
3 344 346 183 
3 344 183 179 
3 163 162 347 
3 163 347 348 
3 349 350 190 
3 349 190 198 
3 162 192 351 
3 162 351 347 
3 350 352 178 
3 350 178 190 
3 193 161 336 
3 193 336 353 
3 354 337 186 
3 354 186 166 
3 177 175 326 
3 177 326 345 
3 346 325 170 
3 346 170 183 
3 184 169 329 
3 184 329 340 
3 339 330 168 
3 339 168 167 
3 166 165 328 
3 166 328 354 
3 353 327 194 
3 353 194 193 
3 176 178 352 
3 176 352 324 
3 323 351 192 
3 323 192 191 
3 191 194 304 
3 191 304 285 
3 355 356 357 
3 355 357 358 
3 359 360 361 
3 359 361 362 
3 363 364 365 
3 363 365 366 
3 367 368 369 
3 367 369 370 
3 364 371 372 
3 364 372 365 
3 373 374 375 
3 373 375 376 
3 377 378 379 
3 377 379 380 
3 381 382 383 
3 381 383 384 
3 385 386 374 
3 385 374 373 
3 387 388 378 
3 387 378 377 
3 382 389 390 
3 382 390 383 
3 391 392 393 
3 391 393 394 
3 395 396 397 
3 395 397 398 
3 399 400 401 
3 399 401 402 
3 403 404 405 
3 403 405 406 
3 407 408 409 
3 407 409 410 
3 411 412 413 
3 411 413 414 
3 415 416 404 
3 415 404 403 
3 408 417 418 
3 408 418 409 
3 414 413 392 
3 414 392 391 
3 419 420 416 
3 419 416 415 
3 421 422 423 
3 421 423 424 
3 425 426 420 
3 425 420 419 
3 422 427 428 
3 422 428 423 
3 429 430 368 
3 429 368 367 
3 431 432 433 
3 431 433 434 
3 358 357 435 
3 358 435 436 
3 437 438 432 
3 437 432 431 
3 427 439 440 
3 427 440 428 
3 441 442 438 
3 441 438 437 
3 439 443 444 
3 439 444 440 
3 394 393 356 
3 394 356 355 
3 370 369 445 
3 370 445 446 
3 447 363 366 
3 447 366 448 
3 436 435 386 
3 436 386 385 
3 439 449 450 
3 439 450 443 
3 422 451 452 
3 422 452 427 
3 408 453 454 
3 408 454 417 
3 455 456 457 
3 455 457 407 
3 381 458 459 
3 381 459 382 
3 382 459 460 
3 382 460 389 
3 363 461 462 
3 363 462 364 
3 417 454 463 
3 417 463 464 
3 407 457 453 
3 407 453 408 
3 364 462 465 
3 364 465 371 
3 427 452 449 
3 427 449 439 
3 447 466 461 
3 447 461 363 
3 467 468 469 
3 467 469 470 
3 360 398 471 
3 360 471 361 
3 468 472 473 
3 468 473 469 
3 474 475 476 
3 474 476 477 
3 478 467 470 
3 478 470 479 
3 376 375 400 
3 376 400 399 
3 397 474 477 
3 397 477 480 
3 481 478 479 
3 481 479 482 
3 472 483 484 
3 472 484 473 
3 398 397 480 
3 398 480 471 
3 475 481 482 
3 475 482 476 
3 412 401 400 
3 400 375 374 
3 374 386 435 
3 435 357 356 
3 356 393 392 
3 392 413 412 
3 412 400 374 
3 374 435 356 
3 356 392 412 
3 374 356 412 
3 368 485 486 
3 368 486 369 
3 485 487 488 
3 485 488 486 
3 489 402 411 
3 489 411 490 
3 414 491 490 
3 414 490 411 
3 492 493 486 
3 492 486 488 
3 493 445 369 
3 493 369 486 
3 391 494 491 
3 391 491 414 
3 495 496 497 
3 495 497 498 
3 496 438 442 
3 496 442 497 
3 438 496 499 
3 438 499 432 
3 496 495 500 
3 496 500 499 
3 494 391 394 
3 494 394 501 
3 432 499 502 
3 432 502 433 
3 499 500 503 
3 499 503 502 
3 501 394 355 
3 501 355 504 
3 433 502 505 
3 433 505 506 
3 502 503 507 
3 502 507 505 
3 504 355 358 
3 504 358 508 
3 420 509 510 
3 420 510 416 
3 509 511 512 
3 509 512 510 
3 508 358 436 
3 508 436 513 
3 416 510 514 
3 416 514 404 
3 515 513 516 
3 515 516 517 
3 513 436 385 
3 513 385 516 
3 404 514 518 
3 404 518 405 
3 517 516 519 
3 517 519 520 
3 516 385 373 
3 516 373 519 
3 376 521 519 
3 376 519 373 
3 521 522 520 
3 521 520 519 
3 523 378 388 
3 523 388 524 
3 399 525 521 
3 399 521 376 
3 525 526 522 
3 525 522 521 
3 527 379 378 
3 527 378 523 
3 402 489 525 
3 402 525 399 
3 489 528 526 
3 489 526 525 
3 485 368 430 
3 485 430 529 
3 402 401 412 
3 402 412 411 
3 367 530 531 
3 367 531 429 
3 532 484 362 
3 532 362 533 
3 380 534 535 
3 380 535 377 
3 533 362 361 
3 533 361 536 
3 377 535 537 
3 377 537 387 
3 536 361 471 
3 536 471 538 
3 480 539 538 
3 480 538 471 
3 540 403 406 
3 540 406 541 
3 477 542 539 
3 477 539 480 
3 543 415 403 
3 543 403 540 
3 476 544 542 
3 476 542 477 
3 545 419 415 
3 545 415 543 
3 546 547 548 
3 546 548 549 
3 547 434 550 
3 547 550 548 
3 551 552 547 
3 551 547 546 
3 552 431 434 
3 552 434 547 
3 553 554 552 
3 553 552 551 
3 554 437 431 
3 554 431 552 
3 437 554 555 
3 437 555 441 
3 554 553 556 
3 554 556 555 
3 446 557 558 
3 446 558 370 
3 557 559 560 
3 557 560 558 
3 561 530 558 
3 561 558 560 
3 530 367 370 
3 530 370 558 
3 483 359 362 
3 483 362 484 
