ply
format ascii 1.0
comment VCGLIB generated
element vertex 192
property float x
property float y
property float z
property float nx
property float ny
property float nz
property float texture_u
property float texture_v
element face 124
property list uchar int vertex_indices
end_header
-0.119355 1.394125 -34.97754 0.098018 0.995185 0 1.000000 0.500000
-0.119355 1.394125 36.0555 0.098018 0.995185 0 1.000000 1.000000
0.075736 1.374911 36.0555 0.098018 0.995185 0 0.968750 1.000000
0.075736 1.374911 -34.97754 0.098018 0.995185 -0 0.968750 0.500000
0.075736 1.374911 -34.97754 0.290285 0.95694 0 0.968750 0.500000
0.075736 1.374911 36.0555 0.290285 0.95694 0 0.968750 1.000000
0.263329 1.318005 36.0555 0.290285 0.95694 0 0.937500 1.000000
0.263329 1.318005 -34.97754 0.290285 0.95694 -0 0.937500 0.500000
0.263329 1.318005 -34.97754 0.471397 0.881921 0 0.937500 0.500000
0.263329 1.318005 36.0555 0.471397 0.881921 0 0.937500 1.000000
0.436216 1.225595 36.0555 0.471397 0.881921 0 0.906250 1.000000
0.436216 1.225595 -34.97754 0.471397 0.881921 -0 0.906250 0.500000
0.436216 1.225595 -34.97754 0.634393 0.773011 0 0.906250 0.500000
0.436216 1.225595 36.0555 0.634393 0.773011 0 0.906250 1.000000
0.587752 1.101232 36.0555 0.634393 0.773011 0 0.875000 1.000000
0.587752 1.101232 -34.97754 0.634393 0.773011 -0 0.875000 0.500000
0.587752 1.101232 -34.97754 0.77301 0.634393 0 0.875000 0.500000
0.587752 1.101232 36.0555 0.77301 0.634393 0 0.875000 1.000000
0.712115 0.949696 36.0555 0.77301 0.634393 0 0.843750 1.000000
0.712115 0.949696 -34.97754 0.77301 0.634393 -0 0.843750 0.500000
0.712115 0.949696 -34.97754 0.881921 0.471397 0 0.843750 0.500000
0.712115 0.949696 36.0555 0.881921 0.471397 0 0.843750 1.000000
0.804525 0.776809 36.0555 0.881921 0.471397 0 0.812500 1.000000
0.804525 0.776809 -34.97754 0.881921 0.471397 -0 0.812500 0.500000
0.804525 0.776809 -34.97754 0.95694 0.290285 0 0.812500 0.500000
0.804525 0.776809 36.0555 0.95694 0.290285 0 0.812500 1.000000
0.861431 0.589216 36.0555 0.95694 0.290285 0 0.781250 1.000000
0.861431 0.589216 -34.97754 0.95694 0.290285 -0 0.781250 0.500000
0.861431 0.589216 -34.97754 0.995185 0.098017 0 0.781250 0.500000
0.861431 0.589216 36.0555 0.995185 0.098017 0 0.781250 1.000000
0.880646 0.394126 36.0555 0.995185 0.098017 0 0.750000 1.000000
0.880646 0.394126 -34.97754 0.995185 0.098017 -0 0.750000 0.500000
0.880646 0.394126 -34.97754 0.995185 -0.098017 0 0.750000 0.500000
0.880646 0.394126 36.0555 0.995185 -0.098017 0 0.750000 1.000000
0.861431 0.199035 36.0555 0.995185 -0.098017 0 0.718750 1.000000
0.861431 0.199035 -34.97754 0.995185 -0.098017 0 0.718750 0.500000
0.861431 0.199035 -34.97754 0.95694 -0.290285 0 0.718750 0.500000
0.861431 0.199035 36.0555 0.95694 -0.290285 0 0.718750 1.000000
0.804525 0.011442 36.0555 0.95694 -0.290285 0 0.687500 1.000000
0.804525 0.011442 -34.97754 0.95694 -0.290285 0 0.687500 0.500000
0.804525 0.011442 -34.97754 0.881921 -0.471396 0 0.687500 0.500000
0.804525 0.011442 36.0555 0.881921 -0.471396 0 0.687500 1.000000
0.712115 -0.161445 36.0555 0.881921 -0.471396 0 0.656250 1.000000
0.712115 -0.161445 -34.97754 0.881921 -0.471396 0 0.656250 0.500000
0.712115 -0.161445 -34.97754 0.77301 -0.634393 0 0.656250 0.500000
0.712115 -0.161445 36.0555 0.77301 -0.634393 0 0.656250 1.000000
0.587752 -0.312981 36.0555 0.77301 -0.634393 0 0.625000 1.000000
0.587752 -0.312981 -34.97754 0.77301 -0.634393 0 0.625000 0.500000
0.587752 -0.312981 -34.97754 0.634393 -0.77301 0 0.625000 0.500000
0.587752 -0.312981 36.0555 0.634393 -0.77301 0 0.625000 1.000000
0.436216 -0.437344 36.0555 0.634393 -0.77301 0 0.593750 1.000000
0.436216 -0.437344 -34.97754 0.634393 -0.77301 0 0.593750 0.500000
0.436216 -0.437344 -34.97754 0.471397 -0.881921 0 0.593750 0.500000
0.436216 -0.437344 36.0555 0.471397 -0.881921 0 0.593750 1.000000
0.263329 -0.529754 36.0555 0.471397 -0.881921 0 0.562500 1.000000
0.263329 -0.529754 -34.97754 0.471397 -0.881921 0 0.562500 0.500000
0.263329 -0.529754 -34.97754 0.290284 -0.956941 0 0.562500 0.500000
0.263329 -0.529754 36.0555 0.290284 -0.956941 0 0.562500 1.000000
0.075736 -0.58666 36.0555 0.290284 -0.956941 0 0.531250 1.000000
0.075736 -0.58666 -34.97754 0.290284 -0.956941 0 0.531250 0.500000
0.075736 -0.58666 -34.97754 0.098017 -0.995185 0 0.531250 0.500000
0.075736 -0.58666 36.0555 0.098017 -0.995185 0 0.531250 1.000000
-0.119355 -0.605875 36.0555 0.098017 -0.995185 0 0.500000 1.000000
-0.119355 -0.605875 -34.97754 0.098017 -0.995185 0 0.500000 0.500000
-0.119355 -0.605875 -34.97754 -0.098018 -0.995185 -0 0.500000 0.500000
-0.119355 -0.605875 36.0555 -0.098018 -0.995185 -0 0.500000 1.000000
-0.314445 -0.58666 36.0555 -0.098018 -0.995185 -0 0.468750 1.000000
-0.314445 -0.58666 -34.97754 -0.098018 -0.995185 0 0.468750 0.500000
-0.314445 -0.58666 -34.97754 -0.290285 -0.95694 -0 0.468750 0.500000
-0.314445 -0.58666 36.0555 -0.290285 -0.95694 -0 0.468750 1.000000
-0.502038 -0.529754 36.0555 -0.290285 -0.95694 -0 0.437500 1.000000
-0.502038 -0.529754 -34.97754 -0.290285 -0.95694 0 0.437500 0.500000
-0.502038 -0.529754 -34.97754 -0.471397 -0.881921 -0 0.437500 0.500000
-0.502038 -0.529754 36.0555 -0.471397 -0.881921 -0 0.437500 1.000000
-0.674925 -0.437344 36.0555 -0.471397 -0.881921 -0 0.406250 1.000000
-0.674925 -0.437344 -34.97754 -0.471397 -0.881921 0 0.406250 0.500000
-0.674925 -0.437344 -34.97754 -0.634394 -0.77301 -0 0.406250 0.500000
-0.674925 -0.437344 36.0555 -0.634394 -0.77301 -0 0.406250 1.000000
-0.826462 -0.312981 36.0555 -0.634394 -0.77301 -0 0.375000 1.000000
-0.826462 -0.312981 -34.97754 -0.634394 -0.77301 0 0.375000 0.500000
-0.826462 -0.312981 -34.97754 -0.773011 -0.634393 -0 0.375000 0.500000
-0.826462 -0.312981 36.0555 -0.773011 -0.634393 -0 0.375000 1.000000
-0.950824 -0.161444 36.0555 -0.773011 -0.634393 -0 0.343750 1.000000
-0.950824 -0.161444 -34.97754 -0.773011 -0.634393 0 0.343750 0.500000
-0.950824 -0.161444 -34.97754 -0.881922 -0.471396 -0 0.343750 0.500000
-0.950824 -0.161444 36.0555 -0.881922 -0.471396 -0 0.343750 1.000000
-1.043234 0.011443 36.0555 -0.881922 -0.471396 -0 0.312500 1.000000
-1.043234 0.011443 -34.97754 -0.881922 -0.471396 0 0.312500 0.500000
-1.043234 0.011443 -34.97754 -0.956941 -0.290284 -0 0.312500 0.500000
-1.043234 0.011443 36.0555 -0.956941 -0.290284 -0 0.312500 1.000000
-1.10014 0.199036 36.0555 -0.956941 -0.290284 -0 0.281250 1.000000
-1.10014 0.199036 -34.97754 -0.956941 -0.290284 0 0.281250 0.500000
-1.10014 0.199036 -34.97754 -0.995185 -0.098016 -0 0.281250 0.500000
-1.10014 0.199036 36.0555 -0.995185 -0.098016 -0 0.281250 1.000000
-1.119354 0.394126 36.0555 -0.995185 -0.098016 -0 0.250000 1.000000
-1.119354 0.394126 -34.97754 -0.995185 -0.098016 0 0.250000 0.500000
-1.119354 0.394126 -34.97754 -0.995185 0.098018 0 0.250000 0.500000
-1.119354 0.394126 36.0555 -0.995185 0.098018 0 0.250000 1.000000
-1.10014 0.589217 36.0555 -0.995185 0.098018 0 0.218750 1.000000
-1.10014 0.589217 -34.97754 -0.995185 0.098018 0 0.218750 0.500000
-1.10014 0.589217 -34.97754 -0.95694 0.290286 0 0.218750 0.500000
-1.10014 0.589217 36.0555 -0.95694 0.290286 0 0.218750 1.000000
-1.043234 0.77681 36.0555 -0.95694 0.290286 0 0.187500 1.000000
-1.043234 0.77681 -34.97754 -0.95694 0.290286 0 0.187500 0.500000
-1.043234 0.77681 -34.97754 -0.881921 0.471398 0 0.187500 0.500000
-1.043234 0.77681 36.0555 -0.881921 0.471398 0 0.187500 1.000000
-0.950823 0.949697 36.0555 -0.881921 0.471398 0 0.156250 1.000000
-0.950823 0.949697 -34.97754 -0.881921 0.471398 0 0.156250 0.500000
-0.950823 0.949697 -34.97754 -0.773009 0.634395 0 0.156250 0.500000
-0.950823 0.949697 36.0555 -0.773009 0.634395 0 0.156250 1.000000
-0.82646 1.101233 36.0555 -0.773009 0.634395 0 0.125000 1.000000
-0.82646 1.101233 -34.97754 -0.773009 0.634395 0 0.125000 0.500000
-0.82646 1.101233 -34.97754 -0.634392 0.773011 0 0.125000 0.500000
-0.82646 1.101233 36.0555 -0.634392 0.773011 0 0.125000 1.000000
-0.674924 1.225596 36.0555 -0.634392 0.773011 0 0.093750 1.000000
-0.674924 1.225596 -34.97754 -0.634392 0.773011 0 0.093750 0.500000
-0.674924 1.225596 -34.97754 -0.471396 0.881922 0 0.093750 0.500000
-0.674924 1.225596 36.0555 -0.471396 0.881922 0 0.093750 1.000000
-0.502037 1.318006 36.0555 -0.471396 0.881922 0 0.062500 1.000000
-0.502037 1.318006 -34.97754 -0.471396 0.881922 0 0.062500 0.500000
0.263329 1.318005 36.0555 0 0 1 0.341844 0.471731
0.075736 1.374911 36.0555 0 0 1 0.296822 0.485388
-0.119355 1.394125 36.0555 0 0 1 0.250000 0.490000
-0.314443 1.374911 36.0555 0 0 1 0.203179 0.485389
-0.502037 1.318006 36.0555 0 0 1 0.158156 0.471731
-0.674924 1.225596 36.0555 0 0 1 0.116663 0.449553
-0.82646 1.101233 36.0555 0 0 1 0.080295 0.419706
-0.950823 0.949697 36.0555 0 0 1 0.050447 0.383337
-1.043234 0.77681 36.0555 0 0 1 0.028269 0.341844
-1.10014 0.589217 36.0555 0 0 1 0.014612 0.296822
-1.119354 0.394126 36.0555 0 0 1 0.010000 0.250000
-1.10014 0.199036 36.0555 0 0 1 0.014611 0.203179
-1.043234 0.011443 36.0555 0 0 1 0.028269 0.158156
-0.950824 -0.161444 36.0555 0 0 1 0.050447 0.116663
-0.826462 -0.312981 36.0555 0 0 1 0.080294 0.080294
-0.674925 -0.437344 36.0555 0 0 1 0.116663 0.050447
-0.502038 -0.529754 36.0555 0 0 1 0.158156 0.028269
-0.314445 -0.58666 36.0555 0 0 1 0.203178 0.014612
-0.119355 -0.605875 36.0555 0 0 1 0.250000 0.010000
0.075736 -0.58666 36.0555 0 0 1 0.296822 0.014612
0.263329 -0.529754 36.0555 0 0 1 0.341844 0.028269
0.436216 -0.437344 36.0555 0 0 1 0.383337 0.050447
0.587752 -0.312981 36.0555 0 0 1 0.419706 0.080294
0.712115 -0.161445 36.0555 0 0 1 0.449553 0.116663
0.804525 0.011442 36.0555 0 0 1 0.471731 0.158156
0.861431 0.199035 36.0555 0 0 1 0.485388 0.203178
0.880646 0.394126 36.0555 0 0 1 0.490000 0.250000
0.861431 0.589216 36.0555 0 0 1 0.485388 0.296822
0.804525 0.776809 36.0555 0 0 1 0.471731 0.341844
0.712115 0.949696 36.0555 0 0 1 0.449553 0.383337
0.587752 1.101232 36.0555 0 0 1 0.419706 0.419706
0.436216 1.225595 36.0555 0 0 1 0.383337 0.449553
-0.502037 1.318006 -34.97754 -0.290283 0.956941 0 0.062500 0.500000
-0.502037 1.318006 36.0555 -0.290283 0.956941 0 0.062500 1.000000
-0.314443 1.374911 36.0555 -0.290283 0.956941 0 0.031250 1.000000
-0.314443 1.374911 -34.97754 -0.290283 0.956941 0 0.031250 0.500000
-0.314443 1.374911 -34.97754 -0.098016 0.995185 0 0.031250 0.500000
-0.314443 1.374911 36.0555 -0.098016 0.995185 0 0.031250 1.000000
-0.119355 1.394125 36.0555 -0.098016 0.995185 0 0.000000 1.000000
-0.119355 1.394125 -34.97754 -0.098016 0.995185 0 0.000000 0.500000
-0.314443 1.374911 -34.97754 -0 0 -1 0.703179 0.485389
-0.119355 1.394125 -34.97754 -0 0 -1 0.750000 0.490000
0.075736 1.374911 -34.97754 -0 0 -1 0.796822 0.485388
0.263329 1.318005 -34.97754 0 0 -1 0.841844 0.471731
0.436216 1.225595 -34.97754 0 0 -1 0.883337 0.449553
0.587752 1.101232 -34.97754 0 0 -1 0.919706 0.419706
0.712115 0.949696 -34.97754 0 0 -1 0.949553 0.383337
0.804525 0.776809 -34.97754 0 0 -1 0.971731 0.341844
0.861431 0.589216 -34.97754 0 0 -1 0.985388 0.296822
0.880646 0.394126 -34.97754 0 0 -1 0.990000 0.250000
0.861431 0.199035 -34.97754 0 0 -1 0.985388 0.203178
0.804525 0.011442 -34.97754 0 0 -1 0.971731 0.158156
0.712115 -0.161445 -34.97754 0 0 -1 0.949553 0.116663
0.587752 -0.312981 -34.97754 0 0 -1 0.919706 0.080294
0.436216 -0.437344 -34.97754 0 0 -1 0.883337 0.050447
0.263329 -0.529754 -34.97754 0 0 -1 0.841844 0.028269
0.075736 -0.58666 -34.97754 0 0 -1 0.796822 0.014612
-0.119355 -0.605875 -34.97754 0 0 -1 0.750000 0.010000
-0.314445 -0.58666 -34.97754 0 0 -1 0.703178 0.014612
-0.502038 -0.529754 -34.97754 0 0 -1 0.658156 0.028269
-0.674925 -0.437344 -34.97754 0 0 -1 0.616663 0.050447
-0.826462 -0.312981 -34.97754 0 0 -1 0.580294 0.080294
-0.950824 -0.161444 -34.97754 0 0 -1 0.550447 0.116663
-1.043234 0.011443 -34.97754 0 0 -1 0.528269 0.158156
-1.10014 0.199036 -34.97754 0 0 -1 0.514611 0.203179
-1.119354 0.394126 -34.97754 0 -0 -1 0.510000 0.250000
-1.10014 0.589217 -34.97754 0 -0 -1 0.514612 0.296822
-1.043234 0.77681 -34.97754 0 0 -1 0.528269 0.341844
-0.950823 0.949697 -34.97754 0 0 -1 0.550447 0.383337
-0.82646 1.101233 -34.97754 0 0 -1 0.580295 0.419706
-0.674924 1.225596 -34.97754 0 0 -1 0.616663 0.449553
-0.502037 1.318006 -34.97754 0 0 -1 0.658156 0.471731
3 0 1 2 
3 0 2 3 
3 4 5 6 
3 4 6 7 
3 8 9 10 
3 8 10 11 
3 12 13 14 
3 12 14 15 
3 16 17 18 
3 16 18 19 
3 20 21 22 
3 20 22 23 
3 24 25 26 
3 24 26 27 
3 28 29 30 
3 28 30 31 
3 32 33 34 
3 32 34 35 
3 36 37 38 
3 36 38 39 
3 40 41 42 
3 40 42 43 
3 44 45 46 
3 44 46 47 
3 48 49 50 
3 48 50 51 
3 52 53 54 
3 52 54 55 
3 56 57 58 
3 56 58 59 
3 60 61 62 
3 60 62 63 
3 64 65 66 
3 64 66 67 
3 68 69 70 
3 68 70 71 
3 72 73 74 
3 72 74 75 
3 76 77 78 
3 76 78 79 
3 80 81 82 
3 80 82 83 
3 84 85 86 
3 84 86 87 
3 88 89 90 
3 88 90 91 
3 92 93 94 
3 92 94 95 
3 96 97 98 
3 96 98 99 
3 100 101 102 
3 100 102 103 
3 104 105 106 
3 104 106 107 
3 108 109 110 
3 108 110 111 
3 112 113 114 
3 112 114 115 
3 116 117 118 
3 116 118 119 
3 120 121 122 
3 122 123 124 
3 124 125 126 
3 126 127 128 
3 128 129 130 
3 130 131 132 
3 132 133 134 
3 134 135 136 
3 136 137 138 
3 138 139 140 
3 140 141 142 
3 142 143 144 
3 144 145 146 
3 146 147 148 
3 148 149 150 
3 150 151 120 
3 120 122 124 
3 124 126 128 
3 128 130 132 
3 132 134 136 
3 136 138 140 
3 140 142 144 
3 144 146 148 
3 148 150 120 
3 120 124 128 
3 128 132 136 
3 136 140 144 
3 144 148 120 
3 120 128 136 
3 136 144 120 
3 152 153 154 
3 152 154 155 
3 156 157 158 
3 156 158 159 
3 160 161 162 
3 162 163 164 
3 164 165 166 
3 166 167 168 
3 168 169 170 
3 170 171 172 
3 172 173 174 
3 174 175 176 
3 176 177 178 
3 178 179 180 
3 180 181 182 
3 182 183 184 
3 184 185 186 
3 186 187 188 
3 188 189 190 
3 190 191 160 
3 160 162 164 
3 164 166 168 
3 168 170 172 
3 172 174 176 
3 176 178 180 
3 180 182 184 
3 184 186 188 
3 188 190 160 
3 160 164 168 
3 168 172 176 
3 176 180 184 
3 184 188 160 
3 160 168 176 
3 176 184 160 
