ply
format ascii 1.0
comment VCGLIB generated
element vertex 476
property float x
property float y
property float z
property float nx
property float ny
property float nz
element face 706
property list uchar int vertex_indices
end_header
377.476 -16.17037 755.8589 0.5302301 -0.7919704 -0.3027192 
403.299 -17.05875 882.0759 0.7351805 -0.6712177 -0.09474341 
353.5486 -16.70307 875.4553 -0.6701184 -0.740908 0.04468377 
332.6364 -15.72177 778.4075 -0.7447702 -0.6096843 0.2712979 
288.3418 -13.43583 638.55 0.4851174 -0.6940452 -0.531942 
245.5652 -12.89399 666.6742 -0.524559 -0.7262492 0.4442972 
158.2684 -9.454962 591.7364 -0.5457897 -0.7276964 0.4154175 
199.7407 -10.06241 566.2152 0.6124518 -0.7138162 -0.3396606 
658.6899 -7.824059 1517.986 0.689613 -0.6279221 -0.3607599 
668.6147 -7.78195 1547.628 0.7124356 -0.6215801 -0.3256896 
621.0533 -9.87286 1530.927 -0.1238628 -0.9852502 0.1180681 
128.2628 -3.310521 322.4492 -0.7045043 -0.7046821 -0.08424398 
176.9238 -4.530155 312.218 0.7035978 -0.7105161 -0.01082386 
157.0028 -6.854233 419.5597 0.6994781 -0.7146413 0.004264514 
107.4302 -5.836475 436.646 -0.6913432 -0.7170398 0.08887334 
29.93689 -18.37662 1855.901 0.711809 -0.7015154 0.03470021 
20.86163 -34.84472 2342.073 0.6374003 -0.5468161 0.5428748 
-16.78331 -33.55764 2348.89 -0.5232406 -0.6300213 0.5738401 
-11.75129 -16.54053 1841.927 -0.6968912 -0.7142773 -0.06442498 
225.9924 -21.37862 1766.236 0.6939157 -0.6893106 0.2081635 
213.1613 -35.8048 2268.351 0.8258452 -0.3581565 0.4355499 
171.6729 -34.96968 2267.09 -0.3596314 -0.6875769 0.6307957 
191.4427 -20.5403 1744.491 -0.6628509 -0.7366161 -0.1342589 
351.6162 -21.44744 1774.189 0.8261499 -0.5471501 0.134548 
352.6776 -43.82132 2355.856 0.7555938 -0.463188 0.4631791 
316.0413 -45.38519 2372.271 -0.3808727 -0.7096782 0.5926996 
306.0367 -21.85073 1775.773 -0.5019847 -0.8563905 -0.120858 
524.6949 -25.38578 2165.847 0.8149463 -0.5479953 0.1885836 
489.1726 -28.1081 2181.014 -0.05543841 -0.4541701 0.8891885 
456.665 -25.28536 2031.684 -0.5300921 -0.846077 0.05617996 
502.0602 -23.09756 2020.186 0.8902549 -0.4542244 -0.03356499 
469.9514 -16.82395 1103.419 -0.3674393 -0.9285886 0.05207226 
506.6898 -16.24793 1083.112 0.5936315 -0.491734 -0.6370238 
542.6219 -15.56479 1120.499 0.6029181 -0.6619291 -0.4453534 
510.7214 -16.09519 1139.192 -0.1658946 -0.9491642 0.2675192 
568.2729 -22.672 2133.442 -0.5604417 -0.6763399 0.477985 
549.9409 -14.27061 1681.683 -0.6243569 -0.7810323 -0.01292673 
587.3185 -11.85056 1643.565 0.785232 -0.6191467 0.008250449 
601.2646 -20.6995 2154.995 0.8140242 -0.4040252 0.4172869 
603.782 -10.86193 1492.759 -0.3725835 -0.9257443 -0.06464584 
546.6158 -13.94511 1422.643 -0.6658819 -0.6588315 0.3500605 
581.6937 -12.9481 1411.56 0.6302608 -0.7634717 -0.141005 
621.4371 -9.952806 1462.277 0.726656 -0.4527301 -0.5167268 
670.6953 -7.492801 1596.558 -0.04280552 -0.9733303 0.2253793 
760.4469 3.912677 1654.181 0.7183703 -0.6141372 -0.3267717 
721.2071 -0.4600348 1666.378 -0.3762589 -0.913083 0.1571903 
146.6927 -18.30412 1648.264 -0.6642346 -0.7283052 -0.1684165 
183.2651 -19.1995 1663.986 0.7190809 -0.6863827 0.1086342 
130.1248 -20.62118 1816.512 0.7043595 -0.6934782 0.1515444 
89.12621 -19.42092 1811.96 -0.6847429 -0.7221748 -0.09793232 
151.2541 -17.25613 1539.76 -0.2441605 -0.9625791 0.1175893 
194.5716 -17.70412 1503.98 0.4605815 -0.8162808 0.3486408 
3.939379 -15.87508 1725.503 -0.574559 -0.8077925 -0.1317316 
46.81376 -17.11134 1718.094 0.8095883 -0.5277926 0.2569081 
286.9724 -17.98685 1375.906 -0.3431228 -0.8744212 -0.3430077 
324.6654 -16.15488 1402.567 0.7361965 -0.4916598 0.465065 
297.1619 -18.04957 1433.589 0.5376282 -0.7942657 0.2830157 
260.1407 -18.05309 1453.795 -0.2641676 -0.9554781 0.1314427 
230.9624 -17.56846 1419.404 -0.5134697 -0.5748028 -0.6371427 
99.74618 -13.45411 1598.286 0.5933228 -0.6807314 0.4296196 
57.36456 -15.45484 1587.285 -0.6004718 -0.741756 -0.2987169 
137.5191 -16.67141 1494.821 -0.4990935 -0.7208461 -0.4809227 
176.2373 -17.1754 1464.151 -0.4376172 -0.7202557 -0.5382591 
327.3028 -17.55914 1302.642 -0.5192508 -0.8232809 -0.2293191 
378.5315 -17.49292 1291.341 0.6215139 -0.7831026 -0.0217015 
355.5995 -17.53824 1345.189 -0.2011297 -0.930573 0.3059099 
347.5459 -17.463 1216.856 -0.6577191 -0.7452588 -0.1095219 
387.7819 -17.38701 1226.307 0.744687 -0.6643253 0.06413437 
381.8352 -17.49949 1400.485 -0.6466217 -0.7615202 0.0443558 
419.2998 -16.95063 1390.382 0.7250479 -0.668003 -0.167564 
351.603 -19.88157 1669.819 -0.6271315 -0.7502561 -0.2093369 
388.0302 -19.46958 1680.957 0.7373714 -0.6617114 0.1357255 
255.4389 -19.46912 1618.887 -0.633323 -0.7423521 -0.2186673 
290.3258 -19.76468 1634.06 0.7226225 -0.6810349 0.1183565 
125.6517 -35.24724 2289.2 0.747956 -0.5986817 0.2866044 
84.52728 -34.83572 2305.544 -0.1339969 -0.482418 0.8656314 
668.8868 -11.02084 2073.398 0.8369193 -0.4594297 0.2974735 
641.9126 -14.11471 2086.61 0.01180372 -0.4801525 0.8771057 
634.5269 -9.335608 1628.491 -0.6084258 -0.7929814 0.03160231 
754.5576 1.524479 2038.057 0.7236167 -0.6888314 0.04347676 
737.2754 -0.01087236 2141.848 0.7441698 -0.3339354 0.5785313 
707.1884 -3.727604 2120.002 -0.681263 -0.6517749 0.3332722 
718.4821 -3.486353 2034.438 -0.7034231 -0.7098166 -0.03682902 
562.9357 -13.08545 1559.438 -0.5967835 -0.7849935 -0.1662369 
590.1304 -11.57376 1586.448 0.7297955 -0.6340916 0.2555903 
483.5482 -15.6872 1390.106 -0.6358565 -0.7685252 0.07110231 
523.1495 -14.72132 1383.566 0.7442547 -0.6466362 -0.167172 
543.5107 -15.03364 1203.004 -0.6204413 -0.7763497 0.1110578 
574.3818 -14.22279 1191.998 0.7336435 -0.646271 -0.2100024 
433.1336 -16.28427 1280.135 -0.6229603 -0.7690761 0.1429775 
480.6469 -15.91881 1258.366 0.7413487 -0.6502781 0.1659533 
479.8509 -15.92476 1263.186 0.7513502 -0.6598966 -0.003048139 
354.0826 -17.16604 987.7288 -0.5701733 -0.8214409 -0.01171877 
400.0409 -17.30352 991.5178 0.5762451 -0.8028114 -0.1530864 
398.7789 -17.33282 1041.468 -0.0723015 -0.931071 0.3576021 
99.38185 10.68823 5.79834 -0.7133656 -0.6999636 0.03406481 
158.2632 8.23584 8.645172 0.6999047 -0.7105061 -0.07290182 
374.4247 13.10544 755.9021 0.9355562 0.1016114 -0.3382451 
399.9342 12.20531 882.1337 0.9923384 0.1148421 -0.04556236 
396.6189 11.95673 991.585 0.8357632 0.1131351 -0.5373085 
506.3354 13.04986 1087.378 0.6961193 0.1144499 -0.7087448 
537.9225 13.65319 1120.564 0.8525537 0.1417214 -0.503058 
569.3505 14.98252 1192.061 0.9727898 0.1693315 -0.158136 
576.5408 16.2505 1411.629 0.883868 0.160794 -0.4392297 
615.8723 19.23084 1462.336 0.8052238 0.1578658 -0.5715708 
652.7794 21.34647 1518.031 0.9006642 0.1831213 -0.394044 
662.7003 21.38812 1547.668 0.8174942 0.1792028 -0.5473479 
753.023 33.02034 1654.168 0.94608 0.2403547 -0.217169 
747.2047 30.63428 2038.051 0.9639379 0.2406875 0.1135481 
731.2067 24.86965 2141.86 -0.1049642 -0.02150146 0.9942436 
701.5007 21.16924 2120.037 -0.8956084 -0.2051491 0.3947143 
711.6729 25.64679 2034.465 -0.9703761 -0.2249981 -0.08801228 
714.3694 28.67265 1666.394 -0.9291486 -0.2114804 0.3032473 
664.7726 21.67696 1596.599 0.8586452 0.2440464 0.4507436 
660.1092 18.17501 2073.465 0.7069765 0.1923749 0.6805704 
636.1315 15.06069 2086.692 -0.843263 -0.1652921 0.5114548 
628.9144 19.84591 1628.548 -0.9778782 -0.1866289 0.09446712 
615.5865 19.31476 1530.986 0.5603815 0.09784398 0.8224349 
584.9011 17.6221 1586.52 0.9650595 0.1720281 0.1976529 
582.1183 17.34621 1643.64 0.9843495 0.176227 0.0004532061 
595.9847 8.49651 2155.104 -0.06107914 -0.01078617 0.9980747 
563.3563 6.538047 2133.56 -0.9291204 -0.1566389 0.3349622 
545.1113 14.93944 1681.769 -0.9847371 -0.1640651 -0.05809988 
557.9813 16.12033 1559.515 -0.9078367 -0.1571774 -0.3887516 
598.4106 18.32874 1492.824 -0.9412593 -0.1678488 0.2930151 
541.8266 15.26723 1422.72 -0.9604971 -0.157323 0.2295536 
538.7846 14.1825 1203.073 -0.937713 -0.1490981 0.31379 
506.318 13.13271 1139.263 0.738327 0.1088962 0.6655936 
476.2715 13.30802 1258.45 0.9714437 0.1448257 0.1879434 
475.4809 13.30222 1263.271 0.9732869 0.1485237 -0.1750808 
518.551 14.49743 1383.646 0.9843088 0.1518271 -0.08991581 
497.7495 6.132634 2020.304 0.9851418 0.1472746 -0.08835155 
520.9631 -0.8968005 2165.959 0.7169824 0.1040685 0.6892793 
485.7373 -3.608289 2181.131 -0.7526417 -0.1063611 0.649783 
452.7033 3.95673 2031.808 -0.9895563 -0.1382872 0.04068293 
479.2332 13.54085 1390.193 -0.9536182 -0.138406 0.2673127 
429.1188 12.95447 1280.223 -0.9906616 -0.1363112 0.002985592 
465.916 12.41631 1103.492 -0.8631377 -0.1152759 0.4916347 
395.3357 11.9256 1041.54 0.8327554 0.09703309 0.5450715 
384.3212 11.86805 1226.391 0.9867637 0.116231 0.1130828 
375.0859 11.76138 1291.428 0.9701399 0.1192581 -0.2112018 
415.4541 12.29222 1390.475 0.9902032 0.1282349 -0.05525783 
384.3698 9.776931 1681.063 0.9531991 0.1155828 0.2793783 
348.2074 7.805789 1774.3 0.9762946 0.1130679 0.1845658 
350.0046 -14.52948 2356.016 0.8355583 0.07925209 0.5436557 
313.7516 -16.08313 2372.419 -0.5339093 -0.04601147 0.8442889 
302.8914 7.407077 1775.883 -0.97596 -0.09904176 -0.1941463 
348.1689 9.370285 1669.924 -0.9715295 -0.1150796 -0.2070921 
378.2469 11.74993 1400.58 -0.9599711 -0.1165616 0.2546941 
352.201 11.71651 1345.281 0.5308386 0.0559296 0.8456254 
321.4306 13.10216 1402.661 0.7939864 0.08462352 0.602017 
294.0702 11.20915 1433.683 0.9610659 0.1007563 0.2572947 
287.2309 9.492665 1634.162 0.946569 0.09539334 0.3080701 
223.2476 7.881321 1766.34 0.9825026 0.08367018 0.1663969 
211.4305 -11.26653 2268.46 0.4193121 0.0258318 0.9074746 
170.1381 -10.43294 2267.189 -0.9078797 -0.07022005 0.4133082 
188.8427 8.717353 1744.591 -0.9431922 -0.08602592 -0.3209174 
252.5181 9.78945 1618.987 -0.9800337 -0.09709186 -0.1735143 
257.2325 11.20701 1453.889 0.1407655 0.007008794 0.9900182 
191.9523 11.55338 1504.072 0.9377977 0.08253637 0.3372287 
180.6743 10.05632 1664.083 0.966333 0.08150181 0.2440452 
127.8361 8.631285 1816.608 0.9907562 0.06788625 0.1174464 
124.3956 -10.51107 2289.288 0.6813152 0.03068909 0.7313465 
83.52962 -10.10275 2305.617 -0.8717375 -0.05389686 0.4869998 
87.00151 9.822844 1812.051 -0.9712889 -0.07328133 -0.2263353 
144.2516 10.94713 1648.358 -0.9868062 -0.08197027 -0.1396229 
148.8072 11.99619 1539.85 0.3711673 0.02460629 0.9282399 
97.49436 15.7886 1598.372 0.8674429 0.06430019 0.4933643 
44.66061 12.12678 1718.182 0.9737586 0.06740359 0.2173727 
28.10499 10.85174 1855.982 0.9956622 0.06221206 0.06918395 
20.33283 -9.496826 2342.118 0.7609411 0.02788666 0.6482215 
-17.08821 -8.21921 2348.92 -0.6436567 -0.008630045 0.7652657 
-13.43202 12.67089 1842.001 -0.9962893 -0.04830145 -0.07123585 
1.955456 13.35007 1725.586 -0.9562294 -0.06546485 -0.285201 
55.25317 13.7781 1587.368 -0.824663 -0.06023604 -0.5624079 
135.143 12.57938 1494.908 -0.6686994 -0.05314188 -0.7416313 
173.7125 12.08103 1464.24 -0.6269598 -0.04512553 -0.7777436 
236.5281 11.64159 1413.732 -0.6205447 -0.04343909 -0.782967 
283.9347 11.27263 1375.999 -0.8028255 -0.08286265 -0.5904279 
324.1292 11.70065 1302.731 -0.9437776 -0.1016001 -0.3145812 
344.3565 11.79832 1216.939 -0.9897125 -0.1063567 -0.09569494 
351.0027 12.1023 987.7952 -0.9946127 -0.1034174 -0.007107335 
350.5765 12.57076 875.5117 -0.9853367 -0.09735958 0.1401173 
329.9262 13.56152 778.455 -0.870382 -0.07407869 0.4867727 
243.6368 16.40623 666.714 -0.7025117 -0.04119895 0.7104787 
157.1187 19.85137 591.7566 -0.8805592 -0.02845345 0.4730814 
106.8449 23.47093 436.6368 -0.9996375 -0.02029956 -0.01768482 
127.6508 26.00298 322.428 -0.9998595 -0.01676573 -0.0001328724 
99.12771 40.00433 5.753632 -0.9959657 -0.008497824 0.08933154 
157.5026 37.5559 8.573776 0.9977676 0.03001241 -0.0596579 
175.9147 24.78533 312.1908 0.9941215 0.03374093 0.1028784 
156.0409 22.45713 419.5543 0.9911742 0.03787067 -0.1270421 
198.3073 19.24545 566.2377 0.7739907 0.04444332 -0.6316354 
286.1158 15.8615 638.5861 0.7475191 0.06521005 -0.6610317 
-39.51764 -5.579988 558.6307 0.5557387 -0.8150964 0.1636226 
-78.04097 -4.046781 516.8163 -0.3242539 -0.8243625 -0.4639891 
-46.33131 -1.903821 382.9506 -0.7119496 -0.6963704 -0.09053211 
-6.407175 -3.317549 398.6853 0.6897495 -0.7236493 -0.02402899 
-171.2167 -5.629453 776.0497 -0.5096623 -0.7989364 -0.3192884 
-158.4948 -4.954697 682.6966 -0.8118964 -0.5394492 -0.2232012 
-112.1982 -6.239336 693.0977 0.5383656 -0.8181533 0.2019599 
156.5487 -16.41932 1404.206 0.6765515 -0.6634061 0.3196412 
120.208 -15.69132 1402.082 -0.443823 -0.4256722 0.7885584 
116.3469 -15.07805 1227.104 -0.6732604 -0.7311993 0.1098549 
146.9419 -15.68413 1212.893 0.6851363 -0.6964362 -0.2134598 
-276.8783 -2.815729 741.3842 0.6608741 -0.741205 0.1177319 
-335.9893 -2.058145 865.7994 0.6380264 -0.7390214 0.2162631 
-369.1117 -1.17832 837.9996 -0.7155851 -0.681074 -0.1551652 
-309.4741 -1.905693 723.8212 -0.6912605 -0.6854568 -0.2287095 
-475.1639 3.636664 1498.302 0.6860078 -0.6622185 0.3014299 
-505.7816 4.339788 1506.912 -0.2142177 -0.4459607 0.8690396 
-506.7981 2.412731 1073.795 -0.6256717 -0.7776108 -0.06210069 
-474.7755 1.731045 1079.024 0.7711608 -0.6085618 0.1869858 
-552.2705 3.469322 1103.96 0.6584501 -0.7499096 0.06386885 
-549.3129 10.0214 1521.529 0.4490239 -0.658943 0.6034665 
-578.759 10.44445 1513.886 -0.6878573 -0.4812664 0.5433555 
-586.5928 3.99743 1093.271 -0.7520019 -0.6561103 -0.06334443 
-632.7357 4.627542 1090.295 0.6409917 -0.7622636 0.08990998 
-625.872 6.035734 1435.886 0.5830572 -0.6167806 0.5287968 
-665.4008 6.29376 1439.622 -0.5597699 -0.5428835 0.6260474 
-668.9598 4.990931 1086.09 -0.758333 -0.6437863 -0.1023249 
-702.0019 5.023514 1037.569 0.6206486 -0.7761593 0.1112301 
-711.0494 6.318791 1379.962 0.6934745 -0.578237 0.4298084 
-739.9937 6.253027 1368.274 -0.567454 -0.557844 0.6056452 
-739.8231 5.197235 1036.231 -0.7752249 -0.6282829 -0.06547547 
-329.4104 -0.8397946 1401.6 0.5433482 -0.8172678 -0.1919532 
-362.7142 0.2727222 1415.954 -0.6037695 -0.7326661 -0.3141063 
-379.6154 0.4224205 1332.345 -0.6130165 -0.7880378 0.05663405 
-345.6831 -0.5707731 1325.659 0.8161324 -0.5775781 0.01820353 
-419.7426 2.198972 1579.81 0.684386 -0.7257054 0.0704798 
-424.5938 0.9974704 1786.03 0.7876752 -0.439821 0.4314225 
-459.6007 2.206043 1783.534 -0.3941482 -0.6510118 0.6487148 
-458.5502 3.259687 1572.315 -0.7256647 -0.6860869 -0.05191868 
-283.1123 -8.018351 1898.429 -0.7629475 -0.4909976 0.4205147 
-300.6102 -1.664088 1518.557 -0.6751289 -0.7095293 0.2019137 
-268.7364 -2.809868 1496.294 0.6494043 -0.7286969 -0.217428 
-342.7731 -0.2796507 1453.165 -0.2222759 -0.9134425 0.340905 
-174.6618 -6.600733 1270.092 0.8003702 -0.598915 0.02661558 
-151.2312 -8.711996 1740.845 0.6665058 -0.5358778 0.5182713 
-194.9732 -6.963187 1751.077 -0.4881108 -0.6155681 0.6187276 
-220.2598 -5.150383 1253.719 -0.56839 -0.8223002 -0.02748199 
-69.10687 -9.977341 1191.642 0.7722872 -0.6019568 0.2030282 
-59.05285 -8.189226 1707.965 0.7960424 -0.4613418 0.3917656 
-97.37246 -6.95403 1737.379 -0.3053972 -0.736418 0.6036731 
-115.3374 -8.522417 1192.293 -0.5386611 -0.8339759 -0.1197023 
15.15435 -9.857756 1554.318 -0.4928102 -0.6285189 0.6017492 
9.523912 -12.32552 1204.241 -0.5478294 -0.8332692 -0.07446636 
42.04493 -13.2354 1214.501 0.809874 -0.5801514 0.08676741 
45.07454 -10.78671 1547.977 0.6590924 -0.515986 0.5471341 
-154.6851 -6.35013 814.3713 -0.2164803 -0.9298397 0.2975474 
-120.5002 -6.901425 772.2726 0.6863101 -0.7267836 -0.02764421 
58.89326 -13.39774 1094.759 -0.5187407 -0.8174066 -0.2505086 
54.8623 -12.8803 987.9841 -0.6667428 -0.7293904 0.1531132 
85.25266 -13.4995 965.2166 0.6232693 -0.7123214 -0.3226975 
93.72809 -14.15121 1074.602 0.7098804 -0.6970647 -0.1008502 
-76.58678 -8.979992 903.2318 -0.01606608 -0.9425818 0.3335887 
-51.32765 -9.430122 867.5012 0.4335805 -0.5527694 -0.7116559 
-19.84792 -10.38639 886.813 0.3274243 -0.7062834 -0.62766 
-41.14333 -10.0385 922.2673 -0.4530182 -0.8813255 0.1343126 
22.14863 -11.59214 905.3448 0.2496869 -0.7993274 -0.546564 
0.2474194 -11.24394 941.8285 0.02946004 -0.8443736 0.5349442 
-115.5253 -7.766153 873.6558 -0.50365 -0.8592603 0.08949027 
-142.0822 -6.839329 837.7078 -0.702738 -0.5472722 0.4545905 
-105.9981 -7.620577 818.5033 0.5193568 -0.8142193 -0.2594522 
-78.55882 -8.594549 850.0845 0.4707395 -0.7143409 -0.5178044 
34.74206 -12.85651 1123.293 -0.6317095 -0.7203784 -0.2863531 
70.74828 -13.80531 1136.492 -0.1739685 -0.9581302 0.2274237 
53.29128 -13.4275 1162.117 0.6296149 -0.7045053 0.3275016 
-352.0437 -1.310341 1113.81 -0.662783 -0.734571 0.1453417 
-376.4271 -0.6922059 1096.646 -0.8186251 -0.4267553 0.3843604 
-337.1033 -1.898104 1067.045 -0.4722662 -0.6945409 -0.5427501 
-314.3632 -2.376013 1092.348 0.396831 -0.8773099 0.2699122 
-41.35857 16.10114 0 -0.7250453 -0.6800542 -0.1087919 
9.953667 14.15823 1.895599 0.682341 -0.7280115 0.06640922 
-24.22229 3.069341 231.4845 0.6858445 -0.7276773 0.01015431 
-67.08748 3.428225 250.351 -0.7229676 -0.6906076 0.01946667 
-270.5384 -1.327218 610.7717 0.2387682 -0.9074845 0.3456323 
-300.7 -0.2714586 574.2076 -0.2025899 -0.694032 -0.6908525 
-94.5592 -4.427494 570.9006 -0.3764728 -0.9262337 -0.01895618 
-225.4178 -4.959606 889.9265 0.5701303 -0.7333698 0.3702975 
-260.4569 -3.974191 866.3878 -0.6673744 -0.7041686 -0.2424007 
-250.1419 -4.478207 1027.023 0.7517486 -0.5854226 0.3035697 
-281.4241 -3.598231 1011.146 -0.5115616 -0.7997508 -0.3141712 
-311.1938 -0.6265364 620.8077 -0.4154775 -0.8832087 0.2175337 
-408.5647 1.652117 1414.217 0.6002371 -0.7173725 0.3536838 
-439.6572 2.494097 1407.703 -0.5516982 -0.3682985 0.7483217 
-436.2196 0.8236802 1082.955 -0.6138625 -0.7842485 -0.09015059 
-403.0602 -0.006474972 1088.259 0.7554086 -0.5963378 0.2715492 
-379.3948 -0.9937038 964.4811 -0.6941879 -0.6827537 -0.227927 
-344.2407 -1.912437 979.1354 0.6574302 -0.7388305 0.1480372 
-454.1526 0.7323761 916.8295 -0.8408574 -0.4978469 -0.2123846 
-418.4766 0.003921032 922.6082 0.5536634 -0.827897 0.08968521 
-441.1605 0.5608056 794.7574 -0.6118919 -0.7762952 -0.1515066 
-411.8174 -0.1024189 805.8016 0.7264581 -0.6156181 0.3054064 
-508.2924 1.815381 808.5981 -0.7288746 -0.6590292 -0.1855327 
-505.1815 2.017798 732.7178 -0.304801 -0.944554 0.1221235 
-467.2148 1.64526 687.3198 0.3651945 -0.8910411 0.2695901 
-475.7921 1.22479 807.9742 0.6448913 -0.756554 0.1083579 
-550.9133 2.679931 923.4089 -0.6233192 -0.7658254 -0.1580654 
-523.4405 2.216748 939.0717 0.7481237 -0.6230575 0.2282766 
-612.137 3.485754 860.1158 -0.2768342 -0.9556247 0.1007185 
-581.0016 3.026697 834.9668 0.4837355 -0.8426071 0.2366712 
-586.1975 3.282957 931.1589 0.6376669 -0.7652552 0.08812225 
-620.7903 3.750334 923.2546 -0.746633 -0.6415893 -0.175791 
-716.2352 4.736965 947.6326 -0.3206134 -0.9449999 0.0646698 
-669.6122 4.247925 907.7776 0.3561666 -0.8882043 0.2902389 
-393.2092 0.03232718 711.7683 -0.6899882 -0.6769473 -0.2562397 
-392.4246 0.7070792 642.6409 -0.3974075 -0.8947383 0.2037415 
-358.5642 0.1635623 633.2308 0.2486121 -0.9058222 0.3430426 
-364.4844 -0.7246633 730.3285 0.6418617 -0.7527341 0.1463045 
-440.8434 2.744789 1487.699 -0.6574339 -0.7013016 -0.2756025 
-409.148 1.88175 1506.448 0.5262221 -0.7420219 0.4153239 
-192.2746 -6.366182 1072.694 -0.659126 -0.7138148 -0.2366883 
-155.2791 -7.49381 1102.44 0.5750832 -0.728093 0.3730417 
-46.84931 -10.4592 1064.515 -0.7733966 -0.5729506 -0.2712662 
-13.48541 -11.47544 1094.327 0.5707244 -0.8093928 0.1384087 
-81.57423 -9.368038 1027.064 0.5433045 -0.8240924 0.1602874 
-117.9547 -8.239494 995.0579 -0.7114794 -0.577018 -0.4010576 
104.6222 -14.53238 1116.927 0.8088445 -0.5272881 -0.2602649 
30.01305 -12.08409 954.9843 -0.4868187 -0.7229062 0.4903205 
54.93118 -12.5414 925.6351 0.4297374 -0.7067158 -0.5620307 
-360.2455 0.6304862 591.1953 -0.2023917 -0.6931073 -0.6918381 
-393.682 1.128685 600.2739 -0.2625344 -0.6889831 -0.6755576 
-429.4113 1.24144 656.9205 0.2531902 -0.8184966 0.5157112 
-447.333 1.797246 623.139 -0.2444192 -0.6890911 -0.6822116 
-495.2627 2.25882 657.5742 -0.5354404 -0.6657917 -0.5196393 
-451.0723 1.848438 624.2732 -0.4372214 -0.517977 -0.7352124 
-529.8314 2.527141 698.3389 -0.6001279 -0.6553872 -0.4586003 
-593.6773 3.20462 784.7085 -0.5992746 -0.6514624 -0.46526 
-619.3986 3.537182 816.2081 -0.5151984 -0.6579759 -0.5492162 
-671.7177 4.158438 857.7222 -0.4825678 -0.6537228 -0.582902 
-716.2977 4.58568 894.2028 -0.4934087 -0.6472484 -0.5810485 
-744.4598 4.953484 972.282 0.1788894 -0.5062026 0.8436573 
-760.447 4.874906 931.3499 -0.8725683 -0.4881871 -0.01726163 
-23.60455 32.35614 231.479 0.9996114 -0.01731102 -0.02184695 
-6.12313 25.95994 398.6586 0.9948053 -0.009427757 0.1013585 
-39.24088 23.67599 558.582 0.9216648 -0.009754526 0.3878645 
-111.7341 22.96888 693.0084 0.9725811 -0.01284246 0.2322093 
-120.202 22.29413 772.1927 0.9861332 -0.007921493 -0.1657665 
-105.9256 21.57925 818.4519 0.8388587 -0.0002128307 -0.5443492 
-78.77078 20.61443 850.075 0.6192867 0.005984569 -0.7851422 
-51.76656 19.79061 867.5256 0.5309592 0.01047317 -0.8473327 
-20.53557 18.84654 886.868 0.4468171 0.01382945 -0.8945185 
21.16511 17.65468 905.4249 0.4886946 0.02030849 -0.8722185 
53.71657 16.71351 925.7246 0.716802 0.03412114 -0.6964414 
83.79349 15.75968 965.3035 0.9638936 0.05147836 -0.2612645 
92.04317 15.10278 1074.658 0.979998 0.05799843 -0.1903686 
102.8257 14.7213 1116.967 0.934639 0.0610472 -0.3503188 
144.8372 13.57246 1212.923 0.9829866 0.07336169 -0.1683905 
154.2309 12.83238 1404.27 0.4108407 0.03081372 0.9111863 
118.0123 13.55565 1402.137 -0.8901524 -0.06448779 0.4510767 
114.3666 14.17228 1227.124 -0.9482308 -0.0613149 0.3116069 
69.07207 15.43938 1136.525 0.435228 0.02333907 0.9000177 
51.66017 15.81062 1162.138 0.9417542 0.05247122 0.3321834 
40.40321 15.9954 1214.503 0.993314 0.05578486 0.1010714 
43.60426 11.04251 1548.028 0.7786589 0.04721259 0.6256686 
13.72821 11.96139 1554.371 -0.6217553 -0.04253374 0.7820557 
8.037548 16.89399 1204.239 -0.9883583 -0.05390109 -0.1422765 
33.24995 16.3784 1123.329 -0.8417017 -0.04280126 -0.5382438 
57.33305 15.84664 1094.808 -0.9780495 -0.04925426 -0.2024677 
53.51672 16.37125 988.069 -0.9026064 -0.04083101 0.428526 
28.87144 17.16288 955.0701 -0.5536276 -0.02300714 0.8324466 
-0.6966867 17.99403 941.9047 0.8222592 0.02984801 0.5683299 
-14.69603 17.74377 1094.37 0.9290599 0.03714375 0.3680599 
-70.20837 19.20509 1191.637 0.968348 0.0365992 0.2469062 
-60.20469 12.9915 1708.037 0.9005626 0.04201408 0.4326914 
-98.44456 14.20777 1737.468 -0.4259867 -0.02540018 0.9043728 
-116.2023 20.63087 1192.282 -0.973177 -0.03504606 -0.2273725 
-47.82493 18.74719 1064.557 -0.9815772 -0.02870857 -0.1888972 
-41.7934 19.18437 922.316 -0.750229 -0.0156253 0.6609935 
-76.96162 20.22716 903.2427 0.8450198 0.01660526 0.5344772 
-82.26299 19.82385 1027.089 0.8601201 0.01867063 0.5097499 
-155.7884 21.64864 1102.422 0.9456559 0.01705444 0.3247215 
-175.1977 22.50708 1270.073 0.9992706 0.01841628 0.03345513 
-152.4291 20.39536 1740.981 0.7984259 0.02178491 0.6016989 
-195.9433 22.10541 1751.233 -0.6008364 -0.02432337 0.7990019 
-220.4619 23.91806 1253.686 -0.9985701 -0.01361692 -0.05169449 
-192.4604 22.75018 1072.624 -0.8458092 -0.007869811 -0.5334275 
-118.3307 20.93317 995.042 -0.9655265 -0.008364147 -0.2601703 
-115.5532 21.42177 873.6088 -0.9138014 0.00298829 0.4061504 
-141.8148 22.33608 837.6116 -0.8584511 0.01132999 0.5127702 
-154.2535 22.81948 814.2542 0.3002895 -0.002684891 0.9538443 
-224.6883 24.14363 889.6599 0.933021 -0.01728787 0.3594065 
-249.6567 24.58017 1026.776 0.8366352 -0.0135775 0.5475921 
-313.5929 26.59737 1092.318 0.9412087 -0.02066159 0.3371935 
-345.2636 28.34173 1325.726 0.9954338 -0.01075934 -0.09484617 
-329.2888 28.08568 1401.691 0.9013046 0.003380354 -0.4331728 
-269.1989 26.18335 1496.394 0.9545285 0.01625188 -0.2976764 
-252.5139 24.65758 1918.52 0.496844 0.002769093 0.8678355 
-283.3503 26.29973 1898.715 -0.8664101 -0.01016235 0.4992296 
-252.0673 -9.704144 1918.255 0.3103227 -0.7461906 0.5889817 
-300.8861 27.28946 1518.683 -0.9528622 -0.006705168 0.3033293 
-342.6429 28.62308 1453.288 0.1928749 -0.01096568 0.9811621 
-408.5382 30.68157 1506.65 0.9257926 -0.02252348 0.3773601 
-419.118 30.97651 1580.062 0.997735 -0.02333574 0.06309111 
-423.8745 29.7689 1786.389 0.3909068 -0.02166981 0.9201751 
-458.5685 30.91469 1783.94 -0.9021358 0.02599524 0.4306684 
-457.5397 31.97138 1572.605 -0.9897389 0.03525341 -0.1384707 
-439.9035 31.49417 1487.923 -0.8122196 0.02537749 -0.5827997 
-362.3553 29.15104 1416.074 -0.9916325 0.01671213 -0.1280067 
-378.9603 29.29281 1332.435 -0.9994701 0.02619484 -0.01932125 
-351.0757 27.62047 1113.804 -0.8181903 0.02952457 0.5741889 
-375.1859 28.20961 1096.646 -0.9153942 0.03620248 -0.4009274 
-336.1109 27.05956 1067.015 -0.6759059 0.01820531 -0.7367631 
-280.6206 25.42886 1010.791 -0.9380151 0.02513982 -0.3456816 
-259.3636 25.09975 866.0231 -0.8410153 0.02314728 -0.540516 
-170.5453 23.53314 775.9127 -0.9402003 0.02217395 -0.3398996 
-157.6487 24.22743 682.5956 -0.9236993 0.02439172 -0.3823411 
-93.83826 24.80056 570.8353 -0.2806254 0.003507398 0.959811 
-268.5359 27.78212 610.6656 0.898626 -0.05485251 0.435273 
-275.2646 26.26553 741.2791 0.9499758 -0.05257631 0.3078663 
-334.2979 26.9392 865.7161 0.9793798 -0.05175563 0.1952862 
-342.9672 27.04844 979.0857 0.9365124 -0.04356952 0.3479172 
-401.5385 28.8604 1088.276 0.9837897 -0.04305286 0.1740815 
-407.7999 30.46246 1414.373 0.28519 -0.01209003 0.9583948 
-438.5793 31.25523 1407.885 -0.9167485 0.0432822 0.3971131 
-434.344 29.64341 1082.994 -0.9524705 0.06041752 -0.2985794 
-377.6606 27.93101 964.4407 -0.97745 0.06261039 -0.2016719 
-367.0023 27.78713 837.9202 -0.9374487 0.06578914 -0.3418504 
-307.4931 27.14841 723.714 -0.9865363 0.0710218 -0.1473166 
-308.8455 28.44481 620.6954 -0.2428971 0.02155248 0.9698126 
-355.7888 29.18532 633.1143 0.8967028 -0.07991152 0.43536 
-362.0112 28.26963 730.2268 0.9197929 -0.07934817 0.384298 
-409.1443 28.81825 805.7277 0.9715255 -0.08568209 0.2209 
-416.1112 28.87652 922.5789 0.9656405 -0.07875919 0.2476599 
-472.4644 30.49187 1079.094 0.9909333 -0.06783477 0.1159726 
-473.8861 32.32524 1498.572 0.6245711 -0.03700226 0.7800909 
-504.1759 32.97084 1507.223 -0.8708501 0.06283012 0.4875166 
-504.0892 31.12237 1073.896 -0.972447 0.0918309 -0.2142754 
-451.4543 29.56698 916.8153 -0.9794213 0.09537911 -0.1778672 
-438.119 29.446 794.6898 -0.9222293 0.09392057 -0.3750628 
-390.3667 28.99839 711.6649 -0.9789301 0.09841976 -0.1789117 
-389.3258 29.69008 642.5234 -0.1455578 0.0170859 0.9892022 
-425.9532 30.17782 656.8058 0.5440364 -0.0642496 0.8365981 
-463.4289 30.52572 687.2163 0.9368384 -0.1169193 0.3296418 
-472.3978 30.05871 807.9253 0.9607296 -0.1137882 0.2530831 
-519.9918 30.93859 939.1193 0.9667503 -0.1137595 0.2290259 
-549.0912 32.09076 1104.128 0.9902194 -0.1104942 0.08518588 
-547.9058 28.89034 1521.772 0.6098722 -0.07002401 0.7894002 
-577.0998 29.27234 1514.171 -0.7844217 0.05978811 0.6173394 
-582.8956 32.55844 1093.476 -0.9882474 0.1193905 -0.09546234 
-547.0333 31.36141 923.4709 -0.9456433 0.1265973 -0.2995529 
-504.5439 30.60772 808.5621 -0.9807231 0.1312501 -0.1447606 
-501.1042 30.83242 732.6414 0.4697379 -0.07933953 0.8792335 
-576.3135 31.68903 834.9896 0.9582437 -0.153025 0.2415625 
-581.8482 31.90089 931.2573 0.9671642 -0.1491442 0.2057897 
-628.3282 33.0996 1090.561 0.9793324 -0.1528407 0.1324678 
-622.5323 34.43195 1436.336 0.7386968 -0.1115603 0.6647416 
-661.441 34.60049 1440.144 -0.6635745 0.07909892 0.7439169 
-663.9384 33.39074 1086.407 -0.9769076 0.1633719 -0.1376994 
-615.8796 32.30906 923.3796 -0.9683262 0.1687292 -0.1840512 
-607.0862 32.08484 860.1796 0.2076317 -0.0525272 0.9767958 
-663.8251 32.72135 907.9336 0.8840595 -0.1830181 0.4300501 
-696.1979 33.37442 1037.893 0.9766583 -0.1909334 0.0984026 
-706.1472 34.53488 1380.536 0.1221297 -0.0381178 0.9917819 
-734.5132 34.40373 1368.9 -0.914728 0.1839131 0.3597898 
-733.2939 33.46818 1036.609 -0.9599498 0.2225366 -0.1702172 
-709.7787 33.09985 947.8795 0.2801591 -0.08158687 0.9564803 
-737.5632 33.24564 972.5916 -0.6224114 0.1513626 0.7679151 
-753.0953 33.14837 931.6381 -0.8613925 0.2211176 -0.4572855 
-709.6531 32.96855 894.3999 -0.6336274 0.1479004 -0.7593694 
-665.7217 32.64491 857.8389 -0.623579 0.1285512 -0.7711186 
-614.0901 32.13657 816.2474 -0.7230678 0.1324041 -0.6779692 
-588.6292 31.86032 784.7064 -0.7889708 0.133109 -0.5998392 
-525.3287 31.31353 698.2534 -0.7731395 0.1162725 -0.6234871 
-491.0489 31.10716 657.4639 -0.6581676 0.09016742 -0.7474526 
-447.2758 30.76361 624.1494 -0.4008883 0.04857764 -0.9148381 
-443.5766 30.71753 623.0151 -0.3599201 0.04032326 -0.9321113 
-390.4533 30.11748 600.1502 -0.3074208 0.02922067 -0.9511249 
-357.3417 29.65712 591.075 -0.2713789 0.02155053 -0.9622313 
-298.3319 28.81576 574.0966 -0.2588943 0.01312754 -0.9658165 
-77.36201 25.19241 516.7598 -0.8383447 0.01781524 -0.5448493 
-45.70499 27.36162 382.9197 -0.9993242 0.02514265 0.02681287 
-66.13176 32.70053 250.3415 -0.9993153 0.03334106 -0.01604045 
-40.34258 45.38519 0.02212524 -0.9943172 0.03457349 -0.1006877 
10.51905 43.45648 1.903381 0.98906 -0.01997995 0.1461546 
3 0 1 2 
3 2 3 0 
3 4 5 6 
3 6 7 4 
3 8 9 10 
3 11 12 13 
3 13 14 11 
3 15 16 17 
3 17 18 15 
3 19 20 21 
3 21 22 19 
3 23 24 25 
3 25 26 23 
3 27 28 29 
3 29 30 27 
3 31 32 33 
3 33 34 31 
3 35 36 37 
3 37 38 35 
3 39 40 41 
3 41 42 39 
3 43 9 44 
3 44 45 43 
3 46 47 48 
3 48 49 46 
3 50 51 47 
3 47 46 50 
3 52 53 15 
3 15 18 52 
3 54 55 56 
3 56 57 54 
3 58 54 57 
3 59 53 52 
3 52 60 59 
3 61 62 51 
3 51 50 61 
3 50 59 60 
3 60 61 50 
3 63 64 65 
3 65 55 54 
3 54 63 65 
3 63 66 67 
3 67 64 63 
3 68 65 64 
3 64 69 68 
3 70 68 69 
3 69 71 70 
3 71 23 26 
3 26 70 71 
3 22 72 73 
3 73 19 22 
3 74 75 49 
3 49 48 74 
3 76 77 78 
3 78 43 76 
3 39 42 8 
3 8 10 39 
3 43 78 10 
3 10 9 43 
3 79 80 81 
3 81 82 79 
3 36 83 84 
3 84 37 36 
3 29 85 86 
3 86 30 29 
3 87 88 41 
3 41 40 87 
3 89 90 91 
3 91 85 89 
3 85 91 86 
3 31 34 90 
3 90 89 31 
3 34 33 88 
3 88 87 34 
3 92 2 1 
3 1 93 92 
3 94 67 66 
3 66 92 94 
3 92 93 94 
3 0 3 5 
3 5 4 0 
3 14 13 7 
3 7 6 14 
3 95 96 12 
3 12 11 95 
3 83 39 10 
3 10 84 83 
3 72 57 56 
3 56 73 72 
3 97 98 1 
3 1 0 97 
3 98 99 93 
3 93 1 98 
3 100 101 33 
3 33 32 100 
3 101 102 88 
3 88 33 101 
3 102 103 41 
3 41 88 102 
3 103 104 42 
3 42 41 103 
3 104 105 8 
3 8 42 104 
3 105 106 9 
3 9 8 105 
3 106 107 44 
3 44 9 106 
3 107 108 79 
3 79 44 107 
3 109 110 81 
3 81 80 109 
3 111 82 81 
3 81 110 111 
3 112 113 43 
3 43 45 112 
3 113 114 76 
3 76 43 113 
3 114 115 77 
3 77 76 114 
3 115 116 78 
3 78 77 115 
3 116 117 10 
3 10 78 116 
3 117 118 84 
3 84 10 117 
3 118 119 37 
3 37 84 118 
3 119 120 38 
3 38 37 119 
3 120 121 35 
3 35 38 120 
3 121 122 36 
3 36 35 121 
3 122 123 83 
3 83 36 122 
3 123 124 39 
3 39 83 123 
3 124 125 40 
3 40 39 124 
3 125 126 87 
3 87 40 125 
3 126 127 34 
3 34 87 126 
3 127 128 90 
3 90 34 127 
3 128 129 91 
3 91 90 128 
3 129 130 86 
3 86 91 129 
3 130 131 30 
3 30 86 130 
3 131 132 27 
3 27 30 131 
3 132 133 28 
3 28 27 132 
3 133 134 29 
3 29 28 133 
3 134 135 85 
3 85 29 134 
3 135 136 89 
3 89 85 135 
3 136 137 31 
3 31 89 136 
3 137 138 94 
3 94 31 137 
3 138 139 67 
3 67 94 138 
3 139 140 64 
3 64 67 139 
3 140 141 69 
3 69 64 140 
3 141 142 71 
3 71 69 141 
3 142 143 23 
3 23 71 142 
3 144 24 23 
3 23 143 144 
3 144 145 25 
3 25 24 144 
3 146 26 25 
3 25 145 146 
3 146 147 70 
3 70 26 146 
3 147 148 68 
3 68 70 147 
3 148 149 65 
3 65 68 148 
3 149 150 55 
3 55 65 149 
3 150 151 56 
3 56 55 150 
3 151 152 73 
3 73 56 151 
3 152 153 19 
3 19 73 152 
3 153 154 20 
3 20 19 153 
3 154 155 21 
3 21 20 154 
3 155 156 22 
3 22 21 155 
3 156 157 72 
3 72 22 156 
3 157 158 57 
3 57 72 157 
3 158 159 51 
3 51 57 158 
3 159 160 47 
3 47 51 159 
3 160 161 48 
3 48 47 160 
3 161 162 74 
3 74 48 161 
3 162 163 75 
3 75 74 162 
3 163 164 49 
3 49 75 163 
3 164 165 46 
3 46 49 164 
3 165 166 50 
3 50 46 165 
3 166 167 59 
3 59 50 166 
3 167 168 53 
3 53 59 167 
3 168 169 15 
3 15 53 168 
3 170 16 15 
3 15 169 170 
3 170 171 17 
3 17 16 170 
3 172 18 17 
3 17 171 172 
3 172 173 52 
3 52 18 172 
3 173 174 60 
3 60 52 173 
3 174 175 61 
3 61 60 174 
3 175 176 62 
3 62 61 175 
3 177 178 54 
3 54 58 177 
3 178 179 63 
3 63 54 178 
3 179 180 66 
3 66 63 179 
3 180 181 92 
3 92 66 180 
3 181 182 2 
3 2 92 181 
3 182 183 3 
3 3 2 182 
3 183 184 5 
3 5 3 183 
3 184 185 6 
3 6 5 184 
3 185 186 14 
3 14 6 185 
3 186 187 11 
3 11 14 186 
3 187 188 95 
3 95 11 187 
3 189 190 12 
3 12 96 189 
3 190 191 13 
3 13 12 190 
3 191 192 7 
3 7 13 191 
3 192 193 4 
3 4 7 192 
3 193 97 0 
3 0 4 193 
3 31 94 93 
3 93 32 31 
3 32 93 99 
3 99 100 32 
3 194 195 196 
3 196 197 194 
3 198 199 200 
3 201 202 203 
3 203 204 201 
3 205 206 207 
3 207 208 205 
3 209 210 211 
3 211 212 209 
3 213 214 215 
3 215 216 213 
3 217 218 219 
3 219 220 217 
3 221 222 223 
3 223 224 221 
3 225 226 227 
3 227 228 225 
3 229 230 231 
3 231 232 229 
3 233 234 235 
3 235 390 233 
3 235 234 236 
3 236 225 235 
3 237 238 239 
3 239 240 237 
3 241 242 243 
3 243 244 241 
3 245 246 247 
3 247 248 245 
3 249 198 250 
3 251 252 253 
3 253 254 251 
3 255 256 257 
3 257 258 255 
3 258 257 259 
3 259 260 258 
3 261 262 263 
3 263 264 261 
3 255 261 264 
3 264 256 255 
3 265 251 266 
3 266 267 265 
3 268 269 270 
3 270 271 268 
3 263 262 249 
3 249 250 263 
3 272 273 274 
3 274 275 272 
3 275 274 197 
3 197 196 275 
3 276 277 195 
3 195 278 276 
3 195 194 278 
3 278 194 200 
3 200 199 278 
3 198 200 250 
3 249 279 280 
3 280 198 249 
3 279 281 282 
3 282 280 279 
3 282 281 271 
3 271 270 282 
3 208 283 276 
3 276 205 208 
3 284 285 286 
3 286 287 284 
3 288 207 206 
3 206 289 288 
3 286 288 289 
3 289 287 286 
3 211 290 291 
3 291 212 211 
3 292 293 291 
3 291 290 292 
3 294 295 296 
3 296 297 294 
3 298 294 297 
3 297 299 298 
3 300 301 302 
3 302 303 300 
3 303 302 217 
3 217 220 303 
3 224 304 305 
3 305 221 224 
3 298 299 213 
3 213 216 298 
3 306 307 308 
3 308 309 306 
3 292 306 309 
3 309 293 292 
3 271 228 227 
3 227 268 271 
3 225 236 226 
3 310 226 236 
3 236 311 310 
3 232 310 311 
3 311 229 232 
3 240 312 313 
3 313 237 240 
3 244 314 315 
3 315 241 244 
3 246 265 267 
3 267 247 246 
3 261 255 316 
3 316 317 261 
3 258 260 315 
3 315 314 258 
3 266 251 254 
3 254 318 266 
3 266 318 204 
3 204 203 266 
3 319 260 259 
3 259 320 319 
3 252 319 320 
3 320 253 252 
3 283 308 321 
3 321 277 283 
3 277 276 283 
3 308 307 322 
3 322 321 308 
3 307 323 324 
3 324 322 307 
3 323 296 325 
3 325 326 323 
3 323 326 324 
3 296 295 327 
3 327 325 296 
3 295 301 328 
3 328 327 295 
3 301 300 329 
3 329 328 301 
3 300 305 330 
3 330 329 300 
3 305 304 331 
3 331 330 305 
3 304 332 333 
3 333 331 304 
3 312 317 316 
3 316 313 312 
3 334 335 197 
3 197 274 334 
3 335 336 194 
3 194 197 335 
3 336 337 200 
3 200 194 336 
3 337 338 250 
3 250 200 337 
3 338 339 263 
3 263 250 338 
3 339 340 264 
3 264 263 339 
3 340 341 256 
3 256 264 340 
3 341 342 257 
3 257 256 341 
3 342 343 259 
3 259 257 342 
3 343 344 320 
3 320 259 343 
3 344 345 253 
3 253 320 344 
3 345 346 254 
3 254 253 345 
3 346 347 318 
3 318 254 346 
3 347 348 204 
3 204 318 347 
3 348 349 201 
3 201 204 348 
3 349 350 202 
3 202 201 349 
3 350 351 203 
3 203 202 350 
3 351 352 266 
3 266 203 351 
3 352 353 267 
3 267 266 352 
3 353 354 247 
3 247 267 353 
3 355 248 247 
3 247 354 355 
3 355 356 245 
3 245 248 355 
3 357 246 245 
3 245 356 357 
3 357 358 265 
3 265 246 357 
3 358 359 251 
3 251 265 358 
3 359 360 252 
3 252 251 359 
3 360 361 319 
3 319 252 360 
3 361 362 260 
3 260 319 361 
3 362 363 315 
3 315 260 362 
3 363 364 241 
3 241 315 363 
3 365 242 241 
3 241 364 365 
3 365 366 243 
3 243 242 365 
3 367 244 243 
3 243 366 367 
3 367 368 314 
3 314 244 367 
3 368 369 258 
3 258 314 368 
3 369 370 255 
3 255 258 369 
3 370 371 316 
3 316 255 370 
3 371 372 313 
3 313 316 371 
3 372 373 237 
3 237 313 372 
3 374 238 237 
3 237 373 374 
3 374 375 239 
3 239 238 374 
3 376 240 239 
3 239 375 376 
3 376 377 312 
3 312 240 376 
3 377 378 317 
3 317 312 377 
3 378 379 261 
3 261 317 378 
3 379 380 262 
3 262 261 379 
3 380 381 249 
3 249 262 380 
3 381 382 279 
3 279 249 381 
3 382 383 281 
3 281 279 382 
3 383 384 271 
3 271 281 383 
3 384 385 228 
3 228 271 384 
3 385 386 225 
3 225 228 385 
3 386 387 235 
3 235 225 386 
3 388 390 235 
3 235 387 388 
3 388 389 233 
3 233 390 388 
3 391 234 233 
3 233 389 391 
3 391 392 236 
3 236 234 391 
3 392 393 311 
3 311 236 392 
3 393 394 229 
3 229 311 393 
3 394 395 230 
3 230 229 394 
3 395 396 231 
3 231 230 395 
3 396 397 232 
3 232 231 396 
3 397 398 310 
3 310 232 397 
3 398 399 226 
3 226 310 398 
3 399 400 227 
3 227 226 399 
3 400 401 268 
3 268 227 400 
3 401 402 269 
3 269 268 401 
3 402 403 270 
3 270 269 402 
3 403 404 282 
3 282 270 403 
3 404 405 280 
3 280 282 404 
3 405 406 198 
3 198 280 405 
3 406 407 199 
3 199 198 406 
3 407 408 278 
3 278 199 407 
3 408 409 276 
3 276 278 408 
3 409 410 205 
3 205 276 409 
3 410 411 206 
3 206 205 410 
3 411 412 289 
3 289 206 411 
3 412 413 287 
3 287 289 412 
3 413 414 284 
3 284 287 413 
3 414 415 285 
3 285 284 414 
3 415 416 286 
3 286 285 415 
3 416 417 288 
3 288 286 416 
3 417 418 207 
3 207 288 417 
3 418 419 208 
3 208 207 418 
3 419 420 283 
3 283 208 419 
3 420 421 308 
3 308 283 420 
3 421 422 309 
3 309 308 421 
3 422 423 293 
3 293 309 422 
3 423 424 291 
3 291 293 423 
3 424 425 212 
3 212 291 424 
3 425 426 209 
3 209 212 425 
3 426 427 210 
3 210 209 426 
3 427 428 211 
3 211 210 427 
3 428 429 290 
3 290 211 428 
3 429 430 292 
3 292 290 429 
3 430 431 306 
3 306 292 430 
3 431 432 307 
3 307 306 431 
3 432 433 323 
3 323 307 432 
3 433 434 296 
3 296 323 433 
3 434 435 297 
3 297 296 434 
3 435 436 299 
3 299 297 435 
3 436 437 213 
3 213 299 436 
3 438 214 213 
3 213 437 438 
3 438 439 215 
3 215 214 438 
3 440 216 215 
3 215 439 440 
3 440 441 298 
3 298 216 440 
3 441 442 294 
3 294 298 441 
3 442 443 295 
3 295 294 442 
3 443 444 301 
3 301 295 443 
3 444 445 302 
3 302 301 444 
3 445 446 217 
3 217 302 445 
3 447 218 217 
3 217 446 447 
3 447 448 219 
3 219 218 447 
3 449 220 219 
3 219 448 449 
3 449 450 303 
3 303 220 449 
3 450 451 300 
3 300 303 450 
3 451 452 305 
3 305 300 451 
3 452 453 221 
3 221 305 452 
3 453 454 222 
3 222 221 453 
3 454 455 223 
3 223 222 454 
3 455 456 224 
3 224 223 455 
3 456 457 304 
3 304 224 456 
3 457 458 332 
3 332 304 457 
3 458 459 333 
3 333 332 458 
3 459 460 331 
3 331 333 459 
3 460 461 330 
3 330 331 460 
3 461 462 329 
3 329 330 461 
3 462 463 328 
3 328 329 462 
3 463 464 327 
3 327 328 463 
3 464 465 325 
3 325 327 464 
3 465 466 326 
3 326 325 465 
3 466 467 324 
3 324 326 466 
3 467 468 322 
3 322 324 467 
3 468 469 321 
3 321 322 468 
3 469 470 277 
3 277 321 469 
3 470 471 195 
3 195 277 470 
3 471 472 196 
3 196 195 471 
3 472 473 275 
3 275 196 472 
3 473 474 272 
3 272 275 473 
3 475 334 274 
3 274 273 475 
3 108 109 80 
3 80 79 108 
3 112 45 82 
3 82 111 112 
3 57 51 62 
3 62 58 57 
3 58 62 176 
3 176 177 58 
3 45 44 79 
3 79 82 45 
