ply
format ascii 1.0
comment VCGLIB generated
element vertex 404
property float x
property float y
property float z
property float nx
property float ny
property float nz
element face 798
property list uchar int vertex_indices
end_header
-20.0563 -106.1955 322.5164 0.5433646 0.8394232 -0.01112309 
-19.9434 -68.66334 118.6378 -0.3183284 0.9382861 0.1352266 
-61.24527 -159.073 322.5164 -0.1042555 -0.9926477 -0.06149259 
-46.95119 -115.1784 116.6639 0.3176064 -0.9305487 -0.1822236 
-20.00118 -105.7308 118.7524 0.2734078 -0.9558138 -0.1080189 
-20.0563 -143.7062 322.5164 0.8936818 -0.4485526 -0.01155754 
-61.24527 -124.6472 1470.737 0.03281163 0.5884342 0.8078791 
-61.24527 -163.2095 1470.737 -0.6588976 -0.6971359 0.2825875 
-33.61518 -187.9019 1454.295 0.6175172 -0.3248027 0.7163629 
-33.61518 -150.0705 1454.295 0.9425347 0.1996896 0.2678663 
-61.24527 -121.5776 322.5164 -0.8746247 0.4844178 0.01926436 
-46.62401 -78.11933 116.0151 -0.2685555 0.9522111 0.1455059 
-43.27621 -93.50224 1236.728 0.8530426 0.4919857 0.1739783 
-43.2762 -131.2455 1236.728 0.5297533 -0.8326005 -0.1616724 
-84.46517 -78.32684 1236.728 -0.6028257 0.7902864 0.1097662 
-84.46517 -116.1393 1236.728 -0.8000178 -0.5848983 -0.1336616 
-17.76221 -57.64628 723.2189 0.624877 0.7779798 -0.06539232 
-8.511662 -47.41115 1046.061 0.6710709 0.7248233 0.1558687 
-58.95117 -120.7366 723.219 0.4727645 -0.8016075 0.3659495 
-17.76221 -97.81322 723.219 0.8119676 -0.5834504 0.01715223 
-8.511657 -85.08266 1046.061 0.7560888 -0.6534701 -0.03614738 
-49.70062 -40.58559 1046.061 -0.6053339 0.7957859 -0.01719506 
-58.95117 -80.53315 723.2189 -0.5677385 0.8216515 -0.05061552 
-49.70062 -77.78712 1046.061 -0.8032336 -0.5903032 -0.07973646 
-20.0563 -60.18454 643.1557 0.6837686 0.725454 -0.07859369 
-20.0563 -100.9704 643.1557 0.7615981 -0.6459533 0.05208457 
-61.24527 -90.43996 643.1557 -0.6851993 0.7022277 -0.1933343 
-61.24527 -131.3878 643.1557 -0.6582953 -0.7162566 -0.2315681 
-73.62441 -124.5726 312.4363 0.5559863 0.8092858 0.1895673 
-113.5249 -171.3161 297.1776 -0.1594212 -0.964755 -0.2093624 
-68.01285 -118.1272 98.85984 0.1791831 -0.9637976 -0.1974528 
-73.62441 -161.9374 312.4363 0.8693731 -0.4816996 0.1102541 
-329.3809 109.1479 1409.485 -0.4189321 0.7117277 0.5638614 
-329.3809 72.32878 1409.485 -0.9328028 -0.2246989 0.2817612 
-299.4876 87.08646 1424.744 0.8721666 0.3078299 0.3802188 
-113.5249 -134.2473 297.1776 -0.8525317 0.5136364 -0.09678566 
-67.62556 -81.25971 98.09172 -0.15448 0.9638372 0.2171492 
-266.9804 0.6585999 1072.691 0.6586453 0.7494605 -0.06704776 
-306.8809 -28.17501 1057.432 -0.8388398 -0.5439489 -0.02162193 
-266.9804 -36.16085 1072.691 0.7239254 -0.6297354 0.2817185 
-299.4876 50.01432 1424.744 -0.2813609 -0.5755095 0.7678704 
-306.8809 8.644441 1057.432 -0.7634688 0.5932761 -0.2552231 
-196.6448 -85.08142 834.8653 0.7700415 -0.5298479 0.3553835 
-196.6448 -46.96937 834.8653 0.8469369 0.5284596 0.05855187 
-240.4041 -43.54316 834.8653 -0.560558 0.7269041 -0.3967181 
-240.4041 -81.34682 834.8653 -0.6322937 -0.7666662 0.1114795 
-151.9224 -140.2923 623.047 0.7721992 0.6351025 -0.01879766 
-151.9224 -180.9371 623.047 0.610783 -0.7369907 0.289463 
-191.823 -166.007 607.7883 -0.811612 0.5300233 -0.2456853 
-191.823 -206.1202 607.7883 -0.7815925 -0.6211169 -0.05768079 
-130.6001 -132.2301 277.0558 0.6298117 0.7089247 0.3174319 
-130.6001 -169.0508 277.0558 0.7992485 -0.5601611 0.2177646 
-165.9785 -163.9656 245.5677 -0.3510542 -0.8876417 -0.2980824 
-545.3681 244.9176 1231.821 -0.7611728 0.6451584 -0.06623303 
-545.3681 208.0984 1231.821 -0.970545 -0.2399718 0.02135485 
-524.4465 208.0984 1263.309 -0.4383575 -0.5017146 0.745738 
-524.4465 244.9176 1263.309 0.7253055 0.4054687 0.5563517 
-165.9785 -127.1464 245.5677 -0.7750534 0.5984092 -0.2029745 
-88.05701 -77.05565 72.73608 -0.002115548 0.962999 0.2694966 
-88.30379 -113.8748 73.22554 0.008085761 -0.9763724 -0.2159433 
-335.58 -22.40408 879.3652 0.7150982 0.6785736 -0.1678467 
-370.959 -75.14919 847.8771 -0.7385624 -0.6542419 0.1627674 
-335.58 -61.19178 879.3652 0.7431691 -0.3660854 0.5600726 
-370.959 -36.24486 847.8771 -0.5310962 0.5774982 -0.6200264 
-290.6978 -109.7063 749.1116 0.6635252 0.723513 -0.1904291 
-329.2596 -154.6672 725.5939 0.0199131 -0.792039 0.6101456 
-290.6978 -148.3544 749.1116 0.5164245 -0.7334027 0.4420705 
-329.2596 -116.3006 725.5939 -0.3376553 0.8900245 -0.306342 
-283.1605 -141.8521 659.0912 0.8818035 0.4548715 0.1245582 
-283.1605 -180.4036 659.0912 0.5465775 -0.8118194 0.2054321 
-318.5395 -188.3606 627.6032 -0.6069633 -0.7580513 -0.23865 
-318.5395 -150.425 627.6032 -0.3163209 0.8718385 -0.3739501 
-197.222 -121.4781 227.9883 0.5402929 0.6290726 0.5588841 
-226.3297 -144.7951 184.4818 -0.337456 -0.8040898 -0.4894518 
-106.8318 -104.5342 43.04556 -0.06318128 -0.9746567 -0.2145983 
-197.222 -158.2973 227.9883 0.7688488 -0.5712926 0.2872216 
-741.0757 72.10437 1001.613 -0.9308963 -0.2908392 0.2210083 
-721.9567 95.21891 1023.418 -0.2199983 -0.4686104 0.8555729 
-741.0757 94.10616 1001.613 -0.826839 0.5602515 -0.04955383 
-226.3297 -107.9759 184.4818 -0.7157161 0.6287813 -0.3039484 
-106.5827 -67.67725 42.77114 0.04377232 0.9626662 0.267129 
-596.3259 -96.02317 739.3093 0.4957519 0.8619949 -0.1058057 
-721.9567 117.2209 1023.418 0.6282154 0.521522 0.5773735 
-625.4336 -148.5704 695.8027 -0.6999846 -0.7073559 -0.09833232 
-596.3259 -134.2708 739.3093 0.5319095 -0.5564728 0.638287 
-625.4336 -110.9463 695.8027 -0.6317281 0.4886893 -0.6017496 
-392.5526 -183.834 534.7471 0.3332677 0.8862777 0.3216279 
-392.5526 -221.0759 534.747 -0.5270025 -0.843911 0.1004127 
-425.8044 -177.7248 497.42 -0.4159286 0.6914869 -0.5906347 
-425.8044 -211.6557 497.42 -0.6435092 -0.6612071 -0.3856177 
-324.7511 -198.7374 454.5806 0.6319813 0.7132067 0.3032093 
-324.7511 -235.5565 454.5806 0.4106055 -0.9104483 0.0498728 
-353.8588 -186.1061 411.0741 -0.4532703 0.8597792 -0.2352145 
-353.8588 -222.9253 411.0741 -0.6444259 -0.6221306 -0.4445997 
-221.5651 -87.79891 131.1112 0.4588459 0.5973045 0.6577901 
-240.7912 -107.0625 76.81631 -0.3163909 -0.7823476 -0.5364971 
-222.0003 -124.7917 131.535 0.5575141 -0.6124395 0.5604426 
-836.7405 17.70272 643.9037 -0.7197538 0.4606938 0.5193416 
-837.0287 -2.646097 644.1845 -0.9382336 -0.3357184 0.08373141 
-812.6429 17.80136 654.1013 0.3978361 0.7975869 0.4534111 
-240.356 -70.10359 76.39243 -0.4953457 0.6640652 -0.5600446 
-121.4635 -57.67225 0 -0.1887883 0.9582448 -0.2147694 
-121.9211 -94.54501 0.01883984 -0.3373918 -0.6304618 -0.6990599 
-698.0232 -95.44624 482.4911 0.2223464 -0.7577252 0.6135265 
-698.1027 -58.50773 482.4911 0.6609017 0.6039068 0.4455396 
-812.9316 -9.114299 654.3821 0.03788053 -0.4702039 0.8817446 
-738.8398 -82.83785 452.1799 -0.6572794 -0.627867 -0.4168535 
-738.9195 -45.91969 452.1799 -0.4053622 0.7355363 -0.5428331 
-464.694 -149.2019 343.6986 0.3480205 -0.8070535 0.4770183 
-464.2582 -112.3507 343.2746 0.5412413 0.5835558 0.6054095 
-543.6985 -96.44422 399.2083 0.546519 0.3802502 0.7461412 
-489.0637 -130.1615 288.387 -0.3150117 -0.6283289 -0.711316 
-544.1338 -133.2724 399.632 0.04642023 -0.9188917 0.3917693 
-488.6285 -93.30151 287.9633 0.1116928 0.9706172 -0.2131362 
-562.4895 -81.23815 344.4894 0.05757404 0.9977912 0.03313722 
56.32552 -76.02678 301.6683 0.6845915 0.6760513 -0.2725604 
10.26355 -57.57867 96.09446 -0.2222109 0.9663553 0.1295367 
17.80136 -128.5576 323.4255 -0.3286799 -0.9397953 0.09356471 
10.26278 -94.46484 96.09598 0.2423028 -0.9701117 -0.01313767 
56.32552 -113.1197 301.6683 0.7708954 -0.6361907 -0.03133414 
300.7715 -198.3371 1380.038 -0.3817901 0.3910716 0.8374362 
300.7715 -235.1562 1380.038 -0.2873943 -0.926059 0.2445797 
328.4611 -229.917 1375.611 0.6819667 -0.4506005 0.5760909 
328.4611 -193.0975 1375.611 0.8636554 0.3956563 0.3123386 
17.80136 -91.12596 323.4256 -0.8623905 0.4855014 0.1434263 
268.1858 -121.2225 1230.444 0.5511082 0.8052893 0.2186068 
232.9036 -163.8039 1230.444 -0.8206524 -0.5675714 0.06627567 
268.1858 -159.0986 1230.444 0.584314 -0.625351 -0.517217 
232.9036 -125.764 1230.444 -0.755894 0.435733 0.4886319 
143.9255 -8.342503 601.5656 0.8775172 -0.3834079 -0.2880314 
143.9255 29.81484 601.5656 0.2734099 0.9425716 -0.1918482 
193.7809 8.691143 968.0558 0.8053823 0.5926676 0.01022926 
193.7809 -31.09492 968.0558 0.7709115 -0.5706389 -0.2829606 
155.2561 -49.02888 989.8132 -0.7721108 -0.6346201 -0.03320071 
101.827 15.33927 622.194 -0.5607367 0.826903 -0.0424942 
155.2561 -9.025227 989.8132 -0.5816377 0.7450583 0.3264746 
101.827 -23.36964 622.194 0.5205231 -0.8297623 0.2013709 
98.06249 -32.097 533.5746 0.8395718 -0.5310273 -0.1145831 
98.06248 5.819014 533.5746 0.3853954 0.7809222 -0.4915596 
57.61275 -55.74759 533.5746 -0.2809178 -0.9301922 0.2362786 
57.61275 -17.1832 533.5746 -0.8114357 0.5771657 -0.09193465 
133.7642 -55.8571 223.3049 0.5803809 0.6435888 -0.4989504 
133.7642 -92.67654 223.3049 0.6658292 -0.7172009 -0.2056558 
30.81937 -89.71449 66.92702 0.1328225 -0.9910305 -0.01472435 
581.3085 -2.365388 1087.18 -0.5184612 0.2001246 0.8313532 
616.1252 2.630109 1091.543 0.5460991 0.7037162 0.4544879 
102.9811 -63.79137 264.161 -0.7675729 0.5522227 0.3253951 
102.9811 -100.7204 264.161 -0.359936 -0.8970685 0.2563481 
532.2833 82.79079 927.7562 0.2190683 0.8171889 0.5331147 
616.1252 -22.82055 1091.543 0.4808773 -0.828366 0.2873446 
581.3085 -27.8072 1087.18 -0.5180048 -0.5533246 0.6523059 
498.6063 32.70882 941.4338 -0.4845485 -0.8740986 -0.03412342 
532.2833 47.13196 927.7562 0.7732437 -0.6280752 -0.08726875 
498.6063 68.48835 941.4338 -0.5122503 0.6019328 0.6125981 
394.8699 97.58943 756.757 0.5206962 0.7456404 -0.4158075 
503.1768 96.67679 878.8791 -0.05130639 0.997929 0.03879894 
467.4384 51.61671 902.7697 -0.6370603 -0.6463482 0.4199859 
394.8699 61.83649 756.757 0.6572996 -0.6608924 -0.3621857 
503.1768 61.96373 878.8791 0.2969168 -0.6221136 -0.7244412 
467.4384 86.58203 902.7697 -0.4546418 0.7348332 0.5033102 
341.9272 92.82123 756.757 -0.6207985 0.7010553 0.3508998 
341.9272 56.78366 756.757 -0.5714498 -0.7087511 0.4136629 
266.0765 38.75681 480.7271 0.3899114 0.787727 -0.4769228 
266.0765 1.937662 480.7271 0.6874218 -0.7226205 -0.07260067 
203.2699 -18.13808 498.6469 -0.5185333 -0.7862838 0.3359779 
235.2934 46.34805 521.5832 -0.5049119 0.8599047 -0.07501918 
203.2699 12.17888 486.4479 -0.6914022 0.6965478 -0.1917922 
171.7495 -50.06851 145.635 0.5312419 0.5938957 -0.6042103 
46.59595 -87.45554 37.85567 0.1055483 -0.994414 -0.0006947865 
171.7495 -86.88796 145.635 0.4824906 -0.819775 -0.3084992 
755.7271 120.3791 843.2653 0.4154251 0.7447858 0.5222225 
755.7271 83.55962 843.2653 -0.2774267 -0.4424552 0.8528 
778.3467 118.8785 807.7985 0.8708119 0.3759513 -0.3167763 
149.1785 -52.97838 183.9161 -0.658989 0.5686401 0.492323 
30.81947 -52.88254 66.92687 -0.1146365 0.9907585 0.07249926 
149.1785 -89.7975 183.9161 -0.3416754 -0.8647519 0.3680519 
565.3813 39.29971 550.3226 0.5743846 -0.7721514 -0.2717806 
565.3813 74.40377 550.3226 0.4793471 0.6125369 -0.62851 
542.761 61.71852 601.7112 -0.4770204 -0.6094759 0.6332383 
778.3467 82.05937 807.7985 0.7384793 -0.6205719 0.2637025 
542.761 95.9449 601.7112 -0.5479647 0.7849324 0.2891641 
339.8405 -43.67267 353.3118 0.6728309 -0.468394 -0.5726305 
339.8405 -6.85352 353.3118 0.3580694 0.6878763 -0.6313577 
317.2203 -27.3576 404.7003 0.1869955 -0.8423579 0.5054362 
317.2203 13.70128 404.7003 -0.2122379 0.9693643 0.1236444 
298.4454 -16.82004 312.7014 0.488823 0.613985 -0.6197376 
262.205 -43.55607 350.7279 -0.6189092 -0.7123907 0.3308337 
298.4454 -53.63924 312.7014 0.5816939 -0.7563572 -0.2992593 
262.2051 -6.736695 350.7279 -0.5284617 0.8477883 -0.0445325 
195.2623 -48.64974 64.20669 0.3323082 0.6871448 -0.6460677 
195.2623 -85.46889 64.20668 0.4434656 -0.5519987 -0.7061415 
57.20793 -85.54738 0.1703596 0.2445892 -0.8172797 -0.5217568 
57.20794 -48.72824 0.1703644 0.05491595 0.9588961 -0.2783928 
181.1409 -86.10854 110.5007 -0.2400473 -0.8849052 0.3991492 
841.013 3.782605 449.1405 0.6599271 0.7083147 0.2505724 
841.013 -25.41081 449.1405 0.006303978 -0.3581397 0.9336467 
851.9166 -15.92831 403.183 0.7021388 0.3130839 -0.6395152 
181.1409 -49.2894 110.5007 -0.4503991 0.5911679 0.6690749 
46.59597 -50.63636 37.85567 -0.07205568 0.9964008 0.04464804 
657.4356 -32.48492 295.2312 0.1258764 0.7448735 -0.6552242 
657.4356 -69.30406 295.2312 0.2516744 -0.6969947 -0.6714599 
851.9166 -45.12149 403.183 0.7701312 -0.6293625 0.1039277 
643.6843 -10.13996 353.1939 -0.292875 0.6362675 0.7137141 
643.6843 -46.9591 353.1939 -0.118223 -0.5684883 0.8141526 
576.6653 -72.42376 294.1869 0.2475294 -0.8151354 -0.5237209 
576.6653 -35.60462 294.1869 0.1465457 0.5990052 -0.7872213 
561.5892 -16.0791 351.3672 0.2319357 0.963466 0.1339372 
561.5892 -52.8982 351.3672 0.3199007 -0.8915935 0.3205067 
385.8818 -44.96141 199.1518 0.3969946 0.5339554 -0.7465166 
385.8818 -81.78055 199.1518 0.2128701 -0.94173 -0.2604436 
372.1299 -33.40746 257.1145 -0.3556747 0.7453418 0.5638804 
372.1299 -70.2266 257.1145 -0.4366733 -0.5072434 0.7429809 
-92.7008 -52.9482 777.5215 0.5795921 0.8120332 0.06837585 
-92.70082 -92.13025 777.5215 0.8590035 -0.3863969 0.3358729 
-130.9316 -124.172 745.4936 -0.2440311 -0.9624118 0.1192153 
-194.2076 17.17487 1299.809 -0.4649586 0.6745041 0.5734612 
-194.2076 -12.89703 1299.809 -0.9177778 -0.2926356 0.2684183 
-168.1088 6.925984 1312.307 0.8058705 0.38589 0.4490677 
-130.9316 -84.17712 745.4936 -0.789158 0.4716168 -0.3934556 
-145.1376 -45.72771 1086.146 0.6495662 -0.7241871 0.2315532 
-145.1376 -8.814724 1086.146 0.7819901 0.6172105 0.0868486 
-168.1088 -23.78905 1312.307 -0.1697503 -0.6654229 0.7269093 
-177.1126 -4.561126 1070.833 -0.6619058 0.7227079 -0.1989319 
-177.1126 -40.49104 1070.833 -0.8022152 -0.5962176 -0.03123372 
-107.4379 -32.15607 947.8815 0.7111352 0.7029048 -0.0145489 
-146.6584 -77.2685 929.0992 -0.7255452 -0.6854163 0.06155214 
-107.4379 -69.75317 947.8815 0.7700203 -0.5839139 0.2571253 
-146.6584 -39.48131 929.0992 -0.7681474 0.5932629 -0.2408087 
-604.6919 -65.5493 328.0918 -0.1074521 0.6612964 0.7423888 
-562.9252 -118.0758 344.9134 -0.49144 -0.8698937 0.04209128 
-560.665 -103.8555 271.9371 -0.09687974 -0.824012 -0.5582281 
-604.6919 -102.3686 328.0918 -0.4607451 -0.5459604 0.6997437 
-848.4473 -19.32337 275.9844 -0.6416236 0.669587 -0.3741289 
-848.4473 -56.14252 275.9844 -0.4242646 -0.3898315 -0.8173316 
-851.9166 -19.32338 313.2386 -0.5281045 0.3989326 0.7496389 
-560.6649 -67.03638 271.9371 0.3760112 0.5979706 -0.7078466 
-747.3585 -26.85878 334.3224 0.1955928 0.6842726 0.7025059 
-743.8892 -59.88031 273.0497 -0.229853 -0.6791782 -0.6970543 
-747.3585 -63.67793 334.3224 -0.1781344 -0.7301827 0.6596221 
-851.9166 -56.14252 313.2386 -0.7322843 -0.6399174 0.2329496 
-743.8892 -23.06116 273.0497 0.05983706 0.7360853 -0.6742389 
-659.2019 -89.12073 304.9641 -0.1222786 -0.7632099 0.634475 
-659.2019 -52.30127 304.9641 0.06475735 0.670427 0.7391441 
-655.7327 -80.24682 243.6915 -0.1170741 -0.6579074 -0.7439432 
-655.7327 -43.42768 243.6915 0.07865867 0.7647916 -0.6394581 
-376.5503 -112.4718 754.1351 0.541348 0.7907817 0.2856687 
-376.5503 -151.2829 754.1351 0.5571023 -0.4738498 0.6819848 
-605.362 117.092 990.9321 -0.8365018 0.4785528 -0.2669307 
-605.362 80.27285 990.9321 -0.9576356 -0.2782013 0.07441869 
-585.3608 152.7036 1022.818 0.5714833 0.5065836 0.6455849 
-403.0798 -131.1291 707.0975 -0.5782314 0.503114 -0.6422809 
-403.0798 -169.0868 707.0975 -0.3592343 -0.9297529 0.08068655 
-524.3671 57.0554 926.1696 0.7497369 0.6610861 0.02932228 
-524.3671 20.2097 926.1696 0.3222556 -0.4628413 0.8257901 
-585.3608 115.8841 1022.818 -0.2552171 -0.4280154 0.8669873 
-537.1063 19.66253 879.1317 -0.3628162 0.4706986 -0.8042433 
-537.1063 -17.66321 879.1317 -0.7731165 -0.6342171 0.007721877 
-440.245 -47.13128 858.3585 0.8028821 0.5961379 0.0001688637 
-440.245 -86.2603 858.3585 0.3589552 -0.5158817 0.7778286 
-466.7739 -77.90245 811.3207 -0.3918792 0.5207443 -0.7584565 
-466.7739 -116.8975 811.3207 -0.8012137 -0.5983533 0.005480575 
-360.0197 -189.601 595.8472 0.7606649 0.6407157 0.1042704 
-360.0197 -226.4202 595.8472 0.6900496 -0.5835703 0.4281088 
-394.4527 -221.7818 562.1031 -0.5834174 -0.8120284 -0.0152964 
-526.53 -51.48201 799.7957 -0.7367766 0.6715018 -0.07902935 
-506.5761 -40.33097 819.3502 0.5496082 0.4099984 0.7278958 
-394.4527 -184.9623 562.1031 -0.7016657 0.6617877 -0.2640119 
-424.2737 -140.7099 718.4077 0.7852879 0.6176538 0.04274195 
-456.5226 -180.6908 686.804 -0.803694 -0.5950004 -0.007116467 
-424.2737 -176.405 718.4077 0.3860227 -0.6435308 0.6609498 
-506.5761 -62.59789 819.3502 -0.3238547 -0.4066417 0.8542603 
-526.53 -73.64002 799.7957 -0.9534616 -0.2836221 0.1023205 
-456.5226 -145.596 686.804 -0.449208 0.6651536 -0.5964755 
220.6697 60.15206 564.9315 0.5856142 0.8081152 -0.06329228 
220.6697 23.33291 564.9315 0.8892096 -0.4471795 0.09662683 
235.2934 9.528903 521.5832 0.45056 -0.7228886 0.5238584 
301.3679 -153.6068 1181.715 -0.199202 0.3990722 0.8950196 
301.3679 -190.8181 1181.715 -0.8089139 -0.4073001 0.4239869 
328.0479 -139.0512 1174.519 0.8040622 0.3008376 0.5128165 
180.5873 49.61586 579.0877 -0.8769159 0.4478187 -0.1745766 
180.5873 12.44638 579.0877 -0.1692083 -0.9484288 0.268051 
292.321 -1.733353 949.0598 0.3870366 -0.921768 -0.02337904 
292.321 36.77464 949.0598 0.02071055 0.8213538 0.5700431 
328.0479 -176.4562 1174.519 0.7502475 -0.6255658 0.2140007 
252.2386 21.88236 963.2159 -0.8661123 0.3464245 0.3603327 
252.2386 -17.42579 963.2159 -0.4645448 -0.7866544 -0.4066608 
280.9197 22.51769 877.1099 0.423901 -0.7204345 -0.5488918 
280.9197 60.16875 877.1099 0.3887327 0.9173489 0.08577849 
238.5941 53.021 877.1099 -0.7445453 0.5958733 0.3009775 
238.5941 14.73924 877.1099 -0.6475222 -0.7497145 -0.1365401 
258.4257 90.47044 735.1583 0.7960753 0.5865842 -0.1489399 
258.4257 54.51006 735.1583 0.7758444 -0.6210071 -0.1114259 
218.3433 83.38274 749.3144 -0.5741416 0.8089701 0.1262093 
218.3433 46.62432 749.3144 -0.7613966 -0.642491 0.0864907 
348.7314 61.52591 920.7223 0.4667805 0.868615 -0.1662049 
328.775 -13.53938 964.5569 -0.1978717 -0.9618641 -0.18885 
348.7314 23.96398 920.7223 0.6503945 -0.3612827 -0.668178 
497.5884 -120.715 1226.006 -0.008490629 0.3175422 0.9482061 
526.455 -87.27048 1200.848 0.9296406 0.3671932 0.03061976 
328.775 25.17918 964.5569 -0.5277268 0.4234698 0.7363272 
448.444 -86.14528 1107.915 0.6546757 -0.3788719 -0.6541068 
448.444 -47.47403 1107.915 0.5787727 0.811999 0.07536453 
437.3012 -132.2369 1151.778 -0.3882634 -0.9080696 -0.1570388 
526.455 -124.9939 1200.848 0.8892842 -0.4471747 -0.09596022 
505.9985 -148.2832 1218.677 -0.1816555 -0.6965111 0.6941711 
419.5768 -94.15065 1151.778 -0.6847599 0.2402051 0.6880446 
391.8555 14.45164 998.897 0.6073778 0.7847939 0.1232516 
391.8555 -23.84914 998.897 0.6606296 -0.4220734 -0.6208241 
362.9889 -31.9775 1042.76 -0.7497361 0.3070433 0.5861914 
373.1271 -70.75648 1042.76 -0.5323344 -0.8124341 -0.2378464 
582.9435 127.6453 869.6459 -0.1982291 0.8102784 -0.5515018 
582.9435 93.98716 869.6459 0.3896944 -0.3787332 -0.8394638 
773.5665 111.8231 1052.596 0.2420326 0.6944262 0.6776373 
773.5665 73.28523 1052.596 -0.2504748 -0.5058056 0.8254836 
785.2603 78.13846 1028.512 0.8370454 -0.5467709 -0.01991498 
785.2603 116.8146 1028.512 0.9033678 0.3686636 -0.2191203 
571.0867 100.399 909.5762 -0.2764634 0.4604522 0.8435353 
571.0867 65.22263 909.5762 0.2765529 -0.9602781 0.03720878 
704.2957 87.25253 915.9194 0.38557 -0.6285231 -0.6754957 
704.2957 124.0717 915.9194 0.1826565 0.8208902 -0.5410876 
689.4291 74.83218 953.8718 -0.1263222 -0.820924 0.5568901 
689.4291 111.6513 953.8718 -0.3559335 0.6273214 0.692661 
640.5164 93.801 911.3397 0.2879372 -0.5574676 -0.7786669 
640.5164 129.0412 911.3397 0.3351854 0.7996086 -0.4982739 
624.5127 80.4987 956.001 -0.3089279 -0.8100726 0.4983432 
624.5127 116.3343 956.001 -0.2629601 0.573021 0.7762081 
304.1513 16.42068 431.8767 0.5547053 0.8304765 -0.05109701 
304.1513 -20.39849 431.8767 0.8197747 -0.5725471 0.01262361 
478.7451 94.99102 700.8286 0.2277547 0.805858 0.5465536 
473.7829 85.45351 700.8286 -0.4510294 -0.1650077 0.8771232 
498.8903 92.35377 679.1488 0.8973512 0.3754136 -0.2320031 
255.623 -2.522933 433.2025 -0.8603084 0.5036522 0.07876516 
255.8363 -22.27612 433.2025 -0.3674452 -0.8489738 0.379773 
403.2853 31.64796 527.1295 0.6633878 -0.7097193 -0.2370972 
403.2853 48.18414 527.1295 0.4479894 0.6016101 -0.6613402 
373.7425 40.61379 569.9776 -0.4801059 -0.5099622 0.7137485 
498.8903 76.54517 679.1488 0.6313025 -0.6387111 0.4398924 
383.4406 64.45546 563.4385 -0.48943 0.8639254 0.1187067 
329.1194 -1.957142 472.3403 0.6140173 -0.7405599 -0.2730454 
329.1194 23.12285 472.3403 0.4523678 0.6501554 -0.61046 
303.5222 26.86258 511.8708 -0.6173838 0.7210538 0.3145134 
303.5222 10.51787 511.8708 -0.444869 -0.6294778 0.6370631 
570.0294 -19.62909 391.5214 0.6121426 0.5971128 -0.5183992 
570.0294 -56.44824 391.5214 0.6684682 -0.6084102 -0.4277701 
505.9537 -43.26431 403.3803 -0.4043797 -0.7877877 0.4646155 
502.1909 -58.33094 316.2847 -0.4759837 -0.7403951 0.4746101 
808.4296 107.5815 680.8735 0.4567057 0.7362548 0.4993484 
808.4296 82.76664 680.8735 -0.05955624 -0.3377788 0.9393395 
828.3404 73.66553 651.9952 0.7380926 -0.5696976 0.3614748 
828.3404 98.48045 651.9952 0.7858889 0.3623181 -0.5011032 
505.9537 -6.552013 403.3803 -0.7086507 0.6668917 0.2303688 
502.1909 -21.51179 316.2847 -0.2274945 0.9725959 -0.04799448 
727.4815 28.80349 569.481 0.5529894 -0.793572 -0.2538626 
727.4815 65.62295 569.481 0.5000136 0.5827523 -0.6406139 
697.9393 86.71149 612.3291 -0.4752571 0.8182787 0.3233429 
697.9393 50.11452 612.3291 -0.4578804 -0.5792664 0.6743857 
633.5452 17.16289 437.1084 0.4257065 0.5447096 -0.7225411 
633.5452 -19.65622 437.1084 0.6331425 -0.7644256 -0.1215904 
604.0024 40.37149 479.9564 -0.6409038 0.7568073 0.1283944 
604.0024 3.969522 479.9564 -0.4547373 -0.5463885 0.7033305 
65.0875 43.25845 736.1136 0.5066031 0.8600122 0.06109359 
24.05662 -21.2048 730.7314 -0.02673812 -0.9868565 0.1593717 
65.0875 4.911669 736.1136 0.9199249 -0.384223 0.07817265 
38.56041 -174.4067 1320.07 0.2566172 0.5296155 0.8084894 
38.56041 -212.1264 1320.07 -0.9151859 -0.3356918 0.2230377 
65.99961 -225.7626 1301.377 0.6277481 -0.6747429 0.3881423 
65.99961 -188.9435 1301.377 0.9037563 0.1916059 0.3827685 
24.05662 17.81015 730.7314 -0.8971478 0.4102636 -0.1637367 
50.47501 -9.528056 636.103 -0.8415208 0.4876567 -0.2324516 
50.47501 -48.60138 636.103 -0.8694552 -0.4899049 -0.06356798 
81.13954 -67.43165 1068.222 0.1514053 0.8189836 0.553482 
81.13954 -105.8104 1068.222 0.1006068 -0.9794848 -0.1746076 
40.10865 -64.17055 1062.839 -0.8972033 0.41246 0.1578069 
40.10866 -102.1763 1062.839 -0.6796122 -0.6549559 -0.3303938 
84.41935 -34.99765 1012.495 0.4247567 0.8404163 0.3365743 
43.34627 -37.85794 1007.829 -0.7346838 0.6085243 0.2998967 
43.34628 -75.8047 1007.829 -0.6788285 -0.6426266 -0.3552787 
83.46793 44.62072 875.697 0.7871522 0.6108733 0.08500179 
83.46793 6.318412 875.697 0.849996 -0.5107902 -0.1288422 
42.43705 27.91814 870.3147 -0.6832548 0.6969984 0.2176148 
42.43705 -9.881235 870.3147 -0.7589122 -0.6350154 -0.1442492 
140.2834 -69.76835 1070.972 0.7143018 0.6997086 -0.01344781 
140.2834 -108.385 1070.972 0.6868501 -0.4425829 -0.5765045 
84.41935 -73.35429 1012.495 0.4622128 -0.6623639 -0.5896045 
188.1024 -208.0984 1417.313 -0.07560632 0.6401449 0.7645248 
188.1024 -244.9176 1417.313 -0.738855 -0.4466795 0.50455 
216.8928 -244.9176 1404.93 0.6011477 -0.6513029 0.4630617 
216.8928 -208.0984 1404.93 0.8821431 0.3525102 0.3123463 
110.487 -94.37934 1110.725 -0.6817178 0.485049 0.547712 
110.487 -132.6121 1110.725 -0.4969485 -0.8062332 -0.3209832 
196.8378 -211.6699 1225.432 0.6270178 -0.6450432 -0.43677 
196.8378 -174.8507 1225.432 0.7136978 0.6980965 -0.05741839 
160.2729 -183.7429 1253.738 -0.6124213 0.6364484 0.468907 
160.2729 -220.5621 1253.738 -0.7017841 -0.7049069 0.102983 
158.3889 -165.1701 1153.356 0.535305 -0.5865773 -0.6077628 
158.3889 -127.1931 1153.356 0.7925683 0.5941449 0.137213 
120.2481 -139.6599 1189.11 -0.5346745 0.5812754 0.6133857 
120.2481 -177.1946 1189.11 -0.7798613 -0.6073744 -0.1513692 
522.3784 -38.26708 262.1233 0.4011276 0.4761651 -0.7825366 
522.3784 -75.08622 262.1233 0.3744378 -0.6176276 -0.6916158 
-62.87218 -89.51337 0.06187057 0.1624667 -0.9550118 -0.2481067 
0.3744226 -86.50931 0.1023827 0.09388907 -0.9912992 -0.09225497 
0.3824191 -61.04922 0.1022329 -0.2318349 0.9726744 0.01253615 
-62.64979 -64.85532 0.05500603 -0.01310761 0.9856405 0.1683484 
3 0 5 4 
3 4 1 0 
3 2 3 4 
3 4 5 2 
3 6 7 8 
3 8 9 6 
3 10 0 1 
3 1 11 10 
3 10 11 3 
3 3 2 10 
3 9 8 13 
3 13 12 9 
3 7 15 13 
3 13 8 7 
3 6 9 12 
3 12 14 6 
3 6 14 15 
3 15 7 6 
3 20 19 16 
3 16 17 20 
3 23 18 19 
3 19 20 23 
3 21 17 16 
3 16 22 21 
3 23 21 22 
3 22 18 23 
3 5 0 24 
3 24 25 5 
3 2 5 25 
3 25 27 2 
3 0 10 26 
3 26 24 0 
3 10 2 27 
3 27 26 10 
3 28 31 3 
3 3 11 28 
3 29 30 3 
3 3 31 29 
3 32 33 40 
3 40 34 32 
3 35 28 11 
3 11 36 35 
3 35 36 30 
3 30 29 35 
3 39 37 34 
3 34 40 39 
3 38 39 40 
3 40 33 38 
3 37 41 32 
3 32 34 37 
3 41 38 33 
3 33 32 41 
3 39 42 43 
3 43 37 39 
3 39 38 45 
3 45 42 39 
3 37 43 44 
3 44 41 37 
3 38 41 44 
3 44 45 38 
3 31 28 46 
3 46 47 31 
3 29 31 47 
3 47 49 29 
3 28 35 48 
3 48 46 28 
3 35 29 49 
3 49 48 35 
3 50 51 30 
3 30 36 50 
3 52 59 30 
3 30 51 52 
3 53 54 55 
3 55 56 53 
3 57 50 36 
3 36 58 57 
3 57 58 59 
3 59 52 57 
3 62 60 56 
3 56 55 62 
3 61 62 55 
3 55 54 61 
3 60 63 53 
3 53 56 60 
3 63 61 54 
3 54 53 63 
3 62 66 64 
3 64 60 62 
3 61 65 66 
3 66 62 61 
3 63 60 64 
3 64 67 63 
3 61 63 67 
3 67 65 61 
3 51 50 68 
3 68 69 51 
3 52 51 69 
3 69 70 52 
3 50 57 71 
3 71 68 50 
3 57 52 70 
3 70 71 57 
3 72 75 59 
3 59 58 72 
3 73 74 59 
3 59 75 73 
3 78 76 77 
3 77 82 78 
3 79 72 58 
3 58 80 79 
3 79 80 74 
3 74 73 79 
3 84 81 82 
3 82 77 84 
3 83 84 77 
3 77 76 83 
3 81 85 78 
3 78 82 81 
3 85 83 76 
3 76 78 85 
3 84 87 86 
3 86 81 84 
3 84 83 89 
3 89 87 84 
3 81 86 88 
3 88 85 81 
3 83 85 88 
3 88 89 83 
3 75 72 90 
3 90 91 75 
3 73 75 91 
3 91 93 73 
3 72 79 92 
3 92 90 72 
3 79 73 93 
3 93 92 79 
3 94 96 74 
3 74 80 94 
3 95 102 74 
3 74 96 95 
3 97 98 105 
3 105 99 97 
3 100 94 80 
3 80 101 100 
3 100 101 102 
3 102 95 100 
3 105 103 104 
3 104 99 105 
3 105 98 106 
3 106 103 105 
3 99 104 107 
3 107 97 99 
3 98 97 107 
3 107 106 98 
3 108 109 110 
3 110 112 108 
3 111 108 112 
3 112 229 111 
3 109 113 114 
3 114 110 109 
3 96 94 109 
3 109 108 96 
3 95 96 108 
3 108 111 95 
3 94 100 113 
3 113 109 94 
3 100 95 111 
3 111 113 100 
3 115 119 118 
3 118 116 115 
3 117 4 118 
3 118 119 117 
3 120 121 122 
3 122 123 120 
3 124 115 116 
3 116 1 124 
3 124 1 4 
3 4 117 124 
3 123 122 127 
3 127 125 123 
3 121 126 127 
3 127 122 121 
3 120 123 125 
3 125 128 120 
3 120 128 126 
3 126 121 120 
3 129 130 131 
3 131 132 129 
3 136 129 132 
3 132 133 136 
3 130 134 135 
3 135 131 130 
3 134 136 133 
3 133 135 134 
3 129 137 138 
3 138 130 129 
3 136 139 137 
3 137 129 136 
3 134 130 138 
3 138 140 134 
3 141 142 143 
3 143 174 141 
3 147 118 143 
3 143 142 147 
3 144 150 149 
3 149 145 144 
3 146 141 174 
3 174 116 146 
3 146 116 118 
3 118 147 146 
3 145 149 152 
3 152 148 145 
3 149 150 151 
3 151 152 149 
3 145 148 153 
3 153 144 145 
3 144 153 151 
3 151 150 144 
3 158 157 154 
3 154 155 158 
3 156 161 157 
3 157 158 156 
3 159 155 154 
3 154 160 159 
3 156 159 160 
3 160 161 156 
3 191 168 401 
3 163 275 164 
3 198 192 402 
3 162 166 165 
3 167 169 168 
3 168 198 167 
3 175 143 168 
3 168 169 175 
3 170 171 179 
3 179 172 170 
3 173 167 198 
3 198 174 173 
3 173 174 143 
3 143 175 173 
3 176 177 172 
3 172 179 176 
3 178 176 179 
3 179 171 178 
3 177 180 170 
3 170 172 177 
3 180 178 171 
3 171 170 180 
3 181 182 177 
3 177 176 181 
3 183 181 176 
3 176 178 183 
3 182 184 180 
3 180 177 182 
3 184 183 178 
3 178 180 184 
3 181 187 185 
3 185 182 181 
3 183 186 187 
3 187 181 183 
3 184 182 185 
3 185 188 184 
3 189 190 191 
3 191 192 189 
3 193 168 191 
3 191 190 193 
3 194 195 201 
3 201 196 194 
3 197 189 192 
3 192 198 197 
3 197 198 168 
3 168 193 197 
3 200 199 196 
3 196 201 200 
3 203 200 201 
3 201 195 203 
3 199 202 194 
3 194 196 199 
3 202 203 195 
3 195 194 202 
3 200 204 205 
3 205 199 200 
3 200 203 207 
3 207 204 200 
3 199 205 206 
3 206 202 199 
3 203 202 206 
3 206 207 203 
3 190 189 208 
3 208 209 190 
3 193 190 209 
3 209 211 193 
3 189 197 210 
3 210 208 189 
3 197 193 211 
3 211 210 197 
3 212 213 18 
3 18 22 212 
3 214 27 18 
3 18 213 214 
3 215 216 221 
3 221 217 215 
3 218 212 22 
3 22 26 218 
3 218 26 27 
3 27 214 218 
3 219 220 217 
3 217 221 219 
3 223 219 221 
3 221 216 223 
3 220 222 215 
3 215 217 220 
3 222 223 216 
3 216 215 222 
3 226 224 220 
3 220 219 226 
3 225 226 219 
3 219 223 225 
3 224 227 222 
3 222 220 224 
3 227 225 223 
3 223 222 227 
3 213 212 224 
3 224 226 213 
3 214 213 226 
3 226 225 214 
3 212 218 227 
3 227 224 212 
3 218 214 225 
3 225 227 218 
3 228 231 229 
3 229 114 228 
3 230 111 229 
3 229 231 230 
3 232 233 239 
3 239 234 232 
3 235 228 114 
3 114 113 235 
3 235 113 111 
3 111 230 235 
3 238 236 234 
3 234 239 238 
3 237 238 239 
3 239 233 237 
3 236 240 232 
3 232 234 236 
3 240 237 233 
3 233 232 240 
3 241 242 236 
3 236 238 241 
3 243 241 238 
3 238 237 243 
3 242 244 240 
3 240 236 242 
3 244 243 237 
3 237 240 244 
3 231 228 242 
3 242 241 231 
3 230 231 241 
3 241 243 230 
3 228 235 244 
3 244 242 228 
3 235 230 243 
3 243 244 235 
3 245 246 65 
3 65 67 245 
3 251 70 65 
3 65 246 251 
3 247 248 254 
3 254 249 247 
3 250 245 67 
3 67 71 250 
3 250 71 70 
3 70 251 250 
3 253 252 249 
3 249 254 253 
3 256 253 254 
3 254 248 256 
3 252 255 247 
3 247 249 252 
3 255 256 248 
3 248 247 255 
3 258 257 252 
3 252 253 258 
3 260 258 253 
3 253 256 260 
3 257 259 255 
3 255 252 257 
3 259 260 256 
3 256 255 259 
3 246 245 257 
3 257 258 246 
3 251 246 258 
3 258 260 251 
3 245 250 259 
3 259 257 245 
3 250 251 260 
3 260 259 250 
3 91 90 261 
3 261 262 91 
3 91 262 263 
3 263 87 91 
3 264 271 270 
3 270 265 264 
3 90 86 266 
3 266 261 90 
3 87 263 266 
3 266 86 87 
3 269 267 265 
3 265 270 269 
3 268 269 270 
3 270 271 268 
3 267 272 264 
3 264 265 267 
3 272 268 271 
3 271 264 272 
3 262 261 267 
3 267 269 262 
3 263 262 269 
3 269 268 263 
3 261 266 272 
3 272 267 261 
3 266 263 268 
3 268 272 266 
3 273 274 275 
3 275 165 273 
3 280 164 275 
3 275 274 280 
3 276 277 283 
3 283 278 276 
3 279 273 165 
3 165 166 279 
3 279 166 164 
3 164 280 279 
3 281 282 278 
3 278 283 281 
3 285 281 283 
3 283 277 285 
3 282 284 276 
3 276 278 282 
3 284 285 277 
3 277 276 284 
3 281 285 289 
3 289 286 281 
3 282 287 288 
3 288 284 282 
3 284 288 289 
3 289 285 284 
3 274 273 290 
3 290 291 274 
3 280 274 291 
3 291 293 280 
3 273 279 292 
3 292 290 273 
3 279 280 293 
3 293 292 279 
3 294 296 286 
3 286 287 294 
3 295 281 286 
3 286 296 295 
3 297 304 303 
3 303 298 297 
3 299 294 287 
3 287 282 299 
3 299 282 281 
3 281 295 299 
3 300 301 298 
3 298 303 300 
3 302 300 303 
3 303 304 302 
3 301 305 297 
3 297 298 301 
3 305 302 304 
3 304 297 305 
3 307 306 301 
3 301 300 307 
3 309 307 300 
3 300 302 309 
3 306 308 305 
3 305 301 306 
3 308 309 302 
3 302 305 308 
3 296 294 306 
3 306 307 296 
3 295 296 307 
3 307 309 295 
3 294 299 308 
3 308 306 294 
3 299 295 309 
3 309 308 299 
3 310 311 158 
3 158 155 310 
3 317 152 158 
3 158 311 317 
3 312 313 314 
3 314 315 312 
3 316 310 155 
3 155 148 316 
3 316 148 152 
3 152 317 316 
3 318 319 315 
3 315 314 318 
3 320 318 314 
3 314 313 320 
3 319 321 312 
3 312 315 319 
3 321 320 313 
3 313 312 321 
3 322 323 319 
3 319 318 322 
3 324 322 318 
3 318 320 324 
3 323 325 321 
3 321 319 323 
3 325 324 320 
3 320 321 325 
3 311 310 323 
3 323 322 311 
3 317 311 322 
3 322 324 317 
3 310 316 325 
3 325 323 310 
3 316 317 324 
3 324 325 316 
3 326 327 183 
3 183 184 326 
3 332 186 183 
3 183 327 332 
3 328 329 336 
3 336 330 328 
3 331 326 184 
3 184 188 331 
3 331 188 186 
3 186 332 331 
3 333 334 330 
3 330 336 333 
3 335 333 336 
3 336 329 335 
3 334 337 328 
3 328 330 334 
3 337 335 329 
3 329 328 337 
3 338 339 334 
3 334 333 338 
3 341 338 333 
3 333 335 341 
3 339 340 337 
3 337 334 339 
3 340 341 335 
3 335 337 340 
3 327 326 339 
3 339 338 327 
3 332 327 338 
3 338 341 332 
3 326 331 340 
3 340 339 326 
3 331 332 341 
3 341 340 331 
3 342 343 207 
3 207 206 342 
3 344 345 207 
3 207 343 344 
3 346 347 348 
3 348 349 346 
3 350 342 206 
3 206 351 350 
3 350 351 345 
3 345 344 350 
3 352 353 349 
3 349 348 352 
3 355 352 348 
3 348 347 355 
3 353 354 346 
3 346 349 353 
3 354 355 347 
3 347 346 354 
3 357 356 353 
3 353 352 357 
3 359 357 352 
3 352 355 359 
3 356 358 354 
3 354 353 356 
3 358 359 355 
3 355 354 358 
3 343 342 356 
3 356 357 343 
3 344 343 357 
3 357 359 344 
3 342 350 358 
3 358 356 342 
3 350 344 359 
3 359 358 350 
3 360 362 136 
3 136 134 360 
3 361 369 136 
3 136 362 361 
3 363 364 365 
3 365 366 363 
3 367 360 134 
3 134 368 367 
3 367 368 369 
3 369 361 367 
3 371 370 366 
3 366 365 371 
3 373 371 365 
3 365 364 373 
3 370 372 363 
3 363 366 370 
3 372 373 364 
3 364 363 372 
3 371 373 376 
3 376 383 371 
3 370 374 375 
3 375 372 370 
3 372 375 376 
3 376 373 372 
3 362 360 377 
3 377 378 362 
3 361 362 378 
3 378 380 361 
3 360 367 379 
3 379 377 360 
3 367 361 380 
3 380 379 367 
3 381 382 383 
3 383 374 381 
3 389 371 383 
3 383 382 389 
3 384 385 386 
3 386 387 384 
3 388 381 374 
3 374 370 388 
3 388 370 371 
3 371 389 388 
3 390 391 387 
3 387 386 390 
3 393 390 386 
3 386 385 393 
3 391 392 384 
3 384 387 391 
3 392 393 385 
3 385 384 392 
3 394 395 391 
3 391 390 394 
3 397 394 390 
3 390 393 397 
3 395 396 392 
3 392 391 395 
3 396 397 393 
3 393 392 396 
3 382 381 395 
3 395 394 382 
3 389 382 394 
3 394 397 389 
3 381 388 396 
3 396 395 381 
3 388 389 397 
3 397 396 388 
3 103 112 110 
3 110 104 103 
3 229 112 103 
3 103 106 229 
3 104 110 114 
3 114 107 104 
3 114 229 106 
3 106 107 114 
3 93 91 87 
3 87 89 93 
3 86 90 92 
3 92 88 86 
3 92 93 89 
3 89 88 92 
3 66 69 68 
3 68 64 66 
3 70 69 66 
3 66 65 70 
3 64 68 71 
3 71 67 64 
3 19 25 24 
3 24 16 19 
3 18 27 25 
3 25 19 18 
3 24 26 22 
3 22 16 24 
3 378 377 374 
3 374 383 378 
3 380 378 383 
3 383 376 380 
3 374 377 379 
3 379 375 374 
3 375 379 380 
3 380 376 375 
3 20 17 12 
3 12 13 20 
3 15 23 20 
3 20 13 15 
3 17 21 14 
3 14 12 17 
3 14 21 23 
3 23 15 14 
3 42 47 46 
3 46 43 42 
3 45 49 47 
3 47 42 45 
3 46 48 44 
3 44 43 46 
3 48 49 45 
3 45 44 48 
3 137 119 115 
3 115 138 137 
3 139 117 119 
3 119 137 139 
3 115 124 140 
3 140 138 115 
3 124 117 139 
3 139 140 124 
3 139 136 369 
3 134 140 368 
3 140 139 369 
3 369 368 140 
3 163 142 141 
3 141 162 163 
3 164 147 142 
3 142 163 164 
3 141 146 166 
3 166 162 141 
3 146 147 164 
3 164 166 146 
3 291 290 287 
3 287 286 291 
3 293 291 286 
3 286 289 293 
3 287 290 292 
3 292 288 287 
3 288 292 293 
3 293 289 288 
3 132 131 125 
3 125 127 132 
3 133 132 127 
3 127 126 133 
3 125 131 135 
3 135 128 125 
3 128 135 133 
3 133 126 128 
3 151 156 158 
3 158 152 151 
3 155 159 153 
3 153 148 155 
3 153 159 156 
3 156 151 153 
3 157 163 162 
3 162 154 157 
3 161 275 163 
3 163 157 161 
3 162 165 160 
3 160 154 162 
3 165 275 161 
3 161 160 165 
3 187 169 167 
3 167 185 187 
3 186 175 169 
3 169 187 186 
3 167 173 188 
3 188 185 167 
3 173 175 186 
3 186 188 173 
3 399 209 208 
3 208 398 399 
3 345 211 209 
3 209 399 345 
3 208 210 351 
3 351 398 208 
3 210 211 345 
3 345 351 210 
3 204 399 398 
3 398 205 204 
3 345 399 204 
3 204 207 345 
3 205 398 351 
3 351 206 205 
3 4 3 400 
3 400 401 4 
3 11 1 402 
3 402 403 11 
3 3 30 400 
3 36 11 403 
3 30 59 400 
3 58 36 403 
3 59 74 400 
3 80 58 403 
3 74 102 400 
3 101 80 403 
3 118 4 401 
3 1 116 402 
3 143 118 401 
3 116 174 402 
3 168 143 401 
3 174 198 402 
