ply
format ascii 1.0
comment VCGLIB generated
element vertex 604
property float x
property float y
property float z
property float nx
property float ny
property float nz
property float texture_u
property float texture_v
element face 280
property list uchar int vertex_indices
end_header
-2.343252 -3 3 -0.8781921 -1.020908e-06 0.478308 0.704527 0.726566
-2.068404 -3 3.50463 -0.8781921 -1.020908e-06 0.478308 0.705345 0.760948
-2.171271 -2.758494 3.315768 -0.8781921 -1.020908e-06 0.478308 0.690626 0.748144
-2.343252 -3 3 -0.8781917 -1.020907e-06 0.4783088 0.704527 0.726566
-2.171271 -2.758494 3.315768 -0.8781917 -1.020907e-06 0.4783088 0.690626 0.748144
-2.240388 -2.758494 3.188865 -0.8781917 -1.020907e-06 0.4783088 0.690522 0.739705
-2.098704 -3 0.9900119 -0 0.289547 -0.9571638 0.764755 0.286495
-1.087803 -3 0.9900119 -0 0.289547 -0.9571638 0.767722 0.221039
-0.976758 -3.914091 0.7134928 -0 0.289547 -0.9571638 0.821915 0.233638
-2.209746 -3.914091 0.7134928 0 0.289547 -0.9571638 0.815044 0.283276
-2.343252 -1.311342e-07 3 -1 -0 0 0.525107 0.733502
-2.343252 1.799268 3 -1 -0 0 0.409588 0.732986
-2.343252 1.799268 1.5 -1 -0 0 0.411061 0.638936
-2.343252 -7.538877e-08 1.724694 -1 -0 0 0.523655 0.654791
-0.843252 -5.846433e-08 1.337508 -0 0.05408507 -0.9985363 0.463573 0.479905
-0.843252 3 1.5 -0 0.05408507 -0.9985363 0.275665 0.479883
0 3 1.5 -0 0.05408507 -0.9985363 0.275908 0.427257
0 -5.846433e-08 1.337508 0 0.05408507 -0.9985363 0.463406 0.428123
-0.520866 3 4.2 0 0.395351 0.9185302 0.307889 0.941974
0 3 4.2 0 0.395351 0.9185302 0.303695 0.972630
0 5.791911 2.998314 0 0.395351 0.9185302 0.131660 0.926287
-0.520866 5.791911 2.998314 0 0.395351 0.9185302 0.141493 0.897429
-0.520866 3 4.2 0 -0.215174 0.9765757 0.307889 0.941974
-0.843252 -1.546944e-07 3.538995 0 -0.215174 0.9765757 0.487243 0.927918
0 -1.546944e-07 3.538995 0 -0.215174 0.9765757 0.488799 0.972630
0 3 4.2 0 -0.215174 0.9765757 0.303695 0.972630
-2.343252 -3 3 -1 -0 0 0.704527 0.726566
-2.343252 -3 1.5 -1 -0 0 0.702361 0.637050
-0.843252 -3 1.5 0 -0.05408498 -0.9985363 0.645107 0.474575
-0.843252 -5.846433e-08 1.337508 0 -0.05408498 -0.9985363 0.463573 0.479905
0 -5.846433e-08 1.337508 0 -0.05408498 -0.9985363 0.463406 0.428123
0 -3 1.5 0 -0.05408498 -0.9985363 0.644307 0.426186
-0.843252 -3 3 0.8781917 -2.090754e-08 0.4783088 0.696123 0.859674
-0.843252 -1.311342e-07 3 0.8781917 -2.090754e-08 0.4783088 0.522736 0.833340
-1.1181 -0.4029632 3.50463 0.8781917 -2.090754e-08 0.4783088 0.557092 0.808864
-1.1181 -3 3.50463 0.8781917 -2.090754e-08 0.4783088 0.700752 0.823350
0 -3 3 0 -1 -4.371139e-08 0.682208 0.963324
-0.843252 -3 3 0 -1 -4.371139e-08 0.679490 0.909457
-0.843252 -3 1.5 0 -1 -4.371139e-08 0.775311 0.904621
0 -3 1.5 0 -1 -4.371139e-08 0.778029 0.958488
-2.343252 -5.846433e-08 1.337508 -0.07181302 0.08971207 -0.9933754 0.459231 0.575931
-2.343252 1.799268 1.5 -0.07181302 0.08971207 -0.9933754 0.347250 0.572110
-0.843252 3 1.5 -0.07181302 0.08971207 -0.9933754 0.275665 0.479883
-2.343252 -5.846433e-08 1.337508 0 0.05408507 -0.9985363 0.459231 0.575931
-0.843252 3 3 -0.6249271 0.7806831 3.412474e-08 0.289117 0.731101
-0.843252 3 1.5 -0.6249271 0.7806831 3.412474e-08 0.290589 0.637051
-1.108824 2.787414 1.765572 -0.6249271 0.7806831 3.412474e-08 0.311657 0.654036
-1.108824 2.787414 2.734428 -0.6249271 0.7806831 3.412474e-08 0.310706 0.714783
-2.343252 1.799268 3 0 -4.371139e-08 1 0.409588 0.732986
-2.343252 -1.311342e-07 3 0 -4.371139e-08 1 0.525107 0.733502
-0.843252 -1.311342e-07 3 0 -4.371139e-08 1 0.522736 0.833340
-0.843252 3 3 0 -4.371139e-08 1 0.329139 0.827412
-0.843252 -5.846433e-08 1.337508 0.901444 -0.02341298 -0.4322619 0.463573 0.479905
-0.843252 -3 1.5 0.901444 -0.02341298 -0.4322619 0.645107 0.474575
-1.087803 -3 0.9900119 0.901444 -0.02341298 -0.4322619 0.643772 0.510628
-0.843252 -5.846433e-08 1.337508 0.8177882 2.515675e-08 -0.5755193 0.463573 0.479905
-1.087803 -3 0.9900119 0.8177882 2.515675e-08 -0.5755193 0.643772 0.510628
-1.087803 -0.402963 0.990012 0.8177882 2.515675e-08 -0.5755193 0.494675 0.503653
-0.843252 3 3 -0.9597887 0.110984 0.257853 0.306527 0.868615
-0.520866 3 4.2 -0.9597887 0.110984 0.257853 0.307889 0.941974
-0.520866 5.791911 2.998314 -0.9597887 0.110984 0.257853 0.141493 0.897429
-0.843252 3 3 -0.9267871 0.107235 0.359953 0.306527 0.868615
-0.520866 5.791911 2.998314 -0.9267871 0.107235 0.359953 0.141493 0.897429
-0.843252 5.381487 2.290521 -0.9267871 0.107235 0.359953 0.158275 0.849037
-0.520866 3 4.2 -0.9657549 -1.134118e-08 0.259456 0.307889 0.941974
-0.843252 3 3 -0.9657549 -1.134118e-08 0.259456 0.306527 0.868615
-0.843252 -1.311342e-07 3 -0.9657549 -1.134118e-08 0.259456 0.490923 0.885368
-0.520866 3 4.2 -0.9942755 0.1068471 4.670433e-09 0.307889 0.941974
-0.843252 -1.311342e-07 3 -0.9942755 0.1068471 4.670433e-09 0.490923 0.885368
-0.843252 -1.546944e-07 3.538995 -0.9942755 0.1068471 4.670433e-09 0.487243 0.927918
-0.843252 3 1.5 -1 -0 0 0.291587 0.778127
-0.843252 3 3 -1 -0 0 0.306527 0.868615
-0.843252 5.381487 2.290521 -1 -0 0 0.158275 0.849037
-0.843252 4.868457 1.405782 -1 -0 0 0.177933 0.791053
0 3 1.5 0 -0.05036096 -0.9987311 0.275908 0.427257
-0.843252 3 1.5 0 -0.05036096 -0.9987311 0.275665 0.479883
-0.843252 4.868457 1.405782 0 -0.05036096 -0.9987311 0.158910 0.479343
0 4.868457 1.405782 0 -0.05036096 -0.9987311 0.159153 0.426717
0 4.868457 1.405782 0 -0.03790797 -0.9992812 0.159153 0.426717
-0.843252 4.868457 1.405782 0 -0.03790797 -0.9992812 0.158910 0.479343
-0.520353 6.70962 1.335936 0 -0.03790797 -0.9992812 0.044017 0.458661
0 6.70962 1.335936 0 -0.03790797 -0.9992812 0.044167 0.426186
-0.843252 4.868457 1.405782 -0.9808877 0.168323 -0.09760497 0.177933 0.791053
-0.843252 5.381487 2.290521 -0.9808877 0.168323 -0.09760496 0.158275 0.849037
-0.520353 7.136103 2.071425 -0.9808877 0.168323 -0.09760497 0.052358 0.861448
-0.520353 6.70962 1.335936 -0.9808877 0.168323 -0.09760496 0.066629 0.811834
-0.843252 -3 3 0 -0.176833 0.9842409 0.679490 0.909457
0 -3 3 0 -0.176833 0.9842409 0.682208 0.963324
0 -1.546944e-07 3.538995 0 -0.176833 0.9842409 0.488799 0.972630
-0.843252 -1.546944e-07 3.538995 0 -0.176833 0.9842408 0.487243 0.927918
-0.843252 -1.311342e-07 3 -1 0 0 0.490923 0.885368
-0.843252 -3 3 -1 0 0 0.679490 0.909457
-0.843252 -1.546944e-07 3.538995 -1 0 0 0.487243 0.927918
-0.843252 -1.311342e-07 3 0 0.7814291 0.6239941 0.522736 0.833340
-2.343252 -1.311342e-07 3 0 0.7814291 0.6239941 0.525107 0.733502
-2.068404 -0.4029632 3.50463 0 0.7814291 0.6239941 0.561478 0.763182
-1.1181 -0.4029632 3.50463 0 0.7814291 0.6239941 0.557092 0.808864
-2.068404 -0.4029632 3.50463 0 -4.371139e-08 1 0.561478 0.763182
-2.068404 -3 3.50463 0 -4.371139e-08 1 0.705345 0.760948
-1.1181 -3 3.50463 0 -4.371139e-08 1 0.700752 0.823350
-1.1181 -0.4029632 3.50463 0 -4.371139e-08 1 0.557092 0.808864
-1.087803 -3 0.9900119 0.8767264 0.2336811 -0.4204092 0.767722 0.221039
-0.843252 -3 1.5 0.8767264 0.2336811 -0.4204092 0.775787 0.183203
-0.678483 -3.914091 1.335522 0.8767264 0.2336811 -0.4204092 0.829425 0.201339
-0.976758 -3.914091 0.7134928 0.8767264 0.2336811 -0.4204092 0.821915 0.233638
-2.098704 -3 0.9900119 0 4.371139e-08 -1 0.637213 0.575421
-2.098704 -0.402963 0.990012 0 4.371139e-08 -1 0.489513 0.557297
-1.087803 -0.402963 0.990012 0 4.371139e-08 -1 0.494675 0.503653
-1.087803 -3 0.9900119 -0 4.371139e-08 -1 0.643772 0.510628
-2.343252 -5.846433e-08 1.337508 -0 0.6530623 -0.7573043 0.459231 0.575931
-0.843252 -5.846433e-08 1.337508 -0 0.6530622 -0.7573043 0.463573 0.479905
-1.087803 -0.402963 0.990012 -0 0.6530623 -0.7573043 0.494675 0.503653
-2.098704 -0.402963 0.990012 0 0.6530622 -0.7573043 0.489513 0.557297
-2.343252 -3 1.5 -0.8767264 0.2336811 -0.4204092 0.764173 0.322630
-2.098704 -3 0.9900119 -0.8767264 0.2336811 -0.4204092 0.764755 0.286495
-2.209746 -3.914091 0.7134928 -0.8767264 0.2336811 -0.4204092 0.815044 0.283276
-2.508024 -3.914091 1.335522 -0.8767264 0.2336811 -0.4204092 0.817227 0.316012
-2.343252 -3 1.5 -0.8334076 -0.02988996 -0.5518499 0.632308 0.610617
-2.343252 -5.846433e-08 1.337508 -0.8334076 -0.02988996 -0.5518499 0.459231 0.575931
-2.098704 -0.402963 0.990012 -0.8334076 -0.02988996 -0.5518499 0.489513 0.557297
-2.343252 -3 1.5 -0.901691 1.889997e-08 -0.432381 0.632308 0.610617
-2.098704 -0.402963 0.990012 -0.901691 1.889997e-08 -0.432381 0.489513 0.557297
-2.098704 -3 0.9900119 -0.901691 1.889997e-08 -0.432381 0.637213 0.575421
-0.843252 5.381487 2.290521 -0.9299883 0.2089111 0.3024531 0.158275 0.849037
-0.520866 5.791911 2.998314 -0.9299883 0.2089111 0.3024531 0.141493 0.897429
-0.520353 7.136103 2.071425 -0.9299883 0.2089111 0.3024531 0.052358 0.861448
-0.520866 5.791911 2.998314 0 0.5676742 0.8232533 0.141493 0.897429
0 5.791911 2.998314 0 0.5676742 0.8232533 0.131660 0.926287
0 7.136103 2.071425 0 0.5676742 0.8232533 0.040911 0.890369
-0.520353 7.136103 2.071425 0 0.5676742 0.8232533 0.052358 0.861448
0 7.136103 2.071425 0 0.8650815 -0.5016313 0.021992 0.852714
0 6.70962 1.335936 0 0.8650815 -0.5016313 0.036263 0.803099
-0.520353 6.70962 1.335936 0 0.8650815 -0.5016313 0.066629 0.811834
-0.520353 7.136103 2.071425 0 0.8650815 -0.5016313 0.052358 0.861448
-2.068404 -3 3.50463 -0.8530301 0.237661 0.4646041 0.780846 0.460225
-2.343252 -3 3 -0.8530301 0.237661 0.4646041 0.772141 0.420336
-2.508024 -3.914091 3.165066 -0.8530301 0.237661 0.4646041 0.831364 0.414296
-2.172792 -3.914091 3.780561 -0.8530301 0.237661 0.4646041 0.839747 0.451568
-1.1181 -3 3.50463 0 0.288983 0.9573342 0.792951 0.524959
-2.068404 -3 3.50463 0 0.288983 0.9573342 0.780846 0.460225
-2.172792 -3.914091 3.780561 0 0.288983 0.9573342 0.839747 0.451568
-1.013712 -3.914091 3.780561 0 0.288983 0.9573342 0.859323 0.519907
-0.843252 -3 3 0.8530301 0.237661 0.4646041 0.804400 0.087914
-1.1181 -3 3.50463 0.8530301 0.237661 0.4646041 0.817261 0.049455
-1.013712 -3.914091 3.780561 0.8530301 0.237661 0.4646041 0.883528 0.059471
-0.678483 -3.914091 3.165066 0.8530301 0.237661 0.4646041 0.865056 0.101865
-0.843252 -3 1.5 0.9841394 0.177397 7.75427e-09 0.775787 0.183203
-0.843252 -3 3 0.9841393 0.177397 7.754269e-09 0.804400 0.087914
-0.678483 -3.914091 3.165066 0.9841394 0.177397 7.75427e-09 0.865056 0.101865
-0.678483 -3.914091 1.335522 0.9841393 0.177397 7.754269e-09 0.829425 0.201339
-2.343252 -3 3 -0.9841394 0.177397 7.75427e-09 0.772141 0.420336
-2.343252 -3 1.5 -0.9841393 0.177397 7.754269e-09 0.764173 0.322630
-2.508024 -3.914091 1.335522 -0.9841394 0.177397 7.75427e-09 0.817227 0.316012
-2.508024 -3.914091 3.165066 -0.9841393 0.177397 7.754269e-09 0.831364 0.414296
-2.508024 -3.914091 1.335522 0.8301806 -0.3902879 0.3980899 0.817227 0.316012
-2.209746 -3.914091 0.7134928 0.8301806 -0.3902879 0.3980899 0.815044 0.283276
-1.964919 -2.771478 1.323153 0.8301806 -0.3902879 0.3980899 0.888631 0.289705
-2.508024 -3.914091 1.335522 0.830181 -0.390288 0.398089 0.817227 0.316012
-1.964919 -2.771478 1.323153 0.830181 -0.390288 0.398089 0.888631 0.289705
-2.144742 -2.771478 1.698156 0.830181 -0.390288 0.398089 0.892324 0.316952
-0.976758 -3.914091 0.7134928 -0.8301806 -0.3902879 0.3980899 0.821915 0.233638
-0.678483 -3.914091 1.335522 -0.8301806 -0.3902879 0.3980899 0.829425 0.201339
-1.041762 -2.771478 1.698156 -0.8301806 -0.3902879 0.3980899 0.900172 0.216499
-1.221585 -2.771478 1.323153 -0.8301806 -0.3902879 0.3980899 0.890566 0.241001
-2.209746 -3.914091 0.7134928 0 -0.4707459 0.8822689 0.815044 0.283276
-0.976758 -3.914091 0.7134928 0 -0.4707459 0.8822688 0.821915 0.233638
-1.221585 -2.771478 1.323153 0 -0.4707459 0.8822689 0.890566 0.241001
-1.964919 -2.771478 1.323153 0 -0.4707459 0.8822688 0.888631 0.289705
-2.172792 -3.914091 3.780561 0.8063123 -0.3962321 -0.4391591 0.839747 0.451568
-2.508024 -3.914091 3.165066 0.8063123 -0.3962321 -0.4391591 0.831364 0.414296
-2.144742 -2.771478 2.801136 0.8063123 -0.3962321 -0.4391591 0.907201 0.389595
-1.942641 -2.771478 3.1722 0.8063123 -0.3962321 -0.4391591 0.912427 0.418608
-1.013712 -3.914091 3.780561 0 -0.4699662 -0.8826845 0.859323 0.519907
-2.172792 -3.914091 3.780561 0 -0.4699662 -0.8826845 0.839747 0.451568
-1.942641 -2.771478 3.1722 0 -0.4699662 -0.8826845 0.912427 0.418608
-1.243863 -2.771478 3.1722 0 -0.4699662 -0.8826845 0.938288 0.463269
-0.678483 -3.914091 3.165066 -0.8063123 -0.3962321 -0.4391591 0.865056 0.101865
-1.013712 -3.914091 3.780561 -0.8063123 -0.3962321 -0.4391591 0.883528 0.059471
-1.243863 -2.771478 3.1722 -0.8063123 -0.3962321 -0.4391591 0.945736 0.124401
-1.041762 -2.771478 2.801136 -0.8063123 -0.3962321 -0.4391591 0.931572 0.150260
-2.508024 -3.914091 3.165066 0.9529928 -0.302993 -1.324424e-08 0.831364 0.414296
-2.508024 -3.914091 1.335522 0.9529927 -0.302993 -1.324424e-08 0.817227 0.316012
-2.144742 -2.771478 1.698156 0.9529928 -0.302993 -1.324424e-08 0.892324 0.316952
-2.144742 -2.771478 2.801136 0.9529927 -0.302993 -1.324424e-08 0.907201 0.389595
-0.678483 -3.914091 1.335522 -0.9529928 -0.302993 -1.324424e-08 0.829425 0.201339
-0.678483 -3.914091 3.165066 -0.9529927 -0.302993 -1.324424e-08 0.865056 0.101865
-1.041762 -2.771478 2.801136 -0.9529928 -0.302993 -1.324424e-08 0.931572 0.150260
-1.041762 -2.771478 1.698156 -0.9529927 -0.302993 -1.324424e-08 0.900172 0.216499
-1.041762 -2.771478 1.698156 0 -1 -4.371139e-08 0.114085 0.554447
-1.041762 -2.771478 2.801136 0 -1 -4.371139e-08 0.114085 0.621392
-1.243863 -2.771478 3.1722 0 -1 -4.371139e-08 0.101819 0.643914
-1.942641 -2.771478 3.1722 0 -1 -4.371139e-08 0.059407 0.643914
-2.144742 -2.771478 2.801136 0 -1 -4.371139e-08 0.047140 0.621392
-2.144742 -2.771478 1.698156 0 -1 -4.371139e-08 0.047140 0.554447
-1.964919 -2.771478 1.323153 0 -1 -4.371139e-08 0.058055 0.531686
-1.221585 -2.771478 1.323153 0 -1 -4.371139e-08 0.103171 0.531686
-4.792785 0.4904369 1.102584 0.111144 0.08065008 -0.9905264 0.458936 0.179152
-4.792785 -0.896181 0.9896848 0.111144 0.08065008 -0.9905264 0.543628 0.179389
-7.242318 -1.792365 0.6418589 0.111144 0.08065008 -0.9905264 0.598682 0.328076
-4.792785 0.4904369 1.102584 0.126224 0.06434502 -0.9899127 0.458936 0.179152
-7.242318 -1.792365 0.6418589 0.126224 0.06434502 -0.9899127 0.598682 0.328076
-7.242318 -0.8183941 0.7051679 0.126224 0.06434502 -0.9899127 0.539993 0.329785
-4.792785 -0.896181 0.9896848 0.115558 -0.0001799566 -0.9933007 0.543628 0.179389
-3.827139 -3.995385 1.102584 0.115558 -0.0001799566 -0.9933007 0.731642 0.119827
-7.242318 -3.416307 0.7051678 0.115558 -0.0001799566 -0.9933007 0.696831 0.328623
-4.792785 -0.896181 0.9896848 0.1542709 -0.03848894 -0.9872786 0.543628 0.179389
-7.242318 -3.416307 0.7051678 0.1542709 -0.03848894 -0.9872786 0.696831 0.328623
-7.242318 -1.792365 0.6418589 0.1542709 -0.03848894 -0.9872786 0.598682 0.328076
-4.792785 -0.896181 1.258704 -0.2157969 0.1092469 0.9703076 0.195222 0.179691
-4.792785 0.4904369 1.102584 -0.2157969 0.1092469 0.9703076 0.110537 0.178123
-7.242318 -0.8183941 0.7051679 -0.2157969 0.1092469 0.9703076 0.189562 0.027285
-4.792785 -0.896181 1.258704 -0.216934 0.08738993 0.9722667 0.195222 0.179691
-7.242318 -0.8183941 0.7051679 -0.216934 0.08738993 0.9722667 0.189562 0.027285
-7.242318 -1.792365 0.792711 -0.216934 0.08738993 0.9722667 0.248903 0.028081
-3.827139 -3.995385 1.102584 -0.151708 -0.09682103 0.9836719 0.384572 0.235003
-4.792785 -0.896181 1.258704 -0.151708 -0.09682103 0.9836719 0.195222 0.179691
-7.242318 -1.792365 0.792711 -0.151708 -0.09682103 0.9836719 0.248903 0.028081
-3.827139 -3.995385 1.102584 -0.124353 -0.05341207 0.9907994 0.384572 0.235003
-7.242318 -1.792365 0.792711 -0.124353 -0.05341207 0.9907994 0.248903 0.028081
-7.242318 -3.416307 0.7051678 -0.124353 -0.05341207 0.9907994 0.347590 0.026662
-7.242318 -1.792365 0.6418589 -1 -0 0 0.598682 0.328076
-7.242318 -3.416307 0.7051678 -1 -0 0 0.696831 0.328623
-7.242318 -1.792365 0.792711 -1 -0 0 0.598666 0.337179
-7.242318 -0.8183941 0.7051679 -1 -0 0 0.539993 0.329785
-2.343252 -1.311342e-07 3 -0.8781921 -2.090751e-08 0.478308 0.525107 0.733502
-2.343252 -3 3 -0.8781921 -2.090751e-08 0.478308 0.704527 0.726566
-2.240388 -2.758494 3.188865 -0.8781921 -2.090751e-08 0.478308 0.690522 0.739705
-2.343252 -1.311342e-07 3 -0.8228631 0.008215977 0.5681801 0.525107 0.733502
-2.240388 -2.758494 3.188865 -0.8228631 0.008215977 0.5681801 0.690522 0.739705
-2.205828 -0.6192121 3.207978 -0.8228631 0.008215977 0.5681801 0.570229 0.745616
-2.240388 -2.758494 3.188865 0.454101 -0.8559331 -0.247327 0.750409 0.685941
-2.171271 -2.758494 3.315768 0.454101 -0.8559331 -0.247327 0.757682 0.684292
-4.669965 -4.481412 4.690638 0.454101 -0.8559331 -0.247327 0.795441 0.848217
-2.240388 -2.758494 3.188865 0.4540991 -0.8559334 -0.2473302 0.750409 0.685941
-4.669965 -4.481412 4.690638 0.4540991 -0.8559334 -0.2473302 0.795441 0.848217
-4.706448 -4.481412 4.623654 0.4540991 -0.8559334 -0.2473302 0.792477 0.852725
-2.205828 -0.6192121 3.207978 -0.511121 0.01593504 -0.8593611 0.879166 0.595452
-2.240388 -2.758494 3.188865 -0.511121 0.01593504 -0.8593611 0.974813 0.683297
-4.706448 -4.481412 4.623654 -0.511121 0.01593504 -0.8593611 0.936571 0.881942
-2.205828 -0.6192121 3.207978 -0.4926592 3.803862e-08 -0.8702223 0.879166 0.595452
-4.706448 -4.481412 4.623654 -0.4926592 3.803862e-08 -0.8702223 0.936571 0.881942
-4.706448 -3.171195 4.623654 -0.4926592 3.803862e-08 -0.8702223 0.877495 0.828706
-2.068404 -0.4029632 3.50463 -0.8926647 -0.04757201 0.4482039 0.561478 0.763182
-2.343252 -1.311342e-07 3 -0.8926647 -0.04757201 0.4482039 0.525107 0.733502
-2.205828 -0.6192121 3.207978 -0.8926647 -0.04757201 0.4482039 0.570229 0.745616
-2.068404 -3 3.50463 -0.907368 -1.837351e-08 0.420337 0.705345 0.760948
-2.068404 -0.4029632 3.50463 -0.907368 -1.837351e-08 0.420337 0.561478 0.763182
-2.205828 -0.6192121 3.207978 -0.907368 -1.837351e-08 0.420337 0.570229 0.745616
-2.068404 -3 3.50463 -0.8724278 0.01052597 0.4886298 0.705345 0.760948
-2.205828 -0.6192121 3.207978 -0.8724278 0.01052597 0.4886298 0.570229 0.745616
-2.171271 -2.758494 3.315768 -0.8724278 0.01052597 0.4886298 0.690626 0.748144
-2.343252 1.799268 1.5 0.107881 0.08941907 -0.9901344 0.378222 0.028777
-2.343252 -5.846433e-08 1.337508 0.107881 0.08941907 -0.9901344 0.488119 0.029331
-4.792785 -0.896181 0.9896848 0.107881 0.08941907 -0.9901344 0.543628 0.179389
-2.343252 1.799268 1.5 0.1175251 0.08059008 -0.9897945 0.378222 0.028777
-4.792785 -0.896181 0.9896848 0.1175251 0.08059008 -0.9897945 0.543628 0.179389
-4.792785 0.4904369 1.102584 0.1175251 0.08059008 -0.9897945 0.458936 0.179152
-2.343252 -5.846433e-08 1.337508 0.2906019 -0.05175093 -0.9554435 0.488119 0.029331
-2.343252 -3 1.5 0.2906019 -0.05175093 -0.9554435 0.670725 0.026819
-3.827139 -3.995385 1.102584 0.2906019 -0.05175093 -0.9554435 0.731642 0.119827
-2.343252 -5.846433e-08 1.337508 0.138091 0.006947044 -0.9903952 0.488119 0.029331
-3.827139 -3.995385 1.102584 0.138091 0.006947044 -0.9903952 0.731642 0.119827
-4.792785 -0.896181 0.9896848 0.138091 0.006947044 -0.9903952 0.543628 0.179389
-2.343252 -7.538877e-08 1.724694 -0.2215571 0.120839 0.9676313 0.141481 0.331276
-2.343252 1.799268 1.5 -0.2215571 0.120839 0.9676313 0.031456 0.328920
-4.792785 0.4904369 1.102584 -0.2215571 0.120839 0.9676313 0.110537 0.178123
-2.343252 -7.538877e-08 1.724694 -0.224126 0.109037 0.9684412 0.141481 0.331276
-4.792785 0.4904369 1.102584 -0.224126 0.109037 0.9684412 0.110537 0.178123
-4.792785 -0.896181 1.258704 -0.224126 0.109037 0.9684412 0.195222 0.179691
-2.343252 -3 1.5 -0.1602809 -0.07372401 0.9843144 0.324029 0.328138
-2.343252 -7.538877e-08 1.724694 -0.1602809 -0.07372401 0.9843144 0.141481 0.331276
-4.792785 -0.896181 1.258704 -0.1602809 -0.07372401 0.9843144 0.195222 0.179691
-2.343252 -3 1.5 -0.1889321 -0.1080341 0.9760294 0.324029 0.328138
-4.792785 -0.896181 1.258704 -0.1889321 -0.1080341 0.9760294 0.195222 0.179691
-3.827139 -3.995385 1.102584 -0.1889321 -0.1080341 0.9760294 0.384572 0.235003
-1.108824 2.787414 2.734428 -1 -0 0 0.692552 0.440105
-1.108824 2.787414 1.765572 -1 -0 0 0.692552 0.381300
-1.108824 2.219064 1.765572 -1 -0 0 0.727048 0.381300
-1.108824 2.219064 2.734428 -1 0 0 0.727048 0.440105
-2.343252 1.799268 1.5 -0.6249271 0.7806831 3.412474e-08 0.411061 0.638936
-2.077683 2.011854 1.765572 -0.6249271 0.7806831 3.412474e-08 0.389471 0.655254
-2.343252 1.799268 3 -0.6249271 0.7806831 3.412474e-08 0.409588 0.732986
-2.077683 2.011854 2.734428 -0.6249271 0.7806831 3.412474e-08 0.388520 0.716001
-2.343252 1.799268 3 -0.6249271 0.7806831 1.034125e-06 0.409588 0.732986
-1.108824 2.787414 2.734428 -0.6249271 0.7806831 1.034125e-06 0.310706 0.714783
-2.077683 2.011854 2.734428 -0.6249271 0.7806831 1.034125e-06 0.388520 0.716001
-1.108824 2.787414 1.765572 0 -4.371139e-08 1 0.693371 0.597676
-2.077683 2.011854 1.765572 0 -4.371139e-08 1 0.692111 0.547064
-2.077683 1.443504 1.765572 0 -4.371139e-08 1 0.726607 0.547064
-1.108824 2.219064 1.765572 0 -4.371139e-08 1 0.727867 0.597677
-2.077683 2.011854 1.765572 1 0 0 0.692111 0.547064
-2.077683 2.011854 2.734428 1 0 0 0.692111 0.488260
-2.077683 1.443504 2.734428 1 0 0 0.726607 0.488260
-2.077683 1.443504 1.765572 1 0 0 0.726607 0.547064
-2.077683 2.011854 2.734428 -0 4.371139e-08 -1 0.692111 0.488260
-1.108824 2.787414 2.734428 -0 4.371139e-08 -1 0.692552 0.440105
-1.108824 2.219064 2.734428 -0 4.371139e-08 -1 0.727048 0.440105
-2.077683 1.443504 2.734428 -0 4.371139e-08 -1 0.726607 0.488260
-2.077683 1.443504 2.734428 -0.6249271 0.7806831 3.412474e-08 0.124465 0.757251
-1.108824 2.219064 2.734428 -0.6249271 0.7806831 3.412474e-08 0.049140 0.757251
-1.108824 2.219064 1.765572 -0.6249271 0.7806831 3.412474e-08 0.049140 0.698447
-2.077683 1.443504 1.765572 -0.6249271 0.7806831 3.412474e-08 0.124465 0.698447
-2.171271 -2.758494 3.315768 0.4511331 0.05217796 0.8909301 0.757682 0.684292
-2.205828 -0.6192121 3.207978 0.4511331 0.05217796 0.8909301 0.859822 0.589658
-4.706448 -3.171195 4.623654 0.4511331 0.05217796 0.8909301 0.862701 0.839435
-2.171271 -2.758494 3.315768 0.45022 0.05808996 0.8910261 0.757682 0.684292
-4.706448 -3.171195 4.623654 0.45022 0.05808996 0.8910261 0.862701 0.839435
-4.669965 -4.481412 4.690638 0.45022 0.05808996 0.8910261 0.795441 0.848217
-4.706448 -4.481412 4.623654 -0.8781886 -2.09078e-08 0.4783147 0.792477 0.852725
-4.669965 -4.481412 4.690638 -0.8781886 -2.09078e-08 0.4783147 0.795441 0.848217
-4.706448 -3.171195 4.623654 -0.8781886 -2.09078e-08 0.4783147 0.862701 0.839435
2.343252 -3 3 0.8781917 -1.020907e-06 0.4783088 0.704527 0.726566
2.240388 -2.758494 3.188865 0.8781917 -1.020907e-06 0.4783088 0.690522 0.739705
2.171271 -2.758494 3.315768 0.8781917 -1.020907e-06 0.4783088 0.690626 0.748144
2.343252 -3 3 0.8781921 -1.020908e-06 0.478308 0.704527 0.726566
2.171271 -2.758494 3.315768 0.8781921 -1.020908e-06 0.478308 0.690626 0.748144
2.068404 -3 3.50463 0.8781921 -1.020908e-06 0.478308 0.705345 0.760948
2.098704 -3 0.9900119 0 0.289547 -0.9571638 0.764755 0.286495
2.209746 -3.914091 0.7134928 0 0.289547 -0.9571638 0.815044 0.283276
0.976758 -3.914091 0.7134928 0 0.289547 -0.9571638 0.821915 0.233638
1.087803 -3 0.9900119 0 0.289547 -0.9571638 0.767722 0.221039
2.343252 -1.311342e-07 3 1 0 0 0.525107 0.733502
2.343252 -7.538877e-08 1.724694 1 0 0 0.523655 0.654791
2.343252 1.799268 1.5 1 0 0 0.411061 0.638936
2.343252 1.799268 3 1 0 0 0.409588 0.732986
0.843252 -5.846433e-08 1.337508 0 0.05408507 -0.9985363 0.463573 0.479905
0.843252 3 1.5 -0 0.05408507 -0.9985363 0.275665 0.479883
0.520866 3 4.2 0 0.395351 0.9185302 0.307889 0.941974
0.520866 5.791911 2.998314 0 0.395351 0.9185302 0.141493 0.897429
0.520866 3 4.2 0 -0.215174 0.9765757 0.307889 0.941974
0.843252 -1.546944e-07 3.538995 0 -0.215174 0.9765757 0.487243 0.927918
2.343252 -3 3 1 0 0 0.704527 0.726566
2.343252 -3 1.5 1 0 0 0.702361 0.637050
0.843252 -3 1.5 0 -0.05408498 -0.9985363 0.645107 0.474575
0.843252 -5.846433e-08 1.337508 0 -0.05408498 -0.9985363 0.463573 0.479905
0.843252 -3 3 -0.8781917 -2.090754e-08 0.4783088 0.696123 0.859674
1.1181 -3 3.50463 -0.8781917 -2.090754e-08 0.4783088 0.700752 0.823350
1.1181 -0.4029632 3.50463 -0.8781917 -2.090754e-08 0.4783088 0.557092 0.808864
0.843252 -1.311342e-07 3 -0.8781917 -2.090754e-08 0.4783088 0.522736 0.833340
0.843252 -3 1.5 0 -1 -4.371139e-08 0.775311 0.904621
0.843252 -3 3 0 -1 -4.371139e-08 0.679490 0.909457
2.343252 -5.846433e-08 1.337508 0 0.05408507 -0.9985363 0.459231 0.575931
2.343252 -5.846433e-08 1.337508 0.07181302 0.08971207 -0.9933754 0.459231 0.575931
0.843252 3 1.5 0.07181302 0.08971207 -0.9933754 0.275665 0.479883
2.343252 1.799268 1.5 0.07181302 0.08971207 -0.9933754 0.347250 0.572110
0.843252 3 3 0.6249271 0.7806831 3.412474e-08 0.289117 0.731101
1.108824 2.787414 2.734428 0.6249271 0.7806831 3.412474e-08 0.310706 0.714783
1.108824 2.787414 1.765572 0.6249271 0.7806831 3.412474e-08 0.311657 0.654036
0.843252 3 1.5 0.6249271 0.7806831 3.412474e-08 0.290589 0.637051
2.343252 1.799268 3 0 -4.371139e-08 1 0.409588 0.732986
0.843252 3 3 0 -4.371139e-08 1 0.329139 0.827412
0.843252 -1.311342e-07 3 0 -4.371139e-08 1 0.522736 0.833340
2.343252 -1.311342e-07 3 0 -4.371139e-08 1 0.525107 0.733502
0.843252 -5.846433e-08 1.337508 -0.8177882 2.515675e-08 -0.5755193 0.463573 0.479905
1.087803 -0.402963 0.990012 -0.8177882 2.515675e-08 -0.5755193 0.494675 0.503653
1.087803 -3 0.9900119 -0.8177882 2.515675e-08 -0.5755193 0.643772 0.510628
0.843252 -5.846433e-08 1.337508 -0.901444 -0.02341298 -0.4322619 0.463573 0.479905
1.087803 -3 0.9900119 -0.901444 -0.02341298 -0.4322619 0.643772 0.510628
0.843252 -3 1.5 -0.901444 -0.02341298 -0.4322619 0.645107 0.474575
0.843252 3 3 0.9267871 0.107235 0.359953 0.306527 0.868615
0.843252 5.381487 2.290521 0.9267871 0.107235 0.359953 0.158275 0.849037
0.520866 5.791911 2.998314 0.9267871 0.107235 0.359953 0.141493 0.897429
0.843252 3 3 0.9597887 0.110984 0.257853 0.306527 0.868615
0.520866 5.791911 2.998314 0.9597887 0.110984 0.257853 0.141493 0.897429
0.520866 3 4.2 0.9597887 0.110984 0.257853 0.307889 0.941974
0.520866 3 4.2 0.9942755 0.1068471 4.670433e-09 0.307889 0.941974
0.843252 -1.546944e-07 3.538995 0.9942755 0.1068471 4.670433e-09 0.487243 0.927918
0.843252 -1.311342e-07 3 0.9942755 0.1068471 4.670433e-09 0.490923 0.885368
0.520866 3 4.2 0.9657549 -1.134118e-08 0.259456 0.307889 0.941974
0.843252 -1.311342e-07 3 0.9657549 -1.134118e-08 0.259456 0.490923 0.885368
0.843252 3 3 0.9657549 -1.134118e-08 0.259456 0.306527 0.868615
0.843252 3 1.5 1 0 0 0.291587 0.778127
0.843252 4.868457 1.405782 1 0 0 0.177933 0.791053
0.843252 5.381487 2.290521 1 0 0 0.158275 0.849037
0.843252 3 3 1 0 0 0.306527 0.868615
0.843252 4.868457 1.405782 0 -0.05036096 -0.9987311 0.158910 0.479343
0.843252 3 1.5 0 -0.05036096 -0.9987311 0.275665 0.479883
0.520353 6.70962 1.335936 0 -0.03790797 -0.9992812 0.044017 0.458661
0.843252 4.868457 1.405782 0 -0.03790797 -0.9992812 0.158910 0.479343
0.843252 4.868457 1.405782 0.9808877 0.168323 -0.09760497 0.177933 0.791053
0.520353 6.70962 1.335936 0.9808877 0.168323 -0.09760496 0.066629 0.811834
0.520353 7.136103 2.071425 0.9808877 0.168323 -0.09760497 0.052358 0.861448
0.843252 5.381487 2.290521 0.9808877 0.168323 -0.09760496 0.158275 0.849037
0.843252 -3 3 0 -0.176833 0.9842409 0.679490 0.909457
0.843252 -1.546944e-07 3.538995 0 -0.176833 0.9842408 0.487243 0.927918
0.843252 -1.311342e-07 3 1 0 0 0.490923 0.885368
0.843252 -1.546944e-07 3.538995 1 0 0 0.487243 0.927918
0.843252 -3 3 1 0 0 0.679490 0.909457
0.843252 -1.311342e-07 3 0 0.7814291 0.6239941 0.522736 0.833340
1.1181 -0.4029632 3.50463 0 0.7814291 0.6239941 0.557092 0.808864
2.068404 -0.4029632 3.50463 0 0.7814291 0.6239941 0.561478 0.763182
2.343252 -1.311342e-07 3 0 0.7814291 0.6239941 0.525107 0.733502
2.068404 -0.4029632 3.50463 0 -4.371139e-08 1 0.561478 0.763182
1.1181 -0.4029632 3.50463 0 -4.371139e-08 1 0.557092 0.808864
1.1181 -3 3.50463 0 -4.371139e-08 1 0.700752 0.823350
2.068404 -3 3.50463 0 -4.371139e-08 1 0.705345 0.760948
1.087803 -3 0.9900119 -0.8767264 0.2336811 -0.4204092 0.767722 0.221039
0.976758 -3.914091 0.7134928 -0.8767264 0.2336811 -0.4204092 0.821915 0.233638
0.678483 -3.914091 1.335522 -0.8767264 0.2336811 -0.4204092 0.829425 0.201339
0.843252 -3 1.5 -0.8767264 0.2336811 -0.4204092 0.775787 0.183203
2.098704 -3 0.9900119 0 4.371139e-08 -1 0.637213 0.575421
1.087803 -3 0.9900119 0 4.371139e-08 -1 0.643772 0.510628
1.087803 -0.402963 0.990012 0 4.371139e-08 -1 0.494675 0.503653
2.098704 -0.402963 0.990012 0 4.371139e-08 -1 0.489513 0.557297
2.343252 -5.846433e-08 1.337508 0 0.6530623 -0.7573043 0.459231 0.575931
2.098704 -0.402963 0.990012 0 0.6530622 -0.7573043 0.489513 0.557297
1.087803 -0.402963 0.990012 0 0.6530623 -0.7573043 0.494675 0.503653
0.843252 -5.846433e-08 1.337508 0 0.6530622 -0.7573043 0.463573 0.479905
2.343252 -3 1.5 0.8767264 0.2336811 -0.4204092 0.764173 0.322630
2.508024 -3.914091 1.335522 0.8767264 0.2336811 -0.4204092 0.817227 0.316012
2.209746 -3.914091 0.7134928 0.8767264 0.2336811 -0.4204092 0.815044 0.283276
2.098704 -3 0.9900119 0.8767264 0.2336811 -0.4204092 0.764755 0.286495
2.343252 -3 1.5 0.901691 1.889997e-08 -0.432381 0.632308 0.610617
2.098704 -3 0.9900119 0.901691 1.889997e-08 -0.432381 0.637213 0.575421
2.098704 -0.402963 0.990012 0.901691 1.889997e-08 -0.432381 0.489513 0.557297
2.343252 -3 1.5 0.8334076 -0.02988996 -0.5518499 0.632308 0.610617
2.098704 -0.402963 0.990012 0.8334076 -0.02988996 -0.5518499 0.489513 0.557297
2.343252 -5.846433e-08 1.337508 0.8334076 -0.02988996 -0.5518499 0.459231 0.575931
0.843252 5.381487 2.290521 0.9299883 0.2089111 0.3024531 0.158275 0.849037
0.520353 7.136103 2.071425 0.9299883 0.2089111 0.3024531 0.052358 0.861448
0.520866 5.791911 2.998314 0.9299883 0.2089111 0.3024531 0.141493 0.897429
0.520866 5.791911 2.998314 0 0.5676742 0.8232533 0.141493 0.897429
0.520353 7.136103 2.071425 0 0.5676742 0.8232533 0.052358 0.861448
0.520353 7.136103 2.071425 -0 0.8650815 -0.5016313 0.052358 0.861448
0.520353 6.70962 1.335936 -0 0.8650815 -0.5016313 0.066629 0.811834
2.068404 -3 3.50463 0.8530301 0.237661 0.4646041 0.780846 0.460225
2.172792 -3.914091 3.780561 0.8530301 0.237661 0.4646041 0.839747 0.451568
2.508024 -3.914091 3.165066 0.8530301 0.237661 0.4646041 0.831364 0.414296
2.343252 -3 3 0.8530301 0.237661 0.4646041 0.772141 0.420336
1.1181 -3 3.50463 0 0.288983 0.9573342 0.792951 0.524959
1.013712 -3.914091 3.780561 0 0.288983 0.9573342 0.859323 0.519907
2.172792 -3.914091 3.780561 0 0.288983 0.9573342 0.839747 0.451568
2.068404 -3 3.50463 0 0.288983 0.9573342 0.780846 0.460225
0.843252 -3 3 -0.8530301 0.237661 0.4646041 0.804400 0.087914
0.678483 -3.914091 3.165066 -0.8530301 0.237661 0.4646041 0.865056 0.101865
1.013712 -3.914091 3.780561 -0.8530301 0.237661 0.4646041 0.883528 0.059471
1.1181 -3 3.50463 -0.8530301 0.237661 0.4646041 0.817261 0.049455
0.843252 -3 1.5 -0.9841394 0.177397 7.75427e-09 0.775787 0.183203
0.678483 -3.914091 1.335522 -0.9841393 0.177397 7.754269e-09 0.829425 0.201339
0.678483 -3.914091 3.165066 -0.9841394 0.177397 7.75427e-09 0.865056 0.101865
0.843252 -3 3 -0.9841393 0.177397 7.754269e-09 0.804400 0.087914
2.343252 -3 3 0.9841394 0.177397 7.75427e-09 0.772141 0.420336
2.508024 -3.914091 3.165066 0.9841393 0.177397 7.754269e-09 0.831364 0.414296
2.508024 -3.914091 1.335522 0.9841394 0.177397 7.75427e-09 0.817227 0.316012
2.343252 -3 1.5 0.9841393 0.177397 7.754269e-09 0.764173 0.322630
2.508024 -3.914091 1.335522 -0.830181 -0.390288 0.398089 0.817227 0.316012
2.144742 -2.771478 1.698156 -0.830181 -0.390288 0.398089 0.892324 0.316952
1.964919 -2.771478 1.323153 -0.830181 -0.390288 0.398089 0.888631 0.289705
2.508024 -3.914091 1.335522 -0.8301806 -0.3902879 0.3980899 0.817227 0.316012
1.964919 -2.771478 1.323153 -0.8301806 -0.3902879 0.3980899 0.888631 0.289705
2.209746 -3.914091 0.7134928 -0.8301806 -0.3902879 0.3980899 0.815044 0.283276
0.976758 -3.914091 0.7134928 0.8301806 -0.3902879 0.3980899 0.821915 0.233638
1.221585 -2.771478 1.323153 0.8301806 -0.3902879 0.3980899 0.890566 0.241001
1.041762 -2.771478 1.698156 0.8301806 -0.3902879 0.3980899 0.900172 0.216499
0.976758 -3.914091 0.7134928 0.830181 -0.390288 0.398089 0.821915 0.233638
1.041762 -2.771478 1.698156 0.830181 -0.390288 0.398089 0.900172 0.216499
0.678483 -3.914091 1.335522 0.830181 -0.390288 0.398089 0.829425 0.201339
2.209746 -3.914091 0.7134928 0 -0.4707459 0.8822689 0.815044 0.283276
1.964919 -2.771478 1.323153 0 -0.4707459 0.8822688 0.888631 0.289705
1.221585 -2.771478 1.323153 0 -0.4707459 0.8822689 0.890566 0.241001
0.976758 -3.914091 0.7134928 0 -0.4707459 0.8822688 0.821915 0.233638
2.172792 -3.914091 3.780561 -0.8063123 -0.3962321 -0.4391591 0.839747 0.451568
1.942641 -2.771478 3.1722 -0.8063123 -0.3962321 -0.4391591 0.912427 0.418608
2.144742 -2.771478 2.801136 -0.8063123 -0.3962321 -0.4391591 0.907201 0.389595
2.508024 -3.914091 3.165066 -0.8063123 -0.3962321 -0.4391591 0.831364 0.414296
1.013712 -3.914091 3.780561 0 -0.4699662 -0.8826845 0.859323 0.519907
1.243863 -2.771478 3.1722 0 -0.4699662 -0.8826845 0.938288 0.463269
1.942641 -2.771478 3.1722 0 -0.4699662 -0.8826845 0.912427 0.418608
2.172792 -3.914091 3.780561 0 -0.4699662 -0.8826845 0.839747 0.451568
0.678483 -3.914091 3.165066 0.8063123 -0.3962321 -0.4391591 0.865056 0.101865
1.041762 -2.771478 2.801136 0.8063123 -0.3962321 -0.4391591 0.931572 0.150260
1.243863 -2.771478 3.1722 0.8063123 -0.3962321 -0.4391591 0.945736 0.124401
1.013712 -3.914091 3.780561 0.8063123 -0.3962321 -0.4391591 0.883528 0.059471
2.508024 -3.914091 3.165066 -0.9529928 -0.302993 -1.324424e-08 0.831364 0.414296
2.144742 -2.771478 2.801136 -0.9529927 -0.302993 -1.324424e-08 0.907201 0.389595
2.144742 -2.771478 1.698156 -0.9529928 -0.302993 -1.324424e-08 0.892324 0.316952
2.508024 -3.914091 1.335522 -0.9529927 -0.302993 -1.324424e-08 0.817227 0.316012
0.678483 -3.914091 1.335522 0.9529928 -0.302993 -1.324424e-08 0.829425 0.201339
1.041762 -2.771478 1.698156 0.9529927 -0.302993 -1.324424e-08 0.900172 0.216499
1.041762 -2.771478 2.801136 0.9529928 -0.302993 -1.324424e-08 0.931572 0.150260
0.678483 -3.914091 3.165066 0.9529927 -0.302993 -1.324424e-08 0.865056 0.101865
1.243863 -2.771478 3.1722 0 -1 -4.371139e-08 0.101819 0.643914
1.041762 -2.771478 2.801136 0 -1 -4.371139e-08 0.114085 0.621392
1.041762 -2.771478 1.698156 0 -1 -4.371139e-08 0.114085 0.554447
1.221585 -2.771478 1.323153 0 -1 -4.371139e-08 0.103171 0.531686
1.964919 -2.771478 1.323153 0 -1 -4.371139e-08 0.058055 0.531686
2.144742 -2.771478 1.698156 0 -1 -4.371139e-08 0.047140 0.554447
2.144742 -2.771478 2.801136 0 -1 -4.371139e-08 0.047140 0.621392
1.942641 -2.771478 3.1722 0 -1 -4.371139e-08 0.059407 0.643914
4.792785 0.4904369 1.102584 -0.126224 0.06434502 -0.9899127 0.458936 0.179152
7.242318 -0.8183941 0.7051679 -0.126224 0.06434502 -0.9899127 0.539993 0.329785
7.242318 -1.792365 0.6418589 -0.126224 0.06434502 -0.9899127 0.598682 0.328076
4.792785 0.4904369 1.102584 -0.111144 0.08065008 -0.9905264 0.458936 0.179152
7.242318 -1.792365 0.6418589 -0.111144 0.08065008 -0.9905264 0.598682 0.328076
4.792785 -0.896181 0.9896848 -0.111144 0.08065008 -0.9905264 0.543628 0.179389
4.792785 -0.896181 0.9896848 -0.1542709 -0.03848894 -0.9872786 0.543628 0.179389
7.242318 -1.792365 0.6418589 -0.1542709 -0.03848894 -0.9872786 0.598682 0.328076
7.242318 -3.416307 0.7051678 -0.1542709 -0.03848894 -0.9872786 0.696831 0.328623
4.792785 -0.896181 0.9896848 -0.115558 -0.0001799566 -0.9933007 0.543628 0.179389
7.242318 -3.416307 0.7051678 -0.115558 -0.0001799566 -0.9933007 0.696831 0.328623
3.827139 -3.995385 1.102584 -0.115558 -0.0001799566 -0.9933007 0.731642 0.119827
4.792785 -0.896181 1.258704 0.216934 0.08738993 0.9722667 0.195222 0.179691
7.242318 -1.792365 0.792711 0.216934 0.08738993 0.9722667 0.248903 0.028081
7.242318 -0.8183941 0.7051679 0.216934 0.08738993 0.9722667 0.189562 0.027285
4.792785 -0.896181 1.258704 0.2157969 0.1092469 0.9703076 0.195222 0.179691
7.242318 -0.8183941 0.7051679 0.2157969 0.1092469 0.9703076 0.189562 0.027285
4.792785 0.4904369 1.102584 0.2157969 0.1092469 0.9703076 0.110537 0.178123
3.827139 -3.995385 1.102584 0.124353 -0.05341207 0.9907994 0.384572 0.235003
7.242318 -3.416307 0.7051678 0.124353 -0.05341207 0.9907994 0.347590 0.026662
7.242318 -1.792365 0.792711 0.124353 -0.05341207 0.9907994 0.248903 0.028081
3.827139 -3.995385 1.102584 0.151708 -0.09682103 0.9836719 0.384572 0.235003
7.242318 -1.792365 0.792711 0.151708 -0.09682103 0.9836719 0.248903 0.028081
4.792785 -0.896181 1.258704 0.151708 -0.09682103 0.9836719 0.195222 0.179691
7.242318 -1.792365 0.6418589 1 0 0 0.598682 0.328076
7.242318 -0.8183941 0.7051679 1 0 0 0.539993 0.329785
7.242318 -1.792365 0.792711 1 0 0 0.598666 0.337179
7.242318 -3.416307 0.7051678 1 0 0 0.696831 0.328623
2.343252 -1.311342e-07 3 0.8228631 0.008215977 0.5681801 0.525107 0.733502
2.205828 -0.6192121 3.207978 0.8228631 0.008215977 0.5681801 0.570229 0.745616
2.240388 -2.758494 3.188865 0.8228631 0.008215977 0.5681801 0.690522 0.739705
2.343252 -1.311342e-07 3 0.8781921 -2.090751e-08 0.478308 0.525107 0.733502
2.240388 -2.758494 3.188865 0.8781921 -2.090751e-08 0.478308 0.690522 0.739705
2.343252 -3 3 0.8781921 -2.090751e-08 0.478308 0.704527 0.726566
2.240388 -2.758494 3.188865 -0.4540991 -0.8559334 -0.2473302 0.750409 0.685941
4.706448 -4.481412 4.623654 -0.4540991 -0.8559334 -0.2473302 0.792477 0.852725
4.669965 -4.481412 4.690638 -0.4540991 -0.8559334 -0.2473302 0.795441 0.848217
2.240388 -2.758494 3.188865 -0.454101 -0.8559331 -0.247327 0.750409 0.685941
4.669965 -4.481412 4.690638 -0.454101 -0.8559331 -0.247327 0.795441 0.848217
2.171271 -2.758494 3.315768 -0.454101 -0.8559331 -0.247327 0.757682 0.684292
2.205828 -0.6192121 3.207978 0.4926592 3.803862e-08 -0.8702223 0.879166 0.595452
4.706448 -3.171195 4.623654 0.4926592 3.803862e-08 -0.8702223 0.877495 0.828706
4.706448 -4.481412 4.623654 0.4926592 3.803862e-08 -0.8702223 0.936571 0.881942
2.205828 -0.6192121 3.207978 0.511121 0.01593504 -0.8593611 0.879166 0.595452
4.706448 -4.481412 4.623654 0.511121 0.01593504 -0.8593611 0.936571 0.881942
2.240388 -2.758494 3.188865 0.511121 0.01593504 -0.8593611 0.974813 0.683297
2.068404 -0.4029632 3.50463 0.8926647 -0.04757201 0.4482039 0.561478 0.763182
2.205828 -0.6192121 3.207978 0.8926647 -0.04757201 0.4482039 0.570229 0.745616
2.343252 -1.311342e-07 3 0.8926647 -0.04757201 0.4482039 0.525107 0.733502
2.068404 -3 3.50463 0.8724278 0.01052597 0.4886298 0.705345 0.760948
2.171271 -2.758494 3.315768 0.8724278 0.01052597 0.4886298 0.690626 0.748144
2.205828 -0.6192121 3.207978 0.8724278 0.01052597 0.4886298 0.570229 0.745616
2.068404 -3 3.50463 0.907368 -1.837351e-08 0.420337 0.705345 0.760948
2.205828 -0.6192121 3.207978 0.907368 -1.837351e-08 0.420337 0.570229 0.745616
2.068404 -0.4029632 3.50463 0.907368 -1.837351e-08 0.420337 0.561478 0.763182
2.343252 1.799268 1.5 -0.1175251 0.08059008 -0.9897945 0.378222 0.028777
4.792785 0.4904369 1.102584 -0.1175251 0.08059008 -0.9897945 0.458936 0.179152
4.792785 -0.896181 0.9896848 -0.1175251 0.08059008 -0.9897945 0.543628 0.179389
2.343252 1.799268 1.5 -0.107881 0.08941907 -0.9901344 0.378222 0.028777
4.792785 -0.896181 0.9896848 -0.107881 0.08941907 -0.9901344 0.543628 0.179389
2.343252 -5.846433e-08 1.337508 -0.107881 0.08941907 -0.9901344 0.488119 0.029331
2.343252 -5.846433e-08 1.337508 -0.138091 0.006947044 -0.9903952 0.488119 0.029331
4.792785 -0.896181 0.9896848 -0.138091 0.006947044 -0.9903952 0.543628 0.179389
3.827139 -3.995385 1.102584 -0.138091 0.006947044 -0.9903952 0.731642 0.119827
2.343252 -5.846433e-08 1.337508 -0.2906019 -0.05175093 -0.9554435 0.488119 0.029331
3.827139 -3.995385 1.102584 -0.2906019 -0.05175093 -0.9554435 0.731642 0.119827
2.343252 -3 1.5 -0.2906019 -0.05175093 -0.9554435 0.670725 0.026819
2.343252 -7.538877e-08 1.724694 0.224126 0.109037 0.9684412 0.141481 0.331276
4.792785 -0.896181 1.258704 0.224126 0.109037 0.9684412 0.195222 0.179691
4.792785 0.4904369 1.102584 0.224126 0.109037 0.9684412 0.110537 0.178123
2.343252 -7.538877e-08 1.724694 0.2215571 0.120839 0.9676313 0.141481 0.331276
4.792785 0.4904369 1.102584 0.2215571 0.120839 0.9676313 0.110537 0.178123
2.343252 1.799268 1.5 0.2215571 0.120839 0.9676313 0.031456 0.328920
2.343252 -3 1.5 0.1889321 -0.1080341 0.9760294 0.324029 0.328138
3.827139 -3.995385 1.102584 0.1889321 -0.1080341 0.9760294 0.384572 0.235003
4.792785 -0.896181 1.258704 0.1889321 -0.1080341 0.9760294 0.195222 0.179691
2.343252 -3 1.5 0.1602809 -0.07372401 0.9843144 0.324029 0.328138
4.792785 -0.896181 1.258704 0.1602809 -0.07372401 0.9843144 0.195222 0.179691
2.343252 -7.538877e-08 1.724694 0.1602809 -0.07372401 0.9843144 0.141481 0.331276
1.108824 2.787414 2.734428 1 0 0 0.692552 0.440105
1.108824 2.219064 2.734428 1 0 0 0.727048 0.440105
1.108824 2.219064 1.765572 1 0 0 0.727048 0.381300
1.108824 2.787414 1.765572 1 0 0 0.692552 0.381300
2.077683 2.011854 1.765572 0.6249271 0.7806831 3.412474e-08 0.389471 0.655254
2.343252 1.799268 1.5 0.6249271 0.7806831 3.412474e-08 0.411061 0.638936
2.077683 2.011854 2.734428 0.6249271 0.7806831 3.412474e-08 0.388520 0.716001
2.343252 1.799268 3 0.6249271 0.7806831 3.412474e-08 0.409588 0.732986
2.343252 1.799268 3 0.6249271 0.7806831 1.034125e-06 0.409588 0.732986
2.077683 2.011854 2.734428 0.6249271 0.7806831 1.034125e-06 0.388520 0.716001
1.108824 2.787414 2.734428 0.6249271 0.7806831 1.034125e-06 0.310706 0.714783
1.108824 2.787414 1.765572 0 -4.371139e-08 1 0.693371 0.597676
1.108824 2.219064 1.765572 0 -4.371139e-08 1 0.727867 0.597677
2.077683 1.443504 1.765572 0 -4.371139e-08 1 0.726607 0.547064
2.077683 2.011854 1.765572 0 -4.371139e-08 1 0.692111 0.547064
2.077683 2.011854 1.765572 -1 0 0 0.692111 0.547064
2.077683 1.443504 1.765572 -1 0 0 0.726607 0.547064
2.077683 1.443504 2.734428 -1 0 0 0.726607 0.488260
2.077683 2.011854 2.734428 -1 -0 0 0.692111 0.488260
2.077683 2.011854 2.734428 0 4.371139e-08 -1 0.692111 0.488260
2.077683 1.443504 2.734428 0 4.371139e-08 -1 0.726607 0.488260
1.108824 2.219064 2.734428 0 4.371139e-08 -1 0.727048 0.440105
1.108824 2.787414 2.734428 0 4.371139e-08 -1 0.692552 0.440105
2.077683 1.443504 2.734428 0.6249271 0.7806831 3.412474e-08 0.124465 0.757251
2.077683 1.443504 1.765572 0.6249271 0.7806831 3.412474e-08 0.124465 0.698447
1.108824 2.219064 1.765572 0.6249271 0.7806831 3.412474e-08 0.049140 0.698447
1.108824 2.219064 2.734428 0.6249271 0.7806831 3.412474e-08 0.049140 0.757251
2.171271 -2.758494 3.315768 -0.45022 0.05808996 0.8910261 0.757682 0.684292
4.669965 -4.481412 4.690638 -0.45022 0.05808996 0.8910261 0.795441 0.848217
4.706448 -3.171195 4.623654 -0.45022 0.05808996 0.8910261 0.862701 0.839435
2.171271 -2.758494 3.315768 -0.4511331 0.05217796 0.8909301 0.757682 0.684292
4.706448 -3.171195 4.623654 -0.4511331 0.05217796 0.8909301 0.862701 0.839435
2.205828 -0.6192121 3.207978 -0.4511331 0.05217796 0.8909301 0.859822 0.589658
4.706448 -4.481412 4.623654 0.8781886 -2.09078e-08 0.4783147 0.792477 0.852725
4.706448 -3.171195 4.623654 0.8781886 -2.09078e-08 0.4783147 0.862701 0.839435
4.669965 -4.481412 4.690638 0.8781886 -2.09078e-08 0.4783147 0.795441 0.848217
3 0 1 2 
3 3 4 5 
3 6 7 8 
3 6 8 9 
3 10 11 12 
3 10 12 13 
3 14 15 16 
3 14 16 17 
3 18 19 20 
3 18 20 21 
3 22 23 24 
3 22 24 25 
3 26 10 13 
3 26 13 27 
3 28 29 30 
3 28 30 31 
3 32 33 34 
3 32 34 35 
3 36 37 38 
3 36 38 39 
3 40 41 42 
3 43 15 14 
3 44 45 46 
3 44 46 47 
3 48 49 50 
3 48 50 51 
3 52 53 54 
3 55 56 57 
3 58 59 60 
3 61 62 63 
3 64 65 66 
3 67 68 69 
3 70 71 72 
3 70 72 73 
3 74 75 76 
3 74 76 77 
3 78 79 80 
3 78 80 81 
3 82 83 84 
3 82 84 85 
3 86 87 88 
3 86 88 89 
3 90 91 92 
3 93 94 95 
3 93 95 96 
3 97 98 99 
3 97 99 100 
3 101 102 103 
3 101 103 104 
3 105 106 107 
3 105 107 108 
3 109 110 111 
3 109 111 112 
3 113 114 115 
3 113 115 116 
3 117 118 119 
3 120 121 122 
3 123 124 125 
3 126 127 128 
3 126 128 129 
3 130 131 132 
3 130 132 133 
3 134 135 136 
3 134 136 137 
3 138 139 140 
3 138 140 141 
3 142 143 144 
3 142 144 145 
3 146 147 148 
3 146 148 149 
3 150 151 152 
3 150 152 153 
3 154 155 156 
3 157 158 159 
3 160 161 162 
3 160 162 163 
3 164 165 166 
3 164 166 167 
3 168 169 170 
3 168 170 171 
3 172 173 174 
3 172 174 175 
3 176 177 178 
3 176 178 179 
3 180 181 182 
3 180 182 183 
3 184 185 186 
3 184 186 187 
3 188 189 190 
3 190 191 192 
3 192 193 194 
3 194 195 188 
3 188 190 192 
3 192 194 188 
3 196 197 198 
3 199 200 201 
3 202 203 204 
3 205 206 207 
3 208 209 210 
3 211 212 213 
3 214 215 216 
3 217 218 219 
3 220 221 222 
3 220 222 223 
3 224 225 226 
3 227 228 229 
3 230 231 232 
3 233 234 235 
3 236 237 238 
3 239 240 241 
3 242 243 244 
3 245 246 247 
3 248 249 250 
3 251 252 253 
3 254 255 256 
3 257 258 259 
3 260 261 262 
3 263 264 265 
3 266 267 268 
3 269 270 271 
3 272 273 274 
3 275 276 277 
3 275 277 278 
3 45 279 280 
3 45 280 46 
3 279 281 282 
3 279 282 280 
3 281 44 47 
3 283 284 285 
3 286 287 288 
3 286 288 289 
3 290 291 292 
3 290 292 293 
3 294 295 296 
3 294 296 297 
3 298 299 300 
3 298 300 301 
3 302 303 304 
3 305 306 307 
3 308 309 310 
3 311 312 313 
3 314 315 316 
3 317 318 319 
3 317 319 320 
3 321 322 323 
3 321 323 324 
3 325 17 16 
3 325 16 326 
3 327 328 20 
3 327 20 19 
3 329 25 24 
3 329 24 330 
3 331 332 322 
3 331 322 321 
3 333 31 30 
3 333 30 334 
3 335 336 337 
3 335 337 338 
3 36 39 339 
3 36 339 340 
3 341 325 326 
3 342 343 344 
3 345 346 347 
3 345 347 348 
3 349 350 351 
3 349 351 352 
3 353 354 355 
3 356 357 358 
3 359 360 361 
3 362 363 364 
3 365 366 367 
3 368 369 370 
3 371 372 373 
3 371 373 374 
3 74 77 375 
3 74 375 376 
3 78 81 377 
3 78 377 378 
3 379 380 381 
3 379 381 382 
3 383 384 88 
3 383 88 87 
3 385 386 387 
3 388 389 390 
3 388 390 391 
3 392 393 394 
3 392 394 395 
3 396 397 398 
3 396 398 399 
3 400 401 402 
3 400 402 403 
3 404 405 406 
3 404 406 407 
3 408 409 410 
3 408 410 411 
3 412 413 414 
3 415 416 417 
3 418 419 420 
3 421 422 128 
3 421 128 127 
3 130 423 424 
3 130 424 131 
3 425 426 427 
3 425 427 428 
3 429 430 431 
3 429 431 432 
3 433 434 435 
3 433 435 436 
3 437 438 439 
3 437 439 440 
3 441 442 443 
3 441 443 444 
3 445 446 447 
3 448 449 450 
3 451 452 453 
3 454 455 456 
3 457 458 459 
3 457 459 460 
3 461 462 463 
3 461 463 464 
3 465 466 467 
3 465 467 468 
3 469 470 471 
3 469 471 472 
3 473 474 475 
3 473 475 476 
3 477 478 479 
3 477 479 480 
3 481 482 483 
3 483 484 485 
3 485 486 487 
3 487 488 481 
3 481 483 485 
3 485 487 481 
3 489 490 491 
3 492 493 494 
3 495 496 497 
3 498 499 500 
3 501 502 503 
3 504 505 506 
3 507 508 509 
3 510 511 512 
3 513 514 515 
3 513 515 516 
3 517 518 519 
3 520 521 522 
3 523 524 525 
3 526 527 528 
3 529 530 531 
3 532 533 534 
3 535 536 537 
3 538 539 540 
3 541 542 543 
3 544 545 546 
3 547 548 549 
3 550 551 552 
3 553 554 555 
3 556 557 558 
3 559 560 561 
3 562 563 564 
3 565 566 567 
3 568 569 570 
3 568 570 571 
3 348 347 572 
3 348 572 573 
3 573 572 574 
3 573 574 575 
3 576 577 578 
3 575 346 345 
3 579 580 581 
3 579 581 582 
3 583 584 585 
3 583 585 586 
3 587 588 589 
3 587 589 590 
3 591 592 593 
3 591 593 594 
3 595 596 597 
3 598 599 600 
3 601 602 603 
