ply
format ascii 1.0
comment VCGLIB generated
element vertex 162
property float x
property float y
property float z
property float nx
property float ny
property float nz
element face 216
property list uchar int vertex_indices
end_header
0.000482 -0.009461 0.00201 0.953673 -3.37496 -0.942354 
0.000462 -0.009348 0.001813 0.0699862 -1.30004 -0.753517 
0.001875 -0.007908 0.002104 3.27451 -1.65121 -1.27362 
0.001895 -0.008021 0.002301 3.01882 -2.01505 -1.45931 
0.002073 -0.003095 0.003488 -0.294005 0.950503 3.89754 
0.000168 -0.004609 0.002965 -1.93712 0.891326 1.80559 
0.000266 -0.006191 0.002578 0.606085 -1.79675 3.30298 
0.002881 -0.004719 0.003061 2.44993 -1.8295 2.03325 
0.000149 -0.004496 0.002768 -0.056592 1.22458 0.707884 
0.000638 -0.003242 0.003511 -1.97095 1.33142 0.952734 
0.000619 -0.003129 0.003314 -1.10563 1.95834 1.22781 
0.002862 -0.004606 0.002863 0.901876 -0.488556 0.739651 
0.002053 -0.002982 0.00329 -0.169302 0.346418 2.43137 
-0.00188 -0.003393 0.003578 -0.962078 1.55998 0.985763 
-0.001899 -0.00328 0.003381 -0.0149835 0.645813 0.371269 
-0.0025 -0.00501 0.002986 -2.78288 0.162156 0.36082 
-0.002481 -0.005123 0.003184 -4.51073 -0.124205 1.45437 
-0.001115 -0.008134 0.002172 -3.0789 -2.15974 -0.935723 
-0.001096 -0.008247 0.00237 -1.29361 -1.44019 1.48399 
-0.000441 -0.003323 0.003536 2.75139 1.13237 0.384175 
-0.00046 -0.00321 0.003339 2.75139 1.13238 0.384174 
-0.000136 -0.000407 -0.000771 1.97051 -0.949106 -1.21575 
0.000329 -1.2e-005 -0.000771 0.742488 0.693695 0.873805 
0.000304 -0.004554 0.002805 1.11362 -0.458273 -0.588119 
5.3e-005 -0.004767 0.002764 2.45628 -0.287973 -0.381459 
-1.6e-005 -0.004501 0.002831 1.22826 1.35483 1.7081 
-0.000265 8.6e-005 -0.000771 2.08516 0.863994 1.08046 
0.008467 0.002103 0.002557 3.2865 0.489355 -1.13254 
0.008402 0.002066 0.002351 1.19809 0.253878 -0.426569 
0.006777 0.002903 0.002506 0.881124 3.68976 -0.944047 
0.006842 0.00294 0.002711 1.27437 3.56969 -1.04629 
0.001775 0.00219 0.003451 -1.30546 -0.553817 3.61906 
0.003579 0.000984 0.003076 -0.443694 -2.08428 1.55912 
0.005189 0.001345 0.002831 2.06914 -1.06416 1.60764 
0.003354 0.00311 0.003168 0.982617 2.75439 2.29707 
0.003513 0.000947 0.002871 -1.00461 -0.205082 0.360348 
0.002077 0.001104 0.003494 -0.965459 -2.20486 0.704204 
0.002012 0.001067 0.003289 -1.85062 -1.46307 0.850914 
0.003288 0.003073 0.002963 0.196456 0.958154 0.799773 
0.00171 0.002153 0.003246 -0.56633 -0.289069 2.30186 
0.002498 -0.000821 0.003585 -1.12236 -1.17678 0.580108 
0.002433 -0.000859 0.00338 -0.532635 -0.0990361 0.19148 
0.00427 -0.001013 0.003145 0.359219 -2.83823 0.401991 
0.004335 -0.000976 0.00335 1.24894 -5.57856 0.614586 
0.007324 0.000624 0.002608 2.5092 -2.97867 -0.263419 
0.00739 0.000661 0.002813 2.20142 -3.25095 -0.116258 
0.002275 0.000282 0.003531 -1.42662 2.63903 -0.0169675 
0.002209 0.000245 0.003325 -1.42662 2.63903 -0.016969 
6.6e-005 -4.1e-005 -0.000771 0.497586 2.29328 -1.05801 
-0.000388 0.000249 -0.000771 -0.965541 0.831323 0.835889 
0.003544 0.001078 0.002912 0.14326 1.43787 -0.483817 
0.003788 0.000922 0.002891 -0.256887 2.54213 -0.312488 
0.003524 0.00082 0.002934 -1.72001 1.08018 1.58141 
-0.000425 -0.00023 -0.000771 -1.36569 1.93559 1.00722 
0.001496 0.009461 0.002206 0.933125 3.02902 -1.62168 
0.001516 0.009349 0.002008 0.268718 1.1343 -0.615653 
9.7e-005 0.008218 0.002219 -2.94265 2.10302 -1.48875 
7.7e-005 0.00833 0.002417 -2.66928 2.39063 -1.62283 
-0.00128 0.003548 0.003509 -0.0788381 -1.04312 3.87061 
0.000561 0.004657 0.003087 1.65442 -1.06705 1.86767 
0.00088 0.006222 0.002724 1.78291 1.57092 1.47971 
-0.001484 0.005295 0.00308 -2.13859 2.12282 1.86301 
0.000581 0.004545 0.00289 -0.247119 -0.955714 0.518502 
-0.000166 0.00341 0.00359 1.59982 -1.63424 1.09251 
-0.000146 0.003298 0.003393 0.586963 -2.11647 1.26483 
-0.001464 0.005182 0.002882 -0.803988 0.611741 0.665699 
-0.00126 0.003435 0.003311 -0.0052377 -0.406667 2.42072 
0.001762 0.003063 0.003756 0.575513 -1.41618 0.861391 
0.001782 0.002951 0.003559 -0.139646 -0.503345 0.2713 
0.002663 0.004525 0.003218 2.70428 -0.72812 0.68641 
0.002643 0.004637 0.003416 5.54841 -0.95588 1.10291 
0.002399 0.007851 0.002406 3.72471 1.11122 -0.255134 
0.002379 0.007964 0.002604 3.85168 0.737339 -0.0298557 
0.000664 0.003277 0.003658 -2.98336 -0.281558 -0.142442 
0.000684 0.003165 0.00346 -2.98336 -0.281559 -0.142443 
0.000275 0.000519 -0.000771 -1.85566 1.27416 -1.21418 
-0.000172 0.000225 -0.000771 -1.09935 -0.54345 0.8269 
0.000471 0.004631 0.002922 -1.19658 0.649491 -0.577953 
0.000712 0.00479 0.002894 -2.41752 0.705883 -0.445566 
0.000698 0.004517 0.002959 -1.6612 -1.11172 1.59552 
0.00025 1.2e-005 -0.000771 -2.32029 -0.487058 0.959287 
-0.00483 0.006121 0.004065 -2.14577 2.67428 -0.505714 
-0.004802 0.006093 0.003799 -0.847034 0.939943 -0.187914 
-0.004734 0.004431 0.003875 -3.76885 -0.9961 -0.291144 
-0.004762 0.004459 0.004142 -3.87241 -0.588562 -0.344913 
-0.001859 0.000726 0.004437 1.52845 -0.93883 3.25105 
-0.001744 0.002701 0.004075 2.2119 0.612401 1.16757 
-0.002765 0.003833 0.003979 0.101227 2.33029 1.76439 
-0.003314 0.001592 0.004334 -2.62564 -0.471346 2.76621 
-0.001716 0.002673 0.003808 0.703693 -0.782189 0.1538 
-0.001126 0.001439 0.004438 2.47322 0.190919 0.239344 
-0.001098 0.001411 0.004171 2.27103 -0.968287 0.339704 
-0.003286 0.001564 0.004067 -0.840695 -0.292961 0.939996 
-0.001831 0.000698 0.00417 0.789092 -0.3895 2.11847 
0.000227 0.002609 0.004447 1.63556 -0.416779 0.218301 
0.000255 0.002581 0.00418 0.365202 -0.419305 0.0829545 
-0.000455 0.004118 0.00408 2.35261 1.68331 0.0745412 
-0.000484 0.004146 0.004347 4.34234 3.78445 0.066498 
-0.003156 0.005855 0.003883 1.37848 3.6497 -0.236915 
-0.003184 0.005883 0.004149 1.77381 3.50415 -0.178888 
-0.000557 0.001952 0.004441 -1.61988 -2.52341 0.0917203 
-0.000528 0.001924 0.004174 -1.61987 -2.52341 0.091719 
0.00018 0.00046 -0.000771 -2.44423 -0.674694 -0.65742 
0.000153 -2.8e-005 -0.000771 -0.254573 -1.4617 0.729053 
-0.001827 0.002638 0.003873 -1.4915 -0.665543 -0.255677 
-0.001813 0.002902 0.003862 -2.16002 -1.48 -0.0744345 
-0.001611 0.002734 0.003879 0.0296304 -2.26701 1.31204 
0.000554 0.000149 -0.000771 -0.923095 -2.27616 0.910295 
-0.008467 -0.0023 0.00181 -3.42389 -1.02859 -1.79823 
-0.008363 -0.002295 0.00161 -1.22437 -0.464482 -0.645224 
-0.006648 -0.003197 0.001977 -0.800233 -3.75965 -0.508169 
-0.006751 -0.003202 0.002177 -1.22488 -3.63997 -0.724874 
-0.001921 -0.001957 0.003251 0.89065 0.865905 3.77411 
-0.003822 -0.000666 0.002616 0.350273 2.28823 1.33459 
-0.005337 -0.00121 0.002278 -2.44225 0.937608 0.950024 
-0.003319 -0.003174 0.002931 -1.16577 -2.67262 2.61723 
-0.003718 -0.000661 0.002416 1.11258 0.442935 0.586787 
-0.002385 -0.000664 0.003163 0.816075 2.32898 0.482585 
-0.002281 -0.000659 0.002963 1.65946 1.6587 0.904387 
-0.003216 -0.003169 0.002731 -0.247044 -0.930764 0.944649 
-0.001817 -0.001952 0.003051 0.315674 0.467445 2.36872 
-0.003095 0.001635 0.003032 1.21072 1.44009 0.66306 
-0.002991 0.00164 0.002832 0.59204 0.220601 0.31206 
-0.004808 0.001704 0.002434 -0.509469 2.77822 -0.194543 
-0.004912 0.001699 0.002633 -1.60835 5.33801 -0.70038 
-0.007536 -0.00048 0.001811 -2.74951 2.39208 -1.36443 
-0.007639 -0.000485 0.002011 -2.50029 2.75694 -1.22699 
-0.002705 0.000316 0.003103 1.69618 -2.33486 0.819403 
-0.002602 0.000321 0.002903 1.69618 -2.33486 0.819401 
0.000167 0.000112 -0.000771 -0.457315 -2.23738 -1.06118 
0.000655 -0.000208 -0.000771 0.795606 -0.578138 0.965445 
-0.003739 -0.000809 0.002467 -0.176134 -1.27589 -0.490305 
-0.004002 -0.000637 0.002411 0.233245 -2.50113 -0.176308 
-0.00376 -0.000497 0.002466 1.48617 -0.841881 1.85032 
0.000617 0.000372 -0.000771 1.20499 -1.80338 1.27944 
0.006912 -0.0053 0.004068 2.66042 -1.95457 -1.25233 
0.006809 -0.00525 0.00377 1.02325 -0.658231 -0.465748 
0.006248 -0.003448 0.00398 3.26952 1.98477 -0.797051 
0.006351 -0.003498 0.004278 3.45919 1.62155 -0.923528 
0.002107 -0.000333 0.005122 -1.36588 0.318457 3.63475 
0.002494 -0.002506 0.004582 -1.83454 -1.23377 1.46284 
0.003934 -0.003422 0.004307 0.649431 -2.34454 1.45496 
0.003939 -0.000818 0.00482 2.60544 1.04555 2.38921 
0.002391 -0.002456 0.004283 -0.859189 0.556479 0.386608 
0.001519 -0.001349 0.005136 -2.25673 -0.879306 0.62659 
0.001417 -0.001299 0.004837 -2.33888 0.26767 0.84655 
0.003836 -0.000768 0.004522 0.805262 0.469592 0.838565 
0.002004 -0.000283 0.004823 -0.641587 0.0551229 2.30466 
0.000395 -0.003065 0.005178 -1.64095 -0.0483662 0.55794 
0.000292 -0.003015 0.004879 -0.44856 0.301767 0.20523 
0.001514 -0.004473 0.004598 -1.78595 -2.25649 0.236594 
0.001617 -0.004523 0.004896 -3.12636 -4.81377 0.267403 
0.004953 -0.005514 0.004022 -0.374503 -3.851 -0.523157 
0.005056 -0.005565 0.00432 -0.783837 -3.83088 -0.378245 
0.001052 -0.002094 0.005151 0.885805 2.861 0.173287 
0.000949 -0.002044 0.004852 0.885804 2.861 0.173286 
0.00034 -0.000285 -0.000771 2.40023 0.914586 -0.542741 
0.000329 0.000267 -0.000771 0.0390389 1.56513 0.582167 
0.002343 -0.001829 0.004675 1.43118 0.83442 -0.213416 
0.00235 -0.002127 0.004638 1.97713 1.72546 -0.0764843 
0.002119 -0.001969 0.004713 -0.384058 2.37601 1.04842 
-8.7e-005 7e-006 -0.000771 0.584988 2.45618 0.719098 
3 0 1 2 
3 0 2 3 
3 4 5 6 
3 4 6 7 
3 8 5 9 
3 8 9 10 
3 7 11 12 
3 7 12 4 
3 13 14 15 
3 13 15 16 
3 17 18 16 
3 17 16 15 
3 6 0 3 
3 6 3 7 
3 2 11 7 
3 2 7 3 
3 19 5 8 
3 19 8 20 
3 16 6 5 
3 16 5 13 
3 18 0 6 
3 18 6 16 
3 17 1 0 
3 17 0 18 
3 5 4 9 
3 13 5 19 
3 20 14 13 
3 20 13 19 
3 4 12 10 
3 4 10 9 
3 21 22 23 
3 21 23 24 
3 25 23 22 
3 25 22 26 
3 26 21 24 
3 26 24 25 
3 27 28 29 
3 27 29 30 
3 31 32 33 
3 31 33 34 
3 35 32 36 
3 35 36 37 
3 34 38 39 
3 34 39 31 
3 40 41 42 
3 40 42 43 
3 43 42 44 
3 43 44 45 
3 33 27 30 
3 33 30 34 
3 29 38 34 
3 29 34 30 
3 46 32 35 
3 46 35 47 
3 43 33 32 
3 43 32 40 
3 45 27 33 
3 45 33 43 
3 44 28 27 
3 44 27 45 
3 32 31 36 
3 40 32 46 
3 47 41 40 
3 47 40 46 
3 31 39 37 
3 31 37 36 
3 48 49 50 
3 48 50 51 
3 52 50 49 
3 52 49 53 
3 53 48 51 
3 53 51 52 
3 54 55 56 
3 54 56 57 
3 58 59 60 
3 58 60 61 
3 62 59 63 
3 62 63 64 
3 61 65 66 
3 61 66 58 
3 67 68 69 
3 67 69 70 
3 70 69 71 
3 70 71 72 
3 60 54 57 
3 60 57 61 
3 56 65 61 
3 56 61 57 
3 73 59 62 
3 73 62 74 
3 70 60 59 
3 70 59 67 
3 72 54 60 
3 72 60 70 
3 71 55 54 
3 71 54 72 
3 59 58 63 
3 67 59 73 
3 74 68 67 
3 74 67 73 
3 58 66 64 
3 58 64 63 
3 75 76 77 
3 75 77 78 
3 79 77 76 
3 79 76 80 
3 80 75 78 
3 80 78 79 
3 81 82 83 
3 81 83 84 
3 85 86 87 
3 85 87 88 
3 89 86 90 
3 89 90 91 
3 88 92 93 
3 88 93 85 
3 94 95 96 
3 94 96 97 
3 97 96 98 
3 97 98 99 
3 87 81 84 
3 87 84 88 
3 83 92 88 
3 83 88 84 
3 100 86 89 
3 100 89 101 
3 97 87 86 
3 97 86 94 
3 99 81 87 
3 99 87 97 
3 98 82 81 
3 98 81 99 
3 86 85 90 
3 94 86 100 
3 101 95 94 
3 101 94 100 
3 85 93 91 
3 85 91 90 
3 102 103 104 
3 102 104 105 
3 106 104 103 
3 106 103 107 
3 107 102 105 
3 107 105 106 
3 108 109 110 
3 108 110 111 
3 112 113 114 
3 112 114 115 
3 116 113 117 
3 116 117 118 
3 115 119 120 
3 115 120 112 
3 121 122 123 
3 121 123 124 
3 124 123 125 
3 124 125 126 
3 114 108 111 
3 114 111 115 
3 110 119 115 
3 110 115 111 
3 127 113 116 
3 127 116 128 
3 124 114 113 
3 124 113 121 
3 126 108 114 
3 126 114 124 
3 125 109 108 
3 125 108 126 
3 113 112 117 
3 121 113 127 
3 128 122 121 
3 128 121 127 
3 112 120 118 
3 112 118 117 
3 129 130 131 
3 129 131 132 
3 133 131 130 
3 133 130 134 
3 134 129 132 
3 134 132 133 
3 135 136 137 
3 135 137 138 
3 139 140 141 
3 139 141 142 
3 143 140 144 
3 143 144 145 
3 142 146 147 
3 142 147 139 
3 148 149 150 
3 148 150 151 
3 151 150 152 
3 151 152 153 
3 141 135 138 
3 141 138 142 
3 137 146 142 
3 137 142 138 
3 154 140 143 
3 154 143 155 
3 151 141 140 
3 151 140 148 
3 153 135 141 
3 153 141 151 
3 152 136 135 
3 152 135 153 
3 140 139 144 
3 148 140 154 
3 155 149 148 
3 155 148 154 
3 139 147 145 
3 139 145 144 
3 156 157 158 
3 156 158 159 
3 160 158 157 
3 160 157 161 
3 161 156 159 
3 161 159 160 
