ply
format ascii 1.0
comment VCGLIB generated
element vertex 441
property float x
property float y
property float z
property float nx
property float ny
property float nz
element face 806
property list uchar int vertex_indices
end_header
0.299 0.609 5.8605 27143.13 248511.4 -2318.768 
-0.1495 0.257 6.846 -227629.9 101654.3 18736.13 
0.5385 0.9265 13.6495 -230404.2 96654.91 8471.241 
1.2405 1.121 14.4335 19855.9 248838.5 -13607.83 
0.2255 -0.356 7.1125 -164657.8 -186440.8 25053.67 
0.5245 0.251 13.442 -153454.8 -196310.3 20344.91 
0.8995 -0.388 6.259 120222.6 -218968.5 9966.17 
1.162 0.044 13.377 121600.1 -218335.8 6551.589 
0.975 0.3095 5.9725 242444.5 60338.27 -8944.216 
1.6265 0.5755 14.261 244145.9 51970.55 -13852.15 
-0.168 0.3335 -5.0595 -156576.6 64738.73 -183827.8 
0.4655 0.539 -5.059 13572.97 171272.1 -181608.6 
0.2815 0 -5.059 231.2335 1.455192e-06 -250000 
-0.168 -0.3335 -5.0595 -109990.4 -129793.7 -183182.2 
0.4655 -0.539 -5.059 90995.63 -147064.3 -180532.3 
0.8575 0 -5.0585 169086.8 40923.29 -179541 
1.3435 1.454 36.296 36433.24 172439 177306.1 
0.763 1.0045 36.296 -150764.3 86721.36 179581.6 
1.3625 0.83 36.296 0 0 250000 
1.011 0.314 36.296 -128450.7 -116409.8 180136.6 
1.7445 0.3365 36.296 71884.7 -159905.1 178221.7 
1.95 1.041 36.296 176091.2 18919.77 176448.2 
1.358 1.2485 32.7835 -20405.22 84397.73 -234436.9 
0.9715 0.9495 32.783 -80529.5 5153.783 -236618.8 
0.0535 1.172 33.1005 -204868.6 38295.87 -138066.3 
1.262 2.1075 33.1005 -24558.16 208508.2 -135724.9 
1.137 0.4895 32.783 -27845.19 -78086.94 -235854 
0.57 -0.2665 33.1005 -96804.31 -183600.5 -139355 
1.6255 0.504 32.7835 72627.74 -54627.81 -232897.1 
2.0975 -0.2195 33.1005 144970.5 -149737.4 -138066.2 
1.762 0.9735 32.7835 77926.54 51321.61 -231934.4 
2.525 1.2475 33.1005 190102.1 89161.47 -135688.8 
-0.528 0.567 1.159 -246283 37126.07 21595.22 
-0.528 -0.567 1.159 -123270.8 -216281.7 22947.17 
0.5505 -0.9175 1.16 175423.6 -177801.8 10635.15 
1.217 0 1.1605 219943.1 118708.1 5781.853 
0.5505 0.9175 1.16 -26874.1 248288.3 11432.98 
1.2295 1.3725 22.293 16245.68 249450.4 -3257.578 
1.8655 1.0435 22.0005 245482 47214.62 -3064.581 
1.7095 0.514 21.5535 132881.5 -211735.3 3270.082 
1.2175 0.3195 22.0945 -145710.5 -202930.9 9356.391 
0.829 0.9245 22.349 -234646.9 86171.39 3919.751 
1.5075 1.282 29.4235 26499.34 248570.6 3237.444 
1.8215 0.85 29.4235 246224.9 43203.91 2602.397 
1.5075 0.4185 28.604 127075 -215279.5 2589.938 
1 0.5835 28.603 -159994.9 -192086.3 2120.873 
1 1.117 29.423 -230686.6 96311.31 2804.16 
1.358 1.2485 32.7835 92550.98 232211.8 3466.712 
1.762 0.9735 32.7835 249055.1 -21546.8 2702.568 
1.6255 0.504 32.7835 59686.56 -242767.3 1265.501 
1.137 0.4895 32.783 -208956.4 -137245.8 919.5558 
0.9715 0.9495 32.783 -193239.7 158586.8 2948.261 
-0.528 0.567 1.159 -127758.4 152138.2 151762.3 
0.5505 0.9175 1.16 110106.2 174895 140671.2 
0.7345 1.7355 -0.001 80604.8 230640.7 52988.15 
-1.306 1.0725 -0.0025 -193802.5 147659.7 56010.91 
-0.528 -0.567 1.159 -181234.3 -76066.09 154493.1 
-1.306 -1.0725 -0.0025 -199545.6 -140769.1 53531.66 
0.5505 -0.9175 1.16 17592.55 -202529.8 145506.8 
0.7345 -1.7355 -0.001 73768.41 -233829.1 48807.95 
1.217 0 1.1605 203567.9 -49313.03 136485.7 
1.995 0 0 245238.2 -3338.815 48447.08 
5.79 -2.397 39.9785 -217289.5 -106893.7 62120.98 
5.857 -2.5585 39.34 -108689.6 -212370.9 -74734.22 
8.949499 -3.03 41.0575 -59507.12 -149070.6 191668.7 
8.9625 -3.006 40.174 -11914.04 -115327.3 -221489.7 
8.2925 -1.24 41.0615 18678.87 82963.23 235092 
10.0055 -0.2845 40.3765 134742.4 69820.73 198669.5 
5.2925 -0.4475 39.688 -95044.34 37811.03 228116 
8.2255 0.655 40.103 -22750.09 184551.5 167102.4 
8.372001 0.709 39.4355 130802.4 182091.8 -110604.5 
10.2705 -0.324 39.797 189057.6 -79070.73 -143195.9 
8.349999 -1.356 40.41 97027.39 -72757.34 -218614 
5.8405 -0.843 38.659 58091.23 -87049.14 -227041.6 
1.2075 0.4325 35.7055 28414.19 -24881.61 -247130.7 
1.0995 0.5415 36.215 -208685.2 63118.44 122338 
3.957 1.7105 36.389 17166.6 210357.2 -133996.9 
4.494 1.228 38.024 -63754.05 203820.1 129972.4 
2.906 -1.9425 36.7735 -96192 -216622.5 -79509.96 
2.5225 -1.778 37.532 -148879.9 -168592.3 109139.5 
3.8355 -0.3 37.165 105597.8 -101194.8 -202752.9 
3.3745 0.008 38.0395 -143689.2 43812.56 199834.7 
3.8105 -1.7435 38.006 -25219.94 -242365.6 55882.81 
10.613 -4.1285 40.189 -34990.8 -246495 -22713.46 
10.3355 -2.1225 39.9505 -44624.38 -6189.971 -245907.3 
13.689 -3.311 39.326 222371.5 -47564.71 -103867.9 
10.502 -2.0445 40.719 82899.69 16980.67 235243.1 
11.6325 -0.937 39.7535 30810.01 240112 -62426.09 
5.536 -2.414 39.241 84238.25 -226167.3 65209.6 
9.136499 1.2635 35.103 84516.09 -122604.4 200811.4 
8.9675 0.851 34.6435 -41553.28 -244391.8 32342.31 
11.2735 2.3685 33.8095 100017.4 -214149.1 -81466.02 
6.9855 2.323 35.519 22911.11 -7628.197 248831.1 
10.3725 3.183 34.9085 107106.5 19646.75 225038.3 
7.7425 3.6615 35.1765 -3107.097 164516.8 188214.2 
10.381 4.89 34.3165 112236.4 193619.5 -111420.4 
7.6055 3.68 34.802 -41567.42 118082.8 -216399.2 
6.865 2.2935 35.001 -22966.66 2908.845 -248925.9 
10.198 3.1445 34.702 -98220.8 14324.23 -229450.5 
4.686 3.5645 34.581 -25453.47 37410.95 -245871 
1.2075 0.8865 36.138 -210260.7 -37266.22 -130006.6 
4.819 3.52 35.2415 104115 163070.4 158329.2 
1.0575 0.876 36.734 -44395.16 -17784.71 245383 
4.096 0.0365 35.582 54922.41 -202247.3 136307 
3.992 -0.119 35.227 -49238.54 -216539.5 -114831.3 
5.3475 0.5475 35.2665 64740.28 -166982.9 174428.8 
8.3075 0.811 35 236167.6 -81403.38 -9919.056 
4.417 1.7025 35.979 37517.45 -780.7145 247167.7 
5.2765 0.4095 34.4345 26711.9 -179526.5 -171920.7 
4.2385 1.6865 35.086 28016.85 20744.47 -247557.6 
2.7065 1.249 35.496 -85866.84 -21329.07 -233820.4 
2.8755 1.304 36.1435 57238.78 -5640.754 243293.9 
12.2845 3.6545 33.235 205136.8 37063.16 138004.5 
12.825 2.19 32.2245 93432.2 55914.82 -225042.2 
10.7835 4.9845 33.9705 -164756.6 165110.4 89965.91 
11.861 5.0195 31.994 -70629.66 225410.4 -81863.56 
11.782 3.5225 32.902 -197204.4 -52735.21 -144324.1 
13.3795 3.948 29.5015 24359.78 65350.95 -240074.7 
12.796 2.0725 31.632 -34595 -219145.7 115231.9 
5.5075 3.847 35.006 -98211.64 229759.9 8056.974 
6.56 4.5725 36.4605 43911.79 -241395.8 47956.61 
6.251 4.6855 35.858 95313.77 -183544.9 -140451.3 
8.1195 7.523 35.612 207235.8 -85939.88 110307.2 
7.8465 7.3185 35.0775 854.8723 -110666.7 -224170 
6.715 7.6085 36.751 56585.23 72446.91 232485.7 
6.0295 9.4315 35.9055 65047.83 233795.8 60069.21 
4.5475 5.0595 36.6505 74197.97 -22662.69 237657.5 
4.5965 8.212501 36.914 -79139.74 92311.05 218439 
4.428 8.04 36.239 -165524.8 143634 -120294.8 
5.829 9.2035 35.62 -38127.6 77415.98 -234633.9 
6.3635 7.5335 35.7295 -25706.26 1613.195 -248669.7 
4.5095 5.0585 36.0585 -36520.21 -34535.88 -244895 
0.8575 0.911 35.853 -94171.13 -31466.36 -229437.8 
0.807 0.7045 36.4955 -24290.11 -136169.1 208249.8 
1.087 3.818 35.8775 -229100 85468.58 -52041.47 
2.2525 4.55 36.468 -137546.6 72586.55 195734.9 
3.7035 1.6145 35.058 122366.6 -209565.3 -60073.48 
3.6165 1.776 35.721 145346.5 -158710.2 127222.1 
2.804 3.195 35.6205 5705.27 7826.283 -249812.4 
2.897 3.0975 36.7235 38368.13 -52158.09 241469.3 
4.298 2.8505 35.8235 194703.2 -156807.8 -1424.22 
9.030001 8.361 34.039 185792.8 -146056.8 -81538.13 
7.4415 8.882501 34.8005 -113385 -92181.06 -202846.1 
8.868999 11.209 32.2755 34696.21 101119.3 -225989.1 
7.856 9.2815 35.459 138747.5 114842.6 173379.2 
6.5545 10.453 34.464 -222212.8 114324.7 7166.77 
6.063 4.2835 35.843 238105.8 47264.53 -59763.76 
-2.2465 -5.711 38.7865 -221301.5 111877.3 31766.58 
-1.888 -5.961 38.2855 -139639.1 83002.23 -190030.5 
-2.1595 -8.726 38.7975 -153463.6 -72396.38 -183596.6 
0.0065 -4.4095 38.3545 -51658.54 155065.8 189171.9 
-0.871 -7.517 40.181 -55897.98 29916.51 241827.3 
0.8715 -5.541 39.046 112451.1 68793.32 212420 
0.816 -8.4565 39.9485 146793.7 -183061.6 86255.87 
1.2135 -5.825 38.481 158210.4 -121483.8 -150702.3 
0.088 -4.5355 37.9855 34042.57 -106416.8 -223643.9 
-0.5575 -7.6235 39.305 75523 -67455.99 -228573.8 
2.1695 -3.346 37.1875 84749.66 -142059.8 -187447.5 
1.5 1.1185 35.5225 78816.36 77125.4 -224365.1 
2.1395 -3.335 37.846 43551.63 -58868.25 239035.2 
1.3345 1.434 36.29 -40299.03 154933 192020.3 
-0.7975 -1.345 36.389 -236535.7 80691.75 -6302.263 
-0.631 -1.476 36.0425 -117734.3 -19970.38 -219635.7 
-0.8855 -2.6475 36.878 -215017.9 84184.59 95813.73 
-1.9955 -5.699 38.1185 -107790.5 -218331 -56681.69 
0.6045 -2.005 37.287 -53222.57 102018.5 221945.1 
-0.549 -2.8425 36.5165 -90897.44 -87670.09 -215758.3 
0.7815 -2.305 36.634 22044.13 -160179.1 -190674.4 
1.0895 -0.8295 35.9605 39512.32 -85816.78 -231461.2 
0.931 -0.5545 36.728 -66804.34 83059.43 226137.9 
-0.951 -10.0585 39.3155 -79548.35 -107582.6 211182.5 
-2.525 -10.7745 38.196 95337.92 -216350.1 -81260.98 
0.8775 -8.9705 39.9195 231197.4 88377.18 35174.95 
0.4745 -10.89 38.766 240345 -67564.54 -13012.66 
-0.854 -9.92 39.0115 69687.88 76743.09 -227495.3 
-0.6545 -13.4275 36.8255 96488.08 -165839 -160273.2 
-2.2655 -10.9235 37.8075 -184473.5 168449.5 9710.641 
2.307 -4.0045 37.9435 235781.3 55238.64 62095.96 
-2.333 5.8265 38.3915 243646.1 54576.01 12571.75 
-2.5595 5.7195 37.8255 175156.4 133569.7 -118234.4 
-5.265 7.589 38.222 90238.8 154903.6 174246.5 
-5.068 7.5825 37.741 95880.88 73952.3 -218718.9 
-5.3195 5.9455 38.874 -79945.77 -5268.022 236814.2 
-7.124 5.6235 37.9085 -229464.1 51549.32 84787.45 
-2.7405 3.769 38.415 35004.66 -22232.59 246536.8 
-6.0195 3.8975 38.34 -93971.59 -155587 171645.1 
-5.8925 3.961 37.558 -158939.6 -91439.4 -169932.5 
-6.945 5.545 37.6345 -78457.51 58336.73 -230089.7 
-5.285 5.978 37.854 -18067.12 72506.49 -238571.6 
-2.86 3.9965 37.5 22929.84 60748.41 -241420.5 
1.05 0.7085 35.7285 32030 -18466.48 -247251.1 
1.0925 0.6245 36.0625 141336.2 -124352.3 164501.1 
-1.8385 0.817 35.8035 -80290.34 -196733.7 -131716.9 
-2.4805 1.6055 37.155 -50991.2 -188762.5 155783.9 
0.4105 3.477 36.107 164485.8 126104.2 -139793.4 
0.708 3.514 36.836 206268.9 129578.8 56236.27 
-1.1055 2.6345 36.1545 -20524.39 97718.59 -229193.9 
-1.009 2.3735 37.017 78123.9 -56223.7 230728.4 
-0.49 4.184 36.9395 114530.8 221786.2 13913.59 
-6.068 9.1295 37.2145 152702.5 196866.5 20629.11 
-6.7295 7.391 37.6155 76590.12 -34173 -235512.6 
-8.796 9.459 35.822 -120638.7 75349.09 -205593.9 
-6.9375 7.4895 38.0515 -103918.5 68772.58 216728.7 
-8.051499 6.854 36.922 -135709.8 -200395.4 -62646.22 
-2.04 5.8095 37.678 -61116.8 240303.6 31921.04 
-5.405 -1.395 36.9175 8590.668 246699.2 39569.12 
-5.2075 -1.5665 36.356 -63793.55 205279.7 -127634.8 
-7.7495 -3.7875 36.229 -168862.9 120376.6 139623.9 
-7.464 -3.655 35.6635 12963.34 133989.3 -210662.9 
-6.268 -4.2675 37.136 -66438.14 -80858.54 227041.6 
-6.2535 -6.3205 36.2715 -98887.23 -182289 139614 
-3.574 -2.2825 37.142 -37006.27 22929.03 246180.5 
-4.42 -5.233 36.9225 86726.78 -120525 201127.4 
-4.2445 -5.1995 36.443 139637.1 -183841.3 -95936.94 
-5.994 -6.252 35.552 -29836.55 -79289.15 -235208.5 
-6.0465 -4.208 36.31 -3557.982 7073.227 -249874.6 
-3.643 -2.2975 36.12 18354.07 45899.14 -245064.1 
0.8015 0.7865 35.916 91100.77 18414.64 -232081 
0.7575 0.773 36.1815 102336 100173.9 204920.9 
-0.043 -1.88 35.8255 209546.7 -128847 -44594.73 
-1.2775 -2.3495 36.454 131035.1 -102272.7 186735.5 
-2.0645 0.8675 35.3725 -63141.37 214745.7 -111344 
-2.1335 0.993 36.16 -97440.88 210487 93276.63 
-1.53 -0.873 35.876 -21087.8 2605.384 -249095.4 
-1.5035 -0.814 36.8545 18075.24 45246.17 245206.2 
-2.9645 -0.09500001 36.0995 -186011.7 164046.3 -31440.11 
-9.187 -4.1395 34.59 -144988.1 197642 -49154.36 
-7.3735 -5.1675 35.1115 128278.4 68742.2 -203271.2 
-9.3665 -6.764 33.2875 -74296.97 -164076.8 -173374.8 
-7.789 -5.46 35.781 -139901.7 -99373.59 181803.3 
-7.218 -6.686 34.904 173730.3 -179763.2 -1726.405 
-4.7385 -1.223 36.3225 -242325.2 50274.21 -35370.17 
4.4995 -6.3165 35.0405 -172510.9 -115574.3 139221.4 
4.4525 -6.164 34.6465 -245238.1 -13276.55 -46712.28 
6.1205 -8.0055 33.4495 -200495.2 -101180.2 -109837.4 
4.906 -3.869 35.308 -36735.97 -17260.91 246683.1 
6.95 -7.0035 35.0515 61312.92 -106838.3 217546.2 
6.7525 -4.0035 35.359 164092.8 77161.7 172103.6 
8.2175 -6.1835 34.015 217066.8 -19065.36 -122550.3 
6.4835 -3.8945 34.3945 69907.63 96768.22 -219656.2 
4.8245 -3.7705 34.958 -55853.4 33954.62 -241303.8 
6.719 -6.4445 34.0195 -34236.05 93439.41 -229340.3 
5.32 -1.28 34.514 19011.86 22708.23 -248239.6 
1.646 1.197 36.3515 -114557.7 203617 -88975.74 
5.495 -1.505 35.248 176536.3 -50366.6 169700.3 
1.783 0.984 36.6765 5395.987 33779.77 247648.6 
1.634 -2.072 35.913 -195547.4 -120097 99186.48 
1.662 -1.844 35.406 -189298.2 -16081.43 -162504.2 
2.6615 -2.941 35.353 -124080 -146321.1 160294.5 
4.131 -5.6135 34.7685 5629.287 -212475.8 -131614.4 
3.4945 -1.66 35.9315 31139.38 -49991.06 242963.5 
2.7125 -2.757 34.924 -116336.2 -62211.1 -212357.5 
3.3955 -1.522 35.358 5647.322 -27894.53 -248374.8 
2.4625 -0.1495 35.4405 -53820.04 51094.28 -238731.7 
2.64 -0.3515 36.247 40421.78 -52452.96 241070.1 
7.907001 -8.6065 32.9655 118440.5 -188993.3 112930.9 
6.3155 -9.686 31.5535 39722.85 -56073.4 -240370.3 
8.504 -6.609 33.5765 149903.9 199420.3 16137.37 
8.6105 -7.665 31.6765 175484.1 152407.5 -92072.45 
7.4345 -7.9015 32.4955 -115250.1 169337.5 -143325.8 
8.235 -9.2305 28.8945 50761.48 57310.65 -237989 
6.576 -9.201 31.3 -226092.7 -64803.11 84750.8 
5.793 -2.035 34.9405 127360.8 215066.1 -5083.278 
-3.2705 3.1015 39.9445 184705.9 168464.9 -1828.934 
-3.4545 3.0055 39.4855 28250.44 203355.7 -142647.9 
-6.4805 3.0205 40.929 60842.45 195412.4 143569.5 
-6.481 2.954 40.539 -2196.87 115585 -221664.8 
-5.449 1.6465 41.239 55170.54 -38058.4 240848.1 
-7.2035 0.239 41.0555 -127953.6 -87467.66 196156.4 
-2.576 1.2855 39.592 108728 14311.51 224662.9 
-5.0595 -0.2395 40.4845 76499.59 -141604.7 191300.7 
-5.203 -0.425 39.928 -110489.8 -198959.2 -103475.9 
-7.0255 0.2945 40.433 -153818.3 -5964.296 -196988.3 
-5.7715 1.6315 40.272 -93529.7 53961.47 -225478.1 
-2.7915 1.3195 39.1605 -78739.64 60214.52 -229508.8 
1.555 0.742 35.6755 -48155.68 4948.256 -245268.4 
1.663 0.719 36.168 225944.4 -1922.601 106983.4 
-0.85 -0.9295 36.672 18747.27 -224675.8 -108024.7 
-1.3905 -0.39 38.273 107465.5 -174032.7 143749.1 
-0.409 2.5925 36.8795 20621.81 207349.2 -138134.3 
-0.151 2.711 37.2795 104538.8 225505.8 26810.5 
-1.0525 1.117 37.27 -145565.8 60356.45 -194081.8 
-0.4815 1.0015 38.1555 152279.6 10406.61 197996.6 
-1.294 2.579 37.924 -24738.26 247627.5 -23847.28 
-8.3385 4.055 40.316 56243.79 238062.1 -51605.06 
-7.659 1.9975 40.283 23775.9 14961.23 -248416.8 
-11.2315 2.4665 39.776 -214939.4 3197.761 -127635.6 
-7.84 1.9405 41.5155 -40652.79 11106.21 246422.5 
-8.768 0.4035 40.253 5881.007 -241455.1 -64535.87 
-2.921 2.857 39.1425 -181862.6 153974.7 75616.09 
4.3415 5.085 39.8935 213277 -107401.7 74012.37 
4.1145 5.2855 39.352 153792.7 -118757 -157304.2 
4.2705 7.996 39.323 199794.9 -14707.48 -149551.8 
2.1125 3.9985 39.3475 9092.632 -150384.5 199504 
3.05 7.2105 40.778 25302.35 3435.158 248692.6 
1.209 5.2575 39.779 -163638.1 -32539.49 186182.1 
1.5435 8.174999 39.989 -143977.7 204130.3 10062.9 
1.041 5.528 39.0545 -129223.9 89294.21 -194493.6 
2.099 4.1235 38.9785 27706.72 96806.5 -228825 
2.8015 7.1925 39.6245 -41219.25 22891.66 -245513.7 
-0.0025 3.8335 37.7045 36491.06 208699.2 -132714.3 
0.8255 0.5565 35.1915 -19874.86 -3802.383 -249179.8 
-0.005 3.46 38.439 -156943.2 -20860.79 193477.8 
0.6855 -0.0445 35.6575 -84721.83 -222897.6 75092.49 
3.1145 1.3105 37.3055 192144.8 -155589 37046.7 
3.073 1.6825 36.7415 166687.8 26809.62 -184381.3 
3.0545 2.38 37.9795 143863.9 -148154.5 140902.2 
3.9325 4.389 39.216 152075.4 168745.8 104393.3 
1.4545 1.9825 38.079 -23709.6 -150876.9 197924.3 
3.1725 2.9155 37.2 180266.9 98883.42 -142217.9 
1.5055 2.585 37.3395 23353.32 214023.3 -127077.4 
1.3015 1.7175 36.36 42447.32 156783.3 -190045.4 
1.1485 1.1705 36.9435 -40777.96 -173613.8 175201.1 
3.6505 9.811501 39.6835 70846.93 134288.6 198613.5 
5.2405 9.8525 38.3675 37180.59 160853.7 -187733.1 
1.6045 8.7235 39.8145 -245739.4 -44936.62 9636.669 
2.109 10.4445 38.3295 -231354.7 62261.45 -71404.06 
3.4365 9.294499 38.893 -42605.79 -114243.3 -218250.4 
3.97 12.4275 36.2415 -11715.19 103167.8 -227418.5 
5.0885 9.997 37.8815 191954.4 -158308.7 24329.05 
0.4325 3.943 38.593 -249577.2 -12001.08 -8198.535 
1.339 -4.319 40.4865 -226676 -13375.98 104590.1 
1.571 -4.383 39.973 -211890.5 12310.52 -132101.8 
2.607 -6.964 39.8565 -189601.2 -110666.1 -119601.1 
2.453 -2.093 40.0465 -61433.39 133551.5 202212.6 
3.588 -5.359 41.041 16961.78 -5570.271 249361.8 
3.9355 -2.841 40.0185 165604.1 100830.9 157824.1 
5.1085 -5.0045 40.404 241349.8 -58802.27 -28152.62 
3.9395 -2.907 39.6525 182381.3 -28759.45 -168552.7 
2.6585 -2.6175 38.9385 48830.41 -97871.19 -224804 
3.686 -5.2775 40.1035 79495.15 -4112.711 -236988.7 
3.833 -0.868 38.005 90710.72 -200670.5 -118334.1 
1.394 1.1925 35.5175 5394.653 19818.1 -249154.9 
3.5945 -0.6355 38.2985 146963.5 100729.9 175371.7 
1.2275 1.795 36.0055 -14393.19 243300.6 55656.76 
-0.0855 -0.554 37.946 -240134.4 32571.9 61437.47 
0.0605 -1.031 37.1325 -117449 -145506.8 -165932.3 
0.5895 -1.4055 38.633 -178056.9 47088.18 169051.7 
1.3205 -4.0625 39.8745 -97512.21 -224712.5 49956.97 
1.898 -0.277 38.412 -34590.89 149803.9 197135.2 
0.891 -1.9305 37.7885 -93350.57 -189166.1 -134171.2 
2.122 -0.8335 37.6955 77254.99 -178481.2 -157086.4 
1.7035 0.1065 36.831 53432.2 -157308.1 -186813.2 
1.5945 0.6435 37.378 -20311.17 177626.5 174746.4 
4.3835 -7.889 40.1235 30629.3 -144950.2 201373.6 
2.965 -8.892 39.033 83396.14 -164719.3 -168560.5 
5.8735 -5.765 40.1685 165162.2 186855.9 -17502.29 
5.7205 -7.7375 38.758 219509.2 50795.87 -108330.6 
4.2515 -7.464 39.4775 -43926.13 106766.1 -221746.5 
5.243 -10.4805 36.754 36338.94 -69815.7 -237287.3 
3.347 -8.867001 38.5725 -244767.7 26859.38 43213.41 
4.071 -1.1975 38.7945 226404 92286.53 -52196.36 
-2.4465 -1.341 32.6945 -228578 68039.52 74984.98 
-2.155 -1.167 32.4645 -16293.43 249191.3 -11758.37 
-2.262 -2.6155 31.064 -91156.21 166023.4 -163177.2 
-0.848 -2.0485 34.253 -138674.5 -28550.34 206044.4 
-1.6005 -3.547 32.6525 -174635.6 -143273.7 107121.9 
0.1505 -3.414 34.007 24696.41 -188517.2 162331.1 
0.018 -4.5085 32.825 145348.9 -184703.6 -85195.77 
0.35 -3.119 33.623 219585.4 -4317.992 -119430.5 
-0.3935 -1.811 33.758 139066.8 91688.88 -186423.2 
-0.826 -3.0685 32.168 186784.9 111295.1 -123388.9 
1.8105 -2.3185 34.614 214726 22103.68 -126111.9 
1.0625 0.695 36.213 173628.2 168327.2 63397.36 
1.4295 -2.653 34.9735 -29832.81 -228673.4 96532.37 
0.789 0.57 36.689 -16118.25 40661.54 246144 
-1.1955 0.8745 34.6365 -200220.2 144734.1 38261.69 
-0.82 1.0895 34.3215 20079.23 223285.2 -110637 
-1.2205 0.0465 34.127 -245042.7 8344.733 48831.17 
-1.931 -0.887 33.014 -173199 -22644.34 -178855.7 
-0.012 -0.8875 35.101 -161095.8 -100391 162695.5 
-0.717 0.218 33.658 -17029.62 139954.7 -206452.7 
0.63 -0.549 34.396 109803.5 17273.04 -223930.5 
0.9375 0.151 35.1125 169539.7 123879.7 -135684 
0.125 -0.38 35.954 -167473.8 -101590.1 155344.8 
-1.4595 -4.0395 30.9365 -174962.7 -177165.9 -22368.04 
-2.362 -2.503 29.661 48676.45 -38339.89 -242199.7 
0.296 -5.1 32.453 207471.1 -60361.14 125746.9 
-0.1565 -4.577 30.7265 195831.8 -139392.6 -68699.73 
-1.013 -3.5645 30.918 170967 179634 -31653.26 
-0.3805 -3.937 27.731 145579.2 -60023.16 -194175.1 
-1.974 -2.788 29.378 -161051.7 168400 90574.88 
1.274 -2.693 34.5735 217222 -98318.55 75153.88 
4.6205 3.289 32.616 238671 43455.83 60396.75 
4.587 2.8315 32.6035 138326.5 -181444 102195.3 
4.3 3.621 30.479 154190.4 -185915.8 -64503.44 
3.3855 3.9605 33.9385 151265.8 100424.4 171853.5 
4.1185 4.8545 31.5785 179827.1 173200.8 12795.76 
2.685 5.1845 33.303 -15800.99 231179.5 93842.4 
2.516 5.591 31.361 -137635.3 127934 -164892.2 
2.209 4.5755 32.9075 -228121.2 -39125.53 -94498.44 
2.896 3.4795 33.4765 -154260 -154586.9 -121683 
3.4885 4.3175 31.482 -199130.1 -142289.2 -50999.88 
1.09 4.007 34.145 -65602.52 -47185.23 -236579.6 
0.7625 1.1875 35.9885 -185192.7 -164147.8 35485.01 
1.464 4.305 34.504 37595.2 228268.3 94763.98 
1.1435 1.5895 36.522 16386.83 51025.34 244188.3 
3.398 1.5605 35.2775 212500.8 -49204.24 122157.1 
3.143 1.0115 34.862 42112.14 -200214.9 -143668.3 
3.299 2.262 34.516 216476.1 34015.71 120337.2 
4.426 2.9575 32.9375 215749.5 -82551.63 -95589.86 
2.405 2.9205 35.0345 130520.4 104411.6 185910.4 
3.185 2.0145 34.29 81657.57 -135278.7 -193731.1 
2.1765 2.7215 34.729 -80468.35 -81735.59 -222135.5 
1.643 2.047 35.137 -87703.26 -98245.94 -212499.2 
1.8865 2.353 35.665 114259.1 124581.9 184185.4 
3.6615 4.392 29.205 173400.7 153992.2 -93373.51 
4.3565 2.8845 28.8495 -40433.48 -146711.8 -198345.2 
2.525 5.528 30.5825 -166134.3 144062.8 118934.2 
2.0675 4.7275 28.4935 -200909.4 142082.4 -44136.38 
3.174 3.8205 29.6065 -151288.8 -186188.5 70324.93 
2.206 2.95 25.1095 -114518.3 -52123.07 -216029.5 
4.1105 2.718 28.112 204407.5 -108943 94069.38 
1.593 4.4135 34.125 -223827.2 69165.48 87278.52 
2.225 -1.661 32.902 -12888.21 -201235.8 147777.1 
1.904 -1.5805 32.936 -161003.3 -183106.7 55226.14 
2.704 -1.429 30.745 65638.52 -239275.5 -30640.69 
2.254 -1.2535 30.845 -243430.5 56665.18 5539.507 
3.668 -0.6545 31.6625 218765.3 -116898.8 -31248.04 
4.4515 0.9275 30.586 209861.2 -57910.23 -122901.2 
3.381 -0.605 33.8155 183832.8 -159502.7 57135.13 
4.3885 1.0385 32.2615 238063 -17312.61 74339.3 
4.2105 1.71 32.2515 75571.15 235876.9 -33928.43 
3.8935 1.416 30.4555 -157640.7 116938.2 -154838.3 
3.3095 -0.368 31.6305 -206594.4 120936.8 -72063.09 
2.8395 -0.1995 33.539 -221257.8 108785.9 -41359.9 
1.0395 0.8645 36.727 -199289.8 149507.2 -20765.05 
1.6555 0.4445 36.8315 88228.91 -84868.96 217974.7 
2.649 1.774 35.159 28501.15 234411.9 82090.13 
3.2885 1.1895 34.692 214319.9 26392.18 125978.1 
0.852 -0.8255 35.0105 -245812 -44326.7 -10565.41 
0.976 -1.2295 35.1465 -145047.1 -201882.5 26549.04 
1.9595 0.3315 34.783 -185534.2 106522.8 -129344.5 
2.607 -0.1245 35.159 157420.7 -141906.6 132594.3 
1.506 -0.9475 34.369 -170855.1 -145336.6 -110389.5 
1.844 -1.307 29.2475 -126618.5 -211644 -40921.99 
2.9925 -0.1305 30.073 -196797.7 137421.3 69900.59 
1.9465 0.752 26.584 -114152.2 102878.4 -197193.6 
3.351 -0.352 29.858 195262.8 -126183.7 -91924.62 
3.6195 1.364 29.415 112696.9 202799.4 93122.79 
1.844 -1.5145 33.2075 -66917.8 -142944 -193879 
3 0 1 2 
3 0 2 3 
3 1 4 5 
3 1 5 2 
3 4 6 7 
3 4 7 5 
3 6 8 9 
3 6 9 7 
3 8 0 3 
3 8 3 9 
3 10 11 12 
3 13 10 12 
3 14 13 12 
3 15 14 12 
3 11 15 12 
3 16 17 18 
3 17 19 18 
3 19 20 18 
3 20 21 18 
3 21 16 18 
3 22 23 24 
3 22 24 25 
3 23 26 27 
3 23 27 24 
3 26 28 29 
3 26 29 27 
3 28 30 31 
3 28 31 29 
3 30 22 25 
3 30 25 31 
3 25 24 17 
3 25 17 16 
3 24 27 19 
3 24 19 17 
3 27 29 20 
3 27 20 19 
3 29 31 21 
3 29 21 20 
3 31 25 16 
3 31 16 21 
3 32 33 4 
3 32 4 1 
3 33 34 6 
3 33 6 4 
3 34 35 8 
3 34 8 6 
3 35 36 0 
3 35 0 8 
3 36 32 1 
3 36 1 0 
3 9 3 37 
3 9 37 38 
3 7 9 38 
3 7 38 39 
3 5 7 39 
3 5 39 40 
3 2 5 40 
3 2 40 41 
3 3 2 41 
3 3 41 37 
3 38 37 42 
3 38 42 43 
3 39 38 43 
3 39 43 44 
3 40 39 44 
3 40 44 45 
3 41 40 45 
3 41 45 46 
3 37 41 46 
3 37 46 42 
3 43 42 47 
3 43 47 48 
3 44 43 48 
3 44 48 49 
3 45 44 49 
3 45 49 50 
3 46 45 50 
3 46 50 51 
3 42 46 51 
3 42 51 47 
3 52 53 54 
3 52 54 55 
3 56 52 55 
3 56 55 57 
3 58 56 57 
3 58 57 59 
3 60 58 59 
3 60 59 61 
3 53 60 61 
3 53 61 54 
3 55 54 11 
3 55 11 10 
3 57 55 10 
3 57 10 13 
3 59 57 13 
3 59 13 14 
3 61 59 14 
3 61 14 15 
3 54 61 15 
3 54 15 11 
3 62 63 64 
3 64 63 65 
3 66 67 68 
3 69 68 67 
3 69 67 70 
3 70 67 71 
3 72 73 71 
3 73 70 71 
3 74 75 76 
3 76 75 77 
3 74 78 75 
3 75 78 79 
3 66 68 64 
3 68 62 64 
3 72 65 73 
3 63 73 65 
3 76 70 80 
3 80 70 73 
3 76 77 70 
3 70 77 69 
3 77 81 69 
3 69 81 68 
3 74 76 80 
3 78 82 79 
3 78 74 82 
3 82 74 80 
3 83 84 85 
3 64 65 83 
3 66 64 86 
3 86 64 83 
3 84 87 85 
3 86 83 85 
3 87 86 85 
3 72 84 65 
3 65 84 83 
3 79 82 75 
3 75 82 81 
3 77 75 81 
3 87 66 86 
3 72 87 84 
3 82 88 81 
3 81 88 68 
3 82 80 88 
3 88 80 73 
3 68 73 62 
3 62 73 63 
3 66 72 67 
3 67 72 71 
3 66 87 72 
3 68 88 73 
3 89 90 91 
3 92 93 94 
3 94 93 95 
3 96 94 95 
3 97 96 98 
3 96 95 98 
3 99 100 101 
3 101 100 102 
3 102 100 103 
3 103 100 104 
3 91 93 89 
3 92 89 93 
3 98 91 97 
3 90 97 91 
3 105 106 107 
3 107 106 92 
3 108 106 105 
3 108 109 106 
3 106 109 97 
3 110 99 109 
3 102 111 101 
3 103 111 102 
3 104 108 103 
3 103 108 105 
3 104 110 108 
3 108 110 109 
3 93 91 112 
3 112 91 113 
3 93 112 114 
3 114 112 115 
3 116 115 117 
3 112 118 117 
3 115 112 117 
3 98 116 91 
3 91 116 113 
3 98 114 116 
3 116 114 115 
3 100 110 104 
3 99 110 100 
3 103 105 111 
3 111 105 107 
3 101 111 107 
3 118 116 117 
3 107 92 119 
3 119 92 94 
3 96 119 94 
3 109 119 97 
3 97 119 96 
3 92 106 97 
3 107 109 101 
3 101 109 99 
3 93 114 98 
3 112 113 116 
3 112 116 118 
3 93 98 95 
3 89 92 90 
3 90 92 97 
3 107 119 109 
3 120 121 122 
3 122 121 123 
3 124 125 126 
3 127 126 125 
3 127 125 128 
3 128 125 129 
3 130 131 129 
3 131 128 129 
3 132 133 134 
3 134 133 135 
3 132 136 133 
3 133 136 137 
3 124 126 122 
3 126 120 122 
3 130 123 131 
3 121 131 123 
3 134 128 138 
3 138 128 131 
3 134 135 128 
3 128 135 127 
3 135 139 127 
3 127 139 126 
3 132 134 138 
3 136 140 137 
3 136 132 140 
3 140 132 138 
3 141 142 143 
3 122 123 141 
3 124 122 144 
3 144 122 141 
3 142 145 143 
3 144 141 143 
3 145 144 143 
3 130 142 123 
3 123 142 141 
3 137 140 133 
3 133 140 139 
3 135 133 139 
3 145 124 144 
3 130 145 142 
3 140 146 139 
3 139 146 126 
3 140 138 146 
3 146 138 131 
3 126 131 120 
3 120 131 121 
3 124 130 125 
3 125 130 129 
3 124 145 130 
3 126 146 131 
3 147 148 149 
3 150 151 152 
3 152 151 153 
3 154 152 153 
3 155 154 156 
3 154 153 156 
3 157 158 159 
3 159 158 160 
3 160 158 161 
3 161 158 162 
3 149 151 147 
3 150 147 151 
3 156 149 155 
3 148 155 149 
3 163 164 165 
3 165 164 150 
3 166 164 163 
3 166 167 164 
3 164 167 155 
3 168 157 167 
3 160 169 159 
3 161 169 160 
3 162 166 161 
3 161 166 163 
3 162 168 166 
3 166 168 167 
3 151 149 170 
3 170 149 171 
3 151 170 172 
3 172 170 173 
3 174 173 175 
3 170 176 175 
3 173 170 175 
3 156 174 149 
3 149 174 171 
3 156 172 174 
3 174 172 173 
3 158 168 162 
3 157 168 158 
3 161 163 169 
3 169 163 165 
3 159 169 165 
3 176 174 175 
3 165 150 177 
3 177 150 152 
3 154 177 152 
3 167 177 155 
3 155 177 154 
3 150 164 155 
3 165 167 159 
3 159 167 157 
3 151 172 156 
3 170 171 174 
3 170 174 176 
3 151 156 153 
3 147 150 148 
3 148 150 155 
3 165 177 167 
3 178 179 180 
3 180 179 181 
3 182 183 184 
3 185 184 183 
3 185 183 186 
3 186 183 187 
3 188 189 187 
3 189 186 187 
3 190 191 192 
3 192 191 193 
3 190 194 191 
3 191 194 195 
3 182 184 180 
3 184 178 180 
3 188 181 189 
3 179 189 181 
3 192 186 196 
3 196 186 189 
3 192 193 186 
3 186 193 185 
3 193 197 185 
3 185 197 184 
3 190 192 196 
3 194 198 195 
3 194 190 198 
3 198 190 196 
3 199 200 201 
3 180 181 199 
3 182 180 202 
3 202 180 199 
3 200 203 201 
3 202 199 201 
3 203 202 201 
3 188 200 181 
3 181 200 199 
3 195 198 191 
3 191 198 197 
3 193 191 197 
3 203 182 202 
3 188 203 200 
3 198 204 197 
3 197 204 184 
3 198 196 204 
3 204 196 189 
3 184 189 178 
3 178 189 179 
3 182 188 183 
3 183 188 187 
3 182 203 188 
3 184 204 189 
3 205 206 207 
3 207 206 208 
3 209 210 211 
3 212 211 210 
3 212 210 213 
3 213 210 214 
3 215 216 214 
3 216 213 214 
3 217 218 219 
3 219 218 220 
3 217 221 218 
3 218 221 222 
3 209 211 207 
3 211 205 207 
3 215 208 216 
3 206 216 208 
3 219 213 223 
3 223 213 216 
3 219 220 213 
3 213 220 212 
3 220 224 212 
3 212 224 211 
3 217 219 223 
3 221 225 222 
3 221 217 225 
3 225 217 223 
3 226 227 228 
3 207 208 226 
3 209 207 229 
3 229 207 226 
3 227 230 228 
3 229 226 228 
3 230 229 228 
3 215 227 208 
3 208 227 226 
3 222 225 218 
3 218 225 224 
3 220 218 224 
3 230 209 229 
3 215 230 227 
3 225 231 224 
3 224 231 211 
3 225 223 231 
3 231 223 216 
3 211 216 205 
3 205 216 206 
3 209 215 210 
3 210 215 214 
3 209 230 215 
3 211 231 216 
3 232 233 234 
3 235 236 237 
3 237 236 238 
3 239 237 238 
3 240 239 241 
3 239 238 241 
3 242 243 244 
3 244 243 245 
3 245 243 246 
3 246 243 247 
3 234 236 232 
3 235 232 236 
3 241 234 240 
3 233 240 234 
3 248 249 250 
3 250 249 235 
3 251 249 248 
3 251 252 249 
3 249 252 240 
3 253 242 252 
3 245 254 244 
3 246 254 245 
3 247 251 246 
3 246 251 248 
3 247 253 251 
3 251 253 252 
3 236 234 255 
3 255 234 256 
3 236 255 257 
3 257 255 258 
3 259 258 260 
3 255 261 260 
3 258 255 260 
3 241 259 234 
3 234 259 256 
3 241 257 259 
3 259 257 258 
3 243 253 247 
3 242 253 243 
3 246 248 254 
3 254 248 250 
3 244 254 250 
3 261 259 260 
3 250 235 262 
3 262 235 237 
3 239 262 237 
3 252 262 240 
3 240 262 239 
3 235 249 240 
3 250 252 244 
3 244 252 242 
3 236 257 241 
3 255 256 259 
3 255 259 261 
3 236 241 238 
3 232 235 233 
3 233 235 240 
3 250 262 252 
3 263 264 265 
3 265 264 266 
3 267 268 269 
3 270 269 268 
3 270 268 271 
3 271 268 272 
3 273 274 272 
3 274 271 272 
3 275 276 277 
3 277 276 278 
3 275 279 276 
3 276 279 280 
3 267 269 265 
3 269 263 265 
3 273 266 274 
3 264 274 266 
3 277 271 281 
3 281 271 274 
3 277 278 271 
3 271 278 270 
3 278 282 270 
3 270 282 269 
3 275 277 281 
3 279 283 280 
3 279 275 283 
3 283 275 281 
3 284 285 286 
3 265 266 284 
3 267 265 287 
3 287 265 284 
3 285 288 286 
3 287 284 286 
3 288 287 286 
3 273 285 266 
3 266 285 284 
3 280 283 276 
3 276 283 282 
3 278 276 282 
3 288 267 287 
3 273 288 285 
3 283 289 282 
3 282 289 269 
3 283 281 289 
3 289 281 274 
3 269 274 263 
3 263 274 264 
3 267 273 268 
3 268 273 272 
3 267 288 273 
3 269 289 274 
3 290 291 292 
3 293 294 295 
3 295 294 296 
3 297 295 296 
3 298 297 299 
3 297 296 299 
3 300 301 302 
3 302 301 303 
3 303 301 304 
3 304 301 305 
3 292 294 290 
3 293 290 294 
3 299 292 298 
3 291 298 292 
3 306 307 308 
3 308 307 293 
3 309 307 306 
3 309 310 307 
3 307 310 298 
3 311 300 310 
3 303 312 302 
3 304 312 303 
3 305 309 304 
3 304 309 306 
3 305 311 309 
3 309 311 310 
3 294 292 313 
3 313 292 314 
3 294 313 315 
3 315 313 316 
3 317 316 318 
3 313 319 318 
3 316 313 318 
3 299 317 292 
3 292 317 314 
3 299 315 317 
3 317 315 316 
3 301 311 305 
3 300 311 301 
3 304 306 312 
3 312 306 308 
3 302 312 308 
3 319 317 318 
3 308 293 320 
3 320 293 295 
3 297 320 295 
3 310 320 298 
3 298 320 297 
3 293 307 298 
3 308 310 302 
3 302 310 300 
3 294 315 299 
3 313 314 317 
3 313 317 319 
3 294 299 296 
3 290 293 291 
3 291 293 298 
3 308 320 310 
3 321 322 323 
3 324 325 326 
3 326 325 327 
3 328 326 327 
3 329 328 330 
3 328 327 330 
3 331 332 333 
3 333 332 334 
3 334 332 335 
3 335 332 336 
3 323 325 321 
3 324 321 325 
3 330 323 329 
3 322 329 323 
3 337 338 339 
3 339 338 324 
3 340 338 337 
3 340 341 338 
3 338 341 329 
3 342 331 341 
3 334 343 333 
3 335 343 334 
3 336 340 335 
3 335 340 337 
3 336 342 340 
3 340 342 341 
3 325 323 344 
3 344 323 345 
3 325 344 346 
3 346 344 347 
3 348 347 349 
3 344 350 349 
3 347 344 349 
3 330 348 323 
3 323 348 345 
3 330 346 348 
3 348 346 347 
3 332 342 336 
3 331 342 332 
3 335 337 343 
3 343 337 339 
3 333 343 339 
3 350 348 349 
3 339 324 351 
3 351 324 326 
3 328 351 326 
3 341 351 329 
3 329 351 328 
3 324 338 329 
3 339 341 333 
3 333 341 331 
3 325 346 330 
3 344 345 348 
3 344 348 350 
3 325 330 327 
3 321 324 322 
3 322 324 329 
3 339 351 341 
3 352 353 354 
3 355 356 357 
3 357 356 358 
3 359 357 358 
3 360 359 361 
3 359 358 361 
3 362 363 364 
3 364 363 365 
3 365 363 366 
3 366 363 367 
3 354 356 352 
3 355 352 356 
3 361 354 360 
3 353 360 354 
3 368 369 370 
3 370 369 355 
3 371 369 368 
3 371 372 369 
3 369 372 360 
3 373 362 372 
3 365 374 364 
3 366 374 365 
3 367 371 366 
3 366 371 368 
3 367 373 371 
3 371 373 372 
3 356 354 375 
3 375 354 376 
3 356 375 377 
3 377 375 378 
3 379 378 380 
3 375 381 380 
3 378 375 380 
3 361 379 354 
3 354 379 376 
3 361 377 379 
3 379 377 378 
3 363 373 367 
3 362 373 363 
3 366 368 374 
3 374 368 370 
3 364 374 370 
3 381 379 380 
3 370 355 382 
3 382 355 357 
3 359 382 357 
3 372 382 360 
3 360 382 359 
3 355 369 360 
3 370 372 364 
3 364 372 362 
3 356 377 361 
3 375 376 379 
3 375 379 381 
3 356 361 358 
3 352 355 353 
3 353 355 360 
3 370 382 372 
3 383 384 385 
3 386 387 388 
3 388 387 389 
3 390 388 389 
3 391 390 392 
3 390 389 392 
3 393 394 395 
3 395 394 396 
3 396 394 397 
3 397 394 398 
3 385 387 383 
3 386 383 387 
3 392 385 391 
3 384 391 385 
3 399 400 401 
3 401 400 386 
3 402 400 399 
3 402 403 400 
3 400 403 391 
3 404 393 403 
3 396 405 395 
3 397 405 396 
3 398 402 397 
3 397 402 399 
3 398 404 402 
3 402 404 403 
3 387 385 406 
3 406 385 407 
3 387 406 408 
3 408 406 409 
3 410 409 411 
3 406 412 411 
3 409 406 411 
3 392 410 385 
3 385 410 407 
3 392 408 410 
3 410 408 409 
3 394 404 398 
3 393 404 394 
3 397 399 405 
3 405 399 401 
3 395 405 401 
3 412 410 411 
3 401 386 413 
3 413 386 388 
3 390 413 388 
3 403 413 391 
3 391 413 390 
3 386 400 391 
3 401 403 395 
3 395 403 393 
3 387 408 392 
3 406 407 410 
3 406 410 412 
3 387 392 389 
3 383 386 384 
3 384 386 391 
3 401 413 403 
3 414 415 416 
3 416 415 417 
3 418 419 420 
3 421 420 419 
3 421 419 422 
3 422 419 423 
3 424 425 423 
3 425 422 423 
3 426 427 428 
3 428 427 429 
3 426 430 427 
3 427 430 431 
3 418 420 416 
3 420 414 416 
3 424 417 425 
3 415 425 417 
3 428 422 432 
3 432 422 425 
3 428 429 422 
3 422 429 421 
3 429 433 421 
3 421 433 420 
3 426 428 432 
3 430 434 431 
3 430 426 434 
3 434 426 432 
3 435 436 437 
3 416 417 435 
3 418 416 438 
3 438 416 435 
3 436 439 437 
3 438 435 437 
3 439 438 437 
3 424 436 417 
3 417 436 435 
3 431 434 427 
3 427 434 433 
3 429 427 433 
3 439 418 438 
3 424 439 436 
3 434 440 433 
3 433 440 420 
3 434 432 440 
3 440 432 425 
3 420 425 414 
3 414 425 415 
3 418 424 419 
3 419 424 423 
3 418 439 424 
3 420 440 425 
