ply
format ascii 1.0
comment VCGLIB generated
element vertex 224
property float x
property float y
property float z
property float nx
property float ny
property float nz
element face 416
property list uchar int vertex_indices
end_header
0.008794 -4.8e-005 -0.014667 -2.01053 -2.96472 -1.06758 
0.009143 -4.8e-005 -0.014667 2.99704 -2.99942 -0.142895 
0.009392 -0.000204 -0.010096 2.995 -2.99814 0.033167 
0.009044 -0.000204 -0.010096 -0.0210594 -3.92911 -1.92127 
0.008794 -4.8e-005 -0 -7.15527e-006 -2.41421 3.41421 
0.009143 -4.8e-005 -0 0.999999 -2 1 
0.009143 0.000203 0 2 -0.707105 2.70711 
0.008794 0.000203 0 -7.76911e-006 -2.12132 3.12133 
0.009044 4.8e-005 -0.010096 -0.010535 -0.96496 -0.820019 
0.009392 4.8e-005 -0.010096 2.99528 -0.999191 0.0587736 
0.009143 0.000203 -0.014667 1.99852 1.99886 0.0133867 
0.008794 0.000203 -0.014667 -3.02106 1.06767 -1.96483 
0.009114 -0.000476 -0.030473 0.096602 -0.991839 -3.9168 
0.009078 -0.000515 -0.030473 0.2766 -2.0809 -1.82536 
0.009024 -0.000488 -0.030473 0.0738684 0.793122 -4.11031 
0.009061 -0.00045 -0.030473 -0.185866 1.97514 -2.25356 
0.008175 7e-005 -0.025773 -3.05788 1.81428 -0.733988 
0.008174 -0.000179 -0.025841 -0.725228 -3.20616 -1.65684 
0.008794 -4.8e-005 -0.02221 -2.97202 -3.04175 0.377412 
0.008794 0.000203 -0.02221 -5.95542 -0.0636207 0.511337 
0.008523 -0.00018 -0.025835 2.16147 -2.93652 -1.13893 
0.009143 -4.8e-005 -0.02221 2.98152 -2.97542 -0.0978865 
0.008523 6.9e-005 -0.025767 -1.0782 0.968396 -1.95682 
0.009143 0.000203 -0.02221 -0.0151198 0.0252931 -0.171407 
0.009143 -4.8e-005 -0.005904 2.99824 -2.99862 0.13367 
0.008794 -4.8e-005 -0.005904 -8.85117e-006 -5.70503 0.81867 
0.008794 0.000203 -0.005904 -1.26129e-005 -5.11924 2.23289 
0.009143 0.000203 -0.005904 2.99647 -2.41352 1.56999 
0.007846 -0.000987 -0.011754 3.06987 1.04382 0.291727 
0.007592 -0.000814 -0.011754 -1.16488 4.01474 -0.249952 
0.006987 -0.000732 -0.010096 -2.63258 2.50545 -0.223237 
0.007321 -0.000662 -0.010096 1.46579 3.617 0.568485 
0.007621 -0.000761 -0 -0.495206 2.36288 3.41421 
0.007287 -0.000831 -0 -1.33846 1.58542 1 
0.007384 -0.001073 -0 -2.00146 -0.0520339 2.70711 
0.007718 -0.001003 -0 -0.435125 2.07621 3.12133 
0.007418 -0.000904 -0.010096 -0.00240478 0.817364 0.496572 
0.007084 -0.000974 -0.010096 -3.34485 1.20946 -0.308844 
0.007354 -0.000998 -0.011754 -1.87556 -0.874128 -0.128463 
0.007607 -0.00117 -0.011754 3.56066 -3.6661 0.57778 
0.007228 -0.001689 -0.022402 -2.23831 -3.04965 -2.15244 
0.007161 -0.001705 -0.022353 -1.8013 -1.40183 0.366962 
0.007127 -0.00165 -0.022365 -2.04582 1.23972 -1.75565 
0.007193 -0.001634 -0.022414 -0.794793 -0.0989088 -2.8373 
0.008639 -0.00103 -0.020244 0.738931 -4.59518 0.844533 
0.008871 -0.000852 -0.020342 0.620497 -0.204494 -1.98154 
0.008508 -0.000477 -0.016709 3.53475 0.130772 0.573252 
0.00827 -0.000659 -0.016679 3.70128 -4.68209 0.427603 
0.008618 -0.000679 -0.020336 -1.23813 4.05664 -1.66861 
0.008254 -0.000304 -0.016709 -0.168463 4.81527 -0.0433609 
0.008386 -0.000857 -0.020238 -1.11547 -0.21803 0.959047 
0.008017 -0.000487 -0.016679 -0.0258331 -0.0336597 -0.144978 
0.007287 -0.000831 -0.005904 -3.39818 1.81927 0.133079 
0.007621 -0.000761 -0.005904 -1.17022 5.58366 0.820407 
0.007718 -0.001003 -0.005904 -1.05005 5.01033 2.23462 
0.007384 -0.001073 -0.005904 -3.27662 1.24725 1.56707 
0.004117 0.000936 -0.011754 -2.35097 -1.452 0.980703 
0.004396 0.000785 -0.011754 1.57078 -3.77968 -0.267077 
0.005009 0.000753 -0.010096 2.79508 -2.11619 -0.228808 
0.004688 0.000656 -0.010096 0.157528 -3.92618 1.95421 
0.004375 0.00073 0 0.698334 -2.31101 3.41421 
0.004696 0.000827 0 1.44608 -1.41715 1 
0.004563 0.001059 0 1.93964 0.317815 2.70711 
0.004241 0.000962 0 0.613609 -2.03063 3.12132 
0.004554 0.000888 -0.010096 0.7357 -0.912724 1.1897 
0.004876 0.000985 -0.010096 3.43876 -0.751679 -0.316945 
0.004604 0.000987 -0.011754 1.82702 1.10529 -0.132022 
0.004325 0.001138 -0.011754 -2.61823 3.0863 1.96305 
0.004623 0.001684 -0.022402 1.94795 3.29109 -2.13383 
0.004686 0.001705 -0.022353 1.69632 1.61862 0.37541 
0.004729 0.001653 -0.022365 2.18714 -0.947751 -1.69935 
0.004666 0.001632 -0.022414 0.771792 0.199911 -2.81864 
0.003322 0.000915 -0.020244 -1.19899 4.46384 0.842245 
0.003119 0.00072 -0.020342 -0.646067 0.132381 -1.9803 
0.003537 0.000376 -0.016709 -3.5334 -0.520682 0.575048 
0.003745 0.000577 -0.016679 -4.21658 4.22085 0.445138 
0.003397 0.000568 -0.020336 1.65776 -3.8606 -1.66354 
0.003816 0.000225 -0.016709 0.677837 -4.7488 -0.0518993 
0.003599 0.000764 -0.020238 1.12094 0.364424 0.9748 
0.004024 0.000426 -0.016679 0.0173906 0.0333009 -0.148922 
0.004696 0.000827 -0.005904 3.46866 -1.37907 0.132845 
0.004375 0.00073 -0.005904 1.6502 -5.461 0.822509 
0.004241 0.000962 -0.005904 1.48075 -4.90026 2.23673 
0.004563 0.001059 -0.005904 3.29806 -0.819812 1.5645 
-0.002771 -1.1e-005 -0.011754 -1.9931 0.240709 -0.208011 
-0.002802 -0.000262 -0.011754 -2.24169 -3.15075 -0.0924883 
-0.002518 -0.000658 -0.010096 -0.420322 -4.2867 -0.211598 
-0.002801 -0.00051 -0.010096 -1.16005 -4.81162 -0.438184 
-0.002878 -0.000279 -0 -1.11286 -2.14242 3.41422 
-0.002595 -0.000426 -0 -0.211352 -2.47848 1 
-0.002392 -0.000221 -0 1.09518 -2.03476 2.70711 
-0.002674 -7.4e-005 -0 -0.977844 -1.8825 3.12133 
-0.002597 -0.000306 -0.010096 0.835072 -2.40519 0.0390415 
-0.002315 -0.000453 -0.010096 1.24509 -3.8043 -0.183556 
-0.002455 -0.000285 -0.011754 1.92803 -0.864901 -0.0395415 
-0.002424 -3.4e-005 -0.011754 2.11045 1.90402 -0.402127 
-0.001625 6.9e-005 -0.022402 3.65696 -0.509983 -1.96424 
-0.001567 4.1e-005 -0.022353 2.19006 -0.846892 0.506474 
-0.001606 -1.3e-005 -0.022365 0.478063 -2.63022 -1.96367 
-0.001664 1.5e-005 -0.022414 0.588955 -0.820712 -2.88009 
-0.003212 0.000468 -0.020244 2.58329 3.22654 1.05307 
-0.003548 0.00049 -0.020342 -0.310858 0.726887 -1.85602 
-0.003734 5.2e-005 -0.016709 -2.78867 3.34743 0.592075 
-0.003389 2.9e-005 -0.016679 0.326249 5.96791 0.368169 
-0.003581 0.000239 -0.020336 -1.87608 -3.31913 -1.74888 
-0.003765 -0.000199 -0.016709 -3.13207 -2.61482 -0.00246539 
-0.003245 0.000217 -0.020238 0.921642 -0.801293 0.984079 
-0.00342 -0.000222 -0.016679 0.0240033 0.00633085 -0.123519 
-0.002595 -0.000426 -0.005904 0.74615 -4.76948 0.132821 
-0.002878 -0.000279 -0.005904 -2.63331 -5.06051 0.828454 
-0.002674 -7.4e-005 -0.005904 -2.36329 -4.54066 2.24267 
-0.002392 -0.000221 -0.005904 1.01607 -4.25005 1.55851 
0.003222 -0.000973 -0.014667 -2.99849 -2.99883 -0.0133205 
0.00357 -0.000973 -0.014667 2.99702 -2.99942 -0.14333 
0.00382 -0.001129 -0.010096 2.99496 -2.99814 0.0334237 
0.003472 -0.001129 -0.010096 -1.99699 -3.99734 0.187248 
0.003222 -0.000973 -0 -7.18378e-006 -2.41421 3.41421 
0.00357 -0.000973 -0 0.999999 -2 1 
0.00357 -0.000721 -0 2 -0.707105 2.70711 
0.003222 -0.000721 -0 -7.80006e-006 -2.12132 3.12133 
0.003472 -0.000877 -0.010096 -0.998499 -0.999089 0.234676 
0.00382 -0.000877 -0.010096 2.99524 -0.999198 0.0587937 
0.00357 -0.000721 -0.014667 1.99851 1.99884 0.0136057 
0.003222 -0.000721 -0.014667 -4.99699 0.999431 0.143901 
0.003452 -0.001413 -0.030473 -0.152194 1.59107 -4.03306 
0.003489 -0.001375 -0.030473 0.790752 2.13367 -1.14963 
0.003542 -0.001401 -0.030473 2.0602 -0.673554 -1.70711 
0.003506 -0.00144 -0.030473 0.140005 -1.42238 -2.5467 
0.002603 -0.000855 -0.025773 -3.17471 2.21294 -0.696027 
0.002602 -0.001104 -0.025841 -0.973848 -2.1485 -2.33938 
0.003222 -0.000973 -0.02221 -2.97203 -3.04167 0.377415 
0.003222 -0.000721 -0.02221 -5.95542 -0.0634901 0.511342 
0.00295 -0.001105 -0.025835 3.11848 -2.52215 -0.793898 
0.00357 -0.000973 -0.02221 2.98159 -2.9775 -0.0976848 
0.002951 -0.000855 -0.025767 0.882705 1.28436 0.252584 
0.00357 -0.000721 -0.02221 -0.0149572 0.0211734 -0.171006 
0.00357 -0.000973 -0.005904 2.99823 -2.99862 0.133908 
0.003222 -0.000973 -0.005904 -8.87381e-006 -5.70503 0.81867 
0.003222 -0.000721 -0.005904 -1.26506e-005 -5.11924 2.23289 
0.00357 -0.000721 -0.005904 2.99645 -2.41352 1.57047 
0.001661 -0.000331 -0.014667 -3.49874 1.9449 0.0724672 
0.001745 -0.000576 -0.014667 -2.27035 -3.91666 0.248024 
0.001597 -0.000789 -0.010096 -2.30236 -3.92153 0.00573602 
0.001513 -0.000544 -0.010096 -4.42747 0.595743 0.0578032 
0.001661 -0.000331 -0 -2.28372 -0.782979 3.41421 
0.001745 -0.000576 -0 -1.71429 -1.63275 1 
0.002083 -0.000515 -0 -0.313676 -2.19753 2.70711 
0.001998 -0.00027 -0 -2.00665 -0.687985 3.12132 
0.001851 -0.000483 -0.010096 -1.26968 0.625408 0.217771 
0.001935 -0.000728 -0.010096 -0.41282 -3.27191 0.108821 
0.002083 -0.000515 -0.014667 2.24147 -1.31641 0.0515923 
0.001998 -0.00027 -0.014667 -0.238167 5.16923 -0.000316543 
0.000876 -0.000645 -0.027906 1.69686 0.832159 -3.94382 
0.000937 -0.000661 -0.027901 2.09155 0.0169193 -1.07926 
0.000914 -0.000705 -0.027904 -0.189024 -2.3614 -1.79199 
0.000854 -0.000689 -0.027909 -1.05757 -0.64857 -2.62987 
0.001026 1.6e-005 -0.023157 1.47324 4.02707 -0.728083 
0.000698 -4.3e-005 -0.023254 -2.03532 0.284121 -2.53969 
0.000722 -0.000501 -0.019622 -3.37848 1.9604 0.589101 
0.001059 -0.00044 -0.019592 -1.13212 5.86785 0.375015 
0.000781 -0.000287 -0.023248 -1.76496 -4.05887 -0.899622 
0.000807 -0.000745 -0.019622 -2.26802 -3.91323 -0.00732211 
0.001109 -0.000229 -0.023151 1.18291 -0.475955 0.211921 
0.001143 -0.000685 -0.019592 0.0147696 0.0108891 -0.1255 
0.001745 -0.000576 -0.005904 -2.30285 -3.92353 0.14332 
0.001661 -0.000331 -0.005904 -5.3951 -1.84974 0.856549 
0.001998 -0.00027 -0.005904 -4.84097 -1.65974 2.27077 
0.002083 -0.000515 -0.005904 -1.75007 -3.733 1.55141 
-0.008772 4e-005 -0.014667 -2.9984 -2.99885 -0.0112742 
-0.008424 4e-005 -0.014667 2.99702 -2.99943 -0.143112 
-0.008174 -0.000115 -0.010096 2.99496 -2.99817 0.0336223 
-0.008523 -0.000115 -0.010096 -1.99681 -3.99738 0.189971 
-0.008772 4e-005 0 -7.18378e-006 -2.41421 3.41421 
-0.008424 4e-005 0 0.999999 -2 1 
-0.008424 0.000292 0 2 -0.707105 2.70711 
-0.008772 0.000292 0 -7.80006e-006 -2.12132 3.12133 
-0.008523 0.000137 -0.010096 -0.99841 -0.9991 0.235135 
-0.008174 0.000137 -0.010096 2.99524 -0.999209 0.0580993 
-0.008424 0.000292 -0.014667 1.99851 1.99886 0.0131691 
-0.008772 0.000292 -0.014667 -4.99681 0.999439 0.146901 
-0.008542 -0.0004 -0.030473 -0.153021 1.59105 -4.03308 
-0.008506 -0.000361 -0.030473 0.789725 2.13717 -1.15016 
-0.008453 -0.000387 -0.030473 2.05913 -0.666449 -1.70824 
-0.008489 -0.000426 -0.030473 0.139715 -1.42231 -2.54701 
-0.009392 0.000159 -0.025773 -3.17526 2.20705 -0.695526 
-0.009392 -9.1e-005 -0.025841 -0.974358 -2.15035 -2.33925 
-0.008772 4e-005 -0.02221 -2.97188 -3.04556 0.3778 
-0.008772 0.000292 -0.02221 -5.95519 -0.069329 0.511918 
-0.009044 -9.2e-005 -0.025835 3.11779 -2.51455 -0.795057 
-0.008424 4e-005 -0.02221 2.98151 -2.97551 -0.0978821 
-0.009044 0.000158 -0.025767 0.881462 1.28955 0.251836 
-0.008424 0.000292 -0.02221 -0.015038 0.0232044 -0.171208 
-0.008424 4e-005 -0.005904 2.99823 -2.99863 0.133431 
-0.008772 4e-005 -0.005904 -8.87381e-006 -5.70506 0.817956 
-0.008772 0.000292 -0.005904 -1.26506e-005 -5.11927 2.23217 
-0.008424 0.000292 -0.005904 2.99645 -2.41353 1.57023 
-0.005461 -0.000401 -0.014667 3.34839 -0.111805 -0.799033 
-0.005656 -0.000193 -0.014667 0.842803 4.72543 0.212061 
-0.005619 4.4e-005 -0.010096 0.862447 4.74253 0.0128448 
-0.005423 -0.000164 -0.010096 3.49133 2.01377 -1.67827 
-0.005461 -0.000401 -0 1.76126 1.65117 3.41421 
-0.005656 -0.000193 -0 1.01936 2.26602 1 
-0.005944 -0.000334 -0 -0.363566 2.27989 2.70711 
-0.005748 -0.000543 -0 1.54758 1.45085 3.12133 
-0.005711 -0.000306 -0.010096 1.01755 0.322312 -0.668019 
-0.005907 -9.8e-005 -0.010096 -0.59377 3.37394 0.0927203 
-0.005944 -0.000334 -0.014667 -2.33498 0.426774 0.0401803 
-0.005748 -0.000543 -0.014667 1.17819 -4.0981 -1.73031 
-0.004873 8.9e-005 -0.027906 -1.26201 -1.45239 -3.92807 
-0.004938 8.9e-005 -0.027901 -1.85367 -0.768318 -1.05373 
-0.004938 0.000136 -0.027904 -0.570458 2.34168 -1.77887 
-0.004873 0.000135 -0.027909 0.730232 0.975019 -2.63407 
-0.004699 -0.000569 -0.023157 -0.111087 -4.45706 -0.68069 
-0.00442 -0.000432 -0.023254 1.85689 0.477694 -2.52311 
-0.00466 -8e-006 -0.019622 3.53014 -0.618472 0.576375 
-0.004947 -0.000149 -0.019592 2.70952 -5.32241 0.403165 
-0.004614 -0.000223 -0.023248 0.333699 4.59848 -0.914632 
-0.004856 0.0002 -0.019622 0.836675 4.71411 -0.0270741 
-0.004894 -0.00036 -0.023151 -1.21171 0.0415439 0.244432 
-0.005143 5.9e-005 -0.019592 -0.0156065 -0.0181488 -0.133866 
-0.005656 -0.000193 -0.005904 0.865457 4.74511 0.137077 
-0.005461 -0.000401 -0.005904 4.15869 3.90402 0.842684 
-0.005748 -0.000543 -0.005904 3.73134 3.50337 2.2569 
-0.005944 -0.000334 -0.005904 0.438949 4.34263 1.55279 
3 0 1 2 
3 0 2 3 
3 4 5 6 
3 4 6 7 
3 8 9 10 
3 8 10 11 
3 12 13 14 
3 12 14 15 
3 1 10 9 
3 1 9 2 
3 11 0 3 
3 11 3 8 
3 16 17 18 
3 16 18 19 
3 17 20 21 
3 17 21 18 
3 20 22 23 
3 20 23 21 
3 19 23 22 
3 19 22 16 
3 13 12 20 
3 13 20 17 
3 12 15 22 
3 12 22 20 
3 16 22 15 
3 16 15 14 
3 14 13 17 
3 14 17 16 
3 3 2 24 
3 3 24 25 
3 8 3 25 
3 8 25 26 
3 26 27 9 
3 26 9 8 
3 2 9 27 
3 2 27 24 
3 19 18 0 
3 19 0 11 
3 18 21 1 
3 18 1 0 
3 21 23 10 
3 21 10 1 
3 11 10 23 
3 11 23 19 
3 25 24 5 
3 25 5 4 
3 26 25 4 
3 26 4 7 
3 7 6 27 
3 7 27 26 
3 24 27 6 
3 24 6 5 
3 28 29 30 
3 28 30 31 
3 32 33 34 
3 32 34 35 
3 36 37 38 
3 36 38 39 
3 40 41 42 
3 40 42 43 
3 29 38 37 
3 29 37 30 
3 39 28 31 
3 39 31 36 
3 44 45 46 
3 44 46 47 
3 45 48 49 
3 45 49 46 
3 48 50 51 
3 48 51 49 
3 47 51 50 
3 47 50 44 
3 43 42 48 
3 43 48 45 
3 42 41 50 
3 42 50 48 
3 44 50 41 
3 44 41 40 
3 40 43 45 
3 40 45 44 
3 31 30 52 
3 31 52 53 
3 36 31 53 
3 36 53 54 
3 54 55 37 
3 54 37 36 
3 30 37 55 
3 30 55 52 
3 47 46 28 
3 47 28 39 
3 46 49 29 
3 46 29 28 
3 49 51 38 
3 49 38 29 
3 39 38 51 
3 39 51 47 
3 53 52 33 
3 53 33 32 
3 54 53 32 
3 54 32 35 
3 35 34 55 
3 35 55 54 
3 52 55 34 
3 52 34 33 
3 56 57 58 
3 56 58 59 
3 60 61 62 
3 60 62 63 
3 64 65 66 
3 64 66 67 
3 68 69 70 
3 68 70 71 
3 57 66 65 
3 57 65 58 
3 67 56 59 
3 67 59 64 
3 72 73 74 
3 72 74 75 
3 73 76 77 
3 73 77 74 
3 76 78 79 
3 76 79 77 
3 75 79 78 
3 75 78 72 
3 71 70 76 
3 71 76 73 
3 70 69 78 
3 70 78 76 
3 72 78 69 
3 72 69 68 
3 68 71 73 
3 68 73 72 
3 59 58 80 
3 59 80 81 
3 64 59 81 
3 64 81 82 
3 82 83 65 
3 82 65 64 
3 58 65 83 
3 58 83 80 
3 75 74 56 
3 75 56 67 
3 74 77 57 
3 74 57 56 
3 77 79 66 
3 77 66 57 
3 67 66 79 
3 67 79 75 
3 81 80 61 
3 81 61 60 
3 82 81 60 
3 82 60 63 
3 63 62 83 
3 63 83 82 
3 80 83 62 
3 80 62 61 
3 84 85 86 
3 84 86 87 
3 88 89 90 
3 88 90 91 
3 92 93 94 
3 92 94 95 
3 96 97 98 
3 96 98 99 
3 85 94 93 
3 85 93 86 
3 95 84 87 
3 95 87 92 
3 100 101 102 
3 100 102 103 
3 101 104 105 
3 101 105 102 
3 104 106 107 
3 104 107 105 
3 103 107 106 
3 103 106 100 
3 99 98 104 
3 99 104 101 
3 98 97 106 
3 98 106 104 
3 100 106 97 
3 100 97 96 
3 96 99 101 
3 96 101 100 
3 87 86 108 
3 87 108 109 
3 92 87 109 
3 92 109 110 
3 110 111 93 
3 110 93 92 
3 86 93 111 
3 86 111 108 
3 103 102 84 
3 103 84 95 
3 102 105 85 
3 102 85 84 
3 105 107 94 
3 105 94 85 
3 95 94 107 
3 95 107 103 
3 109 108 89 
3 109 89 88 
3 110 109 88 
3 110 88 91 
3 91 90 111 
3 91 111 110 
3 108 111 90 
3 108 90 89 
3 112 113 114 
3 112 114 115 
3 116 117 118 
3 116 118 119 
3 120 121 122 
3 120 122 123 
3 124 125 126 
3 124 126 127 
3 113 122 121 
3 113 121 114 
3 123 112 115 
3 123 115 120 
3 128 129 130 
3 128 130 131 
3 129 132 133 
3 129 133 130 
3 132 134 135 
3 132 135 133 
3 131 135 134 
3 131 134 128 
3 127 126 132 
3 127 132 129 
3 126 125 134 
3 126 134 132 
3 128 134 125 
3 128 125 124 
3 124 127 129 
3 124 129 128 
3 115 114 136 
3 115 136 137 
3 120 115 137 
3 120 137 138 
3 138 139 121 
3 138 121 120 
3 114 121 139 
3 114 139 136 
3 131 130 112 
3 131 112 123 
3 130 133 113 
3 130 113 112 
3 133 135 122 
3 133 122 113 
3 123 122 135 
3 123 135 131 
3 137 136 117 
3 137 117 116 
3 138 137 116 
3 138 116 119 
3 119 118 139 
3 119 139 138 
3 136 139 118 
3 136 118 117 
3 140 141 142 
3 140 142 143 
3 144 145 146 
3 144 146 147 
3 148 149 150 
3 148 150 151 
3 152 153 154 
3 152 154 155 
3 141 150 149 
3 141 149 142 
3 151 140 143 
3 151 143 148 
3 156 157 158 
3 156 158 159 
3 157 160 161 
3 157 161 158 
3 160 162 163 
3 160 163 161 
3 159 163 162 
3 159 162 156 
3 155 154 160 
3 155 160 157 
3 154 153 162 
3 154 162 160 
3 156 162 153 
3 156 153 152 
3 152 155 157 
3 152 157 156 
3 143 142 164 
3 143 164 165 
3 148 143 165 
3 148 165 166 
3 166 167 149 
3 166 149 148 
3 142 149 167 
3 142 167 164 
3 159 158 140 
3 159 140 151 
3 158 161 141 
3 158 141 140 
3 161 163 150 
3 161 150 141 
3 151 150 163 
3 151 163 159 
3 165 164 145 
3 165 145 144 
3 166 165 144 
3 166 144 147 
3 147 146 167 
3 147 167 166 
3 164 167 146 
3 164 146 145 
3 168 169 170 
3 168 170 171 
3 172 173 174 
3 172 174 175 
3 176 177 178 
3 176 178 179 
3 180 181 182 
3 180 182 183 
3 169 178 177 
3 169 177 170 
3 179 168 171 
3 179 171 176 
3 184 185 186 
3 184 186 187 
3 185 188 189 
3 185 189 186 
3 188 190 191 
3 188 191 189 
3 187 191 190 
3 187 190 184 
3 183 182 188 
3 183 188 185 
3 182 181 190 
3 182 190 188 
3 184 190 181 
3 184 181 180 
3 180 183 185 
3 180 185 184 
3 171 170 192 
3 171 192 193 
3 176 171 193 
3 176 193 194 
3 194 195 177 
3 194 177 176 
3 170 177 195 
3 170 195 192 
3 187 186 168 
3 187 168 179 
3 186 189 169 
3 186 169 168 
3 189 191 178 
3 189 178 169 
3 179 178 191 
3 179 191 187 
3 193 192 173 
3 193 173 172 
3 194 193 172 
3 194 172 175 
3 175 174 195 
3 175 195 194 
3 192 195 174 
3 192 174 173 
3 196 197 198 
3 196 198 199 
3 200 201 202 
3 200 202 203 
3 204 205 206 
3 204 206 207 
3 208 209 210 
3 208 210 211 
3 197 206 205 
3 197 205 198 
3 207 196 199 
3 207 199 204 
3 212 213 214 
3 212 214 215 
3 213 216 217 
3 213 217 214 
3 216 218 219 
3 216 219 217 
3 215 219 218 
3 215 218 212 
3 211 210 216 
3 211 216 213 
3 210 209 218 
3 210 218 216 
3 212 218 209 
3 212 209 208 
3 208 211 213 
3 208 213 212 
3 199 198 220 
3 199 220 221 
3 204 199 221 
3 204 221 222 
3 222 223 205 
3 222 205 204 
3 198 205 223 
3 198 223 220 
3 215 214 196 
3 215 196 207 
3 214 217 197 
3 214 197 196 
3 217 219 206 
3 217 206 197 
3 207 206 219 
3 207 219 215 
3 221 220 201 
3 221 201 200 
3 222 221 200 
3 222 200 203 
3 203 202 223 
3 203 223 222 
3 220 223 202 
3 220 202 201 
