ply
format ascii 1.0
comment VCGLIB generated
element vertex 280
property float x
property float y
property float z
property float nx
property float ny
property float nz
element face 520
property list uchar int vertex_indices
end_header
-0.01034 -0.001037 -0.014667 -2.99843 -2.99779 -0.0378501 
-0.009992 -0.001037 -0.014667 2.99702 -2.9989 -0.156206 
-0.009742 -0.001252 -0.010096 2.99496 -2.99648 0.0217057 
-0.01009 -0.001252 -0.010096 -1.99685 -3.99496 0.218913 
-0.01034 -0.001037 -0 -9.92045e-006 -2.41421 3.41421 
-0.009992 -0.001037 -0 0.999998 -2 1 
-0.009992 -0.000689 -0 1.99999 -0.707105 2.70711 
-0.01034 -0.000689 -0 -1.07715e-005 -2.12132 3.12133 
-0.01009 -0.000904 -0.010096 -0.998435 -0.998271 0.303747 
-0.009742 -0.000904 -0.010096 2.99524 -0.998479 0.0997348 
-0.009992 -0.000689 -0.014667 1.99851 1.9978 0.0393566 
-0.01034 -0.000689 -0.014667 -4.99685 0.998909 0.159218 
-0.01002 -0.001628 -0.030473 0.131575 -0.984745 -3.88613 
-0.010056 -0.001681 -0.030473 0.262031 -2.11485 -1.76165 
-0.01011 -0.001645 -0.030473 -0.133864 0.685202 -4.15266 
-0.010073 -0.001591 -0.030473 -0.263275 1.95185 -2.34781 
-0.010959 -0.000873 -0.025773 -3.22013 1.76057 -0.825798 
-0.01096 -0.001218 -0.025841 -0.859635 -3.28824 -1.59386 
-0.01034 -0.001037 -0.02221 -2.97236 -3.02934 0.391208 
-0.01034 -0.000689 -0.02221 -5.95574 -0.0459029 0.511387 
-0.010612 -0.001219 -0.025835 2.23167 -2.93756 -1.06347 
-0.009992 -0.001037 -0.02221 2.98146 -2.98213 -0.0701772 
-0.010611 -0.000874 -0.025767 -1.11693 0.960651 -2.00372 
-0.009992 -0.000689 -0.02221 -0.0148532 0.0153714 -0.171026 
-0.009992 -0.001037 -0.005904 2.99822 -2.99737 0.161973 
-0.01034 -0.001037 -0.005904 -1.22543e-005 -5.70317 0.860769 
-0.01034 -0.000689 -0.005904 -1.74698e-005 -5.11738 2.27499 
-0.009992 -0.000689 -0.005904 2.99644 -2.4129 1.5845 
-0.007892 -0.004534 -0.014667 3.55775 -0.021363 -0.901561 
-0.008088 -0.004246 -0.014667 0.766316 4.14532 0.227335 
-0.00805 -0.003918 -0.010096 0.797116 4.16093 0.0215606 
-0.007855 -0.004206 -0.010096 3.24693 2.16293 -1.89071 
-0.007892 -0.004534 -0 1.99586 1.35829 3.41421 
-0.008088 -0.004246 -0 1.09277 1.9533 1 
-0.008376 -0.004441 -0 -0.536739 2.05393 2.70711 
-0.00818 -0.004729 -0 1.75372 1.1935 3.12133 
-0.008143 -0.004402 -0.010096 0.796735 0.520255 -0.75109 
-0.008338 -0.004114 -0.010096 -0.856145 3.039 0.0998569 
-0.008376 -0.004441 -0.014667 -2.77507 0.531699 0.0394775 
-0.00818 -0.004729 -0.014667 0.799068 -3.12463 -1.95113 
-0.007305 -0.003857 -0.027906 -1.45117 -1.20185 -3.95091 
-0.007369 -0.003857 -0.027901 -2.21241 -0.61791 -1.0604 
-0.007369 -0.003792 -0.027904 -0.705715 2.08134 -1.73328 
-0.007305 -0.003792 -0.027909 0.893378 0.864073 -2.62896 
-0.007131 -0.004765 -0.023157 -0.0280835 -3.94352 -0.608012 
-0.006851 -0.004576 -0.023254 2.18287 0.343485 -2.4995 
-0.007092 -0.00399 -0.019622 4.16791 -0.758698 0.684849 
-0.007379 -0.004185 -0.019592 3.41895 -4.87736 0.505297 
-0.007046 -0.004287 -0.023248 0.266854 4.04177 -0.957008 
-0.007288 -0.003702 -0.019622 0.763055 4.12607 -0.0478425 
-0.007325 -0.004477 -0.023151 -1.46189 0.0446604 0.307903 
-0.007575 -0.003897 -0.019592 -0.0203161 -0.0319461 -0.16943 
-0.008088 -0.004246 -0.005904 0.797333 4.16645 0.162001 
-0.007892 -0.004534 -0.005904 4.71688 3.20579 0.860944 
-0.00818 -0.004729 -0.005904 4.2326 2.8762 2.27516 
-0.008376 -0.004441 -0.005904 0.313485 3.83645 1.58438 
-0.005202 -0.003995 -0.011754 -3.03139 2.12517 0.287732 
-0.005234 -0.004342 -0.011754 -2.14781 -2.98767 -0.216216 
-0.00495 -0.004888 -0.010096 -0.377511 -3.6789 -0.254985 
-0.005232 -0.004684 -0.010096 -3.50145 -1.105 0.597443 
-0.005309 -0.004364 -0 -1.41046 -1.95934 3.41421 
-0.005027 -0.004567 -0 -0.356869 -2.20741 1 
-0.004824 -0.004285 -0 1.21006 -1.74233 2.70711 
-0.005106 -0.004082 -0 -1.23934 -1.72163 3.12133 
-0.005029 -0.004402 -0.010096 -0.361943 -0.731318 0.587091 
-0.004746 -0.004605 -0.010096 1.35072 -3.54549 -0.268546 
-0.004887 -0.004373 -0.011754 2.12577 -1.04476 -0.0887029 
-0.004856 -0.004026 -0.011754 0.337073 5.13894 0.612408 
-0.004057 -0.003884 -0.022402 3.66477 -0.36763 -2.01073 
-0.003998 -0.003922 -0.022353 2.22248 -0.872525 0.554332 
-0.004037 -0.003997 -0.022365 0.510013 -2.43298 -1.89233 
-0.004096 -0.003959 -0.022414 0.580387 -0.60083 -2.9294 
-0.005643 -0.003333 -0.020244 2.64348 3.13639 1.18667 
-0.00598 -0.003302 -0.020342 -0.310601 0.788133 -1.85405 
-0.006166 -0.003907 -0.016709 -2.74104 3.23278 0.684829 
-0.00582 -0.003939 -0.016679 0.449538 5.9394 0.505399 
-0.006013 -0.003648 -0.020336 -1.90453 -3.20505 -1.8127 
-0.006197 -0.004254 -0.016709 -3.20407 -2.70404 -0.0487431 
-0.005677 -0.003679 -0.020238 0.977163 -0.839595 1.13712 
-0.005852 -0.004285 -0.016679 0.0356045 0.0117823 -0.169606 
-0.005027 -0.004567 -0.005904 0.680089 -4.18319 0.161946 
-0.005309 -0.004364 -0.005904 -3.3348 -4.62658 0.860653 
-0.005106 -0.004082 -0.005904 -2.99257 -4.15116 2.27487 
-0.004824 -0.004285 -0.005904 1.02087 -3.70873 1.58456 
0.00479 -0.000431 -0.014667 -2.99843 -2.99779 -0.0378501 
0.005138 -0.000431 -0.014667 2.99702 -2.9989 -0.156206 
0.005388 -0.000646 -0.010096 2.99496 -2.99648 0.0217058 
0.00504 -0.000646 -0.010096 -1.99685 -3.99496 0.218913 
0.00479 -0.000431 -0 -9.92045e-006 -2.41421 3.41421 
0.005138 -0.000431 -0 0.999998 -2 1 
0.005138 -8.3e-005 -0 1.99999 -0.707105 2.70711 
0.00479 -8.3e-005 -0 -1.07715e-005 -2.12132 3.12133 
0.00504 -0.000298 -0.010096 -0.998435 -0.998271 0.303747 
0.005388 -0.000298 -0.010096 2.99524 -0.998479 0.0997347 
0.005138 -8.3e-005 -0.014667 1.99851 1.9978 0.0393565 
0.00479 -8.3e-005 -0.014667 -4.99685 0.998909 0.159218 
0.00502 -0.001039 -0.030473 -0.19598 1.51867 -4.09764 
0.005056 -0.000986 -0.030473 0.728114 2.07368 -1.24275 
0.00511 -0.001022 -0.030473 2.1079 -0.741995 -1.67622 
0.005073 -0.001076 -0.030473 0.200968 -1.45281 -2.51315 
0.00417 -0.000267 -0.025773 -3.24778 2.17346 -0.797464 
0.00417 -0.000612 -0.025841 -0.954938 -2.2114 -2.31814 
0.00479 -0.000431 -0.02221 -2.97224 -3.03222 0.391608 
0.00479 -8.3e-005 -0.02221 -5.95556 -0.0502239 0.511987 
0.004518 -0.000613 -0.025835 3.18971 -2.56801 -0.738059 
0.005138 -0.000431 -0.02221 2.9814 -2.98069 -0.070378 
0.004518 -0.000268 -0.025767 0.859448 1.20194 0.206131 
0.005138 -8.3e-005 -0.02221 -0.0149117 0.0168144 -0.171228 
0.005138 -0.000431 -0.005904 2.99822 -2.99737 0.161973 
0.00479 -0.000431 -0.005904 -1.22543e-005 -5.70317 0.860769 
0.00479 -8.3e-005 -0.005904 -1.74698e-005 -5.11738 2.27499 
0.005138 -8.3e-005 -0.005904 2.99644 -2.4129 1.5845 
0.003228 0.000456 -0.014667 -3.13149 0.245665 0.0543676 
0.003313 0.000118 -0.014667 -2.14398 -3.62739 0.226924 
0.003165 -0.000176 -0.010096 -2.17757 -3.63584 0.0215725 
0.00308 0.000162 -0.010096 -3.38533 -2.91165 0.0196979 
0.003228 0.000456 0 -2.34132 -0.588783 3.41421 
0.003313 0.000118 0 -1.69504 -1.4574 1 
0.00365 0.000203 0 -0.196622 -2.11171 2.70711 
0.003566 0.00054 0 -2.05726 -0.517349 3.12133 
0.003418 0.000246 -0.010096 -0.722443 -1.21685 0.204137 
0.003502 -9.2e-005 -0.010096 -0.239247 -3.15119 0.0998575 
0.00365 0.000203 -0.014667 2.42473 -1.45599 0.0391315 
0.003566 0.00054 -0.014667 0.728655 1.21383 -0.0396071 
0.002444 2.3e-005 -0.027906 1.77634 0.624282 -3.95116 
0.002504 1e-006 -0.027901 2.28654 -0.184465 -1.06032 
0.002482 -6e-005 -0.027904 -0.0615569 -2.20063 -1.73256 
0.002421 -3.8e-005 -0.027909 -1.13591 -0.507467 -2.62836 
0.002594 0.000936 -0.023157 1.38185 3.68824 -0.60812 
0.002266 0.000855 -0.023254 -2.1686 0.427186 -2.49919 
0.00229 0.000221 -0.019622 -3.65603 2.14927 0.685253 
0.002626 0.000306 -0.019592 -1.53754 5.75446 0.506431 
0.002349 0.000517 -0.023248 -1.65046 -3.70596 -0.956064 
0.002374 -0.000116 -0.019622 -2.13811 -3.60753 -0.0485117 
0.002677 0.000598 -0.023151 1.34586 -0.549937 0.308319 
0.002711 -3.2e-005 -0.019592 0.0227528 0.0209644 -0.16908 
0.003313 0.000118 -0.005904 -2.17495 -3.63854 0.162004 
0.003228 0.000456 -0.005904 -5.53095 -1.39091 0.860935 
0.003566 0.00054 -0.005904 -4.96285 -1.24804 2.27515 
0.00365 0.000203 -0.005904 -1.6099 -3.49461 1.5844 
0.005684 0.002207 -0.011754 -1.4659 -1.66306 -0.217095 
0.005963 0.001999 -0.011754 1.42009 -3.39624 -0.217796 
0.006577 0.001954 -0.010096 2.94156 -2.24893 -0.258284 
0.006256 0.00182 -0.010096 2.9631 -3.95366 -0.407136 
0.005942 0.001922 0 0.927551 -2.22892 3.41421 
0.006264 0.002056 0 1.69124 -1.46127 1 
0.00613 0.002377 0 2.11731 0.117622 2.70711 
0.005809 0.002244 0 0.815017 -1.9585 3.12133 
0.006122 0.002141 -0.010096 2.36643 -0.88777 0.0852937 
0.006443 0.002275 -0.010096 3.73118 -0.707345 -0.269258 
0.006171 0.002277 -0.011754 2.00786 1.26076 -0.0887032 
0.005893 0.002486 -0.011754 -0.34376 2.58941 -0.391522 
0.00619 0.003241 -0.022402 2.23897 2.93091 -2.00642 
0.006254 0.00327 -0.022353 1.90999 1.43436 0.554368 
0.006297 0.003198 -0.022365 2.3402 -0.841675 -1.89229 
0.006234 0.003168 -0.022414 0.8175 0.182378 -2.92755 
0.004889 0.002179 -0.020244 -1.28295 3.89609 1.18809 
0.004686 0.001909 -0.020342 -0.83538 0.152468 -1.8523 
0.005105 0.001433 -0.016709 -4.19076 -0.636625 0.685417 
0.005313 0.00171 -0.016679 -4.81967 3.4996 0.505656 
0.004964 0.001699 -0.020336 1.72706 -3.30276 -1.81431 
0.005383 0.001224 -0.016709 0.617771 -4.1463 -0.0476454 
0.005167 0.001969 -0.020238 1.22629 0.38782 1.13464 
0.005591 0.001502 -0.016679 0.00822675 0.0357901 -0.169458 
0.006264 0.002056 -0.005904 3.91947 -1.61189 0.161752 
0.005942 0.001922 -0.005904 2.19272 -5.26481 0.860597 
0.005809 0.002244 -0.005904 1.96765 -4.72398 2.27481 
0.00613 0.002377 -0.005904 3.69276 -1.07317 1.58423 
0.009413 -0.005615 -0.011754 1.63639 1.50085 -0.159011 
0.009159 -0.005377 -0.011754 -1.03074 3.53725 -0.216742 
0.008554 -0.005264 -0.010096 -2.67078 2.56657 -0.2571 
0.008888 -0.005167 -0.010096 -2.52248 4.27582 -0.2948 
0.009188 -0.005303 -0 -0.673304 2.31842 3.41421 
0.008854 -0.0054 -0 -1.51833 1.64252 1 
0.008951 -0.005735 -0 -2.11829 0.122794 2.70711 
0.009285 -0.005637 -0 -0.591615 2.03715 3.12133 
0.008986 -0.005501 -0.010096 -2.26227 1.15471 0.140589 
0.008651 -0.005598 -0.010096 -3.62829 1.12279 -0.269366 
0.008921 -0.00563 -0.011754 -2.13215 -1.02354 -0.0879098 
0.009175 -0.005869 -0.011754 0.0365282 -2.59008 -0.277994 
0.008795 -0.006586 -0.022402 -2.55479 -2.66408 -2.00363 
0.008729 -0.006608 -0.022353 -2.05915 -1.21539 0.556516 
0.008694 -0.006532 -0.022365 -2.23614 1.0927 -1.88789 
0.00876 -0.006509 -0.022414 -0.837071 -0.0895681 -2.92578 
0.010206 -0.005675 -0.020244 0.843123 -4.01107 1.18763 
0.010438 -0.005429 -0.020342 0.808486 -0.240217 -1.85171 
0.010075 -0.00491 -0.016709 4.23754 0.171199 0.685018 
0.009838 -0.005163 -0.016679 4.40766 -4.00646 0.506046 
0.010185 -0.00519 -0.020336 -1.35272 3.47529 -1.81285 
0.009822 -0.004672 -0.016709 -0.151819 4.19456 -0.0473998 
0.009954 -0.005436 -0.020238 -1.2613 -0.249947 1.13649 
0.009584 -0.004924 -0.016679 -0.00634885 -0.0284827 -0.168544 
0.008854 -0.0054 -0.005904 -3.71578 2.04419 0.161654 
0.009188 -0.005303 -0.005904 -1.59059 5.4769 0.86025 
0.009285 -0.005637 -0.005904 -1.42721 4.91436 2.27447 
0.008951 -0.005735 -0.005904 -3.55094 1.48301 1.58438 
0.010362 -0.004318 -0.014667 -2.99843 -2.99779 -0.0378501 
0.01071 -0.004318 -0.014667 2.99702 -2.9989 -0.156206 
0.01096 -0.004533 -0.010096 2.99496 -2.99648 0.0217057 
0.010612 -0.004533 -0.010096 -1.99685 -3.99496 0.218913 
0.010362 -0.004318 -0 -9.92045e-006 -2.41421 3.41421 
0.01071 -0.004318 -0 0.999998 -2 1 
0.01071 -0.00397 -0 1.99999 -0.707105 2.70711 
0.010362 -0.00397 -0 -1.07715e-005 -2.12132 3.12133 
0.010612 -0.004185 -0.010096 -0.998435 -0.998271 0.303747 
0.01096 -0.004185 -0.010096 2.99524 -0.998479 0.0997348 
0.01071 -0.00397 -0.014667 1.99851 1.9978 0.0393566 
0.010362 -0.00397 -0.014667 -4.99685 0.998909 0.159218 
0.010592 -0.004926 -0.030473 -0.196029 1.519 -4.09736 
0.010628 -0.004873 -0.030473 0.728097 2.07375 -1.24233 
0.010682 -0.004909 -0.030473 2.10791 -0.742029 -1.67638 
0.010645 -0.004963 -0.030473 0.200946 -1.45262 -2.5134 
0.009742 -0.004155 -0.025773 -3.24781 2.17368 -0.797006 
0.009742 -0.0045 -0.025841 -0.954991 -2.21101 -2.31758 
0.010362 -0.004318 -0.02221 -2.97224 -3.03221 0.391892 
0.010362 -0.00397 -0.02221 -5.95556 -0.0502253 0.512 
0.01009 -0.004501 -0.025835 3.1897 -2.56795 -0.738055 
0.01071 -0.004318 -0.02221 2.98139 -2.98066 -0.0698324 
0.01009 -0.004156 -0.025767 0.859437 1.20196 0.206389 
0.01071 -0.00397 -0.02221 -0.0149126 0.0168149 -0.171232 
0.01071 -0.004318 -0.005904 2.99822 -2.99737 0.161973 
0.010362 -0.004318 -0.005904 -1.22543e-005 -5.70317 0.860769 
0.010362 -0.00397 -0.005904 -1.74698e-005 -5.11738 2.27499 
0.01071 -0.00397 -0.005904 2.99644 -2.4129 1.5845 
-0.002213 0.003403 -0.014667 -2.99874 -2.99779 -0.04368 
-0.001865 0.003403 -0.014667 2.99702 -2.9989 -0.156206 
-0.001615 0.003188 -0.010096 2.99496 -2.99648 0.0217058 
-0.001964 0.003188 -0.010096 -1.99748 -3.99496 0.207253 
-0.002213 0.003403 0 -9.92045e-006 -2.41421 3.41421 
-0.001865 0.003403 0 0.999998 -2 1 
-0.001865 0.003751 0 1.99999 -0.707105 2.70711 
-0.002213 0.003751 0 -1.07715e-005 -2.12132 3.12133 
-0.001964 0.003536 -0.010096 -0.998745 -0.998271 0.297917 
-0.001615 0.003536 -0.010096 2.99524 -0.998479 0.0997347 
-0.001865 0.003751 -0.014667 1.99851 1.9978 0.0393565 
-0.002213 0.003751 -0.014667 -4.99747 0.998909 0.147558 
-0.001983 0.002795 -0.030473 -0.200365 1.51855 -4.09733 
-0.001947 0.002848 -0.030473 0.728097 2.07375 -1.24233 
-0.001893 0.002812 -0.030473 2.1054 -0.742395 -1.67664 
-0.00193 0.002758 -0.030473 0.19438 -1.45338 -2.51374 
-0.002833 0.003566 -0.025773 -3.24998 2.17338 -0.796996 
-0.002833 0.003222 -0.025841 -0.964093 -2.21164 -2.31744 
-0.002213 0.003403 -0.02221 -2.97368 -3.03225 0.391997 
-0.002213 0.003751 -0.02221 -5.95556 -0.0502975 0.511997 
-0.002485 0.00322 -0.025835 3.18387 -2.56848 -0.738309 
-0.001865 0.003403 -0.02221 2.97852 -2.98065 -0.069618 
-0.002485 0.003565 -0.025767 0.859437 1.20191 0.206387 
-0.001865 0.003751 -0.02221 -0.0149124 0.0167908 -0.171234 
-0.001865 0.003403 -0.005904 2.99822 -2.99737 0.161973 
-0.002213 0.003403 -0.005904 -1.22543e-005 -5.70317 0.860769 
-0.002213 0.003751 -0.005904 -1.74698e-005 -5.11738 2.27499 
-0.001865 0.003751 -0.005904 2.99644 -2.4129 1.5845 
-0.002505 0.00557 -0.014667 -1.19928 2.90353 0.0381813 
-0.002767 0.005341 -0.014667 -4.20669 0.267984 0.226828 
-0.003097 0.00534 -0.010096 -4.22851 0.29619 0.0216968 
-0.002834 0.005568 -0.010096 -4.12639 1.69973 -0.0128989 
-0.002505 0.00557 0 -1.58878 1.81775 3.41421 
-0.002767 0.005341 0 -2.07055 0.849403 1 
-0.002539 0.005079 0 -1.97406 -0.780522 2.70711 
-0.002276 0.005307 0 -1.39602 1.59721 3.12133 
-0.002606 0.005305 -0.010096 -1.41019 0.0935393 0.187786 
-0.002869 0.005077 -0.010096 -2.91842 -1.21234 0.0997329 
-0.002539 0.005079 -0.014667 -0.199653 -2.82066 0.0390392 
-0.002276 0.005307 -0.014667 1.41367 -0.0985647 -0.0721358 
-0.003246 0.006073 -0.027905 1.39224 -1.26804 -3.95135 
-0.003239 0.006009 -0.027901 0.879077 -2.11568 -1.06018 
-0.003303 0.006001 -0.027904 -1.97053 -0.924924 -1.7333 
-0.00331 0.006065 -0.027909 -0.941666 0.809757 -2.62962 
-0.002364 0.006353 -0.023157 3.92122 0.44646 -0.607988 
-0.002585 0.006608 -0.023254 -0.577456 2.15248 -2.49971 
-0.003139 0.0063 -0.019622 0.25878 4.2326 0.685399 
-0.002911 0.006038 -0.019592 4.43275 3.97854 0.506492 
-0.002849 0.006381 -0.023248 -4.03843 -0.200113 -0.95697 
-0.003402 0.006072 -0.019622 -4.18302 0.270227 -0.0482877 
-0.002628 0.006126 -0.023151 0.121793 -1.45223 0.30854 
-0.003174 0.00581 -0.019592 0.0309819 -0.0129429 -0.168883 
-0.002767 0.005341 -0.005904 -4.23186 0.291966 0.162102 
-0.002505 0.00557 -0.005904 -3.74865 4.2981 0.860917 
-0.002276 0.005307 -0.005904 -3.36314 3.85704 2.27513 
-0.002539 0.005079 -0.005904 -3.84802 -0.147554 1.58461 
3 0 1 2 
3 0 2 3 
3 4 5 6 
3 4 6 7 
3 8 9 10 
3 8 10 11 
3 12 13 14 
3 12 14 15 
3 1 10 9 
3 1 9 2 
3 11 0 3 
3 11 3 8 
3 16 17 18 
3 16 18 19 
3 17 20 21 
3 17 21 18 
3 20 22 23 
3 20 23 21 
3 19 23 22 
3 19 22 16 
3 13 12 20 
3 13 20 17 
3 12 15 22 
3 12 22 20 
3 16 22 15 
3 16 15 14 
3 14 13 17 
3 14 17 16 
3 3 2 24 
3 3 24 25 
3 8 3 25 
3 8 25 26 
3 26 27 9 
3 26 9 8 
3 2 9 27 
3 2 27 24 
3 19 18 0 
3 19 0 11 
3 18 21 1 
3 18 1 0 
3 21 23 10 
3 21 10 1 
3 11 10 23 
3 11 23 19 
3 25 24 5 
3 25 5 4 
3 26 25 4 
3 26 4 7 
3 7 6 27 
3 7 27 26 
3 24 27 6 
3 24 6 5 
3 28 29 30 
3 28 30 31 
3 32 33 34 
3 32 34 35 
3 36 37 38 
3 36 38 39 
3 40 41 42 
3 40 42 43 
3 29 38 37 
3 29 37 30 
3 39 28 31 
3 39 31 36 
3 44 45 46 
3 44 46 47 
3 45 48 49 
3 45 49 46 
3 48 50 51 
3 48 51 49 
3 47 51 50 
3 47 50 44 
3 43 42 48 
3 43 48 45 
3 42 41 50 
3 42 50 48 
3 44 50 41 
3 44 41 40 
3 40 43 45 
3 40 45 44 
3 31 30 52 
3 31 52 53 
3 36 31 53 
3 36 53 54 
3 54 55 37 
3 54 37 36 
3 30 37 55 
3 30 55 52 
3 47 46 28 
3 47 28 39 
3 46 49 29 
3 46 29 28 
3 49 51 38 
3 49 38 29 
3 39 38 51 
3 39 51 47 
3 53 52 33 
3 53 33 32 
3 54 53 32 
3 54 32 35 
3 35 34 55 
3 35 55 54 
3 52 55 34 
3 52 34 33 
3 56 57 58 
3 56 58 59 
3 60 61 62 
3 60 62 63 
3 64 65 66 
3 64 66 67 
3 68 69 70 
3 68 70 71 
3 57 66 65 
3 57 65 58 
3 67 56 59 
3 67 59 64 
3 72 73 74 
3 72 74 75 
3 73 76 77 
3 73 77 74 
3 76 78 79 
3 76 79 77 
3 75 79 78 
3 75 78 72 
3 71 70 76 
3 71 76 73 
3 70 69 78 
3 70 78 76 
3 72 78 69 
3 72 69 68 
3 68 71 73 
3 68 73 72 
3 59 58 80 
3 59 80 81 
3 64 59 81 
3 64 81 82 
3 82 83 65 
3 82 65 64 
3 58 65 83 
3 58 83 80 
3 75 74 56 
3 75 56 67 
3 74 77 57 
3 74 57 56 
3 77 79 66 
3 77 66 57 
3 67 66 79 
3 67 79 75 
3 81 80 61 
3 81 61 60 
3 82 81 60 
3 82 60 63 
3 63 62 83 
3 63 83 82 
3 80 83 62 
3 80 62 61 
3 84 85 86 
3 84 86 87 
3 88 89 90 
3 88 90 91 
3 92 93 94 
3 92 94 95 
3 96 97 98 
3 96 98 99 
3 85 94 93 
3 85 93 86 
3 95 84 87 
3 95 87 92 
3 100 101 102 
3 100 102 103 
3 101 104 105 
3 101 105 102 
3 104 106 107 
3 104 107 105 
3 103 107 106 
3 103 106 100 
3 99 98 104 
3 99 104 101 
3 98 97 106 
3 98 106 104 
3 100 106 97 
3 100 97 96 
3 96 99 101 
3 96 101 100 
3 87 86 108 
3 87 108 109 
3 92 87 109 
3 92 109 110 
3 110 111 93 
3 110 93 92 
3 86 93 111 
3 86 111 108 
3 103 102 84 
3 103 84 95 
3 102 105 85 
3 102 85 84 
3 105 107 94 
3 105 94 85 
3 95 94 107 
3 95 107 103 
3 109 108 89 
3 109 89 88 
3 110 109 88 
3 110 88 91 
3 91 90 111 
3 91 111 110 
3 108 111 90 
3 108 90 89 
3 112 113 114 
3 112 114 115 
3 116 117 118 
3 116 118 119 
3 120 121 122 
3 120 122 123 
3 124 125 126 
3 124 126 127 
3 113 122 121 
3 113 121 114 
3 123 112 115 
3 123 115 120 
3 128 129 130 
3 128 130 131 
3 129 132 133 
3 129 133 130 
3 132 134 135 
3 132 135 133 
3 131 135 134 
3 131 134 128 
3 127 126 132 
3 127 132 129 
3 126 125 134 
3 126 134 132 
3 128 134 125 
3 128 125 124 
3 124 127 129 
3 124 129 128 
3 115 114 136 
3 115 136 137 
3 120 115 137 
3 120 137 138 
3 138 139 121 
3 138 121 120 
3 114 121 139 
3 114 139 136 
3 131 130 112 
3 131 112 123 
3 130 133 113 
3 130 113 112 
3 133 135 122 
3 133 122 113 
3 123 122 135 
3 123 135 131 
3 137 136 117 
3 137 117 116 
3 138 137 116 
3 138 116 119 
3 119 118 139 
3 119 139 138 
3 136 139 118 
3 136 118 117 
3 140 141 142 
3 140 142 143 
3 144 145 146 
3 144 146 147 
3 148 149 150 
3 148 150 151 
3 152 153 154 
3 152 154 155 
3 141 150 149 
3 141 149 142 
3 151 140 143 
3 151 143 148 
3 156 157 158 
3 156 158 159 
3 157 160 161 
3 157 161 158 
3 160 162 163 
3 160 163 161 
3 159 163 162 
3 159 162 156 
3 155 154 160 
3 155 160 157 
3 154 153 162 
3 154 162 160 
3 156 162 153 
3 156 153 152 
3 152 155 157 
3 152 157 156 
3 143 142 164 
3 143 164 165 
3 148 143 165 
3 148 165 166 
3 166 167 149 
3 166 149 148 
3 142 149 167 
3 142 167 164 
3 159 158 140 
3 159 140 151 
3 158 161 141 
3 158 141 140 
3 161 163 150 
3 161 150 141 
3 151 150 163 
3 151 163 159 
3 165 164 145 
3 165 145 144 
3 166 165 144 
3 166 144 147 
3 147 146 167 
3 147 167 166 
3 164 167 146 
3 164 146 145 
3 168 169 170 
3 168 170 171 
3 172 173 174 
3 172 174 175 
3 176 177 178 
3 176 178 179 
3 180 181 182 
3 180 182 183 
3 169 178 177 
3 169 177 170 
3 179 168 171 
3 179 171 176 
3 184 185 186 
3 184 186 187 
3 185 188 189 
3 185 189 186 
3 188 190 191 
3 188 191 189 
3 187 191 190 
3 187 190 184 
3 183 182 188 
3 183 188 185 
3 182 181 190 
3 182 190 188 
3 184 190 181 
3 184 181 180 
3 180 183 185 
3 180 185 184 
3 171 170 192 
3 171 192 193 
3 176 171 193 
3 176 193 194 
3 194 195 177 
3 194 177 176 
3 170 177 195 
3 170 195 192 
3 187 186 168 
3 187 168 179 
3 186 189 169 
3 186 169 168 
3 189 191 178 
3 189 178 169 
3 179 178 191 
3 179 191 187 
3 193 192 173 
3 193 173 172 
3 194 193 172 
3 194 172 175 
3 175 174 195 
3 175 195 194 
3 192 195 174 
3 192 174 173 
3 196 197 198 
3 196 198 199 
3 200 201 202 
3 200 202 203 
3 204 205 206 
3 204 206 207 
3 208 209 210 
3 208 210 211 
3 197 206 205 
3 197 205 198 
3 207 196 199 
3 207 199 204 
3 212 213 214 
3 212 214 215 
3 213 216 217 
3 213 217 214 
3 216 218 219 
3 216 219 217 
3 215 219 218 
3 215 218 212 
3 211 210 216 
3 211 216 213 
3 210 209 218 
3 210 218 216 
3 212 218 209 
3 212 209 208 
3 208 211 213 
3 208 213 212 
3 199 198 220 
3 199 220 221 
3 204 199 221 
3 204 221 222 
3 222 223 205 
3 222 205 204 
3 198 205 223 
3 198 223 220 
3 215 214 196 
3 215 196 207 
3 214 217 197 
3 214 197 196 
3 217 219 206 
3 217 206 197 
3 207 206 219 
3 207 219 215 
3 221 220 201 
3 221 201 200 
3 222 221 200 
3 222 200 203 
3 203 202 223 
3 203 223 222 
3 220 223 202 
3 220 202 201 
3 224 225 226 
3 224 226 227 
3 228 229 230 
3 228 230 231 
3 232 233 234 
3 232 234 235 
3 236 237 238 
3 236 238 239 
3 225 234 233 
3 225 233 226 
3 235 224 227 
3 235 227 232 
3 240 241 242 
3 240 242 243 
3 241 244 245 
3 241 245 242 
3 244 246 247 
3 244 247 245 
3 243 247 246 
3 243 246 240 
3 239 238 244 
3 239 244 241 
3 238 237 246 
3 238 246 244 
3 240 246 237 
3 240 237 236 
3 236 239 241 
3 236 241 240 
3 227 226 248 
3 227 248 249 
3 232 227 249 
3 232 249 250 
3 250 251 233 
3 250 233 232 
3 226 233 251 
3 226 251 248 
3 243 242 224 
3 243 224 235 
3 242 245 225 
3 242 225 224 
3 245 247 234 
3 245 234 225 
3 235 234 247 
3 235 247 243 
3 249 248 229 
3 249 229 228 
3 250 249 228 
3 250 228 231 
3 231 230 251 
3 231 251 250 
3 248 251 230 
3 248 230 229 
3 252 253 254 
3 252 254 255 
3 256 257 258 
3 256 258 259 
3 260 261 262 
3 260 262 263 
3 264 265 266 
3 264 266 267 
3 253 262 261 
3 253 261 254 
3 263 252 255 
3 263 255 260 
3 268 269 270 
3 268 270 271 
3 269 272 273 
3 269 273 270 
3 272 274 275 
3 272 275 273 
3 271 275 274 
3 271 274 268 
3 267 266 272 
3 267 272 269 
3 266 265 274 
3 266 274 272 
3 268 274 265 
3 268 265 264 
3 264 267 269 
3 264 269 268 
3 255 254 276 
3 255 276 277 
3 260 255 277 
3 260 277 278 
3 278 279 261 
3 278 261 260 
3 254 261 279 
3 254 279 276 
3 271 270 252 
3 271 252 263 
3 270 273 253 
3 270 253 252 
3 273 275 262 
3 273 262 253 
3 263 262 275 
3 263 275 271 
3 277 276 257 
3 277 257 256 
3 278 277 256 
3 278 256 259 
3 259 258 279 
3 259 279 278 
3 276 279 258 
3 276 258 257 
