ply
format ascii 1.0
comment VCGLIB generated
element vertex 533
property float x
property float y
property float z
property float nx
property float ny
property float nz
element face 1032
property list uchar int vertex_indices
end_header
0.001384 -0.006625 0.045413 2.25077 -5.98214 -0.184368 
-0.002381 -0.006529 0.046472 -1.97469 -3.33336 0.0834491 
-0.004514 -0.007127 0.019864 -2.26391 -3.88645 1.10648 
0.00121 -0.008284 0.019133 1.49114 -5.16067 1.02188 
0.013547 -0.008599 0.144137 -2.57726 -1.36116 -0.710622 
0.013964 -0.009453 0.144262 -1.24368 -1.77921 -0.595999 
0.014805 -0.008938 0.143856 0.0898574 -2.1972 -0.481365 
0.006744 -0.002147 0.013218 5.09481 0.349755 1.29251 
0.0045 0.001981 0.017563 0.924051 2.16556 1.27941 
0.00209 0.001634 0.046683 0.785402 4.12555 -0.0551772 
0.004198 -0.001487 0.05068 5.63591 4.10088 0.0382646 
0.003562 -0.004478 0.050351 2.03392 -1.58171 0.0383635 
0.00497 -0.006544 0.013127 3.67156 -1.82104 1.12583 
-0.001224 0.003138 0.017997 -3.1809 4.84202 1.25858 
-0.005263 0.001647 0.014391 -4.21657 1.12946 1.25087 
-0.003853 -0.000417 0.042979 -3.2998 1.33931 0.0614171 
-0.001675 0.00173 0.046664 -3.37523 4.9354 -0.122831 
0.003811 0.006331 0.156744 -2.74188 1.15103 0.3965 
0.00331 0.005088 0.156889 -1.43746 -0.153276 0.260706 
0.004035 0.005396 0.156866 -0.13303 -1.45754 0.124907 
-0.007037 -0.00275 0.014216 -5.28993 -2.4437 1.18968 
-0.004489 -0.003409 0.042732 -5.58953 -4.0869 0.0961568 
-0.020683 0.010976 0.151467 -2.61522 -1.43177 0.332675 
-0.020008 0.009785 0.151648 -0.757478 -1.02109 0.0688325 
-0.019924 0.010791 0.151751 1.10024 -0.610366 -0.195003 
0.018571 -0.028233 0.152256 -1.23907 2.62477 0.758462 
0.017704 -0.028763 0.152675 -1.63745 1.18456 0.356841 
0.018282 -0.029552 0.152521 -2.03576 -0.255625 -0.044768 
-0.000146 -0.002448 0.076825 0.077685 1.34036 3.39046 
0.002896 0.001353 0.073302 1.48836 6.2138 2.51914 
-0.000749 0.001494 0.077395 4.19667 1.70669 2.12943 
-0.002002 -0.001046 0.078468 4.67576 -1.39183 2.9027 
-0.001301 0.004012 0.064435 -2.38618 5.04517 -0.261255 
-0.002883 0.003586 0.074571 0.421055 5.17136 0.0840923 
-0.005013 0.001449 0.063307 -4.72006 -0.0682048 -0.0282016 
-0.005706 0.001919 0.073996 -3.52732 0.598831 -0.269112 
-0.006701 -0.002735 0.064435 -3.84142 -3.13558 0.381232 
-0.003188 -0.006248 0.073302 -1.50355 -4.82029 1.61905 
-0.004206 -0.002825 0.077395 0.118849 -2.84221 1.4755 
-0.006715 -0.001201 0.074571 -4.4476 -3.9366 0.247438 
0.00017 -0.004795 0.080091 -3.78361 2.49328 2.87953 
0.003361 -0.003363 0.080091 -2.22381 4.376 3.4322 
0.004722 -0.006344 0.069522 5.68318 -1.16012 -0.428885 
0.00641 -0.002161 0.07065 1.83356 2.49496 0.984231 
0.005596 -0.005472 0.078183 1.66838 1.46821 1.24359 
0.004819 -0.008517 0.078183 5.64049 -1.12095 -1.25946 
-0.000528 -0.008222 0.080091 -4.26504 -1.92725 0.618604 
0.00101 -0.008907 0.07065 2.64432 -2.95905 -0.322748 
0.002018 -0.009941 0.078183 1.18494 -2.91354 -1.09058 
-0.002085 0.008389 0.004158 -0.874285 5.23566 1.60977 
0.005689 0.005825 0.007631 0.956171 1.77892 1.47254 
0.007444 0.007034 0 2.25021 1.20974 0.766482 
-0.002191 0.008981 0 0.640983 2.8824 0.530024 
-0.008758 0.004446 0 -1.61768 1.69348 0.507448 
-0.007694 0.003594 0.007922 -2.74492 2.35211 1.52202 
-0.011745 -0.002955 -0 -2.71931 -0.458195 0.424244 
-0.010526 -0.003424 0.007644 -5.3602 -0.760006 1.42525 
-0.007735 -0.011929 -0 -1.28284 -2.34811 0.457052 
-0.007342 -0.011438 0.003658 -1.63216 -3.61028 1.33034 
0.001793 -0.013284 0.003075 1.28522 -5.09009 1.3704 
0.001899 -0.013876 -0 -0.571469 -2.90378 0.491439 
0.008467 -0.009342 -0 1.63227 -1.67991 0.576924 
0.008021 -0.008984 0.003002 2.83171 -3.81041 1.56605 
0.00949 -0.002684 0.006962 6.1691 -2.60843 1.93459 
0.011453 -0.00194 -0 1.82278 -0.711886 0.413129 
0.003995 -0.011718 0.090516 -4.27355 1.20701 2.45791 
0.006336 -0.009447 0.090062 -3.31016 3.63544 3.29351 
0.008958 -0.010635 0.089395 1.0378 1.87871 0.855382 
0.009151 -0.013564 0.088879 5.68135 0.635247 -1.20353 
0.004363 -0.014959 0.08975 -3.5658 -3.01798 0.022275 
0.007144 -0.015705 0.088928 1.68292 -2.08254 -1.30789 
-0.005128 0.001801 0.092778 4.84286 -0.710388 1.36411 
-0.006792 -5.7e-005 0.092967 3.77613 -3.33478 2.76392 
-0.006454 0.004847 0.091938 2.71071 3.77504 -1.13244 
-0.009258 0.004604 0.091578 -2.95995 1.4002 -0.823732 
-0.009264 -0.000388 0.092332 -0.661051 -3.43601 1.54148 
-0.011037 0.002422 0.09147 -4.95969 -2.89935 0.125268 
-0.006938 0.008301 0.101324 4.36403 -1.8477 1.67831 
-0.00935 0.007617 0.1013 2.88168 -4.36744 2.53821 
-0.006402 0.011587 0.10058 3.63442 2.97678 -0.805258 
-0.0089 0.012877 0.100137 -2.23597 1.79293 -1.31062 
-0.011596 0.008657 0.100676 -1.40998 -2.95956 1.26197 
-0.011565 0.011981 0.099941 -5.83332 -1.31772 0.319156 
0.005996 -0.015845 0.096021 -3.84429 -0.193507 3.18959 
0.006962 -0.013289 0.096043 -3.85905 2.61189 3.69116 
0.009373 -0.013256 0.09542 0.626768 2.15894 1.14937 
0.010563 -0.015408 0.094747 4.65915 1.98285 -2.25462 
0.00743 -0.018171 0.095216 -2.1598 -4.20399 0.447168 
0.009803 -0.017746 0.094668 1.99348 -1.77842 -2.2696 
0.011518 -0.015485 0.100957 -3.6549 -1.18446 4.95918 
0.011875 -0.013059 0.099575 -4.70344 1.28345 2.88364 
0.014157 -0.013028 0.09907 -0.507517 1.69121 -0.549536 
0.015839 -0.015071 0.099841 3.87144 3.87968 -0.458126 
0.012329 -0.017798 0.098928 -1.37759 -4.44523 0.584677 
0.014576 -0.017397 0.098407 1.0943 -0.782943 -0.27724 
-0.007242 0.011145 0.110008 4.14427 -2.0418 -0.585937 
-0.009097 0.009693 0.112727 3.26548 -4.85013 1.60886 
-0.008036 0.01398 0.109542 1.43651 0.840699 0.675507 
-0.010696 0.014081 0.112075 -3.85853 0.531406 0.967843 
-0.011128 0.009699 0.109775 -1.55331 -3.45237 -0.647027 
-0.012343 0.012378 0.109295 -5.32588 -1.78276 -1.37484 
-0.013962 0.007091 0.116744 -2.06291 -3.92184 -0.839816 
-0.014818 0.00896 0.116837 -5.01256 -2.11598 -2.48779 
-0.012298 0.00766 0.117444 3.17713 -1.97889 1.39287 
-0.013403 0.010825 0.11771 -0.177411 -0.153655 0.404847 
-0.016659 0.008805 0.121298 -2.48479 -3.50667 -1.42814 
-0.017306 0.010722 0.121644 -4.81259 -0.843177 -3.17389 
-0.015176 0.008927 0.122299 2.33421 -2.61682 2.32587 
-0.015892 0.010878 0.122615 0.102053 0.259369 -0.163248 
-0.022353 0.008323 0.126917 -2.99085 -2.73435 -1.6525 
-0.022122 0.010349 0.127149 -5.1143 0.463267 -2.55926 
-0.020724 0.007881 0.127523 2.34025 -3.14172 0.859663 
-0.02055 0.009965 0.127736 -0.29039 0.187864 0.611014 
-0.023454 0.008791 0.133705 -3.48227 -2.4597 -1.14754 
-0.023278 0.010332 0.133881 -8.3519 -0.54584 -0.718542 
-0.022215 0.008455 0.134166 -0.486464 -3.3102 -0.432115 
-0.022082 0.01004 0.134328 0.231689 -1.06656 0.699744 
-0.005565 0.009561 0.11808 -1.63305 -3.31633 0.163353 
-0.005935 0.012684 0.119057 -5.31987 -1.38686 2.16284 
-0.003024 0.010338 0.118129 3.78643 -2.07816 -1.5307 
-0.003403 0.013365 0.1193 0.0094347 -0.0452097 -0.0175901 
-0.003654 0.007282 0.123874 -1.57453 -3.323 -0.0785597 
-0.004053 0.009413 0.125146 -5.32515 -1.54529 2.07177 
-0.002003 0.008333 0.123336 3.80051 -1.7939 -1.95305 
-0.002337 0.010374 0.12473 0.238611 -0.134939 0.606043 
-0.001055 0.007059 0.128768 -1.44579 -3.47899 0.348171 
-0.001444 0.008746 0.128434 -5.38948 -1.53093 1.54184 
0.000255 0.007614 0.128728 4.03745 -1.88691 -1.1718 
-0.000151 0.009302 0.128508 -0.0352224 0.0830351 -0.233729 
-0.000502 0.005491 0.13732 -0.995356 -3.51825 0.238464 
-0.000911 0.007268 0.136967 -5.61607 -1.48603 -0.970906 
0.000879 0.006076 0.137277 0.35758 -1.68595 -0.0948023 
0.000451 0.007854 0.137045 -2.61328 0.582853 0.747942 
0.0127 -0.013113 0.102843 -1.65063 -2.18271 2.74995 
0.012368 -0.010745 0.102902 -5.37749 -0.297439 2.34727 
0.015134 -0.012539 0.102054 3.23674 -0.944112 0.328346 
0.014624 -0.010404 0.10247 -0.233286 0.887956 -0.00165617 
0.014269 -0.017619 0.103888 -2.70926 1.34951 1.8545 
0.016696 -0.017046 0.103005 -0.246394 5.22975 2.85728 
0.015026 -0.019886 0.103385 -1.89655 -3.93954 -0.591066 
0.017197 -0.019183 0.102941 0.311964 0.0107238 0.0449812 
0.014469 -0.010072 0.106347 -1.18719 -3.04396 2.38524 
0.013815 -0.007772 0.106266 -5.26991 -1.45139 2.18229 
0.016801 -0.009169 0.105518 3.79174 -1.14531 0.413101 
0.016003 -0.007124 0.105854 -0.397872 0.300106 -0.482676 
0.015427 -0.004959 0.118765 -1.24369 -3.59246 0.632746 
0.014899 -0.003877 0.118608 -5.48896 -2.2509 0.575948 
0.016492 -0.004307 0.118252 4.09713 -1.00956 0.389183 
0.015922 -0.003365 0.118406 -0.0907089 0.194404 -0.105994 
0.015556 -0.005188 0.127686 -1.43099 -3.91877 -0.771869 
0.014899 -0.003842 0.127491 -5.9251 -5.46534 0.631927 
0.016882 -0.004377 0.127047 1.92988 -2.83239 -0.694298 
0.016171 -0.003204 0.127238 1.25774 -0.736192 0.334024 
0.016062 -0.022076 0.113928 -3.25019 1.28634 1.19517 
0.018387 -0.021176 0.112954 -1.59661 5.44213 1.3871 
0.017123 -0.024217 0.113537 -1.408 -3.88989 -0.23013 
0.019177 -0.023224 0.113173 0.0999768 0.118793 -0.306349 
0.017439 -0.022143 0.1222 -3.60306 1.01027 0.404223 
0.019039 -0.021164 0.121427 -2.19271 5.28223 1.4099 
0.018506 -0.023599 0.121917 -1.00685 -4.0531 -0.582852 
0.019901 -0.022587 0.121615 0.443716 0.097015 0.510475 
0.018544 -0.025665 0.130233 -3.61968 0.802213 0.495595 
0.01991 -0.02483 0.129573 -5.19096 5.87237 2.28028 
0.019455 -0.026909 0.129991 -2.79557 -2.19511 -0.785547 
0.020646 -0.026045 0.129733 -0.513885 -0.98764 0.340214 
-0.005867 0.00922 0.152453 -2.8056 -0.787648 -0.712895 
-0.005607 0.008093 0.152676 -0.971091 -0.85429 -0.187315 
-0.005003 0.009592 0.152502 0.863401 -0.920863 0.338258 
-0.03129 0.009666 0.155989 -2.76749 0.438824 -1.07165 
-0.031382 0.008856 0.155896 -2.1206 -0.667803 -0.671774 
-0.03073 0.008679 0.156138 -1.4737 -1.77437 -0.2719 
0.024225 -0.022323 0.148781 -2.91078 0.68557 0.239438 
0.023985 -0.023417 0.149 -1.34474 -0.342499 0.235761 
0.024612 -0.022963 0.148865 0.221312 -1.37053 0.232076 
0.014121 -0.000775 0.149346 -0.769995 -2.89881 0.0632353 
0.015164 -0.001057 0.149112 0.34525 -1.42834 0.135152 
0.01479 -0.000439 0.149213 1.46046 0.0421438 0.207065 
0.000838 0.004096 0.142673 -1.50403 -1.5617 0.440802 
0.001527 0.005806 0.142475 -5.34041 2.30918 1.34852 
0.001836 0.004519 0.142642 -1.58092 -1.51968 -0.0595213 
-0.026449 0.006837 0.142329 -3.51981 -2.44073 -1.13333 
-0.026321 0.007952 0.142456 -5.60138 0.864473 -1.95927 
-0.025552 0.006595 0.142662 -3.37892 -2.42606 -1.507 
0.022215 -0.026064 0.135057 -0.949586 -1.63728 0.914397 
0.022544 -0.02456 0.134755 -5.49974 1.50792 1.51265 
0.023077 -0.025439 0.134871 -1.09757 -1.69829 0.327179 
0.017187 -0.001902 0.135015 1.91217 -1.29921 0.606545 
0.015753 -0.001514 0.135335 -1.32877 -5.70744 0.957334 
0.016673 -0.001052 0.135153 1.80739 -1.30242 0.0400109 
0.015878 -0.006697 0.13204 -1.31749 -3.95955 -0.987991 
0.015221 -0.00535 0.131844 -5.24722 -2.70273 -0.977998 
0.017204 -0.005886 0.131401 -1.38847 -3.96225 -1.34185 
-0.021894 0.010348 0.139244 0.372185 -1.59929 0.219595 
-0.022958 0.012225 0.138959 -5.20169 -2.79529 1.00421 
-0.021762 0.011933 0.139406 0.372855 -1.63537 0.226496 
0.01754 -0.025323 0.140501 -3.94338 0.826748 -0.267429 
0.018906 -0.024487 0.139841 -2.88414 5.12161 0.51432 
0.018451 -0.026567 0.140259 -3.80749 0.852546 0.155676 
-0.0022 0.006862 0.140627 -0.121527 -1.73648 0.170582 
-0.002609 0.008639 0.140274 -5.49604 -1.61331 -1.75203 
-0.001247 0.009225 0.140353 -0.250525 -1.65976 0.516451 
0.025387 -0.011242 0.166652 0.000353242 -0.000301154 -0.00017564 
0.01065 -0.024755 0.168964 0.000425684 -0.000437401 -2.09554e-005 
0.008869 -0.022497 0.157189 0.000304513 -0.000412481 -0.000286286 
0.025101 -0.010658 0.1707 0.000214816 -0.000153903 0.000181873 
0.010582 -0.0212 0.174319 0.000430177 -0.000282102 0.000339905 
0.026918 -0.005799 0.166264 0.000160027 1.92769e-005 -7.95819e-005 
0.015968 -0.012575 0.158679 0.000516195 -0.000179288 -0.00055115 
0.023168 -0.005464 0.172346 0.000376027 -0.00013188 0.000302643 
0.004475 -0.027833 0.165297 0.000182662 -0.000447977 -0.00028462 
0.008303 -0.029275 0.173276 0.000118111 -0.000284536 4.17227e-007 
0.024139 -0.001372 0.165939 0.000493439 1.63247e-005 -0.000131492 
0.008794 -0.026199 0.1777 0.000103663 -6.77647e-005 0.000121635 
0.011518 -0.017188 0.181614 0.000167021 -0.000134418 0.000131489 
0.017817 -0.003252 0.180331 0.000425793 -0.000215244 0.000479874 
0.023919 0.004299 0.178346 0.00033166 3.8906e-005 0.000113242 
0.009654 -0.0175 0.153967 8.36748e-005 -5.48055e-005 -0.000228491 
-0.008189 -0.032921 0.165274 -1.87309e-005 -0.00050904 0.000139156 
0.022423 0.006161 0.170917 0.000396794 2.9848e-005 6.75921e-005 
0.022949 0.007548 0.158086 0.000286509 -5.08945e-005 -0.000137408 
0.008633 -0.007394 0.15348 0.000203561 -0.000116236 -0.000461492 
0.000998 -0.028996 0.17593 -5.93192e-005 -0.000340413 0.000311804 
0.003864 -0.021097 0.179812 -2.11349e-005 -0.000237545 0.000468421 
0.019749 0.007388 0.181952 8.84035e-005 0.000118248 0.00049475 
0.022216 0.00882 0.162175 0.000403348 8.65838e-005 -9.03845e-005 
0.019854 0.003208 0.1557 0.000211518 -7.87413e-005 -0.000382221 
0.000946 -0.019413 0.154818 8.47287e-005 -0.000549648 -0.00103758 
0.006532 -0.016956 0.183802 1.27772e-005 -6.85851e-005 0.000497347 
0.017174 0.011384 0.175823 0.000226875 0.000194618 0.000402709 
0.024279 0.01847 0.173596 0.00014015 2.8826e-005 0.000223242 
0.024767 0.018871 0.169572 0.000296385 5.6289e-005 -0.000108742 
-0.008799 -0.030938 0.161777 5.2105e-005 -0.000322372 -0.000369366 
-0.011149 -0.023954 0.176161 -3.33959e-005 -0.000553873 0.000606999 
-0.004772 -0.011938 0.181597 2.35556e-005 -0.00016564 0.000685631 
0.00932 -0.005252 0.182953 5.95571e-005 3.71885e-006 0.000474433 
0.017408 0.019737 0.16217 0.000359622 0.000238861 -0.000314235 
0.020105 0.01105 0.155583 0.000180341 0.000137198 -0.000290728 
-0.013958 -0.032417 0.164984 -8.12205e-005 -0.000141836 -9.10524e-005 
-0.017435 -0.028378 0.167654 -2.89376e-005 -0.000384162 0.000175826 
-0.001511 -0.002956 0.182755 1.16219e-005 -4.45302e-006 0.000733457 
0.010687 0.005145 0.152755 0.000140907 8.70622e-005 -0.000391551 
0.009594 -0.001597 0.151813 0.00011372 -2.88213e-005 -0.000195506 
-0.014992 -0.022433 0.157183 -0.000222548 -0.000649929 -0.00076253 
0.007008 0.007688 0.181163 0.000132852 9.62689e-005 0.00045774 
0.021219 0.023741 0.17099 0.000130865 0.000213743 1.64228e-005 
0.010127 0.016436 0.155714 0.000266165 0.000173322 -0.000592144 
-0.012867 -0.010369 0.151344 6.33085e-005 -0.00042155 -0.00093449 
-0.019388 -0.021444 0.183252 3.93724e-005 -0.000355817 0.000310971 
0.005443 0.015274 0.18071 0.000255184 0.000177964 0.000541595 
0.013654 0.020592 0.174626 0.000227416 0.000268421 0.000515653 
0.006286 0.004837 0.148508 8.54926e-005 7.80857e-005 -0.000252627 
0.005562 -0.000777 0.148769 8.70206e-005 -0.000176429 -0.000587521 
-0.020059 -0.027439 0.16581 -0.000174054 -0.000286315 -0.000191601 
-0.022734 -0.027538 0.173422 -1.54259e-005 -0.000205708 7.36907e-005 
-0.01254 -0.016735 0.1837 0.000107358 -0.00012809 0.000212392 
-0.017775 -0.013732 0.185675 -1.77636e-005 2.80998e-005 0.000404722 
0.013096 0.025112 0.162151 0.000159093 0.000170738 -2.59945e-005 
0.002937 0.012014 0.152405 0.000155196 0.000122341 -0.000461703 
-0.009256 -0.003089 0.183361 -6.89347e-006 -9.92262e-005 0.00040638 
-0.002066 0.00904 0.186237 0.00011629 6.61586e-005 0.000333844 
-0.002773 0.003232 0.185217 7.84662e-005 -7.66264e-005 0.00025412 
0.013582 0.025339 0.169894 7.27596e-005 0.000151751 5.17285e-005 
0.011183 0.029525 0.159316 0.000308064 0.000191655 -0.00019562 
0.003871 0.031634 0.154832 0.000173942 0.000198849 -0.00066078 
-0.000333 0.002541 0.148409 0.000138791 1.55365e-005 -0.000598522 
-0.028466 -0.025105 0.171132 -0.000193953 -0.000276863 -1.46174e-005 
-0.014767 -0.005052 0.183288 -1.05496e-005 2.29469e-005 0.000425552 
-0.00753 0.007199 0.187002 -4.37109e-005 -2.67378e-005 0.000362549 
0.000494 0.029255 0.177164 0.000251704 0.000271816 0.000678558 
0.009009 0.029943 0.16997 0.000388403 0.000284934 0.000147112 
-0.00491 0.012754 0.150809 0.000153968 0.000159486 -0.000683548 
-0.009364 -0.001367 0.145178 0.000104041 -3.38986e-005 -0.00047002 
-0.021248 -0.018296 0.153322 -0.000104283 -0.000190854 -0.0004806 
-0.031954 -0.01455 0.156279 -0.000281543 -0.000400877 -0.000546007 
-0.033731 -0.019656 0.165493 -0.000267599 -0.000501025 -0.000250957 
-0.027459 -0.024303 0.176931 -0.000157401 -0.000194233 0.00016622 
-0.02473 -0.018723 0.182916 -0.000176745 -4.84747e-005 0.000270528 
-0.006868 0.013042 0.18502 -1.36069e-005 0.000117543 0.00033268 
-0.00151 0.021514 0.180946 0.000100219 0.000155964 0.00039468 
-0.015447 -0.003623 0.145508 -0.000142569 -5.8722e-005 -0.00052494 
-0.025386 -0.008316 0.181182 -0.000159042 -1.1199e-005 0.00049782 
-0.019063 0.004601 0.18379 -3.48091e-005 -0.000114109 0.000622323 
0.005933 0.032603 0.17378 0.000120654 4.60309e-005 0.000145191 
0.004017 0.03644 0.159984 0.00022486 0.000382464 -0.000177187 
-0.016249 0.01935 0.148452 9.37675e-006 0.000139868 -0.00089929 
-0.020132 -0.00581 0.150094 -0.000168376 -0.000165407 -0.000496788 
-0.039367 -0.018083 0.166375 -0.000178696 -0.000254204 -1.81657e-005 
-0.035423 -0.01649 0.173725 -0.000184984 -0.00021396 0.000104983 
-0.031527 -0.017088 0.176343 -0.000194249 -0.000134719 0.000383803 
-0.018327 0.010505 0.183789 -4.4258e-005 5.75394e-005 0.000905684 
-0.00922 0.021883 0.181992 0.000104569 8.01744e-005 0.000565494 
-0.001022 0.04266 0.174274 4.84045e-005 0.000219196 0.000275855 
0.004517 0.038629 0.170849 0.000226397 0.000219866 -5.60848e-006 
-0.005902 0.026778 0.153524 0.00012095 0.000241455 -0.000551582 
-0.013159 0.02321 0.149069 9.29017e-005 5.25455e-005 -0.000266475 
-0.032791 -0.003172 0.154164 -0.000274073 -0.000218729 -0.000686966 
-0.039037 -0.011538 0.177403 -0.000189219 -0.000173726 0.000208562 
-0.030119 -0.004227 0.182063 -4.28146e-005 -0.000131749 0.000355978 
-0.009121 0.026931 0.180447 0.000127491 0.00016024 0.000347564 
-0.003867 0.042256 0.167809 5.77995e-005 0.000375665 -0.000174847 
-0.004608 0.032845 0.157424 4.82053e-005 0.00032122 -0.000333161 
-0.018944 0.028433 0.149008 -4.09702e-005 0.000132298 -0.000409465 
-0.025872 0.005903 0.1497 -0.000169276 -1.24331e-005 -0.000817804 
-0.028932 0.002204 0.150439 -6.14511e-005 -8.01264e-005 -0.000258138 
-0.036957 -0.003339 0.18012 -0.000193593 -0.000137331 0.000385629 
-0.046431 0.000165 0.158935 -0.000472009 -0.000243203 -0.000494258 
-0.039102 -0.013339 0.159343 -0.000342313 -0.000203288 -0.000211963 
-0.03231 0.001125 0.18436 -2.40237e-005 -7.76051e-005 0.000258929 
-0.02951 0.004624 0.185324 -3.89793e-006 1.76446e-005 0.000194399 
-0.010204 0.03512 0.176257 0.000120423 0.000497248 0.000635519 
-0.010536 0.039801 0.162473 0.000100808 0.000304069 -0.000153851 
-0.018206 0.030331 0.153529 -4.90995e-005 0.000302401 -0.000619247 
-0.029192 0.017018 0.149886 -0.00012253 0.000136387 -0.000667726 
-0.038455 0.007466 0.150335 -0.00013056 -5.84325e-005 -0.000417237 
-0.043155 -0.012762 0.166455 -0.000368366 -0.000180415 1.8817e-005 
-0.023983 0.028138 0.186045 -5.222e-006 -3.42383e-005 0.00051721 
-0.021359 0.031416 0.185142 0.000118576 0.000197403 0.00035151 
-0.009722 0.040657 0.16975 7.0939e-005 0.00052211 0.000159173 
-0.013948 0.037562 0.156523 0.000103933 0.000244596 -0.000347664 
-0.042689 -0.006365 0.176524 -0.000360119 -0.000118483 0.000284593 
-0.041441 0.009208 0.178844 -0.000299682 -1.23781e-005 0.000365984 
-0.038247 0.004645 0.183883 -9.07711e-005 -9.21571e-006 0.000136755 
-0.033655 0.008715 0.183124 -8.68494e-005 9.25555e-005 0.00043706 
-0.029746 0.019645 0.18237 -0.000195534 1.0173e-005 0.000579878 
-0.036656 0.016863 0.152073 -0.000132936 3.12886e-005 -0.00026155 
-0.040358 0.003084 0.155161 -0.000118245 -7.83863e-005 -0.000176212 
-0.048202 0.000988 0.169543 -0.000555692 -0.000283431 2.03336e-005 
-0.046428 0.002983 0.173297 -0.000192544 -5.66364e-005 0.000220897 
-0.02409 0.036559 0.180312 2.22864e-006 0.000198941 0.000121125 
-0.025437 0.037029 0.175998 -0.000138832 0.000302222 0.0003062 
-0.021831 0.043879 0.160741 -4.17026e-006 0.000537383 -0.000301827 
-0.021853 0.038255 0.156062 -1.728e-005 0.000105142 -0.000206199 
-0.039832 0.025531 0.153018 -0.000107868 0.000142449 -0.000526642 
-0.040534 0.011833 0.152685 -0.000408315 2.9637e-005 -0.000481666 
-0.028671 0.030836 0.183633 -0.000185925 0.000128279 0.000227175 
-0.027547 0.044168 0.17264 -4.22868e-006 0.000253984 0.000312612 
-0.024958 0.045992 0.16991 4.93688e-005 0.000253329 1.75628e-005 
-0.028084 0.033511 0.155642 -0.00011861 0.00031061 -0.000465804 
-0.048246 0.01223 0.174214 -0.000377523 0.000103203 0.000517569 
-0.036861 0.014931 0.181045 -0.000257605 0.000106231 0.000503356 
-0.052896 0.007009 0.164239 -0.000749412 -4.59066e-006 -0.000433873 
-0.052637 0.009175 0.172891 -0.000157928 -6.71499e-005 0.000109046 
-0.035104 0.028163 0.177919 -0.00021424 0.000162509 0.000365524 
-0.030142 0.044762 0.167939 -9.7397e-005 0.000162907 -4.04955e-005 
-0.040567 0.030586 0.155159 -0.000207808 0.000301934 -0.000262085 
-0.043394 0.026564 0.158041 -0.000557284 0.000141643 -0.000461876 
-0.033457 0.039453 0.163986 -0.000304347 0.00052111 -0.000313328 
-0.053226 0.01449 0.171389 -0.000203886 7.67333e-005 5.48816e-005 
-0.035244 0.033918 0.174966 -6.31111e-005 0.000153756 0.000238236 
-0.041483 0.029001 0.174992 -0.000287083 0.000126703 0.000499041 
-0.032784 0.040102 0.169695 -0.000125535 0.000186033 0.000154826 
-0.048333 0.02581 0.165622 -0.00043134 0.000162959 -8.998e-005 
-0.041194 0.036875 0.172579 -0.000101109 0.000202461 0.000103617 
-0.045783 0.032847 0.168559 -0.000338588 0.000309441 -0.000134044 
-0.045316 0.032547 0.173317 -7.84301e-005 3.19533e-005 7.15284e-005 
-0.048018 0.026344 0.169801 -0.000227596 4.43599e-005 0.000133873 
-0.008786 -0.018503 0.161375 -0.000451001 6.50204e-005 2.09194e-005 
-0.001626 -0.003165 0.165889 -0.000246959 0.000193904 4.82872e-005 
-0.002218 -0.006186 0.157518 -0.000286989 0.00022261 -0.000169998 
-0.001359 -0.008876 0.166599 -0.000299574 8.10477e-005 0.000264687 
3.8e-005 -0.011068 0.152731 -0.000434391 0.000312222 -0.000976538 
-0.005853 -0.024614 0.16089 -0.000412669 -0.000105621 -5.39003e-005 
0.002173 -0.010747 0.173061 -0.000142308 8.49816e-005 0.000333196 
-0.002517 -0.024156 0.169831 -0.000387918 -2.84916e-005 0.000242935 
0.008251 0.002744 0.160436 -0.000150343 0.000857765 -0.000315473 
-0.003162 -0.030125 0.155538 -0.000356306 -0.000150327 -0.000413553 
0.003157 -0.001772 0.167697 -5.48366e-005 0.000214741 0.000278171 
0.001398 -0.031361 0.167624 -0.00026439 -0.000289387 0.000453559 
-0.000812 -0.026424 0.172457 -2.11688e-005 -5.91482e-005 0.000332252 
-0.002803 -0.034912 0.16373 -0.000205301 -0.000162168 6.00736e-005 
0.003143 -0.018471 0.152259 -9.53544e-005 -6.20405e-006 -0.000150825 
0.010562 -0.011557 0.171559 -7.85094e-005 0.000120565 0.000760111 
0.012096 -0.002415 0.167855 -8.82798e-005 0.000251364 0.000268485 
0.003045 -0.036811 0.158321 -0.000203481 -0.000283153 -0.000183517 
0.022565 0.001324 0.16838 1.77671e-005 0.00034058 0.000141309 
0.031603 -0.000132 0.161186 0.000274751 0.00068492 -0.000105942 
0.006285 -0.020998 0.14919 -0.000207661 -6.69255e-005 -0.000855123 
0.019844 -0.003897 0.152292 3.26959e-005 0.000548667 -0.000805765 
0.007173 -0.026782 0.171263 -4.19914e-005 -3.49055e-005 0.000273462 
0.007041 -0.033109 0.153922 -0.000137933 -0.000181591 -0.000461172 
0.021812 -0.01221 0.150092 4.9918e-005 0.00032511 -0.000867052 
0.017963 -0.002263 0.172687 -1.33367e-005 0.000135459 0.000244581 
0.018581 -0.007596 0.174338 3.23018e-006 4.92298e-007 0.000164657 
0.013331 -0.025701 0.174721 -0.000104016 -0.000107303 0.000685411 
0.015969 -0.027489 0.150579 -8.56759e-005 -0.000133594 -0.000391164 
0.006726 -0.039609 0.163584 -0.000209714 -0.000349741 0.000181175 
0.014359 -0.041587 0.153321 -8.62757e-005 -0.000125669 -0.000296157 
0.018506 -0.013855 0.172711 2.26275e-005 2.22978e-005 0.000391283 
0.01603 -0.039321 0.168538 -0.000134828 -0.000280957 0.000508568 
0.019254 -0.014633 0.146967 1.99921e-005 2.44843e-005 -0.000562411 
0.020722 -0.032463 0.171828 0.000103273 -0.000120136 0.000353574 
0.032454 -0.003256 0.156395 0.000192784 0.000246161 -0.000175865 
0.024668 -0.009458 0.171276 6.21357e-005 0.00010075 0.000426576 
0.024159 -0.023146 0.173052 5.35752e-005 -7.35007e-005 0.000561469 
0.0153 -0.044725 0.156831 -9.21611e-005 -0.000321201 -0.000114715 
0.028419 -0.034603 0.149352 4.4269e-006 -0.000175676 -0.000660591 
0.026749 -0.002464 0.167979 9.11547e-005 0.000127872 0.000192536 
0.01774 -0.045558 0.16574 -7.59157e-005 -0.000240837 0.000153278 
0.019631 -0.036342 0.152429 -1.31954e-005 -0.000221171 -0.000360823 
0.0401 -0.010408 0.156117 0.000246343 0.000330755 -0.000426481 
0.021649 -0.046786 0.162163 2.3165e-005 -0.000214945 -0.000122513 
0.032586 -0.025016 0.14995 0.00019275 -6.5639e-005 -0.000698605 
0.036516 -0.016846 0.150256 0.000225673 0.000127424 -0.000581249 
0.032799 -0.004434 0.168701 0.000195929 0.000299733 0.000376578 
0.030121 -0.016935 0.174098 0.000130078 2.77601e-005 0.00060313 
0.02421 -0.040809 0.16792 6.51242e-005 -0.000178424 0.000401866 
0.027156 -0.041581 0.154473 8.06239e-005 -0.000347366 -0.000481282 
0.027283 -0.030715 0.167373 5.4602e-005 -0.000130098 0.000413231 
0.02509 -0.044492 0.163486 2.88905e-005 -0.000263276 4.53623e-005 
0.036945 -0.012864 0.172831 9.93927e-005 5.39418e-005 0.000174263 
0.043872 -0.017817 0.166528 0.000341922 3.78913e-005 0.000497388 
0.03351 -0.026595 0.172085 2.64444e-006 -0.000109864 0.000224002 
0.046053 -0.014896 0.165627 0.000443836 0.000304175 0.000121794 
0.034469 -0.038761 0.167744 2.18723e-005 -9.88131e-005 0.000374819 
0.042862 -0.031337 0.153544 0.000477934 -0.000228958 -0.000696404 
0.036089 -0.044659 0.163595 0.000186733 -0.000332975 0.000150041 
0.033613 -0.043967 0.157348 0.000207621 -0.000351553 -0.000225921 
0.046908 -0.014917 0.1583 0.000470885 8.44881e-005 -0.000269513 
0.038808 -0.030947 0.169053 0.000112395 -5.30536e-005 0.000496461 
0.044735 -0.032105 0.168562 0.000193787 -9.29797e-005 0.000256325 
0.046721 -0.031676 0.162674 0.00065195 -0.000241528 -5.32635e-005 
0.018338 0.012926 0.148396 4.19808e-005 0.000272462 4.54317e-006 
0.026919 0.007962 0.151039 0.000227954 0.000220938 0.000133838 
0.022222 0.007397 0.143333 0.000169873 0.000197566 -0.000315955 
0.0223 0.006135 0.155239 7.55142e-005 4.51107e-005 0.000189394 
0.013308 0.008681 0.154886 -1.37828e-005 0.000181968 0.000273051 
0.029858 0.001896 0.147846 0.000280943 3.42088e-005 -0.000114453 
0.01127 0.010242 0.144977 -0.000110108 0.000220641 -0.000346992 
0.028295 -0.006381 0.152498 0.000253139 -4.00554e-005 0.000277827 
0.008459 0.010279 0.149775 -0.000279452 0.000224697 0.000161091 
0.021076 0.001197 0.15498 4.2339e-005 -5.4545e-006 0.00027971 
0.003683 0.000609 0.143679 -0.000222314 7.58372e-005 -0.000126631 
0.026982 -0.011578 0.148285 0.000356589 -0.000239066 -0.000103992 
0.016109 0.004263 0.14126 -1.21949e-005 0.000103294 -0.000403178 
0.025389 -0.004525 0.143076 0.000256926 -3.43746e-005 -0.0003824 
0.013003 0.000394 0.156211 -0.00014017 3.29809e-005 0.000708407 
0.007036 -0.007952 0.141355 -0.00021118 1.44128e-005 -0.000528693 
0.003273 -0.003224 0.150952 -0.000462331 8.98197e-005 0.000198281 
0.019156 -0.00363 0.139958 3.28585e-005 -9.95502e-006 -0.000330583 
0.021897 -0.007054 0.154194 5.74187e-005 -4.77245e-006 0.000245187 
0.016979 -0.013587 0.141884 0.000101561 -0.000203617 -0.000482827 
0.01928 -0.014041 0.155104 9.36827e-005 -0.000154415 0.000442207 
0.003232 -0.011031 0.144501 -0.000180349 -7.52858e-005 -0.000171917 
0.005524 -0.009173 0.154993 -8.15735e-005 -6.96654e-006 0.000155717 
0.007656 -0.017598 0.152605 -0.000216223 -0.000313744 0.000363324 
0.017627 -0.01925 0.150886 7.58784e-005 -0.000171828 0.000100005 
0.0082 -0.016544 0.143809 -8.50559e-005 -0.000173251 -0.000138782 
0.002097 -0.011637 0.148602 -0.000105632 -2.82069e-005 3.48074e-005 
0.017571 -0.019748 0.146595 5.37087e-005 -0.000252945 -0.000120989 
-0.054752 0.003464 0.152562 -0.000259527 -9.29435e-005 4.55611e-006 
-0.054477 0.013373 0.155205 -0.000302854 9.50974e-005 0.000133859 
-0.051743 0.009514 0.1475 -0.000254641 5.51767e-005 -0.000315956 
-0.05067 0.010183 0.159405 -7.56469e-005 4.48858e-005 0.000189378 
-0.048623 0.001065 0.159052 -0.000153399 -9.88431e-005 0.00027304 
-0.050546 0.018848 0.152012 -0.000163958 0.000230673 -0.000114441 
-0.049024 -0.001471 0.149143 -0.0001415 -0.000201947 -0.000346992 
-0.042524 0.021419 0.156664 -8.54303e-005 0.000241628 0.000277826 
-0.047716 -0.00396 0.153941 -6.43438e-005 -0.000352764 0.000161104 
-0.045746 0.01146 0.159146 -1.5385e-005 3.98217e-005 0.000279707 
-0.03694 -0.003549 0.147845 3.92891e-005 -0.000231586 -0.000126628 
-0.037329 0.022741 0.152451 4.02201e-005 0.00042743 -0.000103997 
-0.046073 0.005633 0.145426 -8.50157e-005 -5.99459e-005 -0.000403196 
-0.042771 0.017979 0.147242 -9.22366e-005 0.000242255 -0.000382412 
-0.041192 0.004747 0.160377 3.78111e-005 -0.000138945 0.000708422 
-0.031011 0.003478 0.145521 8.79776e-005 -0.000192517 -0.000528661 
-0.033374 -0.002083 0.155118 0.000141375 -0.000449252 0.000198272 
-0.040587 0.012073 0.144124 -6.90842e-006 3.36299e-005 -0.000330571 
-0.038883 0.016115 0.15836 -2.31721e-005 5.27524e-005 0.00024518 
-0.030796 0.014905 0.14605 0.000130611 0.000186326 -0.00048283 
-0.031494 0.017144 0.15927 9.11064e-005 0.000155954 0.000442198 
-0.026492 0.001602 0.148667 0.000152139 -0.000122666 -0.000171918 
-0.029216 0.002731 0.159159 4.4997e-005 -6.8395e-005 0.000155719 
-0.022826 0.00862 0.156771 0.000378848 -4.05566e-005 0.000363314 
-0.026126 0.018173 0.155052 0.000114894 0.0001486 0.000100018 
-0.024012 0.008596 0.147976 0.000192845 7.79076e-006 -0.000138794 
-0.025418 0.000892 0.152768 7.51365e-005 -7.94212e-005 3.47887e-005 
-0.025662 0.018362 0.150761 0.000196769 0.000167763 -0.000120986 
0.0165 -0.017824 0.147006 -9.28635e-005 0.000259551 4.54606e-006 
0.026409 -0.018102 0.149649 9.5191e-005 0.000302836 0.000133847 
0.022549 -0.020836 0.141943 5.52692e-005 0.000254651 -0.000315988 
0.023218 -0.021908 0.153849 4.49007e-005 7.56361e-005 0.000189384 
0.014099 -0.023953 0.153495 -9.8815e-005 0.000153429 0.00027306 
0.031883 -0.022035 0.146456 0.000230736 0.000163897 -0.000114451 
0.011563 -0.023551 0.143587 -0.000201918 0.000141554 -0.000347003 
0.034451 -0.030058 0.151108 0.000241659 8.53578e-005 0.000277821 
0.009074 -0.024858 0.148384 -0.00035274 6.44408e-005 0.000161107 
0.024494 -0.026833 0.15359 3.98166e-005 1.53811e-005 0.000279712 
0.009482 -0.035635 0.142289 -0.000231582 -3.92261e-005 -0.000126618 
0.035772 -0.035253 0.146895 0.000427407 -4.035e-005 -0.000103978 
0.018667 -0.026504 0.139869 -5.99188e-005 8.50165e-005 -0.000403186 
0.031012 -0.029811 0.141686 0.000242294 9.21536e-005 -0.000382401 
0.017779 -0.031385 0.154821 -0.000138971 -3.77533e-005 0.000708433 
0.016507 -0.041565 0.139965 -0.000192559 -8.79343e-005 -0.000528686 
0.010947 -0.039201 0.149562 -0.000449304 -0.00014124 0.000198259 
0.025105 -0.031992 0.138568 3.36433e-005 6.88298e-006 -0.000330561 
0.029147 -0.033697 0.152804 5.27605e-005 2.31536e-005 0.000245179 
0.027934 -0.041784 0.140494 0.00018628 -0.000130655 -0.000482824 
0.030173 -0.041087 0.153714 0.000155942 -9.11628e-005 0.000442202 
0.01463 -0.046085 0.143111 -0.000122722 -0.000152096 -0.00017192 
0.015759 -0.04336 0.153603 -6.84075e-005 -4.49779e-005 0.000155716 
0.021647 -0.049752 0.151215 -4.06619e-005 -0.000378846 0.000363315 
0.031201 -0.046455 0.149495 0.000148566 -0.000114936 0.000100008 
0.021623 -0.048566 0.142419 7.74369e-006 -0.000192838 -0.000138779 
0.01392 -0.047158 0.147212 -7.94437e-005 -7.51137e-005 3.47995e-005 
0.031389 -0.046919 0.145205 0.000167698 -0.00019681 -0.000120994 
-0.000246 0.04979 0.155963 0.000188812 0.00020083 4.5648e-006 
0.004017 0.040841 0.158606 0.000312977 5.31089e-005 0.000133853 
-0.000174 0.043034 0.150901 0.000251862 6.67219e-005 -0.000315965 
-0.000824 0.04195 0.162807 8.78064e-005 -5.55269e-006 0.000189389 
-0.006796 0.049138 0.162453 9.16477e-005 0.000157842 0.000273041 
0.003008 0.034177 0.155413 0.000250958 -0.000130825 -0.000114445 
-0.007592 0.051579 0.152545 3.41314e-005 0.000244216 -0.000346989 
-0.002967 0.028238 0.160065 0.000186032 -0.000176334 0.000277839 
-0.00989 0.0532 0.157342 -0.000103187 0.00034341 0.000161099 
-0.004629 0.038572 0.162548 3.18173e-005 -2.84679e-005 0.000279718 
-0.019299 0.047932 0.151246 -0.00014033 0.000188344 -0.00012662 
-0.006992 0.024697 0.155852 0.000158646 -0.000398955 -0.000103994 
-0.006988 0.04391 0.148827 4.84351e-005 9.20832e-005 -0.000403196 
-0.004312 0.031413 0.150643 0.000192355 -0.000173768 -0.000382402 
-0.011738 0.042479 0.163779 -9.69011e-005 0.000106547 0.000708422 
-0.021382 0.038977 0.148922 -0.000165932 0.000131431 -0.000528695 
-0.021807 0.045004 0.158519 -0.000330291 0.000335757 0.000198259 
-0.008943 0.035679 0.147525 2.14514e-005 -2.68051e-005 -0.000330579 
-0.008622 0.031304 0.161761 4.46477e-005 -3.64462e-005 0.00024519 
-0.016374 0.028703 0.149451 -3.15495e-005 -0.000225353 -0.000482832 
-0.014735 0.027026 0.162672 -1.01816e-005 -0.000180344 0.000442203 
-0.02626 0.038591 0.152068 -0.000191305 4.00227e-005 -0.000171917 
-0.02332 0.038826 0.16256 -7.12021e-005 4.04403e-005 0.000155712 
-0.026331 0.030674 0.160172 -0.00035585 -0.000136243 0.000363325 
-0.019046 0.023668 0.158453 -3.47204e-005 -0.000184615 9.99971e-005 
-0.025286 0.031235 0.151377 -0.00016818 -9.46748e-005 -0.00013879 
-0.027539 0.038735 0.15617 -0.000103043 3.65451e-005 3.47991e-005 
-0.019374 0.023289 0.154162 -9.89055e-005 -0.000238915 -0.000120988 
3 0 1 2 
3 0 2 3 
3 4 5 6 
3 7 8 9 
3 7 9 10 
3 10 11 12 
3 10 12 7 
3 13 14 15 
3 13 15 16 
3 17 18 19 
3 20 2 1 
3 20 1 21 
3 16 9 8 
3 16 8 13 
3 21 15 14 
3 21 14 20 
3 22 23 24 
3 25 26 27 
3 3 12 11 
3 3 11 0 
3 28 29 30 
3 28 30 31 
3 29 32 33 
3 29 33 30 
3 32 34 35 
3 32 35 33 
3 36 37 38 
3 36 38 39 
3 37 28 31 
3 37 31 38 
3 34 36 39 
3 34 39 35 
3 29 28 40 
3 29 40 41 
3 42 43 44 
3 42 44 45 
3 43 29 41 
3 43 41 44 
3 28 37 46 
3 28 46 40 
3 37 47 48 
3 37 48 46 
3 47 42 45 
3 47 45 48 
3 10 9 29 
3 10 29 43 
3 42 11 10 
3 42 10 43 
3 0 11 42 
3 0 42 47 
3 37 1 0 
3 37 0 47 
3 21 1 37 
3 21 37 36 
3 34 15 21 
3 34 21 36 
3 16 15 34 
3 16 34 32 
3 32 29 9 
3 32 9 16 
3 49 50 51 
3 49 51 52 
3 52 53 54 
3 52 54 49 
3 53 55 56 
3 53 56 54 
3 55 57 58 
3 55 58 56 
3 59 58 57 
3 59 57 60 
3 60 61 62 
3 60 62 59 
3 63 62 61 
3 63 61 64 
3 51 50 63 
3 51 63 64 
3 7 12 62 
3 7 62 63 
3 59 62 12 
3 59 12 3 
3 3 2 58 
3 3 58 59 
3 56 58 2 
3 56 2 20 
3 20 14 54 
3 20 54 56 
3 49 54 14 
3 49 14 13 
3 13 8 50 
3 13 50 49 
3 63 50 8 
3 63 8 7 
3 41 40 65 
3 41 65 66 
3 45 44 67 
3 45 67 68 
3 44 41 66 
3 44 66 67 
3 40 46 69 
3 40 69 65 
3 46 48 70 
3 46 70 69 
3 48 45 68 
3 48 68 70 
3 31 30 71 
3 31 71 72 
3 30 33 73 
3 30 73 71 
3 33 35 74 
3 33 74 73 
3 39 38 75 
3 39 75 76 
3 38 31 72 
3 38 72 75 
3 35 39 76 
3 35 76 74 
3 72 71 77 
3 72 77 78 
3 71 73 79 
3 71 79 77 
3 73 74 80 
3 73 80 79 
3 76 75 81 
3 76 81 82 
3 75 72 78 
3 75 78 81 
3 74 76 82 
3 74 82 80 
3 66 65 83 
3 66 83 84 
3 68 67 85 
3 68 85 86 
3 67 66 84 
3 67 84 85 
3 65 69 87 
3 65 87 83 
3 69 70 88 
3 69 88 87 
3 70 68 86 
3 70 86 88 
3 84 83 89 
3 84 89 90 
3 86 85 91 
3 86 91 92 
3 85 84 90 
3 85 90 91 
3 83 87 93 
3 83 93 89 
3 87 88 94 
3 87 94 93 
3 88 86 92 
3 88 92 94 
3 78 77 95 
3 78 95 96 
3 77 79 97 
3 77 97 95 
3 79 80 98 
3 79 98 97 
3 82 81 99 
3 82 99 100 
3 81 78 96 
3 81 96 99 
3 80 82 100 
3 80 100 98 
3 100 99 101 
3 100 101 102 
3 99 96 103 
3 99 103 101 
3 96 98 104 
3 96 104 103 
3 98 100 102 
3 98 102 104 
3 102 101 105 
3 102 105 106 
3 101 103 107 
3 101 107 105 
3 103 104 108 
3 103 108 107 
3 104 102 106 
3 104 106 108 
3 106 105 109 
3 106 109 110 
3 105 107 111 
3 105 111 109 
3 107 108 112 
3 107 112 111 
3 108 106 110 
3 108 110 112 
3 110 109 113 
3 110 113 114 
3 109 111 115 
3 109 115 113 
3 111 112 116 
3 111 116 115 
3 112 110 114 
3 112 114 116 
3 98 96 117 
3 98 117 118 
3 96 95 119 
3 96 119 117 
3 95 97 120 
3 95 120 119 
3 97 98 118 
3 97 118 120 
3 118 117 121 
3 118 121 122 
3 117 119 123 
3 117 123 121 
3 119 120 124 
3 119 124 123 
3 120 118 122 
3 120 122 124 
3 122 121 125 
3 122 125 126 
3 121 123 127 
3 121 127 125 
3 123 124 128 
3 123 128 127 
3 124 122 126 
3 124 126 128 
3 126 125 129 
3 126 129 130 
3 125 127 131 
3 125 131 129 
3 127 128 132 
3 127 132 131 
3 128 126 130 
3 128 130 132 
3 90 89 133 
3 90 133 134 
3 89 92 135 
3 89 135 133 
3 92 91 136 
3 92 136 135 
3 91 90 134 
3 91 134 136 
3 92 89 137 
3 92 137 138 
3 89 93 139 
3 89 139 137 
3 93 94 140 
3 93 140 139 
3 94 92 138 
3 94 138 140 
3 134 133 141 
3 134 141 142 
3 133 135 143 
3 133 143 141 
3 135 136 144 
3 135 144 143 
3 136 134 142 
3 136 142 144 
3 142 141 145 
3 142 145 146 
3 141 143 147 
3 141 147 145 
3 143 144 148 
3 143 148 147 
3 144 142 146 
3 144 146 148 
3 146 145 149 
3 146 149 150 
3 145 147 151 
3 145 151 149 
3 147 148 152 
3 147 152 151 
3 148 146 150 
3 148 150 152 
3 138 137 153 
3 138 153 154 
3 137 139 155 
3 137 155 153 
3 139 140 156 
3 139 156 155 
3 140 138 154 
3 140 154 156 
3 154 153 157 
3 154 157 158 
3 153 155 159 
3 153 159 157 
3 155 156 160 
3 155 160 159 
3 156 154 158 
3 156 158 160 
3 158 157 161 
3 158 161 162 
3 157 159 163 
3 157 163 161 
3 159 160 164 
3 159 164 163 
3 160 158 162 
3 160 162 164 
3 165 166 167 
3 168 169 170 
3 171 172 173 
3 174 175 176 
3 132 129 177 
3 132 177 178 
3 129 131 179 
3 129 179 177 
3 131 132 178 
3 131 178 179 
3 114 113 180 
3 114 180 181 
3 113 115 182 
3 113 182 180 
3 115 114 181 
3 115 181 182 
3 162 163 183 
3 162 183 184 
3 163 164 185 
3 163 185 183 
3 164 162 184 
3 164 184 185 
3 150 151 186 
3 150 186 187 
3 151 152 188 
3 151 188 186 
3 152 150 187 
3 152 187 188 
3 178 177 18 
3 178 18 17 
3 177 179 19 
3 177 19 18 
3 179 178 17 
3 179 17 19 
3 181 180 169 
3 181 169 168 
3 180 182 170 
3 180 170 169 
3 182 181 168 
3 182 168 170 
3 184 183 172 
3 184 172 171 
3 183 185 173 
3 183 173 172 
3 185 184 171 
3 185 171 173 
3 187 186 175 
3 187 175 174 
3 186 188 176 
3 186 176 175 
3 188 187 174 
3 188 174 176 
3 150 149 189 
3 150 189 190 
3 149 151 191 
3 149 191 189 
3 151 150 190 
3 151 190 191 
3 114 115 192 
3 114 192 193 
3 115 116 194 
3 115 194 192 
3 116 114 193 
3 116 193 194 
3 162 161 195 
3 162 195 196 
3 161 163 197 
3 161 197 195 
3 163 162 196 
3 163 196 197 
3 130 129 198 
3 130 198 199 
3 129 132 200 
3 129 200 198 
3 132 130 199 
3 132 199 200 
3 190 189 5 
3 190 5 4 
3 189 191 6 
3 189 6 5 
3 191 190 4 
3 191 4 6 
3 193 192 23 
3 193 23 22 
3 192 194 24 
3 192 24 23 
3 194 193 22 
3 194 22 24 
3 196 195 26 
3 196 26 25 
3 195 197 27 
3 195 27 26 
3 197 196 25 
3 197 25 27 
3 199 198 166 
3 199 166 165 
3 198 200 167 
3 198 167 166 
3 200 199 165 
3 200 165 167 
3 201 202 203 
3 202 204 205 
3 201 206 204 
3 207 201 203 
3 205 204 208 
3 208 204 206 
3 203 202 209 
3 209 202 210 
3 206 201 207 
3 208 206 211 
3 202 212 210 
3 202 205 212 
3 213 205 214 
3 205 208 214 
3 214 208 215 
3 208 211 215 
3 211 206 207 
3 207 203 216 
3 209 210 217 
3 211 218 215 
3 207 219 211 
3 207 216 220 
3 210 221 217 
3 210 212 221 
3 205 222 212 
3 205 213 222 
3 214 215 223 
3 211 224 218 
3 224 211 219 
3 207 225 219 
3 203 226 216 
3 203 209 226 
3 212 222 221 
3 222 213 227 
3 227 213 214 
3 215 228 223 
3 215 218 228 
3 218 229 228 
3 218 230 229 
3 218 224 230 
3 207 220 225 
3 216 226 220 
3 226 209 231 
3 231 209 217 
3 221 222 232 
3 222 233 232 
3 222 227 233 
3 214 223 234 
3 224 235 230 
3 219 236 224 
3 225 236 219 
3 231 217 237 
3 217 238 237 
3 217 232 238 
3 221 232 217 
3 227 214 234 
3 234 223 239 
3 224 236 235 
3 236 225 240 
3 220 241 225 
3 225 241 240 
3 231 242 226 
3 227 234 239 
3 223 243 239 
3 223 228 243 
3 229 230 244 
3 244 230 235 
3 236 240 245 
3 226 242 246 
3 231 237 242 
3 238 232 247 
3 233 227 239 
3 248 228 249 
3 228 229 249 
3 229 244 249 
3 235 236 245 
3 240 241 250 
3 220 251 241 
3 241 251 250 
3 220 226 251 
3 246 251 226 
3 237 238 252 
3 238 247 253 
3 247 232 254 
3 232 233 254 
3 233 255 254 
3 243 228 248 
3 244 235 256 
3 245 240 257 
3 240 250 257 
3 237 252 242 
3 247 254 255 
3 233 239 258 
3 243 259 260 
3 243 248 259 
3 249 244 261 
3 244 256 261 
3 256 235 262 
3 235 245 262 
3 262 245 263 
3 250 251 264 
3 264 251 246 
3 252 238 265 
3 238 253 265 
3 233 266 255 
3 233 258 266 
3 258 239 260 
3 239 243 260 
3 260 259 267 
3 248 249 268 
3 261 256 269 
3 269 256 262 
3 257 263 245 
3 257 250 270 
3 270 250 264 
3 264 246 271 
3 246 242 272 
3 272 242 273 
3 252 274 242 
3 252 265 274 
3 253 275 265 
3 247 275 253 
3 247 276 275 
3 255 276 247 
3 258 260 267 
3 267 259 277 
3 259 278 277 
3 248 278 259 
3 248 268 278 
3 261 269 249 
3 249 269 268 
3 257 270 263 
3 271 246 279 
3 273 242 274 
3 255 280 276 
3 255 266 280 
3 258 281 266 
3 281 258 267 
3 269 282 268 
3 262 283 269 
3 262 263 283 
3 264 284 270 
3 264 271 284 
3 246 285 279 
3 272 285 246 
3 273 274 286 
3 265 287 274 
3 275 287 265 
3 275 288 287 
3 276 288 275 
3 276 280 288 
3 266 281 280 
3 267 277 289 
3 289 277 290 
3 277 278 290 
3 268 282 291 
3 269 292 282 
3 282 292 291 
3 269 283 292 
3 263 270 293 
3 293 270 294 
3 270 284 294 
3 271 279 284 
3 285 272 295 
3 286 274 287 
3 288 296 287 
3 281 297 280 
3 280 297 288 
3 267 289 281 
3 290 278 298 
3 278 268 298 
3 283 299 292 
3 283 263 300 
3 300 263 293 
3 293 294 301 
3 284 301 294 
3 279 302 284 
3 284 302 301 
3 279 285 302 
3 302 285 303 
3 295 303 285 
3 272 273 295 
3 304 288 297 
3 291 292 299 
3 283 300 299 
3 273 305 295 
3 273 306 305 
3 273 286 306 
3 286 287 296 
3 304 297 307 
3 297 281 307 
3 307 281 308 
3 281 289 308 
3 268 309 298 
3 310 299 300 
3 301 311 293 
3 301 302 312 
3 312 302 313 
3 302 303 313 
3 303 295 313 
3 286 314 306 
3 286 296 314 
3 296 288 304 
3 289 290 315 
3 298 316 290 
3 290 316 315 
3 298 309 316 
3 268 291 309 
3 291 299 317 
3 317 299 310 
3 310 300 318 
3 293 318 300 
3 293 311 318 
3 301 312 311 
3 296 319 314 
3 304 319 296 
3 319 304 320 
3 307 321 304 
3 304 321 320 
3 308 289 322 
3 322 289 323 
3 323 289 315 
3 309 291 317 
3 312 313 324 
3 313 295 325 
3 295 305 325 
3 314 326 306 
3 319 326 314 
3 319 320 327 
3 307 322 321 
3 308 322 307 
3 316 309 328 
3 328 309 329 
3 310 318 330 
3 318 331 330 
3 311 331 318 
3 311 312 332 
3 312 324 332 
3 313 333 324 
3 313 325 333 
3 305 306 326 
3 319 327 326 
3 315 334 323 
3 315 316 334 
3 316 328 334 
3 317 335 309 
3 317 336 335 
3 317 330 336 
3 310 330 317 
3 331 311 337 
3 337 311 332 
3 325 305 333 
3 327 320 338 
3 322 320 321 
3 322 339 320 
3 322 323 339 
3 309 335 329 
3 330 331 337 
3 305 326 340 
3 326 327 341 
3 342 334 329 
3 334 328 329 
3 330 343 336 
3 344 332 345 
3 332 324 345 
3 305 340 333 
3 340 326 341 
3 341 327 338 
3 334 342 323 
3 330 337 346 
3 332 344 337 
3 324 333 345 
3 347 340 341 
3 339 323 342 
3 342 329 348 
3 336 343 335 
3 330 346 343 
3 320 339 338 
3 339 342 349 
3 342 348 349 
3 329 350 348 
3 329 335 350 
3 335 343 350 
3 337 344 346 
3 340 345 333 
3 347 351 340 
3 340 351 345 
3 347 341 338 
3 338 339 349 
3 350 343 346 
3 348 352 349 
3 348 350 352 
3 353 346 344 
3 347 338 351 
3 352 354 349 
3 344 345 353 
3 338 349 355 
3 355 349 354 
3 346 352 350 
3 346 353 352 
3 351 338 355 
3 352 353 354 
3 351 353 345 
3 351 355 353 
3 202 201 204 
3 353 355 354 
3 356 357 358 
3 357 356 359 
3 360 356 358 
3 361 356 360 
3 362 359 363 
3 359 356 363 
3 356 361 363 
3 358 357 364 
3 360 365 361 
3 357 366 364 
3 359 366 357 
3 359 362 366 
3 363 367 368 
3 363 361 367 
3 361 369 367 
3 361 365 369 
3 360 370 365 
3 360 358 364 
3 366 371 372 
3 366 362 371 
3 363 368 362 
3 365 373 369 
3 364 374 375 
3 364 372 374 
3 366 372 364 
3 362 368 371 
3 370 376 365 
3 364 377 360 
3 368 378 371 
3 368 367 378 
3 365 376 379 
3 360 377 380 
3 364 375 377 
3 374 372 381 
3 373 365 379 
3 370 360 376 
3 380 376 360 
3 372 371 381 
3 371 382 381 
3 378 367 383 
3 379 376 384 
3 378 383 371 
3 367 369 385 
3 369 373 385 
3 373 379 386 
3 371 387 382 
3 383 367 388 
3 384 386 379 
3 376 380 389 
3 387 371 383 
3 383 388 390 
3 367 385 388 
3 391 377 375 
3 382 392 381 
3 382 387 392 
3 393 387 383 
3 373 394 385 
3 373 386 394 
3 376 395 384 
3 376 389 395 
3 374 396 375 
3 381 396 374 
3 381 392 396 
3 387 393 392 
3 383 390 393 
3 388 385 397 
3 385 394 397 
3 386 384 398 
3 398 384 395 
3 380 377 399 
3 394 400 397 
3 394 386 398 
3 389 401 395 
3 389 380 401 
3 401 380 402 
3 399 402 380 
3 377 391 399 
3 403 396 392 
3 394 398 400 
3 375 396 403 
3 403 392 404 
3 392 393 404 
3 388 405 390 
3 406 400 398 
3 395 406 398 
3 393 390 407 
3 390 405 407 
3 388 397 405 
3 397 400 408 
3 408 400 406 
3 395 401 406 
3 404 409 403 
3 403 409 410 
3 404 393 411 
3 411 393 407 
3 405 397 408 
3 375 412 391 
3 403 412 375 
3 407 405 413 
3 406 401 414 
3 401 402 414 
3 399 391 412 
3 403 410 412 
3 408 415 405 
3 408 416 415 
3 406 416 408 
3 416 406 414 
3 404 410 409 
3 405 415 413 
3 399 412 417 
3 418 407 413 
3 399 417 402 
3 407 418 411 
3 404 411 418 
3 418 413 419 
3 416 420 415 
3 413 415 419 
3 416 414 420 
3 417 414 402 
3 412 420 417 
3 417 420 414 
3 410 404 418 
3 412 410 420 
3 410 418 419 
3 420 419 415 
3 420 410 419 
3 421 422 423 
3 424 422 425 
3 422 421 425 
3 423 422 426 
3 423 427 421 
3 422 428 426 
3 422 424 428 
3 425 421 429 
3 421 427 429 
3 428 424 430 
3 427 431 429 
3 426 428 432 
3 424 425 430 
3 423 433 427 
3 426 434 423 
3 426 432 434 
3 434 433 423 
3 425 429 435 
3 427 433 436 
3 425 435 430 
3 435 429 437 
3 436 431 427 
3 433 434 438 
3 439 430 435 
3 433 438 436 
3 430 439 428 
3 429 431 437 
3 438 440 436 
3 438 434 440 
3 432 440 434 
3 441 428 439 
3 431 436 437 
3 432 428 441 
3 439 435 441 
3 442 437 436 
3 435 437 443 
3 436 440 442 
3 441 435 444 
3 444 435 443 
3 441 445 432 
3 442 440 446 
3 437 442 447 
3 432 445 448 
3 444 443 437 
3 432 448 440 
3 442 444 447 
3 437 447 444 
3 442 446 444 
3 448 446 440 
3 445 444 448 
3 448 444 446 
3 445 441 444 
3 449 450 451 
3 452 450 453 
3 450 449 453 
3 451 450 454 
3 451 455 449 
3 450 456 454 
3 450 452 456 
3 453 449 457 
3 449 455 457 
3 456 452 458 
3 455 459 457 
3 454 456 460 
3 452 453 458 
3 451 461 455 
3 454 462 451 
3 454 460 462 
3 462 461 451 
3 453 457 463 
3 455 461 464 
3 453 463 458 
3 463 457 465 
3 464 459 455 
3 461 462 466 
3 467 458 463 
3 461 466 464 
3 458 467 456 
3 457 459 465 
3 466 468 464 
3 466 462 468 
3 460 468 462 
3 469 456 467 
3 459 464 465 
3 460 456 469 
3 467 463 469 
3 470 465 464 
3 463 465 471 
3 464 468 470 
3 469 463 472 
3 472 463 471 
3 469 473 460 
3 470 468 474 
3 465 470 475 
3 460 473 476 
3 472 471 465 
3 460 476 468 
3 470 472 475 
3 465 475 472 
3 470 474 472 
3 476 474 468 
3 473 472 476 
3 476 472 474 
3 473 469 472 
3 477 478 479 
3 480 478 481 
3 478 477 481 
3 479 478 482 
3 479 483 477 
3 478 484 482 
3 478 480 484 
3 481 477 485 
3 477 483 485 
3 484 480 486 
3 483 487 485 
3 482 484 488 
3 480 481 486 
3 479 489 483 
3 482 490 479 
3 482 488 490 
3 490 489 479 
3 481 485 491 
3 483 489 492 
3 481 491 486 
3 491 485 493 
3 492 487 483 
3 489 490 494 
3 495 486 491 
3 489 494 492 
3 486 495 484 
3 485 487 493 
3 494 496 492 
3 494 490 496 
3 488 496 490 
3 497 484 495 
3 487 492 493 
3 488 484 497 
3 495 491 497 
3 498 493 492 
3 491 493 499 
3 492 496 498 
3 497 491 500 
3 500 491 499 
3 497 501 488 
3 498 496 502 
3 493 498 503 
3 488 501 504 
3 500 499 493 
3 488 504 496 
3 498 500 503 
3 493 503 500 
3 498 502 500 
3 504 502 496 
3 501 500 504 
3 504 500 502 
3 501 497 500 
3 505 506 507 
3 508 506 509 
3 506 505 509 
3 507 506 510 
3 507 511 505 
3 506 512 510 
3 506 508 512 
3 509 505 513 
3 505 511 513 
3 512 508 514 
3 511 515 513 
3 510 512 516 
3 508 509 514 
3 507 517 511 
3 510 518 507 
3 510 516 518 
3 518 517 507 
3 509 513 519 
3 511 517 520 
3 509 519 514 
3 519 513 521 
3 520 515 511 
3 517 518 522 
3 523 514 519 
3 517 522 520 
3 514 523 512 
3 513 515 521 
3 522 524 520 
3 522 518 524 
3 516 524 518 
3 525 512 523 
3 515 520 521 
3 516 512 525 
3 523 519 525 
3 526 521 520 
3 519 521 527 
3 520 524 526 
3 525 519 528 
3 528 519 527 
3 525 529 516 
3 526 524 530 
3 521 526 531 
3 516 529 532 
3 528 527 521 
3 516 532 524 
3 526 528 531 
3 521 531 528 
3 526 530 528 
3 532 530 524 
3 529 528 532 
3 532 528 530 
3 529 525 528 
