ply
format ascii 1.0
comment VCGLIB generated
element vertex 240
property float x
property float y
property float z
property float nx
property float ny
property float nz
element face 416
property list uchar int vertex_indices
end_header
0.00433 -0.002123 0.00416 -0.792917 -2.82987 3.64208 
0.004283 -0.002154 0.003997 -0.868038 -0.21999 -0.71232 
0.005237 -0.002336 0.003598 -0.623902 -2.73867 -0.273948 
0.005314 -0.00232 0.0037 -0.376499 -3.88703 0.865576 
0.005797 -0.002119 0.003545 2.65984 -0.457311 -0.232711 
0.005713 -0.002091 0.00348 -0.85073 -0.943102 -3.62323 
0.005484 -0.001606 0.003598 1.69465 1.91925 -1.43115 
0.005536 -0.001666 0.0037 2.6815 2.77293 -0.299014 
0.004617 -0.00117 0.003997 1.27013 0.956364 -3.69026 
0.004635 -0.001224 0.00416 2.05083 -0.00897872 0.455053 
0.004671 -0.001737 0.003922 -0.0122018 -0.23876 -4.64652 
0.004706 -0.001749 0.004027 -0.18904 -0.293837 2.91543 
0.00208 -0.000244 0.003424 -2.21051 -0.169925 0.908494 
0.00194 -0.000811 0.003302 -2.80948 1.239 4.67189 
0.001706 -0.001347 0.003424 -2.60105 1.85377 4.67198 
0.00173 -0.001409 0.003226 -0.509362 0.00339779 -0.326566 
0.001977 -0.000823 0.003099 3.00874 -0.802964 -4.74674 
0.002137 -0.000209 0.003226 1.60217 -1.79002 -3.19705 
0.000642 8.1e-005 0.001455 -1.86912 3.09122 -0.13424 
0.000423 -0.000297 0.001504 -4.7749 1.93828 2.45747 
0.000367 -0.00073 0.001455 -4.82904 0.125679 2.25069 
0.000444 -0.000804 0.001408 0.317067 -1.78808 -0.885232 
0.000506 -0.000325 0.001435 4.93637 -1.36641 -2.53243 
0.000748 9.3e-005 0.001408 1.82131 0.426076 -2.93054 
0.000322 5.9e-005 0 -1.14995 1.9286 -0.0517568 
0.000112 -0.000178 -0 -2.7631 0.634466 0.557067 
0.000135 -0.000493 -0 -2.34156 -1.43571 0.158293 
0.00021 -0.000559 -0 1.27985 -0.836324 -0.400283 
0.000197 -0.000206 -0 2.59614 -1.16023 -0.590801 
0.000421 6.5e-005 0 1.70136 1.01521 -1.05796 
0.002686 0.004722 0.004642 2.65603 -1.11389 3.47288 
0.002708 0.004668 0.004459 0.121837 -0.833965 -0.766433 
0.003047 0.005771 0.004011 2.66751 -0.966062 -0.387786 
0.003046 0.005861 0.004126 3.83343 -0.884232 0.723152 
0.002937 0.006418 0.003952 0.340586 2.25774 -0.263381 
0.002895 0.006321 0.003879 0.798315 -0.995685 -3.6868 
0.002391 0.006054 0.004011 -1.99254 1.72456 -1.40102 
0.002457 0.006114 0.004126 -2.80451 2.6958 -0.293855 
0.001823 0.005048 0.004459 -1.04388 1.59702 -3.64013 
0.001878 0.005069 0.004642 -0.0714226 2.43528 0.593626 
0.002376 0.005113 0.004375 0.298464 -0.00513941 -4.62066 
0.002394 0.005155 0.004493 0.275636 -0.282478 2.85491 
0.000298 0.002177 0.003885 0.308071 -2.15105 0.975883 
0.001016 0.001957 0.003696 -1.41345 -2.60772 4.69347 
0.00167 0.001587 0.003885 -2.24776 -2.2486 4.69348 
0.001759 0.001626 0.003578 -0.0279588 -0.491551 -0.312161 
0.001042 0.002016 0.00338 1.00102 2.84699 -4.81368 
0.000265 0.002269 0.003578 1.76608 1.90114 -3.11433 
-6.5e-005 0.000443 0.001604 -3.01006 -1.54599 -0.041536 
0.000259 0.000191 0.001658 -2.36753 -4.44284 2.53031 
0.000665 0.000129 0.001604 -1.16555 -4.95775 2.53905 
0.000749 0.000218 0.001551 0.339454 -0.378065 -0.533728 
0.000301 0.000288 0.001581 1.58084 4.69348 -2.67833 
-5.8e-005 0.000565 0.001551 0.0341855 1.5924 -2.95367 
-7.8e-005 6.3e-005 0 -2.09315 -0.821881 -0.0135666 
0.000112 -0.000178 -0 -0.753054 -2.65692 0.590892 
0.000418 -0.00015 -0 -0.0951866 -2.9388 0.595294 
0.000494 -6.3e-005 -0 0.0836064 0.972544 -0.220888 
0.000154 -8e-005 -0 1.39621 2.40416 -0.620586 
-6.7e-005 0.000178 0 -0.758638 1.86115 -1.00872 
-0.005112 0.002363 0.004189 0.705063 3.03463 3.87936 
-0.005055 0.002398 0.004024 0.697081 0.349042 -0.673082 
-0.006185 0.002656 0.003623 0.68037 2.71414 -0.19725 
-0.006278 0.002642 0.003726 0.523464 3.83878 0.994853 
-0.00686 0.002428 0.00357 -2.57846 0.530391 -0.266021 
-0.006761 0.00239 0.003505 0.713248 0.977265 -3.69243 
-0.006506 0.001809 0.003623 -1.76035 -1.82782 -1.52516 
-0.006566 0.001882 0.003726 -2.73568 -2.67543 -0.34519 
-0.005488 0.001254 0.004024 -1.76123 -1.01822 -3.5722 
-0.005508 0.001318 0.004189 -3.03193 -0.300922 0.796449 
-0.005532 0.001925 0.00395 0.0588217 0.178928 -4.75379 
-0.005574 0.00194 0.004055 -0.013204 0.305883 3.02983 
-0.003131 -0.00025 0.003762 1.89082 0.15227 1.40366 
-0.00286 0.000705 0.003585 2.2982 -1.05117 5.07491 
-0.00243 0.001599 0.003762 2.03748 -1.68035 5.07265 
-0.002469 0.001707 0.003475 0.454554 -0.0562476 -0.256945 
-0.002923 0.000729 0.003289 -2.50093 0.796144 -5.14839 
-0.003231 -0.000305 0.003475 -2.02927 1.47957 -3.01967 
-0.000797 -0.000409 0.001464 1.91213 -2.88105 0.0472653 
-0.000521 2.6e-005 0.001513 4.37565 -2.02303 2.96483 
-0.00044 0.000534 0.001464 4.74635 -1.04911 2.97256 
-0.000528 0.000624 0.001417 0.422468 0.242998 -0.544589 
-0.00062 6.3e-005 0.001444 -4.51028 1.36066 -3.11118 
-0.000923 -0.000418 0.001417 -1.26073 -0.219678 -3.11265 
-0.00034 -0.000391 -0 1.11913 -1.94905 -0.00341153 
-8.2e-005 -0.000123 -0 2.68824 -0.711327 0.778294 
-9.7e-005 0.00025 0 2.89047 -0.17291 0.784418 
-0.000184 0.00033 0 -0.953009 0.101934 -0.287687 
-0.000181 -8.5e-005 -0 -2.50145 1.23308 -0.811638 
-0.000459 -0.000394 -0 -1.57838 -0.937246 -1.29675 
-0.004051 -0.002841 0.00399 -1.91992 2.27996 3.6362 
-0.004047 -0.002786 0.003833 0.222529 0.803943 -0.727583 
-0.004776 -0.003507 0.003452 -1.90954 2.0764 -0.307415 
-0.004811 -0.003581 0.00355 -2.96485 2.55123 0.837177 
-0.004943 -0.004088 0.003402 -1.59595 -1.86969 -0.268874 
-0.004869 -0.004031 0.00334 -0.326289 1.19858 -3.68799 
-0.004339 -0.004072 0.003452 0.777655 -2.47288 -1.45655 
-0.004419 -0.004087 0.00355 1.00423 -3.73137 -0.321914 
-0.003458 -0.003547 0.003833 0.0261518 -1.95543 -3.59764 
-0.003512 -0.003537 0.00399 -1.2187 -2.39144 0.706264 
-0.003948 -0.003318 0.003763 -0.241359 0.113252 -4.6675 
-0.003979 -0.003342 0.003863 -0.13472 0.304419 2.92544 
-0.001006 -0.002013 0.003352 0.806203 1.90572 1.10305 
-0.001536 -0.001449 0.003186 2.43468 1.59643 4.78461 
-0.001949 -0.000795 0.003352 2.92261 0.966312 4.78465 
-0.002042 -0.000781 0.003082 0.276502 0.392197 -0.308163 
-0.001583 -0.001486 0.002908 -2.22648 -1.94374 -4.89783 
-0.001016 -0.002106 0.003082 -2.48662 -0.883199 -3.02863 
-2e-005 -0.000779 0.001403 3.44505 0.0285699 -0.0907273 
-0.000191 -0.000409 0.001449 4.18964 2.7673 2.64484 
-0.000506 -0.000151 0.001403 3.4752 3.69053 2.64211 
-0.000613 -0.00018 0.001358 -0.062983 0.477028 -0.532209 
-0.000265 -0.000466 0.001383 -3.66331 -3.29247 -2.79543 
-7.5e-005 -0.000875 0.001358 -0.710881 -1.33226 -3.05936 
0.000175 -0.000471 -0 2.24096 -0.175696 -0.0178437 
0.000112 -0.000178 -0 1.98955 1.94633 0.657871 
-0.000156 -4.4e-005 -0 1.59752 2.45295 0.656479 
-0.000254 -7.5e-005 -0 -0.569534 -0.786067 -0.243339 
3.8e-005 -0.000236 -0 -2.37929 -1.46625 -0.695841 
0.00012 -0.000558 -0 -0.130367 -1.9277 -1.14894 
0.001135 -0.005647 0.00479 -2.77888 -1.17769 3.70655 
0.001073 -0.005622 0.0046 -0.674792 0.478178 -0.692236 
0.001545 -0.00668 0.004137 -2.60555 -1.05249 -0.278215 
0.001612 -0.006746 0.004256 -3.41174 -1.90066 0.864582 
0.002125 -0.007083 0.004076 1.15945 -2.3532 -0.247214 
0.002095 -0.006982 0.004001 -1.25178 0.149474 -3.64025 
0.002393 -0.006431 0.004137 2.55733 -0.246479 -1.44589 
0.002373 -0.006522 0.004256 3.82104 -0.540285 -0.317077 
0.002218 -0.005286 0.0046 1.68018 -0.587079 -3.6512 
0.00218 -0.00534 0.00479 1.58629 -2.00363 0.61105 
0.001724 -0.005721 0.004514 -0.224719 -0.00717014 -4.69612 
0.001737 -0.005764 0.004635 -0.29597 -0.148154 2.96267 
0.00173 -0.002056 0.004188 -1.43514 1.41446 0.915037 
0.00092 -0.002373 0.004005 -0.609456 2.87149 4.65134 
6.7e-005 -0.002545 0.004188 0.0726825 3.04965 4.65105 
1.2e-005 -0.00263 0.003891 -0.289031 0.48766 -0.378121 
0.000937 -0.002432 0.003699 1.02965 -2.85021 -4.73702 
0.001822 -0.002098 0.003891 -0.247475 -2.67496 -3.06551 
0.000714 -0.000541 0.001649 1.28765 3.29323 -0.214491 
0.000213 -0.00058 0.001706 -1.1402 5.06969 2.42894 
-0.00023 -0.000818 0.001649 -2.2037 4.76253 2.41361 
-0.000247 -0.000943 0.001594 -0.406325 0.0671201 -0.471098 
0.000243 -0.000681 0.001626 1.75498 -4.82598 -2.54943 
0.000796 -0.000636 0.001594 1.15487 -1.30474 -3.03863 
0.000475 -0.000224 -0 0.939681 2.04125 -0.0200258 
0.000112 -0.000178 -0 -1.07407 2.60192 0.610425 
-0.000167 -0.000413 -0 -1.64352 2.43586 0.604528 
-0.000178 -0.00053 -0 0.50824 -0.832164 -0.224611 
0.000142 -0.00028 -0 0.529754 -2.77382 -0.649665 
0.000547 -0.000317 -0 1.79379 -0.805441 -1.08798 
-0.001741 -0.005623 0.002963 -2.95381 0.785832 4.00662 
-0.001772 -0.005574 0.002849 -0.421928 0.641563 -0.700736 
-0.001939 -0.006664 0.002573 -2.75162 0.43566 -0.086849 
-0.001923 -0.00675 0.002644 -3.81256 0.284501 1.17621 
-0.001724 -0.007268 0.002537 -0.120447 -2.284 -0.33263 
-0.001697 -0.007171 0.002491 -1.07333 0.427743 -3.78237 
-0.00123 -0.006859 0.002573 2.02862 -1.48246 -1.66713 
-0.001287 -0.006925 0.002644 3.02041 -2.27165 -0.429479 
-0.000816 -0.005837 0.002849 1.04273 -1.58233 -3.65074 
-0.000868 -0.005864 0.002963 0.459056 -2.47251 0.631476 
-0.001364 -0.005962 0.002798 -0.269517 -0.23766 -4.77565 
-0.001376 -0.006003 0.002871 -0.194924 0.170927 3.02604 
2.1e-005 -0.002983 0.002266 -0.354217 2.14642 1.81226 
-0.000693 -0.002862 0.002156 0.772147 2.08402 5.41592 
-0.001368 -0.002601 0.002266 1.39651 1.92371 5.41646 
-0.001446 -0.002645 0.002088 -0.0442895 0.268238 -0.105377 
-0.000708 -0.002918 0.001973 -0.449066 -2.11537 -5.49613 
6.5e-005 -0.003061 0.002088 -1.41259 -1.37783 -3.17145 
0.000361 -0.001236 0.001087 2.67324 1.98653 0.486457 
-7e-006 -0.001032 0.00112 1.46057 3.91491 3.62489 
-0.000427 -0.001019 0.001087 0.304532 4.22246 3.63731 
-0.000498 -0.001113 0.001054 -0.275871 0.551346 -0.575444 
-3.4e-005 -0.00113 0.001072 -0.738802 -3.99528 -3.74555 
0.000373 -0.001353 0.001054 0.429002 -0.719187 -3.11297 
0.000343 -0.000774 -0 1.87315 1.23786 0.143594 
0.000112 -0.000566 -0 0.38905 2.63069 1.047 
-0.000193 -0.000627 -0 -0.233236 2.80008 1.05126 
-0.000255 -0.000718 -0 0.0241798 -0.923959 -0.384412 
8.5e-005 -0.000664 -0 -0.989826 -2.47447 -1.09352 
0.00035 -0.000885 -0 1.04774 -1.35308 -1.46049 
0.005613 0.001279 0.002963 1.58377 -2.7186 4.3729 
0.005598 0.001213 0.002849 -0.114052 -0.735152 -0.600963 
0.00655 0.001778 0.002573 1.4151 -2.31312 0.119572 
0.006604 0.001852 0.002644 2.20473 -3.00519 1.45189 
0.00686 0.002409 0.002537 2.28367 1.31552 -0.247487 
0.006766 0.00237 0.002491 0.450686 -1.07709 -3.70727 
0.006197 0.002642 0.002573 0.151946 2.38473 -1.71971 
0.006288 0.002627 0.002644 0.247962 3.699 -0.419343 
0.005122 0.002378 0.002849 0.691564 1.71919 -3.60986 
0.005179 0.002342 0.002963 1.99708 2.07638 0.686835 
0.005606 0.001896 0.002798 0.122539 -0.0985046 -4.85644 
0.005645 0.001912 0.002871 0.249182 -0.090599 3.17161 
0.002148 0.001487 0.002488 -1.3438 -1.44266 1.60973 
0.002568 0.000654 0.002377 -2.15745 -0.736673 5.31186 
0.002852 -0.000236 0.002488 -2.33307 -0.306902 5.31191 
0.002943 -0.000288 0.002307 -0.357252 -0.232515 -0.199693 
0.002623 0.000676 0.00219 2.06006 0.9506 -5.38416 
0.002176 0.001588 0.002307 2.23574 -0.19557 -3.14633 
0.000768 0.000479 0.001087 -3.42438 0.671363 0.169026 
0.000873 -3.8e-005 0.00112 -4.30772 -1.44478 3.37516 
0.00116 -0.000481 0.001087 -3.94723 -2.3491 3.35117 
0.001283 -0.00049 0.001054 -0.229021 -0.439171 -0.54169 
0.000966 0 0.001072 3.9978 1.93611 -3.48177 
0.000849 0.000572 0.001054 0.493398 0.824888 -3.26306 
0.00045 0.000202 0 -2.17874 0.54382 0.0756661 
0.000455 -0.000178 -0 -2.42771 -1.27317 0.972279 
0.000717 -0.000452 -0 -2.23512 -1.7556 0.960266 
0.000832 -0.000454 -0 0.758945 0.550741 -0.34899 
0.000549 -0.000139 -0 2.61257 0.809751 -1.02721 
0.00053 0.000284 0 0.323329 1.61959 -1.52341 
-0.001201 0.004997 0.002938 2.67284 1.64225 4.36728 
-0.001137 0.004986 0.002825 0.743525 -0.132037 -0.591348 
-0.001674 0.005845 0.002551 2.26915 1.46883 0.124385 
-0.001746 0.005892 0.002621 2.93383 2.29895 1.4517 
-0.00229 0.006106 0.002515 -1.35752 2.45803 -0.228086 
-0.002254 0.006022 0.002471 1.08366 0.460653 -3.67958 
-0.002534 0.005484 0.002551 -2.3702 0.204237 -1.70384 
-0.002518 0.005568 0.002621 -3.695 0.332502 -0.412697 
-0.002297 0.004499 0.002825 -1.80608 0.747676 -3.56327 
-0.002261 0.004553 0.002938 -2.2484 2.10794 0.756669 
-0.001811 0.004966 0.002774 0.090714 0.136278 -4.83642 
-0.001826 0.005002 0.002846 0.0904592 0.262585 3.16807 
-0.001516 0.001763 0.002473 1.40336 -1.30878 1.55075 
-0.00065 0.002203 0.002358 0.811564 -2.27237 5.23092 
0.00027 0.002513 0.002473 0.382322 -2.45249 5.23103 
0.000325 0.002603 0.002287 0.238933 -0.367148 -0.224159 
-0.000672 0.002255 0.002166 -1.02237 2.18033 -5.3113 
-0.001618 0.001787 0.002287 -0.0137905 2.37947 -3.06671 
-0.000517 0.000543 0.001079 -0.595217 -3.48683 0.112568 
-4e-006 0.00066 0.001112 1.54385 -4.38662 3.30698 
0.000439 0.000944 0.001079 2.37339 -4.04498 3.2891 
0.000451 0.001057 0.001046 0.417328 -0.210436 -0.520836 
-3.9e-005 0.000745 0.001065 -1.99532 4.07631 -3.43011 
-0.000606 0.000613 0.001046 -0.874839 0.542757 -3.29647 
-0.000231 0.000231 0 -0.488872 -2.19149 0.0906101 
0.000144 0.00025 0 1.28398 -2.43311 0.982632 
0.000419 0.000504 0 1.73008 -2.24919 0.973647 
0.000425 0.00061 0 -0.540405 0.764077 -0.35404 
0.000108 0.000335 0 -0.857098 2.60805 -1.03507 
-0.00031 0.000301 0 -1.64941 0.277197 -1.50081 
3 0 1 2 
3 0 2 3 
3 4 5 6 
3 4 6 7 
3 7 6 8 
3 7 8 9 
3 5 10 8 
3 5 8 6 
3 9 11 4 
3 9 4 7 
3 4 11 0 
3 4 0 3 
3 3 2 5 
3 3 5 4 
3 1 10 5 
3 1 5 2 
3 12 13 11 
3 12 11 9 
3 0 11 13 
3 0 13 14 
3 14 15 1 
3 14 1 0 
3 15 16 10 
3 15 10 1 
3 8 10 16 
3 8 16 17 
3 9 8 17 
3 9 17 12 
3 18 19 13 
3 18 13 12 
3 14 13 19 
3 14 19 20 
3 20 21 15 
3 20 15 14 
3 21 22 16 
3 21 16 15 
3 17 16 22 
3 17 22 23 
3 12 17 23 
3 12 23 18 
3 24 25 19 
3 24 19 18 
3 25 26 20 
3 25 20 19 
3 26 27 21 
3 26 21 20 
3 27 28 22 
3 27 22 21 
3 23 22 28 
3 23 28 29 
3 18 23 29 
3 18 29 24 
3 30 31 32 
3 30 32 33 
3 34 35 36 
3 34 36 37 
3 37 36 38 
3 37 38 39 
3 35 40 38 
3 35 38 36 
3 39 41 34 
3 39 34 37 
3 34 41 30 
3 34 30 33 
3 33 32 35 
3 33 35 34 
3 31 40 35 
3 31 35 32 
3 42 43 41 
3 42 41 39 
3 30 41 43 
3 30 43 44 
3 44 45 31 
3 44 31 30 
3 45 46 40 
3 45 40 31 
3 38 40 46 
3 38 46 47 
3 39 38 47 
3 39 47 42 
3 48 49 43 
3 48 43 42 
3 44 43 49 
3 44 49 50 
3 50 51 45 
3 50 45 44 
3 51 52 46 
3 51 46 45 
3 47 46 52 
3 47 52 53 
3 42 47 53 
3 42 53 48 
3 54 55 49 
3 54 49 48 
3 50 49 55 
3 50 55 56 
3 56 57 51 
3 56 51 50 
3 57 58 52 
3 57 52 51 
3 53 52 58 
3 53 58 59 
3 48 53 59 
3 48 59 54 
3 60 61 62 
3 60 62 63 
3 64 65 66 
3 64 66 67 
3 67 66 68 
3 67 68 69 
3 65 70 68 
3 65 68 66 
3 69 71 64 
3 69 64 67 
3 64 71 60 
3 64 60 63 
3 63 62 65 
3 63 65 64 
3 61 70 65 
3 61 65 62 
3 72 73 71 
3 72 71 69 
3 60 71 73 
3 60 73 74 
3 74 75 61 
3 74 61 60 
3 75 76 70 
3 75 70 61 
3 68 70 76 
3 68 76 77 
3 69 68 77 
3 69 77 72 
3 78 79 73 
3 78 73 72 
3 74 73 79 
3 74 79 80 
3 80 81 75 
3 80 75 74 
3 81 82 76 
3 81 76 75 
3 77 76 82 
3 77 82 83 
3 72 77 83 
3 72 83 78 
3 84 85 79 
3 84 79 78 
3 80 79 85 
3 80 85 86 
3 86 87 81 
3 86 81 80 
3 87 88 82 
3 87 82 81 
3 83 82 88 
3 83 88 89 
3 78 83 89 
3 78 89 84 
3 90 91 92 
3 90 92 93 
3 94 95 96 
3 94 96 97 
3 97 96 98 
3 97 98 99 
3 95 100 98 
3 95 98 96 
3 99 101 94 
3 99 94 97 
3 94 101 90 
3 94 90 93 
3 93 92 95 
3 93 95 94 
3 91 100 95 
3 91 95 92 
3 102 103 101 
3 102 101 99 
3 90 101 103 
3 90 103 104 
3 104 105 91 
3 104 91 90 
3 105 106 100 
3 105 100 91 
3 98 100 106 
3 98 106 107 
3 99 98 107 
3 99 107 102 
3 108 109 103 
3 108 103 102 
3 104 103 109 
3 104 109 110 
3 110 111 105 
3 110 105 104 
3 111 112 106 
3 111 106 105 
3 107 106 112 
3 107 112 113 
3 102 107 113 
3 102 113 108 
3 114 115 109 
3 114 109 108 
3 110 109 115 
3 110 115 116 
3 116 117 111 
3 116 111 110 
3 117 118 112 
3 117 112 111 
3 113 112 118 
3 113 118 119 
3 108 113 119 
3 108 119 114 
3 120 121 122 
3 120 122 123 
3 124 125 126 
3 124 126 127 
3 127 126 128 
3 127 128 129 
3 125 130 128 
3 125 128 126 
3 129 131 124 
3 129 124 127 
3 124 131 120 
3 124 120 123 
3 123 122 125 
3 123 125 124 
3 121 130 125 
3 121 125 122 
3 132 133 131 
3 132 131 129 
3 120 131 133 
3 120 133 134 
3 134 135 121 
3 134 121 120 
3 135 136 130 
3 135 130 121 
3 128 130 136 
3 128 136 137 
3 129 128 137 
3 129 137 132 
3 138 139 133 
3 138 133 132 
3 134 133 139 
3 134 139 140 
3 140 141 135 
3 140 135 134 
3 141 142 136 
3 141 136 135 
3 137 136 142 
3 137 142 143 
3 132 137 143 
3 132 143 138 
3 144 145 139 
3 144 139 138 
3 140 139 145 
3 140 145 146 
3 146 147 141 
3 146 141 140 
3 147 148 142 
3 147 142 141 
3 143 142 148 
3 143 148 149 
3 138 143 149 
3 138 149 144 
3 150 151 152 
3 150 152 153 
3 154 155 156 
3 154 156 157 
3 157 156 158 
3 157 158 159 
3 155 160 158 
3 155 158 156 
3 159 161 154 
3 159 154 157 
3 154 161 150 
3 154 150 153 
3 153 152 155 
3 153 155 154 
3 151 160 155 
3 151 155 152 
3 162 163 161 
3 162 161 159 
3 150 161 163 
3 150 163 164 
3 164 165 151 
3 164 151 150 
3 165 166 160 
3 165 160 151 
3 158 160 166 
3 158 166 167 
3 159 158 167 
3 159 167 162 
3 168 169 163 
3 168 163 162 
3 164 163 169 
3 164 169 170 
3 170 171 165 
3 170 165 164 
3 171 172 166 
3 171 166 165 
3 167 166 172 
3 167 172 173 
3 162 167 173 
3 162 173 168 
3 174 175 169 
3 174 169 168 
3 170 169 175 
3 170 175 176 
3 176 177 171 
3 176 171 170 
3 177 178 172 
3 177 172 171 
3 173 172 178 
3 173 178 179 
3 168 173 179 
3 168 179 174 
3 180 181 182 
3 180 182 183 
3 184 185 186 
3 184 186 187 
3 187 186 188 
3 187 188 189 
3 185 190 188 
3 185 188 186 
3 189 191 184 
3 189 184 187 
3 184 191 180 
3 184 180 183 
3 183 182 185 
3 183 185 184 
3 181 190 185 
3 181 185 182 
3 192 193 191 
3 192 191 189 
3 180 191 193 
3 180 193 194 
3 194 195 181 
3 194 181 180 
3 195 196 190 
3 195 190 181 
3 188 190 196 
3 188 196 197 
3 189 188 197 
3 189 197 192 
3 198 199 193 
3 198 193 192 
3 194 193 199 
3 194 199 200 
3 200 201 195 
3 200 195 194 
3 201 202 196 
3 201 196 195 
3 197 196 202 
3 197 202 203 
3 192 197 203 
3 192 203 198 
3 204 205 199 
3 204 199 198 
3 200 199 205 
3 200 205 206 
3 206 207 201 
3 206 201 200 
3 207 208 202 
3 207 202 201 
3 203 202 208 
3 203 208 209 
3 198 203 209 
3 198 209 204 
3 210 211 212 
3 210 212 213 
3 214 215 216 
3 214 216 217 
3 217 216 218 
3 217 218 219 
3 215 220 218 
3 215 218 216 
3 219 221 214 
3 219 214 217 
3 214 221 210 
3 214 210 213 
3 213 212 215 
3 213 215 214 
3 211 220 215 
3 211 215 212 
3 222 223 221 
3 222 221 219 
3 210 221 223 
3 210 223 224 
3 224 225 211 
3 224 211 210 
3 225 226 220 
3 225 220 211 
3 218 220 226 
3 218 226 227 
3 219 218 227 
3 219 227 222 
3 228 229 223 
3 228 223 222 
3 224 223 229 
3 224 229 230 
3 230 231 225 
3 230 225 224 
3 231 232 226 
3 231 226 225 
3 227 226 232 
3 227 232 233 
3 222 227 233 
3 222 233 228 
3 234 235 229 
3 234 229 228 
3 230 229 235 
3 230 235 236 
3 236 237 231 
3 236 231 230 
3 237 238 232 
3 237 232 231 
3 233 232 238 
3 233 238 239 
3 228 233 239 
3 228 239 234 
