ply
format ascii 1.0
comment VCGLIB generated
element vertex 201
property float x
property float y
property float z
property float nx
property float ny
property float nz
element face 392
property list uchar int vertex_indices
end_header
0.002459 -0.00149 0.018381 5.4702 -3.29195 -0.155227 
0.000521 -0.002962 0.018628 0.507149 -3.81836 0.191908 
-0.000314 -0.004126 0.008131 0.607221 -4.30212 1.64184 
0.003041 -0.002397 0.008046 4.21634 -3.07942 1.52271 
0.009394 0.002427 0.093162 -1.16187 -2.67306 -0.710512 
0.009949 0.002164 0.093242 0.140192 -2.16703 -0.596169 
0.010166 0.002763 0.09298 1.44223 -1.66099 -0.481822 
0.003355 0.002935 0.005574 3.48646 3.40051 1.88023 
0.000555 0.004111 0.007224 -0.732652 2.17809 1.8637 
-0.000521 0.002962 0.018628 -1.98989 3.69885 0.00946451 
0.001804 0.002239 0.020828 1.78896 6.72948 0.127642 
0.002691 0.000473 0.020828 2.54838 0.0299882 0.115454 
0.004236 -1e-006 0.005574 3.79015 0.868014 1.66157 
-0.0028 0.002383 0.007138 -5.3058 1.67087 1.82991 
-0.004236 -1e-006 0.005574 -3.88181 -1.734 1.8363 
-0.002691 -0.000473 0.016642 -3.42193 -1.02729 0.161634 
-0.002459 0.00149 0.018381 -5.71432 1.70447 -0.0700397 
-0.001549 0.006028 0.101311 -2.86035 -0.813212 0.396316 
-0.0013 0.005198 0.101404 -1.02701 -1.01732 0.26061 
-0.001058 0.005646 0.101389 0.806318 -1.22142 0.124903 
-0.003355 -0.002936 0.005574 -2.61408 -4.98201 1.77059 
-0.001804 -0.002239 0.016642 -1.83633 -6.64737 0.222586 
-0.015785 -0.001521 0.0979 -1.14808 -2.75156 0.33292 
-0.014963 -0.00185 0.098016 0.0460548 -1.27031 0.0689681 
-0.015327 -0.001308 0.098083 1.24017 0.210948 -0.194981 
0.019859 -0.005452 0.098409 -2.60735 1.2752 0.75867 
0.019636 -0.006069 0.09868 -2.01827 -0.0982711 0.356976 
0.020246 -0.006234 0.098581 -1.42918 -1.47171 -0.0447125 
0 -0 0.036032 -0.776727 1.09494 3.39001 
0 0.003146 0.033755 -2.72382 5.77896 2.48755 
-0.001897 0.001746 0.036401 2.28271 3.94289 1.98801 
-0.001503 -4.2e-005 0.037094 4.57885 1.80548 2.68842 
-0.003192 0.002793 0.028024 -5.01079 2.43889 -0.32449 
-0.003818 0.001939 0.034575 -2.90095 4.28329 0.127248 
-0.00403 -0 0.027294 -3.62822 -3.0098 -0.0812246 
-0.00457 -4.2e-005 0.034204 -3.16273 -1.74422 -0.199646 
-0.003192 -0.002793 0.028024 -1.02868 -4.84964 0.370343 
0 -0.003146 0.033755 1.84373 -4.71695 1.57653 
-0.001897 -0.00183 0.036401 1.89672 -2.16429 1.34794 
-0.003818 -0.002024 0.034575 -1.0459 -5.85214 0.293029 
0.001107 -0.001057 0.038143 -4.65079 -0.401178 2.63422 
0.002139 0.000954 0.038143 -4.65887 2.05971 3.13491 
0.00403 -0 0.031312 5.15158 2.63392 -0.470155 
0.003192 0.002793 0.032041 -0.132366 3.09455 0.97407 
0.004118 0.000793 0.03691 0.287332 2.21287 1.11654 
0.004957 -0.001057 0.03691 5.18761 2.65548 -1.04644 
0.002139 -0.003068 0.038143 -2.09197 -4.17827 0.633295 
0.003192 -0.002793 0.032041 3.908 -0.670148 -0.353855 
0.004118 -0.002907 0.03691 2.83722 -1.53607 -0.904557 
-0.005355 0.004685 0.001349 -3.74266 3.35991 2.41395 
-0.000397 0.006531 0.003088 -0.327485 1.86946 2.14132 
0 0.00785 0 0.961055 2.27955 1.17817 
-0.005648 0.004941 0 -1.29223 2.56085 0.878745 
-0.007131 0 0 -2.26868 0.302196 0.856772 
-0.006249 -0 0.002873 -3.49003 0.169746 2.31109 
-0.005648 -0.004941 -0 -1.79865 -2.01807 0.718201 
-0.004844 -0.004685 0.002873 -3.61689 -3.71478 2.17938 
0 -0.00785 -0 0.447399 -2.5896 0.72789 
0 -0.007443 0.001396 0.889433 -3.71686 2.01552 
0.005355 -0.004685 0.001349 3.98867 -3.10439 2.05248 
0.005648 -0.004941 -0 1.33087 -2.57762 0.764632 
0.007131 0 0 2.26617 -0.286932 0.847204 
0.006761 -0 0.001349 4.33568 -1.21396 2.29271 
0.004958 0.003773 0.003041 6.12188 1.73545 2.77094 
0.005648 0.004941 0 1.82253 0.572298 0.592335 
0.005834 -0.003006 0.046828 -4.43125 -1.69378 1.78702 
0.006098 -0.000914 0.04655 -5.3474 0.7808 2.30569 
0.007901 -0.000454 0.046253 -0.566294 2.11139 0.458544 
0.009181 -0.001854 0.046028 4.14163 4.04016 -0.928218 
0.007329 -0.004492 0.04655 -0.817507 -4.58591 0.151077 
0.009033 -0.003745 0.046253 2.80709 -0.596085 -0.949499 
-0.00423 0.000132 0.04982 4.46003 2.4064 0.881391 
-0.004319 -0.001478 0.050031 5.59668 -0.404036 1.65023 
-0.006129 0.001133 0.049451 -0.514388 4.85749 -0.596303 
-0.007446 -0.000122 0.049451 -3.35554 -0.686613 -0.548951 
-0.005433 -0.002643 0.04982 1.97691 -3.20592 0.848937 
-0.007463 -0.001942 0.049451 -2.05986 -5.40351 0.0156004 
-0.007769 0.002681 0.062351 4.91857 1.16745 0.960755 
-0.00871 0.001361 0.062473 5.49797 -1.79882 1.46199 
-0.008826 0.004555 0.062007 0.833288 4.7148 -0.476286 
-0.010607 0.004197 0.061919 -3.16558 0.221948 -0.753435 
-0.010263 0.000979 0.062183 0.948564 -3.30205 0.741246 
-0.01159 0.002669 0.061821 -3.69677 -4.71494 0.16501 
0.00851 -0.00428 0.054292 -3.68089 -2.85012 1.81414 
0.007965 -0.0026 0.05406 -5.61486 -0.458648 2.01942 
0.009169 -0.001609 0.053811 -1.18176 2.14552 0.59334 
0.010638 -0.002214 0.053623 3.04985 4.82665 -1.33249 
0.010173 -0.004874 0.05406 0.80117 -4.73721 0.285425 
0.011199 -0.003701 0.053811 3.26728 0.104401 -1.30925 
0.011151 -0.001868 0.061768 -2.835 -3.62487 3.17695 
0.010352 -0.000499 0.059784 -5.23574 -1.97781 1.5602 
0.01149 0.000438 0.059549 -1.24464 1.26085 -0.378049 
0.013165 8.6e-005 0.061135 1.08913 5.82059 -0.0317596 
0.012495 -0.002707 0.059784 1.50483 -4.61827 0.353051 
0.013467 -0.001597 0.059549 1.42989 0.273322 -0.107315 
-0.009071 0.003993 0.070796 4.52583 0.960902 -0.684933 
-0.00942 0.002511 0.07278 5.61084 -1.82195 1.45038 
-0.010617 0.005102 0.070565 0.616143 1.54763 0.661613 
-0.012 0.004079 0.072405 -3.35619 -2.01092 1.06244 
-0.010448 0.001693 0.070652 0.943633 -3.68505 -0.659923 
-0.012143 0.002554 0.070405 -3.08622 -4.73602 -1.30875 
-0.010824 -0.000767 0.075457 0.816912 -4.35816 -0.784333 
-0.012011 -0.00017 0.075517 -2.63338 -4.80014 -2.42319 
-0.010215 0.000192 0.075909 3.73361 0.448405 1.40932 
-0.012051 0.001343 0.076081 -0.0416769 -0.232344 0.41131 
-0.012878 -0.000992 0.0784 0.251747 -4.28942 -1.42784 
-0.013979 -0.000285 0.078624 -3.23107 -3.66477 -3.17433 
-0.012179 -0.000331 0.079047 3.4586 -0.58383 2.3263 
-0.013328 0.000364 0.079251 -0.0826117 0.266594 -0.163414 
-0.015556 -0.003535 0.082032 -0.626282 -4.00291 -1.65184 
-0.016258 -0.002419 0.082182 -4.28318 -2.8331 -2.55899 
-0.014556 -0.0031 0.082424 3.79157 -0.990743 0.860075 
-0.01531 -0.001977 0.082562 -0.343925 -0.0346744 0.610887 
-0.016301 -0.003743 0.086419 -1.18313 -4.09606 -1.1476 
-0.016834 -0.002894 0.086533 -6.18113 -5.64346 -0.718727 
-0.01554 -0.003412 0.086717 1.68823 -2.88852 -0.431852 
-0.016113 -0.002558 0.086822 0.847279 -0.688389 0.699431 
-0.007585 0.003871 0.07632 0.799394 -3.62954 0.164096 
-0.009033 0.005297 0.076952 -3.28147 -4.42509 2.14341 
-0.006617 0.00529 0.076352 4.25156 0.735986 -1.48656 
-0.008031 0.006663 0.077109 0.0375376 -0.0170101 0.00900468 
-0.0057 0.003493 0.080065 0.84771 -3.57797 -0.0786154 
-0.006762 0.004407 0.080888 -3.19154 -4.53435 2.07162 
-0.005292 0.00469 0.079717 4.08875 0.974806 -1.95336 
-0.006284 0.005585 0.080619 0.270538 0.0437599 0.605872 
-0.004299 0.00443 0.083229 1.04525 -3.61915 0.348049 
-0.005176 0.005124 0.083012 -3.25118 -4.56298 1.54176 
-0.003862 0.005239 0.083203 4.33187 1.0497 -1.17177 
-0.004748 0.005927 0.08306 -0.0788041 0.0423168 -0.233899 
-0.003386 0.003862 0.088756 1.42189 -3.36798 0.238477 
-0.00431 0.004593 0.088528 -3.45524 -4.67 -0.971047 
-0.002926 0.004715 0.088728 1.33302 -1.09211 -0.0948166 
-0.00386 0.005439 0.088578 -2.40387 -1.17793 0.748022 
0.01079 -0.000193 0.063821 0.0884614 -2.9954 1.90797 
0.009666 0.000868 0.063601 -4.3924 -3.69197 1.44231 
0.011786 0.001079 0.063187 3.63232 1.1641 0.462695 
0.010666 0.001951 0.063365 -0.691748 0.577381 0.0223259 
0.013401 -0.001833 0.065508 -3.16802 -0.591573 1.41346 
0.014395 -0.000564 0.064874 -3.55791 4.03272 2.5947 
0.014699 -0.002671 0.065288 0.830489 -4.25577 -0.94527 
0.015511 -0.00144 0.065053 0.407088 0.257427 0.300941 
0.010454 0.002056 0.067375 0.841871 -3.27756 1.75654 
0.009195 0.002952 0.067155 -3.52408 -4.54851 1.5276 
0.011266 0.003453 0.066741 3.91564 1.43252 0.339797 
0.010038 0.004163 0.066919 -0.364257 0.109655 -0.29854 
0.008872 0.005023 0.076763 1.26191 -3.59274 0.530157 
0.008169 0.005355 0.076662 -2.90998 -5.18641 0.483886 
0.009147 0.005781 0.076432 3.85404 1.75164 0.328078 
0.008478 0.006026 0.076531 -0.190718 0.0954907 -0.093602 
0.00903 0.004959 0.082529 1.33116 -3.9556 -0.772082 
0.008155 0.005373 0.082403 -1.21041 -7.97013 0.63193 
0.009372 0.005904 0.082116 3.27511 -1.00747 -0.694596 
0.008539 0.006209 0.08224 1.44097 0.211137 0.333816 
0.017191 -0.00403 0.07217 -3.16468 -1.00802 1.4308 
0.018001 -0.002637 0.071536 -4.36336 3.28996 1.79978 
0.018591 -0.004682 0.07195 1.2551 -3.90113 -0.440437 
0.019226 -0.003351 0.071715 -0.030053 0.218216 -0.425009 
0.018113 -0.003524 0.077933 -3.54499 -1.53822 0.317056 
0.018525 -0.002384 0.077434 -5.37875 2.55798 0.663195 
0.01924 -0.003828 0.07775 1.91103 -3.75271 -0.00686531 
0.019535 -0.002754 0.077555 0.111829 0.231397 0.192895 
0.018808 -0.004167 0.084175 -3.57527 -1.79399 0.0132477 
0.01916 -0.003194 0.083748 -8.1076 1.11742 1.454 
0.019771 -0.004427 0.084019 -0.711842 -3.45305 -0.376238 
0.020023 -0.00351 0.083852 0.250452 -1.11249 0.608802 
-0.0076 0.003577 0.098537 -1.69773 -2.36849 -0.712708 
-0.007013 0.003113 0.098681 -0.224013 -1.27405 -0.187198 
-0.007314 0.004113 0.098569 1.24968 -0.179599 0.338308 
-0.020608 -0.006466 0.100822 -2.43508 -1.38634 -1.07166 
-0.020327 -0.006913 0.100762 -1.23866 -1.84629 -0.671915 
-0.019927 -0.006738 0.100919 -0.0422537 -2.30622 -0.27217 
0.020325 -0.000186 0.096163 -2.70042 -1.28465 0.239593 
0.020646 -0.000835 0.096305 -0.835405 -1.10792 0.235752 
0.020779 -0.000352 0.096218 1.0296 -0.931182 0.231908 
0.006524 0.006607 0.096528 1.20782 -2.7454 0.0627722 
0.007164 0.006885 0.096378 1.16031 -0.900068 0.134811 
0.006726 0.007046 0.096443 1.11279 0.94526 0.206848 
-0.002147 0.003699 0.092216 -0.198878 -2.15892 0.440878 
-0.002489 0.00484 0.092088 -5.61286 -1.53238 1.34841 
-0.001814 0.004316 0.092196 -0.284903 -2.17314 -0.0595305 
-0.017023 -0.005938 0.091993 -1.22425 -4.10473 -1.13362 
-0.017409 -0.005324 0.092076 -4.9141 -2.82406 -1.95902 
-0.016472 -0.005699 0.092209 -1.12366 -4.00555 -1.50746 
0.020822 -0.002885 0.087293 0.282562 -1.8715 0.914496 
0.02038 -0.001993 0.087098 -5.23505 -2.26138 1.51304 
0.021004 -0.002222 0.087173 0.205132 -2.01182 0.327481 
0.008526 0.007276 0.087266 2.30292 0.180171 0.606458 
0.007645 0.006893 0.087473 2.52591 -5.28763 0.957045 
0.007923 0.007497 0.087355 2.22246 0.11197 0.0397565 
0.009802 0.004328 0.085343 1.44478 -3.91691 -0.988639 
0.008926 0.004742 0.085216 -2.40754 -5.38907 -0.978066 
0.010144 0.005272 0.08493 1.39094 -3.96284 -1.34224 
-0.016142 -0.002328 0.089999 1.28934 -1.01613 0.219328 
-0.017437 -0.00181 0.089815 -2.3161 -5.43215 1.00386 
-0.016716 -0.001474 0.090104 1.31239 -1.04385 0.226648 
0.018163 -0.0044 0.090812 -3.59444 -1.81873 -0.267321 
0.018515 -0.003426 0.090385 -5.45188 2.19665 0.51451 
0.019125 -0.004659 0.090655 -3.50425 -1.71371 0.155927 
-0.004797 0.003868 0.090893 0.990782 -1.432 0.170564 
-0.005721 0.004599 0.090665 -3.28161 -4.6947 -1.75197 
-0.00527 0.005445 0.090716 0.842031 -1.45263 0.516571 
3 0 1 2 
3 0 2 3 
3 4 5 6 
3 7 8 9 
3 7 9 10 
3 10 11 12 
3 10 12 7 
3 13 14 15 
3 13 15 16 
3 17 18 19 
3 20 2 1 
3 20 1 21 
3 16 9 8 
3 16 8 13 
3 21 15 14 
3 21 14 20 
3 22 23 24 
3 25 26 27 
3 3 12 11 
3 3 11 0 
3 28 29 30 
3 28 30 31 
3 29 32 33 
3 29 33 30 
3 32 34 35 
3 32 35 33 
3 36 37 38 
3 36 38 39 
3 37 28 31 
3 37 31 38 
3 34 36 39 
3 34 39 35 
3 29 28 40 
3 29 40 41 
3 42 43 44 
3 42 44 45 
3 43 29 41 
3 43 41 44 
3 28 37 46 
3 28 46 40 
3 37 47 48 
3 37 48 46 
3 47 42 45 
3 47 45 48 
3 10 9 29 
3 10 29 43 
3 42 11 10 
3 42 10 43 
3 0 11 42 
3 0 42 47 
3 37 1 0 
3 37 0 47 
3 21 1 37 
3 21 37 36 
3 34 15 21 
3 34 21 36 
3 16 15 34 
3 16 34 32 
3 32 29 9 
3 32 9 16 
3 49 50 51 
3 49 51 52 
3 52 53 54 
3 52 54 49 
3 53 55 56 
3 53 56 54 
3 55 57 58 
3 55 58 56 
3 59 58 57 
3 59 57 60 
3 60 61 62 
3 60 62 59 
3 63 62 61 
3 63 61 64 
3 51 50 63 
3 51 63 64 
3 7 12 62 
3 7 62 63 
3 59 62 12 
3 59 12 3 
3 3 2 58 
3 3 58 59 
3 56 58 2 
3 56 2 20 
3 20 14 54 
3 20 54 56 
3 49 54 14 
3 49 14 13 
3 13 8 50 
3 13 50 49 
3 63 50 8 
3 63 8 7 
3 41 40 65 
3 41 65 66 
3 45 44 67 
3 45 67 68 
3 44 41 66 
3 44 66 67 
3 40 46 69 
3 40 69 65 
3 46 48 70 
3 46 70 69 
3 48 45 68 
3 48 68 70 
3 31 30 71 
3 31 71 72 
3 30 33 73 
3 30 73 71 
3 33 35 74 
3 33 74 73 
3 39 38 75 
3 39 75 76 
3 38 31 72 
3 38 72 75 
3 35 39 76 
3 35 76 74 
3 72 71 77 
3 72 77 78 
3 71 73 79 
3 71 79 77 
3 73 74 80 
3 73 80 79 
3 76 75 81 
3 76 81 82 
3 75 72 78 
3 75 78 81 
3 74 76 82 
3 74 82 80 
3 66 65 83 
3 66 83 84 
3 68 67 85 
3 68 85 86 
3 67 66 84 
3 67 84 85 
3 65 69 87 
3 65 87 83 
3 69 70 88 
3 69 88 87 
3 70 68 86 
3 70 86 88 
3 84 83 89 
3 84 89 90 
3 86 85 91 
3 86 91 92 
3 85 84 90 
3 85 90 91 
3 83 87 93 
3 83 93 89 
3 87 88 94 
3 87 94 93 
3 88 86 92 
3 88 92 94 
3 78 77 95 
3 78 95 96 
3 77 79 97 
3 77 97 95 
3 79 80 98 
3 79 98 97 
3 82 81 99 
3 82 99 100 
3 81 78 96 
3 81 96 99 
3 80 82 100 
3 80 100 98 
3 100 99 101 
3 100 101 102 
3 99 96 103 
3 99 103 101 
3 96 98 104 
3 96 104 103 
3 98 100 102 
3 98 102 104 
3 102 101 105 
3 102 105 106 
3 101 103 107 
3 101 107 105 
3 103 104 108 
3 103 108 107 
3 104 102 106 
3 104 106 108 
3 106 105 109 
3 106 109 110 
3 105 107 111 
3 105 111 109 
3 107 108 112 
3 107 112 111 
3 108 106 110 
3 108 110 112 
3 110 109 113 
3 110 113 114 
3 109 111 115 
3 109 115 113 
3 111 112 116 
3 111 116 115 
3 112 110 114 
3 112 114 116 
3 98 96 117 
3 98 117 118 
3 96 95 119 
3 96 119 117 
3 95 97 120 
3 95 120 119 
3 97 98 118 
3 97 118 120 
3 118 117 121 
3 118 121 122 
3 117 119 123 
3 117 123 121 
3 119 120 124 
3 119 124 123 
3 120 118 122 
3 120 122 124 
3 122 121 125 
3 122 125 126 
3 121 123 127 
3 121 127 125 
3 123 124 128 
3 123 128 127 
3 124 122 126 
3 124 126 128 
3 126 125 129 
3 126 129 130 
3 125 127 131 
3 125 131 129 
3 127 128 132 
3 127 132 131 
3 128 126 130 
3 128 130 132 
3 90 89 133 
3 90 133 134 
3 89 92 135 
3 89 135 133 
3 92 91 136 
3 92 136 135 
3 91 90 134 
3 91 134 136 
3 92 89 137 
3 92 137 138 
3 89 93 139 
3 89 139 137 
3 93 94 140 
3 93 140 139 
3 94 92 138 
3 94 138 140 
3 134 133 141 
3 134 141 142 
3 133 135 143 
3 133 143 141 
3 135 136 144 
3 135 144 143 
3 136 134 142 
3 136 142 144 
3 142 141 145 
3 142 145 146 
3 141 143 147 
3 141 147 145 
3 143 144 148 
3 143 148 147 
3 144 142 146 
3 144 146 148 
3 146 145 149 
3 146 149 150 
3 145 147 151 
3 145 151 149 
3 147 148 152 
3 147 152 151 
3 148 146 150 
3 148 150 152 
3 138 137 153 
3 138 153 154 
3 137 139 155 
3 137 155 153 
3 139 140 156 
3 139 156 155 
3 140 138 154 
3 140 154 156 
3 154 153 157 
3 154 157 158 
3 153 155 159 
3 153 159 157 
3 155 156 160 
3 155 160 159 
3 156 154 158 
3 156 158 160 
3 158 157 161 
3 158 161 162 
3 157 159 163 
3 157 163 161 
3 159 160 164 
3 159 164 163 
3 160 158 162 
3 160 162 164 
3 165 166 167 
3 168 169 170 
3 171 172 173 
3 174 175 176 
3 132 129 177 
3 132 177 178 
3 129 131 179 
3 129 179 177 
3 131 132 178 
3 131 178 179 
3 114 113 180 
3 114 180 181 
3 113 115 182 
3 113 182 180 
3 115 114 181 
3 115 181 182 
3 162 163 183 
3 162 183 184 
3 163 164 185 
3 163 185 183 
3 164 162 184 
3 164 184 185 
3 150 151 186 
3 150 186 187 
3 151 152 188 
3 151 188 186 
3 152 150 187 
3 152 187 188 
3 178 177 18 
3 178 18 17 
3 177 179 19 
3 177 19 18 
3 179 178 17 
3 179 17 19 
3 181 180 169 
3 181 169 168 
3 180 182 170 
3 180 170 169 
3 182 181 168 
3 182 168 170 
3 184 183 172 
3 184 172 171 
3 183 185 173 
3 183 173 172 
3 185 184 171 
3 185 171 173 
3 187 186 175 
3 187 175 174 
3 186 188 176 
3 186 176 175 
3 188 187 174 
3 188 174 176 
3 150 149 189 
3 150 189 190 
3 149 151 191 
3 149 191 189 
3 151 150 190 
3 151 190 191 
3 114 115 192 
3 114 192 193 
3 115 116 194 
3 115 194 192 
3 116 114 193 
3 116 193 194 
3 162 161 195 
3 162 195 196 
3 161 163 197 
3 161 197 195 
3 163 162 196 
3 163 196 197 
3 130 129 198 
3 130 198 199 
3 129 132 200 
3 129 200 198 
3 132 130 199 
3 132 199 200 
3 190 189 5 
3 190 5 4 
3 189 191 6 
3 189 6 5 
3 191 190 4 
3 191 4 6 
3 193 192 23 
3 193 23 22 
3 192 194 24 
3 192 24 23 
3 194 193 22 
3 194 22 24 
3 196 195 26 
3 196 26 25 
3 195 197 27 
3 195 27 26 
3 197 196 25 
3 197 25 27 
3 199 198 166 
3 199 166 165 
3 198 200 167 
3 198 167 166 
3 200 199 165 
3 200 165 167 
