ply
format ascii 1.0
comment VCGLIB generated
element vertex 103
property float x
property float y
property float z
property float nx
property float ny
property float nz
element face 155
property list uchar int vertex_indices
end_header
7.3e-005 -0.001821 0.012226 0.803054 -2.88859 -0.105731 
0.001084 -0.001548 0.012598 1.12582 -2.62761 0.327907 
0.001069 -0.000964 0.013659 1.57768 -1.84185 1.60343 
0.000358 -0.002471 0.011573 -5.68142e-007 -5.61097e-006 3.99976e-006 
0.000106 -0.001789 0.011754 1.51627e-007 -4.79162e-007 2.01657e-006 
-0.001504 -0.001444 0.012477 3.17122e-006 -6.19823e-006 5.19941e-006 
0.002112 -0.00175 0.012843 -1.67393e-007 -5.29133e-006 3.38671e-006 
0.001783 -0.000356 0.015039 1.47245e-006 -1.03813e-006 2.09315e-006 
0.00143 -0.000653 0.013662 -2.38837e-006 -5.05807e-006 1.29126e-006 
-0.001456 -0.000653 0.014714 1.22789e-007 -4.40782e-006 4.09901e-006 
0.000114 -0.000262 0.01451 -8.21883e-008 -5.33338e-006 4.5655e-007 
-0.000348 3e-006 0.015741 -7.85387e-007 1.73799e-006 1.60344e-006 
-0.001175 -0.002553 0.011237 -8.89777e-007 -3.55693e-006 -1.31433e-006 
-0.002182 -0.001556 0.011935 -4.03839e-006 2.47938e-006 -3.90526e-006 
-0.001259 -0.001539 0.011464 -2.05564e-006 4.25787e-006 -6.16935e-006 
0.000272 -0.001917 0.011032 8.15102e-007 1.99963e-006 -7.50683e-006 
-2.9e-005 -0.000945 0.01171 -1.97039e-007 3.66453e-006 -4.14884e-006 
0.00151 -0.001005 0.012152 5.4517e-006 5.23248e-006 -6.34458e-006 
-2.9e-005 -0.000945 0.01171 5.3211e-007 2.33729e-006 -1.53547e-006 
0.001323 -0 0.013617 5.3211e-007 2.33729e-006 -1.53547e-006 
0.00151 -0.001005 0.012152 5.3211e-007 2.33729e-006 -1.53547e-006 
0.001428 -0.002423 0.011262 1.23252e-006 -1.7009e-006 -2.08323e-006 
-0.001084 -0.000507 0.013894 1.26606e-006 -2.08304e-006 2.03476e-007 
0.001064 3.1e-005 0.014959 1.12347e-006 5.76799e-006 1.46755e-006 
0.001323 -0 0.013617 3.65923e-006 6.90685e-006 -1.45674e-006 
-0.000312 0.000106 0.013922 -1.00224e-006 1.00971e-005 5.87801e-007 
0.00226 -0.000642 0.013793 2.32734e-006 6.92475e-007 8.06768e-007 
-0.001879 -0.000159 0.014778 -1.76847e-007 1.29404e-006 9.84676e-007 
-0.001852 -5.5e-005 0.013857 -2.88963e-006 5.1883e-006 -3.87648e-007 
-0.002241 -0.000677 0.012997 -3.34553e-006 2.95269e-006 -2.25481e-006 
-0.001102 -0.000409 0.01278 -2.04952e-006 6.83677e-006 -4.62407e-006 
0.001451 -0.001439 0.012256 -1.99586e-006 -1.12151e-006 2.54058e-006 
0.000665 -0.000497 0.01515 -2.42056e-007 -3.73519e-006 1.49431e-006 
-0.002712 -0.00108 0.01374 -2.68079e-006 -6.98365e-008 1.22661e-006 
-0.002244 -0.002327 0.012191 -3.08952e-007 -1.73106e-006 7.44184e-007 
-0.002226 -0.001629 0.01295 -1.3987e-006 -3.61043e-006 1.4331e-006 
-0.001137 -0.001576 0.012778 0.803052 -2.88859 -0.105732 
-0.000822 -0.000852 0.013832 0.803051 -2.88859 -0.105728 
7.9e-005 -0.000689 0.014307 1.06125 -1.83899 1.57803 
0.002109 -0.002447 0.01171 1.64289e-006 4.79119e-007 -9.14726e-007 
0.002712 -0.001394 0.01325 2.59079e-006 1.87525e-006 -1.59891e-006 
-0.001102 -0.000409 0.01278 6.10618e-008 2.07067e-006 -9.76035e-007 
-0.000312 0.000106 0.013922 -2.50219e-008 5.60097e-006 -2.66442e-006 
-2.9e-005 -0.000945 0.01171 -2.50219e-008 5.60097e-006 -2.66442e-006 
0.001323 -0 0.013617 -8.60837e-008 3.5303e-006 -1.68839e-006 
0.000106 -0.001789 0.011754 0.803055 -2.88858 -0.105735 
0.001451 -0.001439 0.012256 1.44859 -2.36664 0.761547 
0.00143 -0.000653 0.013662 1.38401 -1.57802 2.01167 
-0.001504 -0.001444 0.012477 0.803053 -2.88859 -0.105734 
-0.001084 -0.000507 0.013894 0.803051 -2.88859 -0.105731 
0.000114 -0.000262 0.01451 0.932148 -2.36379 0.73615 
0.000342 2.6e-005 0.003627 1.48288e-006 5.3265e-007 -1.17217e-006 
0.000589 0.001819 0.004913 1.62107e-006 4.84643e-007 -7.12704e-007 
0.000282 0.000495 0.004775 1.9652e-006 -1.94544e-006 2.06349e-006 
6.9e-005 -0.000261 0.003725 -7.24057e-007 -1.52784e-006 7.38443e-007 
3e-006 -4e-006 0.003469 -1.29126e-006 8.94509e-007 -1.30528e-006 
0.000185 0.001342 0.005155 7.90752e-007 -4.97249e-007 2.48488e-006 
-0.000482 0.001199 0.005246 -2.05916e-006 -5.73853e-007 8.89995e-007 
-4e-006 0.001427 0.004954 -1.70905e-006 2.24935e-006 -3.43519e-006 
5e-006 0.002644 0.005198 -4.11966e-007 3.57046e-007 -1.63344e-007 
0.000242 0.002329 0.005316 3.35595e-007 2.6188e-008 6.11868e-007 
0.000203 -0.0001 0.008592 1.88695e-006 1.00338e-006 1.64128e-006 
-0.000549 -0.000628 0.009567 -9.61272e-007 2.48294e-006 1.1985e-006 
-0.00113 -0.001432 0.010228 1.08234e-006 4.52391e-007 3.64756e-006 
-0.000164 -0.00011 0.008264 -1.60282e-006 5.69917e-007 -1.29213e-006 
-0.000471 -0.001697 0.00995 1.79139e-006 -9.50082e-007 6.76012e-007 
0.000117 -0.000304 0.008285 4.98844e-007 -1.58353e-006 -1.39971e-006 
-0.001739 -0.001517 0.00997 -2.12179e-006 1.4203e-006 -8.3255e-007 
-0.000956 -0.001532 0.009799 -4.42327e-007 -2.0239e-006 -4.21357e-006 
-0.001964 -0.002512 0.009488 -3.35485e-007 2.07533e-007 -1.08069e-006 
-0.001384 -0.002422 0.009686 5.67155e-007 -1.0794e-006 5.1713e-007 
-0.001903 -0.002162 0.009972 -3.6298e-007 -4.99556e-007 1.13817e-006 
0.000324 -0.001705 0.006341 -5.80253e-007 1.20533e-006 2.47158e-006 
0.000712 -0.000911 0.00587 1.31206e-006 1.53264e-006 1.14935e-006 
6.5e-005 -0.00068 0.00552 -1.7227e-006 8.12017e-007 1.02905e-006 
0.000362 -0.00222 0.006317 -1.41518e-006 -1.75939e-006 -1.47274e-006 
0.000501 -0.001224 0.005642 1.74279e-006 -1.38153e-006 -2.6811e-006 
0.001335 -0.002644 0.006677 9.42327e-007 -1.34445e-007 -2.20001e-007 
0.00094 -0.002597 0.00677 -1.95576e-007 -3.70322e-008 4.84983e-007 
-3.7e-005 -0.000115 0.004482 -8.34698e-008 -2.37592e-007 -7.61124e-007 
2.3e-005 -0.000191 0.006446 -1.60312e-006 1.47974e-006 8.33571e-007 
0.000261 -0.000519 0.0062 2.40133e-006 -1.64422e-006 -2.88199e-006 
0.00074 -0.000469 0.007569 -1.97235e-006 -1.7115e-006 1.1204e-006 
0.0016 -0.000453 0.008658 -2.71595e-006 1.35e-006 2.65415e-006 
0.001561 0.000194 0.007971 5.67385e-007 3.63778e-006 -3.29307e-007 
0.002549 -0.000655 0.009362 -5.92316e-007 6.80136e-007 1.47299e-006 
0.00256 -0.000133 0.008915 7.14783e-008 5.9904e-007 3.14856e-007 
0.002665 -0.000436 0.008919 3.78685e-006 -9.64903e-007 -3.03627e-006 
0.002006 -0.00093 0.008808 5.67038e-008 -3.42607e-006 -1.484e-007 
-0.000184 -0.000211 0 -3.21712e-006 -1.00183e-007 -3.09512e-007 
0.000143 -0.000432 0.00043 1.54439e-007 -8.2364e-006 -1.19731e-007 
-0.00011 -0.000129 0.00586 -6.34598e-006 4.31355e-006 -4.8636e-008 
0.000453 -0.000104 -0 3.21003e-006 9.88439e-008 -3.05239e-007 
0.000126 0.000117 0.000429 -3.33695e-007 6.54416e-006 -4.14099e-009 
0.000371 -0.000179 0.005847 1.02175e-005 2.77291e-006 -8.5967e-008 
-6.7e-005 -0.000391 0.009377 0.139189 -0.984991 -0.102158 
-0.00017 -0.000158 0.009383 0.278374 -1.96996 -0.204316 
8e-005 0.000143 0.009385 -3.52755e-006 1.98957e-006 5.88601e-009 
3.3e-005 0.000193 0.012399 3.07621e-006 8.59651e-006 2.63886e-007 
0.000322 -0.000327 0.013777 1.00795e-006 1.23388e-006 6.14166e-007 
0.000619 -0.000359 0.012396 0.278384 -1.96996 -0.204316 
-0.000265 -0.000426 0.013358 -4.81839e-006 6.37794e-007 1.68015e-007 
0.000211 -0.00077 0.01341 0.139189 -0.984984 -0.102158 
3 0 1 2 
3 3 4 5 
3 6 7 8 
3 9 10 11 
3 12 13 14 
3 15 3 12 
3 15 16 17 
3 18 19 20 
3 17 21 15 
3 9 22 10 
3 23 24 25 
3 23 25 11 
3 6 26 7 
3 27 9 25 
3 27 25 28 
3 28 9 27 
3 15 12 14 
3 13 29 30 
3 14 16 15 
3 14 30 16 
3 6 8 31 
3 32 23 11 
3 9 28 33 
3 34 35 13 
3 13 12 34 
3 7 24 23 
3 35 5 9 
3 7 32 8 
3 36 0 37 
3 5 22 9 
3 3 6 31 
3 3 31 4 
3 8 32 10 
3 2 38 37 
3 21 39 6 
3 5 12 3 
3 5 34 12 
3 5 35 34 
3 17 24 40 
3 35 29 13 
3 0 2 37 
3 30 28 25 
3 41 42 43 
3 14 13 30 
3 24 26 40 
3 17 6 39 
3 17 39 21 
3 32 7 23 
3 6 40 26 
3 25 9 11 
3 9 33 35 
3 24 7 26 
3 10 32 11 
3 35 33 29 
3 44 43 42 
3 6 3 21 
3 28 29 33 
3 17 40 6 
3 15 21 3 
3 29 28 30 
3 45 46 1 
3 45 1 0 
3 46 47 2 
3 46 2 1 
3 48 45 0 
3 48 0 36 
3 49 48 36 
3 49 36 37 
3 47 50 38 
3 47 38 2 
3 50 49 37 
3 50 37 38 
3 51 52 53 
3 54 51 53 
3 54 55 51 
3 56 57 53 
3 57 55 54 
3 52 58 59 
3 59 57 56 
3 60 52 59 
3 57 59 58 
3 60 56 52 
3 59 56 60 
3 53 57 54 
3 56 53 52 
3 51 55 58 
3 55 57 58 
3 52 51 58 
3 61 62 63 
3 61 64 62 
3 65 66 61 
3 67 68 69 
3 65 70 68 
3 70 65 63 
3 71 67 69 
3 68 70 69 
3 70 71 69 
3 71 63 67 
3 70 63 71 
3 63 65 61 
3 64 61 66 
3 62 64 67 
3 63 62 67 
3 64 66 68 
3 68 66 65 
3 64 68 67 
3 72 73 74 
3 75 76 77 
3 73 77 76 
3 77 73 72 
3 78 75 77 
3 78 72 75 
3 77 72 78 
3 74 73 79 
3 74 79 75 
3 72 74 75 
3 79 73 76 
3 75 79 76 
3 80 81 82 
3 83 84 80 
3 85 84 83 
3 86 84 85 
3 87 86 85 
3 84 86 87 
3 85 83 88 
3 85 88 87 
3 80 84 81 
3 82 81 88 
3 83 82 88 
3 80 82 83 
3 81 84 87 
3 88 81 87 
3 89 90 91 
3 92 93 94 
3 91 95 96 
3 91 96 97 
3 94 91 98 
3 99 100 98 
3 99 98 101 
3 102 100 99 
3 94 100 95 
3 98 100 94 
3 98 97 101 
3 97 98 91 
3 101 96 102 
3 97 96 101 
3 96 95 100 
3 96 100 102 
3 90 89 92 
3 92 89 93 
3 94 93 91 
3 91 90 95 
3 90 94 95 
3 94 90 92 
3 91 93 89 
