ply
format ascii 1.0
comment VCGLIB generated
element vertex 414
property float x
property float y
property float z
property float nx
property float ny
property float nz
element face 756
property list uchar int vertex_indices
end_header
0.4575 0.4775 4.633 41306.77 246455.2 7320.593 
0.19 0.104 5.4255 -194378 113593.6 108690.9 
3.122 0.3405 8.741 -136733.9 114842.2 174971.8 
3.576 0.477 7.9525 32169.45 247156.5 -19462.9 
0.569 -0.486 5.555 -151216.8 -184876.8 73851.82 
3.028 -0.284 8.716001 -111691.3 -191380.6 115752.2 
1.0405 -0.4775 4.8605 94489.96 -228355.8 -37753.43 
3.147 -0.477 8.009 64951.89 -225133 -87157.31 
1.076 0.191 4.639 230895.2 46726.21 -83690.37 
3.5805 -0.028 7.4955 165745.2 29289.26 -184853.2 
-0.562 0.469 -4.6905 -156105 64718.92 -184235.5 
0.333 0.7585 -4.6995 12238.03 169502 -183355.7 
0.061 0 -4.696 -2472.845 -130.3677 -249987.8 
-0.5685 -0.469 -4.69 -110833.6 -127760 -184101.4 
0.3155 -0.7585 -4.6985 88295.23 -146675.2 -182182.3 
0.8705 0 -4.7045 167374.7 39177.23 -181523.8 
17.5605 0.5675 24.676 13081.77 182366.8 170503 
16.955 0.145 24.592 -155471.3 82708.6 177448.6 
17.5765 -0.019 24.6765 -32229.16 175.0461 247913.9 
17.2045 -0.504 24.6285 -137899.3 -110965 176551.9 
17.972 -0.483 24.728 52937.28 -172655.2 172881 
18.1845 0.1795 24.752 177463.3 18891.56 175071.2 
17.2525 0.3745 20.445 23443.02 115915.8 -220258.9 
16.866 0.093 20.3535 -44561.09 6530.933 -245909.9 
15.7215 0.3025 20.561 -196646.2 55606.97 -144007.5 
17.025 1.182 20.856 9156.957 223911.8 -110813.8 
17.035 -0.339 20.3925 14881.02 -106777.3 -225559.8 
16.274 -1.0495 20.691 -69642.39 -197515 -136520.3 
17.5335 -0.325 20.505 128889.4 -74188 -200957 
17.931 -1.0055 21.03 158164.3 -153489.9 -118004.1 
17.6665 0.116 20.535 135788.2 72718.15 -196910.3 
18.4 0.3735 21.105 204992.2 86930.88 -113671.6 
-0.8735 0.6735 1.106 -239000 33831.04 65072.95 
-0.8825001 -0.6735 1.1065 -115590.9 -216965.4 45439.87 
0.387 -1.0895 1.0945 178247.2 -175287 1560.642 
1.185 0 1.086 220685.1 117464.4 461.8936 
0.4125 1.0895 1.093 -31685.27 245293.3 36431.59 
9.812 0.491 12.278 4589.956 249813.9 -8485.104 
10.1345 0.182 11.7965 133200.8 60931.57 -202595.4 
9.6565 -0.316 11.618 83773.64 -197122.7 -128936.5 
9.712999 -0.499 12.1195 -67110.15 -212067.6 114121 
9.5855 0.07 12.453 -131264.9 65063.68 202574.1 
17.6505 0.406 17.499 6955.502 249004.6 -21174.72 
18.12 0 17.314 204045.4 82923.52 -118275.8 
17.198 -0.406 16.743 101758.9 -223425.3 -47183.73 
16.4915 -0.251 17.0415 -110847.3 -211888.5 72912.11 
16.985 0.251 17.7985 -195503.9 123559.5 94927.93 
17.2525 0.3745 20.445 75976.72 237841.7 12605.28 
17.6665 0.116 20.535 241156.2 -65302.58 8903.098 
17.5335 -0.325 20.505 52182 -244491.9 870.5543 
17.035 -0.339 20.3925 -234311.3 -86501.67 10755.57 
16.866 0.093 20.3535 -169127.6 184090.7 2549.241 
-0.8735 0.6735 1.106 -120623.9 146466 162780.9 
0.4125 1.0895 1.093 108248.2 166360.1 152008.8 
0.617 1.9435 0.013 83133 228257.2 59055.66 
-1.6765 1.2015 0.0355 -191239.4 148487.2 62282.03 
-0.8825001 -0.6735 1.1065 -172521.1 -71762.95 166092 
-1.693 -1.2015 0.037 -199238.8 -138486.2 60212.01 
0.387 -1.0895 1.0945 18132.7 -194003.3 156633.2 
0.5725 -1.9435 0.015 72600.88 -232957.4 54405.98 
1.185 0 1.086 196552.1 -48561.09 146659.9 
1.995 0 0 244032 -6183.555 53946.03 
24.222 0.177 23.4945 84929.5 -149567.3 181429.5 
24.1105 -0.023 23.2105 -32785.27 -247334.6 15835.73 
26.104 0.922 22.374 73606.69 -228117.6 -71024.32 
22.4645 1.216 24.3055 13355.51 -14170.75 249240.5 
25.302 1.9695 23.5685 111686.3 16112.13 223084.3 
22.97 2.658 23.7705 -22449.6 204794.1 141617.1 
25.129 3.5215 22.879 62656.95 197382.5 -140051 
22.897 2.4445 23.33 -51444.02 137964 -202038.3 
22.266 1.1775 22.959 -37063.46 7028.982 -247137.5 
24.9105 1.9895 22.8075 -90392.62 32655.9 -230787.3 
20.2635 2.2285 23.2285 36909.7 14257.28 -246849 
16.8 -0.027 23.7125 -199137.8 -35648.92 -146878.5 
20.3625 2.257 23.464 69499.98 193595.5 142093.5 
17.296 0.043 24.587 -41059.28 21404.16 245674.6 
20.103 -1.1045 24.0235 59498.99 -198866.5 139327 
19.838 -1.0935 23.3545 -43308.04 -162710.6 -184796.4 
21.029 -0.317 23.537 71731.05 -164947.8 173628.7 
23.993 -0.1815 23.267 158846.7 -192428 15465.95 
20.3195 0.751 24.465 3681.913 -20122.64 249161.7 
20.9525 -0.5635 22.7255 36829.24 -149442.4 -197004.1 
20.052 0.693 23.504 12149.38 33318.82 -247471.8 
18.745 0.3675 23.798 -44062.96 1294.081 -246082.9 
18.886 0.393 24.1755 27271.83 19990.55 247702.8 
27.038 2.3785 22.1415 208770.7 38946.3 131901.5 
27.373 0.791 21.0355 95001.88 -848.7985 -231244.3 
25.4195 3.793 22.608 -167522.2 180274.6 44016 
26.3845 3.6495 20.918 -66063.64 218142.5 -102710.7 
26.288 2.197 21.654 -189533.7 -52639.62 -154292.2 
27.669 2.571 18.8945 22226.36 39540.75 -245850.7 
27.2245 0.8915 20.6685 -30458.75 -231370.1 89666.98 
21.22 2.486 23.438 -110608.6 221891.7 -32091.17 
22.194 2.922 24.598 58587.39 -214709.4 113874.6 
21.9755 2.7145 23.823 131525.2 -193740.1 -87555.34 
23.2825 5.473 23.794 193027.6 -60565.53 146874.8 
23.178 5.2725 23.4395 -10065.77 -108589.5 -224960.1 
22.048 5.55 24.5565 67925.66 63452.52 232077.4 
21.523 7.526 24.23 99674 205072.1 102521 
20.385 3.4555 25.0315 66963.34 -22882.03 239775.6 
20.1695 6.3125 25.0895 -109972.6 84334.44 208071.5 
20.0175 6.1425 24.4165 -168926.5 146508 -111800.2 
21.204 7.302 23.612 -27122.05 71916.7 -237891.6 
21.8645 5.5235 24.075 -17710.55 -9072.985 -249206.8 
20.292 3.4985 24.3435 -41487.29 -26952.81 -245055.9 
16.7475 -0.031 23.411 -74057.21 -11797.43 -238487.7 
17.0075 -0.0285 24.1915 -53035.42 -121256.6 212094.5 
17.022 2.612 23.7255 -229840.1 96507.12 -18971.68 
18.2115 3.194 24.4685 -132780 52741.25 205153.2 
19.5905 0.6035 23.3525 94016.41 -182486.2 -142687.6 
19.8195 0.49 23.942 131010.6 -207390.6 48222.52 
18.721 1.976 23.658 28463.99 30561.17 -246487 
18.8705 1.9255 24.4515 5380.469 -60273.27 242565.9 
20.4985 1.3975 23.903 228150.1 -93936.09 -40293.65 
24.481 5.9675 22.3875 186710.8 -164858.1 -21469.2 
22.723 6.6445 23.218 -119993.5 -92677.4 -198777.4 
23.832 8.427999 21.312 23182.39 145747 -201793 
23.056 6.958 23.739 126055.8 107010.7 187506.5 
21.897 8.041 22.9815 -229751.5 94945.32 26450.68 
21.745 2.7265 24.0605 231739.8 83174.66 -43343.5 
14.814 -5.1005 26.8655 -212457.7 80859.12 104036.4 
14.7775 -5.18 26.308 -185789.2 106209 -129236.5 
15.1065 -7.435 27.115 -204139.1 -64577.74 -129061.9 
16.61 -3.714 27.1255 -43728.95 139253.4 202968.7 
15.983 -6.5025 28.326 -65441.9 29549.65 239466.5 
17.544 -4.939 27.208 130966.8 43339.5 208493.2 
17.627 -7.3415 28.052 154392.6 -170863 97307.72 
17.797 -5.1005 26.868 172385 -138255 -116914.5 
16.7975 -4.216 26.0555 59357.8 -123208.8 -209275.6 
16.214 -6.5685 27.545 86542.01 -65857.92 -225107.2 
18.8025 -3.231 25.7185 105186.3 -149137.2 -170862.4 
17.719 0.5955 23.981 117058 139446.8 -171324.4 
18.717 -3.107 26.329 104156.6 -17484.97 226595.9 
17.6575 0.798 24.744 -19450.02 194406.8 155973.4 
15.4885 -1.4125 24.528 -215888.1 102985.1 72707.86 
15.357 -1.5215 23.8305 -140868.2 23628.61 -205177.7 
15.5555 -2.4825 25.1105 -208031.1 86503.19 108352.5 
14.775 -5.0115 26.323 -211761 -130182.1 26644.91 
17.109 -1.853 26.054 -69566.13 127993 203170.8 
15.595 -2.865 24.2315 -137464.3 -116900.3 -173025.7 
17.233 -2.2515 25.0345 44053.35 -174523.5 -173496 
17.4085 -1.0725 24.257 79925.47 -90441.91 -218934.3 
17.328 -0.7105 25.4005 -72243.45 114538.4 210147.2 
15.849 -8.737 27.723 -91226.35 -106685.8 206871.8 
14.25 -9.316501 26.3695 28924.64 -208711 -134547.7 
17.868 -7.7315 28.089 221781.7 112171 27029 
17.504 -9.4185 27.0345 232419.3 -87073.64 -29990.92 
16.064 -8.45 27.0755 64354.35 84307.93 -226386.2 
16.158 -11.0745 25.6135 18573.6 -171465.1 -180982.8 
14.8595 -9.3145 26.2505 -205038.4 140367.4 -27500.73 
18.9295 -3.6355 26.3925 242842.7 10888.19 58385.79 
14.6655 4.2265 25.9465 232695.5 -10184.65 90824.56 
14.732 4.2875 25.1865 202620.9 137130.7 -51380.5 
12.1645 5.6765 25.759 49254.22 134937 204611.9 
12.3885 5.779 24.945 99211.07 104064.7 -204518.3 
11.993 4.2025 25.853 -85803.65 -37923.21 231731.7 
10.084 3.7535 25.0105 -183397.9 48063.57 162957.5 
14.039 2.443 25.6145 19367.48 -33216.46 247025.5 
11.022 2.276 25.5385 -93478.12 -155247.9 172220.6 
11.059 2.4315 24.724 -169669.2 -126385.2 -133188.5 
9.813499 3.7715 24.3075 -132314.9 86049.06 -193877.2 
11.8285 4.21 25.081 -7776.593 96180.54 -230627.1 
13.719 2.751 24.392 38119.47 63638.02 -238740.7 
17.128 -0.1675 23.345 65280.83 -11561.39 -241049.3 
17.3535 -0.333 23.926 135089.6 -124417.1 169620.8 
14.161 -0.2295 22.956 -65662.38 -199807.1 -135150.2 
13.9605 0.499 24.451 -60317.94 -189437 151576.4 
16.877 2.521 23.5895 197870.2 134117.7 -73211.02 
16.8595 2.206 24.3745 170993.1 94660.12 155887.3 
15.0785 1.5095 23.3815 15971.56 120342.5 -218546.6 
15.3975 1.252 24.4955 60343.28 -70591.98 232110.9 
15.853 2.6495 24.58 128071.7 179735.8 117442.5 
11.35 6.8835 24.7245 99555.88 229306.3 2695.784 
10.638 5.3285 24.5715 95759.57 -26567.41 -229399.9 
8.325001 7.2345 22.74 -68747.41 186175.7 -152027.7 
10.5425 5.439 25.2625 -121816 51102.43 212248.5 
8.7235 4.5595 23.6715 -81361.41 -232448.8 -42987.37 
14.8055 3.8585 25.2215 59629.94 228938.5 80817.45 
11.2475 -1.8935 23.6515 -30587.55 214534.3 124657.3 
11.1575 -1.622 23.0575 -65109 241143.8 10511.9 
9.068 -3.701 23.011 -155360.3 110661.8 161608.1 
8.98 -3.3935 21.9735 66150.66 112764.4 -213092.3 
10.765 -4.1865 24.0765 -60027.76 -90345.49 225242.9 
10.9825 -5.8795 23.478 -131695.6 -162064 137446.5 
13.143 -2.552 24.678 -68608.78 39973.41 237054.8 
12.71 -5.313 24.581 57388.04 -119741 211822.4 
12.791 -5.3085 23.731 107089.5 -196661 -111158.9 
10.8975 -6.0425 22.6855 -65541.78 -98848.02 -220075.8 
10.78 -4.1265 23.627 47441.45 -41896.22 -241855.4 
12.992 -2.59 23.8275 40742.65 23616.21 -245524.6 
17.106 0.136 23.3875 106418.9 14138.85 -225776.7 
17.2765 0.194 24.3365 42953.24 137278.3 204474.2 
16.5775 -2.657 23.4165 201029 -128651.9 -74404.8 
15.3155 -2.8195 24.32 104025 -98164.23 205042.9 
13.7955 0.2155 22.4295 -55708.71 243533.7 -9375.31 
14.069 0.0375 23.191 -87655.95 194051.3 130998.4 
14.5975 -1.426 23.0925 -10890.6 -18897.92 -249046.8 
14.86 -1.379 24.2165 -23448.47 72411.37 238131.9 
13.1315 -0.591 23.178 -143731.6 202820.9 26550.56 
7.397 -4.0625 20.987 -160921.1 189815.3 -23970.74 
9.2475 -4.9395 21.786 157764.7 53545.21 -186395.4 
6.59 -6.534 19.003 14140.56 -167293.1 -185237.9 
9.0385 -5.367 23.2035 -136434.3 -96293.3 186046.5 
9.5495 -6.249 21.8675 189132.4 -159826.3 -34416.69 
11.088 -1.38 23.094 -246842.3 -17803.3 -35382.96 
20.2715 -5.9475 23.4535 -112009.1 -131705 180576.2 
19.8645 -5.8735 22.979 -246798.6 -33031.94 22347.03 
21.739 -7.2465 22.227 -188929.9 -135488.2 -91915.48 
20.789 -3.886 23.999 -16126.08 -19065.06 248749.9 
22.483 -6.4365 23.5665 62358.23 -106540.9 217394.8 
22.3545 -3.8985 23.6985 169122.8 76457.79 167486.5 
23.542 -5.3885 22.545 230816.5 -16173.29 -94668.91 
22.2845 -3.7095 22.8155 88557.84 112674.4 -204846.3 
20.6285 -3.741 23.1545 -33392.66 39184.8 -244641.6 
22.2605 -5.9275 22.6035 -36900.36 83282.67 -232814.1 
21.1455 -1.5795 23.1215 46396.68 59880.28 -238247.2 
17.9655 0.2275 24.359 -86427.34 210912.8 -102694.3 
21.2885 -1.718 23.612 210196.4 146.7222 135342 
18.0375 0.2495 24.819 -23880.75 99829.76 227955.6 
17.545 -2.582 24.0515 -178074.5 -120984.5 127091.6 
17.423 -2.308 23.2385 -193333.8 27283.88 -156133.5 
18.6175 -3.158 23.5115 -105698.1 -147779.7 171724 
19.718 -5.385 23.1475 -40623.98 -246492.5 -9547.192 
19.6145 -2.0645 24.391 10529.85 -48049.31 245113.1 
18.318 -3.1055 22.629 -120161.1 -92315.27 -198844.7 
19.3735 -1.8895 23.444 42692.35 -4912.91 -246278.8 
18.5895 -0.812 23.7005 -20910.83 95769.7 -229980.3 
18.861 -0.996 24.5815 30115.72 -47591.03 243573.7 
23.3285 -7.8715 21.882 112954.7 -193487.3 110923 
21.714 -8.790999 20.6205 11942.65 -55691.74 -243425.2 
24.292 -5.6855 22.3525 124304.6 216707.2 9293.104 
23.954 -6.882 20.7255 168831.9 135078.6 -125497.3 
22.87 -7.164 21.423 -116953.6 167173.7 -144481.3 
23.504 -8.2255 18.526 53249.32 54649.97 -238071.3 
21.877 -8.39 20.403 -226071.8 -49122.61 94755.2 
21.572 -2.326 23.4315 141569 205925 7291.072 
13.9615 2.028 27.653 206454.3 124751.6 65678.48 
13.8875 2.2795 26.922 86985.36 224339.5 -67862.86 
11.417 2.112 28.7375 51984.61 145325 196667.9 
11.2965 2.1585 27.7665 -41814.46 82228.67 -232357.5 
12.1335 0.665 28.564 24869.29 -72521.07 237954.3 
10.82 -0.683 28.4805 -175218.2 -47709.3 171820.9 
14.501 0.3515 27.356 122456.6 10095.31 217721.1 
12.5065 -1.3805 28.374 88707.73 -150516.7 178817.5 
12.1795 -1.479 27.4155 -135210.6 -168472.6 -125837.6 
10.9095 -0.647 28.0915 -176091.4 5065.268 -177387.1 
11.8425 0.631 27.856 -131046.9 23180.2 -211635.1 
14.2395 0.389 26.889 -84257.81 45381.57 -230957.1 
17.7595 -0.106 23.5965 -94138.15 -18287.42 -230875.7 
17.891 -0.12 24.3725 220418 -1158.298 117960.1 
15.693 -1.3085 24.8395 1176.682 -224240.7 -110520.3 
15.2645 -1.0955 26.011 120496 -180079.7 124707.9 
16.1205 1.633 24.8775 85899.33 217012.8 -89592.23 
16.2965 1.592 25.2 152933.7 192660.7 44644.78 
15.6795 0.179 25.362 -159388.1 55255.88 -184505.4 
15.948 0.143 25.7975 165152.6 -7131.95 187546.8 
15.4715 1.8195 25.8555 15522.85 244842.2 48076.8 
9.6995 2.973 27.887 -38821.88 245424.3 -27564.15 
10.279 0.925 28.194 -84.59245 -916.2157 -249998.4 
7.608 1.286 27.437 -216879.6 -37473.9 -118570.5 
10.259 0.9215 28.5595 -62945.4 -20818.24 241048.8 
9.416 -0.2615 27.8875 2613.538 -246352.2 -42471 
14.1775 1.917 26.955 -195655.6 125346.8 92233.87 
18.7995 5.2825 25.205 187052.4 70037.18 150353.7 
18.8425 4.983 24.6175 210878.7 -126469.7 -45117.64 
17.8785 6.852 23.2365 224825.3 18075.63 -107828.1 
17.1935 3.6825 25.5245 14242.33 -11480.37 249329.9 
16.8095 6.587 24.8765 -21482.4 152142 197208.8 
15.844 4.351 25.087 -167872.1 33295.47 182237.2 
15.104 6.258 23.748 -195478.2 133793.2 -79922.91 
15.6075 4.1505 24.377 -115234.7 -61536.94 -213153 
17.1095 3.5655 24.927 7145.835 -34144.91 -247554.2 
16.7065 6.0435 24.123 7346.579 -149838.4 -199986.3 
15.3725 2.07 24.2885 -24109.41 59470.43 -241623.7 
17.467 -0.6155 24.1945 4806.415 -169015.4 -184148.6 
15.3885 2.2545 25.005 -182818.5 25004.01 168677.9 
17.5785 -0.926 24.819 -20057.8 -192056.7 158782.6 
19.0935 1.413 25.1655 207366.5 -16945.62 138607.5 
19.336 1.336 24.439 169289 -6230.173 -183854.4 
18.5605 2.3335 25.0755 154179.3 28427.17 194732.3 
18.763 4.5645 24.8435 111931.2 223331.2 9726.833 
17.3825 1.659 25.4815 16132.79 -13231.15 249127.9 
18.6985 2.388 24.2125 172417.1 61323.55 -170328.5 
17.1495 1.7335 24.3905 -21729.95 69887.21 -239047.3 
17.4045 0.594 24.602 8249.572 2107.087 -249855 
17.476 0.51 25.262 -1878.62 -43148.03 246241.2 
16.42 7.934 22.6545 -17042.74 237665.4 75661.8 
18.1345 7.863 21.4525 71452.13 124114.6 -204915.1 
14.4015 6.545 23.225 -192958.2 -138667.4 77707.8 
14.957 7.2185 21.0905 -237621.1 -48785.91 -60466.18 
16.376 6.848 22.009 34706.99 -231080.9 -88865.55 
15.397 7.9965 17.93 -97008.63 -31379.49 -228264.5 
17.953 7.612 21.0835 226450.9 -77518.88 72186.2 
15.2685 2.6405 24.773 -229838.3 -93143.28 31602.48 
20.9795 -4.56 25.497 -75576.55 -206082.7 119658.4 
20.831 -4.315 24.8335 -215323.9 -77574.66 -100587.4 
23.075 -4.7875 24.009 -41206.18 -162422.9 -185528.6 
20.667 -2.4265 26.384 -67700.41 -48543.13 235712.2 
23.1755 -3.769 25.4825 101425.6 -120271.4 194287.6 
22.2065 -1.716 26.3225 127596.4 105674.1 187222.2 
24.1655 -2.537 25.2215 193318.8 79626.16 -137067.7 
22.017 -1.757 25.6965 84037.68 144421 -185957.7 
20.8235 -2.1405 25.2405 27665.79 77227.16 -236158 
23.014 -3.4935 25.081 -22685.28 142197.7 -204365.4 
20.5795 -0.11 25.4235 137780.6 -58110.14 -200349.1 
17.1245 0.391 23.898 -36928.96 90465.94 -230113.4 
20.728 -0.1725 25.932 84428.74 145698.1 184780.6 
17.0205 0.3825 24.5195 -155206.3 108321.4 163332.4 
17.5925 -2.3765 24.986 -186731.8 -164664.1 22737.05 
17.9455 -1.986 24.5095 -34146.15 -59047.48 -240515 
18.917 -2.403 25.1045 -122053.4 -164692.2 143106.5 
20.6795 -3.8385 25.1475 -2938.175 -247947.5 -31834.78 
19.0335 -1.1415 26.05 -114992.7 -26364.5 220412.4 
18.946 -2.4445 24.344 12881.16 -109356.6 -224444.3 
19.1675 -1.0765 25.3035 124604.8 481.5668 -216733.6 
18.281 -0.448 24.7155 98467.09 -14899.6 -229308.2 
18.1965 -0.455 25.177 -106930.9 30729.02 223878.4 
24.4965 -4.176 23.7755 165426.3 -155334.5 104906.4 
23.945 -5.336 22.687 146152.2 25143.74 -201264.4 
24.632 -2.556 24.8975 24.15909 220373.5 118048.9 
25.1825 -3.1145 23.151 138121.8 206018.8 -31283.47 
24.2365 -3.959 23.5915 -161410.9 136907.9 -133051.7 
25.78 -4.046 20.426 94927.83 84274.26 -215375.5 
24.089 -5.0205 22.3 -188022.7 -146320.5 75748.31 
21.1125 -0.4335 25.83 72499.57 238594.1 -17796.19 
12.9945 -1.694 19.0385 -239268.3 -32185.58 64921.55 
13.1055 -1.2895 18.671 -87609.3 232955.9 23583.46 
13.513 -2.8535 16.8495 -135438.8 184267.9 -101003.5 
14.896 -2.4645 21.715 -175148.6 -29803.32 175882.8 
14.531 -3.6825 19.4595 -166544 -162662.9 91125.8 
16.179 -3.8095 21.987 -28885.92 -206318.5 138196.7 
16.026 -4.769 20.1415 86889.23 -222941.1 -72439.94 
16.605 -3.486 21.1095 229947 -23284.12 -95300.82 
15.4395 -2.1115 20.761 169922.3 124385.6 -134739.2 
15.0565 -3.4645 18.9705 214100.5 95429.8 -86914.68 
17.9735 -2.8635 22.6485 192953.9 31191.41 -155871.4 
17.0965 -0.2235 23.981 170449.1 178022.8 41892.61 
17.6395 -3.3005 23.094 -25434.27 -231972.9 89675.62 
16.9715 -0.2985 24.31 -29474.89 68387.28 238651.3 
14.456 0.133 21.7125 -214356.7 120302.9 45590.14 
14.6765 0.3585 21.4035 18743.96 214703.9 -126692.2 
14.579 -0.624 21.0995 -240098 5236.831 69466.25 
13.4295 -0.9095 19.4905 -159773 174190.5 -81426.54 
15.9895 -1.433 22.6005 -175379.4 -78661.16 159857.8 
14.7025 -0.5655 20.986 6916.422 147593.4 -201664 
16.2065 -1.2795 22.282 146108.2 47922.37 -197118.9 
16.773 -0.6695 22.935 166393.5 98961.88 -158176.4 
16.2865 -1.025 23.5745 -175341.9 -101230.4 146654.9 
14.059 -4.602 17.1315 -167016 -185954.9 5145.602 
13.5975 -3.0015 14.99 13142.77 -32046.18 -247589 
15.97 -5.002 18.66 203294.9 -65763.35 129793.6 
15.742 -5.076 16.85 195755.1 -154461.6 -17932.46 
14.9595 -3.6945 16.8765 170570.5 181881.7 -18021.36 
15.9585 -4.4495 13.696 140612.5 -102588.4 -179454 
13.665 -3.347 15.038 -161639 190166.4 14477.93 
17.4355 -3.1395 22.605 203829.8 358.6168 144752.5 
20.8155 1.929 21.189 221001.3 -73948.74 90498.73 
20.139 1.7125 20.79 -18690.36 -239382.8 69617.38 
20.063 2.0145 18.466 63041.74 -240332.4 -27678.72 
19.0655 2.692 21.941 120237.4 134742.9 172879.5 
19.6445 3.5855 19.8175 154159.2 196108.6 16624.89 
18.239 3.858 21.2495 -42737.34 235327.4 72763.84 
17.918 4.027 18.9525 -151685.9 91582.04 -176363.7 
17.9375 3.3 20.8285 -216997.8 -85630.47 -89885.51 
18.6895 2.4345 21.579 -133817 -162497.9 -134861 
18.911 3.0245 19.52 -177317.3 -173046.9 -33367.51 
16.521 2.9245 21.5035 -114127.7 -105504.8 -195815.3 
17.0495 0.57 23.5635 -161364.9 -179126.5 66144.45 
17.154 3.3085 22.169 -62991.13 206243.1 126475 
17.3335 0.7935 23.752 -77078.67 -1539.084 237816.2 
19.623 0.5065 23.419 169428.2 -138060.6 121381.2 
19.0415 0.355 22.867 -13018.7 -235462.4 -82994.07 
19.2255 1.1825 22.52 235089.8 -1591.223 85031.06 
20.1025 1.7225 21.079 200198.7 6891.887 -149576.2 
18.5965 2.098 23.378 141399.5 114686.7 171327.7 
18.973 0.7655 21.9575 53667.8 -195415.1 -146399.2 
17.772 1.5655 22.155 -66993.25 -86757.82 -224688.7 
17.537 1.116 22.8065 -98931.91 -175242.2 -148333.1 
18.04 1.5005 23.772 49409.21 95599.47 225653.5 
19.5495 3.2835 17.4575 185181.7 160359.3 -49926.59 
20.265 1.584 17.605 37617.08 -156360.5 -191406.3 
17.9275 4.037 18.3975 -202916.8 134225.3 57518.36 
18.6125 3.3455 16.5205 -172333.1 125893.5 -130200.4 
18.9965 2.555 17.7095 -167471.3 -184875 16571.21 
19.474 1.948 14.406 -70476.66 -12872.91 -239514.8 
20.2535 1.5625 16.8745 170500.8 -98932.26 153759.3 
17.108 3.2375 21.8085 -226375.1 105860.8 6916.528 
18.137 -1.986 20.813 -79369.95 -194739.6 135192.2 
17.8295 -1.8725 20.74 -217879.3 -122314.8 -8229.283 
19.073 -2.075 18.747 44741.54 -244880.2 -23063.48 
18.872 -1.544 18.7205 -229126.8 52615.86 -85044.23 
19.267 -1.3065 19.9055 240579.4 -64427.45 21695.38 
19.9965 0.2125 19.246 188000.5 -18335.93 -163767 
19.2735 -1.3275 22.1555 169620.1 -175359.8 54571.05 
20.6765 0.4205 20.893 225802.5 66587.05 84139.37 
19.828 0.4245 20.631 -8610.068 249018.3 -20390.78 
19.7365 0.465 19.1345 -62304.95 180788.2 -161039.6 
18.858 -0.841 19.612 -168013.7 84894.31 -164512.6 
17.9675 -0.6555 21.1665 -218110.8 117596.8 -33146.63 
17.537 -0.1485 24.4265 -190642.4 160752 17728.03 
17.868 -0.3445 24.684 59271.01 -124546.7 208506.8 
18.779 1.105 23.3695 -15216.67 236882.1 78456.04 
19.389 0.3635 23.0145 213129.2 41414.88 123938.7 
16.657 -1.5975 22.757 -201059.1 -119148.9 88762.66 
16.9 -1.6725 22.863 -23596.76 -230177 94666.64 
17.923 -0.4705 22.784 -191107.3 148009.5 -63806.14 
18.366 -0.7135 23.0955 135528 -170186.5 123161.5 
17.205 -1.7515 22.1405 -111515.8 -222837.3 -20193.72 
18.9785 -1.736 17.0235 -204001.5 -109556.5 -94237.77 
19.4525 -0.827 18.2405 -224965.9 102173.3 -38092.03 
19.528 -0.242 15.654 -69446.3 52972.62 -234245.9 
19.8405 -1.148 18.112 227124.8 -104257.3 -6689.424 
19.9915 0.702 17.971 61013.57 216260.6 109584.3 
17.365 -2.136 21.057 -148767.3 -190154.5 -64881.34 
3 0 1 2 
3 0 2 3 
3 1 4 5 
3 1 5 2 
3 4 6 7 
3 4 7 5 
3 6 8 9 
3 6 9 7 
3 8 0 3 
3 8 3 9 
3 10 11 12 
3 13 10 12 
3 14 13 12 
3 15 14 12 
3 11 15 12 
3 16 17 18 
3 17 19 18 
3 19 20 18 
3 20 21 18 
3 21 16 18 
3 22 23 24 
3 22 24 25 
3 23 26 27 
3 23 27 24 
3 26 28 29 
3 26 29 27 
3 28 30 31 
3 28 31 29 
3 30 22 25 
3 30 25 31 
3 25 24 17 
3 25 17 16 
3 24 27 19 
3 24 19 17 
3 27 29 20 
3 27 20 19 
3 29 31 21 
3 29 21 20 
3 31 25 16 
3 31 16 21 
3 32 33 4 
3 32 4 1 
3 33 34 6 
3 33 6 4 
3 34 35 8 
3 34 8 6 
3 35 36 0 
3 35 0 8 
3 36 32 1 
3 36 1 0 
3 9 3 37 
3 9 37 38 
3 7 9 38 
3 7 38 39 
3 5 7 39 
3 5 39 40 
3 2 5 40 
3 2 40 41 
3 3 2 41 
3 3 41 37 
3 38 37 42 
3 38 42 43 
3 39 38 43 
3 39 43 44 
3 40 39 44 
3 40 44 45 
3 41 40 45 
3 41 45 46 
3 37 41 46 
3 37 46 42 
3 43 42 47 
3 43 47 48 
3 44 43 48 
3 44 48 49 
3 45 44 49 
3 45 49 50 
3 46 45 50 
3 46 50 51 
3 42 46 51 
3 42 51 47 
3 52 53 54 
3 52 54 55 
3 56 52 55 
3 56 55 57 
3 58 56 57 
3 58 57 59 
3 60 58 59 
3 60 59 61 
3 53 60 61 
3 53 61 54 
3 55 54 11 
3 55 11 10 
3 57 55 10 
3 57 10 13 
3 59 57 13 
3 59 13 14 
3 61 59 14 
3 61 14 15 
3 54 61 15 
3 54 15 11 
3 62 63 64 
3 65 66 67 
3 67 66 68 
3 69 67 68 
3 70 69 71 
3 69 68 71 
3 72 73 74 
3 74 73 75 
3 75 73 76 
3 76 73 77 
3 64 66 62 
3 65 62 66 
3 71 64 70 
3 63 70 64 
3 78 79 80 
3 80 79 65 
3 81 79 78 
3 81 82 79 
3 79 82 70 
3 83 72 82 
3 75 84 74 
3 76 84 75 
3 77 81 76 
3 76 81 78 
3 77 83 81 
3 81 83 82 
3 66 64 85 
3 85 64 86 
3 66 85 87 
3 87 85 88 
3 89 88 90 
3 85 91 90 
3 88 85 90 
3 71 89 64 
3 64 89 86 
3 71 87 89 
3 89 87 88 
3 73 83 77 
3 72 83 73 
3 76 78 84 
3 84 78 80 
3 74 84 80 
3 91 89 90 
3 80 65 92 
3 92 65 67 
3 69 92 67 
3 82 92 70 
3 70 92 69 
3 65 79 70 
3 80 82 74 
3 74 82 72 
3 66 87 71 
3 85 86 89 
3 85 89 91 
3 66 71 68 
3 62 65 63 
3 63 65 70 
3 80 92 82 
3 93 94 95 
3 95 94 96 
3 97 98 99 
3 100 99 98 
3 100 98 101 
3 101 98 102 
3 103 104 102 
3 104 101 102 
3 105 106 107 
3 107 106 108 
3 105 109 106 
3 106 109 110 
3 97 99 95 
3 99 93 95 
3 103 96 104 
3 94 104 96 
3 107 101 111 
3 111 101 104 
3 107 108 101 
3 101 108 100 
3 108 112 100 
3 100 112 99 
3 105 107 111 
3 109 113 110 
3 109 105 113 
3 113 105 111 
3 114 115 116 
3 95 96 114 
3 97 95 117 
3 117 95 114 
3 115 118 116 
3 117 114 116 
3 118 117 116 
3 103 115 96 
3 96 115 114 
3 110 113 106 
3 106 113 112 
3 108 106 112 
3 118 97 117 
3 103 118 115 
3 113 119 112 
3 112 119 99 
3 113 111 119 
3 119 111 104 
3 99 104 93 
3 93 104 94 
3 97 103 98 
3 98 103 102 
3 97 118 103 
3 99 119 104 
3 120 121 122 
3 123 124 125 
3 125 124 126 
3 127 125 126 
3 128 127 129 
3 127 126 129 
3 130 131 132 
3 132 131 133 
3 133 131 134 
3 134 131 135 
3 122 124 120 
3 123 120 124 
3 129 122 128 
3 121 128 122 
3 136 137 138 
3 138 137 123 
3 139 137 136 
3 139 140 137 
3 137 140 128 
3 141 130 140 
3 133 142 132 
3 134 142 133 
3 135 139 134 
3 134 139 136 
3 135 141 139 
3 139 141 140 
3 124 122 143 
3 143 122 144 
3 124 143 145 
3 145 143 146 
3 147 146 148 
3 143 149 148 
3 146 143 148 
3 129 147 122 
3 122 147 144 
3 129 145 147 
3 147 145 146 
3 131 141 135 
3 130 141 131 
3 134 136 142 
3 142 136 138 
3 132 142 138 
3 149 147 148 
3 138 123 150 
3 150 123 125 
3 127 150 125 
3 140 150 128 
3 128 150 127 
3 123 137 128 
3 138 140 132 
3 132 140 130 
3 124 145 129 
3 143 144 147 
3 143 147 149 
3 124 129 126 
3 120 123 121 
3 121 123 128 
3 138 150 140 
3 151 152 153 
3 153 152 154 
3 155 156 157 
3 158 157 156 
3 158 156 159 
3 159 156 160 
3 161 162 160 
3 162 159 160 
3 163 164 165 
3 165 164 166 
3 163 167 164 
3 164 167 168 
3 155 157 153 
3 157 151 153 
3 161 154 162 
3 152 162 154 
3 165 159 169 
3 169 159 162 
3 165 166 159 
3 159 166 158 
3 166 170 158 
3 158 170 157 
3 163 165 169 
3 167 171 168 
3 167 163 171 
3 171 163 169 
3 172 173 174 
3 153 154 172 
3 155 153 175 
3 175 153 172 
3 173 176 174 
3 175 172 174 
3 176 175 174 
3 161 173 154 
3 154 173 172 
3 168 171 164 
3 164 171 170 
3 166 164 170 
3 176 155 175 
3 161 176 173 
3 171 177 170 
3 170 177 157 
3 171 169 177 
3 177 169 162 
3 157 162 151 
3 151 162 152 
3 155 161 156 
3 156 161 160 
3 155 176 161 
3 157 177 162 
3 178 179 180 
3 180 179 181 
3 182 183 184 
3 185 184 183 
3 185 183 186 
3 186 183 187 
3 188 189 187 
3 189 186 187 
3 190 191 192 
3 192 191 193 
3 190 194 191 
3 191 194 195 
3 182 184 180 
3 184 178 180 
3 188 181 189 
3 179 189 181 
3 192 186 196 
3 196 186 189 
3 192 193 186 
3 186 193 185 
3 193 197 185 
3 185 197 184 
3 190 192 196 
3 194 198 195 
3 194 190 198 
3 198 190 196 
3 199 200 201 
3 180 181 199 
3 182 180 202 
3 202 180 199 
3 200 203 201 
3 202 199 201 
3 203 202 201 
3 188 200 181 
3 181 200 199 
3 195 198 191 
3 191 198 197 
3 193 191 197 
3 203 182 202 
3 188 203 200 
3 198 204 197 
3 197 204 184 
3 198 196 204 
3 204 196 189 
3 184 189 178 
3 178 189 179 
3 182 188 183 
3 183 188 187 
3 182 203 188 
3 184 204 189 
3 205 206 207 
3 208 209 210 
3 210 209 211 
3 212 210 211 
3 213 212 214 
3 212 211 214 
3 215 216 217 
3 217 216 218 
3 218 216 219 
3 219 216 220 
3 207 209 205 
3 208 205 209 
3 214 207 213 
3 206 213 207 
3 221 222 223 
3 223 222 208 
3 224 222 221 
3 224 225 222 
3 222 225 213 
3 226 215 225 
3 218 227 217 
3 219 227 218 
3 220 224 219 
3 219 224 221 
3 220 226 224 
3 224 226 225 
3 209 207 228 
3 228 207 229 
3 209 228 230 
3 230 228 231 
3 232 231 233 
3 228 234 233 
3 231 228 233 
3 214 232 207 
3 207 232 229 
3 214 230 232 
3 232 230 231 
3 216 226 220 
3 215 226 216 
3 219 221 227 
3 227 221 223 
3 217 227 223 
3 234 232 233 
3 223 208 235 
3 235 208 210 
3 212 235 210 
3 225 235 213 
3 213 235 212 
3 208 222 213 
3 223 225 217 
3 217 225 215 
3 209 230 214 
3 228 229 232 
3 228 232 234 
3 209 214 211 
3 205 208 206 
3 206 208 213 
3 223 235 225 
3 236 237 238 
3 238 237 239 
3 240 241 242 
3 243 242 241 
3 243 241 244 
3 244 241 245 
3 246 247 245 
3 247 244 245 
3 248 249 250 
3 250 249 251 
3 248 252 249 
3 249 252 253 
3 240 242 238 
3 242 236 238 
3 246 239 247 
3 237 247 239 
3 250 244 254 
3 254 244 247 
3 250 251 244 
3 244 251 243 
3 251 255 243 
3 243 255 242 
3 248 250 254 
3 252 256 253 
3 252 248 256 
3 256 248 254 
3 257 258 259 
3 238 239 257 
3 240 238 260 
3 260 238 257 
3 258 261 259 
3 260 257 259 
3 261 260 259 
3 246 258 239 
3 239 258 257 
3 253 256 249 
3 249 256 255 
3 251 249 255 
3 261 240 260 
3 246 261 258 
3 256 262 255 
3 255 262 242 
3 256 254 262 
3 262 254 247 
3 242 247 236 
3 236 247 237 
3 240 246 241 
3 241 246 245 
3 240 261 246 
3 242 262 247 
3 263 264 265 
3 266 267 268 
3 268 267 269 
3 270 268 269 
3 271 270 272 
3 270 269 272 
3 273 274 275 
3 275 274 276 
3 276 274 277 
3 277 274 278 
3 265 267 263 
3 266 263 267 
3 272 265 271 
3 264 271 265 
3 279 280 281 
3 281 280 266 
3 282 280 279 
3 282 283 280 
3 280 283 271 
3 284 273 283 
3 276 285 275 
3 277 285 276 
3 278 282 277 
3 277 282 279 
3 278 284 282 
3 282 284 283 
3 267 265 286 
3 286 265 287 
3 267 286 288 
3 288 286 289 
3 290 289 291 
3 286 292 291 
3 289 286 291 
3 272 290 265 
3 265 290 287 
3 272 288 290 
3 290 288 289 
3 274 284 278 
3 273 284 274 
3 277 279 285 
3 285 279 281 
3 275 285 281 
3 292 290 291 
3 281 266 293 
3 293 266 268 
3 270 293 268 
3 283 293 271 
3 271 293 270 
3 266 280 271 
3 281 283 275 
3 275 283 273 
3 267 288 272 
3 286 287 290 
3 286 290 292 
3 267 272 269 
3 263 266 264 
3 264 266 271 
3 281 293 283 
3 294 295 296 
3 297 298 299 
3 299 298 300 
3 301 299 300 
3 302 301 303 
3 301 300 303 
3 304 305 306 
3 306 305 307 
3 307 305 308 
3 308 305 309 
3 296 298 294 
3 297 294 298 
3 303 296 302 
3 295 302 296 
3 310 311 312 
3 312 311 297 
3 313 311 310 
3 313 314 311 
3 311 314 302 
3 315 304 314 
3 307 316 306 
3 308 316 307 
3 309 313 308 
3 308 313 310 
3 309 315 313 
3 313 315 314 
3 298 296 317 
3 317 296 318 
3 298 317 319 
3 319 317 320 
3 321 320 322 
3 317 323 322 
3 320 317 322 
3 303 321 296 
3 296 321 318 
3 303 319 321 
3 321 319 320 
3 305 315 309 
3 304 315 305 
3 308 310 316 
3 316 310 312 
3 306 316 312 
3 323 321 322 
3 312 297 324 
3 324 297 299 
3 301 324 299 
3 314 324 302 
3 302 324 301 
3 297 311 302 
3 312 314 306 
3 306 314 304 
3 298 319 303 
3 317 318 321 
3 317 321 323 
3 298 303 300 
3 294 297 295 
3 295 297 302 
3 312 324 314 
3 325 326 327 
3 328 329 330 
3 330 329 331 
3 332 330 331 
3 333 332 334 
3 332 331 334 
3 335 336 337 
3 337 336 338 
3 338 336 339 
3 339 336 340 
3 327 329 325 
3 328 325 329 
3 334 327 333 
3 326 333 327 
3 341 342 343 
3 343 342 328 
3 344 342 341 
3 344 345 342 
3 342 345 333 
3 346 335 345 
3 338 347 337 
3 339 347 338 
3 340 344 339 
3 339 344 341 
3 340 346 344 
3 344 346 345 
3 329 327 348 
3 348 327 349 
3 329 348 350 
3 350 348 351 
3 352 351 353 
3 348 354 353 
3 351 348 353 
3 334 352 327 
3 327 352 349 
3 334 350 352 
3 352 350 351 
3 336 346 340 
3 335 346 336 
3 339 341 347 
3 347 341 343 
3 337 347 343 
3 354 352 353 
3 343 328 355 
3 355 328 330 
3 332 355 330 
3 345 355 333 
3 333 355 332 
3 328 342 333 
3 343 345 337 
3 337 345 335 
3 329 350 334 
3 348 349 352 
3 348 352 354 
3 329 334 331 
3 325 328 326 
3 326 328 333 
3 343 355 345 
3 356 357 358 
3 359 360 361 
3 361 360 362 
3 363 361 362 
3 364 363 365 
3 363 362 365 
3 366 367 368 
3 368 367 369 
3 369 367 370 
3 370 367 371 
3 358 360 356 
3 359 356 360 
3 365 358 364 
3 357 364 358 
3 372 373 374 
3 374 373 359 
3 375 373 372 
3 375 376 373 
3 373 376 364 
3 377 366 376 
3 369 378 368 
3 370 378 369 
3 371 375 370 
3 370 375 372 
3 371 377 375 
3 375 377 376 
3 360 358 379 
3 379 358 380 
3 360 379 381 
3 381 379 382 
3 383 382 384 
3 379 385 384 
3 382 379 384 
3 365 383 358 
3 358 383 380 
3 365 381 383 
3 383 381 382 
3 367 377 371 
3 366 377 367 
3 370 372 378 
3 378 372 374 
3 368 378 374 
3 385 383 384 
3 374 359 386 
3 386 359 361 
3 363 386 361 
3 376 386 364 
3 364 386 363 
3 359 373 364 
3 374 376 368 
3 368 376 366 
3 360 381 365 
3 379 380 383 
3 379 383 385 
3 360 365 362 
3 356 359 357 
3 357 359 364 
3 374 386 376 
3 387 388 389 
3 389 388 390 
3 391 392 393 
3 394 393 392 
3 394 392 395 
3 395 392 396 
3 397 398 396 
3 398 395 396 
3 399 400 401 
3 401 400 402 
3 399 403 400 
3 400 403 404 
3 391 393 389 
3 393 387 389 
3 397 390 398 
3 388 398 390 
3 401 395 405 
3 405 395 398 
3 401 402 395 
3 395 402 394 
3 402 406 394 
3 394 406 393 
3 399 401 405 
3 403 407 404 
3 403 399 407 
3 407 399 405 
3 408 409 410 
3 389 390 408 
3 391 389 411 
3 411 389 408 
3 409 412 410 
3 411 408 410 
3 412 411 410 
3 397 409 390 
3 390 409 408 
3 404 407 400 
3 400 407 406 
3 402 400 406 
3 412 391 411 
3 397 412 409 
3 407 413 406 
3 406 413 393 
3 407 405 413 
3 413 405 398 
3 393 398 387 
3 387 398 388 
3 391 397 392 
3 392 397 396 
3 391 412 397 
3 393 413 398 
