ply
format ascii 1.0
comment VCGLIB generated
element vertex 441
property float x
property float y
property float z
property float nx
property float ny
property float nz
element face 806
property list uchar int vertex_indices
end_header
-0.842 0.5845 5.7125 33891.98 247108.8 16987.86 
-1.406 0.1275 6.802 -224530.4 105173.9 32008.86 
0.5335 0.3405 13.2865 -213339.9 107169 74168.26 
1.43 0.477 13.846 28513.38 248357.8 -2324.258 
-0.9935 -0.595 6.9695 -165319.3 -186523.8 19453.56 
0.4365 -0.284 13.0965 -151870.2 -192428.9 49056.94 
-0.198 -0.5845 6.074 109992.8 -224497.4 -1589.033 
1.0205 -0.477 12.893 110171.1 -221713.2 -34721.79 
-0.07300001 0.2335 5.8175 244080.2 54075.93 -822.371 
1.7275 -0.028 13.5885 236555.4 41299.34 -69540.88 
-0.789 0.4445 -4.5675 -148711.2 61783.69 -191227 
0.0595 0.719 -4.5755 11848.48 162117.3 -189941.1 
-0.1985 0 -4.5725 -2326.821 -140.3553 -249989.2 
-0.7955 -0.4445 -4.567 -105662.9 -121924.3 -190970.8 
0.043 -0.719 -4.5745 84805.56 -140604.2 -188516.6 
0.5695 0 -4.58 160754.5 37613.74 -187731.8 
5.53 0.5675 35.252 45087.22 171908.4 175825.7 
4.9855 0.145 35.2775 -144638.4 89296.65 183319.1 
5.5455 -0.019 35.251 11782.3 83.7973 249722.3 
5.2085 -0.504 35.2675 -122617.9 -116375 184178.5 
5.9045 -0.483 35.2345 80143.32 -158985.1 175501.6 
6.1 0.1795 35.225 181532 18127.96 170931.3 
5.5295 0.3745 31.83 -47242.65 99479.86 -224436.9 
5.1685 0.093 31.8725 -116153.2 7290.195 -221258.5 
4.292 0.3025 32.339 -216705.2 41968.29 -117377.8 
5.424 1.182 32.2125 -35084.25 213946.2 -124483.6 
5.3155 -0.339 31.856 -57089.98 -92796.49 -225010.2 
4.7515 -1.0495 32.288 -115457.1 -183554 -124409 
5.7765 -0.325 31.801 67658.53 -68752.8 -230641.3 
6.1955 -1.0055 32.128 134917 -161853.2 -134539.9 
5.9065 0.116 31.7855 73066.09 63295.56 -230553.8 
6.6055 0.3735 32.0795 190671.7 88975.96 -135009.6 
-1.1755 0.6985 1.1515 -247713.1 33371.09 -4962.238 
-1.185 -0.6985 1.1525 -121600 -218313.3 7263.653 
0.132 -1.13 1.14 174150.7 -175869.2 35236.17 
0.9590001 0 1.1315 216706 116553.5 44201.73 
0.158 1.13 1.139 -41748.1 245964.7 16078.07 
3.87 0.491 20.95 14083.47 249471.6 -8099.209 
4.403 0.182 20.5235 235398.9 50035.79 -67703.79 
4.1245 -0.316 20.137 130259.2 -210857.9 -32734.22 
3.819 -0.499 20.761 -134303.6 -205592.9 46841.7 
3.5165 0.07 21.0885 -227203.1 81012.08 65695.01 
5.45 0.406 27.987 26028.96 248616.1 -3546.434 
5.742 0 27.9355 244086.4 45647.79 -28950.42 
5.374 -0.406 27.1055 127598.8 -214653.1 -11941.98 
4.9015 -0.251 27.1915 -152633.5 -196649.6 23064.8 
4.978 0.251 28.071 -228982.6 95867.76 29603.6 
5.5295 0.3745 31.83 92930.48 232073.3 -2430.933 
5.9065 0.116 31.7855 248420.5 -25154.87 -12431.01 
5.7765 -0.325 31.801 58636.37 -243014.5 -2393.829 
5.3155 -0.339 31.856 -211574.6 -132489.5 13518.61 
5.1685 0.093 31.8725 -191394.4 160251.6 13697.77 
-1.1755 0.6985 1.1515 -108920.1 133187.6 181376.7 
0.158 1.13 1.139 100091.8 152269 171160.2 
0.42 2.222 0.014 84776.04 226065.5 64864.78 
-2.2025 1.3735 0.0395 -188708 149351.9 67700.28 
-1.185 -0.6985 1.1525 -155519.1 -65170.15 184571.6 
-2.221 -1.3735 0.041 -198961.7 -136510.7 65414.83 
0.132 -1.13 1.14 17553.33 -176973.7 175704.9 
0.3685 -2.222 0.0165 71356.87 -232039.3 59716.04 
0.9590001 0 1.1315 181419.3 -44802.4 166071.8 
1.995 0 0 242638.4 -7747.419 59720.98 
10.0845 -3.2765 38.857 -219469.2 -111938 42464.12 
10.2435 -3.3415 38.2075 -95058.11 -216153.2 -82108.37 
13.367 -3.7185 39.6655 -66561.23 -149953.7 188635.9 
13.333 -3.7815 39.0585 -13444.39 -122869.9 -217306.8 
12.6495 -2.0845 39.8555 -6624.375 63889.62 241607.7 
14.739 -1.061 39.4485 173490 79182.54 161652 
9.7615 -1.3375 38.3235 -95228.75 35275.4 228445.1 
12.58 -0.15 38.9555 -29342 197940.8 149861.7 
12.6755 -0.2115 38.3435 119199.8 164772.7 -145400.8 
14.404 -1.16 38.7675 146796 -61752.45 -192711.1 
12.7535 -2.205 39.1315 86479.65 -82224.15 -219682.7 
10.2075 -1.6945 37.46 56799.52 -79170.61 -230230 
5.5725 -0.406 34.5505 32200.76 -41503.63 -244418.9 
5.5765 -0.342 35.0205 -204514.6 75807.18 122176.5 
8.2585 0.693 35.341 10496.44 226129.2 -106091.7 
8.939 0.1965 36.6595 -58716.99 214226.6 114714 
7.2265 -2.422 35.877 -25198.14 -200038.7 -147816.2 
6.802 -2.693 36.4195 -92252.43 -232353.1 -1243.297 
8.1255 -1.0875 36.0985 103755.4 -96197.2 -206109 
7.709 -0.82 36.8935 -144588 52615.58 197042.9 
8.22 -2.337 36.815 1857.991 -245983.5 -44594.49 
14.974 -5.108 39 -74282.6 -238699 2211.438 
14.715 -2.943 38.92 -40558.03 -13967.63 -246292.5 
17.843 -4.081 38.215 212996.4 -50105.13 -120921.6 
14.875 -2.8705 39.625 71242.4 9717.322 239437.1 
16.0335 -1.6875 38.543 28360.57 237016.7 -74288.58 
9.944 -3.4215 38.119 76644.61 -231619.6 54570.86 
13.5255 0.2765 34.0555 37788.72 -210358.2 129697.6 
13.381 0.368 33.6345 -74124.66 -226906.6 -74289.59 
15.8165 1.1635 32.5135 25553.81 -226338.1 -103044.1 
11.3345 1.486 34.3185 5258.01 -12660.73 249623.9 
14.881 2.3855 34.034 100081.1 37677.64 225973.9 
12.0965 2.8135 33.9895 -24503.33 162208.9 188647.5 
14.225 4.0855 33.119 73202.54 232802.6 -54261.83 
11.9415 2.893 33.556 -71965.92 123685.4 -204994.8 
11.2185 1.457 33.84 -34537.56 -18059.92 -246943.4 
14.4715 2.3645 33.304 -107073 10076.45 -225685.3 
8.9945 2.6235 33.5315 -3007.444 46884.25 -245546 
5.2505 -0.0055 34.868 -231347.9 -13870.23 -93732.65 
9.2245 2.748 34.0895 88489 163337.3 167304.1 
5.5815 0.0625 35.3515 -33284.65 16760.02 247206.9 
8.5995 -1.2235 34.7445 65043.77 -206004.5 125823.2 
8.2935 -1.272 33.813 -27126.81 -172074.1 -179317.2 
9.735001 -0.3795 34.1595 87022.36 -177464 153080.5 
12.9105 0.1485 33.6755 215350.2 -67830.15 -107347.1 
8.7965 0.8775 34.927 37989.55 8748.033 246941.9 
9.588 -0.246 33.606 51851.4 -113344.4 -216713 
8.6065 0.8345 34.0555 39156.3 17575.4 -246288.3 
7.0075 0.392 34.094 -53489.02 2937.333 -244193.2 
7.209 0.459 34.884 41731.12 21367.5 245564.6 
16.793 2.848 32.152 210270.5 48232.53 126332.7 
17.434 1.0935 30.7795 114275.9 -10751.65 -222093.3 
15.0605 4.376 32.826 -146447.5 200305.1 30512.76 
16.3205 3.777 30.97 -41497.8 231265.9 -85405.09 
15.8495 2.585 31.4955 -196892.5 -43336.79 -147835.4 
17.8535 3.1605 28.009 16123.5 143399.6 -204148.5 
17.127 1.342 30.4735 -6599.53 -239005.2 73027.41 
10.017 2.716 33.889 -107484.2 224537.1 23027.86 
10.953 3.6865 35.3275 64304.29 -239712.2 30050.97 
10.6075 3.8285 34.668 110635.9 -188195.6 -121828.3 
12.3165 6.736 34.334 200767.5 -74678.09 128901.7 
12.209 6.444 33.8555 16963.71 -105724.5 -225908.3 
10.999 6.7285 35.352 67254.91 74000.04 229130.5 
10.4135 8.669 34.744 65006.17 229372 75251.05 
8.964001 4.125 36.0065 71598.64 -9407.897 239343.2 
9.0035 7.274 35.5705 -104780.7 99220.85 204147.6 
8.7425 7.2245 35.0425 -173158.4 150021 -100049.5 
10.1835 8.346499 34.4685 -46011.5 78522.29 -232845.9 
10.6815 6.7155 34.4345 -13768.68 16197.1 -249094.6 
8.882 4.2365 34.6705 -38945.71 -36263.63 -244270.8 
5.309 0.172 34.757 -79116.91 -45827.09 -232681 
5.1975 -0.0765 35.2665 -30856.65 -158173.5 191125.7 
5.16 3.1065 34.629 -236027.5 59023.2 -57509.11 
6.641 3.6955 35.1735 -120344.1 64180.35 209519 
7.945 0.9065 34.161 103468.2 -180530.3 -138575.5 
8.0035 0.902 34.567 159146.8 -176587.6 77389.48 
7.1565 2.3555 34.4655 2507.939 -1868.739 -249980.5 
7.2535 2.2535 35.593 11674.28 -56741.76 243195.6 
8.6295 2.0295 34.6545 190457.2 -155044.5 -46768.29 
13.5425 7.446 32.759 197326.7 -150795.3 -28687.26 
11.8835 8.1265 33.776 -108452.2 -83557.53 -209180 
13.215 10.3595 31.114 -27713.73 108823.7 -223359.3 
12.246 8.484 34.346 130214.9 105056.5 185761.2 
11.075 9.460501 33.315 -221698.4 115521.2 2169.341 
10.4745 3.443 34.6515 234214.6 -38836.17 -78328.16 
2.395 -6.707 37.5005 -203472.6 98107.25 107116.2 
2.3815 -6.778 37.0125 -187479.7 108565.6 -124759.4 
2.25 -9.549001 37.644 -215082.4 -39516.35 -121153 
4.2795 -5.092 37.457 -66346.28 134138.6 200262.4 
3.517 -8.371 38.867 -62295.07 22806.76 241037.8 
5.33 -6.327 38.0305 159162.3 31905.49 190130 
5.056 -8.809501 38.704 157637.5 -193564.7 -13533.66 
5.2335 -6.4355 37.5425 149826.6 -133357.5 -149223.9 
4.475 -5.514 36.565 40417.83 -131230.9 -208913.5 
3.7445 -8.426499 38.2095 115785.7 -60518.16 -213146.1 
6.5825 -4.278 35.9815 115028.8 -113433.8 -190790.9 
5.6875 -0.014 34.69 102903.1 110698.6 -199140.1 
6.442 -4.089 36.55 86034.08 -22442.43 233654.7 
5.632 0.0975 34.9525 4624.757 175875 177613.7 
3.2465 -2.0515 35.327 -227445.6 94991.34 41775.29 
3.488 -2.31 34.499 -91882.17 -5911.203 -232427.9 
3.462 -3.483 35.7035 -209047.1 95878.8 98013.2 
2.3615 -5.6485 36.881 -214504.9 -128403.1 -553.1929 
4.911 -2.7405 36.3745 -44049.02 129053.1 209535.2 
3.6965 -3.8265 35.053 -117058.2 -90245.63 -201626.2 
5.202 -3.265 35.263 29722.87 -155997 -193084.3 
5.4055 -1.594 34.9745 73810.46 -55906.71 -232220.8 
5.303 -1.43 35.4535 -34727.61 104245.4 224559.4 
3.405 -10.8915 38.1305 -83440.78 -105016.8 210971.9 
1.8005 -11.636 37.002 33168 -227859.7 -97364.55 
5.389 -9.8055 38.798 221089 106296.1 48174.77 
4.9595 -11.768 37.585 231560 -94187.81 2943.256 
3.5805 -10.6385 37.4855 64871.27 83447.02 -226557.6 
3.6485 -13.8555 35.912 33551.82 -206661 -136621.8 
2.2275 -11.7715 36.6955 -210672 133444.2 -17606.62 
6.4545 -4.839 36.771 248596.8 -25320.88 7650.469 
1.9125 4.9435 37.105 230631 43478.74 86133.53 
1.9525 4.954 36.5445 195612.3 136094.5 -75592.14 
-0.8715 6.824 37.1465 84703.98 159048.4 173288.4 
-0.707 6.7505 36.555 110049.1 78268.8 -210388.3 
-0.991 5.096 37.8745 -87971.83 7703.815 233883.8 
-2.7975 4.795 36.7425 -234476.9 46791.6 73014.79 
1.611 2.933 37.2325 47041.55 -16293.04 244993.2 
-1.6965 3.0265 37.207 -91116.1 -160001.6 169107.6 
-1.565 3.0955 36.349 -155174.5 -90149.91 -174051.4 
-2.598 4.7095 36.452 -80896.82 46413.42 -231951.6 
-0.965 5.155 36.5175 -6355.879 53688.66 -244084.3 
1.5005 3.1255 36.3895 38363.66 64254.73 -238536.3 
5.6805 -0.3265 34.2075 15725.71 -2302.601 -249494.3 
5.486 -0.253 34.9105 121823.1 -110814.6 188093.8 
2.5605 0.0575 34.682 -98928.97 -205253.2 -102879.7 
1.889 0.859 35.8615 -51752.81 -189246 154943.9 
4.7705 2.651 34.918 162139.6 153802.2 -112052 
5.0505 2.6705 35.6515 184551.3 149158.5 78692.94 
3.2665 1.7365 35.136 -23856.52 105368.5 -225451.5 
3.3385 1.5435 35.814 80691.74 -65671.43 227323.9 
3.636 3.0485 35.76 95948.8 230854.5 253.6773 
-1.7345 8.2475 36.0485 144459.7 203912.8 -7138.9 
-2.243 6.4975 36.115 82213.72 -30663.92 -234095.4 
-4.5995 8.7655 34.5115 -143399.5 129055.9 -159000.6 
-2.498 6.6205 36.699 -112526.6 76608.4 209687.7 
-3.8255 5.904 35.685 -148548 -191533.8 -61223.75 
2.744 4.6605 36.4925 12344.75 249054.8 17870.79 
-1.0215 -2.303 35.679 -4606.941 245403.3 47497.43 
-0.855 -2.4075 35.182 -49585.55 191714.7 -152600 
-3.448 -4.5925 35.1 -170533.6 137905.3 120001.9 
-3.092 -4.655 34.664 24353.42 130345.7 -211936.2 
-1.9135 -5.1035 35.951 -56493.31 -84656.23 228345.9 
-1.893 -7.147 35.0925 -102042 -197571.6 114249.3 
0.785 -3.0805 36.219 -32720.19 17168.4 247254.2 
-0.072 -6.0585 35.73 78839.65 -117918.6 205862.9 
0.182 -6.1125 35.203 118219 -188855.6 -113392.5 
-1.5895 -6.8915 34.6545 -16233.77 -57337.61 -242793.9 
-1.6855 -5.057 35.0705 11046.06 19818.38 -248968.3 
0.7735 -3.1345 35.249 14491.06 40820.16 -246218.9 
5.44 0.1435 34.5155 58214.99 38384.39 -240078.5 
5.338 0.113 35.2125 77049.52 123966 202967.5 
4.5905 -2.9425 34.523 204932.4 -132620.3 -53986.88 
3.146 -3.239 35.468 115931.6 -96801.78 199221.7 
2.4105 -0.167 34.51 -83003.56 190314.4 -139251.1 
2.337 -0.07 34.8435 -121890.3 213303.1 46309.42 
2.8225 -1.7105 34.698 -37454.07 6933.379 -247081.3 
2.8505 -1.6485 35.7015 10741.88 61441.41 242094.2 
1.584 -1.1735 34.9735 -157814 182203.8 -66306.59 
-4.727 -5.0645 33.476 -110448.4 211101.8 -75744.46 
-2.9685 -5.968 33.845 125146.7 85691.98 -198734 
-5.2825 -7.8455 31.754 -71318.13 -151564.4 -185585.5 
-3.5315 -6.3765 34.7615 -136781.5 -98975.43 184376.6 
-2.8445 -7.5555 33.72 178686.3 -174825.1 -2727.095 
-0.7695 -1.9435 35.0885 -228844.6 76873.08 -64966.79 
8.938 -7.0925 33.7715 -89369.63 -124097.8 197769.7 
8.527 -7.042 33.356 -243630.6 -40262.39 39027.12 
10.2515 -9.068501 32.186 -174894 -155531 -87876.28 
9.281 -4.769 34.4995 -7314.117 -31647.72 247880.9 
11.1675 -7.6545 33.4995 78646.19 -106465.9 212084.4 
10.929 -4.918 33.997 171676.2 55146.54 173165.1 
12.5285 -6.6005 32.72 227046.3 -40417.77 -96521.51 
10.884 -4.69 33.131 83140.46 94846.4 -215851.5 
9.1425 -4.59 33.5255 -41311.79 35712.23 -243963.1 
11.0545 -7.387 33.072 -28088.45 89538.62 -231719.4 
9.519 -2.113 33.5305 5403.831 32150.94 -247865.2 
6.098 0.1825 35.224 -96118.12 209551.2 -96693.41 
9.5815 -2.2445 34.0085 205359.3 -35632.83 138050.3 
6.136 0.145 35.499 -10744.35 84978.93 234868.4 
6.0735 -2.8325 34.6455 -168914.7 -118553 141113.6 
5.6435 -2.734 33.977 -202590.4 -15598.4 -145649.8 
6.988 -3.803 34.2035 -103677.2 -138047.2 180815 
8.143001 -6.535 33.508 -56059.86 -240026.3 -41769.41 
7.8245 -2.4765 34.655 35360.48 -53020.59 241740.5 
6.9155 -3.667 33.4595 -136717.9 -71130.23 -196847 
7.7485 -2.347 34.108 6354.911 2752.604 -249904.1 
6.8895 -1.066 34.6155 -34074.28 83396.34 -233203.8 
7.035 -1.2345 35.2715 44042.59 -56583.97 239496.4 
12.0985 -9.178499 31.6295 112660.7 -190151.7 116832.9 
10.8145 -10.258 30.604 111534.3 -47407.56 -218661 
13.224 -7.17 32.45 94291.08 218843.8 75608.16 
13.1035 -8.403999 30.433 183786.2 132874.1 -105200.4 
11.8655 -8.8355 31.403 -120417.6 168804 -139659.7 
12.575 -10.0525 27.7635 35151.35 11950.82 -247227.8 
10.982 -10.008 30.1325 -213987.7 -53121.26 117845 
10.218 -2.7925 33.744 146297.7 202208.2 14452.4 
1.2005 2.396 38.873 193330 158380.3 6262.404 
0.952 2.315 38.1725 51200.45 208644 -127852.3 
-2.0775 2.381 39.966 49079.93 183368.2 162687.7 
-2.1165 2.366 39.0665 -11694.42 98116.66 -229644 
-1.069 0.799 40.1805 40670.19 -55401.35 240367.7 
-2.934 -0.623 39.9455 -158980.7 -84595.47 173403.5 
1.869 0.442 38.5425 116992.3 10914 220666.5 
-0.6575 -1.331 39.579 70196.74 -187777.8 149371.9 
-0.747 -0.9775 38.9585 -102454.4 -165138.5 -157265.3 
-2.858 -0.589 39.149 -144623.5 -25682.12 -202298 
-1.3545 0.805 39.207 -94086.59 32335.55 -229351.6 
1.5565 0.484 37.9785 -68301.54 28903.77 -238745.7 
6.018 -0.107 34.283 -81554.74 -10261.18 -236100.8 
5.9795 -0.1135 34.9885 218366.6 -15497.49 120730.7 
3.5325 -1.489 35.644 -12147.5 -223333 -111690.8 
2.982 -1.25 37.126 97873.11 -200960.2 111963.8 
3.957 1.718 35.7405 -7469.376 193748 -157816.2 
4.2915 2.0165 36.179 69664.28 239240.6 -20269.63 
3.465 0.225 36.328 -150609.2 43844.43 -194665.3 
3.7615 0.1795 36.8255 159892 14308.12 191650.3 
3.057 1.694 36.7505 -106826.8 221720.3 -43911.05 
-3.9785 3.188 39.1455 -9952.219 246853.6 -38265.87 
-3.2975 1.1635 39.0225 17215.39 -6612.928 -249318.9 
-6.5755 1.598 38.682 -223085.5 -7994.315 -112556.6 
-3.477 1.108 40.274 -58510.18 -970.2371 243054.8 
-4.3675 -0.289 39.1105 -2004.379 -243528.5 -56479.11 
1.3455 2.183 38.0085 -195829.1 141108.5 65110.43 
8.391001 4.456 38.488 142889 -90881.7 183911.1 
8.727 4.319 37.9765 177102.1 -174611.2 -25412.93 
9.0545 7.205 38.0275 229010.4 3310.836 -100216.3 
6.466 3.154 38.183 18022.51 -146850.9 201519.3 
7.396 6.3675 39.54 33600.19 10463.85 247510.7 
5.384 4.393 38.813 -170540.6 -19398.27 181768.1 
5.657 7.1915 38.8315 -146349 199096.2 -37982.92 
5.5045 4.6 38.0005 -107621.3 101702.1 -201430.8 
6.4505 3.2755 37.819 -3059.335 102883.3 -227828.2 
7.151 6.357 38.4405 -57549.5 31759.18 -241204.1 
4.5025 2.669 36.597 -12419.52 205114.5 -142386.1 
5.16 -0.2985 33.927 -10384.59 43422.96 -245981 
4.3595 2.611 37.242 -171445.1 26562.44 180002.9 
5.035 -0.8905 34.48 -97813.05 -225387.9 46183.59 
7.485 0.456 36.1395 210555.1 -131145.8 -31102.42 
7.204 0.8375 35.76 147832 55240.73 -193892.3 
7.5115 1.4595 36.8805 145831.5 -130107.8 155901.1 
8.4405 4.031 38.0755 121510.6 210061.2 60079.21 
5.8305 1.2525 36.767 -15101.15 -133687.7 210712.1 
7.3875 1.9755 36.176 160352.2 81455.91 -173643.7 
5.858 1.8525 36.0715 20583.49 202702.4 -144872.7 
5.6555 0.8855 35.179 46846.82 149853.1 -194549.3 
5.4355 0.1335 35.943 -37831.13 -162822.7 185896.8 
7.9205 8.7965 38.2495 60293.63 140446 197837.4 
9.573999 9.004499 37.2015 -23953.04 200647.4 -147196.8 
6.0505 7.873 38.6215 -246734.8 -37111 15643.84 
6.4785 9.6 37.158 -230174.6 71846.08 -66013.83 
7.8005 8.5005 37.7965 -46897.93 -111249.6 -218915.8 
8.285 11.2175 35.408 -23569.62 137793.6 -207261.7 
9.565499 9.13 36.6725 168793.8 -175820.3 55640.88 
4.287 3.1565 37.3375 -242658.2 7517.228 -59669.94 
5.7305 -5.159 39.2815 -220666.6 -12832.6 116797.2 
5.902 -5.2235 38.785 -211801.4 18786.43 -131481 
6.9355 -7.8205 38.675 -204106.5 -92715.77 -110654.1 
6.797 -2.915 38.9015 -70097.43 131549 200701.9 
7.938499 -6.193 39.819 11648.88 -16249.46 249199.3 
8.3695 -3.611 38.945 156050.9 107367.8 163157.3 
9.629 -6.2345 39.1365 223127 -110949.1 -20116.42 
8.4825 -3.7765 38.283 139172.7 -26032.23 -206042 
6.936 -3.204 38.186 23588.92 -98831.91 -228420.3 
8.006 -6.1125 39.0125 27352.06 5879.35 -248429.7 
8.014 -1.592 36.8785 120729.8 -183119.1 -119965.6 
5.7495 0.3155 34.511 11768.83 24081.34 -248559.1 
7.945 -1.473 37.12 166508.8 105881.6 153505.5 
5.6605 0.619 34.8865 -13083.22 246828.2 37479.1 
4.253 -1.3885 36.7775 -249656.8 4106.288 12436.1 
4.6525 -1.708 36.164 -106034.3 -159763.8 -160412.8 
5.027 -2.255 37.3975 -196538.3 28241.87 151904.9 
5.7665 -4.6245 38.589 -54892 -243468.9 -14483.4 
6.2495 -1.111 37.24 -38085.94 150683.8 195815.9 
5.4005 -2.413 36.9085 -68750.63 -194160.9 -141686.1 
6.4315 -1.588 36.6025 76642.37 -197334 -132986 
6.0815 -0.874 35.54 46896.88 -173303.2 -173973.3 
5.9515 -0.221 36.1805 -19627.86 186334.8 165511.7 
8.712 -8.635 38.816 36161.04 -140624.4 203512.1 
7.2895 -9.7775 37.836 43727.52 -192067 -153942.1 
9.935 -6.7355 38.9665 177629.3 175891.7 3160.091 
10.1145 -8.5675 37.5675 235255 40394.23 -74319.58 
8.5185 -8.1405 37.9755 -45066.46 113910.7 -217929.8 
9.523 -11.136 35.756 74784.1 -135247 -196508.6 
7.6155 -9.7345 37.383 -246103.5 9313.36 42969.45 
8.2545 -2.12 37.6675 207557.3 127573 -56081.5 
2.0105 -2.3345 30.8475 -239427.2 2861.475 71877.95 
2.1995 -2.0175 30.952 -100015.6 228880.2 10524.7 
1.99 -3.4205 28.9435 -88385.38 168396.5 -162267.3 
3.499 -2.8885 33.0835 -164485.2 -65433.97 176530.6 
2.9745 -4.205 31.0575 -181742 -138336.7 101650.4 
4.507 -4.149 32.712 -16012.66 -192731.7 158423.8 
4.514 -5.5585 31.6425 122953.4 -213517.3 -42341.98 
4.7605 -3.9675 32.376 225459.8 -47574.22 -96977.35 
4.2255 -2.488 32.128 165874.2 81541.55 -168335.3 
3.5185 -3.91 30.619 205136.5 71461.24 -123743.1 
5.9215 -2.9975 33.6075 210605 4619.75 -134626.2 
5.625 0.072 35.12 179775 160163.2 67295.65 
5.779 -3.313 33.7715 -29896.69 -224256.8 106372.4 
5.149 -0.287 35.413 -75945.92 -31511.78 236091.6 
2.928 0.1325 33.5265 -216731.9 115400.7 47010.58 
3.5315 0.2605 33.141 39276.77 212695.3 -125371.8 
3.157 -0.7965 32.93 -239788.9 -5291.263 70521.86 
2.2005 -1.886 31.134 -178584.5 45927.43 -168814.4 
4.36 -1.7115 33.9015 -152761.6 -73273.32 183834 
3.6405 -0.5985 32.3835 -5246.029 150086.5 -199866.3 
4.9965 -1.381 33.2045 137322.3 42489.54 -204541.6 
5.3105 -0.673 33.915 172566.3 110752.9 -143019.9 
4.721 -1.0595 34.5215 -151887.3 -106630.1 167512.2 
2.885 -4.885 29.054 -176320.7 -177231.6 -45.77545 
1.6775 -3.257 26.55 122930.1 -114424.9 -185189.5 
4.5765 -5.8695 31.056 183860.6 2024.413 169384.8 
4.6065 -5.704 28.719 210339.8 -128913.7 -40478.12 
3.174 -4.59 29.041 175412.2 175847.9 -28427.66 
3.932 -4.7645 25.286 128967.6 -17043.43 -213487.5 
2.3455 -3.589 26.948 -158375.7 167421.8 96886.98 
5.837 -3.6145 33.4925 199020.6 -119773.5 92439.84 
9.13 2.4295 31.4275 242848.9 27616.81 52552.52 
8.991 1.7925 31.3495 117610.9 -199200.1 94799.8 
8.707 2.7225 28.738 122709.5 -202144.4 -81117.59 
7.9 3.256 32.9185 140044.7 125995 164355.6 
8.5185 4.0695 30.1545 180832.6 170885.4 24449.36 
7.0395 4.0795 31.982 -30224.89 240280.2 62063.65 
6.853 4.864 29.0495 -160221.4 138510.2 -132830.9 
6.744 3.749 31.742 -236380.6 -7136.922 -81075.97 
7.171 2.558 32.1735 -167888.2 -156140.9 -99667.34 
7.6435 3.3675 29.8605 -191303.7 -152699 -50852.2 
5.6985 3.02 33.2755 -101891.1 -18386.25 -227552.6 
5.3355 0.5549999 34.79 -202156 -141932.1 38577.79 
5.8115 3.2895 33.3495 -70879.84 235352.4 45665.61 
5.532 0.7745 35.2075 -47461.04 -8157.485 245318 
7.5705 0.7825 33.992 180398.5 -104720.1 137804.6 
7.481 0.2465 33.7075 57356.93 -236764.6 -56149.02 
7.98 1.3895 33.5015 214713.9 -14658.87 127212.7 
9.0885 2.085 31.3915 207931.3 -70959.84 -119286.6 
6.86 2.205 34.0355 126548.1 127735.7 173692.8 
7.547 0.9215 32.8755 71679.7 -156017.5 -181715.7 
6.645 1.9625 33.744 -86429.73 -58174.69 -227256.8 
5.944 1.1375 33.815 -105663.4 -87994.76 -208787.5 
6.347 1.6655 34.7915 97830.72 99137.22 207607.8 
8.2225 3.7575 27.152 173238.4 163614.9 -75621.75 
8.799 2.0045 26.195 -151056.3 -71556.88 -185907.6 
6.636 4.9545 28.932 -193549.7 115461.6 108199.7 
6.4105 3.8945 26.2955 -225200.6 97832.28 -47048.62 
7.792 3.3175 27.5115 -165700.7 -181834.1 44493.57 
6.764 2.2805 23.2465 -156126.3 -97787.49 -169003.5 
8.577499 1.741 26.0395 194763.4 -107165.6 114380 
5.854 3.622 32.969 -221125.6 103085.2 54561.46 
6.5915 -2.8005 31.7555 -49341.02 -166133.5 180180.9 
6.0825 -2.466 31.6875 -207108.2 -126857.9 59273.02 
7.1455 -2.604 28.9055 70301.59 -238883.2 -22193.61 
6.338 -2.1165 29.0755 -243451.2 56016.71 -9679.096 
7.963 -1.4575 30.105 231424.3 -94355.98 -6307.279 
8.874 0.0955 28.7765 205400 -55441.39 -131290.2 
7.523 -1.275 32.4875 191061.9 -144733.5 71046.46 
8.833 0.213 30.891 236891.2 -28169.88 74759.9 
8.563 0.7775 30.8525 39460.51 245781.8 -23112.56 
8.297 0.4575 28.854 -149179.1 156913.8 -124994.6 
7.414 -0.9375 29.888 -202255.6 116835 -89119.49 
6.9625 -0.9135 32.154 -216138.2 125345.6 -8533.299 
5.6155 -0.112 35.367 -188783.8 162293.5 -22836.5 
5.9995 -0.3855 35.6195 90820.2 -76680.34 219936 
7.0015 0.936 33.983 -10245.16 239071.8 72385.85 
7.704 0.3395 33.553 218010.4 10460.95 121910 
4.989 -1.6975 33.793 -247765.4 -33348.52 -456.1757 
5.292 -2.3335 34.048 -108932.4 -221845.6 37660.23 
6.431 -0.5779999 33.6835 -192688.6 116588.8 -108527.4 
6.6865 -0.7615 33.7985 165356 -148171.7 114902.5 
5.7865 -1.9015 33.1545 -62591.07 -120832.5 -209718.6 
6.022 -2.2715 26.92 -149637.6 -184949.4 -76826.73 
7.4015 -1.003 28.081 -204048.1 140259.4 34521.22 
6.3285 -0.113 24.052 -94036 144484.5 -181056.6 
7.792 -1.2385 27.8575 209933 -110744.1 -78510.67 
7.9605 0.4975 27.436 105393.6 217714.9 63185.67 
6.1845 -2.378 31.9205 -30833.96 -149358.8 -198094 
3 0 1 2 
3 0 2 3 
3 1 4 5 
3 1 5 2 
3 4 6 7 
3 4 7 5 
3 6 8 9 
3 6 9 7 
3 8 0 3 
3 8 3 9 
3 10 11 12 
3 13 10 12 
3 14 13 12 
3 15 14 12 
3 11 15 12 
3 16 17 18 
3 17 19 18 
3 19 20 18 
3 20 21 18 
3 21 16 18 
3 22 23 24 
3 22 24 25 
3 23 26 27 
3 23 27 24 
3 26 28 29 
3 26 29 27 
3 28 30 31 
3 28 31 29 
3 30 22 25 
3 30 25 31 
3 25 24 17 
3 25 17 16 
3 24 27 19 
3 24 19 17 
3 27 29 20 
3 27 20 19 
3 29 31 21 
3 29 21 20 
3 31 25 16 
3 31 16 21 
3 32 33 4 
3 32 4 1 
3 33 34 6 
3 33 6 4 
3 34 35 8 
3 34 8 6 
3 35 36 0 
3 35 0 8 
3 36 32 1 
3 36 1 0 
3 9 3 37 
3 9 37 38 
3 7 9 38 
3 7 38 39 
3 5 7 39 
3 5 39 40 
3 2 5 40 
3 2 40 41 
3 3 2 41 
3 3 41 37 
3 38 37 42 
3 38 42 43 
3 39 38 43 
3 39 43 44 
3 40 39 44 
3 40 44 45 
3 41 40 45 
3 41 45 46 
3 37 41 46 
3 37 46 42 
3 43 42 47 
3 43 47 48 
3 44 43 48 
3 44 48 49 
3 45 44 49 
3 45 49 50 
3 46 45 50 
3 46 50 51 
3 42 46 51 
3 42 51 47 
3 52 53 54 
3 52 54 55 
3 56 52 55 
3 56 55 57 
3 58 56 57 
3 58 57 59 
3 60 58 59 
3 60 59 61 
3 53 60 61 
3 53 61 54 
3 55 54 11 
3 55 11 10 
3 57 55 10 
3 57 10 13 
3 59 57 13 
3 59 13 14 
3 61 59 14 
3 61 14 15 
3 54 61 15 
3 54 15 11 
3 62 63 64 
3 64 63 65 
3 66 67 68 
3 69 68 67 
3 69 67 70 
3 70 67 71 
3 72 73 71 
3 73 70 71 
3 74 75 76 
3 76 75 77 
3 74 78 75 
3 75 78 79 
3 66 68 64 
3 68 62 64 
3 72 65 73 
3 63 73 65 
3 76 70 80 
3 80 70 73 
3 76 77 70 
3 70 77 69 
3 77 81 69 
3 69 81 68 
3 74 76 80 
3 78 82 79 
3 78 74 82 
3 82 74 80 
3 83 84 85 
3 64 65 83 
3 66 64 86 
3 86 64 83 
3 84 87 85 
3 86 83 85 
3 87 86 85 
3 72 84 65 
3 65 84 83 
3 79 82 75 
3 75 82 81 
3 77 75 81 
3 87 66 86 
3 72 87 84 
3 82 88 81 
3 81 88 68 
3 82 80 88 
3 88 80 73 
3 68 73 62 
3 62 73 63 
3 66 72 67 
3 67 72 71 
3 66 87 72 
3 68 88 73 
3 89 90 91 
3 92 93 94 
3 94 93 95 
3 96 94 95 
3 97 96 98 
3 96 95 98 
3 99 100 101 
3 101 100 102 
3 102 100 103 
3 103 100 104 
3 91 93 89 
3 92 89 93 
3 98 91 97 
3 90 97 91 
3 105 106 107 
3 107 106 92 
3 108 106 105 
3 108 109 106 
3 106 109 97 
3 110 99 109 
3 102 111 101 
3 103 111 102 
3 104 108 103 
3 103 108 105 
3 104 110 108 
3 108 110 109 
3 93 91 112 
3 112 91 113 
3 93 112 114 
3 114 112 115 
3 116 115 117 
3 112 118 117 
3 115 112 117 
3 98 116 91 
3 91 116 113 
3 98 114 116 
3 116 114 115 
3 100 110 104 
3 99 110 100 
3 103 105 111 
3 111 105 107 
3 101 111 107 
3 118 116 117 
3 107 92 119 
3 119 92 94 
3 96 119 94 
3 109 119 97 
3 97 119 96 
3 92 106 97 
3 107 109 101 
3 101 109 99 
3 93 114 98 
3 112 113 116 
3 112 116 118 
3 93 98 95 
3 89 92 90 
3 90 92 97 
3 107 119 109 
3 120 121 122 
3 122 121 123 
3 124 125 126 
3 127 126 125 
3 127 125 128 
3 128 125 129 
3 130 131 129 
3 131 128 129 
3 132 133 134 
3 134 133 135 
3 132 136 133 
3 133 136 137 
3 124 126 122 
3 126 120 122 
3 130 123 131 
3 121 131 123 
3 134 128 138 
3 138 128 131 
3 134 135 128 
3 128 135 127 
3 135 139 127 
3 127 139 126 
3 132 134 138 
3 136 140 137 
3 136 132 140 
3 140 132 138 
3 141 142 143 
3 122 123 141 
3 124 122 144 
3 144 122 141 
3 142 145 143 
3 144 141 143 
3 145 144 143 
3 130 142 123 
3 123 142 141 
3 137 140 133 
3 133 140 139 
3 135 133 139 
3 145 124 144 
3 130 145 142 
3 140 146 139 
3 139 146 126 
3 140 138 146 
3 146 138 131 
3 126 131 120 
3 120 131 121 
3 124 130 125 
3 125 130 129 
3 124 145 130 
3 126 146 131 
3 147 148 149 
3 150 151 152 
3 152 151 153 
3 154 152 153 
3 155 154 156 
3 154 153 156 
3 157 158 159 
3 159 158 160 
3 160 158 161 
3 161 158 162 
3 149 151 147 
3 150 147 151 
3 156 149 155 
3 148 155 149 
3 163 164 165 
3 165 164 150 
3 166 164 163 
3 166 167 164 
3 164 167 155 
3 168 157 167 
3 160 169 159 
3 161 169 160 
3 162 166 161 
3 161 166 163 
3 162 168 166 
3 166 168 167 
3 151 149 170 
3 170 149 171 
3 151 170 172 
3 172 170 173 
3 174 173 175 
3 170 176 175 
3 173 170 175 
3 156 174 149 
3 149 174 171 
3 156 172 174 
3 174 172 173 
3 158 168 162 
3 157 168 158 
3 161 163 169 
3 169 163 165 
3 159 169 165 
3 176 174 175 
3 165 150 177 
3 177 150 152 
3 154 177 152 
3 167 177 155 
3 155 177 154 
3 150 164 155 
3 165 167 159 
3 159 167 157 
3 151 172 156 
3 170 171 174 
3 170 174 176 
3 151 156 153 
3 147 150 148 
3 148 150 155 
3 165 177 167 
3 178 179 180 
3 180 179 181 
3 182 183 184 
3 185 184 183 
3 185 183 186 
3 186 183 187 
3 188 189 187 
3 189 186 187 
3 190 191 192 
3 192 191 193 
3 190 194 191 
3 191 194 195 
3 182 184 180 
3 184 178 180 
3 188 181 189 
3 179 189 181 
3 192 186 196 
3 196 186 189 
3 192 193 186 
3 186 193 185 
3 193 197 185 
3 185 197 184 
3 190 192 196 
3 194 198 195 
3 194 190 198 
3 198 190 196 
3 199 200 201 
3 180 181 199 
3 182 180 202 
3 202 180 199 
3 200 203 201 
3 202 199 201 
3 203 202 201 
3 188 200 181 
3 181 200 199 
3 195 198 191 
3 191 198 197 
3 193 191 197 
3 203 182 202 
3 188 203 200 
3 198 204 197 
3 197 204 184 
3 198 196 204 
3 204 196 189 
3 184 189 178 
3 178 189 179 
3 182 188 183 
3 183 188 187 
3 182 203 188 
3 184 204 189 
3 205 206 207 
3 207 206 208 
3 209 210 211 
3 212 211 210 
3 212 210 213 
3 213 210 214 
3 215 216 214 
3 216 213 214 
3 217 218 219 
3 219 218 220 
3 217 221 218 
3 218 221 222 
3 209 211 207 
3 211 205 207 
3 215 208 216 
3 206 216 208 
3 219 213 223 
3 223 213 216 
3 219 220 213 
3 213 220 212 
3 220 224 212 
3 212 224 211 
3 217 219 223 
3 221 225 222 
3 221 217 225 
3 225 217 223 
3 226 227 228 
3 207 208 226 
3 209 207 229 
3 229 207 226 
3 227 230 228 
3 229 226 228 
3 230 229 228 
3 215 227 208 
3 208 227 226 
3 222 225 218 
3 218 225 224 
3 220 218 224 
3 230 209 229 
3 215 230 227 
3 225 231 224 
3 224 231 211 
3 225 223 231 
3 231 223 216 
3 211 216 205 
3 205 216 206 
3 209 215 210 
3 210 215 214 
3 209 230 215 
3 211 231 216 
3 232 233 234 
3 235 236 237 
3 237 236 238 
3 239 237 238 
3 240 239 241 
3 239 238 241 
3 242 243 244 
3 244 243 245 
3 245 243 246 
3 246 243 247 
3 234 236 232 
3 235 232 236 
3 241 234 240 
3 233 240 234 
3 248 249 250 
3 250 249 235 
3 251 249 248 
3 251 252 249 
3 249 252 240 
3 253 242 252 
3 245 254 244 
3 246 254 245 
3 247 251 246 
3 246 251 248 
3 247 253 251 
3 251 253 252 
3 236 234 255 
3 255 234 256 
3 236 255 257 
3 257 255 258 
3 259 258 260 
3 255 261 260 
3 258 255 260 
3 241 259 234 
3 234 259 256 
3 241 257 259 
3 259 257 258 
3 243 253 247 
3 242 253 243 
3 246 248 254 
3 254 248 250 
3 244 254 250 
3 261 259 260 
3 250 235 262 
3 262 235 237 
3 239 262 237 
3 252 262 240 
3 240 262 239 
3 235 249 240 
3 250 252 244 
3 244 252 242 
3 236 257 241 
3 255 256 259 
3 255 259 261 
3 236 241 238 
3 232 235 233 
3 233 235 240 
3 250 262 252 
3 263 264 265 
3 265 264 266 
3 267 268 269 
3 270 269 268 
3 270 268 271 
3 271 268 272 
3 273 274 272 
3 274 271 272 
3 275 276 277 
3 277 276 278 
3 275 279 276 
3 276 279 280 
3 267 269 265 
3 269 263 265 
3 273 266 274 
3 264 274 266 
3 277 271 281 
3 281 271 274 
3 277 278 271 
3 271 278 270 
3 278 282 270 
3 270 282 269 
3 275 277 281 
3 279 283 280 
3 279 275 283 
3 283 275 281 
3 284 285 286 
3 265 266 284 
3 267 265 287 
3 287 265 284 
3 285 288 286 
3 287 284 286 
3 288 287 286 
3 273 285 266 
3 266 285 284 
3 280 283 276 
3 276 283 282 
3 278 276 282 
3 288 267 287 
3 273 288 285 
3 283 289 282 
3 282 289 269 
3 283 281 289 
3 289 281 274 
3 269 274 263 
3 263 274 264 
3 267 273 268 
3 268 273 272 
3 267 288 273 
3 269 289 274 
3 290 291 292 
3 293 294 295 
3 295 294 296 
3 297 295 296 
3 298 297 299 
3 297 296 299 
3 300 301 302 
3 302 301 303 
3 303 301 304 
3 304 301 305 
3 292 294 290 
3 293 290 294 
3 299 292 298 
3 291 298 292 
3 306 307 308 
3 308 307 293 
3 309 307 306 
3 309 310 307 
3 307 310 298 
3 311 300 310 
3 303 312 302 
3 304 312 303 
3 305 309 304 
3 304 309 306 
3 305 311 309 
3 309 311 310 
3 294 292 313 
3 313 292 314 
3 294 313 315 
3 315 313 316 
3 317 316 318 
3 313 319 318 
3 316 313 318 
3 299 317 292 
3 292 317 314 
3 299 315 317 
3 317 315 316 
3 301 311 305 
3 300 311 301 
3 304 306 312 
3 312 306 308 
3 302 312 308 
3 319 317 318 
3 308 293 320 
3 320 293 295 
3 297 320 295 
3 310 320 298 
3 298 320 297 
3 293 307 298 
3 308 310 302 
3 302 310 300 
3 294 315 299 
3 313 314 317 
3 313 317 319 
3 294 299 296 
3 290 293 291 
3 291 293 298 
3 308 320 310 
3 321 322 323 
3 324 325 326 
3 326 325 327 
3 328 326 327 
3 329 328 330 
3 328 327 330 
3 331 332 333 
3 333 332 334 
3 334 332 335 
3 335 332 336 
3 323 325 321 
3 324 321 325 
3 330 323 329 
3 322 329 323 
3 337 338 339 
3 339 338 324 
3 340 338 337 
3 340 341 338 
3 338 341 329 
3 342 331 341 
3 334 343 333 
3 335 343 334 
3 336 340 335 
3 335 340 337 
3 336 342 340 
3 340 342 341 
3 325 323 344 
3 344 323 345 
3 325 344 346 
3 346 344 347 
3 348 347 349 
3 344 350 349 
3 347 344 349 
3 330 348 323 
3 323 348 345 
3 330 346 348 
3 348 346 347 
3 332 342 336 
3 331 342 332 
3 335 337 343 
3 343 337 339 
3 333 343 339 
3 350 348 349 
3 339 324 351 
3 351 324 326 
3 328 351 326 
3 341 351 329 
3 329 351 328 
3 324 338 329 
3 339 341 333 
3 333 341 331 
3 325 346 330 
3 344 345 348 
3 344 348 350 
3 325 330 327 
3 321 324 322 
3 322 324 329 
3 339 351 341 
3 352 353 354 
3 355 356 357 
3 357 356 358 
3 359 357 358 
3 360 359 361 
3 359 358 361 
3 362 363 364 
3 364 363 365 
3 365 363 366 
3 366 363 367 
3 354 356 352 
3 355 352 356 
3 361 354 360 
3 353 360 354 
3 368 369 370 
3 370 369 355 
3 371 369 368 
3 371 372 369 
3 369 372 360 
3 373 362 372 
3 365 374 364 
3 366 374 365 
3 367 371 366 
3 366 371 368 
3 367 373 371 
3 371 373 372 
3 356 354 375 
3 375 354 376 
3 356 375 377 
3 377 375 378 
3 379 378 380 
3 375 381 380 
3 378 375 380 
3 361 379 354 
3 354 379 376 
3 361 377 379 
3 379 377 378 
3 363 373 367 
3 362 373 363 
3 366 368 374 
3 374 368 370 
3 364 374 370 
3 381 379 380 
3 370 355 382 
3 382 355 357 
3 359 382 357 
3 372 382 360 
3 360 382 359 
3 355 369 360 
3 370 372 364 
3 364 372 362 
3 356 377 361 
3 375 376 379 
3 375 379 381 
3 356 361 358 
3 352 355 353 
3 353 355 360 
3 370 382 372 
3 383 384 385 
3 386 387 388 
3 388 387 389 
3 390 388 389 
3 391 390 392 
3 390 389 392 
3 393 394 395 
3 395 394 396 
3 396 394 397 
3 397 394 398 
3 385 387 383 
3 386 383 387 
3 392 385 391 
3 384 391 385 
3 399 400 401 
3 401 400 386 
3 402 400 399 
3 402 403 400 
3 400 403 391 
3 404 393 403 
3 396 405 395 
3 397 405 396 
3 398 402 397 
3 397 402 399 
3 398 404 402 
3 402 404 403 
3 387 385 406 
3 406 385 407 
3 387 406 408 
3 408 406 409 
3 410 409 411 
3 406 412 411 
3 409 406 411 
3 392 410 385 
3 385 410 407 
3 392 408 410 
3 410 408 409 
3 394 404 398 
3 393 404 394 
3 397 399 405 
3 405 399 401 
3 395 405 401 
3 412 410 411 
3 401 386 413 
3 413 386 388 
3 390 413 388 
3 403 413 391 
3 391 413 390 
3 386 400 391 
3 401 403 395 
3 395 403 393 
3 387 408 392 
3 406 407 410 
3 406 410 412 
3 387 392 389 
3 383 386 384 
3 384 386 391 
3 401 413 403 
3 414 415 416 
3 416 415 417 
3 418 419 420 
3 421 420 419 
3 421 419 422 
3 422 419 423 
3 424 425 423 
3 425 422 423 
3 426 427 428 
3 428 427 429 
3 426 430 427 
3 427 430 431 
3 418 420 416 
3 420 414 416 
3 424 417 425 
3 415 425 417 
3 428 422 432 
3 432 422 425 
3 428 429 422 
3 422 429 421 
3 429 433 421 
3 421 433 420 
3 426 428 432 
3 430 434 431 
3 430 426 434 
3 434 426 432 
3 435 436 437 
3 416 417 435 
3 418 416 438 
3 438 416 435 
3 436 439 437 
3 438 435 437 
3 439 438 437 
3 424 436 417 
3 417 436 435 
3 431 434 427 
3 427 434 433 
3 429 427 433 
3 439 418 438 
3 424 439 436 
3 434 440 433 
3 433 440 420 
3 434 432 440 
3 440 432 425 
3 420 425 414 
3 414 425 415 
3 418 424 419 
3 419 424 423 
3 418 439 424 
3 420 440 425 
