ply
format ascii 1.0
comment VCGLIB generated
element vertex 304
property float x
property float y
property float z
property float nx
property float ny
property float nz
element face 460
property list uchar int vertex_indices
end_header
0.000215 -0.000679 0.009136 0.710879 -4.02818 -0.485306 
0.000689 -0.000711 0.009116 2.77719 -3.17601 -0.425645 
0.000803 -0.001289 0.012716 0.850644 -2.03784 -0.354124 
0.000329 -0.001257 0.012736 1.92059 -1.11956 -0.240596 
0.000355 -0.001388 0.013693 -0.0468377 -2.83201 3.28629 
0.000819 -0.001419 0.013673 0.892138 -2.24128 1.09344 
0.000852 -0.00096 0.013746 2.1233 0.48254 2.36566 
0.000389 -0.000929 0.013766 0.159458 1.03086 2.06648 
0.000363 -0.000788 0.012811 1.14334 1.90289 0.2693 
0.000838 -0.00082 0.01279 2.06686 0.849677 0.0709698 
0.000724 -0.000242 0.00919 3.27407 3.76382 0.293353 
0.000249 -0.00021 0.009211 1.99605 -0.144753 0.00559403 
0.000286 0.00016 0 -0.196967 -0.355387 -4.09374 
-0.000189 0.000192 2e-005 -1.17337 -1.74864 -1.2411 
-0.000155 0.000661 9.4e-005 -1.98568 1.43606 -1.75299 
0.00032 0.00063 7.4e-005 0.0790552 2.28918 -1.68216 
0.000329 -0.001257 0.012736 -0.236716 -2.47301 -1.68172 
0.000803 -0.001289 0.012716 1.76076 -0.836484 -1.34511 
0.000886 -0.00143 0.012912 2.68051 -2.82546 -1.32628 
0.000253 -0.001388 0.012939 -0.391093 -5.22643 -1.01213 
0.000838 -0.00082 0.01279 1.04608 1.98085 -0.58256 
0.000932 -0.000805 0.013011 3.04491 2.84282 -0.362787 
0.000363 -0.000788 0.012811 -0.0946857 -0.655216 -1.21629 
0.000299 -0.000762 0.013038 0.077611 0.620859 0.767076 
-9e-005 -0.000251 0.002968 -2.34632 -4.83456 -0.333236 
0.000385 -0.000283 0.002948 1.74671 -2.94038 -1.45163 
0.000419 0.000187 0.003022 1.07382 2.2331 -1.816 
-5.5e-005 0.000218 0.003042 -0.787876 3.03589 0.395212 
-0.00245 0.001595 0.007424 -4.06587 -0.0533044 -0.683425 
-0.002354 0.001224 0.007425 -2.15156 -3.64913 -0.210784 
-0.002654 0.001157 0.010348 -1.67747 -1.46496 -0.205459 
-0.002749 0.001528 0.010347 -1.39214 1.63408 -0.626845 
-0.002802 0.001498 0.011164 -2.46284 -0.624257 3.65455 
-0.002708 0.001135 0.011165 -1.7839 -1.45919 1.60932 
-0.002347 0.001228 0.011204 1.15947 -1.70309 2.75472 
-0.002441 0.001591 0.011203 1.09205 0.287271 2.32929 
-0.00238 0.001624 0.010387 1.71135 1.43869 -0.0528314 
-0.002284 0.001252 0.010388 1.46028 -1.68838 0.11076 
-0.001985 0.001319 0.007465 4.57867 -1.90501 0.625824 
-0.002081 0.001691 0.007464 -0.428627 1.88171 -0.525132 
-0.001185 0.001362 9.2e-005 2.091 0.531159 -3.64225 
-0.001089 0.000991 9.3e-005 2.27797 -0.446203 -0.771217 
-0.001458 0.000895 5.3e-005 -0.258278 -2.13753 -2.06484 
-0.001554 0.001267 5.2e-005 -1.00789 -0.26698 -2.7546 
-0.002749 0.001528 0.010347 -1.6629 -0.433257 -2.45908 
-0.002654 0.001157 0.010348 -0.069702 -1.40895 -2.29147 
-0.002797 0.000946 0.010482 -1.3789 -3.05998 -1.71771 
-0.002974 0.001636 0.01048 -4.21915 -1.0881 -1.3404 
-0.002284 0.001252 0.010388 1.74777 -0.248824 -1.99546 
-0.002111 0.001123 0.010556 3.30451 -1.54285 -1.27077 
-0.00238 0.001624 0.010387 -0.355863 -0.0971168 -2.26917 
-0.002288 0.001813 0.010554 0.565957 0.144617 -0.305832 
-0.001805 0.001237 0.002443 -3.53465 -0.920498 -2.96163 
-0.001709 0.000865 0.002444 -1.80521 -3.55646 -0.772751 
-0.001341 0.000961 0.002484 2.66614 -2.40386 0.340054 
-0.001437 0.001333 0.002483 3.35082 0.864021 -0.56331 
0.001732 0.00221 0.008427 -0.793825 4.01485 0.401929 
0.001335 0.002034 0.008469 -3.93633 1.54299 0.361474 
0.00162 0.002183 0.011795 -1.72065 1.42751 0.0837787 
0.002017 0.002358 0.011753 1.251 1.63133 0.856471 
0.002059 0.002375 0.012655 -0.551008 2.16125 3.82087 
0.001671 0.002204 0.012696 -1.52299 1.44631 1.8049 
0.001844 0.001814 0.012698 -1.16032 -1.55594 2.84993 
0.002232 0.001986 0.012657 0.735887 -1.11071 2.30518 
0.002193 0.001959 0.011755 1.63764 -1.47023 0.443572 
0.001796 0.001784 0.011797 -1.41701 -1.71679 0.198225 
0.001511 0.001635 0.008472 -1.08433 -4.85077 0.510169 
0.001908 0.001811 0.00843 1.65468 0.716425 0.859936 
0.00066 0.001186 9.4e-005 0.389002 -1.78342 -3.81897 
0.000263 0.001011 0.000136 -0.183765 -2.27588 -0.87578 
8.6e-005 0.00141 0.000133 -2.39191 0.0199939 -1.78346 
0.000483 0.001585 9.2e-005 -0.758932 1.09539 -2.62659 
0.002017 0.002358 0.011753 -1.04261 1.85299 -2.11646 
0.00162 0.002183 0.011795 -1.77983 -0.0237375 -1.9453 
0.001395 0.002289 0.011999 -3.52529 1.03829 -1.17758 
0.002132 0.002615 0.011921 -1.95614 4.23144 -0.818474 
0.001796 0.001784 0.011797 -0.259373 -1.6869 -2.0073 
0.001723 0.001549 0.012004 -1.24955 -3.45401 -1.11212 
0.002193 0.001959 0.011755 -0.466687 0.552222 -2.10467 
0.00246 0.001875 0.011926 0.167858 -0.440182 -0.25678 
0.000743 0.001718 0.00281 -1.81667 3.48942 -2.57682 
0.000346 0.001542 0.002852 -3.86094 1.24721 -0.230522 
0.000523 0.001145 0.002855 -1.90428 -3.03149 0.420707 
0.00092 0.001321 0.002813 1.29256 -3.13324 -0.896224 
-0.000304 0.001398 8e-005 -2.25653 0.557699 -1.63099 
-0.000418 0.000935 8e-005 -2.1318 -1.53483 -1.70711 
-0.000418 0.000935 0.012875 -2.1791 -0.493319 0 
-0.000304 0.001398 0.012875 -0.226864 0.0600342 -1.84776 
-0.0003 0.001391 0.013844 -2.11071 0.516811 3.86096 
-0.000411 0.000939 0.013844 -2.1005 -0.477483 1.80487 
4.1e-005 0.000828 0.013844 0.477484 -2.1005 2.80487 
0.000152 0.00128 0.013844 1.28389 -0.314361 2.33292 
0.000158 0.001284 0.012875 2.3148 -0.564691 -0.923878 
4.5e-005 0.000822 0.012875 0.497164 -2.18056 0 
4.5e-005 0.000822 8e-005 1.70563 -1.44665 -1 
0.000158 0.001284 8e-005 1.0289 -0.247572 -3.55486 
-0.000304 0.001398 0.012875 -2.12425 0.520619 -2.05342 
-0.000418 0.000935 0.012875 -1.05376 -1.24129 -2.05515 
-0.000664 0.000785 0.013092 -2.98292 -2.00263 -1.24941 
-0.000454 0.001644 0.013092 -4.58315 1.12268 -0.7205 
4.5e-005 0.000822 0.012875 1.24154 -1.05325 -2.05644 
0.000195 0.000575 0.013092 2.0038 -2.98166 -1.25135 
0.000158 0.001284 0.012875 -0.708974 0.174162 -2.05449 
0.000405 0.001434 0.013092 0.466992 -0.113697 -0.194614 
0.000574 -0.001332 0.013531 -9.78989e-008 -1.75153e-006 -3.99219e-007 
0.000979 -0.001339 0.016227 4.40807e-006 -8.84563e-007 -4.1455e-008 
0.000642 -0.001549 0.016272 1.2394e-006 -3.94055e-006 -9.6196e-008 
0.000967 -0.001488 0.019279 1.08219e-006 -4.00946e-007 5.6752e-008 
0.000514 -0.001469 0.019278 -2.27579e-006 -3.00359e-006 2.92776e-007 
0.000334 -0.001305 0.016236 -5.49027e-006 1.28551e-006 -1.5297e-008 
0.000585 -0.00107 0.020743 7.11982e-007 6.74332e-007 2.40193e-007 
0.000748 -0.00114 0.018779 2.45601e-007 4.63481e-006 9.2202e-008 
0.000603 -0.000928 0.013557 1.76703e-007 3.38653e-006 -1.29756e-007 
0.000321 -0.001145 0.013537 -1.74993e-006 -3.93648e-007 -2.7952e-008 
0.000825 -0.001737 0.016204 -5.23978e-006 -1.34278e-006 9.60364e-007 
0.000962 -0.001365 0.016174 -1.60245e-007 4.22381e-006 7.72306e-007 
0.001603 -0.002079 0.019113 -2.80298e-006 4.28782e-007 1.25271e-006 
0.001709 -0.002518 0.019058 -2.23356e-006 -1.87513e-006 6.62443e-007 
0.001852 -0.002123 0.018553 6.23174e-006 1.63278e-006 -1.42481e-006 
0.002884 -0.002473 0.021063 5.15677e-007 1.00817e-007 1.74787e-007 
0.00178 -0.002464 0.01862 9.07779e-007 -2.51119e-006 -7.66416e-007 
0.001643 -0.001886 0.018694 -2.36291e-007 2.71556e-006 5.27594e-007 
0.000715 -0.001056 0.0135 3.22106e-006 8.47001e-007 -8.17999e-007 
0.001104 -0.00199 0.016086 1.54653e-006 -3.826e-006 -1.31303e-006 
0.000773 -0.000898 0.013278 7.37956e-007 1.25916e-006 6.2102e-007 
0.000146 -0.001729 0.015078 1.30278e-007 2.38108e-006 1.36183e-006 
0.000506 -0.00204 0.015008 3.59282e-006 1.03154e-006 1.68455e-006 
-0.000452 -0.002946 0.016976 -5.19803e-007 2.10633e-006 1.64832e-006 
-8.4e-005 -0.003225 0.016584 1.57736e-006 -2.88387e-006 -9.26541e-007 
-0.000404 -0.003116 0.016531 -2.47558e-006 -1.05385e-006 -1.57395e-006 
-0.001169 -0.004419 0.018101 -5.75151e-008 -1.44944e-007 4.9168e-008 
0.000307 -0.001261 0.013665 -3.53531e-006 -8.86598e-007 -1.73372e-006 
0.000805 -0.001188 0.013198 5.49787e-007 -1.80884e-006 -1.13068e-006 
0.000776 -0.001168 0.012648 7.87716e-007 -4.90968e-007 2.6316e-008 
0.000534 -0.000808 0.015183 2.30677e-006 7.10827e-007 3.20468e-007 
0.000279 -0.001216 0.015204 1.0546e-006 -3.3601e-006 5.7808e-007 
-7.1e-005 -0.000504 0.017272 2.11217e-006 1.41859e-006 7.74349e-007 
-0.000402 -0.000904 0.016981 -1.82351e-006 -2.50705e-006 1.46042e-007 
-0.00037 -0.000567 0.016898 -1.91719e-006 2.28101e-006 -9.54687e-007 
-0.00118 -0.000119 0.018693 -1.31267e-007 3.67849e-008 9.8747e-008 
0.000481 -0.000996 0.013262 -2.38928e-006 1.9109e-006 -9.89315e-007 
0.000633 -0.001435 0.014176 -2.53635e-007 -7.80799e-007 -5.38101e-007 
0.000578 -0.001099 0.014232 4.36591e-007 8.84365e-007 1.15958e-007 
0.000138 -0.00205 0.016096 5.08491e-006 -7.17556e-007 1.40742e-006 
5.8e-005 -0.001582 0.016177 2.71488e-006 1.5981e-006 1.31656e-006 
-0.000935 -0.002421 0.019007 3.66919e-006 1.47775e-006 2.12127e-006 
-0.000853 -0.002858 0.018925 2.5302e-006 -9.29645e-007 1.04197e-006 
-0.001055 -0.002535 0.018417 -4.5692e-006 -4.73809e-007 -1.89196e-006 
-0.002242 -0.003216 0.020835 -5.24545e-007 -1.13138e-007 8.40591e-008 
-0.000972 -0.00225 0.018587 -1.39068e-006 2.35349e-006 1.71894e-007 
-0.000866 -0.002825 0.018479 -6.93868e-007 -2.59027e-006 -9.67188e-007 
-0.00011 -0.001512 0.016122 -2.15766e-006 2.04001e-006 -1.96437e-007 
-2e-006 -0.002138 0.016013 -1.41325e-006 -2.40904e-006 -1.23608e-006 
-0.000261 -0.001837 0.015975 -3.43293e-006 -3.39458e-007 -1.42937e-006 
0.000702 -0.001127 0.01308 1.062e-006 -6.72824e-007 -1.02195e-006 
0.000794 -0.001748 0.014536 -1.33699e-006 -4.22698e-007 1.83658e-007 
0.000973 -0.001332 0.014581 -1.15885e-006 1.77458e-006 1.0911e-006 
0.001522 -0.002425 0.016062 -1.38395e-006 -1.33463e-006 4.22155e-007 
0.001754 -0.001937 0.015863 1.1555e-006 1.98617e-006 6.50078e-007 
0.001768 -0.002237 0.015763 1.55379e-006 -1.31019e-006 -1.40147e-006 
0.002682 -0.003003 0.017029 1.085e-007 -2.0414e-008 7.64321e-008 
-0.000441 -0.000871 0.007723 1.84525e-006 -2.28165e-006 3.06518e-007 
0.000392 -0.000172 0.004567 1.27962e-006 3.8354e-007 2.65735e-007 
-0.000574 -0.000482 0.007802 -8.55491e-008 2.70509e-006 5.70988e-007 
-0.000716 -0.000734 0.007458 -1.75642e-006 -4.53036e-007 -7.26237e-007 
-0.001526 -0.00116 0.00889 -1.13908e-007 -5.697e-008 8.8754e-008 
5.1e-005 -0.000312 0.004547 -1.169e-006 -2.96971e-007 -5.05758e-007 
-0.002136 0.001221 0.015558 -1.70697e-006 1.353e-006 5.27291e-007 
-0.002533 0.001158 0.013148 -3.18449e-006 -8.80127e-007 3.72304e-007 
-0.002034 0.00087 0.015576 -7.47448e-007 -2.01982e-006 2.30371e-007 
-0.001892 0.001138 0.01515 3.78385e-006 1.04473e-006 -4.95524e-007 
-0.001285 0.001164 0.017278 1.44702e-007 4.60081e-008 7.7178e-008 
-0.002293 0.000955 0.013113 1.17903e-006 -2.88256e-006 -4.11856e-007 
-0.002744 0.00133 0.01093 -1.10735e-006 -3.0941e-007 -8.76529e-008 
-0.002429 0.001413 0.010934 2.11537e-006 5.72947e-007 -4.01016e-007 
-0.002432 0.001457 0.013097 -4.76687e-007 3.07522e-006 1.88905e-007 
-0.002412 0.001023 0.013123 8.51535e-007 1.46451e-006 3.07947e-007 
-0.002468 0.001283 0.010912 7.44496e-007 -6.09522e-007 -3.42931e-007 
-0.002729 0.000678 0.013048 -2.5431e-006 9.87933e-008 3.8183e-008 
-0.002297 0.000218 0.015504 -7.67272e-007 1.17621e-006 5.30937e-007 
-0.002603 -8e-006 0.015131 -6.76408e-007 -9.67517e-008 1.00856e-007 
-0.002335 2.5e-005 0.015064 2.39075e-006 -2.03324e-006 -6.34992e-007 
-0.00263 0.00144 0.010647 -1.50624e-006 1.54322e-007 -8.92587e-007 
-0.002882 0.001518 0.012187 2.25772e-006 1.25075e-006 9.44391e-007 
-0.00303 0.00116 0.012156 5.1512e-007 -1.05126e-006 1.37538e-007 
-0.003815 0.001261 0.013717 -7.51482e-007 -1.40507e-006 -5.18041e-008 
-0.004314 0.001763 0.014427 -5.1512e-007 1.05126e-006 -1.37538e-007 
-0.002639 0.001235 0.010207 4.8727e-007 3.87246e-007 -3.88236e-007 
-0.002096 0.001451 0.012224 1.33835e-006 -8.56655e-007 -1.63284e-007 
-0.002469 0.001542 0.01225 -2.18924e-006 -1.81755e-006 9.41061e-007 
-0.001742 0.001938 0.013871 8.5597e-008 -1.01833e-006 4.42685e-007 
-0.001851 0.002521 0.014638 -8.64525e-007 6.23905e-008 3.36369e-007 
-0.001914 0.002159 0.013562 2.18924e-006 1.81755e-006 -9.41061e-007 
-0.002414 0.001797 0.01217 -1.04669e-006 1.42535e-006 -2.27534e-007 
-0.002837 0.001459 0.013051 6.68751e-007 -3.31328e-006 5.77372e-007 
-0.003212 0.002071 0.015333 1.74724e-006 -2.20034e-007 6.50068e-007 
-0.003527 0.001895 0.015289 -1.67437e-007 -1.22193e-006 3.00189e-007 
-0.003397 0.002142 0.014859 -8.26931e-007 3.65359e-006 -8.06199e-007 
-0.003909 0.002408 0.016316 -9.55501e-007 -4.60798e-007 1.31831e-008 
-0.002584 0.001469 0.010864 -4.04029e-007 8.52752e-007 -4.47282e-007 
-0.002679 0.001734 0.012999 1.96391e-006 1.36722e-006 9.18041e-008 
-0.003133 0.001489 0.012942 -2.026e-006 -6.5752e-007 -3.79135e-007 
-0.002549 0.001292 0.010578 -7.38481e-009 -3.7598e-007 -3.27268e-007 
-0.00281 0.00103 0.01178 -7.83659e-007 4.84104e-007 1.7907e-007 
-0.002448 0.001002 0.011804 8.18412e-007 3.33264e-007 2.5035e-007 
-0.002759 0.000122 0.012822 -2.73683e-008 -4.41388e-007 -1.02152e-007 
0.002464 0.001327 0.017654 1.4626e-006 2.42386e-006 6.34096e-007 
0.001983 0.001904 0.014979 -1.68575e-006 3.85161e-006 9.01369e-007 
0.002092 0.001147 0.017711 -2.67435e-006 5.17446e-007 6.64202e-007 
0.002356 0.001062 0.017185 1.9947e-006 -4.57415e-006 -1.14029e-006 
0.002791 0.00026 0.019529 9.9525e-008 -1.80624e-007 7.91399e-008 
0.001794 0.0016 0.014947 -3.48809e-006 -2.0781e-006 -2.11085e-007 
0.001825 0.002304 0.012475 -6.24464e-007 1.35241e-006 3.55261e-008 
0.001973 0.001966 0.012443 1.07866e-006 -2.54866e-006 -7.93674e-007 
0.002327 0.001848 0.014875 3.83718e-006 1.2362e-006 -1.69279e-007 
0.001959 0.002193 0.012155 6.05296e-007 1.31414e-006 -8.4668e-007 
0.002218 0.002397 0.0139 7.18864e-007 -1.3657e-006 3.0532e-007 
0.001789 0.002499 0.013924 -1.81732e-006 -1.68535e-006 7.03534e-007 
0.002389 0.003215 0.015714 1.72922e-006 -1.20037e-006 7.04852e-007 
0.001931 0.003351 0.015444 -2.47328e-006 7.91619e-007 1.50878e-007 
0.002228 0.003413 0.015344 1.24036e-006 2.01968e-006 -1.08669e-006 
0.002453 0.004419 0.016856 -3.14009e-009 1.2599e-007 6.87879e-008 
0.002041 0.002066 0.012135 1.35995e-006 -2.84319e-008 -7.91483e-007 
0.002288 0.001511 0.013841 -1.26409e-006 -9.09202e-007 1.43396e-007 
0.002327 0.001945 0.013889 -1.73974e-006 1.051e-006 8.34488e-007 
0.003125 0.001106 0.015604 -9.37795e-007 -2.57058e-006 9.16314e-008 
0.003155 0.001513 0.015646 5.20487e-007 2.51669e-006 6.17875e-007 
0.003297 0.001357 0.015242 1.90331e-006 -4.13944e-008 -9.58381e-007 
0.004314 0.000957 0.016697 1.57876e-007 -1.8084e-008 6.2474e-008 
0.002007 0.002148 0.012366 1.55174e-006 7.34835e-007 -8.18271e-007 
0.00226 0.0023 0.014853 -2.32885e-006 -4.14707e-006 1.25132e-006 
0.001813 0.002191 0.013071 -8.71184e-007 -5.6012e-008 9.2048e-008 
0.003199 0.002696 0.017374 -8.55295e-007 -1.84255e-006 9.10077e-007 
0.00294 0.003019 0.017373 -2.90961e-006 -4.9133e-008 1.07877e-006 
0.003178 0.002945 0.016846 4.10499e-006 3.21097e-006 -1.9003e-006 
0.00359 0.003481 0.018494 -3.52289e-007 1.46058e-006 8.90512e-008 
0.003857 0.003149 0.018498 1.3547e-006 -1.37663e-006 -3.21419e-008 
0.002227 0.002644 0.01475 -1.65435e-006 4.00715e-006 -3.96216e-007 
0.002587 0.002177 0.014745 1.96015e-006 -1.94213e-006 -2.74332e-007 
0.001818 0.00207 0.012106 -6.39344e-007 -5.74178e-008 -2.91207e-007 
0.00165 0.002243 0.013515 8.28427e-007 8.34779e-007 2.18306e-007 
0.001686 0.001832 0.013517 3.90362e-007 -7.26301e-007 1.35721e-007 
0.000949 0.002157 0.015071 -5.79445e-007 -5.10599e-008 -6.282e-008 
-0.000169 0.001291 0.014377 6.10867e-007 6.81465e-007 -2.37828e-007 
-0.000247 0.000954 0.014382 -7.18864e-007 -6.63655e-007 -7.29241e-008 
0.000176 0.001277 0.016394 -2.93085e-006 3.09551e-006 7.1708e-007 
7.2e-005 0.000807 0.016406 -2.06323e-006 -1.97724e-006 2.58142e-007 
0.00081 0.000641 0.019387 -4.13186e-006 -2.64168e-007 1.41016e-006 
0.000903 0.001085 0.019368 -2.17117e-006 1.7031e-006 1.04528e-006 
0.000488 0.000953 0.016267 5.72511e-006 -1.31193e-006 -1.84822e-006 
0.002033 0.000575 0.021395 2.01024e-006 -4.34363e-007 -1.98107e-007 
0.000855 0.000556 0.018949 8.32728e-007 -4.51186e-006 -5.37128e-007 
0.000979 0.00114 0.018925 2.83703e-006 3.68314e-006 -5.36454e-007 
4.4e-005 0.001198 0.014377 8.19284e-007 -4.04761e-007 -2.37435e-007 
-0.000301 0.001182 0.014382 -8.31324e-007 5.13539e-007 -7.2423e-008 
0.000124 0.000862 0.016394 2.18039e-006 3.65439e-006 7.16146e-007 
-0.000357 0.000835 0.016406 -2.45638e-006 1.4543e-006 2.59407e-007 
-0.000316 7.9e-005 0.019387 -1.37726e-006 3.90542e-006 1.40974e-006 
0.000136 0.000111 0.019368 1.0484e-006 2.54606e-006 1.04257e-006 
-0.000104 0.000475 0.016267 2.87464e-007 -5.86344e-006 -1.8468e-006 
-4.8e-005 -0.001115 0.021395 1.27473e-007 -2.05016e-006 -1.98348e-007 
-0.000386 1.3e-005 0.018949 -4.10836e-006 -2.02175e-006 -5.35764e-007 
0.000209 5.2e-005 0.018925 4.31031e-006 -1.73361e-006 -5.37088e-007 
4.3e-005 0.000882 0.012763 5.87091e-007 -7.30839e-007 1.42788e-007 
-0.000209 0.001595 0.015302 2.42213e-006 -7.95657e-008 4.66524e-007 
-0.000584 0.001292 0.015293 -1.905e-007 -3.54198e-006 9.7755e-007 
-0.000793 0.002322 0.017349 2.43412e-006 6.77157e-007 8.36801e-007 
-0.001219 0.002016 0.017018 -2.62833e-006 -1.7808e-006 2.10697e-007 
-0.001074 0.002316 0.016938 -9.59707e-007 2.78372e-006 -1.33832e-006 
-0.00178 0.003227 0.01867 -1.23779e-007 8.20743e-008 8.34301e-008 
-0.000213 0.001211 0.013353 -1.54103e-006 2.59023e-006 -1.37947e-006 
-0.00041 0.000964 0.012763 -6.08771e-007 -7.08279e-007 1.60544e-007 
0.00062 0.001064 0.015201 3.41691e-007 -2.4438e-006 1.68459e-007 
0.000268 0.001384 0.015278 -3.35036e-006 -4.7555e-007 1.43745e-006 
0.001546 0.001543 0.017195 1.13551e-006 -2.36913e-006 4.35597e-007 
0.001137 0.001946 0.016961 -2.09207e-006 2.27664e-006 7.60731e-007 
0.00144 0.00186 0.016827 2.39058e-006 1.52444e-006 -1.55299e-006 
0.002481 0.002521 0.018502 7.4126e-008 1.25708e-007 8.6935e-008 
-3.9e-005 0.001207 0.013333 2.10929e-006 2.06997e-006 -1.49673e-006 
-0.000315 0.001631 0.016334 -1.31003e-006 -4.2238e-006 1.37407e-006 
5.6e-005 0.001099 0.014357 -2.40146e-009 -1.77459e-006 3.05059e-007 
0.000167 0.001632 0.016337 1.31533e-006 -2.95491e-006 9.21853e-007 
0.000222 0.002668 0.019232 1.18069e-006 -3.82608e-006 1.76051e-006 
-0.000232 0.002662 0.019222 -1.17265e-006 -2.37735e-006 1.29795e-006 
-1e-005 0.00282 0.018663 1.51283e-009 6.21846e-006 -2.41769e-006 
5.6e-005 0.004061 0.02112 -8.6772e-009 5.38159e-007 1.01916e-007 
0.000287 0.002689 0.018789 2.55167e-006 9.87672e-007 -4.18418e-007 
-0.00031 0.002682 0.018777 -2.56235e-006 1.10816e-006 -3.39636e-007 
0.000252 0.001786 0.016266 2.564e-006 3.14747e-006 -1.27026e-006 
-0.000357 0.001044 0.01364 8.60382e-009 2.78201e-006 -1.11177e-006 
-0.000394 0.001786 0.016261 -2.5657e-006 3.74814e-007 -2.03586e-007 
-1.3e-005 0.00131 0.012763 -9.99376e-007 -9.47049e-007 -8.15916e-007 
-0.000463 0.00098 0.014778 1.39204e-007 1.42166e-006 4.14883e-007 
-8.1e-005 0.000733 0.014763 2.15054e-006 1.14395e-006 7.9993e-007 
-0.000848 0.000326 0.016415 -1.0517e-006 1.46394e-006 6.39152e-007 
-0.000463 2.2e-005 0.016148 1.78148e-006 -1.50114e-006 7.43891e-008 
-0.000778 6e-005 0.016097 -1.9945e-006 -1.47762e-006 -1.19357e-006 
-0.001305 -0.00077 0.017497 -2.56498e-008 -1.0374e-007 8.113e-008 
-0.0002 0.000964 0.006539 2.03172e-007 -1.33128e-006 3.12606e-007 
-0.000132 0.002102 0.00975 2.71308e-006 -4.33888e-007 4.00817e-007 
-0.000546 0.002036 0.009738 -2.45154e-006 -1.37573e-006 5.29159e-007 
-0.000373 0.002269 0.009447 -2.66436e-007 1.81236e-006 -7.75938e-007 
-0.000478 0.003166 0.010902 -2.20019e-008 1.2255e-007 8.5044e-008 
-0.000282 0.001323 0.00653 -1.76268e-007 1.20599e-006 -5.51688e-007 
3 0 1 2 
3 0 2 3 
3 4 5 6 
3 4 6 7 
3 8 9 10 
3 8 10 11 
3 12 13 14 
3 12 14 15 
3 1 10 9 
3 1 9 2 
3 11 0 3 
3 11 3 8 
3 16 17 18 
3 16 18 19 
3 17 20 21 
3 17 21 18 
3 20 22 23 
3 20 23 21 
3 22 16 19 
3 22 19 23 
3 19 18 5 
3 19 5 4 
3 18 21 6 
3 18 6 5 
3 21 23 7 
3 21 7 6 
3 23 19 4 
3 23 4 7 
3 24 25 1 
3 24 1 0 
3 25 26 10 
3 25 10 1 
3 10 26 27 
3 10 27 11 
3 11 27 24 
3 11 24 0 
3 13 12 25 
3 13 25 24 
3 12 15 26 
3 12 26 25 
3 27 26 15 
3 27 15 14 
3 14 13 24 
3 14 24 27 
3 28 29 30 
3 28 30 31 
3 32 33 34 
3 32 34 35 
3 36 37 38 
3 36 38 39 
3 40 41 42 
3 40 42 43 
3 29 38 37 
3 29 37 30 
3 39 28 31 
3 39 31 36 
3 44 45 46 
3 44 46 47 
3 45 48 49 
3 45 49 46 
3 48 50 51 
3 48 51 49 
3 50 44 47 
3 50 47 51 
3 47 46 33 
3 47 33 32 
3 46 49 34 
3 46 34 33 
3 49 51 35 
3 49 35 34 
3 51 47 32 
3 51 32 35 
3 52 53 29 
3 52 29 28 
3 53 54 38 
3 53 38 29 
3 38 54 55 
3 38 55 39 
3 39 55 52 
3 39 52 28 
3 43 42 53 
3 43 53 52 
3 42 41 54 
3 42 54 53 
3 55 54 41 
3 55 41 40 
3 40 43 52 
3 40 52 55 
3 56 57 58 
3 56 58 59 
3 60 61 62 
3 60 62 63 
3 64 65 66 
3 64 66 67 
3 68 69 70 
3 68 70 71 
3 57 66 65 
3 57 65 58 
3 67 56 59 
3 67 59 64 
3 72 73 74 
3 72 74 75 
3 73 76 77 
3 73 77 74 
3 76 78 79 
3 76 79 77 
3 78 72 75 
3 78 75 79 
3 75 74 61 
3 75 61 60 
3 74 77 62 
3 74 62 61 
3 77 79 63 
3 77 63 62 
3 79 75 60 
3 79 60 63 
3 80 81 57 
3 80 57 56 
3 81 82 66 
3 81 66 57 
3 66 82 83 
3 66 83 67 
3 67 83 80 
3 67 80 56 
3 71 70 81 
3 71 81 80 
3 70 69 82 
3 70 82 81 
3 83 82 69 
3 83 69 68 
3 68 71 80 
3 68 80 83 
3 84 85 86 
3 84 86 87 
3 88 89 90 
3 88 90 91 
3 92 93 94 
3 92 94 95 
3 95 94 85 
3 95 85 84 
3 85 94 93 
3 85 93 86 
3 95 84 87 
3 95 87 92 
3 96 97 98 
3 96 98 99 
3 97 100 101 
3 97 101 98 
3 100 102 103 
3 100 103 101 
3 102 96 99 
3 102 99 103 
3 99 98 89 
3 99 89 88 
3 98 101 90 
3 98 90 89 
3 101 103 91 
3 101 91 90 
3 103 99 88 
3 103 88 91 
3 104 105 106 
3 106 107 108 
3 109 110 111 
3 109 112 104 
3 112 105 104 
3 105 110 106 
3 106 110 107 
3 109 104 106 
3 109 106 108 
3 107 110 108 
3 110 105 111 
3 111 105 112 
3 109 111 112 
3 108 110 109 
3 113 114 115 
3 116 114 117 
3 118 119 120 
3 120 119 117 
3 121 119 118 
3 115 122 113 
3 123 113 122 
3 113 123 114 
3 123 120 114 
3 114 120 117 
3 115 114 121 
3 121 114 116 
3 116 117 119 
3 121 118 115 
3 120 123 118 
3 118 123 122 
3 115 118 122 
3 116 119 121 
3 124 125 126 
3 126 125 127 
3 126 127 128 
3 129 130 127 
3 128 130 129 
3 128 131 132 
3 132 131 124 
3 124 131 125 
3 132 124 126 
3 125 131 127 
3 132 126 128 
3 128 129 131 
3 129 127 131 
3 127 130 128 
3 133 134 135 
3 135 134 136 
3 135 136 137 
3 138 139 136 
3 137 139 138 
3 133 140 134 
3 140 136 134 
3 133 135 140 
3 140 135 137 
3 137 138 140 
3 136 140 138 
3 136 139 137 
3 141 142 143 
3 143 142 144 
3 143 144 145 
3 143 145 146 
3 147 148 149 
3 150 148 147 
3 142 151 144 
3 151 149 144 
3 144 149 145 
3 152 141 143 
3 152 143 150 
3 150 143 146 
3 148 146 145 
3 150 147 152 
3 152 147 153 
3 149 151 147 
3 147 151 153 
3 151 142 153 
3 153 142 141 
3 152 153 141 
3 149 148 145 
3 150 146 148 
3 154 155 156 
3 155 157 156 
3 156 157 158 
3 159 160 157 
3 158 160 159 
3 158 154 156 
3 157 155 154 
3 159 157 154 
3 158 159 154 
3 160 158 157 
3 161 162 163 
3 164 165 163 
3 161 165 164 
3 162 166 163 
3 166 162 161 
3 161 164 166 
3 163 166 164 
3 163 165 161 
3 167 168 169 
3 170 171 169 
3 167 171 170 
3 172 173 174 
3 173 172 168 
3 172 169 168 
3 173 175 174 
3 175 173 168 
3 175 168 167 
3 167 169 171 
3 167 170 175 
3 169 172 170 
3 170 172 174 
3 175 170 174 
3 176 177 178 
3 176 178 179 
3 179 178 180 
3 181 179 180 
3 179 181 176 
3 176 181 177 
3 180 178 181 
3 181 178 177 
3 182 183 184 
3 184 183 185 
3 183 186 185 
3 184 185 182 
3 185 186 182 
3 186 183 182 
3 187 188 189 
3 189 188 190 
3 189 190 191 
3 192 191 190 
3 187 189 193 
3 193 189 191 
3 191 192 193 
3 190 188 192 
3 192 188 187 
3 193 192 187 
3 194 195 196 
3 197 198 195 
3 199 200 194 
3 200 195 194 
3 201 199 194 
3 201 194 198 
3 198 194 196 
3 195 198 196 
3 195 200 197 
3 197 200 199 
3 198 197 201 
3 201 197 199 
3 202 203 204 
3 204 203 205 
3 202 205 203 
3 204 205 202 
3 206 207 208 
3 209 210 208 
3 206 210 209 
3 211 212 213 
3 212 211 207 
3 211 208 207 
3 212 214 213 
3 214 212 207 
3 214 207 206 
3 206 208 210 
3 206 209 214 
3 208 211 209 
3 209 211 213 
3 214 209 213 
3 215 216 217 
3 217 216 218 
3 217 218 219 
3 220 221 218 
3 219 221 220 
3 215 218 216 
3 215 217 219 
3 219 220 215 
3 218 215 220 
3 218 221 219 
3 222 223 224 
3 224 223 225 
3 224 225 226 
3 227 228 225 
3 226 228 227 
3 222 225 223 
3 222 224 226 
3 226 225 228 
3 226 227 222 
3 225 222 227 
3 229 230 231 
3 230 232 233 
3 234 235 236 
3 237 235 234 
3 237 229 231 
3 229 238 230 
3 238 236 230 
3 230 236 232 
3 237 231 230 
3 237 230 233 
3 232 235 233 
3 236 235 232 
3 236 238 234 
3 234 238 229 
3 237 234 229 
3 233 235 237 
3 239 240 241 
3 241 240 242 
3 242 239 241 
3 239 242 240 
3 243 244 245 
3 245 244 246 
3 245 246 247 
3 245 247 248 
3 249 250 251 
3 252 250 249 
3 246 251 247 
3 252 245 248 
3 250 248 247 
3 252 249 245 
3 251 246 249 
3 246 244 249 
3 249 244 243 
3 245 249 243 
3 251 250 247 
3 252 248 250 
3 253 254 255 
3 255 254 256 
3 255 256 257 
3 255 257 258 
3 259 260 261 
3 262 260 259 
3 256 261 257 
3 262 255 258 
3 260 258 257 
3 262 259 255 
3 261 256 259 
3 256 254 259 
3 259 254 253 
3 255 259 253 
3 261 260 257 
3 262 258 260 
3 263 264 265 
3 265 264 266 
3 265 266 267 
3 268 269 266 
3 267 269 268 
3 263 270 264 
3 270 266 264 
3 263 265 270 
3 265 267 270 
3 269 267 266 
3 267 268 270 
3 266 270 268 
3 271 272 273 
3 273 272 274 
3 273 274 275 
3 276 277 274 
3 275 277 276 
3 271 278 272 
3 278 274 272 
3 271 273 278 
3 273 275 278 
3 277 275 274 
3 275 276 278 
3 274 278 276 
3 279 280 281 
3 279 281 282 
3 279 282 283 
3 284 285 286 
3 287 285 284 
3 280 288 281 
3 288 286 281 
3 281 286 282 
3 289 280 290 
3 290 280 279 
3 290 279 287 
3 287 279 283 
3 285 283 282 
3 287 284 290 
3 290 284 289 
3 286 288 284 
3 284 288 289 
3 288 280 289 
3 286 285 282 
3 287 283 285 
3 291 292 293 
3 293 292 294 
3 293 294 295 
3 296 297 294 
3 295 297 296 
3 295 291 293 
3 294 292 291 
3 297 295 294 
3 296 294 291 
3 295 296 291 
3 298 299 300 
3 301 302 299 
3 300 302 301 
3 298 303 299 
3 303 298 300 
3 302 300 299 
3 299 303 301 
3 300 301 303 
