ply
format ascii 1.0
comment VCGLIB generated
element vertex 238
property float x
property float y
property float z
property float nx
property float ny
property float nz
element face 448
property list uchar int vertex_indices
end_header
0.003915 0.004214 -0.00146 2.35026 3.45431 0.211239 
0.002266 0.005307 -0.001749 1.44866 1.73669 -0.215827 
0.001299 0.003541 0.005124 5.10328 5.2671 1.91925 
0.003069 0.002183 0.005827 4.34331 3.32483 1.90684 
-0.001962 0.013822 -0.004512 0.23788 1.73571 -3.87378 
-0.003316 0.013676 -0.00463 0.113131 1.06713 -4.269 
-0.003418 0.014648 -0.003156 1.00919 4.54839 0.284086 
-0.002398 0.014549 -0.003291 0.784732 2.45634 -0.222808 
-0.004341 0.013626 -0.004595 -1.10061 -0.116531 -2.13294 
-0.004473 0.014378 -0.003495 -1.69822 2.44059 -0.163919 
-0.003798 0.004983 -0.001525 -1.93191 2.86171 -1.1375 
-0.004789 0.002398 -0.002179 -2.00955 1.58114 -2.46579 
-0.004807 0.002183 0.005124 -5.44441 3.79748 -0.259386 
-0.003143 0.003847 0.005124 -2.05575 5.7707 2.48534 
-0.016267 1.4e-005 -0.005226 -0.914932 0.941605 -3.80765 
-0.016303 -0.000781 -0.005498 -0.125449 0.405563 -3.82443 
-0.017416 -0.000823 -0.003924 -4.38375 1.93989 -0.54766 
-0.017065 -0.000325 -0.004419 -2.1842 1.56103 -0.715175 
-0.016125 -0.001597 -0.005408 0.572875 -0.901789 -1.83507 
-0.016954 -0.001588 -0.004562 -2.51948 -1.57008 -0.60085 
-0.006643 -0.003701 -0.001706 -3.77384 -1.88913 0.363737 
-0.005753 -0.005826 -0.001706 -2.01996 -2.36272 -1.6775 
-0.003662 -0.003914 0.005875 -4.33861 -5.11707 0.489931 
-0.004807 -0.002363 0.005875 -5.02756 -1.26953 2.38971 
-0.000239 -0.015798 -0.006042 -2.76738 -1.3066 -3.04566 
0.000636 -0.01601 -0.006639 0.527884 -0.323509 -3.21147 
0.000649 -0.016759 -0.005453 -2.374 -4.13231 -0.155939 
1.3e-005 -0.016144 -0.005475 -2.50933 -2.26194 -0.512791 
0.001143 -0.015825 -0.006091 2.59867 0.665251 -1.42423 
0.001044 -0.016153 -0.005503 2.74676 -1.89939 -0.0248827 
0.002203 -0.005341 -0.002084 2.82992 -3.79465 0.252411 
0.00413 -0.003942 -0.001755 2.51765 -2.30889 -2.8116 
0.003069 -0.002363 0.006604 3.08719 -5.77677 1.71243 
0.001404 -0.004028 0.005901 1.65612 -4.70101 2.22616 
0.012043 0.000908 -0.004167 1.3671 -1.26545 -3.29318 
0.012237 0.0016 -0.004353 0.602164 -0.060795 -3.27893 
0.012655 0.001662 -0.003356 5.28797 -1.56733 -0.0870569 
0.012505 0.001124 -0.003212 2.78556 -1.3312 -0.624496 
0.012138 0.002334 -0.004295 -0.279343 1.0608 -1.8161 
0.012578 0.002231 -0.003311 3.0912 1.91813 -0.421403 
-0.000869 -9e-005 -0.002435 -2.90916e-006 1.09225e-005 -0.00018849 
-0.001256 0.004492 -0.001975 0.0161283 1.80756 -2.37222 
-0.005251 0.000673 -0.002179 -1.28826 0.25521 -2.63391 
-0.00249 -0.005501 -0.003093 0.460161 -2.04001 -1.79966 
0.003451 0.000452 -0.002586 1.27829 0.208882 -2.62453 
0.002314 0.001766 0.07285 3.65047e-006 1.06964e-005 1.28194e-005 
0.000876 0.002841 0.07218 4.58864e-006 1.07915e-005 1.26826e-005 
-0.000869 -7.2e-005 0.07529 2.48309e-006 5.58421e-007 7.89326e-005 
-0.00078 0.003869 0.07218 4.22895e-006 1.10635e-005 1.41407e-005 
-0.002706 0.003111 0.07304 1.14527e-006 1.03496e-005 1.37062e-005 
-0.00372 0.001502 0.074213 -1.61485e-006 5.26389e-006 1.19677e-005 
-0.004544 -7.2e-005 0.074192 -3.26106e-006 -2.10795e-006 1.09148e-005 
-0.004451 -0.001468 0.073421 -3.31756e-006 -1.01873e-005 1.39674e-005 
-0.002706 -0.003255 0.072307 -3.25239e-006 -1.27315e-005 1.5588e-005 
-0.000869 -0.003747 0.072307 -1.39314e-006 -8.72529e-006 1.07494e-005 
0.000219 -0.003382 0.072583 -1.25395e-006 -1.0664e-005 1.25355e-005 
0.002314 -0.001909 0.074189 9.29228e-007 -7.55277e-006 1.5288e-005 
0.002806 -7.2e-005 0.074061 4.51659e-006 4.92084e-006 1.35056e-005 
0.001072 0.003153 0.009127 3.39986 4.91451 0.428513 
0.002671 0.001957 0.009127 3.54952 4.81091 0.405092 
-0.000769 0.004759 0.006258 1.43406 4.63106 1.90451 
-0.000717 0.00445 0.008074 0.487448 5.26178 0.474023 
-0.002859 0.003606 0.008074 -3.60517 4.43291 0.551754 
-0.004041 0.001664 0.009127 -4.99325 3.16082 0.666438 
-0.005416 -9e-005 0.00671 -4.18751 1.73538 2.4404 
-0.004957 -8.7e-005 0.009127 -5.61869 0.911756 0.58706 
-0.004672 -0.00165 0.010597 -5.11591 -2.55706 0.391854 
-0.002731 -0.003637 0.010597 -2.96734 -4.88482 0.521723 
-0.000869 -0.004637 0.007937 -1.54064 -4.02305 2.56229 
-0.000869 -0.004175 0.009127 -0.374749 -5.8158 0.538978 
0.000874 -0.00403 0.009127 2.748 -4.97597 0.454894 
0.00245 -0.002197 0.010401 4.99949 -2.86971 0.461089 
0.003678 -9e-005 0.007355 4.48627 0.246182 1.89936 
0.002998 -0.000153 0.010401 4.63432 1.59231 0.51905 
-0.002191 -0.009245 -0.000566 -0.320573 -0.0938723 -4.22373 
-0.00561 -0.007604 0.00078 -2.41239 0.972734 -4.89561 
-0.004728 -0.007425 0.003269 -4.67292 -0.72215 2.07111 
-0.00289 -0.0078 0.004412 -3.32116 -3.08947 3.81628 
-0.000464 -0.007396 0.00078 3.49183 -1.67908 -1.36893 
-0.000893 -0.007217 0.003269 0.555739 -3.28809 2.40656 
-0.001787 -0.010472 -0.001871 -1.89542 -0.326942 -1.30733 
-0.00437 -0.009508 -0.000519 -0.581663 -2.24971 -1.19596 
-0.003669 -0.009892 0.001268 -3.85786 -3.2274 2.32651 
-0.00204 -0.010565 0.002155 -3.34737 -4.11278 2.7148 
-0.007948 -0.010809 -0.005629 -3.0113 1.51147 -2.99253 
-0.007502 -0.010607 -0.005756 -1.41964 1.60491 -0.712293 
-0.007182 -0.010961 -0.005909 1.40354 1.05005 -1.94814 
-0.00749 -0.011173 -0.005889 0.0252882 -0.75631 -2.54746 
-0.000397 -0.009458 -0.000585 -0.663526 -0.976471 -0.334302 
-0.000706 -0.009817 0.00123 -0.335949 -2.95809 1.92976 
-0.00275 -0.010771 -0.001446 -3.21845 -1.33934 -1.25294 
-0.000765 -0.011252 -0.002803 -1.29104 -0.40321 -0.982334 
-0.000713 -0.012762 0.000321 -3.77233 -4.21637 1.97956 
-0.002178 -0.011557 -0.00016 -3.70743 -3.17881 -0.164927 
0.000386 -0.010834 -0.001558 0.637335 -1.54251 0.743628 
0.000161 -0.011577 -0.000225 -2.12262 -3.53795 1.83205 
0.005448 0.000413 -0.001675 0.603588 -0.270615 -5.31132 
0.004783 -0.001956 -0.001039 1.90298 0.172975 -5.24066 
0.006363 -0.001217 0.002229 1.4855 -2.65774 -0.475747 
0.006878 0.000622 0.002661 4.38013 -2.20501 3.4077 
0.010668 -0.008997 -0.003542 -0.0263656 -3.16247 -2.67486 
0.010214 -0.00863 -0.004017 -1.09224 -1.56863 -1.44394 
0.010889 -0.007625 -0.00397 0.788646 0.774601 -3.52979 
0.011116 -0.008293 -0.003749 1.83351 0.029594 -1.70283 
0.005107 0.002924 -0.001474 0.634271 3.18946 -2.20281 
0.006614 0.002571 0.001891 3.03135 1.50499 2.49387 
0.007862 0.001341 -0.002517 0.199095 1.24063 -0.513267 
0.007339 -0.000524 -0.002016 0.277445 1.02997 -0.521171 
0.008583 5.8e-005 0.000557 2.13489 0.639992 2.65938 
0.008989 0.001506 0.001094 3.06359 0.445023 4.24967 
0.007594 0.003318 -0.002359 0.278925 2.61612 0.591995 
0.008781 0.00304 0.000291 1.52245 3.16478 3.26381 
0.000908 0.006581 0.002061 4.07744 -0.0800276 3.00514 
-0.000883 0.007065 0.002939 2.01703 3.57714 3.52244 
0.002086 0.006106 -0.000489 0.16943 2.36384 2.42466 
-0.002177 0.00674 0.002018 -1.34856 2.49459 3.23564 
-0.006977 0.000936 -0.001795 -1.05689 0.57574 -5.35349 
-0.006841 0.002297 -0.000782 -0.458661 3.77624 -5.42015 
-0.009818 0.001717 0.00223 -0.214864 3.95514 2.88375 
-0.009921 0.000649 0.003026 -2.82977 3.2378 4.17446 
-0.007345 -0.00147 -0.001 -1.80967 -2.77665 -1.86954 
-0.009403 -0.000447 0.001697 -3.16493 -0.299743 3.00797 
-0.00094 0.006544 -0.000695 -1.68593 2.58613 -0.217369 
-0.00333 0.006875 -0.000665 -2.12827 3.18398 2.29081 
-0.009142 0.000773 -0.001822 -1.74371 1.85704 -0.625134 
-0.009776 0.001793 -0.001423 -3.06176 1.26964 -0.950894 
-0.012219 0.001213 0.001049 -2.46023 2.97415 3.93595 
-0.011558 0.000486 0.001894 -3.36739 2.62291 4.17775 
-0.015736 0.006275 -0.005031 -2.08678 2.88846 -2.77196 
-0.015005 0.006056 -0.005771 -0.0583684 1.39944 -1.52826 
-0.015629 0.005461 -0.005408 -0.518698 -2.04657 -2.00368 
-0.0161 0.005617 -0.004848 -1.52506 -0.980414 -1.10992 
-0.009287 -0.001299 -0.001239 -1.84057 -0.434617 0.408739 
-0.011133 -0.00061 0.001044 -2.52296 -0.293929 3.30176 
-0.000748 0.010628 -0.002622 1.74033 1.11574 -0.760739 
-0.002796 0.010679 -0.002958 1.46711 0.327175 -0.654389 
-0.002872 0.012336 -0.000671 2.50219 3.8247 3.86721 
-0.001678 0.011716 -0.00104 1.92072 2.98452 0.663647 
-0.004569 0.010627 -0.002823 -0.600358 1.40008 1.4015 
-0.003889 0.012015 -0.001221 1.15078 3.20067 3.3865 
-0.012962 0.000872 -0.001284 -0.470794 1.75159 -0.240766 
-0.013024 -0.000486 -0.001749 0.330015 1.49461 0.0631531 
-0.014142 -0.000216 5e-005 -3.93526 2.90259 3.32915 
-0.013771 0.000725 -0.000295 -2.6539 2.20854 0.530826 
-0.01272 -0.001882 -0.001595 -1.43542 -0.753429 1.59343 
-0.013581 -0.001435 -0.000539 -3.39869 1.32605 3.00646 
0.01006 -0.00013 -0.00224 -0.178192 1.28394 -0.0512952 
0.010445 0.001241 -0.002609 -1.02436 1.50491 0.167587 
0.011273 0.001362 0.000291 3.68976 0.528886 3.31925 
0.010974 0.000298 -0.000349 2.25114 0.632661 0.771368 
0.010248 0.002694 -0.002492 0.765518 3.4977 1.63037 
0.01112 0.00249 -0.000545 3.01258 1.85719 3.00065 
-0.006882 -0.009738 -6.5e-005 -1.88526 3.16858 -1.2361 
-0.006825 -0.010296 0.001357 -5.36953 2.21958 1.41632 
-0.005571 -0.010903 -0.000743 2.57476 0.112708 -2.51276 
-0.005758 -0.01152 0.000506 -0.518854 -0.825184 0.025128 
-0.008049 -0.011055 -0.002737 -0.889978 2.94628 0.298459 
-0.008468 -0.012995 -0.002328 -5.38385 1.99755 0.100798 
-0.006548 -0.012576 -0.003165 3.47517 0.122647 -2.01228 
-0.007569 -0.01371 -0.002838 -0.245781 -0.801368 -1.45582 
0.005363 -0.004497 -0.000233 -2.73747 -1.84474 -1.49083 
0.006034 -0.004535 0.002325 -4.04534 -3.80003 1.28723 
0.005738 -0.00264 -0.000672 2.70951 1.48733 -3.35167 
0.007153 -0.003278 0.001494 0.0332402 -0.081266 -0.457523 
0.005319 -0.006019 -0.0014 -1.50551 -0.232594 2.85008 
0.006552 -0.006464 0.000461 -1.61188 -0.862285 3.79681 
0.006345 -0.004069 -0.00126 0.213468 1.3347 1.20299 
0.007632 -0.004961 -0.000161 1.61333 1.01296 2.39603 
0.008849 -0.00718 -0.000301 -0.257826 -2.14718 2.53267 
0.007255 -0.006475 -0.001716 -0.349581 0.355226 1.29494 
0.008697 -0.004466 -0.001206 2.14964 1.96142 1.6934 
0.009903 -0.00552 -0.000789 1.50201 -0.728423 1.60079 
0.001091 0.002982 0.016301 3.36404 4.95905 0.0763681 
0.002596 0.001856 0.016301 3.5918 4.80553 0.0654189 
-0.000776 0.004048 0.017619 0.447053 5.30464 0.107582 
-0.002773 0.003154 0.018629 -3.70423 4.33481 0.11564 
-0.003768 0.00147 0.018629 -5.19623 2.99259 0.100398 
-0.00465 -7.8e-005 0.017619 -5.63563 1.25744 0.0962224 
-0.004641 -0.001628 0.016647 -5.13531 -2.31441 0.0643575 
-0.002814 -0.003498 0.016647 -2.86206 -5.00979 0.0492838 
-0.000869 -0.003925 0.017619 -0.249734 -5.86941 0.0952198 
0.000851 -0.003732 0.018657 2.40835 -5.16506 0.100176 
0.002542 -0.001946 0.018657 5.03892 -2.83399 0.0513778 
0.002978 -7.8e-005 0.017619 4.70567 1.67352 0.0309031 
0.000876 0.002841 0.07218 1.70852 2.46154 0.0120866 
0.002314 0.001766 0.07285 1.79512 2.40362 0.0128739 
-0.00078 0.003869 0.07218 0.636562 2.64004 0.00911045 
-0.002706 0.003111 0.07304 -1.62802 2.365 0.00514876 
-0.00372 0.001502 0.074213 -2.58472 1.52137 0.00293167 
-0.004544 -7.2e-005 0.074192 -2.75469 0.922336 0.00474818 
-0.004451 -0.001468 0.073421 -2.71338 -0.771775 0.00972664 
-0.002706 -0.003255 0.072307 -1.66646 -2.37033 0.0127409 
-0.000869 -0.003747 0.072307 -0.2819 -2.92429 0.013766 
0.000219 -0.003382 0.072583 1.03497 -2.72215 0.0195742 
0.002314 -0.001909 0.074189 2.27123 -1.7609 0.0191509 
0.002806 -7.2e-005 0.074061 2.53898 0.31737 0.0114093 
-0.001707 0.00913 0.001355 0.739254 3.07556 4.09484 
-0.002884 0.008917 0.000682 -0.279026 2.75782 4.23855 
-0.003598 0.008329 -0.001449 -0.27905 2.75781 4.23855 
-0.001706 0.00825 -0.001629 -0.279058 2.7578 4.23853 
0.000258 0.00925 -0.001824 -0.149852 4.37775 3.68179 
0.006955 0.013125 -0.003051 4.1075 1.44096 -1.36442 
0.007161 0.012562 -0.004013 2.48281 -0.340321 -0.969651 
0.005268 0.013535 -0.00453 0.47869 0.591812 -2.32561 
0.006252 0.01389 -0.003721 0.368838 2.21071 -0.0375829 
-0.00031 0.00873 0.000794 3.15353 2.51413 4.04063 
-0.010174 0.00552 -0.001868 1.84238 1.49268 -1.11419 
-0.011516 0.005616 -0.000254 2.48282 4.77769 2.00951 
-0.011829 0.004701 -0.001757 -0.850972 -1.96257 -3.25561 
-0.012702 0.004698 -0.000562 -0.391714 0.690536 -0.575519 
-0.012991 0.006503 -0.003642 1.94852 0.68559 -1.44649 
-0.014437 0.006935 -0.00218 0.616892 5.50061 -0.712685 
-0.014225 0.005325 -0.002925 0.255516 -4.93482 -1.75698 
-0.015156 0.005634 -0.001817 -1.23057 -0.490776 -1.10958 
0.003339 0.00671 -0.001086 0.864627 -4.0215 -1.37456 
0.003603 0.007584 0.000399 0.761014 -4.23205 3.5505 
0.002322 0.009756 -0.003363 -2.55671 2.536 1.0916 
0.002641 0.009682 -0.00089 -0.773357 2.90924 2.44863 
0.01096 0.009555 -0.005097 3.4705 -0.0298186 -1.72608 
0.010258 0.009925 -0.005625 0.598415 -1.42206 -1.62361 
0.009884 0.010761 -0.00531 0.181019 1.57539 -1.25149 
0.010518 0.009957 -0.004494 1.7197 2.20004 0.246228 
0.003082 0.010681 -0.00346 -1.33847 0.971394 1.0008 
0.005749 0.009617 -0.002661 0.678626 1.52525 1.63519 
0.003816 0.010779 -0.001486 -2.42303 3.19158 3.71923 
0.004797 0.009177 -0.000361 -0.959304 1.27982 5.70179 
0.006262 0.010903 -0.000624 1.92752 1.22087 2.70626 
0.006488 0.010685 -0.002465 -0.156503 -0.0962288 1.15675 
0.004099 0.011717 -0.003039 -2.24392 2.07218 2.49654 
0.005261 0.011993 -0.001579 0.329589 2.45408 2.47912 
0.006203 0.005344 -0.001894 0.067567 -3.53775 -1.662 
0.006468 0.006219 -0.000409 1.16471 -4.77922 1.65222 
0.007059 0.008618 -0.003268 -0.0144534 1.04202 -1.73097 
0.006469 0.007903 -0.001137 1.91341 -0.243458 1.63017 
0.009096 0.008248 -0.003397 0.0351831 -3.33068 -2.60276 
0.009732 0.008202 -0.002033 3.27876 -4.30338 -1.16912 
0.008424 0.009635 -0.0036 -1.23888 1.7163 -1.37232 
0.00896 0.009319 -0.002402 1.52074 1.41759 0.0433341 
3 0 1 2 
3 0 2 3 
3 4 5 6 
3 4 6 7 
3 5 8 9 
3 5 9 6 
3 10 11 12 
3 10 12 13 
3 14 15 16 
3 14 16 17 
3 15 18 19 
3 15 19 16 
3 20 21 22 
3 20 22 23 
3 24 25 26 
3 24 26 27 
3 25 28 29 
3 25 29 26 
3 30 31 32 
3 30 32 33 
3 34 35 36 
3 34 36 37 
3 35 38 39 
3 35 39 36 
3 1 0 40 
3 41 1 40 
3 10 41 40 
3 11 10 40 
3 42 11 40 
3 20 42 40 
3 21 20 40 
3 43 21 40 
3 30 43 40 
3 31 30 40 
3 44 31 40 
3 0 44 40 
3 45 46 47 
3 46 48 47 
3 48 49 47 
3 49 50 47 
3 50 51 47 
3 51 52 47 
3 52 53 47 
3 53 54 47 
3 54 55 47 
3 55 56 47 
3 56 57 47 
3 57 45 47 
3 3 2 58 
3 3 58 59 
3 2 60 61 
3 2 61 58 
3 60 13 62 
3 60 62 61 
3 13 12 63 
3 13 63 62 
3 12 64 65 
3 12 65 63 
3 64 23 66 
3 64 66 65 
3 23 22 67 
3 23 67 66 
3 22 68 69 
3 22 69 67 
3 68 33 70 
3 68 70 69 
3 33 32 71 
3 33 71 70 
3 32 72 73 
3 32 73 71 
3 72 3 59 
3 72 59 73 
3 21 43 74 
3 21 74 75 
3 68 22 76 
3 68 76 77 
3 22 21 75 
3 22 75 76 
3 43 30 78 
3 43 78 74 
3 30 33 79 
3 30 79 78 
3 33 68 77 
3 33 77 79 
3 75 74 80 
3 75 80 81 
3 77 76 82 
3 77 82 83 
3 84 85 86 
3 84 86 87 
3 74 78 88 
3 74 88 80 
3 78 79 89 
3 78 89 88 
3 79 77 83 
3 79 83 89 
3 90 91 25 
3 90 25 24 
3 92 93 27 
3 92 27 26 
3 93 90 24 
3 93 24 27 
3 91 94 28 
3 91 28 25 
3 94 95 29 
3 94 29 28 
3 95 92 26 
3 95 26 29 
3 31 44 96 
3 31 96 97 
3 72 32 98 
3 72 98 99 
3 100 101 102 
3 100 102 103 
3 44 0 104 
3 44 104 96 
3 0 3 105 
3 0 105 104 
3 3 72 99 
3 3 99 105 
3 97 96 106 
3 97 106 107 
3 99 98 108 
3 99 108 109 
3 98 97 107 
3 98 107 108 
3 96 104 110 
3 96 110 106 
3 104 105 111 
3 104 111 110 
3 105 99 109 
3 105 109 111 
3 60 2 112 
3 60 112 113 
3 2 1 114 
3 2 114 112 
3 13 60 113 
3 13 113 115 
3 11 42 116 
3 11 116 117 
3 64 12 118 
3 64 118 119 
3 12 11 117 
3 12 117 118 
3 42 20 120 
3 42 120 116 
3 20 23 121 
3 20 121 120 
3 23 64 119 
3 23 119 121 
3 41 122 114 
3 41 114 1 
3 10 123 122 
3 10 122 41 
3 13 115 123 
3 13 123 10 
3 117 116 124 
3 117 124 125 
3 119 118 126 
3 119 126 127 
3 128 129 130 
3 128 130 131 
3 116 120 132 
3 116 132 124 
3 120 121 133 
3 120 133 132 
3 121 119 127 
3 121 127 133 
3 134 135 5 
3 134 5 4 
3 136 137 7 
3 136 7 6 
3 137 134 4 
3 137 4 7 
3 135 138 8 
3 135 8 5 
3 138 139 9 
3 138 9 8 
3 139 136 6 
3 139 6 9 
3 140 141 15 
3 140 15 14 
3 142 143 17 
3 142 17 16 
3 143 140 14 
3 143 14 17 
3 141 144 18 
3 141 18 15 
3 144 145 19 
3 144 19 18 
3 145 142 16 
3 145 16 19 
3 146 147 35 
3 146 35 34 
3 148 149 37 
3 148 37 36 
3 149 146 34 
3 149 34 37 
3 147 150 38 
3 147 38 35 
3 150 151 39 
3 150 39 38 
3 151 148 36 
3 151 36 39 
3 83 82 93 
3 83 93 92 
3 89 83 92 
3 89 92 95 
3 88 89 95 
3 88 95 94 
3 80 88 94 
3 80 94 91 
3 81 80 91 
3 81 91 90 
3 82 81 90 
3 82 90 93 
3 76 75 152 
3 76 152 153 
3 75 81 154 
3 75 154 152 
3 81 82 155 
3 81 155 154 
3 82 76 153 
3 82 153 155 
3 153 152 156 
3 153 156 157 
3 152 154 158 
3 152 158 156 
3 154 155 159 
3 154 159 158 
3 155 153 157 
3 155 157 159 
3 157 156 85 
3 157 85 84 
3 156 158 86 
3 156 86 85 
3 158 159 87 
3 158 87 86 
3 159 157 84 
3 159 84 87 
3 32 31 160 
3 32 160 161 
3 31 97 162 
3 31 162 160 
3 97 98 163 
3 97 163 162 
3 98 32 161 
3 98 161 163 
3 161 160 164 
3 161 164 165 
3 160 162 166 
3 160 166 164 
3 162 163 167 
3 162 167 166 
3 163 161 165 
3 163 165 167 
3 168 169 101 
3 168 101 100 
3 169 170 102 
3 169 102 101 
3 170 171 103 
3 170 103 102 
3 171 168 100 
3 171 100 103 
3 111 109 148 
3 111 148 151 
3 110 111 151 
3 110 151 150 
3 106 110 150 
3 106 150 147 
3 107 106 147 
3 107 147 146 
3 108 107 146 
3 108 146 149 
3 109 108 149 
3 109 149 148 
3 167 165 168 
3 167 168 171 
3 166 167 171 
3 166 171 170 
3 164 166 170 
3 164 170 169 
3 165 164 169 
3 165 169 168 
3 59 58 172 
3 59 172 173 
3 58 61 174 
3 58 174 172 
3 61 62 175 
3 61 175 174 
3 62 63 176 
3 62 176 175 
3 63 65 177 
3 63 177 176 
3 65 66 178 
3 65 178 177 
3 66 67 179 
3 66 179 178 
3 67 69 180 
3 67 180 179 
3 69 70 181 
3 69 181 180 
3 70 71 182 
3 70 182 181 
3 71 73 183 
3 71 183 182 
3 73 59 173 
3 73 173 183 
3 173 172 184 
3 173 184 185 
3 172 174 186 
3 172 186 184 
3 174 175 187 
3 174 187 186 
3 175 176 188 
3 175 188 187 
3 176 177 189 
3 176 189 188 
3 177 178 190 
3 177 190 189 
3 178 179 191 
3 178 191 190 
3 179 180 192 
3 179 192 191 
3 180 181 193 
3 180 193 192 
3 181 182 194 
3 181 194 193 
3 182 183 195 
3 182 195 194 
3 183 173 185 
3 183 185 195 
3 115 113 196 
3 115 196 197 
3 123 115 197 
3 123 197 198 
3 122 123 198 
3 122 198 199 
3 114 122 199 
3 114 199 200 
3 201 202 203 
3 201 203 204 
3 113 112 205 
3 113 205 196 
3 127 126 143 
3 127 143 142 
3 133 127 142 
3 133 142 145 
3 132 133 145 
3 132 145 144 
3 124 132 144 
3 124 144 141 
3 125 124 141 
3 125 141 140 
3 126 125 140 
3 126 140 143 
3 118 117 206 
3 118 206 207 
3 117 125 208 
3 117 208 206 
3 125 126 209 
3 125 209 208 
3 126 118 207 
3 126 207 209 
3 207 206 210 
3 207 210 211 
3 206 208 212 
3 206 212 210 
3 208 209 213 
3 208 213 212 
3 209 207 211 
3 209 211 213 
3 211 210 129 
3 211 129 128 
3 210 212 130 
3 210 130 129 
3 212 213 131 
3 212 131 130 
3 213 211 128 
3 213 128 131 
3 196 205 137 
3 196 137 136 
3 197 196 136 
3 197 136 139 
3 198 197 139 
3 198 139 138 
3 199 198 138 
3 199 138 135 
3 200 199 135 
3 200 135 134 
3 205 200 134 
3 205 134 137 
3 112 114 214 
3 112 214 215 
3 114 200 216 
3 114 216 214 
3 200 205 217 
3 200 217 216 
3 205 112 215 
3 205 215 217 
3 218 219 220 
3 218 220 221 
3 214 216 222 
3 214 222 223 
3 216 217 224 
3 216 224 222 
3 217 215 225 
3 217 225 224 
3 226 227 202 
3 226 202 201 
3 227 228 203 
3 227 203 202 
3 228 229 204 
3 228 204 203 
3 229 226 201 
3 229 201 204 
3 224 225 226 
3 224 226 229 
3 222 224 229 
3 222 229 228 
3 223 222 228 
3 223 228 227 
3 225 223 227 
3 225 227 226 
3 215 214 230 
3 215 230 231 
3 214 223 232 
3 214 232 230 
3 223 225 233 
3 223 233 232 
3 225 215 231 
3 225 231 233 
3 231 230 234 
3 231 234 235 
3 230 232 236 
3 230 236 234 
3 232 233 237 
3 232 237 236 
3 233 231 235 
3 233 235 237 
3 235 234 219 
3 235 219 218 
3 234 236 220 
3 234 220 219 
3 236 237 221 
3 236 221 220 
3 237 235 218 
3 237 218 221 
