ply
format ascii 1.0
comment VCGLIB generated
element vertex 369
property float x
property float y
property float z
property float nx
property float ny
property float nz
element face 714
property list uchar int vertex_indices
end_header
-0.054385 0.027725 0.000714 -0.503159 0.860378 -0.080966 
-0.033329 0.028866 0.006337 0.166234 0.882077 0.440718 
-0.036996 0.027742 -0.004091 0.167425 0.859401 -0.483047 
-0.039447 0.025219 0.007221 -0.167547 0.705191 0.688894 
-0.041036 0.022397 -0.010054 0.004273 0.543931 -0.839076 
-0.059377 0.020914 0.000109 -0.691397 0.715476 -0.099948 
-0.039429 0.02024 0.015271 0.079867 0.414228 0.906644 
-0.056913 0.017519 0.011248 -0.560411 0.676473 0.477767 
-0.021038 0.021485 -0.000456 0.73986 0.648 -0.180761 
-0.06385 0.014722 -0.006558 -0.63979 0.450087 -0.622944 
-0.02899 0.024429 0.008589 0.48088 0.545854 0.686117 
-0.062531 0.008987 0.008498 -0.652547 0.170782 0.738212 
-0.058404 0.014314 0.014519 -0.573168 0.249611 0.78048 
-0.068899 0.011517 0.003647 -0.865902 0.376446 0.329356 
-0.047345 0.014639 -0.010642 -0.389447 0.487259 -0.781579 
-0.035392 0.010548 0.0134 0.109043 0.178472 0.977874 
-0.024447 0.014231 0.008785 0.446944 0.524155 0.724876 
-0.067551 0.003976 -0.003091 -0.882931 0.088565 -0.461013 
-0.014192 0.004925 0.009439 0.841609 0.212317 0.496567 
-0.010485 -0.005859 0.000478 0.99649 0.031465 -0.077334 
-0.048276 0.009703 -0.014466 -0.190344 0.266335 -0.944884 
-0.021527 0.004849 -0.010602 0.519639 0.219245 -0.825739 
-0.054108 0.005331 0.013031 -0.246742 0.160192 0.955718 
-0.061137 0.00176 -0.008571 -0.467971 0.096988 -0.878384 
-0.029503 -0.002195 -0.013342 0.422346 0.079379 -0.902921 
-0.020836 0.007874 0.014804 0.457869 0.357616 0.813898 
-0.026331 0.004064 0.016861 0.106143 -0.02884 0.993927 
-0.049306 -0.0008 0.017338 -0.180456 0.09769 0.978698 
-0.049721 -0.004749 -0.012735 -0.682974 0.038392 -0.729423 
-0.068463 -0.001709 0.003465 -0.930754 0.048189 0.362377 
-0.066154 -0.011258 -0.00932 -0.544542 -0.196997 -0.815241 
-0.033252 0.00047 0.014835 0.030488 -0.045961 0.998474 
-0.062684 -0.011763 0.009637 -0.498703 -0.045015 0.865566 
-0.033667 -0.000807 -0.017234 0.415021 0.326548 -0.849178 
-0.052394 -0.012891 0.013735 -0.156957 -0.382061 0.910703 
-0.013418 -0.008628 -0.00549 0.775201 -0.072329 -0.627522 
-0.024803 -0.003717 0.013048 0.288675 -0.06595 0.955138 
-0.040139 -0.011195 0.01526 -0.092349 -0.15952 0.982849 
-0.069049 -0.014135 -0.004946 -0.836726 -0.308359 -0.452528 
-0.050225 -0.022604 -0.014263 -0.180853 -0.555162 -0.811823 
-0.015898 -0.001896 0.00894 0.651601 -0.067263 0.755547 
-0.068531 -0.017304 0.006151 -0.805841 -0.219062 0.550066 
-0.057296 -0.01397 -0.01043 -0.402387 -0.152043 -0.902737 
-0.016785 -0.021228 -0.005837 0.834223 -0.183203 -0.520066 
-0.067585 -0.02232 0.001696 -0.778222 -0.627308 -0.028657 
-0.037246 -0.021551 -0.013518 0.030152 -0.248634 -0.968108 
-0.025962 -0.021072 -0.013137 0.361278 -0.156011 -0.919279 
-0.014509 -0.0097 0.00984 0.746055 -0.002441 0.665853 
-0.029815 -0.014099 0.016563 0.080111 -0.019227 0.996582 
-0.059515 -0.021622 0.008867 -0.330363 -0.338786 0.880917 
-0.058633 -0.025313 -0.007884 -0.61565 -0.333506 -0.71392 
-0.046621 -0.019072 0.008186 -0.198737 -0.30726 0.930631 
-0.063045 -0.024753 0.003343 -0.70397 -0.638325 0.311319 
-0.021336 -0.019205 0.014984 0.401715 -0.324625 0.856258 
-0.022709 -0.029723 0.007133 0.242592 -0.447676 0.860622 
-0.038438 -0.023494 0.014056 -0.230018 -0.312601 0.921598 
-0.01822 -0.030404 0.00601 0.659536 -0.523667 0.539201 
-0.051241 -0.031691 0.008647 -0.249336 -0.235206 0.93939 
-0.038156 -0.036553 -0.009042 0.011811 -0.697226 -0.716727 
-0.056769 -0.036935 0.003479 -0.568865 -0.781365 0.256508 
-0.057463 -0.033807 -0.004304 -0.590014 -0.62157 -0.515244 
-0.01774 -0.031356 -0.003117 0.764336 -0.56151 -0.316965 
-0.040109 -0.03187 0.010278 -0.070559 -0.153966 0.985534 
-0.037899 -0.039061 0.009667 0.104312 -0.662648 0.7416 
-0.036262 -0.040991 0.002332 0.165197 -0.986145 -0.013703 
-0.022834 -0.042953 0.000867 0.963622 0.264351 -0.038789 
-0.023862 -0.055259 0.00416 0.883297 -0.384472 0.268197 
-0.026996 -0.050269 -0.005439 0.624958 -0.150945 -0.765893 
-0.028376 -0.051028 0.009392 0.435194 -0.097964 0.894955 
-0.030291 -0.039545 0.008951 0.351756 0.44084 0.82577 
-0.02913 -0.061797 0.000182 0.585101 -0.78692 -0.195807 
-0.029617 -0.036418 -0.003392 0.499283 0.599414 -0.625599 
-0.039286 -0.064438 0.005977 0.15244 -0.798761 0.581988 
-0.031071 -0.033232 0.002584 0.373577 0.897366 0.234748 
-0.03459 -0.052275 0.00907 0.022095 -0.159886 0.986877 
-0.044503 -0.032997 -0.005009 -0.146611 0.809473 -0.568529 
-0.045839 -0.065723 0.000729 -0.147465 -0.97882 -0.141881 
-0.033779 -0.04505 -0.008023 0.252327 0.158116 -0.954619 
-0.038741 -0.060178 -0.00576 0.16129 -0.60271 -0.781457 
-0.039789 -0.04361 0.010603 0.017945 0.213385 0.976775 
-0.052363 -0.041326 -0.007904 -0.296487 0.363384 -0.883175 
-0.049039 -0.034574 0.004051 -0.233619 0.90231 0.362224 
-0.041048 -0.052681 -0.009644 0.125217 -0.185492 -0.974609 
-0.043447 -0.05759 0.00809 0.098056 -0.221839 0.970122 
-0.053422 -0.055525 -0.007245 -0.284677 -0.355663 -0.890194 
-0.05271 -0.058358 0.009224 -0.239265 -0.423688 0.873592 
-0.057855 -0.03868 -0.003985 -0.50856 0.633351 -0.58327 
-0.054544 -0.040273 0.009085 -0.417585 0.45439 0.786828 
-0.062899 -0.047156 0.00611 -0.846431 0.119907 0.518754 
-0.059457 -0.059267 0.003968 -0.674856 -0.617878 0.403424 
-0.061423 -0.047208 -0.004846 -0.74865 0.107303 -0.654164 
-0.059141 -0.037723 0.001124 -0.683737 0.717551 0.132572 
-0.060048 -0.059468 -0.001377 -0.703574 -0.619861 -0.347453 
0.057831 0.02995 0.000611 0.951598 0.147069 -0.269784 
0.054506 0.00849 0.003121 0.994934 -0.076754 -0.064425 
0.051463 0.009196 -0.009667 0.722434 -0.351604 -0.595355 
0.057191 0.030251 0.005007 0.801996 0.221107 0.554857 
0.052035 0.011458 0.008937 0.874355 0.125675 0.468642 
0.055434 0.035605 0.000189 0.620197 0.745842 -0.242958 
0.050749 0.022427 -0.008049 0.644459 0.202399 -0.737327 
0.052028 0.033343 0.006795 0.729545 0.403241 0.552385 
0.051359 0.001688 -0.000861 0.806635 -0.398846 -0.43614 
0.055584 0.003064 0.007805 0.953459 -0.277261 0.118381 
0.050074 0.037471 -0.000164 0.687765 0.68865 -0.22953 
0.053911 0.006006 0.012609 0.69161 0.086337 0.717063 
0.050106 0.015495 0.016861 0.805872 0.00351 0.592029 
0.045989 0.031587 0.015468 0.625599 0.112735 0.771905 
0.046038 0.042131 0.013311 0.593585 0.689962 0.414167 
0.048737 0.013966 -0.013167 0.475356 -0.003906 -0.879757 
0.044073 -0.01122 -0.000886 0.635823 -0.771752 -0.010926 
0.043506 0.042694 0.005243 0.639332 0.763176 0.093722 
0.04301 0.044227 -0.008694 0.607746 0.706778 -0.362011 
0.041013 0.021841 -0.013695 0.493973 0.067873 -0.866787 
0.0492 -0.001657 0.010687 0.417463 -0.624378 0.660176 
0.046268 0.006986 0.014903 0.32139 -0.371838 0.870876 
0.040406 0.041919 0.017228 0.059389 0.62508 0.778283 
0.041526 0.044809 -0.004252 0.599261 0.792718 -0.111515 
0.043332 0.038447 -0.011284 0.574664 0.237281 -0.783227 
0.042652 0.006433 -0.012243 0.34373 -0.351451 -0.870785 
0.045721 0.012308 0.019237 0.28135 -0.272591 0.920042 
0.03551 0.043561 0.010571 0.098575 0.604816 0.790216 
0.036725 0.054392 0.008152 0.445387 0.619373 0.646504 
0.036868 0.055062 0.003782 0.544969 0.810083 -0.216132 
0.04221 -0.009953 -0.004684 0.478988 -0.542558 -0.690054 
0.035478 -0.005627 0.010938 0.463393 -0.569811 0.67861 
0.032729 0.008891 0.016842 0.147496 -0.157262 0.97647 
0.040141 0.024123 0.018315 0.088931 0.099765 0.990997 
0.03004 0.050802 -0.004258 0.232734 0.771722 -0.591815 
0.038222 0.045266 -0.011412 0.253243 0.653584 -0.713187 
0.03884 -0.014709 -0.001201 0.303018 -0.952635 0.025239 
0.033151 -0.013643 0.001698 0.341807 -0.853511 0.393231 
0.029399 0.01872 0.0181 0.133183 -0.050691 0.989776 
0.034244 0.033867 -0.014483 0.203986 0.404401 -0.891507 
0.037893 0.02741 -0.015506 0.523972 0.170812 -0.834407 
0.031187 -0.006945 -0.009674 0.240822 -0.577197 -0.780267 
0.029399 0.033527 0.016371 0.089785 0.304971 0.948088 
0.030554 0.056784 0.005322 -0.113742 0.969207 0.218238 
0.026105 0.043062 -0.01127 0.125736 0.440931 -0.888668 
0.024801 0.004728 -0.016015 0.30958 -0.321757 -0.894742 
0.026788 -0.00909 0.018639 0.399915 -0.476516 0.782922 
0.022923 0.038897 0.015878 0.151402 0.469283 0.86993 
0.026276 0.04898 0.00927 -0.021149 0.553301 0.832698 
0.030721 0.03062 -0.019096 0.153081 0.422651 -0.893246 
0.033918 0.025368 -0.018812 0.353526 0.022309 -0.935148 
0.030288 -0.014629 -0.000304 0.162297 -0.927976 -0.335429 
0.028088 -0.016528 0.007964 0.523453 -0.816767 0.2425 
0.029399 -0.00045 0.019126 0.531449 -0.069765 0.844203 
0.022923 -0.001456 0.021271 -0.055361 -0.019684 0.99826 
0.022735 0.052433 -0.004278 0.171941 0.97879 0.111179 
0.02301 0.034433 -0.014863 0.022187 0.435377 -0.89996 
0.022923 0.013351 0.018758 0.142033 -0.159886 0.976836 
0.020787 0.028515 0.021882 0.162511 0.249336 0.95465 
0.024129 0.02311 0.020773 0.382519 -0.047456 0.922697 
0.022993 0.052955 0.004131 -0.155766 0.933042 0.324198 
0.018118 0.054876 -0.007357 0.29078 0.879818 -0.375958 
0.010487 0.051703 -0.012227 -0.11185 0.523209 -0.844813 
0.026667 0.02418 -0.019204 0.075442 0.063784 -0.995086 
0.021576 -0.018355 0.005476 0.072756 -0.996734 -0.034639 
0.019581 0.007946 0.018678 -0.027894 0.009522 0.999542 
0.017403 0.023246 0.022712 -0.033082 -0.039491 0.998657 
0.009238 0.047393 0.012028 0.049532 0.458449 0.887326 
0.015991 0.053756 0.004215 0.262703 0.903806 0.337748 
0.015855 0.029734 -0.016597 0.040651 0.388745 -0.920438 
0.021662 0.014737 -0.022712 0.347789 -0.029908 -0.937071 
0.023075 -0.007683 -0.013868 0.226417 -0.606922 -0.761803 
0.011454 -0.011773 -0.010655 0.032472 -0.640339 -0.767388 
0.013413 -0.017308 -0.000648 0.186254 -0.947661 -0.259224 
0.021886 -0.016992 0.011775 0.028901 -0.864986 0.5009 
0.020412 -0.010408 0.018275 -0.236427 -0.494552 0.83636 
0.013998 0.028649 0.020559 -0.23426 0.24659 0.940367 
0.012793 0.03947 0.016136 -0.028932 0.429792 0.902432 
0.018035 0.008696 -0.022354 0.060457 -0.39668 -0.915952 
0.012793 -0.002029 0.016392 -0.155889 -0.237037 0.958892 
0.009388 0.013215 0.019224 0.035096 -0.12363 0.991699 
0.011577 0.053924 0.008352 0.464461 0.533372 0.706931 
0.007348 0.055876 -0.006632 -0.194922 0.868526 -0.455672 
0.001763 0.027632 -0.019157 -0.039064 0.062929 -0.997223 
0.015546 0.003662 -0.017374 -0.04355 -0.489303 -0.870998 
0.007567 -0.019799 0.000309 0.071993 -0.996612 -0.039247 
0.00983 -0.015772 0.008293 0.010681 -0.901151 0.433332 
0.013539 -0.013635 0.011136 -0.21662 -0.573748 0.78985 
0.006004 0.01872 0.019222 -0.104251 0.011933 0.994476 
0.006004 0.03455 0.017272 -0.003601 0.284768 0.958556 
-0.001145 0.057731 0.008889 -0.355419 0.779778 0.515366 
0.006287 0.058073 0.005168 0.162999 0.97647 0.141026 
0.005495 0.040952 -0.013648 -0.100497 0.391247 -0.914762 
0.001764 0.033001 -0.018487 0.098575 0.312754 -0.94467 
0.003023 -0.002693 -0.012953 -0.085513 -0.458571 -0.884518 
0.003405 -0.014026 0.012287 -0.088046 -0.677206 0.730491 
0.006004 -0.001774 0.017348 0.123386 -0.356883 0.925932 
0.002662 0.038897 0.015593 0.011567 0.484115 0.874905 
-0.003284 0.055457 0.001867 -0.555834 0.787927 -0.264931 
0.002475 0.046974 -0.009412 -0.329325 0.5627 -0.758202 
-0.006687 0.033504 -0.018552 -0.588092 0.352672 -0.727836 
0.002731 0.009698 -0.017801 -0.118351 -0.138249 -0.983276 
0.002646 0.004485 -0.016999 0.008362 -0.315104 -0.949004 
-0.000397 -0.005662 0.015238 -0.144627 -0.494827 0.856838 
-0.010807 -0.009121 -0.007771 -0.334666 -0.737541 -0.586474 
0.004572 -0.015597 -0.007328 -0.146886 -0.756584 -0.637165 
0.000514 0.001277 0.019842 0.061708 -0.302103 0.951262 
0.000514 0.006145 0.02089 -0.067446 -0.042055 0.996826 
-0.003814 0.045106 0.011043 -0.266579 0.540452 0.797998 
-0.007272 0.048849 -0.003928 -0.315531 0.850917 -0.419935 
-0.007349 0.035614 -0.013642 -0.395062 0.420392 -0.816797 
-0.007629 0.01687 -0.017599 -0.194098 0.01062 -0.980895 
-0.009 0.002483 -0.017112 -0.30195 -0.427473 -0.852077 
0.000743 -0.017858 0.000396 -0.416913 -0.905118 -0.083193 
-0.010759 0.029834 0.021674 -0.145878 -0.019471 0.989105 
-0.010759 0.034394 0.020692 -0.165258 0.441633 0.881832 
-0.007163 0.050128 0.003975 -0.637318 0.720664 0.272805 
-0.008646 0.044635 -0.01039 -0.175359 0.621326 -0.763634 
-0.003203 -0.012118 0.011333 -0.393658 -0.673086 0.626057 
-0.012715 0.001934 0.013852 -0.490219 -0.35728 0.794977 
-0.006909 0.000233 0.019324 -0.441664 -0.354289 0.824244 
-0.005777 0.0068 0.0185 -0.323649 0.032655 0.945585 
-0.009882 0.01872 0.017681 -0.280648 -0.176946 0.943327 
-0.013852 0.011672 -0.015223 -0.384259 -0.13657 -0.913053 
-0.00764 -0.002524 -0.01187 -0.166753 -0.576373 -0.799982 
-0.012869 -0.009625 0.00375 -0.369396 -0.906278 0.205359 
-0.012718 -0.006729 0.007828 -0.385235 -0.617634 0.685598 
-0.016565 0.036901 0.015447 -0.688009 0.575365 0.442213 
-0.018026 0.036385 0.010762 -0.645985 0.377544 0.663411 
-0.019617 0.044642 -0.005809 -0.540544 0.670095 -0.508682 
-0.015819 0.039858 -0.010891 -0.414655 0.312632 -0.854579 
-0.022428 0.016867 -0.014198 -0.466048 -0.250069 -0.848659 
-0.013726 0.004775 -0.014559 -0.531449 -0.304025 -0.790613 
-0.016565 0.02894 0.019054 -0.680624 -0.017151 0.732414 
-0.02466 0.041007 0.007114 -0.635212 0.311533 0.706687 
-0.023703 0.044311 0.004149 -0.554216 0.79754 0.238166 
-0.017883 0.031606 -0.011347 -0.462142 0.282937 -0.840419 
-0.020535 -0.000122 0.008824 -0.448683 -0.213538 0.867763 
-0.012715 0.009895 0.016242 -0.428938 -0.138707 0.892605 
-0.020935 -0.007706 -0.002011 -0.586413 -0.745781 -0.31605 
-0.022186 -0.005693 0.007387 -0.4626 -0.619617 0.634053 
-0.020206 0.022307 0.012847 -0.567705 -0.010712 0.823145 
-0.027264 0.03975 0.002008 -0.955779 0.289773 -0.05005 
-0.026482 0.020654 -0.011872 -0.716208 0.079745 -0.693258 
-0.02615 0.015325 -0.008742 -0.760704 -0.340556 -0.552568 
-0.026471 0.032998 -0.002285 -0.862178 0.292215 -0.4138 
-0.026291 -0.001586 0.005755 -0.868892 -0.25016 0.427045 
-0.02423 0.027092 0.00964 -0.480789 0.263894 0.836146 
-0.026184 0.018688 0.009668 -0.461989 -0.103092 0.880825 
-0.026342 0.034005 0.003915 -0.885525 0.214026 0.412305 
-0.029826 0.011334 -0.000509 -0.91821 -0.321574 -0.231208 
-0.031282 0.025561 0.007048 -0.812067 0.345256 0.470382 
-0.03244 0.019031 0.002681 -0.989563 -0.028596 -0.141026 
-0.03184 0.019093 0.007849 -0.745109 -0.156743 0.648244 
-0.029921 0.012 0.004031 -0.832698 -0.432569 0.345622 
0.034703 -0.018914 0.000714 0.859615 0.504471 -0.080966 
0.035875 -0.039968 0.006337 0.882351 -0.164922 0.440718 
0.034746 -0.036303 -0.004091 0.859645 -0.166112 -0.483047 
0.03222 -0.033856 0.007221 0.704947 0.168615 0.688894 
0.029395 -0.032272 -0.010054 0.543962 -0.003449 -0.839076 
0.027885 -0.013933 0.000109 0.714438 0.692496 -0.099948 
0.02724 -0.033881 0.015271 0.41435 -0.079257 0.906644 
0.024493 -0.016401 0.011248 0.675619 0.561449 0.477767 
0.028512 -0.052271 -0.000456 0.649098 -0.738884 -0.180761 
0.021686 -0.009469 -0.006558 0.44911 0.640461 -0.622944 
0.031445 -0.044314 0.008589 0.546587 -0.480056 0.686117 
0.015952 -0.010796 0.008498 0.169805 0.652791 0.738243 
0.021285 -0.014915 0.014519 0.248756 0.573534 0.78048 
0.018473 -0.004425 0.003647 0.375134 0.866451 0.329356 
0.021627 -0.025974 -0.010642 0.486679 0.39021 -0.781549 
0.017554 -0.037933 0.0134 0.178625 -0.108768 0.977874 
0.021254 -0.048872 0.008785 0.524827 -0.44615 0.724876 
0.010934 -0.005784 -0.003091 0.087252 0.883053 -0.461043 
0.011964 -0.059141 0.009439 0.213599 -0.841273 0.496567 
0.001185 -0.062864 0.000478 0.032991 -0.996429 -0.077334 
0.01669 -0.025051 -0.014466 0.26606 0.190741 -0.944884 
0.011876 -0.051807 -0.010602 0.220038 -0.519333 -0.825739 
0.012309 -0.019225 0.013031 0.159825 0.246986 0.955718 
0.008727 -0.012201 -0.008571 0.096286 0.468123 -0.878384 
0.00482 -0.043841 -0.013342 0.08002 -0.422224 -0.902921 
0.014902 -0.052494 0.014804 0.358287 -0.45732 0.813898 
0.011084 -0.047003 0.016861 -0.028657 -0.106174 0.993927 
0.006186 -0.024036 0.017338 0.097415 0.180578 0.978698 
0.002236 -0.023627 -0.012735 0.037385 0.683004 -0.729423 
0.005247 -0.00488 0.003465 0.046785 0.930845 0.362377 
-0.004298 -0.007204 -0.00932 -0.197851 0.544237 -0.815241 
0.007479 -0.040088 0.014835 -0.04593 -0.030549 0.998474 
-0.004798 -0.010675 0.009637 -0.045778 0.498642 0.865566 
0.006202 -0.039675 -0.017234 0.327158 -0.414533 -0.849178 
-0.00591 -0.020966 0.013735 -0.382275 0.156377 0.910703 
-0.001589 -0.059936 -0.00549 -0.071139 -0.775323 -0.627522 
0.003305 -0.048544 0.013048 -0.065523 -0.288766 0.955138 
-0.004196 -0.033218 0.01526 -0.159673 0.092105 0.982849 
-0.007179 -0.004313 -0.004946 -0.30961 0.836238 -0.452528 
-0.01562 -0.02315 -0.014263 -0.555437 0.179998 -0.811792 
0.00514 -0.057446 0.00894 -0.066317 -0.651692 0.755547 
-0.010348 -0.004836 0.006151 -0.220283 0.805536 0.550066 
-0.006997 -0.016066 -0.01043 -0.152654 0.402173 -0.902737 
-0.014194 -0.056588 -0.005837 -0.181951 -0.834498 -0.520066 
-0.015363 -0.005789 0.001696 -0.628468 0.777276 -0.028657 
-0.014548 -0.036127 -0.013518 -0.248573 -0.030519 -0.968108 
-0.014051 -0.047411 -0.013137 -0.155461 -0.361522 -0.919279 
-0.002662 -0.058846 0.00984 -0.001312 -0.746055 0.665853 
-0.007084 -0.043547 0.016563 -0.019105 -0.080142 0.996582 
-0.014653 -0.013859 0.008867 -0.339274 0.329875 0.880917 
-0.018342 -0.014746 -0.007884 -0.334452 0.615162 -0.71392 
-0.012083 -0.026748 0.008186 -0.307566 0.198279 0.930631 
-0.017789 -0.010334 0.003343 -0.639393 0.703024 0.311289 
-0.012177 -0.052034 0.014984 -0.324015 -0.402203 0.856258 
-0.022698 -0.050676 0.007133 -0.44731 -0.243263 0.860622 
-0.016492 -0.034938 0.014055 -0.312967 0.22956 0.921598 
-0.023372 -0.055167 0.00601 -0.522691 -0.660329 0.539201 
-0.024709 -0.022147 0.008647 -0.235572 0.24897 0.93939 
-0.02955 -0.03524 -0.009042 -0.697195 -0.012879 -0.716727 
-0.029961 -0.016627 0.003479 -0.78222 0.567675 0.256508 
-0.026834 -0.015929 -0.004304 -0.622456 0.589068 -0.515244 
-0.024323 -0.055648 -0.003117 -0.56035 -0.76516 -0.316965 
-0.024871 -0.03328 0.010278 -0.154057 0.070315 0.985534 
-0.032059 -0.0355 0.009667 -0.662465 -0.105289 0.74163 
-0.033986 -0.037141 0.002332 -0.9859 -0.166692 -0.013703 
0.056146 -0.03943 0.000867 0.58507 -0.810022 -0.038789 
0.044259 -0.042775 0.00416 -0.050813 -0.962004 0.268197 
0.047836 -0.038093 -0.005439 0.077425 -0.638264 -0.765893 
0.046642 -0.037066 0.009392 0.06061 -0.441939 0.894986 
0.056727 -0.031251 0.008951 0.536088 -0.175115 0.82577 
0.036291 -0.04013 0.000182 -0.532212 -0.823634 -0.195807 
0.059892 -0.030788 -0.003392 0.73629 -0.257759 -0.625599 
0.03026 -0.031543 0.005977 -0.694784 -0.422468 0.581988 
0.062367 -0.02831 0.002584 0.971374 -0.035707 0.234748 
0.043297 -0.031682 0.00907 -0.142003 -0.076693 0.986877 
0.057884 -0.015646 -0.005009 0.70687 0.420789 -0.568529 
0.026761 -0.025854 0.000729 -0.968474 -0.204596 -0.141881 
0.050349 -0.029912 -0.008023 0.236457 -0.181005 -0.954619 
0.034442 -0.030561 -0.00576 -0.508042 -0.362133 -0.781457 
0.049594 -0.023778 0.010603 0.206153 0.057894 0.976775 
0.047329 -0.0112 -0.007904 0.236549 0.40495 -0.883175 
0.054818 -0.011949 0.004051 0.76339 0.534776 0.362224 
0.040656 -0.025775 -0.009644 -0.129887 -0.182257 -0.974609 
0.035217 -0.025246 0.00809 -0.173467 -0.169561 0.970122 
0.033659 -0.01518 -0.007245 -0.432813 0.142094 -0.890194 
0.031255 -0.016839 0.009224 -0.480667 0.075747 0.873592 
0.047885 -0.005129 -0.003985 0.415143 0.698141 -0.58327 
0.047552 -0.008788 0.009085 0.279366 0.550279 0.786828 
0.038179 -0.003372 0.00611 -0.184057 0.834834 0.518784 
0.028041 -0.010838 0.003968 -0.815088 0.415754 0.403424 
0.038647 -0.004773 -0.004846 -0.161626 0.738853 -0.654164 
0.048331 -0.003589 0.001124 0.432661 0.89172 0.132572 
0.027645 -0.010355 -0.001377 -0.826991 0.441939 -0.347423 
0.040061 0.062715 0.000867 -0.561876 0.826289 -0.038789 
0.052037 0.065723 0.00416 0.078005 0.960173 0.268197 
0.04833 0.061144 -0.005439 -0.059328 0.640187 -0.765893 
0.049494 0.060083 0.009392 -0.048067 0.443495 0.894955 
0.039248 0.054556 0.008951 -0.530931 0.190222 0.82577 
0.059928 0.062854 0.000182 0.555315 0.808222 -0.195807 
0.036072 0.054183 -0.003392 -0.728721 0.278512 -0.625599 
0.065713 0.054099 0.005977 0.706473 0.402631 0.581988 
0.033528 0.051776 0.002584 -0.96997 0.063173 0.234779 
0.052685 0.054607 0.00907 0.144139 0.072634 0.986877 
0.03765 0.03899 -0.005009 -0.718497 -0.400586 -0.568529 
0.069049 0.048313 0.000729 0.973907 0.177099 -0.141881 
0.045586 0.053037 -0.008023 -0.231239 0.187628 -0.954619 
0.061505 0.053235 -0.00576 0.518113 0.347606 -0.781457 
0.046167 0.046884 0.010603 -0.207709 -0.052034 0.976775 
0.048075 0.034247 -0.007904 -0.247902 -0.398114 -0.883175 
0.04061 0.035208 0.004051 -0.778222 -0.512955 0.362224 
0.055158 0.048627 -0.009644 0.135014 0.178503 -0.974609 
0.060579 0.047945 0.00809 0.178198 0.164556 0.970122 
0.061852 0.037839 -0.007245 0.428632 -0.154302 -0.890194 
0.064302 0.039429 0.009224 0.478317 -0.089328 0.873623 
0.047348 0.028195 -0.003985 -0.434736 -0.686117 -0.58327 
0.047784 0.031843 0.009085 -0.294839 -0.542131 0.786828 
0.056999 0.026163 0.00611 0.160344 -0.839717 0.518754 
0.067345 0.033339 0.003968 0.802972 -0.438673 0.403424 
0.056571 0.027577 -0.004846 0.140629 -0.743126 -0.654164 
0.046858 0.026668 0.001124 -0.457747 -0.879116 0.132603 
0.067727 0.032845 -0.001377 0.814142 -0.465194 -0.347453 
3 0 1 2 
3 1 0 3 
3 4 0 2 
3 5 0 4 
3 6 3 7 
3 3 0 7 
3 0 5 7 
3 2 1 8 
3 4 9 5 
3 1 10 8 
3 3 10 1 
3 3 6 10 
3 7 11 12 
3 7 5 11 
3 5 13 11 
3 5 9 13 
3 4 14 9 
3 4 2 8 
3 10 15 16 
3 10 6 15 
3 7 12 6 
3 9 17 13 
3 8 18 19 
3 8 16 18 
3 10 16 8 
3 6 12 15 
3 14 20 9 
3 8 21 4 
3 12 22 15 
3 12 11 22 
3 9 20 23 
3 4 21 24 
3 8 19 21 
3 18 16 25 
3 17 9 23 
3 14 4 20 
3 24 20 4 
3 16 15 25 
3 15 26 25 
3 22 11 27 
3 23 20 28 
3 22 27 15 
3 11 13 29 
3 13 17 29 
3 17 23 30 
3 15 31 26 
3 27 11 32 
3 28 30 23 
3 20 24 33 
3 31 15 27 
3 27 32 34 
3 11 29 32 
3 35 21 19 
3 26 36 25 
3 26 31 36 
3 37 31 27 
3 17 38 29 
3 17 30 38 
3 20 39 28 
3 20 33 39 
3 18 40 19 
3 25 40 18 
3 25 36 40 
3 31 37 36 
3 27 34 37 
3 32 29 41 
3 29 38 41 
3 30 28 42 
3 42 28 39 
3 24 21 43 
3 38 44 41 
3 38 30 42 
3 33 45 39 
3 33 24 45 
3 45 24 46 
3 43 46 24 
3 21 35 43 
3 47 40 36 
3 38 42 44 
3 19 40 47 
3 47 36 48 
3 36 37 48 
3 32 49 34 
3 50 44 42 
3 39 50 42 
3 37 34 51 
3 34 49 51 
3 32 41 49 
3 41 44 52 
3 52 44 50 
3 39 45 50 
3 48 53 47 
3 47 53 54 
3 48 37 55 
3 55 37 51 
3 49 41 52 
3 19 56 35 
3 47 56 19 
3 51 49 57 
3 50 45 58 
3 45 46 58 
3 43 35 56 
3 47 54 56 
3 52 59 49 
3 52 60 59 
3 50 60 52 
3 60 50 58 
3 48 54 53 
3 49 59 57 
3 43 56 61 
3 62 51 57 
3 43 61 46 
3 51 62 55 
3 48 55 62 
3 62 57 63 
3 60 64 59 
3 57 59 63 
3 60 58 64 
3 61 58 46 
3 56 64 61 
3 61 64 58 
3 54 48 62 
3 56 54 64 
3 54 62 63 
3 64 63 59 
3 64 54 63 
3 65 66 67 
3 68 66 69 
3 66 65 69 
3 67 66 70 
3 67 71 65 
3 66 72 70 
3 66 68 72 
3 69 65 73 
3 65 71 73 
3 72 68 74 
3 71 75 73 
3 70 72 76 
3 68 69 74 
3 67 77 71 
3 70 78 67 
3 70 76 78 
3 78 77 67 
3 69 73 79 
3 71 77 80 
3 69 79 74 
3 79 73 81 
3 80 75 71 
3 77 78 82 
3 83 74 79 
3 77 82 80 
3 74 83 72 
3 73 75 81 
3 82 84 80 
3 82 78 84 
3 76 84 78 
3 85 72 83 
3 75 80 81 
3 76 72 85 
3 83 79 85 
3 86 81 80 
3 79 81 87 
3 80 84 86 
3 85 79 88 
3 88 79 87 
3 85 89 76 
3 86 84 90 
3 81 86 91 
3 76 89 92 
3 88 87 81 
3 76 92 84 
3 86 88 91 
3 81 91 88 
3 86 90 88 
3 92 90 84 
3 89 88 92 
3 92 88 90 
3 89 85 88 
3 93 94 95 
3 94 96 97 
3 93 98 96 
3 99 93 95 
3 97 96 100 
3 100 96 98 
3 95 94 101 
3 101 94 102 
3 98 93 99 
3 100 98 103 
3 94 104 102 
3 94 97 104 
3 105 97 106 
3 97 100 106 
3 106 100 107 
3 100 103 107 
3 103 98 99 
3 99 95 108 
3 101 102 109 
3 103 110 107 
3 99 111 103 
3 99 108 112 
3 102 113 109 
3 102 104 113 
3 97 114 104 
3 97 105 114 
3 106 107 115 
3 103 116 110 
3 116 103 111 
3 99 117 111 
3 95 118 108 
3 95 101 118 
3 104 114 113 
3 114 105 119 
3 119 105 106 
3 107 120 115 
3 107 110 120 
3 110 121 120 
3 110 122 121 
3 110 116 122 
3 99 112 117 
3 108 118 112 
3 118 101 123 
3 123 101 109 
3 113 114 124 
3 114 125 124 
3 114 119 125 
3 106 115 126 
3 116 127 122 
3 111 128 116 
3 117 128 111 
3 123 109 129 
3 109 130 129 
3 109 124 130 
3 113 124 109 
3 119 106 126 
3 126 115 131 
3 116 128 127 
3 128 117 132 
3 112 133 117 
3 117 133 132 
3 123 134 118 
3 119 126 131 
3 115 135 131 
3 115 120 135 
3 121 122 136 
3 136 122 127 
3 128 132 137 
3 118 134 138 
3 123 129 134 
3 130 124 139 
3 125 119 131 
3 140 120 141 
3 120 121 141 
3 121 136 141 
3 127 128 137 
3 132 133 142 
3 112 143 133 
3 133 143 142 
3 112 118 143 
3 138 143 118 
3 129 130 144 
3 130 139 145 
3 139 124 146 
3 124 125 146 
3 125 147 146 
3 135 120 140 
3 136 127 148 
3 137 132 149 
3 132 142 149 
3 129 144 134 
3 139 146 147 
3 125 131 150 
3 135 151 152 
3 135 140 151 
3 141 136 153 
3 136 148 153 
3 148 127 154 
3 127 137 154 
3 154 137 155 
3 142 143 156 
3 156 143 138 
3 144 130 157 
3 130 145 157 
3 125 158 147 
3 125 150 158 
3 150 131 152 
3 131 135 152 
3 152 151 159 
3 140 141 160 
3 153 148 161 
3 161 148 154 
3 149 155 137 
3 149 142 162 
3 162 142 156 
3 156 138 163 
3 138 134 164 
3 164 134 165 
3 144 166 134 
3 144 157 166 
3 145 167 157 
3 139 167 145 
3 139 168 167 
3 147 168 139 
3 150 152 159 
3 159 151 169 
3 151 170 169 
3 140 170 151 
3 140 160 170 
3 153 161 141 
3 141 161 160 
3 149 162 155 
3 163 138 171 
3 165 134 166 
3 147 172 168 
3 147 158 172 
3 150 173 158 
3 173 150 159 
3 161 174 160 
3 154 175 161 
3 154 155 175 
3 156 176 162 
3 156 163 176 
3 138 177 171 
3 164 177 138 
3 165 166 178 
3 157 179 166 
3 167 179 157 
3 167 180 179 
3 168 180 167 
3 168 172 180 
3 158 173 172 
3 159 169 181 
3 181 169 182 
3 169 170 182 
3 160 174 183 
3 161 184 174 
3 174 184 183 
3 161 175 184 
3 155 162 185 
3 185 162 186 
3 162 176 186 
3 163 171 176 
3 177 164 187 
3 178 166 179 
3 180 188 179 
3 173 189 172 
3 172 189 180 
3 159 181 173 
3 182 170 190 
3 170 160 190 
3 175 191 184 
3 175 155 192 
3 192 155 185 
3 185 186 193 
3 176 193 186 
3 171 194 176 
3 176 194 193 
3 171 177 194 
3 194 177 195 
3 187 195 177 
3 164 165 187 
3 196 180 189 
3 183 184 191 
3 175 192 191 
3 165 197 187 
3 165 198 197 
3 165 178 198 
3 178 179 188 
3 196 189 199 
3 189 173 199 
3 199 173 200 
3 173 181 200 
3 160 201 190 
3 202 191 192 
3 193 203 185 
3 193 194 204 
3 204 194 205 
3 194 195 205 
3 195 187 205 
3 178 206 198 
3 178 188 206 
3 188 180 196 
3 181 182 207 
3 190 208 182 
3 182 208 207 
3 190 201 208 
3 160 183 201 
3 183 191 209 
3 209 191 202 
3 202 192 210 
3 185 210 192 
3 185 203 210 
3 193 204 203 
3 188 211 206 
3 196 211 188 
3 211 196 212 
3 199 213 196 
3 196 213 212 
3 200 181 214 
3 214 181 215 
3 215 181 207 
3 201 183 209 
3 204 205 216 
3 205 187 217 
3 187 197 217 
3 206 218 198 
3 211 218 206 
3 211 212 219 
3 199 214 213 
3 200 214 199 
3 208 201 220 
3 220 201 221 
3 202 210 222 
3 210 223 222 
3 203 223 210 
3 203 204 224 
3 204 216 224 
3 205 225 216 
3 205 217 225 
3 197 198 218 
3 211 219 218 
3 207 226 215 
3 207 208 226 
3 208 220 226 
3 209 227 201 
3 209 228 227 
3 209 222 228 
3 202 222 209 
3 223 203 229 
3 229 203 224 
3 217 197 225 
3 219 212 230 
3 214 212 213 
3 214 231 212 
3 214 215 231 
3 201 227 221 
3 222 223 229 
3 197 218 232 
3 218 219 233 
3 234 226 221 
3 226 220 221 
3 222 235 228 
3 236 224 237 
3 224 216 237 
3 197 232 225 
3 232 218 233 
3 233 219 230 
3 226 234 215 
3 222 229 238 
3 224 236 229 
3 216 225 237 
3 239 232 233 
3 231 215 234 
3 234 221 240 
3 228 235 227 
3 222 238 235 
3 212 231 230 
3 231 234 241 
3 234 240 241 
3 221 242 240 
3 221 227 242 
3 227 235 242 
3 229 236 238 
3 232 237 225 
3 239 243 232 
3 232 243 237 
3 239 233 230 
3 230 231 241 
3 242 235 238 
3 240 244 241 
3 240 242 244 
3 245 238 236 
3 239 230 243 
3 244 246 241 
3 236 237 245 
3 230 241 247 
3 247 241 246 
3 238 244 242 
3 238 245 244 
3 243 230 247 
3 244 245 246 
3 243 245 237 
3 243 247 245 
3 94 93 96 
3 245 247 246 
3 248 249 250 
3 249 248 251 
3 252 248 250 
3 253 248 252 
3 254 251 255 
3 251 248 255 
3 248 253 255 
3 250 249 256 
3 252 257 253 
3 249 258 256 
3 251 258 249 
3 251 254 258 
3 255 259 260 
3 255 253 259 
3 253 261 259 
3 253 257 261 
3 252 262 257 
3 252 250 256 
3 258 263 264 
3 258 254 263 
3 255 260 254 
3 257 265 261 
3 256 266 267 
3 256 264 266 
3 258 264 256 
3 254 260 263 
3 262 268 257 
3 256 269 252 
3 260 270 263 
3 260 259 270 
3 257 268 271 
3 252 269 272 
3 256 267 269 
3 266 264 273 
3 265 257 271 
3 262 252 268 
3 272 268 252 
3 264 263 273 
3 263 274 273 
3 270 259 275 
3 271 268 276 
3 270 275 263 
3 259 261 277 
3 261 265 277 
3 265 271 278 
3 263 279 274 
3 275 259 280 
3 276 278 271 
3 268 272 281 
3 279 263 275 
3 275 280 282 
3 259 277 280 
3 283 269 267 
3 274 284 273 
3 274 279 284 
3 285 279 275 
3 265 286 277 
3 265 278 286 
3 268 287 276 
3 268 281 287 
3 266 288 267 
3 273 288 266 
3 273 284 288 
3 279 285 284 
3 275 282 285 
3 280 277 289 
3 277 286 289 
3 278 276 290 
3 290 276 287 
3 272 269 291 
3 286 292 289 
3 286 278 290 
3 281 293 287 
3 281 272 293 
3 293 272 294 
3 291 294 272 
3 269 283 291 
3 295 288 284 
3 286 290 292 
3 267 288 295 
3 295 284 296 
3 284 285 296 
3 280 297 282 
3 298 292 290 
3 287 298 290 
3 285 282 299 
3 282 297 299 
3 280 289 297 
3 289 292 300 
3 300 292 298 
3 287 293 298 
3 296 301 295 
3 295 301 302 
3 296 285 303 
3 303 285 299 
3 297 289 300 
3 267 304 283 
3 295 304 267 
3 299 297 305 
3 298 293 306 
3 293 294 306 
3 291 283 304 
3 295 302 304 
3 300 307 297 
3 300 308 307 
3 298 308 300 
3 308 298 306 
3 296 302 301 
3 297 307 305 
3 291 304 309 
3 310 299 305 
3 291 309 294 
3 299 310 303 
3 296 303 310 
3 310 305 311 
3 308 312 307 
3 305 307 311 
3 308 306 312 
3 309 306 294 
3 304 312 309 
3 309 312 306 
3 302 296 310 
3 304 302 312 
3 302 310 311 
3 312 311 307 
3 312 302 311 
3 313 314 315 
3 316 314 317 
3 314 313 317 
3 315 314 318 
3 315 319 313 
3 314 320 318 
3 314 316 320 
3 317 313 321 
3 313 319 321 
3 320 316 322 
3 319 323 321 
3 318 320 324 
3 316 317 322 
3 315 325 319 
3 318 326 315 
3 318 324 326 
3 326 325 315 
3 317 321 327 
3 319 325 328 
3 317 327 322 
3 327 321 329 
3 328 323 319 
3 325 326 330 
3 331 322 327 
3 325 330 328 
3 322 331 320 
3 321 323 329 
3 330 332 328 
3 330 326 332 
3 324 332 326 
3 333 320 331 
3 323 328 329 
3 324 320 333 
3 331 327 333 
3 334 329 328 
3 327 329 335 
3 328 332 334 
3 333 327 336 
3 336 327 335 
3 333 337 324 
3 334 332 338 
3 329 334 339 
3 324 337 340 
3 336 335 329 
3 324 340 332 
3 334 336 339 
3 329 339 336 
3 334 338 336 
3 340 338 332 
3 337 336 340 
3 340 336 338 
3 337 333 336 
3 341 342 343 
3 344 342 345 
3 342 341 345 
3 343 342 346 
3 343 347 341 
3 342 348 346 
3 342 344 348 
3 345 341 349 
3 341 347 349 
3 348 344 350 
3 347 351 349 
3 346 348 352 
3 344 345 350 
3 343 353 347 
3 346 354 343 
3 346 352 354 
3 354 353 343 
3 345 349 355 
3 347 353 356 
3 345 355 350 
3 355 349 357 
3 356 351 347 
3 353 354 358 
3 359 350 355 
3 353 358 356 
3 350 359 348 
3 349 351 357 
3 358 360 356 
3 358 354 360 
3 352 360 354 
3 361 348 359 
3 351 356 357 
3 352 348 361 
3 359 355 361 
3 362 357 356 
3 355 357 363 
3 356 360 362 
3 361 355 364 
3 364 355 363 
3 361 365 352 
3 362 360 366 
3 357 362 367 
3 352 365 368 
3 364 363 357 
3 352 368 360 
3 362 364 367 
3 357 367 364 
3 362 366 364 
3 368 366 360 
3 365 364 368 
3 368 364 366 
3 365 361 364 
