ply
format ascii 1.0
comment VCGLIB generated
element vertex 81
property float x
property float y
property float z
property float nx
property float ny
property float nz
element face 122
property list uchar int vertex_indices
end_header
0.000297 0.000589 0 0.779653 2.09639 -1 
-2.8e-005 0.000937 0 0.730825 0.682565 -4 
-2.8e-005 0.000937 0.012795 1.46169 1.36509 -1 
0.000297 0.000589 0.012795 -0.633236 2.14516 0 
0.000289 0.000589 0.013763 1.5916 1.47895 3.86153 
-2.8e-005 0.00093 0.013763 0.755106 2.01673 1.80549 
-0.000369 0.000613 0.013763 -2.01751 0.754758 2.80545 
-5.2e-005 0.000272 0.013763 -0.96744 -0.900294 2.33453 
-5.2e-005 0.000264 0.012795 -2.14568 -0.631684 0 
-0.000377 0.000613 0.012795 -0.731838 -0.681478 -2 
-0.000377 0.000613 0 -1.46365 -1.36298 -2 
-5.2e-005 0.000264 0 -2.09591 0.781128 -2 
0.000297 0.000589 0.012795 1.59951 1.4887 -2.05556 
-2.8e-005 0.000937 0.012795 -0.459541 1.56391 -2.05435 
-1.7e-005 0.001226 0.013012 -0.0366861 3.59271 -1.2499 
0.000585 0.000578 0.013012 3.45376 3.2117 -0.721838 
-0.000377 0.000613 0.012795 -1.5627 -0.458632 -2.05495 
-0.000665 0.000623 0.013012 -3.59246 -0.0351264 -1.24805 
-5.2e-005 0.000264 0.012795 0.533171 0.496233 -2.05556 
-6.3e-005 -2.4e-005 0.013012 -0.352409 -0.328932 -0.193631 
0.000133 0.000534 0.014297 2.31808e-007 -8.842e-007 -2.37736e-007 
-0.000105 0.000784 0.014302 -1.58106e-007 9.64038e-007 -7.2764e-008 
-6.8e-005 0.000253 0.016313 4.19422e-006 7.50172e-007 7.17308e-007 
-0.000404 0.000599 0.016325 -5.14768e-007 2.80925e-006 2.58486e-007 
-0.000948 7.3e-005 0.019306 2.04744e-006 3.60254e-006 1.4101e-006 
-0.000628 -0.000248 0.019288 2.6129e-006 8.79819e-007 1.04437e-006 
-0.00051 0.000171 0.016187 -4.24131e-006 -4.06559e-006 -1.84856e-006 
-0.001675 -0.000912 0.021315 -1.46522e-006 -1.44159e-006 -1.98076e-007 
-0.001044 8.2e-005 0.018868 -4.22379e-006 1.77863e-006 -5.3726e-007 
-0.000624 -0.000342 0.018845 1.51683e-006 -4.39307e-006 -5.35863e-007 
-6.1e-005 0.000407 0.014297 -7.87753e-007 -4.63315e-007 -2.37723e-007 
0.000115 0.000705 0.014302 8.84695e-007 4.1403e-007 -7.3016e-008 
-0.000386 0.000525 0.016313 1.86021e-006 -3.83607e-006 7.17608e-007 
-0.000144 0.000942 0.016325 2.56068e-006 1.25715e-006 2.58264e-007 
-0.000798 0.001323 0.019306 4.01773e-006 -9.94927e-007 1.40848e-006 
-0.00102 0.000928 0.019288 1.55336e-006 -2.2784e-006 1.04424e-006 
-0.000585 0.000928 0.016187 -5.05838e-006 2.98397e-006 -1.8474e-006 
-0.001943 0.001756 0.021315 -1.78102e-006 1.02173e-006 -1.97747e-007 
-0.000815 0.001417 0.018868 5.67818e-007 4.54821e-006 -5.37223e-007 
-0.00111 0.000899 0.018845 -3.81733e-006 -2.65239e-006 -5.35485e-007 
-0.000325 0.000582 0.012683 -9.31388e-007 -8.90121e-008 1.42311e-007 
0.000409 0.000401 0.015221 -1.4003e-006 -1.98341e-006 4.67561e-007 
0.000362 0.00088 0.015213 -2.84806e-006 2.10727e-006 9.75323e-007 
0.001338 0.000489 0.017269 -7.7388e-007 -2.40481e-006 8.37822e-007 
0.001316 0.001013 0.016937 -4.30317e-008 3.17449e-006 2.10035e-007 
0.001487 0.000727 0.016858 2.85317e-006 -7.27966e-007 -1.33802e-006 
0.002636 0.000816 0.01859 1.36348e-007 5.85098e-008 8.3312e-008 
9.1e-005 0.000614 0.013273 3.00713e-006 -1.35072e-007 -1.37834e-006 
-7e-006 0.000915 0.012683 -2.56845e-007 8.98262e-007 1.61177e-007 
-0.00049 -1e-006 0.015121 -2.22328e-006 1.05837e-006 1.69168e-007 
-2.9e-005 0.000117 0.015198 1.43967e-006 3.06252e-006 1.43799e-006 
-0.000599 -0.001037 0.017115 -2.60342e-006 3.56226e-007 4.36513e-007 
-3.7e-005 -0.000917 0.016881 3.05206e-006 4.94922e-007 7.60096e-007 
-0.000276 -0.001123 0.016746 -4.14731e-008 -2.83759e-006 -1.55478e-006 
-0.000296 -0.002356 0.018422 6.4404e-008 -1.31796e-007 8.70921e-008 
-8e-006 0.000472 0.013253 5.68879e-007 -2.90091e-006 -1.49726e-006 
0.000498 0.000469 0.016253 -2.80564e-006 3.41652e-006 1.37378e-006 
-0.000152 0.000451 0.014277 -1.47897e-006 9.76842e-007 3.05221e-007 
0.000233 6.6e-005 0.016257 -3.18679e-006 5.32651e-007 9.22822e-007 
0.001069 -0.000549 0.019152 -3.84273e-006 1.12137e-006 1.76066e-006 
0.001313 -0.000167 0.019142 -1.33656e-006 2.2879e-006 1.29652e-006 
0.001324 -0.000439 0.018583 5.18617e-006 -3.42395e-006 -2.41752e-006 
0.002324 -0.001177 0.02104 4.5404e-007 -2.88696e-007 1.02224e-007 
0.00105 -0.000615 0.018709 -5.77522e-007 -2.67764e-006 -4.1928e-007 
0.001373 -0.000113 0.018696 2.33182e-006 1.53362e-006 -3.38084e-007 
0.000315 -8.9e-005 0.016186 1.22228e-006 -3.88144e-006 -1.27295e-006 
3e-005 0.000827 0.01356 2.31648e-006 -1.53601e-006 -1.11151e-006 
0.00067 0.00045 0.016181 1.71741e-006 1.93883e-006 -2.0188e-007 
6.4e-005 0.000393 0.012683 -2.40976e-007 1.35722e-006 -8.17318e-007 
3.5e-005 0.00095 0.014698 1.11215e-006 -8.9914e-007 4.15593e-007 
-0.000381 0.000767 0.014683 -2.28412e-007 -2.4283e-006 8.01138e-007 
-0.000299 0.001632 0.016335 1.79853e-006 7.39303e-008 6.39432e-007 
-0.000766 0.001477 0.016067 -2.23084e-006 -6.6781e-007 7.73969e-008 
-0.000561 0.001719 0.016017 -1.37853e-007 2.48581e-006 -1.19748e-006 
-0.000964 0.002616 0.017416 -7.2606e-008 7.82903e-008 8.1239e-008 
-0.000123 0.00074 0.006459 -1.22661e-006 5.63875e-007 3.13386e-007 
0.00079 5.7e-005 0.00967 -1.85599e-006 -2.02553e-006 4.02174e-007 
0.000963 0.00044 0.009658 1.96692e-007 2.80424e-006 5.29956e-007 
0.001062 0.000167 0.009367 1.66429e-006 -7.76118e-007 -7.77678e-007 
0.001869 -0.000238 0.010822 1.14729e-007 -4.91551e-008 8.5146e-008 
0.000222 0.000611 0.00645 1.10689e-006 -5.17303e-007 -5.52984e-007 
3 0 1 2 
3 0 2 3 
3 4 5 6 
3 4 6 7 
3 8 9 10 
3 8 10 11 
3 1 0 11 
3 1 11 10 
3 1 10 9 
3 1 9 2 
3 11 0 3 
3 11 3 8 
3 12 13 14 
3 12 14 15 
3 13 16 17 
3 13 17 14 
3 16 18 19 
3 16 19 17 
3 18 12 15 
3 18 15 19 
3 15 14 5 
3 15 5 4 
3 14 17 6 
3 14 6 5 
3 17 19 7 
3 17 7 6 
3 19 15 4 
3 19 4 7 
3 20 21 22 
3 22 21 23 
3 22 23 24 
3 22 24 25 
3 26 27 28 
3 29 27 26 
3 23 28 24 
3 29 22 25 
3 27 25 24 
3 29 26 22 
3 28 23 26 
3 23 21 26 
3 26 21 20 
3 22 26 20 
3 28 27 24 
3 29 25 27 
3 30 31 32 
3 32 31 33 
3 32 33 34 
3 32 34 35 
3 36 37 38 
3 39 37 36 
3 33 38 34 
3 39 32 35 
3 37 35 34 
3 39 36 32 
3 38 33 36 
3 33 31 36 
3 36 31 30 
3 32 36 30 
3 38 37 34 
3 39 35 37 
3 40 41 42 
3 42 41 43 
3 42 43 44 
3 45 46 43 
3 44 46 45 
3 40 47 41 
3 47 43 41 
3 40 42 47 
3 42 44 47 
3 46 44 43 
3 44 45 47 
3 43 47 45 
3 48 49 50 
3 50 49 51 
3 50 51 52 
3 53 54 51 
3 52 54 53 
3 48 55 49 
3 55 51 49 
3 48 50 55 
3 50 52 55 
3 54 52 51 
3 52 53 55 
3 51 55 53 
3 56 57 58 
3 56 58 59 
3 56 59 60 
3 61 62 63 
3 64 62 61 
3 57 65 58 
3 65 63 58 
3 58 63 59 
3 66 57 67 
3 67 57 56 
3 67 56 64 
3 64 56 60 
3 62 60 59 
3 64 61 67 
3 67 61 66 
3 63 65 61 
3 61 65 66 
3 65 57 66 
3 63 62 59 
3 64 60 62 
3 68 69 70 
3 70 69 71 
3 70 71 72 
3 73 74 71 
3 72 74 73 
3 72 68 70 
3 71 69 68 
3 74 72 71 
3 73 71 68 
3 72 73 68 
3 75 76 77 
3 78 79 76 
3 77 79 78 
3 75 80 76 
3 80 75 77 
3 79 77 76 
3 76 80 78 
3 77 78 80 
