ply
format ascii 1.0
comment VCGLIB generated
element vertex 451
property float x
property float y
property float z
property float nx
property float ny
property float nz
element face 826
property list uchar int vertex_indices
end_header
5.2725 0.646 6.1985 -12637.06 239874.3 -69286.92 
4.9985 0.306 7.014 -6875.856 150014.7 199870.8 
8.363 1.006 6.4375 6110.903 110608.4 224117.1 
8.684 1.1515 5.755 -20721.64 248577.1 -16735.78 
5.207 -0.323 7.1165 11930.88 -165909.1 186632.9 
8.268499 0.342 6.3635 33151.64 -194144.2 153977.4 
5.2555 -0.353 6.198 -3985.2 -208798.7 -137431 
7.843 0.1365 5.265 356.1044 -181764.4 -171643.8 
5.453 0.298 5.8795 -7639.259 47399.17 -245346.7 
8.364499 0.614 5.0285 -41433.91 106239.3 -222478 
-0.373 0.41 -4.0345 -151436.5 62677.89 -188781.7 
0.407 0.6635 -4.034 13245.58 166176 -186306.6 
0.18 0 -4.034 187.8968 1.455192e-06 -250000 
-0.373 -0.41 -4.0345 -106483 -125702.8 -188043.1 
0.407 -0.6635 -4.034 88531.98 -142873.3 -185065.7 
0.889 0 -4.0335 164582.4 39822.4 -183920.8 
26.8435 0.604 14.212 52089.79 176201.6 169527.8 
26.265 0.1545 14.253 -132644 82126.87 195347.8 
26.8305 -0.02 14.2165 19423.41 2007.125 249236.3 
26.478 -0.536 14.2475 -111857.9 -108239.2 195632.6 
27.19 -0.5135 14.1905 87714.47 -166644.6 164425.6 
27.4235 0.191 14.163 204195.8 18173.63 143086.7 
25.9555 0.3985 10.3895 -19212.11 92301.6 -231541.2 
25.5965 0.099 10.3685 -92813.55 988.2792 -232130.8 
24.862 0.3215 10.6575 -217230 46630.26 -114615.8 
25.9755 1.2575 10.736 -21115.52 210940.7 -132507.3 
25.7595 -0.361 10.381 -26499.12 -86253.32 -233148.4 
25.3765 -1.1165 10.7095 -100040.7 -189645.7 -128555.1 
26.216 -0.346 10.403 73605.54 -55242.25 -232444.7 
26.7745 -1.0695 10.7625 137773.4 -142150.5 -152681.8 
26.3435 0.1235 10.405 80528.16 49772.12 -231382.8 
27.2015 0.3975 10.747 178593.8 81357.17 -154871.9 
-0.731 0.6425 0.9895 -207849.3 111370.4 83038.2 
-0.731 -0.6425 0.9895 -140852.1 -196791.2 62721.13 
0.2615 -0.543 4.238 -170981.8 -156307.9 93984.49 
0.5055 0.2895 4.2615 -166397.2 150860.6 109786.6 
0.4915 -1.04 0.9899999 130523.6 -213013.3 9431.989 
0.817 -0.614 3.513 84776.66 -233173 -30713.33 
1.247 0 0.991 247977.3 22442.15 -22441.46 
1.3995 0.0305 3.4575 232611.8 -32126.01 -85788.83 
0.4915 1.04 0.9899999 26531.63 246226.3 34186.15 
1.214 0.7225 3.557 90841.52 232886.8 -3400.633 
16.2425 0.8485 5.591 -3442.733 249970.9 -1656.832 
16.446 0.667 4.8075 20933.19 127467.6 -214041.7 
16.135 0.2515 4.6015 22084.7 -161617.2 -189452.3 
16.036 -0.166 5.439 -10161.55 -214703.8 127667.7 
15.9705 0.346 5.9565 -19163.54 66522.47 240223.9 
24.0295 1.118 7.2425 11477.2 249682.4 -5195.155 
24.833 0.5205 7.124 138129.7 120011.4 -170345.1 
24.2625 -0.377 6.9845 99706.58 -205099.4 -102434.6 
23.356 0.0065 7.4195 -75736.4 -205705.4 120205.3 
23.5345 1.0855 7.661 -131024.1 108501.9 183194 
25.9555 0.3985 10.3895 85955.29 234661.1 6772.03 
26.3435 0.1235 10.405 224848.1 13142.04 -108492.7 
26.216 -0.346 10.403 56895.7 -239474.6 -43758.89 
25.7595 -0.361 10.381 -177083.2 -130001.8 119336 
25.5965 0.099 10.3685 -128041.1 162937.4 139846 
-0.731 0.6425 0.9895 -121720.4 145286 163021.9 
0.4915 1.04 0.9899999 106051.7 167766.9 152010.9 
0.668 1.8265 -0.001 81474.63 229863.4 54997.72 
-1.479 1.129 -0.0025 -192903.1 148211.3 57635.36 
-0.731 -0.6425 0.9895 -172521.6 -72641.82 165709 
-1.479 -1.129 -0.0025 -199622.8 -140103.5 54970.75 
0.4915 -1.04 0.9899999 17236.83 -193851.5 156921.9 
0.668 -1.8265 -0.001 73325.45 -233630.1 50402.42 
1.247 0 0.991 195892.4 -47472.71 147893.6 
1.995 0 0 244839.8 -3958.859 50377.11 
30.311 -2.8655 17.8305 -207431.5 -135674.5 -32629.08 
30.6765 -2.693 17.2235 -50781.9 -196204.6 -146372.7 
33.1365 -3.2065 18.495 -74116.95 -162269.7 175143.6 
33.1815 -3.064 17.924 -36464.34 -138864.5 -204663.2 
32.6195 -1.7595 18.3695 -8757.655 98564.45 229583 
34.0505 -0.903 17.9685 152776.1 42142.1 193348.2 
30.1515 -1.084 17.3535 -96196.79 42351.06 226831.6 
32.573 0.1275 17.941 -31663.42 192223 156677.3 
32.7295 0.0025 17.081 132460.6 163637.6 -134822 
34.234 -0.94 17.4715 180041 -54981.86 -164506.1 
32.832 -1.863 17.602 77807.48 -97740.64 -216547.4 
30.5505 -1.3695 16.5875 51272.76 -93993.21 -225912.4 
26.708 -0.351 13.939 59012.32 -34570.22 -240463 
26.4095 -0.1715 14.3935 -203639.1 60604.52 131750.7 
28.9605 0.4205 14.889 44877.79 201368.5 -141197.4 
29.544 0.2005 15.891 -66205.56 209285.3 119651.7 
28.1355 -2.165 15.124 -69004.11 -221004.2 -94316.48 
27.939 -2.1005 15.533 -139775.5 -182232.5 98763.02 
28.9235 -0.9445 15.33 109020.6 -97199.36 -202896 
28.6755 -0.767 15.828 -144006 52723.69 197439.9 
28.9315 -2.0525 16 -23484.72 -242068.4 57891.1 
34.504 -4.237 17.7935 -77041.13 -234521.4 -39552.42 
34.2435 -2.474 17.413 -48444.42 -30965.46 -243298.8 
37.1505 -3.4685 17.05 216615.5 -46323.39 -115896.1 
34.4985 -2.3405 18.5685 66480.05 22481.01 239948 
35.389 -1.39 17.413 36485.41 234760.7 -77821.91 
30.366 -2.8705 17.0695 94196.78 -220553.8 70590.38 
33.29 0.3635 13.6655 76381.55 -122633.9 204026.5 
33.119 -0.0995 13.2035 -49885.25 -241302.3 42245.86 
35.1845 1.0355 12.4965 91804.54 -215646.9 -86996.27 
31.514 1.2865 14.0365 10696.01 -14060.7 249375 
34.3545 2.011 13.608 101486.3 9547.249 228274.8 
32.105 2.564 13.8685 -7495.755 183743.7 169357.9 
34.277 3.409 13.011 92465.18 168832.3 -159517.6 
32.0195 2.4055 13.4315 -29455.47 110955.5 -222083.9 
31.397 1.2505 13.36 -32486.85 13888.19 -247490.9 
34.141 1.97 13.2945 -89598.73 20062.33 -232528.7 
29.579 2.242 13.341 12789.02 -8934.104 -249512.8 
26.4285 0.054 14.222 -199817.7 -32731.39 -146634.1 
29.7675 2.359 13.7805 101398.4 172036.4 150405.7 
26.5025 0.08 15.0285 -42706.38 2334.489 246314.3 
29.203 -0.8015 14.184 62788.51 -194445.2 144044.1 
28.988 -1.1005 13.484 -33192.56 -172841 -177550.7 
30.1955 -0.2665 13.838 82508.83 -155125.2 177844 
32.94 0.1045 13.4185 231665.6 -93973.66 -87.90064 
29.4025 0.781 14.3995 40178.65 -2082.579 246741.5 
30.1195 -0.355 13.019 34842.48 -149429 -197375.3 
29.261 0.7575 13.704 696.4885 14018.96 -249605.7 
28.0425 0.4255 14.166 -63665.59 4099.117 -241722.8 
28.1565 0.4565 14.555 55360.81 8666.666 243639.3 
36.101 2.4295 12.254 209336 40859.11 130418.5 
36.316 1.147 11.2845 84788.55 43473.32 -231129.8 
34.5285 3.7915 12.757 -184974.3 156097.5 62595.01 
35.549 3.3935 11.1415 -81193.57 206755 -114717 
35.5495 2.3085 11.9175 -196168.6 -50644.16 -146468.7 
36.738 2.613 9.115001 -27770.01 69056.87 -238662.9 
36.3035 1.0055 10.788 -39056.12 -222816 106431.4 
30.1955 2.741 13.538 -112516 220979.9 -31749.7 
31.156 3.109 14.7495 51028.63 -218373.5 110495 
30.948 2.903 13.99 102179.2 -180711.4 -139294 
32.536 5.53 14.1125 203487.5 -71033.88 126677 
32.1555 5.5095 13.719 -19573.96 -92055.28 -231609 
31.1755 5.6225 14.7795 43856.3 96035.07 226614 
30.6365 7.1405 14.2685 100017.5 193454.1 122768.1 
29.5145 3.51 15.165 77091.95 -11488.42 237539.2 
29.4875 6.248 15.2035 -122958.7 109016.2 188405.6 
29.448 6.008 14.5635 -178674.5 143447.4 -99991.5 
30.45 7.3145 13.6235 -24198.66 118368.7 -218868.2 
30.94 5.598 14.1145 22169.46 -870.924 -249013.6 
29.4715 3.573 14.2335 -45407.55 -27366.96 -244313.8 
26.39 0.151 14.024 -88105.46 -55758.63 -227218.9 
26.533 0.2375 14.3485 -68358.59 -123429.4 206379.1 
26.5645 2.6445 13.989 -236196.3 81898.68 1979.664 
27.7245 3.1525 14.608 -164443.9 70293.86 174691.2 
28.71 0.7965 13.748 94065.14 -173570.3 -153379 
28.9285 0.62 14.2465 147443.9 -200823.8 20739.92 
28.0765 2.0425 13.818 16396.47 3915.881 -249431 
28.1835 1.9235 15.0955 5863.377 -63502.25 241729.4 
29.422 1.6195 14.1515 181974.5 -149801.1 -83336.3 
33.386 6.15 12.588 128819.9 -181534.9 -113800.5 
31.869 6.7405 13.4285 -110234.3 -96794.45 -202433.4 
33.019 8.647 11.253 -31926.29 145530.2 -200752.8 
32.131 6.9895 13.836 118132.5 127758.5 179506.3 
31.269 7.842 13.121 -219493.6 118910 13528.49 
30.9415 2.889 14.161 243921.5 2149.232 -54751.28 
24.515 -5.479 16.3225 -213016.4 94079.74 90956.38 
24.3995 -5.4725 15.6365 -187529 128122.1 -104487.5 
24.4875 -7.7875 16.5705 -199091.2 -9865.257 -150882.1 
25.8515 -4.2175 16.2885 -83285.55 147275.7 184047.3 
25.136 -6.7945 17.9645 -95452.45 36482.85 228161.9 
26.732 -5.101 17.143 137666 74898.87 194777.5 
26.4105 -7.446 17.5335 150579.8 -194348.3 45326.5 
26.919 -5.484 16.3215 163166 -103670.5 -158522.3 
25.951 -4.346 15.9265 70385.34 -112374.5 -211938.4 
25.551 -6.9475 16.924 98998.53 -56964.76 -222383.3 
27.506 -3.273 15.348 146187.7 -112450.6 -168772.1 
26.8405 0.0555 14.066 112335.7 76052.36 -209992.3 
27.5655 -3.368 15.8435 113704.5 -82500.73 206796.8 
26.876 0.546 14.4515 -58912.58 183525.7 159209.5 
25.0285 -1.668 14.323 -232095.2 92870.78 2615.136 
25.217 -1.8455 13.815 -88623.49 23032.84 -232627.2 
24.993 -2.739 14.799 -221874.7 78283.41 84518.48 
24.6195 -5.166 15.802 -106234.9 -220041.7 52875.39 
26.21 -2.1655 15.615 -63526.9 109437.4 215610.3 
25.311 -3.1775 14.0065 -93780.3 -87425.13 -214620.9 
26.4565 -2.6215 14.593 88594.59 -168815.2 -161717.2 
26.6105 -1.316 14.1705 110470.4 -52963.76 -217924.7 
26.513 -1.116 14.7555 -76272.23 108610.8 211863.8 
25.051 -9.042001 17.3145 -103388.1 -104070.4 202435.8 
24.054 -9.618 15.921 -44839.13 -180096.2 -167495.8 
26.388 -8.0205 17.5075 235995.4 54267.46 62138.95 
26.4945 -9.684 16.602 242530.1 -56806.31 21265.52 
25.404 -8.654 16.366 88784.34 83058.73 -218445.9 
25.4125 -11.734 14.9555 40346.42 -169475.3 -179305.1 
24.336 -9.6125 15.683 -214044 111723.5 -64830.74 
27.2845 -3.9275 15.945 244145.8 49081.29 21997.25 
24.453 4.186 15.9425 219503.5 -16950.41 118452.2 
24.6175 4.2655 15.094 211233.5 117524.4 -63784.41 
22.3875 5.7495 15.5945 69232.03 135931.4 198064.7 
22.528 5.671 14.805 137731.1 48507.72 -202921.6 
22.0655 4.245 15.7555 -113873.5 -48199.86 217277.8 
20.5165 3.938 14.5785 -201505.7 47119.29 140268.5 
23.8075 2.52 15.4825 -18357.25 -24038.75 248163.6 
21.2985 2.482 15.197 -130128.8 -129274.4 169866.5 
21.4715 2.609 14.431 -141975.9 -118941.3 -167916.2 
20.2195 4.0075 13.758 -70662.19 108879.2 -213663.8 
22.101 4.2505 15.083 26431.07 52464.75 -242999.7 
23.776 2.6685 14.8495 68843.09 30359.52 -238409.2 
26.7745 -0.259 13.5875 38636.04 12773.96 -246666 
26.7785 -0.339 14.3655 131486.2 -121472.7 174515.9 
24.3385 -0.0595 13.4495 -82258.99 -188296 -142401.3 
23.925 0.6070001 14.72 -97380.98 -194611.2 123058.7 
26.228 2.2375 14.154 175190.8 147023.1 -100957.5 
26.348 2.179 14.6935 173452.5 139045.3 114370.7 
25.007 1.401 14.309 14516.19 103342.3 -227177.6 
25.1115 1.2075 15.1435 56433.11 -45836.62 239195.2 
25.3455 2.49 14.7405 127250.6 214440.3 -17962.39 
21.887 7.127 14.35 156094.6 193947.7 -22777.51 
21.108 5.3565 14.0395 113784 -58848.77 -214685.9 
18.981 7.156 12.5905 -132686.8 89696.34 -191960.5 
20.7475 5.543 15.1265 -140874 52659.32 199703.6 
19.71 5.009 13.576 -109471.1 -217024.4 -58451.06 
24.629 4.1995 15.2765 21437.47 248605.7 -15351.36 
21.959 -1.7105 13.9085 -18362.43 243357.3 54222.38 
22.162 -1.8285 13.281 -34482 221537 -110600 
20.5275 -3.715 12.804 -206973.1 80637.41 114716.1 
20.749 -3.4785 12.012 78333.12 120181.4 -204744.6 
21.699 -4.131 13.884 -122037.8 -97015.04 195435.1 
21.9905 -5.845 13.378 -128961.2 -210970.9 36882.81 
23.2515 -2.502 14.6785 -108995 21429.39 223966.3 
23.0055 -5.0545 14.4315 41705.88 -110827.1 220177.2 
23.2105 -5.008 13.831 158670.4 -145274.2 -127354.4 
22.2035 -5.5525 13.1445 87374.88 -70744.44 -223295.5 
21.939 -4.142 13.018 96937.84 -19806.8 -229588.3 
23.3195 -2.534 13.883 109716.1 32764.59 -222236.1 
26.607 0.2145 13.844 131722.9 -13128.36 -212077.2 
26.276 -0.0125 14.293 60257.09 103569.9 219413.7 
25.6625 -2.187 13.926 213317.7 -117205.1 -57083.8 
24.9305 -2.6845 14.698 128680.4 -86059.7 196303.6 
24.1195 0.1695 12.924 -83836.17 216707.2 -92246.94 
24.0565 0.368 13.896 -144316.6 177185.3 101381 
24.6015 -1.363 13.6985 21122 -15187.81 -248642.8 
24.6025 -1.3295 14.4505 -55853.6 79187.93 230455.4 
23.671 -0.817 13.6375 -222237.8 103518.1 -48932.55 
19.421 -4.113 10.9455 -179122.1 164748.5 -57212.23 
21.0145 -4.9655 12.0445 158085.4 58917.43 -184493.2 
19.0635 -6.439 9.4205 19268.47 -175251.9 -177244.2 
20.783 -5.1395 12.485 -162360.4 -109471.8 155419 
21.3785 -6.0865 11.8615 189754.1 -162675.5 5487.344 
22.359 -1.5855 13.3545 -232369.3 23053.07 -89292.02 
29.418 -5.8855 13.7505 -206533.8 -107344.4 91219.46 
29.582 -5.673 13.3595 -229132.7 10951.55 -99389.51 
30.8355 -7.2275 12.321 -205992.4 -88161.3 -110881.7 
29.888 -3.7985 13.956 -578.0128 -21642.46 249060.8 
31.5625 -6.3575 13.6475 62481.8 -102177.2 219444.5 
31.211 -3.971 13.681 176629.4 80304.04 157649.4 
32.9175 -5.723 12.691 207374 28359.56 -136717.9 
31.069 -3.9065 13.348 78382.22 94457.16 -217793.7 
29.81 -3.698 13.5315 -27761.11 23481.73 -247341.8 
31.3685 -5.9155 12.8355 -50867.75 113371.7 -216931.7 
29.998 -1.6265 13.526 30971.59 72642.64 -237200 
27.2665 0.272 14.6715 -87004.9 165991.6 -165459.9 
30.161 -1.732 13.755 229028 -9560.239 99773.82 
27.272 0.3515 15.136 3275.317 47136.26 245494.3 
27.0315 -2.401 14.3725 -216128.8 -107130.8 65660.91 
27.148 -2.1325 13.863 -145588.7 25522.21 -201624.8 
27.87 -3.1485 13.993 -144758.7 -139132.4 148953.4 
29.2185 -5.1645 13.4325 8310.116 -224495.1 -109694.6 
28.795 -2.0335 14.702 32976.44 -33271.56 245571.9 
27.965 -2.9065 13.406 -146943.9 -41852.09 -197878.5 
28.618 -1.784 13.4755 -1263.643 8185.086 -249862.8 
27.9305 -0.8165 14.35 -50617.44 93270.6 -226359.2 
27.9835 -0.8765 14.5495 39154.46 -33622.33 244615 
32.3 -7.5955 11.8855 112473.9 -194016 110487.3 
31.016 -8.5715 10.7885 -2331.201 -112426 -223282.3 
33.197 -5.7685 12.481 134431.1 206690.1 41322.02 
33.1755 -6.734 10.763 198644.5 112922.1 -101434.7 
31.799 -6.8975 11.3755 -123930.9 169629.9 -135524.3 
32.5705 -8.128 8.8175 57591.81 -38472.43 -240214.6 
31.147 -8.231 10.5535 -224381.3 -78328.77 77573.73 
30.735 -2.1485 13.533 194151.6 152667.4 -38701.6 
23.342 1.8135 17.0825 193458.7 117397.3 106262.2 
23.382 1.9985 16.613 109441.2 224301.4 -14544.26 
20.8955 1.8325 17.698 31634.4 150951.1 196756.3 
20.983 2.0985 16.9235 15923.66 84739.48 -234660.8 
21.595 0.7185 18.0035 -3702.505 -42040.43 246412.1 
20.2785 -0.4765 17.7505 -188614 -68874.24 148933.3 
23.808 0.4145 16.862 110113.8 16360.21 223846.7 
21.934 -1.034 17.7145 73731.45 -149425.4 186375.3 
21.8955 -0.9855 16.991 -109130 -181468 -132891 
20.499 -0.4295 17.196 -147808 14630.49 -201093.9 
21.5475 0.717 17.48 -82857.36 10375.64 -235641.7 
23.6545 0.4745 16.414 -76820.5 46958.14 -233224.3 
27.0235 -0.037 13.949 -33398.84 12817.84 -247427.3 
27.338 -0.086 14.431 217952.9 6238.4 122301.5 
25.176 -1.349 14.6215 4632.877 -213924.9 -129285.3 
24.737 -0.9845001 15.9315 103662.9 -169012.7 152278.5 
25.583 1.5635 14.73 44636.28 218273.2 -113421.5 
25.77 1.54 15.1205 115376.2 206411.2 81134.29 
24.986 0.289 14.9555 -129675.5 73832.06 -200582 
25.252 0.21 15.5355 144082.6 7102.265 204180.8 
24.926 1.388 15.6195 12836.48 244166.8 52132.77 
19.427 2.869 16.8385 -8622.021 248375.7 27114.38 
19.9695 0.993 16.965 60836.91 -22761.15 -241414.2 
17.22 1.3465 16.0505 -204679.9 -52833.58 -133472 
19.8405 0.9835001 17.585 -94474.22 -4278.328 231422.4 
19.1705 -0.08350001 16.7955 19546.01 -246585.9 -36240.72 
23.5695 2.113 16.585 -165485.7 173642 70448.27 
29.4985 3.5515 17.5425 199219.3 -97946.37 114970.4 
29.27 3.775 16.901 149925.2 -125839.4 -155521.4 
29.5535 6.089 16.883 198163.8 15438.29 -151633.8 
27.595 2.638 17.191 -116.5687 -160704.4 191504.9 
28.2975 5.3865 17.781 32076.78 24447.04 246725.5 
26.7855 3.7905 17.4785 -168837.8 497.2803 184373.5 
27.0665 6.5815 17.467 -71765.23 235180.2 -45166.74 
26.8745 4.0245 16.69 -84263.02 108438.7 -208903.8 
27.606 2.911 16.589 17450.22 88934.69 -232993.9 
28.2195 5.364 17.326 -31140.23 9931.675 -247854.1 
25.9995 2.5375 15.453 105393.9 203709.7 -99471.19 
26.4075 -0.0095 13.568 -15224.41 23846.29 -248394 
26.0675 2.1995 15.812 -162903.9 26231.48 187814.4 
26.224 -0.604 13.6985 -133814.6 -207476.9 39331.69 
28.3625 0.5445 15.3005 188228.4 -152877 60817 
28.453 0.8645 14.706 166891.4 49314.19 -179486.4 
28.234 1.507 15.778 124499.1 -135875.4 168931.5 
29.22 3.531 16.9195 178348 143365.1 100690 
27.048 1.222 15.7425 -17349.23 -158070.3 192906.2 
28.396 1.853 15.2365 178214.2 126452.1 -121448 
27.0695 1.394 15.444 27446.51 205234.1 -140091.7 
26.7655 0.7345 14.528 45564.08 173812.5 -173819.3 
26.674 0.3895 14.9375 -58748.33 -155424.2 186794 
28.7265 7.3245 16.901 56730.76 132370.1 204352.1 
30.242 7.661 16.0885 -27208.71 204275 -141532.5 
27.051 6.7055 17.349 -238530.4 -71917.8 20763.49 
27.908 7.988 16.155 -223133.1 100742 -50623.11 
28.667 7.0905 16.51 -54182 -119506.5 -212797 
29.088 9.7345 14.3805 -122930.6 157401.4 -150375.9 
30.2895 7.6225 15.685 158466.3 -180538.6 69240.8 
25.8305 2.7875 16.0965 -239379.4 -18274.76 -69739.18 
26.9415 -4.304 17.957 -232029.5 -889.1942 93067.49 
27.139 -4.349 17.5865 -206253 17804.66 -140152.4 
27.9275 -6.506 17.4605 -192574.6 -91538.83 -130520.9 
27.9075 -2.555 17.4325 -68467.8 123416.9 206350.3 
28.7885 -5.148 18.466 -6401.929 -1032.437 249915.9 
29.1885 -2.9915 17.716 128297.6 111937.6 183056.7 
30.536 -5.3505 17.8395 218466.3 -121457.8 4529.306 
29.433 -3.18 16.958 143374.1 -28968.67 -202742.9 
27.984 -2.7615 16.931 18243.61 -98877.35 -228889.6 
28.8605 -5.0785 17.6835 23254.2 -15637.04 -248424.5 
29.0135 -1.435 15.9455 85460.19 -181496.5 -149183.2 
26.9455 0.197 13.9425 11321.55 -15845.47 -249240.4 
29.1015 -1.2825 16.4825 197063.3 101674.8 115448.5 
26.8665 0.643 14.1715 -36359.1 247201.1 8344.718 
25.839 -1.2265 15.711 -246081.4 35958.94 25513.21 
25.976 -1.5125 15.1815 -116089.1 -130917.9 -178560.4 
26.2175 -1.8925 16.4625 -207285.1 47691.56 131371.3 
26.855 -4.1845 17.5195 -4251.859 -231634.1 93955.24 
27.3635 -0.79 16.489 -44544.45 143815.3 199582 
26.5125 -2.383 15.6645 -100626.3 -170805.4 -152315.1 
27.582 -1.4515 15.648 83627.33 -174818.3 -157940 
27.2005 -0.5779999 14.979 55009.18 -149506.5 -192670.2 
27.1475 -0.138 15.4385 -51027.31 196077.5 146457.7 
29.461 -7.3015 17.7935 30595.23 -146229.2 200451.9 
28.3105 -7.943 16.8415 48465.93 -172556.9 -174284.8 
30.516 -5.5525 17.706 170366.1 182212.3 -16556.33 
30.597 -7.0915 16.55 216643.2 58148.53 -110383.5 
29.328 -6.8675 17.1365 -45020.39 105834.7 -221973.5 
30.0625 -9.142 15.126 25905.86 -79476.93 -235610.5 
28.5905 -8.0295 16.4155 -247374.7 18619.93 30969.01 
29.3625 -1.637 16.5495 206359.9 135744.9 -38586.8 
23.43 0.2745 10.1915 -167951.8 153991.1 102854 
23.8105 0.198 10.0595 91835.75 229659.7 36368.34 
23.208 -0.3505 8.2605 19259.85 236702.5 -78108.89 
24.662 -1.228 11.5815 -191762.8 -16721.62 159522.6 
23.695 -1.8345 9.48 -212700.3 -108129.3 74610.3 
25.149 -2.6265 11.2065 -57905.49 -224808.4 92780.2 
24.9665 -3.2025 9.6795 145490.8 -139314.3 -148067.5 
25.3905 -2.1585 10.87 223874.4 -26947.77 -107954.1 
25.215 -0.8705 11.1435 182480.5 104906.6 -134890.7 
24.469 -1.3895 9.42 216806.5 77893.64 -97095.56 
26.574 -2.207 12.205 222078.7 -53098.87 -101791.9 
26.5395 -0.1865 14.4225 200838.7 64150.23 134345.1 
26.249 -2.146 12.447 -115288.9 -221383.7 14061.72 
26.306 -0.334 14.7935 -41629.28 -53006.69 240743.3 
24.859 1.0785 12.95 -203409.3 128034.8 68788.05 
25.403 1.428 12.739 93276.66 230703 -23992.32 
25.0045 0.3875 12.105 -244048.4 26321.13 47408.95 
24.475 0.347 11.146 -187946.4 124354 -108223.3 
25.447 -0.7935 12.864 -212243.5 -72454.27 110467.7 
25.223 0.687 11.8555 13187.36 186009.2 -166513.3 
26.0595 -0.4705 12.438 159509 56498.75 -184023.9 
26.4685 -0.1935 13.2945 220791.9 84381.58 -81429.23 
25.6785 -0.6495 13.7475 -209695.7 -99444.35 92943.96 
23.388 -1.807 7.753 -197707.9 -141138 -59090.32 
22.859 0.072 7.232 130939 120912.8 -175314.3 
25.0585 -3.369 9.266999 173737.5 -158943.5 83977.79 
24.657 -2.4155 7.931 182182.6 -107291.9 -133409 
24.092 -1.4135 8.252999 204032.1 143843.4 -13416.86 
24.2275 -1.186 6.383 141643.4 -13898.43 -205533.5 
23.131 -0.1775 6.878 -180989 158245.6 68566.35 
26.2755 -2.517 12.1215 189110.9 -153738.6 55691.52 
26.714 3.526 11.3105 46010.25 243326.7 34280.91 
27.2615 3.213 11.3895 225823.2 30667.94 102778.4 
26.1315 3.315 9.4525 229858.3 28532.89 -94080.16 
25.7735 2.9895 12.4205 -79655.05 191252.5 139919.9 
25.183 3.4645 10.1265 -87311.56 233219.5 22030.96 
24.842 2.568 11.401 -205344.3 113849.7 85860.45 
23.6815 2.7005 9.1575 -216828.5 -24289.94 -122046.8 
24.7645 2.208 11.24 -77266.3 -231767.6 -53044.55 
25.8285 2.384 12.022 72200.05 -203091.8 -126652.7 
25.225 2.805 10.069 72571.66 -235834.4 -40193.7 
24.9015 1.1955 12.4645 26575.22 -150760.7 -197648.7 
26.8145 -0.055 14.415 85236.38 -231705.4 39336.86 
24.8485 1.541 12.697 -204234.8 118191.4 82577.03 
26.7125 0.4165 14.8465 -66133.67 53050.18 235185.1 
27.6045 2.0325 13.738 169543.2 134663.2 124983.7 
27.841 1.6355 13.427 201955.5 -94045.05 -113443.9 
27.209 2.462 13.192 88200.77 199992.6 121340.9 
26.877 3.267 11.5265 86298.04 147055.4 -182831.6 
26.1655 1.8885 13.527 -75442.84 158336.2 178151.8 
27.302 1.8925 12.631 204040.9 -59544.02 -131612.5 
26.179 1.2755 12.8085 49494.85 -146938 -196110.9 
26.4535 1.04 13.8255 77269.95 -186987.9 -146850 
26.4225 1.2025 14.007 -83935.82 140240.3 189175.7 
24.8865 3.1735 8.4155 -52952.99 222568.3 -100793.7 
26.444 3.0485 8.227 88170.78 -129327.1 -194937 
23.883 2.6765 9.082 -206934.5 -49287.74 131334.8 
23.8085 1.9055 7.804 -222222.5 -112529.4 -21315.35 
25.145 2.619 8.773 66948.72 -226600.2 81671.54 
25.0295 1.5115 6.7195 54246 -153969.5 -189343 
26.456 2.7695 8.203 169890.3 125646.1 133605.3 
24.707 1.6385 12.3215 -224949.1 -94926.94 53729.14 
27.4885 -2.2965 11.8345 -85399.91 -177888.4 153501.2 
27.143 -2.011 11.725 -225890.2 -102086 32435.87 
27.84 -2.012 10.0715 27308.55 -242700.9 -53390.5 
27.468 -1.7145 10.1075 -242264.4 52777.69 31976.46 
29.05 -1.397 10.8595 204412.1 -129109.8 -63611.33 
29.61 0.1375 9.902 212016 -9229.966 -132151.7 
28.6195 -1.2465 12.6665 181776.2 -146403.2 89574.2 
29.3895 0.219 11.335 229701.3 -4428.485 98578.46 
29.2355 0.8425 11.318 58786.73 240235.1 -36486.08 
28.9445 0.4265 10.107 -158284.6 145585.3 -127479.1 
28.2455 -0.8665 10.737 -210363 125956.9 -48808.8 
27.972 -0.8135 12.2955 -215591.6 123354.9 -28352.73 
26.6475 0.041 14.912 -191688.3 160483.7 783.6387 
27.0655 -0.249 14.7715 109993 -116456.1 191936.3 
28.09 1.3795 13.8525 99270.03 161769.5 162714.8 
28.3705 0.355 13.2495 213130 -36147.34 125574.6 
26.118 -1.4275 13.2815 -216996.6 -120891.9 28242.45 
26.498 -1.8385 13.5765 -50524.89 -237303.9 60283.74 
27.3505 -0.4185 13.338 -182989.1 116257.3 -124496 
27.684 -0.645 13.547 152205.8 -134161.3 146062.1 
26.853 -1.559 12.8695 -61610.54 -180649.2 -161462.2 
26.795 -1.896 8.878 -182852.3 -170206.1 9745.03 
27.97 -0.753 9.6905 -193508.3 125580.5 96353.97 
26.8685 -0.027 7.507 -99326.43 118718.7 -196316.5 
28.2845 -0.9285001 9.6005 169136.7 -106050.6 -150486.2 
28.678 0.616 9.3145 60129.14 231180.1 73758.13 
27.148 -1.9315 11.9515 -77708.7 -125948.2 -201490.5 
2.633 0.681 5.5915 65852.61 235816.6 -50537.08 
2.1605 0.2985 6.3565 -98042.81 151112.9 173356.6 
2.1625 -0.4235 6.401 -107458.1 -168106.5 150641.9 
2.442 -0.472 5.571 53526.94 -222132.1 -101450.6 
2.8155 0.176 5.3725 136828.6 -2536.54 -209216.4 
3 0 1 2 
3 0 2 3 
3 1 4 5 
3 1 5 2 
3 4 6 7 
3 4 7 5 
3 6 8 9 
3 6 9 7 
3 8 0 3 
3 8 3 9 
3 10 11 12 
3 13 10 12 
3 14 13 12 
3 15 14 12 
3 11 15 12 
3 16 17 18 
3 17 19 18 
3 19 20 18 
3 20 21 18 
3 21 16 18 
3 22 23 24 
3 22 24 25 
3 23 26 27 
3 23 27 24 
3 26 28 29 
3 26 29 27 
3 28 30 31 
3 28 31 29 
3 30 22 25 
3 30 25 31 
3 25 24 17 
3 25 17 16 
3 24 27 19 
3 24 19 17 
3 27 29 20 
3 27 20 19 
3 29 31 21 
3 29 21 20 
3 31 25 16 
3 31 16 21 
3 32 33 34 
3 32 34 35 
3 33 36 37 
3 33 37 34 
3 36 38 39 
3 36 39 37 
3 38 40 41 
3 38 41 39 
3 40 32 35 
3 40 35 41 
3 9 3 42 
3 9 42 43 
3 7 9 43 
3 7 43 44 
3 5 7 44 
3 5 44 45 
3 2 5 45 
3 2 45 46 
3 3 2 46 
3 3 46 42 
3 43 42 47 
3 43 47 48 
3 44 43 48 
3 44 48 49 
3 45 44 49 
3 45 49 50 
3 46 45 50 
3 46 50 51 
3 42 46 51 
3 42 51 47 
3 48 47 52 
3 48 52 53 
3 49 48 53 
3 49 53 54 
3 50 49 54 
3 50 54 55 
3 51 50 55 
3 51 55 56 
3 47 51 56 
3 47 56 52 
3 57 58 59 
3 57 59 60 
3 61 57 60 
3 61 60 62 
3 63 61 62 
3 63 62 64 
3 65 63 64 
3 65 64 66 
3 58 65 66 
3 58 66 59 
3 60 59 11 
3 60 11 10 
3 62 60 10 
3 62 10 13 
3 64 62 13 
3 64 13 14 
3 66 64 14 
3 66 14 15 
3 59 66 15 
3 59 15 11 
3 67 68 69 
3 69 68 70 
3 71 72 73 
3 74 73 72 
3 74 72 75 
3 75 72 76 
3 77 78 76 
3 78 75 76 
3 79 80 81 
3 81 80 82 
3 79 83 80 
3 80 83 84 
3 71 73 69 
3 73 67 69 
3 77 70 78 
3 68 78 70 
3 81 75 85 
3 85 75 78 
3 81 82 75 
3 75 82 74 
3 82 86 74 
3 74 86 73 
3 79 81 85 
3 83 87 84 
3 83 79 87 
3 87 79 85 
3 88 89 90 
3 69 70 88 
3 71 69 91 
3 91 69 88 
3 89 92 90 
3 91 88 90 
3 92 91 90 
3 77 89 70 
3 70 89 88 
3 84 87 80 
3 80 87 86 
3 82 80 86 
3 92 71 91 
3 77 92 89 
3 87 93 86 
3 86 93 73 
3 87 85 93 
3 93 85 78 
3 73 78 67 
3 67 78 68 
3 71 77 72 
3 72 77 76 
3 71 92 77 
3 73 93 78 
3 94 95 96 
3 97 98 99 
3 99 98 100 
3 101 99 100 
3 102 101 103 
3 101 100 103 
3 104 105 106 
3 106 105 107 
3 107 105 108 
3 108 105 109 
3 96 98 94 
3 97 94 98 
3 103 96 102 
3 95 102 96 
3 110 111 112 
3 112 111 97 
3 113 111 110 
3 113 114 111 
3 111 114 102 
3 115 104 114 
3 107 116 106 
3 108 116 107 
3 109 113 108 
3 108 113 110 
3 109 115 113 
3 113 115 114 
3 98 96 117 
3 117 96 118 
3 98 117 119 
3 119 117 120 
3 121 120 122 
3 117 123 122 
3 120 117 122 
3 103 121 96 
3 96 121 118 
3 103 119 121 
3 121 119 120 
3 105 115 109 
3 104 115 105 
3 108 110 116 
3 116 110 112 
3 106 116 112 
3 123 121 122 
3 112 97 124 
3 124 97 99 
3 101 124 99 
3 114 124 102 
3 102 124 101 
3 97 111 102 
3 112 114 106 
3 106 114 104 
3 98 119 103 
3 117 118 121 
3 117 121 123 
3 98 103 100 
3 94 97 95 
3 95 97 102 
3 112 124 114 
3 125 126 127 
3 127 126 128 
3 129 130 131 
3 132 131 130 
3 132 130 133 
3 133 130 134 
3 135 136 134 
3 136 133 134 
3 137 138 139 
3 139 138 140 
3 137 141 138 
3 138 141 142 
3 129 131 127 
3 131 125 127 
3 135 128 136 
3 126 136 128 
3 139 133 143 
3 143 133 136 
3 139 140 133 
3 133 140 132 
3 140 144 132 
3 132 144 131 
3 137 139 143 
3 141 145 142 
3 141 137 145 
3 145 137 143 
3 146 147 148 
3 127 128 146 
3 129 127 149 
3 149 127 146 
3 147 150 148 
3 149 146 148 
3 150 149 148 
3 135 147 128 
3 128 147 146 
3 142 145 138 
3 138 145 144 
3 140 138 144 
3 150 129 149 
3 135 150 147 
3 145 151 144 
3 144 151 131 
3 145 143 151 
3 151 143 136 
3 131 136 125 
3 125 136 126 
3 129 135 130 
3 130 135 134 
3 129 150 135 
3 131 151 136 
3 152 153 154 
3 155 156 157 
3 157 156 158 
3 159 157 158 
3 160 159 161 
3 159 158 161 
3 162 163 164 
3 164 163 165 
3 165 163 166 
3 166 163 167 
3 154 156 152 
3 155 152 156 
3 161 154 160 
3 153 160 154 
3 168 169 170 
3 170 169 155 
3 171 169 168 
3 171 172 169 
3 169 172 160 
3 173 162 172 
3 165 174 164 
3 166 174 165 
3 167 171 166 
3 166 171 168 
3 167 173 171 
3 171 173 172 
3 156 154 175 
3 175 154 176 
3 156 175 177 
3 177 175 178 
3 179 178 180 
3 175 181 180 
3 178 175 180 
3 161 179 154 
3 154 179 176 
3 161 177 179 
3 179 177 178 
3 163 173 167 
3 162 173 163 
3 166 168 174 
3 174 168 170 
3 164 174 170 
3 181 179 180 
3 170 155 182 
3 182 155 157 
3 159 182 157 
3 172 182 160 
3 160 182 159 
3 155 169 160 
3 170 172 164 
3 164 172 162 
3 156 177 161 
3 175 176 179 
3 175 179 181 
3 156 161 158 
3 152 155 153 
3 153 155 160 
3 170 182 172 
3 183 184 185 
3 185 184 186 
3 187 188 189 
3 190 189 188 
3 190 188 191 
3 191 188 192 
3 193 194 192 
3 194 191 192 
3 195 196 197 
3 197 196 198 
3 195 199 196 
3 196 199 200 
3 187 189 185 
3 189 183 185 
3 193 186 194 
3 184 194 186 
3 197 191 201 
3 201 191 194 
3 197 198 191 
3 191 198 190 
3 198 202 190 
3 190 202 189 
3 195 197 201 
3 199 203 200 
3 199 195 203 
3 203 195 201 
3 204 205 206 
3 185 186 204 
3 187 185 207 
3 207 185 204 
3 205 208 206 
3 207 204 206 
3 208 207 206 
3 193 205 186 
3 186 205 204 
3 200 203 196 
3 196 203 202 
3 198 196 202 
3 208 187 207 
3 193 208 205 
3 203 209 202 
3 202 209 189 
3 203 201 209 
3 209 201 194 
3 189 194 183 
3 183 194 184 
3 187 193 188 
3 188 193 192 
3 187 208 193 
3 189 209 194 
3 210 211 212 
3 212 211 213 
3 214 215 216 
3 217 216 215 
3 217 215 218 
3 218 215 219 
3 220 221 219 
3 221 218 219 
3 222 223 224 
3 224 223 225 
3 222 226 223 
3 223 226 227 
3 214 216 212 
3 216 210 212 
3 220 213 221 
3 211 221 213 
3 224 218 228 
3 228 218 221 
3 224 225 218 
3 218 225 217 
3 225 229 217 
3 217 229 216 
3 222 224 228 
3 226 230 227 
3 226 222 230 
3 230 222 228 
3 231 232 233 
3 212 213 231 
3 214 212 234 
3 234 212 231 
3 232 235 233 
3 234 231 233 
3 235 234 233 
3 220 232 213 
3 213 232 231 
3 227 230 223 
3 223 230 229 
3 225 223 229 
3 235 214 234 
3 220 235 232 
3 230 236 229 
3 229 236 216 
3 230 228 236 
3 236 228 221 
3 216 221 210 
3 210 221 211 
3 214 220 215 
3 215 220 219 
3 214 235 220 
3 216 236 221 
3 237 238 239 
3 240 241 242 
3 242 241 243 
3 244 242 243 
3 245 244 246 
3 244 243 246 
3 247 248 249 
3 249 248 250 
3 250 248 251 
3 251 248 252 
3 239 241 237 
3 240 237 241 
3 246 239 245 
3 238 245 239 
3 253 254 255 
3 255 254 240 
3 256 254 253 
3 256 257 254 
3 254 257 245 
3 258 247 257 
3 250 259 249 
3 251 259 250 
3 252 256 251 
3 251 256 253 
3 252 258 256 
3 256 258 257 
3 241 239 260 
3 260 239 261 
3 241 260 262 
3 262 260 263 
3 264 263 265 
3 260 266 265 
3 263 260 265 
3 246 264 239 
3 239 264 261 
3 246 262 264 
3 264 262 263 
3 248 258 252 
3 247 258 248 
3 251 253 259 
3 259 253 255 
3 249 259 255 
3 266 264 265 
3 255 240 267 
3 267 240 242 
3 244 267 242 
3 257 267 245 
3 245 267 244 
3 240 254 245 
3 255 257 249 
3 249 257 247 
3 241 262 246 
3 260 261 264 
3 260 264 266 
3 241 246 243 
3 237 240 238 
3 238 240 245 
3 255 267 257 
3 268 269 270 
3 270 269 271 
3 272 273 274 
3 275 274 273 
3 275 273 276 
3 276 273 277 
3 278 279 277 
3 279 276 277 
3 280 281 282 
3 282 281 283 
3 280 284 281 
3 281 284 285 
3 272 274 270 
3 274 268 270 
3 278 271 279 
3 269 279 271 
3 282 276 286 
3 286 276 279 
3 282 283 276 
3 276 283 275 
3 283 287 275 
3 275 287 274 
3 280 282 286 
3 284 288 285 
3 284 280 288 
3 288 280 286 
3 289 290 291 
3 270 271 289 
3 272 270 292 
3 292 270 289 
3 290 293 291 
3 292 289 291 
3 293 292 291 
3 278 290 271 
3 271 290 289 
3 285 288 281 
3 281 288 287 
3 283 281 287 
3 293 272 292 
3 278 293 290 
3 288 294 287 
3 287 294 274 
3 288 286 294 
3 294 286 279 
3 274 279 268 
3 268 279 269 
3 272 278 273 
3 273 278 277 
3 272 293 278 
3 274 294 279 
3 295 296 297 
3 298 299 300 
3 300 299 301 
3 302 300 301 
3 303 302 304 
3 302 301 304 
3 305 306 307 
3 307 306 308 
3 308 306 309 
3 309 306 310 
3 297 299 295 
3 298 295 299 
3 304 297 303 
3 296 303 297 
3 311 312 313 
3 313 312 298 
3 314 312 311 
3 314 315 312 
3 312 315 303 
3 316 305 315 
3 308 317 307 
3 309 317 308 
3 310 314 309 
3 309 314 311 
3 310 316 314 
3 314 316 315 
3 299 297 318 
3 318 297 319 
3 299 318 320 
3 320 318 321 
3 322 321 323 
3 318 324 323 
3 321 318 323 
3 304 322 297 
3 297 322 319 
3 304 320 322 
3 322 320 321 
3 306 316 310 
3 305 316 306 
3 309 311 317 
3 317 311 313 
3 307 317 313 
3 324 322 323 
3 313 298 325 
3 325 298 300 
3 302 325 300 
3 315 325 303 
3 303 325 302 
3 298 312 303 
3 313 315 307 
3 307 315 305 
3 299 320 304 
3 318 319 322 
3 318 322 324 
3 299 304 301 
3 295 298 296 
3 296 298 303 
3 313 325 315 
3 326 327 328 
3 329 330 331 
3 331 330 332 
3 333 331 332 
3 334 333 335 
3 333 332 335 
3 336 337 338 
3 338 337 339 
3 339 337 340 
3 340 337 341 
3 328 330 326 
3 329 326 330 
3 335 328 334 
3 327 334 328 
3 342 343 344 
3 344 343 329 
3 345 343 342 
3 345 346 343 
3 343 346 334 
3 347 336 346 
3 339 348 338 
3 340 348 339 
3 341 345 340 
3 340 345 342 
3 341 347 345 
3 345 347 346 
3 330 328 349 
3 349 328 350 
3 330 349 351 
3 351 349 352 
3 353 352 354 
3 349 355 354 
3 352 349 354 
3 335 353 328 
3 328 353 350 
3 335 351 353 
3 353 351 352 
3 337 347 341 
3 336 347 337 
3 340 342 348 
3 348 342 344 
3 338 348 344 
3 355 353 354 
3 344 329 356 
3 356 329 331 
3 333 356 331 
3 346 356 334 
3 334 356 333 
3 329 343 334 
3 344 346 338 
3 338 346 336 
3 330 351 335 
3 349 350 353 
3 349 353 355 
3 330 335 332 
3 326 329 327 
3 327 329 334 
3 344 356 346 
3 357 358 359 
3 360 361 362 
3 362 361 363 
3 364 362 363 
3 365 364 366 
3 364 363 366 
3 367 368 369 
3 369 368 370 
3 370 368 371 
3 371 368 372 
3 359 361 357 
3 360 357 361 
3 366 359 365 
3 358 365 359 
3 373 374 375 
3 375 374 360 
3 376 374 373 
3 376 377 374 
3 374 377 365 
3 378 367 377 
3 370 379 369 
3 371 379 370 
3 372 376 371 
3 371 376 373 
3 372 378 376 
3 376 378 377 
3 361 359 380 
3 380 359 381 
3 361 380 382 
3 382 380 383 
3 384 383 385 
3 380 386 385 
3 383 380 385 
3 366 384 359 
3 359 384 381 
3 366 382 384 
3 384 382 383 
3 368 378 372 
3 367 378 368 
3 371 373 379 
3 379 373 375 
3 369 379 375 
3 386 384 385 
3 375 360 387 
3 387 360 362 
3 364 387 362 
3 377 387 365 
3 365 387 364 
3 360 374 365 
3 375 377 369 
3 369 377 367 
3 361 382 366 
3 380 381 384 
3 380 384 386 
3 361 366 363 
3 357 360 358 
3 358 360 365 
3 375 387 377 
3 388 389 390 
3 391 392 393 
3 393 392 394 
3 395 393 394 
3 396 395 397 
3 395 394 397 
3 398 399 400 
3 400 399 401 
3 401 399 402 
3 402 399 403 
3 390 392 388 
3 391 388 392 
3 397 390 396 
3 389 396 390 
3 404 405 406 
3 406 405 391 
3 407 405 404 
3 407 408 405 
3 405 408 396 
3 409 398 408 
3 401 410 400 
3 402 410 401 
3 403 407 402 
3 402 407 404 
3 403 409 407 
3 407 409 408 
3 392 390 411 
3 411 390 412 
3 392 411 413 
3 413 411 414 
3 415 414 416 
3 411 417 416 
3 414 411 416 
3 397 415 390 
3 390 415 412 
3 397 413 415 
3 415 413 414 
3 399 409 403 
3 398 409 399 
3 402 404 410 
3 410 404 406 
3 400 410 406 
3 417 415 416 
3 406 391 418 
3 418 391 393 
3 395 418 393 
3 408 418 396 
3 396 418 395 
3 391 405 396 
3 406 408 400 
3 400 408 398 
3 392 413 397 
3 411 412 415 
3 411 415 417 
3 392 397 394 
3 388 391 389 
3 389 391 396 
3 406 418 408 
3 419 420 421 
3 421 420 422 
3 423 424 425 
3 426 425 424 
3 426 424 427 
3 427 424 428 
3 429 430 428 
3 430 427 428 
3 431 432 433 
3 433 432 434 
3 431 435 432 
3 432 435 436 
3 423 425 421 
3 425 419 421 
3 429 422 430 
3 420 430 422 
3 433 427 437 
3 437 427 430 
3 433 434 427 
3 427 434 426 
3 434 438 426 
3 426 438 425 
3 431 433 437 
3 435 439 436 
3 435 431 439 
3 439 431 437 
3 440 441 442 
3 421 422 440 
3 423 421 443 
3 443 421 440 
3 441 444 442 
3 443 440 442 
3 444 443 442 
3 429 441 422 
3 422 441 440 
3 436 439 432 
3 432 439 438 
3 434 432 438 
3 444 423 443 
3 429 444 441 
3 439 445 438 
3 438 445 425 
3 439 437 445 
3 445 437 430 
3 425 430 419 
3 419 430 420 
3 423 429 424 
3 424 429 428 
3 423 444 429 
3 425 445 430 
3 446 447 1 
3 446 1 0 
3 447 448 4 
3 447 4 1 
3 448 449 6 
3 448 6 4 
3 449 450 8 
3 449 8 6 
3 450 446 0 
3 450 0 8 
3 41 35 447 
3 41 447 446 
3 35 34 448 
3 35 448 447 
3 34 37 449 
3 34 449 448 
3 37 39 450 
3 37 450 449 
3 39 41 446 
3 39 446 450 
