ply
format ascii 1.0
comment VCGLIB generated
element vertex 441
property float x
property float y
property float z
property float nx
property float ny
property float nz
element face 806
property list uchar int vertex_indices
end_header
-0.758 1.169 14.685 0.5988929 3.951587 0.1621395 
-1.886 0.255 16.865 -3.538055 1.763867 0.6090477 
4.7 0.681 41.672 -3.498496 1.834137 0.6296577 
6.492 0.954 42.791 0.506066 3.965737 -0.1297278 
-1.061 -1.19 17.2 -2.660252 -2.963336 0.3764283 
4.506 -0.568 41.291 -2.485437 -3.08551 0.5497517 
0.53 -1.169 15.409 1.758878 -3.589871 -0.138468 
5.674 -0.954 40.885 1.637193 -3.643481 -0.2113031 
0.78 0.467 14.896 3.90079 0.8441522 -0.2669185 
7.088 -0.056 42.275 3.915584 0.4744313 -0.6656713 
-1.578 0.889 -9.135 -2.379379 0.988539 -3.059632 
0.119 1.438 -9.151 0.1895757 2.593876 -3.039057 
-0.397 0 -9.145 -0.03722913 -0.002245684 -3.999826 
-1.591 -0.889 -9.134 -1.690606 -1.950788 -3.055532 
0.086 -1.438 -9.149 1.356889 -2.249667 -3.016265 
1.139 0 -9.16 2.572072 0.6018197 -3.003708 
11.06 1.135 139.501 0.7210811 2.751571 2.812277 
9.971 0.29 139.552 -2.315321 1.42883 2.932189 
11.091 -0.038 139.5 0.1884988 0.001353255 3.995556 
10.417 -1.008 139.532 -1.962345 -1.86298 2.94593 
11.809 -0.966 139.466 1.283052 -2.544461 2.807045 
12.2 0.359 139.447 2.90538 0.2906018 2.73392 
11.059 0.749 132.657 -0.7560809 1.589726 -3.591812 
10.337 0.186 132.743 -1.858737 0.1168667 -3.539977 
8.584 0.605 133.675 -3.467291 0.6705106 -1.87838 
10.848 2.364 133.422 -0.5614736 3.422841 -1.992212 
10.631 -0.678 132.709 -0.9137065 -1.484207 -3.600315 
9.503 -2.099 133.573 -1.847861 -2.936376 -1.990757 
11.553 -0.65 132.599 1.082537 -1.100031 -3.690264 
12.391 -2.011 133.253 2.158673 -2.589647 -2.152641 
11.813 0.232 132.568 1.169056 1.012735 -3.688858 
13.211 0.747 133.156 3.050744 1.423623 -2.160153 
-2.351 1.397 2.303 -3.946324 0.616897 0.2144015 
-2.37 -1.397 2.305 -1.956748 -3.48211 0.214598 
0.264 -2.26 2.28 2.783453 -2.863759 0.2264311 
1.918 0 2.263 3.529386 1.86155 0.2793986 
0.316 2.26 2.278 -0.4598666 3.964887 0.2611446 
10.469 0.982 81.842 0.3423757 3.984639 -0.07367393 
11.535 0.364 80.989 3.979597 0.3293383 -0.2331243 
10.978 -0.632 80.216 1.915189 -3.510749 -0.08183119 
10.367 -0.998 81.464 -2.372478 -3.212508 0.2261502 
9.762 0.14 82.119 -3.642352 1.641147 0.1997685 
10.9 0.812 124.971 0.4546882 3.973849 0.04223988 
11.484 0 124.868 3.972676 0.4573032 -0.09340569 
10.748 -0.812 123.208 2.017335 -3.453562 -0.05714457 
9.803 -0.502 123.38 -2.673361 -2.974563 0.07152428 
9.956 0.502 125.139 -3.64609 1.639658 0.1324901 
11.059 0.749 132.657 1.486897 3.713169 -0.03890089 
11.813 0.232 132.568 3.974727 -0.4024769 -0.1988963 
11.553 -0.65 132.599 0.9381821 -3.888232 -0.03830128 
10.631 -0.678 132.709 -3.385164 -2.119879 0.2162865 
10.337 0.186 132.743 -3.062304 2.564034 0.2191491 
-2.351 1.397 2.303 -1.742721 2.131001 2.902026 
0.316 2.26 2.278 1.601468 2.436303 2.738563 
0.84 4.444 0.028 1.356416 3.617047 1.037836 
-4.405 2.747 0.079 -3.019327 2.38963 1.083204 
-2.37 -1.397 2.305 -2.488305 -1.042722 2.953145 
-4.442 -2.747 0.082 -3.183387 -2.184171 1.046637 
0.264 -2.26 2.28 0.2808532 -2.831579 2.811278 
0.737 -4.444 0.033 1.141709 -3.712627 0.9554563 
1.918 0 2.263 2.902708 -0.7168381 2.657148 
3.99 0 0 3.882214 -0.1239587 0.9555356 
20.169 -6.553 146.711 -3.51155 -1.79095 0.6793483 
20.487 -6.683 145.412 -1.520806 -3.458505 -1.313732 
26.734 -7.437 148.329 -1.064841 -2.398997 3.018432 
26.666 -7.563 147.115 -0.2154966 -1.966075 -3.476796 
25.299 -4.169 148.708 -0.105867 1.022848 3.865563 
29.478 -2.122 147.894 2.775686 1.266902 2.586606 
19.523 -2.675 145.644 -1.523715 0.5645395 3.655077 
25.16 -0.3 146.908 -0.4694721 3.167051 2.397788 
25.351 -0.423 145.684 1.907193 2.636366 -2.326411 
28.808 -2.32 146.532 2.34877 -0.9883947 -3.083237 
25.507 -4.41 147.261 1.383357 -1.315825 -3.514958 
20.415 -3.389 143.917 0.9089748 -1.266876 -3.683584 
11.145 -0.812 138.098 0.5152123 -0.6640576 -3.910701 
11.153 -0.684 139.038 -3.272232 1.212916 1.954823 
16.517 1.386 139.679 0.1679409 3.618067 -1.697465 
17.878 0.393 142.316 -0.9394715 3.427625 1.835424 
14.453 -4.844 140.751 -0.4031694 -3.200619 -2.365057 
13.604 -5.386 141.836 -1.476037 -3.71765 -0.01989367 
16.251 -2.175 141.194 1.660085 -1.539154 -3.297745 
15.418 -1.64 142.784 -2.313408 0.8418509 3.152687 
16.44 -4.674 142.627 0.0297264 -3.935735 -0.7135147 
29.948 -10.216 146.997 -1.188538 -3.819179 0.03532957 
29.43 -5.886 146.837 -0.6495667 -0.2234542 -3.940575 
35.686 -8.162 145.427 3.40794 -0.8016862 -1.934747 
29.75 -5.741 148.247 1.140215 0.1558023 3.830879 
32.067 -3.375 146.083 0.4531797 3.792276 -1.188812 
19.888 -6.843 145.235 1.226313 -3.705913 0.8731359 
27.051 0.553 137.108 0.6044246 -3.36596 2.074846 
26.762 0.736 136.266 -1.185994 -3.630505 -1.188633 
31.633 2.327 134.024 0.4089571 -3.621365 -1.648779 
22.669 2.972 137.634 0.08391112 -0.2026504 3.993982 
29.762 4.771 137.066 1.601248 0.6028767 3.615598 
24.193 5.627 136.976 -0.3923111 2.595502 3.018188 
28.45 8.171 135.235 1.171139 3.725008 -0.8676083 
23.883 5.786 136.109 -1.151451 1.978961 -3.279919 
22.437 2.914 136.677 -0.5526005 -0.2889537 -3.951093 
28.943 4.729 135.605 -1.713169 0.1612512 -3.610962 
17.989 5.247 136.06 -0.04805444 0.7494171 -3.928876 
10.501 -0.011 138.733 -3.701302 -0.2221193 -1.500342 
18.449 5.496 137.177 1.416125 2.612726 2.67736 
11.163 0.125 139.7 -0.5324822 0.2677142 3.95535 
17.199 -2.447 138.486 1.040698 -3.296072 2.013171 
16.587 -2.544 136.623 -0.4341086 -2.752666 -2.869561 
19.47 -0.759 137.316 1.392361 -2.839422 2.449289 
25.821 0.297 136.348 3.445607 -1.085276 -1.717547 
17.593 1.755 138.851 0.6078817 0.1398269 3.951067 
19.176 -0.492 136.209 0.8292661 -1.81356 -3.467466 
17.213 1.669 137.108 0.626179 0.2811801 -3.940665 
14.015 0.784 137.186 -0.856005 0.04694013 -3.907052 
14.418 0.918 138.765 0.667782 0.3414699 3.929054 
33.586 5.696 133.301 3.364345 0.7718422 2.021248 
34.868 2.187 130.557 1.828784 -0.1725523 -3.553277 
30.121 8.752 134.649 -2.343228 3.20494 0.4874879 
32.641 7.554 130.937 -0.6639684 3.700252 -1.366485 
31.699 5.17 131.988 -3.150199 -0.6935497 -2.365425 
35.707 6.321 125.015 0.2584212 2.294113 -3.266537 
34.254 2.684 129.945 -0.1056485 -3.823983 1.168757 
20.034 5.432 136.775 -1.719749 3.592592 0.3684438 
21.906 7.373 139.652 1.02887 -3.835394 0.4808148 
21.215 7.657 138.333 1.770173 -3.011128 -1.949256 
24.633 13.472 137.665 3.212278 -1.194846 2.062428 
24.418 12.888 136.708 0.2709345 -1.69144 -3.614641 
21.998 13.457 139.701 1.076116 1.184047 3.666062 
20.827 17.338 138.485 1.040395 3.66987 1.204006 
17.928 8.25 141.01 1.14558 -0.1505265 3.829489 
18.007 14.548 140.138 -1.676491 1.587534 3.266361 
17.485 14.449 139.082 -2.770535 2.400337 -1.600788 
20.367 16.693 137.934 -0.7354169 1.256027 -3.725796 
21.363 13.431 137.867 -0.2203153 0.2590687 -3.985517 
17.764 8.473 138.338 -0.622955 -0.5801061 -3.908376 
10.618 0.344 138.511 -1.265724 -0.7332457 -3.722942 
10.395 -0.153 139.53 -0.4937076 -2.531009 3.057817 
10.32 6.213 138.255 -3.77644 0.9443716 -0.9201432 
13.282 7.391 139.344 -1.925505 1.026885 3.352303 
15.89 1.813 137.319 1.65571 -2.888371 -2.217192 
16.007 1.804 138.131 2.546233 -2.825708 1.237768 
14.313 4.711 137.928 0.04044206 -0.03045373 -3.99968 
14.507 4.507 140.183 0.1866295 -0.9074859 3.891226 
17.259 4.059 138.307 3.047307 -2.481068 -0.7471443 
27.085 14.892 134.515 3.157228 -2.412723 -0.4589961 
23.767 16.253 136.549 -1.735598 -1.33702 -3.346652 
26.43 20.719 131.225 -0.443414 1.741184 -3.573746 
24.492 16.968 137.689 2.083436 1.680904 2.97218 
22.15 18.921 135.627 -3.54725 1.848182 0.03520612 
20.949 6.886 138.3 3.747649 -0.6221033 -1.252245 
4.79 -13.414 143.998 -3.255564 1.569715 1.713854 
4.763 -13.556 143.022 -2.999671 1.737051 -1.996153 
4.5 -19.098 144.285 -3.441344 -0.632314 -1.938384 
8.559 -10.184 143.911 -1.061542 2.146219 3.204196 
7.034 -16.742 146.731 -0.9967237 0.3649054 3.856603 
10.66 -12.654 145.058 2.546598 0.5104872 3.042078 
10.112 -17.619 146.405 2.522196 -3.097037 -0.2165372 
10.467 -12.871 144.082 2.397219 -2.13372 -2.387589 
8.95 -11.028 142.127 0.6466815 -2.099693 -3.342618 
7.489 -16.853 145.416 1.852569 -0.9682885 -3.410338 
13.165 -8.556 140.96 1.840299 -1.814873 -3.052791 
11.375 -0.028 138.377 1.646484 1.77131 -3.18615 
12.884 -8.179 142.097 1.377068 -0.3593454 3.738256 
11.264 0.195 138.902 0.07419094 2.813945 2.841868 
6.493 -4.103 139.651 -3.63904 1.520046 0.6684685 
6.976 -4.62 137.995 -1.470119 -0.09457632 -3.718845 
6.924 -6.966 140.405 -3.344345 1.534401 1.568748 
4.723 -11.297 142.759 -3.432172 -2.054297 -0.00785188 
9.822 -5.481 141.746 -0.7045381 2.064789 3.352652 
7.393 -7.653 139.103 -1.873166 -1.443865 -3.225911 
10.404 -6.53 139.523 0.4755259 -2.495745 -3.08952 
10.811 -3.188 138.946 1.180964 -0.8945087 -3.715532 
10.606 -2.86 139.904 -0.5554018 1.668126 3.592894 
6.81 -21.783 145.258 -1.334997 -1.680186 3.375613 
3.601 -23.272 143.002 0.5303416 -3.64587 -1.557681 
10.778 -19.611 146.593 3.537424 1.700737 0.7707965 
9.919 -23.536 144.167 3.704958 -1.507006 0.04709468 
7.161 -21.277 143.968 1.03782 1.335028 -3.625 
7.297 -27.711 140.821 0.5368236 -3.30658 -2.185944 
4.455 -23.543 142.388 -3.37075 2.135108 -0.2817006 
12.909 -9.678 142.539 3.977548 -0.4051332 0.1224027 
3.825 9.887 143.207 3.690094 0.6956611 1.378136 
3.905 9.908 142.086 3.129795 2.177511 -1.209474 
-1.743 13.648 143.29 1.355292 2.54463 2.772732 
-1.414 13.501 142.107 1.760728 1.252495 -3.366169 
-1.982 10.192 144.746 -1.407548 0.1232641 3.74214 
-5.595 9.59 142.482 -3.751635 0.7486638 1.168221 
3.222 5.866 143.462 0.7526643 -0.2606881 3.91989 
-3.393 6.053 143.411 -1.457859 -2.560027 2.705718 
-3.13 6.191 141.695 -2.482791 -1.442396 -2.784823 
-5.196 9.419 141.901 -1.294346 0.7426124 -3.711226 
-1.93 10.31 142.032 -0.1016994 0.8590188 -3.905348 
3.001 6.251 141.776 0.6138178 1.028076 -3.816581 
11.361 -0.653 137.412 0.2516107 -0.03684362 -3.991909 
10.972 -0.506 138.818 1.948852 -1.773192 3.009612 
5.121 0.115 138.361 -1.582864 -3.284053 -1.646067 
3.778 1.718 140.72 -0.8280445 -3.027935 2.479103 
9.541 5.302 138.833 2.594484 2.460896 -1.792385 
10.101 5.341 140.301 2.952585 2.386419 1.259859 
6.533 3.473 139.269 -0.3817078 1.685893 -3.607224 
6.677 3.087 140.625 1.29107 -1.050744 3.63718 
7.272 6.097 140.517 1.53461 3.693908 0.004082132 
-3.469 16.495 141.095 2.311205 3.262725 -0.1138533 
-4.486 12.995 141.227 1.315525 -0.4902352 -3.745539 
-9.199 17.531 138.02 -2.294579 2.065492 -2.543355 
-4.996 13.241 142.395 -1.800544 1.225417 3.355055 
-7.651 11.808 140.367 -2.376771 -3.064536 -0.9795821 
5.488 9.321 141.982 0.1975217 3.984876 0.2859215 
-2.043 -4.606 140.355 -0.07394954 3.926466 0.7598698 
-1.71 -4.815 139.361 -0.7933696 3.067435 -2.4416 
-6.896 -9.185 139.197 -2.728486 2.206686 1.91987 
-6.184 -9.31 138.325 0.389652 2.085532 -3.390977 
-3.827 -10.207 140.899 -0.9037208 -1.354489 3.65358 
-3.786 -14.294 139.182 -1.632465 -3.161712 1.827193 
1.57 -6.161 141.436 -0.5237399 0.2746167 3.956044 
-0.144 -12.117 140.457 1.261694 -1.887145 3.29345 
0.364 -12.225 139.403 1.891262 -3.021642 -1.814609 
-3.179 -13.783 138.307 -0.2593724 -0.9173854 -3.88473 
-3.371 -10.114 139.138 0.1771765 0.3167906 -3.983497 
1.547 -6.269 139.495 0.2318104 0.6529814 -3.939528 
10.88 0.287 138.028 0.9314395 0.6141437 -3.841256 
10.676 0.226 139.422 1.23316 1.983357 3.247401 
9.181 -5.885 138.043 3.278917 -2.121926 -0.8637906 
6.292 -6.478 139.933 1.8553 -1.549179 3.187147 
4.821 -0.334 138.017 -1.32806 3.045034 -2.228009 
4.674 -0.14 138.684 -1.950244 3.412847 0.740962 
5.645 -3.421 138.393 -0.5992657 0.1109326 -3.953299 
5.701 -3.298 140.401 0.172315 0.9828679 3.873536 
3.168 -2.347 138.944 -2.524958 2.915285 -1.060991 
-9.454 -10.129 135.949 -1.767141 3.377633 -1.211945 
-5.937 -11.936 136.687 2.002344 1.371075 -3.179744 
-10.565 -15.691 132.505 -1.140728 -2.424742 -2.969742 
-7.063 -12.753 138.521 -2.188412 -1.583512 2.950143 
-5.689 -15.111 136.437 2.85916 -2.797013 -0.04387357 
-1.539 -3.887 139.174 -3.661217 1.23047 -1.039919 
17.876 -14.185 136.54 -1.429883 -1.985345 3.164465 
17.054 -14.084 135.709 -3.898133 -0.6440949 0.6242586 
20.503 -18.137 133.37 -2.798397 -2.488336 -1.406116 
18.562 -9.538 137.996 -0.1170285 -0.5063973 3.966089 
22.335 -15.309 135.996 1.258377 -1.703155 3.393486 
21.858 -9.836 136.991 2.746795 0.8823016 2.770679 
25.057 -13.201 134.437 3.632839 -0.6463588 -1.544248 
21.768 -9.38 135.26 1.330631 1.517662 -3.453422 
18.285 -9.181 136.048 -0.6607215 0.5712922 -3.903469 
22.109 -14.774 135.141 -0.4494733 1.432523 -3.70754 
19.038 -4.226 136.058 0.08692039 0.5142885 -3.965848 
12.196 0.365 139.445 -1.537888 3.352823 -1.547088 
19.163 -4.489 137.014 3.285468 -0.5701671 2.209211 
12.272 0.29 139.995 -0.1719112 1.359668 3.757892 
12.147 -5.665 138.288 -2.702668 -1.896805 2.257813 
11.287 -5.468 136.951 -3.241259 -0.2498071 -2.33063 
13.976 -7.606 137.404 -1.658849 -2.208758 2.893027 
16.286 -13.07 136.013 -0.8979219 -3.840247 -0.668011 
15.649 -4.953 138.307 0.5658032 -0.8482941 3.86785 
13.831 -7.334 135.917 -2.187435 -1.138233 -3.149532 
15.497 -4.695 137.213 0.1016058 0.04390372 -3.998468 
13.779 -2.132 138.228 -0.545049 1.33405 -3.731385 
14.07 -2.469 139.54 0.7046807 -0.905343 3.831942 
24.197 -18.357 132.257 1.802689 -3.042348 1.869339 
21.629 -20.516 130.205 1.785111 -0.7578646 -3.498431 
26.448 -14.34 133.897 1.508518 3.501564 1.209719 
26.207 -16.808 129.863 2.940307 2.126256 -1.683339 
23.731 -17.671 131.804 -1.926772 2.700788 -2.234568 
25.15 -20.105 124.524 0.561915 0.1917249 -3.955691 
21.964 -20.016 129.262 -3.423934 -0.8502064 1.88516 
20.436 -5.585 136.485 2.340646 3.235507 0.2299351 
2.401 4.792 146.743 3.093179 2.534226 0.09969936 
1.904 4.63 145.343 0.8188824 3.338318 -2.045744 
-4.155 4.762 148.93 0.7852027 2.933847 2.603075 
-4.233 4.732 147.131 -0.1869048 1.570779 -3.673924 
-2.138 1.598 149.359 0.6503978 -0.8867766 3.845856 
-5.868 -1.246 148.888 -2.543865 -1.354069 2.774031 
3.738 0.884 146.082 1.87195 0.1746345 3.530624 
-1.315 -2.662 148.155 1.122991 -3.004491 2.389964 
-1.494 -1.955 146.914 -1.639267 -2.642219 -2.516244 
-5.716 -1.178 147.295 -2.313977 -0.4109154 -3.236767 
-2.709 1.61 147.411 -1.505292 0.5179477 -3.669581 
3.113 0.968 144.954 -1.092831 0.4628643 -3.819879 
12.036 -0.214 137.563 -1.304875 -0.1641787 -3.777611 
11.959 -0.227 138.974 3.493992 -0.2480216 1.931453 
7.065 -2.978 140.285 -0.1943595 -3.573327 -1.787052 
5.964 -2.5 143.249 1.565816 -3.215639 1.791057 
7.914 3.436 140.478 -0.1195167 3.099963 -2.525064 
8.583 4.033 141.355 1.114622 3.827849 -0.3243261 
6.93 0.45 141.653 -2.409745 0.70151 -3.114645 
7.523 0.359 142.649 2.558308 0.2289547 3.066372 
6.114 3.388 142.498 -1.708529 3.547754 -0.7031133 
-7.957 6.376 147.289 -0.1592634 3.949718 -0.6118562 
-6.595 2.327 147.042 0.2756288 -0.1050979 -3.989108 
-13.151 3.196 146.361 -3.569595 -0.1275585 -1.800478 
-6.954 2.216 149.545 -0.9365916 -0.01593713 3.888771 
-8.735 -0.578 147.218 -0.03234561 -3.896486 -0.903523 
2.691 4.366 145.014 -3.133036 2.258157 1.041544 
16.782 8.912 145.973 2.286218 -1.454104 2.942581 
17.454 8.638 144.95 2.833633 -2.793779 -0.4065982 
18.109 14.41 145.052 3.664167 0.05297477 -1.603457 
12.932 6.308 145.363 0.2885725 -2.34957 3.224322 
14.792 12.735 148.077 0.5376924 0.1672929 3.960164 
10.768 8.786 146.623 -2.728358 -0.3104831 2.90855 
11.314 14.383 146.661 -2.341698 3.185527 -0.6073455 
11.009 9.2 144.998 -1.722272 1.627227 -3.222718 
12.901 6.551 144.635 -0.04920055 1.646063 -3.645278 
14.302 12.714 145.878 -0.9209776 0.5083015 -3.859201 
9.005 5.338 142.191 -0.1983099 3.281704 -2.278397 
10.32 -0.597 136.851 -0.1657585 0.6945313 -3.935753 
8.719 5.222 143.481 -2.743116 0.4249941 2.880052 
10.07 -1.781 137.957 -1.565151 -3.606116 0.7390748 
14.97 0.912 141.277 3.36875 -2.098756 -0.4967349 
14.408 1.675 140.517 2.365579 0.883579 -3.102148 
15.023 2.919 142.758 2.333106 -2.081558 2.494741 
16.881 8.062 145.148 1.944175 3.360977 0.9612585 
11.661 2.505 142.531 -0.2415167 -2.138996 3.371404 
14.775 3.951 141.349 2.565732 1.303041 -2.778327 
11.716 3.705 141.14 0.3290755 3.243073 -2.318229 
11.311 1.771 139.356 0.7493406 2.397571 -3.1129 
10.871 0.267 140.883 -0.6056228 -2.604903 2.974508 
15.841 17.593 145.496 0.9646969 2.247135 3.165398 
19.148 18.009 143.4 -0.3832618 3.210351 -2.355156 
12.101 15.746 146.24 -3.947756 -0.5937784 0.2503026 
12.957 19.2 143.313 -3.682793 1.149538 -1.056221 
15.601 17.001 144.59 -0.7503659 -1.779995 -3.502652 
16.57 22.435 139.813 -0.3771131 2.2047 -3.316185 
19.131 18.26 142.342 2.700702 -2.813119 0.8902638 
8.574 6.313 143.673 -3.882602 0.1201799 -0.9544406 
11.461 -10.318 147.56 -3.530665 -0.2053203 1.868755 
11.804 -10.447 146.567 -3.388823 0.300581 -2.103694 
13.871 -15.641 146.347 -3.265704 -1.483454 -1.770464 
13.594 -5.83 146.8 -1.121562 2.104784 3.211228 
15.877 -12.386 148.635 0.1863836 -0.25999 3.987188 
16.739 -7.222 146.887 2.496812 1.717886 2.610517 
19.258 -12.469 147.27 3.570033 -1.775181 -0.3218637 
16.965 -7.553 145.563 2.226766 -0.4165122 -3.29667 
13.872 -6.408 145.369 0.3774237 -1.58131 -3.654725 
16.012 -12.225 147.022 0.4376328 0.09406831 -3.974875 
16.028 -3.184 142.755 1.931754 -2.930125 -1.919034 
11.499 0.631 138.019 0.1887222 0.3846046 -3.976992 
15.89 -2.946 143.237 2.663656 1.694211 2.45654 
11.321 1.238 138.77 -0.20933 3.949251 0.5996614 
8.506 -2.777 142.552 -3.994517 0.06566035 0.1988067 
9.305 -3.416 141.325 -1.695832 -2.556708 -2.566593 
10.054 -4.51 143.792 -3.144757 0.4518047 2.430304 
11.533 -9.249 146.175 -0.878823 -3.895314 -0.2328105 
12.499 -2.222 143.477 -0.6093701 2.410939 3.133057 
10.801 -4.826 142.815 -1.099987 -3.106386 -2.267244 
12.863 -3.176 142.202 1.225855 -3.15738 -2.127964 
12.163 -1.748 140.078 0.7506483 -2.772895 -2.783447 
11.903 -0.442 141.358 -0.314043 2.981356 2.648187 
17.424 -17.27 146.629 0.5785783 -2.24999 3.256193 
14.579 -19.555 144.669 0.6996431 -3.07307 -2.463076 
19.87 -13.471 146.93 2.84207 2.814265 0.05055669 
20.229 -17.135 144.132 3.76408 0.6463084 -1.189114 
17.037 -16.281 144.948 -0.721064 1.822569 -3.486876 
19.046 -22.272 140.509 1.196546 -2.163953 -3.144135 
15.231 -19.469 143.763 -3.937654 0.1490134 0.6875117 
16.509 -4.24 144.332 3.320915 2.041168 -0.8973062 
4.021 -4.669 130.692 -3.830834 0.04578624 1.150051 
4.399 -4.035 130.901 -1.600248 3.662083 0.1684006 
3.98 -6.841 126.884 -1.414079 2.694156 -2.596518 
6.998 -5.777 135.164 -2.631763 -1.046939 2.82449 
5.949 -8.41 131.112 -2.907871 -2.213388 1.626406 
9.014 -8.298 134.421 -0.2562042 -3.083706 2.534781 
9.028 -11.117 132.282 1.967262 -3.416269 -0.6774864 
9.521 -7.935 133.749 3.607356 -0.7611861 -1.551638 
8.451 -4.976 133.253 2.653986 1.304665 -2.693364 
7.037 -7.82 130.235 3.282162 1.143233 -1.980007 
11.843 -5.995 136.212 3.369682 0.07392137 -2.154014 
11.25 0.144 139.237 2.876399 2.562611 1.076733 
11.558 -6.626 136.54 -0.4783333 -3.588111 1.701958 
10.298 -0.574 139.823 -1.215133 -0.5041904 3.777465 
5.856 0.265 136.05 -3.46774 1.846523 0.7517525 
7.063 0.521 135.279 0.6283966 3.402801 -2.006505 
6.314 -1.593 134.857 -3.836696 -0.0843657 1.128117 
4.401 -3.772 131.265 -2.857094 0.735956 -2.700997 
8.72 -3.423 136.8 -2.444187 -1.172373 2.941342 
7.281 -1.197 133.765 -0.08385371 2.40128 -3.197941 
9.993 -2.762 135.406 2.196998 0.6802152 -3.272691 
10.621 -1.346 136.827 2.760932 1.771998 -2.28851 
9.442 -2.119 138.04 -2.430196 -1.706083 2.680192 
5.77 -9.77 127.105 -2.821143 -2.835692 -0.0007777912 
3.355 -6.514 122.097 1.969712 -1.828294 -2.962697 
9.153 -11.739 131.109 2.94192 0.03222209 2.709995 
9.213 -11.408 126.435 3.365412 -2.062652 -0.6476637 
6.348 -9.18 127.08 2.806653 2.813477 -0.4550253 
7.864 -9.529 119.569 2.063427 -0.272747 -3.415828 
4.691 -7.178 122.893 -2.535948 2.677218 1.549667 
11.674 -7.229 135.982 3.184328 -1.916374 1.479042 
18.26 4.859 131.852 3.885586 0.4418309 0.8408372 
17.982 3.585 131.696 1.8821 -3.186976 1.516867 
17.414 5.445 126.474 1.963308 -3.234335 -1.297882 
15.8 6.512 134.834 2.240703 2.015856 2.629748 
17.037 8.139 129.307 2.893385 2.734073 0.3913738 
14.079 8.159 132.961 -0.4837082 3.844457 0.9930664 
13.706 9.728 127.096 -2.563011 2.216985 -2.125077 
13.488 7.498 132.481 -3.782094 -0.1144934 -1.297174 
14.342 5.116 133.345 -2.686036 -2.498401 -1.594742 
15.287 6.735 128.718 -3.060623 -2.443531 -0.8134781 
11.397 6.04 135.548 -1.630256 -0.2941861 -3.640841 
10.671 1.11 138.577 -3.234497 -2.270915 0.6172342 
11.623 6.579 135.696 -1.134072 3.765637 0.7306548 
11.064 1.549 139.412 -0.7593735 -0.1305177 3.925088 
15.141 1.565 136.981 2.886384 -1.67555 2.204841 
14.962 0.493 136.412 0.9178826 -3.788071 -0.8988922 
15.96 2.779 136 3.435431 -0.2345306 2.03539 
18.177 4.17 131.78 3.326007 -1.136414 -1.909513 
13.72 4.41 137.068 2.024766 2.043771 2.779087 
15.094 1.843 134.749 1.146996 -2.496225 -2.907449 
13.29 3.925 136.485 -1.382661 -0.9310201 -3.636131 
11.888 2.275 136.627 -1.690324 -1.407848 -3.340774 
12.694 3.331 138.58 1.565287 1.586192 3.321727 
16.445 7.515 123.301 2.771819 2.61787 -1.209867 
17.598 4.009 121.387 -2.41694 -1.144807 -2.974528 
13.272 9.909 126.862 -3.097342 1.846377 1.731291 
12.821 7.789 121.588 -3.60324 1.56527 -0.752721 
15.584 6.635 124.02 -2.651212 -2.909358 0.7118365 
13.528 4.561 115.49 -2.49802 -1.564603 -2.704055 
17.155 3.482 121.076 3.116217 -1.714646 1.830077 
11.708 7.244 134.935 -3.538083 1.649219 0.8729527 
13.183 -5.601 132.508 -0.7894545 -2.658137 2.882892 
12.165 -4.932 132.372 -3.313727 -2.029731 0.9483705 
14.291 -5.208 126.808 1.124824 -3.82213 -0.3550975 
12.676 -4.233 127.148 -3.895218 0.8962675 -0.1548659 
15.926 -2.915 129.207 3.702788 -1.509694 -0.1009173 
17.748 0.191 126.55 3.286399 -0.8870587 -2.100644 
15.046 -2.55 133.972 3.056988 -2.315736 1.136745 
17.666 0.426 130.779 3.79028 -0.4508291 1.196049 
17.126 1.555 130.702 0.6311912 3.932534 -0.3698281 
16.594 0.915 126.705 -2.386868 2.510621 -1.999911 
14.828 -1.875 128.773 -3.236088 1.869361 -1.425912 
13.925 -1.827 133.305 -3.458195 2.005565 -0.1363865 
11.231 -0.224 139.731 -3.02043 2.596786 -0.3656575 
11.999 -0.771 140.236 1.452871 -1.226758 3.519124 
14.003 1.872 136.963 -0.1645004 3.825199 1.157927 
15.408 0.679 136.104 3.488111 0.1676049 1.950639 
9.978 -3.395 136.583 -3.964246 -0.5335761 -0.00729989 
10.584 -4.667 137.093 -1.742917 -3.54953 0.6025625 
12.862 -1.156 136.365 -3.082943 1.865507 -1.736476 
13.373 -1.523 136.594 2.6456 -2.370901 1.838378 
11.573 -3.803 135.306 -1.000687 -1.932651 -3.356112 
12.044 -4.543 122.837 -2.394201 -2.95919 -1.229226 
14.803 -2.006 125.159 -3.264769 2.24415 0.5523396 
12.657 -0.226 117.101 -1.504578 2.311754 -2.896901 
15.584 -2.477 124.712 3.358927 -1.771905 -1.25617 
15.921 0.995 123.869 1.686301 3.483436 1.010971 
12.369 -4.756 132.838 -0.4931858 -2.389587 -3.169644 
3 0 1 2 
3 0 2 3 
3 1 4 5 
3 1 5 2 
3 4 6 7 
3 4 7 5 
3 6 8 9 
3 6 9 7 
3 8 0 3 
3 8 3 9 
3 10 11 12 
3 13 10 12 
3 14 13 12 
3 15 14 12 
3 11 15 12 
3 16 17 18 
3 17 19 18 
3 19 20 18 
3 20 21 18 
3 21 16 18 
3 22 23 24 
3 22 24 25 
3 23 26 27 
3 23 27 24 
3 26 28 29 
3 26 29 27 
3 28 30 31 
3 28 31 29 
3 30 22 25 
3 30 25 31 
3 25 24 17 
3 25 17 16 
3 24 27 19 
3 24 19 17 
3 27 29 20 
3 27 20 19 
3 29 31 21 
3 29 21 20 
3 31 25 16 
3 31 16 21 
3 32 33 4 
3 32 4 1 
3 33 34 6 
3 33 6 4 
3 34 35 8 
3 34 8 6 
3 35 36 0 
3 35 0 8 
3 36 32 1 
3 36 1 0 
3 9 3 37 
3 9 37 38 
3 7 9 38 
3 7 38 39 
3 5 7 39 
3 5 39 40 
3 2 5 40 
3 2 40 41 
3 3 2 41 
3 3 41 37 
3 38 37 42 
3 38 42 43 
3 39 38 43 
3 39 43 44 
3 40 39 44 
3 40 44 45 
3 41 40 45 
3 41 45 46 
3 37 41 46 
3 37 46 42 
3 43 42 47 
3 43 47 48 
3 44 43 48 
3 44 48 49 
3 45 44 49 
3 45 49 50 
3 46 45 50 
3 46 50 51 
3 42 46 51 
3 42 51 47 
3 52 53 54 
3 52 54 55 
3 56 52 55 
3 56 55 57 
3 58 56 57 
3 58 57 59 
3 60 58 59 
3 60 59 61 
3 53 60 61 
3 53 61 54 
3 55 54 11 
3 55 11 10 
3 57 55 10 
3 57 10 13 
3 59 57 13 
3 59 13 14 
3 61 59 14 
3 61 14 15 
3 54 61 15 
3 54 15 11 
3 62 63 64 
3 64 63 65 
3 66 67 68 
3 69 68 67 
3 69 67 70 
3 70 67 71 
3 72 73 71 
3 73 70 71 
3 74 75 76 
3 76 75 77 
3 74 78 75 
3 75 78 79 
3 66 68 64 
3 68 62 64 
3 72 65 73 
3 63 73 65 
3 76 70 80 
3 80 70 73 
3 76 77 70 
3 70 77 69 
3 77 81 69 
3 69 81 68 
3 74 76 80 
3 78 82 79 
3 78 74 82 
3 82 74 80 
3 83 84 85 
3 64 65 83 
3 66 64 86 
3 86 64 83 
3 84 87 85 
3 86 83 85 
3 87 86 85 
3 72 84 65 
3 65 84 83 
3 79 82 75 
3 75 82 81 
3 77 75 81 
3 87 66 86 
3 72 87 84 
3 82 88 81 
3 81 88 68 
3 82 80 88 
3 88 80 73 
3 68 73 62 
3 62 73 63 
3 66 72 67 
3 67 72 71 
3 66 87 72 
3 68 88 73 
3 89 90 91 
3 92 93 94 
3 94 93 95 
3 96 94 95 
3 97 96 98 
3 96 95 98 
3 99 100 101 
3 101 100 102 
3 102 100 103 
3 103 100 104 
3 91 93 89 
3 92 89 93 
3 98 91 97 
3 90 97 91 
3 105 106 107 
3 107 106 92 
3 108 106 105 
3 108 109 106 
3 106 109 97 
3 110 99 109 
3 102 111 101 
3 103 111 102 
3 104 108 103 
3 103 108 105 
3 104 110 108 
3 108 110 109 
3 93 91 112 
3 112 91 113 
3 93 112 114 
3 114 112 115 
3 116 115 117 
3 112 118 117 
3 115 112 117 
3 98 116 91 
3 91 116 113 
3 98 114 116 
3 116 114 115 
3 100 110 104 
3 99 110 100 
3 103 105 111 
3 111 105 107 
3 101 111 107 
3 118 116 117 
3 107 92 119 
3 119 92 94 
3 96 119 94 
3 109 119 97 
3 97 119 96 
3 92 106 97 
3 107 109 101 
3 101 109 99 
3 93 114 98 
3 112 113 116 
3 112 116 118 
3 93 98 95 
3 89 92 90 
3 90 92 97 
3 107 119 109 
3 120 121 122 
3 122 121 123 
3 124 125 126 
3 127 126 125 
3 127 125 128 
3 128 125 129 
3 130 131 129 
3 131 128 129 
3 132 133 134 
3 134 133 135 
3 132 136 133 
3 133 136 137 
3 124 126 122 
3 126 120 122 
3 130 123 131 
3 121 131 123 
3 134 128 138 
3 138 128 131 
3 134 135 128 
3 128 135 127 
3 135 139 127 
3 127 139 126 
3 132 134 138 
3 136 140 137 
3 136 132 140 
3 140 132 138 
3 141 142 143 
3 122 123 141 
3 124 122 144 
3 144 122 141 
3 142 145 143 
3 144 141 143 
3 145 144 143 
3 130 142 123 
3 123 142 141 
3 137 140 133 
3 133 140 139 
3 135 133 139 
3 145 124 144 
3 130 145 142 
3 140 146 139 
3 139 146 126 
3 140 138 146 
3 146 138 131 
3 126 131 120 
3 120 131 121 
3 124 130 125 
3 125 130 129 
3 124 145 130 
3 126 146 131 
3 147 148 149 
3 150 151 152 
3 152 151 153 
3 154 152 153 
3 155 154 156 
3 154 153 156 
3 157 158 159 
3 159 158 160 
3 160 158 161 
3 161 158 162 
3 149 151 147 
3 150 147 151 
3 156 149 155 
3 148 155 149 
3 163 164 165 
3 165 164 150 
3 166 164 163 
3 166 167 164 
3 164 167 155 
3 168 157 167 
3 160 169 159 
3 161 169 160 
3 162 166 161 
3 161 166 163 
3 162 168 166 
3 166 168 167 
3 151 149 170 
3 170 149 171 
3 151 170 172 
3 172 170 173 
3 174 173 175 
3 170 176 175 
3 173 170 175 
3 156 174 149 
3 149 174 171 
3 156 172 174 
3 174 172 173 
3 158 168 162 
3 157 168 158 
3 161 163 169 
3 169 163 165 
3 159 169 165 
3 176 174 175 
3 165 150 177 
3 177 150 152 
3 154 177 152 
3 167 177 155 
3 155 177 154 
3 150 164 155 
3 165 167 159 
3 159 167 157 
3 151 172 156 
3 170 171 174 
3 170 174 176 
3 151 156 153 
3 147 150 148 
3 148 150 155 
3 165 177 167 
3 178 179 180 
3 180 179 181 
3 182 183 184 
3 185 184 183 
3 185 183 186 
3 186 183 187 
3 188 189 187 
3 189 186 187 
3 190 191 192 
3 192 191 193 
3 190 194 191 
3 191 194 195 
3 182 184 180 
3 184 178 180 
3 188 181 189 
3 179 189 181 
3 192 186 196 
3 196 186 189 
3 192 193 186 
3 186 193 185 
3 193 197 185 
3 185 197 184 
3 190 192 196 
3 194 198 195 
3 194 190 198 
3 198 190 196 
3 199 200 201 
3 180 181 199 
3 182 180 202 
3 202 180 199 
3 200 203 201 
3 202 199 201 
3 203 202 201 
3 188 200 181 
3 181 200 199 
3 195 198 191 
3 191 198 197 
3 193 191 197 
3 203 182 202 
3 188 203 200 
3 198 204 197 
3 197 204 184 
3 198 196 204 
3 204 196 189 
3 184 189 178 
3 178 189 179 
3 182 188 183 
3 183 188 187 
3 182 203 188 
3 184 204 189 
3 205 206 207 
3 207 206 208 
3 209 210 211 
3 212 211 210 
3 212 210 213 
3 213 210 214 
3 215 216 214 
3 216 213 214 
3 217 218 219 
3 219 218 220 
3 217 221 218 
3 218 221 222 
3 209 211 207 
3 211 205 207 
3 215 208 216 
3 206 216 208 
3 219 213 223 
3 223 213 216 
3 219 220 213 
3 213 220 212 
3 220 224 212 
3 212 224 211 
3 217 219 223 
3 221 225 222 
3 221 217 225 
3 225 217 223 
3 226 227 228 
3 207 208 226 
3 209 207 229 
3 229 207 226 
3 227 230 228 
3 229 226 228 
3 230 229 228 
3 215 227 208 
3 208 227 226 
3 222 225 218 
3 218 225 224 
3 220 218 224 
3 230 209 229 
3 215 230 227 
3 225 231 224 
3 224 231 211 
3 225 223 231 
3 231 223 216 
3 211 216 205 
3 205 216 206 
3 209 215 210 
3 210 215 214 
3 209 230 215 
3 211 231 216 
3 232 233 234 
3 235 236 237 
3 237 236 238 
3 239 237 238 
3 240 239 241 
3 239 238 241 
3 242 243 244 
3 244 243 245 
3 245 243 246 
3 246 243 247 
3 234 236 232 
3 235 232 236 
3 241 234 240 
3 233 240 234 
3 248 249 250 
3 250 249 235 
3 251 249 248 
3 251 252 249 
3 249 252 240 
3 253 242 252 
3 245 254 244 
3 246 254 245 
3 247 251 246 
3 246 251 248 
3 247 253 251 
3 251 253 252 
3 236 234 255 
3 255 234 256 
3 236 255 257 
3 257 255 258 
3 259 258 260 
3 255 261 260 
3 258 255 260 
3 241 259 234 
3 234 259 256 
3 241 257 259 
3 259 257 258 
3 243 253 247 
3 242 253 243 
3 246 248 254 
3 254 248 250 
3 244 254 250 
3 261 259 260 
3 250 235 262 
3 262 235 237 
3 239 262 237 
3 252 262 240 
3 240 262 239 
3 235 249 240 
3 250 252 244 
3 244 252 242 
3 236 257 241 
3 255 256 259 
3 255 259 261 
3 236 241 238 
3 232 235 233 
3 233 235 240 
3 250 262 252 
3 263 264 265 
3 265 264 266 
3 267 268 269 
3 270 269 268 
3 270 268 271 
3 271 268 272 
3 273 274 272 
3 274 271 272 
3 275 276 277 
3 277 276 278 
3 275 279 276 
3 276 279 280 
3 267 269 265 
3 269 263 265 
3 273 266 274 
3 264 274 266 
3 277 271 281 
3 281 271 274 
3 277 278 271 
3 271 278 270 
3 278 282 270 
3 270 282 269 
3 275 277 281 
3 279 283 280 
3 279 275 283 
3 283 275 281 
3 284 285 286 
3 265 266 284 
3 267 265 287 
3 287 265 284 
3 285 288 286 
3 287 284 286 
3 288 287 286 
3 273 285 266 
3 266 285 284 
3 280 283 276 
3 276 283 282 
3 278 276 282 
3 288 267 287 
3 273 288 285 
3 283 289 282 
3 282 289 269 
3 283 281 289 
3 289 281 274 
3 269 274 263 
3 263 274 264 
3 267 273 268 
3 268 273 272 
3 267 288 273 
3 269 289 274 
3 290 291 292 
3 293 294 295 
3 295 294 296 
3 297 295 296 
3 298 297 299 
3 297 296 299 
3 300 301 302 
3 302 301 303 
3 303 301 304 
3 304 301 305 
3 292 294 290 
3 293 290 294 
3 299 292 298 
3 291 298 292 
3 306 307 308 
3 308 307 293 
3 309 307 306 
3 309 310 307 
3 307 310 298 
3 311 300 310 
3 303 312 302 
3 304 312 303 
3 305 309 304 
3 304 309 306 
3 305 311 309 
3 309 311 310 
3 294 292 313 
3 313 292 314 
3 294 313 315 
3 315 313 316 
3 317 316 318 
3 313 319 318 
3 316 313 318 
3 299 317 292 
3 292 317 314 
3 299 315 317 
3 317 315 316 
3 301 311 305 
3 300 311 301 
3 304 306 312 
3 312 306 308 
3 302 312 308 
3 319 317 318 
3 308 293 320 
3 320 293 295 
3 297 320 295 
3 310 320 298 
3 298 320 297 
3 293 307 298 
3 308 310 302 
3 302 310 300 
3 294 315 299 
3 313 314 317 
3 313 317 319 
3 294 299 296 
3 290 293 291 
3 291 293 298 
3 308 320 310 
3 321 322 323 
3 324 325 326 
3 326 325 327 
3 328 326 327 
3 329 328 330 
3 328 327 330 
3 331 332 333 
3 333 332 334 
3 334 332 335 
3 335 332 336 
3 323 325 321 
3 324 321 325 
3 330 323 329 
3 322 329 323 
3 337 338 339 
3 339 338 324 
3 340 338 337 
3 340 341 338 
3 338 341 329 
3 342 331 341 
3 334 343 333 
3 335 343 334 
3 336 340 335 
3 335 340 337 
3 336 342 340 
3 340 342 341 
3 325 323 344 
3 344 323 345 
3 325 344 346 
3 346 344 347 
3 348 347 349 
3 344 350 349 
3 347 344 349 
3 330 348 323 
3 323 348 345 
3 330 346 348 
3 348 346 347 
3 332 342 336 
3 331 342 332 
3 335 337 343 
3 343 337 339 
3 333 343 339 
3 350 348 349 
3 339 324 351 
3 351 324 326 
3 328 351 326 
3 341 351 329 
3 329 351 328 
3 324 338 329 
3 339 341 333 
3 333 341 331 
3 325 346 330 
3 344 345 348 
3 344 348 350 
3 325 330 327 
3 321 324 322 
3 322 324 329 
3 339 351 341 
3 352 353 354 
3 355 356 357 
3 357 356 358 
3 359 357 358 
3 360 359 361 
3 359 358 361 
3 362 363 364 
3 364 363 365 
3 365 363 366 
3 366 363 367 
3 354 356 352 
3 355 352 356 
3 361 354 360 
3 353 360 354 
3 368 369 370 
3 370 369 355 
3 371 369 368 
3 371 372 369 
3 369 372 360 
3 373 362 372 
3 365 374 364 
3 366 374 365 
3 367 371 366 
3 366 371 368 
3 367 373 371 
3 371 373 372 
3 356 354 375 
3 375 354 376 
3 356 375 377 
3 377 375 378 
3 379 378 380 
3 375 381 380 
3 378 375 380 
3 361 379 354 
3 354 379 376 
3 361 377 379 
3 379 377 378 
3 363 373 367 
3 362 373 363 
3 366 368 374 
3 374 368 370 
3 364 374 370 
3 381 379 380 
3 370 355 382 
3 382 355 357 
3 359 382 357 
3 372 382 360 
3 360 382 359 
3 355 369 360 
3 370 372 364 
3 364 372 362 
3 356 377 361 
3 375 376 379 
3 375 379 381 
3 356 361 358 
3 352 355 353 
3 353 355 360 
3 370 382 372 
3 383 384 385 
3 386 387 388 
3 388 387 389 
3 390 388 389 
3 391 390 392 
3 390 389 392 
3 393 394 395 
3 395 394 396 
3 396 394 397 
3 397 394 398 
3 385 387 383 
3 386 383 387 
3 392 385 391 
3 384 391 385 
3 399 400 401 
3 401 400 386 
3 402 400 399 
3 402 403 400 
3 400 403 391 
3 404 393 403 
3 396 405 395 
3 397 405 396 
3 398 402 397 
3 397 402 399 
3 398 404 402 
3 402 404 403 
3 387 385 406 
3 406 385 407 
3 387 406 408 
3 408 406 409 
3 410 409 411 
3 406 412 411 
3 409 406 411 
3 392 410 385 
3 385 410 407 
3 392 408 410 
3 410 408 409 
3 394 404 398 
3 393 404 394 
3 397 399 405 
3 405 399 401 
3 395 405 401 
3 412 410 411 
3 401 386 413 
3 413 386 388 
3 390 413 388 
3 403 413 391 
3 391 413 390 
3 386 400 391 
3 401 403 395 
3 395 403 393 
3 387 408 392 
3 406 407 410 
3 406 410 412 
3 387 392 389 
3 383 386 384 
3 384 386 391 
3 401 413 403 
3 414 415 416 
3 416 415 417 
3 418 419 420 
3 421 420 419 
3 421 419 422 
3 422 419 423 
3 424 425 423 
3 425 422 423 
3 426 427 428 
3 428 427 429 
3 426 430 427 
3 427 430 431 
3 418 420 416 
3 420 414 416 
3 424 417 425 
3 415 425 417 
3 428 422 432 
3 432 422 425 
3 428 429 422 
3 422 429 421 
3 429 433 421 
3 421 433 420 
3 426 428 432 
3 430 434 431 
3 430 426 434 
3 434 426 432 
3 435 436 437 
3 416 417 435 
3 418 416 438 
3 438 416 435 
3 436 439 437 
3 438 435 437 
3 439 438 437 
3 424 436 417 
3 417 436 435 
3 431 434 427 
3 427 434 433 
3 429 427 433 
3 439 418 438 
3 424 439 436 
3 434 440 433 
3 433 440 420 
3 434 432 440 
3 440 432 425 
3 420 425 414 
3 414 425 415 
3 418 424 419 
3 419 424 423 
3 418 439 424 
3 420 440 425 
