ply
format ascii 1.0
comment VCGLIB generated
element vertex 236
property float x
property float y
property float z
property float nx
property float ny
property float nz
element face 384
property list uchar int vertex_indices
end_header
-0.000199 0.000388 0.006099 0.0549495 -2.34149 0.738291 
0.000253 0.00054 0.006099 2.56357 -1.55658 -0.640759 
-0.000186 0.000145 0.012372 3.11493 1.89705 0.170023 
-0.000356 -0.000249 0.012576 2.8016 2.99005 1.44263 
4.2e-005 0.000185 0.027775 -0.788136 2.10173 3.69229 
-8.5e-005 5.9e-005 0.027772 -1.64237 1.5198 1.36448 
4.1e-005 -6.8e-005 0.027772 -2.10787 -0.0494662 2.8542 
0.000168 5.8e-005 0.02777 -0.671655 1.79244 3.2983 
-0.00075 -7.8e-005 0.013279 0.278791 4.80549 0.867365 
-0.000579 0.000315 0.013003 1.96152 4.75439 0.383603 
0.000101 0.000993 0.006099 -1.48288 1.9527 -1.79045 
-0.000351 0.000841 0.006099 -2.46994 1.22451 1.45659 
0.000189 -4.2e-005 -0 0.152197 -0.985177 -3.92086 
-0.000343 -4.2e-005 -0 -0.683724 -2.12283 -0.820941 
-0.000343 0.00049 0 -2.96426 -0.457421 -1.93766 
0.000189 0.00049 0 -1.97617 -0.30494 -1.95844 
-0.000209 -3e-005 0.016851 2.66021 4.33272 -0.169773 
0.000166 -0.000105 0.016792 1.44597 5.02304 -0.145583 
9.1e-005 -0.000479 0.016798 3.87447 3.6424 -0.193966 
-0.000284 -0.000405 0.016888 3.87446 3.6424 -0.193965 
0.000372 0.00056 0.02215 0.195923 3.16849 -0.479327 
0.000607 0.000319 0.022002 4.01874 3.58482 -0.152796 
0.000366 8.4e-005 0.021988 4.01875 3.58481 -0.152795 
0.000131 0.000325 0.02215 0.285959 4.41212 -0.279774 
-0.000248 0.000479 0.025447 -2.40315 2.50896 0.229807 
5.7e-005 0.000498 0.025555 0.220871 5.21348 1.24326 
7.6e-005 0.000192 0.025586 0.469553 4.57111 2.45509 
-0.000229 0.000173 0.025487 -2.86105 2.54945 1.38236 
0.000959 -0.00027 0.006099 -0.360452 3.18284 -1.61179 
0.000487 -0.000343 0.006099 -3.21473 1.83435 0.257125 
0.000676 0.000257 0.012353 -3.33866 -1.47244 -0.325611 
0.000911 0.000616 0.012149 -0.545332 -0.77878 0.664372 
0.000281 -0.000255 0.028375 0.315934 -2.28794 3.68805 
0.000427 -0.000152 0.028372 1.23527 -1.81726 1.38326 
0.000324 -6e-006 0.028377 2.08861 -0.363162 2.85497 
0.000178 -0.000109 0.028376 0.270193 -1.94264 3.28048 
0.00127 0.000381 0.012221 0.384565 -3.79276 0.459211 
0.001036 2.2e-005 0.012475 -2.5719 -4.48553 0.0663393 
0.00056 -0.000815 0.006099 -1.76537 -2.13735 -0.721875 
0.001032 -0.000742 0.006099 1.94358 0.191677 -1.90282 
0.001083 -0.000395 -0 2.07671e-005 -1.01304e-005 -5 
0.000559 -0.000305 -0 -0.999774 0.0170351 -3.0117 
0.000649 0.00022 0 -1.98156 1.03079 -1.94423 
0.001173 0.000129 0 0.0360346 1.9934 -1.84168 
-0.000229 0.000262 0.017629 -3.35763 -3.79843 -0.417252 
-0.000585 0.000399 0.017851 -2.32182 -4.7052 -0.523407 
-0.000448 0.000755 0.017661 -4.39345 -2.89166 -0.311102 
-9.2e-005 0.000618 0.017502 -4.39345 -2.89166 -0.3111 
-0.000471 -0.000406 0.022632 -0.81163 -3.02833 -0.550672 
-0.000661 -0.000129 0.022809 -4.55758 -2.80135 0.120831 
-0.000384 6.2e-005 0.02283 -4.55759 -2.80135 0.120832 
-0.000193 -0.000216 0.022644 -1.13088 -4.27499 -0.374147 
0.000517 -0.000594 0.026235 1.87763 -2.88672 0.173783 
0.000213 -0.000561 0.026137 -1.25011 -5.15139 1.28955 
0.000246 -0.000256 0.026153 -1.3131 -4.48179 2.47408 
0.00055 -0.000289 0.026252 2.29912 -3.007 1.19606 
0.00102 0.000149 0.012098 1.77286e-006 -4.45644e-006 -7.8476e-007 
0.002846 -7e-006 0.017836 4.05145e-006 -4.25375e-006 -1.36485e-006 
0.002674 0.000203 0.017998 -6.20425e-006 -3.08711e-006 2.67524e-006 
0.002435 0.000602 0.016045 1.03136e-005 -6.03982e-007 -4.02256e-006 
0.00102 0.000426 0.011959 2.45551e-006 2.44074e-006 -1.27874e-006 
0.002217 0.001075 0.016164 -4.00888e-007 5.7741e-006 -1.00451e-007 
0.000749 0.000366 0.012357 -5.76477e-006 3.19535e-008 1.39141e-006 
0.001998 0.000602 0.016317 -6.93546e-006 2.8541e-006 3.08521e-006 
0.004122 0.000681 0.019648 7.11952e-007 1.3004e-006 3.99502e-007 
2.7e-005 0.000233 0.027686 5.0336e-007 1.70042e-006 -8.54446e-007 
-0.002533 0.001307 0.028553 1.45058e-007 1.65516e-006 -1.98033e-006 
-0.002579 0.001088 0.028738 1.0484e-006 2.19138e-006 3.59609e-006 
-0.002008 0.000484 0.028275 -8.36793e-007 -1.19502e-008 -5.56775e-006 
-7e-005 -2.7e-005 0.027672 -4.67034e-007 -1.25578e-006 -1.51281e-006 
-0.002138 1.3e-005 0.028537 -8.64031e-007 -3.14562e-006 -8.65399e-008 
7e-006 -1e-005 0.028063 1.42287e-006 -4.31214e-010 2.5699e-006 
-0.001939 0.000426 0.028837 -1.22889e-007 -7.87125e-007 3.94013e-006 
-0.004146 0.001179 0.028171 -8.28944e-007 -3.46048e-007 -1.04236e-007 
-0.000162 3.5e-005 0.02765 -1.67014e-006 1.28135e-007 -1.34124e-006 
-0.000532 -0.002853 0.028017 -1.30686e-006 -6.35045e-008 -2.55775e-006 
-0.000371 -0.002889 0.028235 -2.91317e-006 -1.29118e-007 3.02699e-006 
0.000161 -0.002036 0.027942 1.19437e-006 -2.10061e-008 -5.56086e-006 
0.00011 1.8e-005 0.027687 1.56886e-006 2.07752e-007 -1.10878e-006 
0.000568 -0.002094 0.028284 3.19522e-006 8.00401e-008 7.69934e-007 
-1.7e-005 2e-006 0.028072 -8.44189e-007 9.2875e-007 2.73225e-006 
4.5e-005 -0.002096 0.028495 1.57932e-007 -4.42948e-007 4.16006e-006 
0.000131 -0.004303 0.027608 6.17982e-007 -6.88101e-007 -1.20605e-007 
0.000281 -0.000295 0.02812 -9.97478e-007 -1.57846e-006 -2.41456e-007 
0.002568 -0.001763 0.029001 -6.98323e-007 -1.78401e-006 -1.29794e-006 
0.002689 -0.001511 0.02914 -1.16659e-006 -1.28423e-006 4.01524e-006 
0.002223 -0.000959 0.028632 2.47105e-007 -1.075e-006 -5.33267e-006 
0.000437 -7.9e-005 0.028035 6.17121e-007 7.89481e-007 -1.81698e-006 
0.002492 -0.000479 0.028791 1.55869e-006 2.76394e-006 -9.79358e-007 
0.000394 1.5e-005 0.028434 -1.06105e-006 7.65219e-007 2.42974e-006 
0.002229 -0.000736 0.029172 6.60677e-007 1.29546e-006 3.45777e-006 
0.004146 -0.002088 0.028505 8.3985e-007 1.07592e-007 -2.34347e-007 
0.000426 -0.000166 0.02823 1.54397e-006 -8.57178e-007 -9.48522e-007 
0.001976 0.002195 0.028844 1.43877e-006 -5.32933e-007 -2.10697e-006 
0.001783 0.002285 0.029037 2.30055e-006 -1.24706e-006 3.52334e-006 
0.001048 0.001807 0.028656 -3.06033e-007 5.34764e-007 -5.62358e-006 
0.000186 -2.6e-005 0.028233 -1.30574e-006 5.86871e-007 -1.44813e-006 
0.000626 0.002026 0.028938 -2.98419e-006 1.41728e-006 7.43023e-008 
0.000214 -9.3e-005 0.028638 -2.57925e-008 -1.26524e-006 2.63787e-006 
0.00102 0.001768 0.029227 -4.51816e-007 4.84691e-007 4.01222e-006 
0.002118 0.003801 0.028382 -2.09714e-007 8.78806e-007 -1.20533e-007 
0.000402 -0.000168 0.028139 1.57485e-006 1.0968e-007 -1.22104e-006 
0.001623 0.000964 0.03001 1.34555e-006 6.54247e-007 -1.61957e-006 
0.001395 0.000845 0.030168 1.83756e-006 -2.57234e-006 1.74488e-006 
0.000787 0.000979 0.029717 2.33468e-008 3.05028e-006 -3.32326e-006 
0.000152 -6.6e-005 0.028202 -1.19625e-006 1.31778e-006 -8.16163e-007 
0.000311 0.000902 0.03 -2.6118e-006 9.14154e-007 6.8401e-007 
0.000141 -0.000394 0.028447 -3.43061e-007 -2.54353e-006 9.74841e-007 
0.000689 0.000478 0.030106 -5.35695e-007 -1.5673e-006 2.92473e-006 
0.001626 0.002226 0.030123 -9.44926e-008 6.37033e-007 6.51574e-007 
6.2e-005 -8.1e-005 0.02767 1.44619e-006 -8.1674e-009 -1.62689e-006 
0.000525 0.002759 0.02824 1.00843e-006 2.25343e-007 -2.75275e-006 
0.000401 0.002763 0.028472 3.25582e-006 -1.21591e-007 2.63233e-006 
-0.0002 0.001971 0.028187 -1.82647e-006 4.23195e-007 -5.35201e-006 
-0.000202 -6.7e-005 0.027758 -1.71148e-006 -1.07311e-007 -9.21882e-007 
-0.000554 0.001986 0.028573 -3.08183e-006 -9.80879e-008 1.19888e-006 
-3e-005 -9.6e-005 0.028112 1.19763e-006 -1.18886e-006 2.53177e-006 
-4e-006 0.001954 0.028729 3.13718e-007 1.63303e-007 4.22264e-006 
-0.000134 0.004241 0.027952 -6.02021e-007 7.12178e-007 6.79152e-008 
5e-005 0.000172 0.027642 1.05439e-006 1.29623e-006 -1.17373e-006 
-4.1e-005 0.001855 0.029627 5.17826e-007 1.55615e-006 -1.6033e-006 
-0.000115 0.001608 0.029785 3.1732e-006 -4.53853e-007 1.88196e-006 
-0.000594 0.001244 0.029277 -2.21831e-006 2.26579e-006 -3.44901e-006 
-0.000196 5.7e-005 0.0277 -1.79818e-006 4.20034e-008 -8.82342e-007 
-0.000871 0.000845 0.029551 -2.526e-006 -1.3869e-006 5.89517e-007 
3e-005 -0.00017 0.027938 1.65108e-006 -2.03342e-006 1.04584e-006 
-0.000306 0.000837 0.029671 7.24841e-007 -1.62974e-006 2.97226e-006 
-0.001003 0.002719 0.029774 -5.78847e-007 3.43745e-007 6.18813e-007 
0.000165 0.00012 0.028264 -1.59403e-006 1.77211e-007 -1.02327e-006 
-0.001002 -0.001176 0.030054 -1.44157e-006 -3.73389e-007 -1.52587e-006 
-0.000751 -0.001102 0.030208 -1.60864e-006 2.46014e-006 2.23747e-006 
-0.000214 -0.001181 0.02972 -3.98679e-007 -2.64412e-006 -3.73276e-006 
0.000408 -9e-006 0.028288 1.03099e-006 -1.29662e-006 -1.05576e-006 
0.000285 -0.001181 0.029979 2.61909e-006 -1.15185e-006 3.10452e-007 
0.000462 0.000288 0.028576 5.36238e-007 2.31426e-006 1.2114e-006 
-4.6e-005 -0.000743 0.030145 7.65941e-007 1.19832e-006 3.05172e-006 
-0.001055 -0.002542 0.030068 9.06733e-008 -6.83959e-007 5.26607e-007 
0.000788 0.000409 0.011208 -4.01046e-006 -1.2328e-006 -1.34696e-006 
-0.000279 -0.001769 0.016799 -4.55852e-006 -3.33862e-006 -2.19618e-006 
-9.4e-005 -0.001704 0.017019 -1.32251e-006 5.78479e-006 2.6757e-006 
0.000575 -0.001363 0.015112 -2.44086e-006 -9.34628e-006 -4.84177e-006 
0.001051 0.000339 0.011235 1.71895e-006 -2.42329e-006 -1.11239e-006 
0.001005 -0.001332 0.015336 4.779e-006 5.09025e-008 6.8272e-007 
0.000976 0.000546 0.011573 1.14242e-006 5.31603e-006 1.96705e-006 
0.000537 -0.001063 0.015447 3.86347e-006 5.99344e-006 3.8476e-006 
-5.8e-005 -0.003305 0.01861 8.28495e-007 -8.04187e-007 3.24236e-007 
1e-005 -2.1e-005 0.016512 -1.90151e-006 3.13854e-006 -1.12435e-006 
-0.002017 0.000234 0.021113 -3.57307e-006 2.83741e-006 -1.78204e-006 
-0.001847 6.6e-005 0.0213 4.18188e-006 3.53205e-006 2.50804e-006 
-0.001488 -0.000424 0.0198 -7.7653e-006 -9.73089e-007 -4.26209e-006 
3.3e-005 -0.000294 0.016547 -1.54718e-006 -2.4225e-006 -1.12739e-006 
-0.001255 -0.000841 0.02001 1.09212e-006 -4.62079e-006 3.92358e-007 
0.000271 -0.000175 0.016851 4.61097e-006 8.43569e-007 1.54976e-006 
-0.0011 -0.000323 0.020145 5.42835e-006 -1.3083e-006 3.41102e-006 
-0.003292 -0.000478 0.022405 -5.26255e-007 -1.02689e-006 4.34696e-007 
-0.000142 -0.000218 0.018219 -2.75253e-006 -2.36982e-006 -6.79418e-007 
0.000712 -0.002155 0.022042 -1.88188e-006 -3.72563e-006 -1.4155e-006 
0.000859 -0.001933 0.022203 -3.57484e-006 2.86237e-006 3.13156e-006 
0.001009 -0.001459 0.020756 1.98476e-006 -6.60568e-006 -4.53355e-006 
0.000111 -0.000105 0.018007 2.17986e-006 -6.99951e-007 -1.46485e-006 
0.001383 -0.001092 0.020906 3.98983e-006 2.03134e-006 -3.24141e-007 
-1.6e-005 8.9e-005 0.018491 -1.41293e-006 3.87815e-006 1.73465e-006 
0.000897 -0.00111 0.021134 2.99636e-007 4.91889e-006 3.31056e-006 
0.001931 -0.003104 0.023059 1.1681e-006 -2.89667e-007 2.4069e-007 
-0.000478 -0 0.022639 -2.24353e-006 1.60523e-006 -7.9661e-007 
-0.002032 -0.00086 0.025603 -3.00721e-006 8.27754e-007 -1.346e-006 
-0.001768 -0.00093 0.025753 1.09062e-006 3.53871e-006 2.58753e-006 
-0.001359 -0.001145 0.024707 -4.19497e-006 -2.78488e-006 -3.91497e-006 
-0.00032 -0.000228 0.022485 -1.27172e-007 -1.96282e-006 -1.24448e-006 
-0.000906 -0.001402 0.024894 2.45639e-006 -2.97495e-006 -6.48399e-008 
-0.000127 -1.7e-005 0.022802 2.64212e-006 1.95472e-006 1.32333e-006 
-0.000993 -0.000883 0.025083 3.44163e-006 7.72239e-007 3.02932e-006 
-0.002677 -0.002135 0.026239 -5.78832e-008 -9.76e-007 4.26726e-007 
-0.000368 -0.000383 0.02218 5.26072e-007 -2.68662e-006 -8.64792e-007 
0.00168 -0.000783 0.025215 1.74088e-006 -2.54518e-006 -1.57939e-006 
0.001557 -0.00056 0.025382 -3.062e-006 -2.427e-006 2.8992e-006 
0.001249 -0.000116 0.024327 4.81983e-006 -2.17834e-007 -4.45943e-006 
-0.000338 -0.000108 0.022292 1.18344e-006 1.84691e-006 -1.33606e-006 
0.001114 0.000371 0.024535 8.48137e-008 3.79401e-006 -2.90951e-008 
-0.000578 -0.000144 0.02267 -3.20885e-006 -1.78e-007 1.67781e-006 
0.000877 -8.1e-005 0.024747 -2.81426e-006 1.73137e-006 3.375e-006 
0.003099 -0.000253 0.025792 7.30076e-007 6.82343e-007 3.16755e-007 
-7e-005 0.00043 0.025327 7.38566e-007 1.74343e-006 -1.5462e-006 
-0.001846 0.002399 0.026861 2.26365e-008 1.8249e-006 -2.5074e-006 
-0.00187 0.002246 0.027084 2.56607e-006 1.57444e-006 2.61571e-006 
-0.001729 0.001391 0.026463 -2.50725e-006 4.23326e-007 -5.08339e-006 
-0.000232 0.000217 0.025345 -1.22161e-006 -1.17257e-006 -1.00756e-006 
-0.001881 0.001039 0.026814 -1.62781e-006 -2.78878e-006 9.98753e-007 
-3.8e-005 0.000266 0.025722 2.04082e-006 -6.07027e-007 2.19707e-006 
-0.00148 0.001412 0.026966 8.75693e-007 -9.19488e-007 4.07478e-006 
-0.003391 0.002785 0.027011 -8.87129e-007 -7.82358e-008 2.58219e-007 
-0.00036 0.000159 0.012541 3.09705e-006 1.72927e-006 -2.84631e-007 
-0.001544 0.002387 0.016621 3.30601e-006 4.53711e-006 -1.22441e-006 
-0.001755 0.002201 0.016775 2.06494e-006 -4.83046e-006 3.83244e-006 
-0.001689 0.001604 0.014741 -9.47083e-007 7.51722e-006 -5.0699e-006 
-0.000607 5.5e-005 0.013004 -1.83104e-006 6.5095e-007 -1.77576e-006 
-0.00214 0.00129 0.014791 -2.843e-006 -4.50664e-007 -9.30823e-007 
-0.000582 -9.7e-005 0.012976 7.4436e-007 -3.4633e-006 2.18055e-006 
-0.001748 0.001332 0.015081 -2.27159e-006 -6.35709e-006 3.35981e-006 
-0.002774 0.003443 0.018192 -1.31965e-006 6.66966e-007 -8.72719e-008 
-0.000187 0.000325 0.019945 2.37113e-006 1.95649e-007 -1.60322e-006 
0.001017 0.002721 0.022541 2.82381e-006 1.49668e-006 -2.57461e-006 
0.000876 0.002691 0.022774 1.72872e-006 -2.69262e-006 2.54435e-006 
0.000114 0.002233 0.021672 1.23147e-007 4.2945e-006 -5.07906e-006 
-0.000442 0.000397 0.020249 -1.73844e-006 9.62078e-007 -9.60989e-007 
-0.000256 0.002249 0.021996 -3.00551e-006 4.19298e-008 1.10028e-006 
-0.000314 0.00024 0.020451 7.7887e-008 -2.6182e-006 2.21074e-006 
0.000246 0.002018 0.022112 -1.87921e-006 -2.40833e-006 4.10251e-006 
0.00081 0.004303 0.023351 -5.01525e-007 7.28314e-007 2.60006e-007 
-0.000266 0.000448 0.020071 2.1318e-006 1.9366e-006 -6.65754e-007 
-0.000971 0.002055 0.023488 1.68868e-006 3.49633e-006 -1.21092e-006 
-0.001091 0.0018 0.023632 3.5712e-006 -2.19505e-006 2.70625e-006 
-0.001323 0.001458 0.022321 -2.38216e-006 5.15168e-006 -3.90199e-006 
-0.000516 0.000328 0.020349 -2.1589e-006 2.4999e-007 -1.31834e-006 
-0.00166 0.001045 0.022467 -3.19759e-006 -1.74412e-006 -2.63838e-007 
-0.000351 9.6e-005 0.020471 1.7196e-006 -2.71151e-006 1.31835e-006 
-0.001146 0.001041 0.022663 -2.45057e-007 -4.36303e-006 2.94723e-006 
-0.002161 0.002874 0.024433 -1.12757e-006 1.7912e-007 3.89028e-007 
-0.000112 -0.000396 0.024325 -2.04744e-006 -9.89942e-007 -6.86422e-007 
0.000472 -0.002664 0.026466 -1.78735e-006 -1.89813e-006 -1.54629e-006 
0.000665 -0.002495 0.02663 -2.53795e-006 1.20516e-006 3.36689e-006 
0.000853 -0.001947 0.02574 7.581e-007 -3.07503e-006 -4.90269e-006 
0.000155 -0.000327 0.024442 1.6404e-006 -1.30377e-007 -1.53585e-006 
0.001297 -0.001681 0.025939 3.08104e-006 1.05136e-006 -3.43686e-007 
8e-005 -0.000152 0.024762 -9.34473e-007 2.11212e-006 1.99963e-006 
0.00083 -0.00165 0.026216 9.94706e-007 2.21239e-006 3.51598e-006 
0.001522 -0.003858 0.026686 8.32972e-007 -4.87541e-007 1.32434e-007 
-0.000196 0.000649 0.007052 -2.01337e-006 5.2768e-006 -7.49291e-007 
-0.001933 0.000853 0.014251 -4.88686e-006 5.3595e-006 -1.28775e-006 
-0.001762 0.000636 0.014413 8.06333e-006 3.41779e-006 2.60656e-006 
-0.001573 0.000236 0.012031 -1.28877e-005 1.04519e-006 -3.8746e-006 
-0.000206 0.000372 0.00705 -3.27422e-006 -2.85679e-006 -1.26184e-006 
-0.001364 -0.000246 0.012109 1.35048e-007 -6.69973e-006 -1.348e-007 
7.7e-005 0.00042 0.007333 6.97338e-006 -1.15868e-007 1.30101e-006 
-0.001119 0.000216 0.012237 8.69987e-006 -3.86096e-006 2.98086e-006 
-0.003207 0.000208 0.016643 -8.09466e-007 -1.56594e-006 4.19855e-007 
3 0 1 2 
3 0 2 3 
3 4 5 6 
3 4 6 7 
3 8 9 10 
3 8 10 11 
3 12 13 14 
3 12 14 15 
3 1 10 9 
3 1 9 2 
3 11 0 3 
3 11 3 8 
3 14 13 0 
3 14 0 11 
3 13 12 1 
3 13 1 0 
3 12 15 10 
3 12 10 1 
3 11 10 15 
3 11 15 14 
3 2 9 16 
3 2 16 17 
3 3 2 17 
3 3 17 18 
3 8 3 18 
3 8 18 19 
3 19 16 9 
3 19 9 8 
3 18 17 20 
3 18 20 21 
3 19 18 21 
3 19 21 22 
3 22 23 16 
3 22 16 19 
3 17 16 23 
3 17 23 20 
3 21 20 24 
3 21 24 25 
3 22 21 25 
3 22 25 26 
3 26 27 23 
3 26 23 22 
3 20 23 27 
3 20 27 24 
3 25 24 5 
3 25 5 4 
3 26 25 4 
3 26 4 7 
3 7 6 27 
3 7 27 26 
3 24 27 6 
3 24 6 5 
3 28 29 30 
3 28 30 31 
3 32 33 34 
3 32 34 35 
3 36 37 38 
3 36 38 39 
3 40 41 42 
3 40 42 43 
3 29 38 37 
3 29 37 30 
3 39 28 31 
3 39 31 36 
3 40 43 28 
3 40 28 39 
3 43 42 29 
3 43 29 28 
3 42 41 38 
3 42 38 29 
3 39 38 41 
3 39 41 40 
3 30 37 44 
3 30 44 45 
3 31 30 45 
3 31 45 46 
3 36 31 46 
3 36 46 47 
3 47 44 37 
3 47 37 36 
3 46 45 48 
3 46 48 49 
3 47 46 49 
3 47 49 50 
3 50 51 44 
3 50 44 47 
3 45 44 51 
3 45 51 48 
3 49 48 52 
3 49 52 53 
3 50 49 53 
3 50 53 54 
3 54 55 51 
3 54 51 50 
3 48 51 55 
3 48 55 52 
3 53 52 33 
3 53 33 32 
3 54 53 32 
3 54 32 35 
3 35 34 55 
3 35 55 54 
3 52 55 34 
3 52 34 33 
3 56 57 58 
3 56 59 57 
3 60 61 59 
3 56 60 59 
3 62 58 63 
3 62 56 58 
3 62 60 56 
3 63 61 62 
3 61 60 62 
3 57 59 64 
3 63 58 64 
3 61 64 59 
3 58 57 64 
3 61 63 64 
3 65 66 67 
3 65 68 66 
3 69 70 68 
3 65 69 68 
3 71 67 72 
3 71 65 67 
3 71 69 65 
3 72 70 71 
3 70 69 71 
3 66 68 73 
3 72 67 73 
3 70 73 68 
3 67 66 73 
3 70 72 73 
3 74 75 76 
3 74 77 75 
3 78 79 77 
3 74 78 77 
3 80 76 81 
3 80 74 76 
3 80 78 74 
3 81 79 80 
3 79 78 80 
3 75 77 82 
3 81 76 82 
3 79 82 77 
3 76 75 82 
3 79 81 82 
3 83 84 85 
3 83 86 84 
3 87 88 86 
3 83 87 86 
3 89 85 90 
3 89 83 85 
3 89 87 83 
3 90 88 89 
3 88 87 89 
3 84 86 91 
3 90 85 91 
3 88 91 86 
3 85 84 91 
3 88 90 91 
3 92 93 94 
3 92 95 93 
3 96 97 95 
3 92 96 95 
3 98 94 99 
3 98 92 94 
3 98 96 92 
3 99 97 98 
3 97 96 98 
3 93 95 100 
3 99 94 100 
3 97 100 95 
3 94 93 100 
3 97 99 100 
3 101 102 103 
3 101 104 102 
3 105 106 104 
3 101 105 104 
3 107 103 108 
3 107 101 103 
3 107 105 101 
3 108 106 107 
3 106 105 107 
3 102 104 109 
3 108 103 109 
3 106 109 104 
3 103 102 109 
3 106 108 109 
3 110 111 112 
3 110 113 111 
3 114 115 113 
3 110 114 113 
3 116 112 117 
3 116 110 112 
3 116 114 110 
3 117 115 116 
3 115 114 116 
3 111 113 118 
3 117 112 118 
3 115 118 113 
3 112 111 118 
3 115 117 118 
3 119 120 121 
3 119 122 120 
3 123 124 122 
3 119 123 122 
3 125 121 126 
3 125 119 121 
3 125 123 119 
3 126 124 125 
3 124 123 125 
3 120 122 127 
3 126 121 127 
3 124 127 122 
3 121 120 127 
3 124 126 127 
3 128 129 130 
3 128 131 129 
3 132 133 131 
3 128 132 131 
3 134 130 135 
3 134 128 130 
3 134 132 128 
3 135 133 134 
3 133 132 134 
3 129 131 136 
3 135 130 136 
3 133 136 131 
3 130 129 136 
3 133 135 136 
3 137 138 139 
3 137 140 138 
3 141 142 140 
3 137 141 140 
3 143 139 144 
3 143 137 139 
3 143 141 137 
3 144 142 143 
3 142 141 143 
3 138 140 145 
3 144 139 145 
3 142 145 140 
3 139 138 145 
3 142 144 145 
3 146 147 148 
3 146 149 147 
3 150 151 149 
3 146 150 149 
3 152 148 153 
3 152 146 148 
3 152 150 146 
3 153 151 152 
3 151 150 152 
3 147 149 154 
3 153 148 154 
3 151 154 149 
3 148 147 154 
3 151 153 154 
3 155 156 157 
3 155 158 156 
3 159 160 158 
3 155 159 158 
3 161 157 162 
3 161 155 157 
3 161 159 155 
3 162 160 161 
3 160 159 161 
3 156 158 163 
3 162 157 163 
3 160 163 158 
3 157 156 163 
3 160 162 163 
3 164 165 166 
3 164 167 165 
3 168 169 167 
3 164 168 167 
3 170 166 171 
3 170 164 166 
3 170 168 164 
3 171 169 170 
3 169 168 170 
3 165 167 172 
3 171 166 172 
3 169 172 167 
3 166 165 172 
3 169 171 172 
3 173 174 175 
3 173 176 174 
3 177 178 176 
3 173 177 176 
3 179 175 180 
3 179 173 175 
3 179 177 173 
3 180 178 179 
3 178 177 179 
3 174 176 181 
3 180 175 181 
3 178 181 176 
3 175 174 181 
3 178 180 181 
3 182 183 184 
3 182 185 183 
3 186 187 185 
3 182 186 185 
3 188 184 189 
3 188 182 184 
3 188 186 182 
3 189 187 188 
3 187 186 188 
3 183 185 190 
3 189 184 190 
3 187 190 185 
3 184 183 190 
3 187 189 190 
3 191 192 193 
3 191 194 192 
3 195 196 194 
3 191 195 194 
3 197 193 198 
3 197 191 193 
3 197 195 191 
3 198 196 197 
3 196 195 197 
3 192 194 199 
3 198 193 199 
3 196 199 194 
3 193 192 199 
3 196 198 199 
3 200 201 202 
3 200 203 201 
3 204 205 203 
3 200 204 203 
3 206 202 207 
3 206 200 202 
3 206 204 200 
3 207 205 206 
3 205 204 206 
3 201 203 208 
3 207 202 208 
3 205 208 203 
3 202 201 208 
3 205 207 208 
3 209 210 211 
3 209 212 210 
3 213 214 212 
3 209 213 212 
3 215 211 216 
3 215 209 211 
3 215 213 209 
3 216 214 215 
3 214 213 215 
3 210 212 217 
3 216 211 217 
3 214 217 212 
3 211 210 217 
3 214 216 217 
3 218 219 220 
3 218 221 219 
3 222 223 221 
3 218 222 221 
3 224 220 225 
3 224 218 220 
3 224 222 218 
3 225 223 224 
3 223 222 224 
3 219 221 226 
3 225 220 226 
3 223 226 221 
3 220 219 226 
3 223 225 226 
3 227 228 229 
3 227 230 228 
3 231 232 230 
3 227 231 230 
3 233 229 234 
3 233 227 229 
3 233 231 227 
3 234 232 233 
3 232 231 233 
3 228 230 235 
3 234 229 235 
3 232 235 230 
3 229 228 235 
3 232 234 235 
