ply
format ascii 1.0
comment VCGLIB generated
element vertex 316
property float x
property float y
property float z
property float nx
property float ny
property float nz
element face 588
property list uchar int vertex_indices
end_header
-0.01034 -0.001037 -0.014667 -2.99843 -2.99779 -0.0378501 
-0.009992 -0.001037 -0.014667 2.99702 -2.9989 -0.156206 
-0.009742 -0.001252 -0.010096 2.99496 -2.99648 0.0217057 
-0.01009 -0.001252 -0.010096 -1.99685 -3.99496 0.218913 
-0.01034 -0.001037 -0 -9.92045e-006 -2.41421 3.41421 
-0.009992 -0.001037 -0 0.999998 -2 1 
-0.009992 -0.000689 -0 1.99999 -0.707105 2.70711 
-0.01034 -0.000689 -0 -1.07715e-005 -2.12132 3.12133 
-0.01009 -0.000904 -0.010096 -0.998435 -0.998271 0.303747 
-0.009742 -0.000904 -0.010096 2.99524 -0.998479 0.0997348 
-0.009992 -0.000689 -0.014667 1.99851 1.9978 0.0393566 
-0.01034 -0.000689 -0.014667 -4.99685 0.998909 0.159218 
-0.01002 -0.001628 -0.030473 0.131575 -0.984745 -3.88613 
-0.010056 -0.001681 -0.030473 0.262031 -2.11485 -1.76165 
-0.01011 -0.001645 -0.030473 -0.133864 0.685202 -4.15266 
-0.010073 -0.001591 -0.030473 -0.263275 1.95185 -2.34781 
-0.010959 -0.000873 -0.025773 -3.22013 1.76057 -0.825798 
-0.01096 -0.001218 -0.025841 -0.859635 -3.28824 -1.59386 
-0.01034 -0.001037 -0.02221 -2.97236 -3.02934 0.391208 
-0.01034 -0.000689 -0.02221 -5.95574 -0.0459029 0.511387 
-0.010612 -0.001219 -0.025835 2.23167 -2.93756 -1.06347 
-0.009992 -0.001037 -0.02221 2.98146 -2.98213 -0.0701772 
-0.010611 -0.000874 -0.025767 -1.11693 0.960651 -2.00372 
-0.009992 -0.000689 -0.02221 -0.0148532 0.0153714 -0.171026 
-0.009992 -0.001037 -0.005904 2.99822 -2.99737 0.161973 
-0.01034 -0.001037 -0.005904 -1.22543e-005 -5.70317 0.860769 
-0.01034 -0.000689 -0.005904 -1.74698e-005 -5.11738 2.27499 
-0.009992 -0.000689 -0.005904 2.99644 -2.4129 1.5845 
-0.007892 -0.004534 -0.020485 3.58842 -0.0262806 -0.927872 
-0.008088 -0.004246 -0.020485 0.780665 4.15683 0.1652 
-0.00805 -0.003918 -0.014101 0.797164 4.16392 0.0154632 
-0.007855 -0.004206 -0.014101 3.2938 2.14325 -1.92084 
-0.007892 -0.004534 -0 1.99587 1.35829 3.41422 
-0.008088 -0.004246 -0 1.09277 1.9533 1 
-0.008376 -0.004441 -0 -0.536738 2.05393 2.70711 
-0.00818 -0.004729 -0 1.75372 1.19349 3.12133 
-0.008143 -0.004402 -0.014101 0.819855 0.510199 -0.821247 
-0.008338 -0.004114 -0.014101 -0.856825 3.04132 0.0715371 
-0.008376 -0.004441 -0.020485 -2.77636 0.531694 0.0282738 
-0.00818 -0.004729 -0.020485 0.843452 -3.146 -1.96413 
-0.007305 -0.003857 -0.038975 -1.51391 -1.25595 -3.90646 
-0.007369 -0.003857 -0.038969 -2.23487 -0.631179 -1.03976 
-0.007369 -0.003792 -0.038973 -0.740714 2.05574 -1.8019 
-0.007305 -0.003792 -0.038979 0.855638 0.829409 -2.638 
-0.007131 -0.004766 -0.032343 -0.0324782 -3.97014 -0.690917 
-0.006851 -0.004576 -0.032479 2.15116 0.307681 -2.52186 
-0.007092 -0.00399 -0.027405 4.19305 -0.758152 0.49457 
-0.007379 -0.004185 -0.027363 3.43422 -4.89185 0.364371 
-0.007046 -0.004287 -0.03247 0.249272 4.04787 -0.903501 
-0.007288 -0.003702 -0.027405 0.766877 4.1371 -0.0338407 
-0.007325 -0.004477 -0.032335 -1.46256 0.0451038 0.221831 
-0.007575 -0.003897 -0.027363 -0.0232658 -0.0254877 -0.122106 
-0.008088 -0.004246 -0.008246 0.79791 4.16788 0.116071 
-0.007892 -0.004534 -0.008246 4.71847 3.20686 0.81732 
-0.00818 -0.004729 -0.008246 4.23419 2.87728 2.23154 
-0.008376 -0.004441 -0.008246 0.31305 3.83823 1.53615 
-0.005202 -0.003995 -0.011754 -3.03425 2.12556 0.288087 
-0.005234 -0.004342 -0.011754 -2.1478 -2.98741 -0.216234 
-0.00495 -0.004888 -0.010096 -0.37747 -3.67688 -0.255375 
-0.005232 -0.004684 -0.010096 -3.50429 -1.10297 0.596947 
-0.005309 -0.004364 -0 -1.41502 -1.95605 3.41421 
-0.005027 -0.004568 -0 -0.359671 -2.20332 1 
-0.004824 -0.004285 -0 1.21068 -1.73864 2.70711 
-0.005106 -0.004082 -0 -1.24335 -1.71874 3.12133 
-0.005029 -0.004402 -0.010096 -0.364786 -0.729295 0.586595 
-0.004746 -0.004605 -0.010096 1.34932 -3.54347 -0.268989 
-0.004887 -0.004373 -0.011754 2.12434 -1.04463 -0.0885214 
-0.004856 -0.004026 -0.011754 0.332768 5.13933 0.612953 
-0.004057 -0.003884 -0.022402 3.66477 -0.36763 -2.01073 
-0.003998 -0.003922 -0.022353 2.22248 -0.872525 0.554332 
-0.004037 -0.003997 -0.022365 0.510013 -2.43298 -1.89233 
-0.004096 -0.003959 -0.022414 0.580387 -0.60083 -2.9294 
-0.005643 -0.003333 -0.020244 2.63914 3.13661 1.1869 
-0.00598 -0.003302 -0.020342 -0.312027 0.788469 -1.8539 
-0.006166 -0.003908 -0.016709 -2.74534 3.23344 0.68518 
-0.00582 -0.003939 -0.016679 0.440889 5.94001 0.506172 
-0.006013 -0.003648 -0.020336 -1.90452 -3.20492 -1.81267 
-0.006197 -0.004254 -0.016709 -3.20404 -2.70365 -0.0486815 
-0.005677 -0.003679 -0.020238 0.974268 -0.839449 1.13727 
-0.005852 -0.004285 -0.016679 0.0312864 0.0121145 -0.169166 
-0.005027 -0.004568 -0.005904 0.678754 -4.17708 0.161503 
-0.005309 -0.004364 -0.005904 -3.34277 -4.62087 0.860156 
-0.005106 -0.004082 -0.005904 -2.99943 -4.14624 2.27437 
-0.004824 -0.004285 -0.005904 1.01921 -3.70342 1.58417 
0.004667 -0.000481 -0.022448 0.578806 -4.20022 -0.0197834 
0.004877 -0.000204 -0.022448 4.20243 0.578199 -0.102206 
0.005199 -0.000134 -0.015452 4.20212 0.579502 0.0142911 
0.004989 -0.000412 -0.015452 1.98018 -4.00448 0.152902 
0.004667 -0.000481 -0 1.92383 -1.45852 3.41422 
0.004877 -0.000204 -0 2.1979 -0.41139 1 
0.0046 6e-006 -0 1.77174 1.16657 2.70711 
0.00439 -0.000271 -0 1.69043 -1.28157 3.12133 
0.004712 -0.000202 -0.015452 0.192946 -1.39901 0.203378 
0.004922 7.6e-005 -0.015452 2.60806 1.78596 0.0650912 
0.0046 6e-006 -0.022448 -0.386186 2.79958 0.0256284 
0.00439 -0.000271 -0.022448 -3.81718 -3.37948 0.113895 
0.005291 -0.000665 -0.046639 -1.40876 0.791528 -4.01537 
0.00527 -0.000603 -0.046639 -1.22849 1.83519 -1.16051 
0.005331 -0.000582 -0.046639 1.87561 1.23368 -1.78741 
0.005352 -0.000644 -0.046639 1.23646 -0.696268 -2.55571 
0.004163 -0.000877 -0.039446 -3.76213 -1.28059 -0.842342 
0.004438 -0.001085 -0.03955 1.10066 -2.06726 -2.40217 
0.004667 -0.000481 -0.033994 0.61251 -4.2147 0.258027 
0.00439 -0.000271 -0.033994 -3.57134 -4.79737 0.33741 
0.004649 -0.000808 -0.039541 3.98117 1.01086 -0.728265 
0.004877 -0.000204 -0.033994 4.18339 0.581077 -0.046264 
0.004374 -0.000599 -0.039437 -0.444686 1.40673 0.135609 
0.0046 6e-006 -0.033994 -0.0159633 0.00400627 -0.112407 
0.004877 -0.000204 -0.009036 4.20275 0.579695 0.105912 
0.004667 -0.000481 -0.009036 4.54811 -3.44479 0.807498 
0.00439 -0.000271 -0.009036 4.0813 -3.0909 2.22172 
0.0046 6e-006 -0.009036 3.73539 0.931947 1.52565 
0.003228 0.000456 -0.020227 -3.14178 0.242625 0.0405767 
0.003313 0.000118 -0.020227 -2.16093 -3.63309 0.166942 
0.003165 -0.000176 -0.013923 -2.17862 -3.63855 0.0156806 
0.00308 0.000162 -0.013923 -3.38941 -2.9136 0.0142475 
0.003228 0.000456 0 -2.34132 -0.58878 3.41422 
0.003313 0.000118 0 -1.69504 -1.4574 1 
0.00365 0.000203 0 -0.196622 -2.11171 2.70711 
0.003566 0.00054 0 -2.05726 -0.517344 3.12133 
0.003418 0.000246 -0.013923 -0.724121 -1.21773 0.148084 
0.003502 -9.2e-005 -0.013923 -0.239403 -3.15354 0.0724569 
0.00365 0.000203 -0.020227 2.42591 -1.45642 0.0283815 
0.003566 0.00054 -0.020227 0.727411 1.21259 -0.0287944 
0.002444 2.3e-005 -0.038484 1.87391 0.671085 -3.90369 
0.002504 1e-006 -0.038477 2.32252 -0.171689 -1.03944 
0.002482 -6e-005 -0.038482 0.00285399 -2.17723 -1.79706 
0.002421 -3.8e-005 -0.038488 -1.07533 -0.476515 -2.639 
0.002594 0.000936 -0.031935 1.39809 3.71851 -0.68758 
0.002266 0.000855 -0.032069 -2.1208 0.460467 -2.52264 
0.00229 0.000221 -0.02706 -3.67716 2.15818 0.501056 
0.002626 0.000306 -0.027018 -1.54348 5.77371 0.369681 
0.002349 0.000516 -0.032061 -1.62836 -3.7121 -0.908322 
0.002374 -0.000116 -0.02706 -2.14397 -3.61518 -0.0345039 
0.002677 0.000598 -0.031927 1.35341 -0.546748 0.224623 
0.002711 -3.2e-005 -0.027018 0.0273479 0.0151967 -0.123152 
0.003313 0.000118 -0.008142 -2.17595 -3.63965 0.117557 
0.003228 0.000456 -0.008142 -5.53276 -1.39136 0.818723 
0.003566 0.00054 -0.008142 -4.96466 -1.24849 2.23294 
0.00365 0.000203 -0.008142 -1.6101 -3.49638 1.53772 
0.005684 0.002207 -0.011754 -1.4659 -1.66306 -0.217095 
0.005963 0.001999 -0.011754 1.42009 -3.39624 -0.217796 
0.006577 0.001954 -0.010096 2.94156 -2.24893 -0.258284 
0.006256 0.00182 -0.010096 2.9631 -3.95366 -0.407136 
0.005942 0.001922 0 0.927551 -2.22892 3.41421 
0.006264 0.002056 0 1.69124 -1.46127 1 
0.00613 0.002377 0 2.11731 0.117622 2.70711 
0.005809 0.002244 0 0.815017 -1.9585 3.12133 
0.006122 0.002141 -0.010096 2.36643 -0.88777 0.0852937 
0.006443 0.002275 -0.010096 3.73118 -0.707345 -0.269258 
0.006171 0.002277 -0.011754 2.00786 1.26076 -0.0887032 
0.005893 0.002486 -0.011754 -0.34376 2.58941 -0.391522 
0.00619 0.003241 -0.022402 2.23897 2.93091 -2.00642 
0.006254 0.00327 -0.022353 1.90999 1.43436 0.554368 
0.006297 0.003198 -0.022365 2.3402 -0.841675 -1.89229 
0.006234 0.003168 -0.022414 0.8175 0.182378 -2.92755 
0.004889 0.002179 -0.020244 -1.28295 3.89609 1.18809 
0.004686 0.001909 -0.020342 -0.83538 0.152468 -1.8523 
0.005105 0.001433 -0.016709 -4.19076 -0.636625 0.685417 
0.005313 0.00171 -0.016679 -4.81967 3.4996 0.505656 
0.004964 0.001699 -0.020336 1.72706 -3.30276 -1.81431 
0.005383 0.001224 -0.016709 0.617771 -4.1463 -0.0476454 
0.005167 0.001969 -0.020238 1.22629 0.38782 1.13464 
0.005591 0.001502 -0.016679 0.00822675 0.0357901 -0.169458 
0.006264 0.002056 -0.005904 3.91947 -1.61189 0.161752 
0.005942 0.001922 -0.005904 2.19272 -5.26481 0.860597 
0.005809 0.002244 -0.005904 1.96765 -4.72398 2.27481 
0.00613 0.002377 -0.005904 3.69276 -1.07317 1.58423 
0.009413 -0.005615 -0.011754 3.35021 1.16187 0.667385 
0.009159 -0.005377 -0.011754 -1.03224 3.53507 -0.217272 
0.008554 -0.005264 -0.010096 -2.67085 2.5662 -0.25717 
0.008888 -0.005167 -0.010096 0.905164 3.59787 1.35799 
0.009188 -0.005303 -0 -0.673304 2.31842 3.41421 
0.008854 -0.0054 -0 -1.51833 1.64252 1 
0.008951 -0.005735 -0 -2.11829 0.122794 2.70711 
0.009285 -0.005637 -0 -0.591615 2.03715 3.12133 
0.008986 -0.005501 -0.010096 -0.54532 0.815079 0.968083 
0.008651 -0.005598 -0.010096 -3.62686 1.12173 -0.268958 
0.008921 -0.005631 -0.011754 -2.13182 -1.02746 -0.0876629 
0.009175 -0.005869 -0.011754 3.46574 -3.26836 1.37535 
0.008795 -0.006586 -0.022402 -2.55479 -2.66408 -2.00363 
0.008729 -0.006608 -0.022353 -2.05915 -1.21539 0.556516 
0.008694 -0.006532 -0.022365 -2.23614 1.0927 -1.88789 
0.00876 -0.006509 -0.022414 -0.837071 -0.0895681 -2.92578 
0.010206 -0.005675 -0.020244 0.843123 -4.01107 1.18763 
0.010438 -0.005429 -0.020342 0.808486 -0.240217 -1.85171 
0.010075 -0.00491 -0.016709 4.23754 0.171199 0.685018 
0.009838 -0.005163 -0.016679 4.40766 -4.00646 0.506046 
0.010185 -0.00519 -0.020336 -1.35398 3.47392 -1.8126 
0.009822 -0.004672 -0.016709 -0.155176 4.19098 -0.0480555 
0.009954 -0.005436 -0.020238 -1.26193 -0.25063 1.13662 
0.009584 -0.004925 -0.016679 -0.00897372 -0.0312976 -0.168685 
0.008854 -0.0054 -0.005904 -3.71578 2.04419 0.161654 
0.009188 -0.005303 -0.005904 -1.59059 5.4769 0.86025 
0.009285 -0.005637 -0.005904 -1.42721 4.91436 2.27447 
0.008951 -0.005735 -0.005904 -3.55094 1.48301 1.58438 
0.010362 -0.004319 -0.014667 -2.01458 -3.04472 0.905262 
0.01071 -0.004319 -0.014667 2.99702 -2.99891 -0.155987 
0.01096 -0.004533 -0.010096 2.99496 -2.99651 0.0219042 
0.010612 -0.004533 -0.010096 -0.029163 -4.08883 2.10377 
0.010362 -0.004319 -0 -9.94896e-006 -2.41421 3.41421 
0.01071 -0.004319 -0 0.999998 -2 1 
0.01071 -0.00397 -0 1.99999 -0.707105 2.70711 
0.010362 -0.00397 -0 -1.08025e-005 -2.12132 3.12133 
0.010612 -0.004185 -0.010096 -0.0145889 -1.04522 1.24571 
0.01096 -0.004185 -0.010096 2.99524 -0.998503 0.0992594 
0.01071 -0.00397 -0.014667 1.99851 1.9978 0.0393566 
0.010362 -0.00397 -0.014667 -3.02916 0.905086 2.04457 
0.010592 -0.004926 -0.030473 -0.196029 1.519 -4.09736 
0.010628 -0.004873 -0.030473 0.728097 2.07375 -1.24233 
0.010682 -0.004909 -0.030473 2.10791 -0.742029 -1.67638 
0.010645 -0.004963 -0.030473 0.200946 -1.45262 -2.5134 
0.009742 -0.004155 -0.025773 -3.24782 2.17375 -0.797016 
0.009742 -0.0045 -0.025841 -0.954988 -2.21102 -2.31813 
0.010362 -0.004319 -0.02221 -2.97224 -3.03218 0.39161 
0.010362 -0.00397 -0.02221 -5.95556 -0.0501519 0.51199 
0.01009 -0.004501 -0.025835 3.1897 -2.56802 -0.738323 
0.01071 -0.004319 -0.02221 2.9814 -2.98072 -0.0703791 
0.01009 -0.004156 -0.025767 0.859436 1.20199 0.206386 
0.01071 -0.00397 -0.02221 -0.0149115 0.0167903 -0.171229 
0.01071 -0.004319 -0.005904 2.99822 -2.9974 0.161498 
0.010362 -0.004319 -0.005904 -1.22769e-005 -5.70321 0.860056 
0.010362 -0.00397 -0.005904 -1.75075e-005 -5.11742 2.27427 
0.01071 -0.00397 -0.005904 2.99644 -2.41291 1.58426 
-0.002213 0.003403 -0.024487 -2.99946 -2.9992 -0.0233754 
-0.001865 0.003403 -0.024487 2.99893 -2.9996 -0.0936382 
-0.001615 0.003188 -0.016855 2.99819 -2.99874 0.0130535 
-0.001964 0.003188 -0.016855 -1.99892 -3.99819 0.129854 
-0.002213 0.003403 0 -1.65626e-005 -2.41421 3.41422 
-0.001865 0.003403 0 0.999997 -2 1 
-0.001865 0.003751 0 1.99999 -0.707103 2.70711 
-0.002213 0.003751 0 -1.79835e-005 -2.12131 3.12133 
-0.001964 0.003536 -0.016855 -0.999475 -0.999378 0.181389 
-0.001615 0.003536 -0.016855 2.99828 -0.999453 0.0597997 
-0.001865 0.003751 -0.024487 1.99946 1.99922 0.0235802 
-0.002213 0.003751 -0.024487 -4.99892 0.999625 0.0940475 
-0.001983 0.002795 -0.050876 -0.207811 1.61593 -4.00155 
-0.001947 0.002848 -0.050876 0.729587 2.09331 -1.14692 
-0.001893 0.002812 -0.050876 2.11547 -0.74546 -1.80541 
-0.00193 0.002758 -0.050876 0.194054 -1.39784 -2.5621 
-0.002833 0.003566 -0.04303 -3.28321 2.23631 -0.848645 
-0.002833 0.003221 -0.043143 -0.97717 -2.11016 -2.4152 
-0.002213 0.003403 -0.037081 -2.99091 -3.03319 0.236682 
-0.002213 0.003751 -0.037081 -5.98356 -0.050453 0.309561 
-0.002485 0.00322 -0.043133 3.21042 -2.55685 -0.727258 
-0.001865 0.003403 -0.037081 2.99075 -2.98207 -0.0427576 
-0.002485 0.003565 -0.043019 0.856129 1.21234 0.124021 
-0.001865 0.003751 -0.037081 -0.00552535 0.017207 -0.103561 
-0.001865 0.003403 -0.009857 2.99936 -2.99906 0.0971188 
-0.002213 0.003403 -0.009857 -2.04578e-005 -5.70569 0.799232 
-0.002213 0.003751 -0.009857 -2.91652e-005 -5.1199 2.21345 
-0.001865 0.003751 -0.009857 2.99871 -2.41373 1.51633 
-0.002505 0.00557 -0.014667 -1.19928 2.90353 0.0381813 
-0.002767 0.005341 -0.014667 -4.20669 0.267984 0.226828 
-0.003097 0.00534 -0.010096 -4.22851 0.29619 0.0216968 
-0.002834 0.005568 -0.010096 -4.12639 1.69973 -0.0128989 
-0.002505 0.00557 0 -1.58878 1.81775 3.41421 
-0.002767 0.005341 0 -2.07055 0.849403 1 
-0.002539 0.005079 0 -1.97406 -0.780522 2.70711 
-0.002276 0.005307 0 -1.39602 1.59721 3.12133 
-0.002606 0.005305 -0.010096 -1.41019 0.0935393 0.187786 
-0.002869 0.005077 -0.010096 -2.91842 -1.21234 0.0997329 
-0.002539 0.005079 -0.014667 -0.199653 -2.82066 0.0390392 
-0.002276 0.005307 -0.014667 1.41367 -0.0985647 -0.0721358 
-0.003246 0.006073 -0.027905 1.39224 -1.26804 -3.95135 
-0.003239 0.006009 -0.027901 0.879077 -2.11568 -1.06018 
-0.003303 0.006001 -0.027904 -1.97053 -0.924924 -1.7333 
-0.00331 0.006065 -0.027909 -0.941666 0.809757 -2.62962 
-0.002364 0.006353 -0.023157 3.92122 0.44646 -0.607988 
-0.002585 0.006608 -0.023254 -0.577456 2.15248 -2.49971 
-0.003139 0.0063 -0.019622 0.25878 4.2326 0.685399 
-0.002911 0.006038 -0.019592 4.43275 3.97854 0.506492 
-0.002849 0.006381 -0.023248 -4.03843 -0.200113 -0.95697 
-0.003402 0.006072 -0.019622 -4.18302 0.270227 -0.0482877 
-0.002628 0.006126 -0.023151 0.121793 -1.45223 0.30854 
-0.003174 0.00581 -0.019592 0.0309819 -0.0129429 -0.168883 
-0.002767 0.005341 -0.005904 -4.23186 0.291966 0.162102 
-0.002505 0.00557 -0.005904 -3.74865 4.2981 0.860917 
-0.002276 0.005307 -0.005904 -3.36314 3.85704 2.27513 
-0.002539 0.005079 -0.005904 -3.84802 -0.147554 1.58461 
0.003197 -0.003212 -0.015175 -2.388 -3.26483 1.90527 
0.003327 -0.00328 -0.015363 -2.0495 -4.57078 -0.954909 
0.005808 -0.004578 -0.012156 -2.78151 -5.31631 -0.000921838 
0.005578 -0.004458 -0.012096 -2.78152 -5.31631 -0.000916502 
0.003364 -0.002893 -0.015175 -2.19173 -2.23883 2.8587 
0.005745 -0.004139 -0.012096 -2.78152 -5.31631 -0.000915227 
0.003494 -0.002961 -0.015363 -1.12221 -2.79874 -0.954786 
0.005975 -0.004259 -0.012156 -2.78152 -5.31631 -0.000920626 
0.006963 -0.005183 0 2.26423 -1.18536 3.36671 
0.00713 -0.004864 0 2.46101 -1.28837 1.67626 
0.006854 -0.004719 1.6e-005 2.02205 -1.05856 4.05848 
0.006687 -0.005038 1.6e-005 1.97664 -1.0348 3.05979 
-0.006643 0.002344 0 -1.90828 0.999014 2.98659 
-0.00681 0.002025 0 -1.85664 -1.28552 0.994027 
-0.006534 0.001881 1.6e-005 1.2183 -1.76654 2.00612 
-0.006367 0.0022 1.6e-005 0.749515 -0.392366 3.00041 
-0.005258 0.001619 -0.012096 4.56024 -2.38733 2.78781 
-0.005425 0.0013 -0.012096 0.981682 -3.90015 1.2008 
-0.003044 5.4e-005 -0.015175 -0.51967 -4.24292 1.31509 
-0.002877 0.000373 -0.015175 0.611637 -3.70643 1.9728 
-0.005654 0.00142 -0.012156 -3.57939 -1.51581 -1.58674 
-0.003174 0.000122 -0.015363 -2.98629 -4.08141 -0.657816 
-0.005488 0.001739 -0.012156 -0.186681 0.0940167 0.386067 
-0.003007 0.000441 -0.015363 -2.05899 -2.31042 -0.657593 
0.006931 -0.005166 -0.007662 1.02354 -3.92207 0.678019 
0.006657 -0.005022 -0.007782 0.539167 -3.6685 2.06155 
0.006824 -0.004704 -0.007782 0.539167 -3.66849 2.06155 
0.007098 -0.004847 -0.007662 0.78136 -3.79528 1.36979 
-0.006337 0.002184 -0.007782 4.28422 -2.24283 1.82253 
-0.006504 0.001865 -0.007782 -0.113364 -4.45563 0.276379 
-0.006778 0.002008 -0.007662 -4.4042 0.0454889 -0.552433 
-0.006611 0.002327 -0.007662 -0.124846 0.0640376 2.26449 
7.7e-005 -0.001579 -0.016524 -1.31981 -3.82404 -1.90674 
7.7e-005 -0.001579 -0.01629 -2.58559 -4.29014 0.953317 
0.000244 -0.00126 -0.01629 -2.19305 -2.23815 2.86018 
0.000244 -0.00126 -0.016524 -1.65829 -2.51809 0.953432 
3 0 1 2 
3 0 2 3 
3 4 5 6 
3 4 6 7 
3 8 9 10 
3 8 10 11 
3 12 13 14 
3 12 14 15 
3 1 10 9 
3 1 9 2 
3 11 0 3 
3 11 3 8 
3 16 17 18 
3 16 18 19 
3 17 20 21 
3 17 21 18 
3 20 22 23 
3 20 23 21 
3 19 23 22 
3 19 22 16 
3 13 12 20 
3 13 20 17 
3 12 15 22 
3 12 22 20 
3 16 22 15 
3 16 15 14 
3 14 13 17 
3 14 17 16 
3 3 2 24 
3 3 24 25 
3 8 3 25 
3 8 25 26 
3 26 27 9 
3 26 9 8 
3 2 9 27 
3 2 27 24 
3 19 18 0 
3 19 0 11 
3 18 21 1 
3 18 1 0 
3 21 23 10 
3 21 10 1 
3 11 10 23 
3 11 23 19 
3 25 24 5 
3 25 5 4 
3 26 25 4 
3 26 4 7 
3 7 6 27 
3 7 27 26 
3 24 27 6 
3 24 6 5 
3 28 29 30 
3 28 30 31 
3 32 33 34 
3 32 34 35 
3 36 37 38 
3 36 38 39 
3 40 41 42 
3 40 42 43 
3 29 38 37 
3 29 37 30 
3 39 28 31 
3 39 31 36 
3 44 45 46 
3 44 46 47 
3 45 48 49 
3 45 49 46 
3 48 50 51 
3 48 51 49 
3 47 51 50 
3 47 50 44 
3 43 42 48 
3 43 48 45 
3 42 41 50 
3 42 50 48 
3 44 50 41 
3 44 41 40 
3 40 43 45 
3 40 45 44 
3 31 30 52 
3 31 52 53 
3 36 31 53 
3 36 53 54 
3 54 55 37 
3 54 37 36 
3 30 37 55 
3 30 55 52 
3 47 46 28 
3 47 28 39 
3 46 49 29 
3 46 29 28 
3 49 51 38 
3 49 38 29 
3 39 38 51 
3 39 51 47 
3 53 52 33 
3 53 33 32 
3 54 53 32 
3 54 32 35 
3 35 34 55 
3 35 55 54 
3 52 55 34 
3 52 34 33 
3 56 57 58 
3 56 58 59 
3 60 61 62 
3 60 62 63 
3 64 65 66 
3 64 66 67 
3 68 69 70 
3 68 70 71 
3 57 66 65 
3 57 65 58 
3 67 56 59 
3 67 59 64 
3 72 73 74 
3 72 74 75 
3 73 76 77 
3 73 77 74 
3 76 78 79 
3 76 79 77 
3 75 79 78 
3 75 78 72 
3 71 70 76 
3 71 76 73 
3 70 69 78 
3 70 78 76 
3 72 78 69 
3 72 69 68 
3 68 71 73 
3 68 73 72 
3 59 58 80 
3 59 80 81 
3 64 59 81 
3 64 81 82 
3 82 83 65 
3 82 65 64 
3 58 65 83 
3 58 83 80 
3 75 74 56 
3 75 56 67 
3 74 77 57 
3 74 57 56 
3 77 79 66 
3 77 66 57 
3 67 66 79 
3 67 79 75 
3 81 80 61 
3 81 61 60 
3 82 81 60 
3 82 60 63 
3 63 62 83 
3 63 83 82 
3 80 83 62 
3 80 62 61 
3 84 85 86 
3 84 86 87 
3 88 89 90 
3 88 90 91 
3 92 93 94 
3 92 94 95 
3 96 97 98 
3 96 98 99 
3 85 94 93 
3 85 93 86 
3 95 84 87 
3 95 87 92 
3 100 101 102 
3 100 102 103 
3 101 104 105 
3 101 105 102 
3 104 106 107 
3 104 107 105 
3 103 107 106 
3 103 106 100 
3 99 98 104 
3 99 104 101 
3 98 97 106 
3 98 106 104 
3 100 106 97 
3 100 97 96 
3 96 99 101 
3 96 101 100 
3 87 86 108 
3 87 108 109 
3 92 87 109 
3 92 109 110 
3 110 111 93 
3 110 93 92 
3 86 93 111 
3 86 111 108 
3 103 102 84 
3 103 84 95 
3 102 105 85 
3 102 85 84 
3 105 107 94 
3 105 94 85 
3 95 94 107 
3 95 107 103 
3 109 108 89 
3 109 89 88 
3 110 109 88 
3 110 88 91 
3 91 90 111 
3 91 111 110 
3 108 111 90 
3 108 90 89 
3 112 113 114 
3 112 114 115 
3 116 117 118 
3 116 118 119 
3 120 121 122 
3 120 122 123 
3 124 125 126 
3 124 126 127 
3 113 122 121 
3 113 121 114 
3 123 112 115 
3 123 115 120 
3 128 129 130 
3 128 130 131 
3 129 132 133 
3 129 133 130 
3 132 134 135 
3 132 135 133 
3 131 135 134 
3 131 134 128 
3 127 126 132 
3 127 132 129 
3 126 125 134 
3 126 134 132 
3 128 134 125 
3 128 125 124 
3 124 127 129 
3 124 129 128 
3 115 114 136 
3 115 136 137 
3 120 115 137 
3 120 137 138 
3 138 139 121 
3 138 121 120 
3 114 121 139 
3 114 139 136 
3 131 130 112 
3 131 112 123 
3 130 133 113 
3 130 113 112 
3 133 135 122 
3 133 122 113 
3 123 122 135 
3 123 135 131 
3 137 136 117 
3 137 117 116 
3 138 137 116 
3 138 116 119 
3 119 118 139 
3 119 139 138 
3 136 139 118 
3 136 118 117 
3 140 141 142 
3 140 142 143 
3 144 145 146 
3 144 146 147 
3 148 149 150 
3 148 150 151 
3 152 153 154 
3 152 154 155 
3 141 150 149 
3 141 149 142 
3 151 140 143 
3 151 143 148 
3 156 157 158 
3 156 158 159 
3 157 160 161 
3 157 161 158 
3 160 162 163 
3 160 163 161 
3 159 163 162 
3 159 162 156 
3 155 154 160 
3 155 160 157 
3 154 153 162 
3 154 162 160 
3 156 162 153 
3 156 153 152 
3 152 155 157 
3 152 157 156 
3 143 142 164 
3 143 164 165 
3 148 143 165 
3 148 165 166 
3 166 167 149 
3 166 149 148 
3 142 149 167 
3 142 167 164 
3 159 158 140 
3 159 140 151 
3 158 161 141 
3 158 141 140 
3 161 163 150 
3 161 150 141 
3 151 150 163 
3 151 163 159 
3 165 164 145 
3 165 145 144 
3 166 165 144 
3 166 144 147 
3 147 146 167 
3 147 167 166 
3 164 167 146 
3 164 146 145 
3 168 169 170 
3 168 170 171 
3 172 173 174 
3 172 174 175 
3 176 177 178 
3 176 178 179 
3 180 181 182 
3 180 182 183 
3 169 178 177 
3 169 177 170 
3 179 168 171 
3 179 171 176 
3 184 185 186 
3 184 186 187 
3 185 188 189 
3 185 189 186 
3 188 190 191 
3 188 191 189 
3 187 191 190 
3 187 190 184 
3 183 182 188 
3 183 188 185 
3 182 181 190 
3 182 190 188 
3 184 190 181 
3 184 181 180 
3 180 183 185 
3 180 185 184 
3 171 170 192 
3 171 192 193 
3 176 171 193 
3 176 193 194 
3 194 195 177 
3 194 177 176 
3 170 177 195 
3 170 195 192 
3 187 186 168 
3 187 168 179 
3 186 189 169 
3 186 169 168 
3 189 191 178 
3 189 178 169 
3 179 178 191 
3 179 191 187 
3 193 192 173 
3 193 173 172 
3 194 193 172 
3 194 172 175 
3 175 174 195 
3 175 195 194 
3 192 195 174 
3 192 174 173 
3 196 197 198 
3 196 198 199 
3 200 201 202 
3 200 202 203 
3 204 205 206 
3 204 206 207 
3 208 209 210 
3 208 210 211 
3 197 206 205 
3 197 205 198 
3 207 196 199 
3 207 199 204 
3 212 213 214 
3 212 214 215 
3 213 216 217 
3 213 217 214 
3 216 218 219 
3 216 219 217 
3 215 219 218 
3 215 218 212 
3 211 210 216 
3 211 216 213 
3 210 209 218 
3 210 218 216 
3 212 218 209 
3 212 209 208 
3 208 211 213 
3 208 213 212 
3 199 198 220 
3 199 220 221 
3 204 199 221 
3 204 221 222 
3 222 223 205 
3 222 205 204 
3 198 205 223 
3 198 223 220 
3 215 214 196 
3 215 196 207 
3 214 217 197 
3 214 197 196 
3 217 219 206 
3 217 206 197 
3 207 206 219 
3 207 219 215 
3 221 220 201 
3 221 201 200 
3 222 221 200 
3 222 200 203 
3 203 202 223 
3 203 223 222 
3 220 223 202 
3 220 202 201 
3 224 225 226 
3 224 226 227 
3 228 229 230 
3 228 230 231 
3 232 233 234 
3 232 234 235 
3 236 237 238 
3 236 238 239 
3 225 234 233 
3 225 233 226 
3 235 224 227 
3 235 227 232 
3 240 241 242 
3 240 242 243 
3 241 244 245 
3 241 245 242 
3 244 246 247 
3 244 247 245 
3 243 247 246 
3 243 246 240 
3 239 238 244 
3 239 244 241 
3 238 237 246 
3 238 246 244 
3 240 246 237 
3 240 237 236 
3 236 239 241 
3 236 241 240 
3 227 226 248 
3 227 248 249 
3 232 227 249 
3 232 249 250 
3 250 251 233 
3 250 233 232 
3 226 233 251 
3 226 251 248 
3 243 242 224 
3 243 224 235 
3 242 245 225 
3 242 225 224 
3 245 247 234 
3 245 234 225 
3 235 234 247 
3 235 247 243 
3 249 248 229 
3 249 229 228 
3 250 249 228 
3 250 228 231 
3 231 230 251 
3 231 251 250 
3 248 251 230 
3 248 230 229 
3 252 253 254 
3 252 254 255 
3 256 257 258 
3 256 258 259 
3 260 261 262 
3 260 262 263 
3 264 265 266 
3 264 266 267 
3 253 262 261 
3 253 261 254 
3 263 252 255 
3 263 255 260 
3 268 269 270 
3 268 270 271 
3 269 272 273 
3 269 273 270 
3 272 274 275 
3 272 275 273 
3 271 275 274 
3 271 274 268 
3 267 266 272 
3 267 272 269 
3 266 265 274 
3 266 274 272 
3 268 274 265 
3 268 265 264 
3 264 267 269 
3 264 269 268 
3 255 254 276 
3 255 276 277 
3 260 255 277 
3 260 277 278 
3 278 279 261 
3 278 261 260 
3 254 261 279 
3 254 279 276 
3 271 270 252 
3 271 252 263 
3 270 273 253 
3 270 253 252 
3 273 275 262 
3 273 262 253 
3 263 262 275 
3 263 275 271 
3 277 276 257 
3 277 257 256 
3 278 277 256 
3 278 256 259 
3 259 258 279 
3 259 279 278 
3 276 279 258 
3 276 258 257 
3 280 281 282 
3 280 282 283 
3 284 280 283 
3 284 283 285 
3 286 284 285 
3 286 285 287 
3 281 286 287 
3 281 287 282 
3 288 289 290 
3 288 290 291 
3 292 293 294 
3 292 294 295 
3 296 297 298 
3 296 298 299 
3 297 300 301 
3 297 301 298 
3 300 302 303 
3 300 303 301 
3 302 296 299 
3 302 299 303 
3 283 282 304 
3 283 304 305 
3 285 283 305 
3 285 305 306 
3 287 285 306 
3 287 306 307 
3 282 287 307 
3 282 307 304 
3 308 309 297 
3 308 297 296 
3 309 310 300 
3 309 300 297 
3 310 311 302 
3 310 302 300 
3 311 308 296 
3 311 296 302 
3 293 310 309 
3 293 309 294 
3 292 311 310 
3 292 310 293 
3 295 308 311 
3 295 311 292 
3 294 309 308 
3 294 308 295 
3 298 301 312 
3 298 312 313 
3 299 298 313 
3 299 313 314 
3 303 299 314 
3 303 314 315 
3 301 303 315 
3 301 315 312 
3 314 313 280 
3 314 280 284 
3 313 312 281 
3 313 281 280 
3 312 315 286 
3 312 286 281 
3 315 314 284 
3 315 284 286 
3 304 307 289 
3 304 289 288 
3 305 304 288 
3 305 288 291 
3 306 305 291 
3 306 291 290 
3 307 306 290 
3 307 290 289 
