ply
format ascii 1.0
comment VCGLIB generated
element vertex 125
property float x
property float y
property float z
property float nx
property float ny
property float nz
element face 195
property list uchar int vertex_indices
end_header
0.002237 5.3e-005 0.018364 5.40025e-006 8.55235e-006 -3.45716e-006 
0.00207 -0.000207 0.018982 -4.39413e-007 -3.66558e-006 2.56403e-006 
0.002679 -0.000394 0.018812 6.61384e-007 -3.56495e-007 8.72679e-007 
0.002074 -0.000998 0.016663 4.10902e-006 4.09146e-006 -5.36139e-006 
0.002376 -0.001339 0.016947 1.25967e-006 -6.02968e-007 -3.12376e-007 
0.00141 -0.002036 0.015989 1.36727e-006 -2.84212e-006 -1.02587e-006 
0.001979 0.000246 0.01993 1.27173e-006 -6.45348e-008 1.21988e-006 
0.001238 0.000176 0.019318 -6.16646e-007 -6.02666e-006 2.26297e-006 
-0.002463 -0.000346 0.017716 -4.03575e-006 4.84017e-006 -3.54514e-006 
-0.002353 -0.001257 0.016702 -2.10721e-006 1.37032e-006 -3.01274e-006 
-0.002683 -0.000812 0.017539 -1.4681e-006 4.9817e-008 -2.1658e-007 
-0.000545 0.000867 0.019063 -9.24118e-008 6.42071e-006 -7.03724e-007 
-0.001499 0.00038 0.018154 -2.05824e-006 5.17295e-006 -2.53155e-006 
-0.001413 0.000798 0.019465 -2.06513e-006 5.26343e-006 9.96487e-007 
-0.000791 -0.000411 0.01897 -1.39477e-006 -4.16732e-006 5.41747e-006 
-0.000961 -0.001175 0.018171 -6.32329e-007 -5.78298e-006 3.09036e-006 
0.000679 -0.000536 0.01892 1.35457e-006 -4.80578e-006 4.31999e-006 
-0.001885 -0.001037 0.017526 1.34078e-006 -4.73165e-006 3.67577e-006 
-0.002493 -0.001257 0.017651 -4.92961e-007 -1.58659e-006 1.30985e-006 
-0.00185 -0.001852 0.016578 -2.63583e-007 -3.85545e-006 1.58976e-006 
0.001578 -0.000985 0.017367 -1.49493e-006 -3.84471e-006 3.26355e-006 
-0.00279 -0.000571 0.018576 -1.09319e-006 -2.0912e-006 2.10564e-006 
-0.002334 0.00022 0.018826 -2.39764e-006 2.4848e-006 1.36808e-008 
0.001034 0.000553 0.018527 1.53619e-006 5.70442e-006 -2.17852e-006 
0.001158 0.00084 0.019768 2.16195e-006 6.56513e-006 -1.00674e-007 
-0.000304 0.000665 0.020718 -9.34046e-007 -6.43468e-007 2.09923e-006 
0.000649 0.00083 0.020457 2.14284e-007 4.22355e-006 1.06806e-006 
-0.000613 0.000325 0.019937 -9.91783e-009 -4.36861e-006 1.51497e-006 
-0.001394 0.000132 0.019182 -8.4355e-007 -5.24781e-006 4.03308e-006 
-0.001282 -0.001768 0.015996 -1.2154e-006 1.04353e-006 -2.9775e-006 
-0.001389 -0.002127 0.016069 -5.16837e-008 -1.9134e-006 -9.86366e-007 
-0.001394 0.000132 0.019182 -7.15899e-007 -1.74265e-006 2.42723e-006 
-0.001885 -0.001037 0.017526 -1.65524e-006 -4.4497e-006 2.13623e-006 
0.001238 0.000176 0.019318 8.48365e-007 -2.47893e-006 3.4633e-006 
0.000693 -0.000995 0.018213 9.47814e-007 -4.66447e-006 1.89086e-006 
0.001578 -0.000985 0.017367 1.87236e-006 -4.5008e-006 1.92182e-006 
-7.3e-005 -0.001337 0.017321 2.9532e-007 -6.82263e-006 1.48749e-006 
-0.000141 -0.001551 0.016578 7.26622e-008 -2.58382e-006 7.37546e-007 
-0.001103 -0.000761 0.016431 -2.67209e-006 5.51618e-006 -7.25019e-006 
-0.002076 0.000298 0.019323 -2.62e-007 -2.72783e-007 6.24368e-007 
0.000257 -0.000454 0.016709 8.8625e-008 2.06724e-006 -2.32061e-006 
0.000403 -0.001502 0.015781 6.65618e-007 2.96699e-006 -8.45959e-006 
-0.001499 0.00038 0.018154 -1.26275e-007 8.71519e-006 -5.15817e-006 
0.000257 -0.000454 0.016709 -2.23272e-009 8.25361e-006 -4.97567e-006 
-0.001103 -0.000761 0.016431 -2.11763e-007 2.45337e-006 -1.67333e-006 
0.000429 -0.00194 0.01624 -4.2545e-007 -6.25654e-006 3.04016e-006 
0.002906 -0.00082 0.018098 2.07662e-006 5.28497e-007 -7.33163e-007 
0.000777 0.000426 0.020044 5.39848e-007 -3.12498e-006 2.23223e-006 
-0.002396 -0.001893 0.016906 -9.86959e-007 -6.55976e-007 -1.456e-007 
0.002334 -0.001062 0.017835 7.21938e-008 -5.68951e-006 3.37863e-006 
-0.000141 -0.001551 0.016578 2.71473e-007 -3.22852e-006 3.23105e-006 
0.001034 0.000553 0.018527 2.33924e-007 7.7469e-006 -4.37087e-006 
0.001079 -0.000529 0.016721 1.48435e-007 1.48507e-006 -8.86029e-007 
0.001079 -0.000529 0.016721 1.93005e-006 5.60631e-006 -4.53702e-006 
-0.000545 0.000867 0.019063 2.43934e-008 1.94665e-006 -1.06853e-006 
-0.000514 0.000464 0.011414 -1.87594e-006 1.13255e-006 -1.29322e-006 
-0.00214 -0.000523 0.013118 -1.94324e-006 1.32638e-006 -7.85808e-007 
-0.000856 0.000103 0.012934 3.79406e-007 3.82968e-006 2.28018e-006 
-9.9e-005 0.000431 0.011543 2.28542e-006 5.5881e-007 8.15656e-007 
-0.000264 0.000207 0.011204 1.64761e-007 -2.17904e-006 -1.44144e-006 
-0.001483 -0.000537 0.013438 -1.56165e-007 1.29064e-006 2.74414e-006 
-0.000925 -0.000986 0.013559 2.42476e-006 -1.71933e-006 9.81308e-007 
-0.001427 -0.000747 0.013172 -9.32396e-007 -3.82033e-006 -3.79553e-006 
-0.002426 -0.001546 0.013494 -2.45099e-008 -7.57908e-007 -1.81393e-007 
-0.002327 -0.001144 0.013651 -3.22097e-007 3.38552e-007 6.76115e-007 
-0.000319 0.000433 0.011382 -2.73939e-006 1.15591e-006 1.81297e-006 
0.000611 0.00017 0.012674 -1.83707e-006 -3.22134e-006 1.32065e-006 
0.001651 0.000228 0.01355 -1.43834e-006 7.71843e-007 4.02893e-006 
-6.7e-005 0.000141 0.010948 7.90849e-007 -2.23077e-006 -1.42681e-006 
0.001431 0.000942 0.013181 -5.47236e-007 2.77202e-006 7.48988e-007 
-9.6e-005 0.000498 0.010976 1.27187e-006 1.93002e-006 -1.54555e-006 
0.002124 -0.000212 0.013207 3.28014e-007 -3.54049e-006 -9.21243e-007 
0.001618 0.000437 0.012981 2.57347e-006 1.30177e-006 -4.65392e-006 
0.003085 0.000264 0.012569 7.01003e-008 -5.44432e-007 -1.19327e-006 
0.002628 0.000677 0.012831 6.69156e-007 1.56071e-006 5.72564e-007 
0.002759 8.2e-005 0.01321 8.58573e-007 4.47601e-008 1.25668e-006 
-0.000228 0.000404 0.014286 1.05677e-006 -1.19814e-006 2.63029e-006 
-0.001 0.001367 0.014944 2.47271e-006 2.02161e-006 9.79924e-007 
-0.002018 0.002127 0.015235 -3.88525e-007 8.13208e-007 4.67118e-006 
-0.00027 0.000638 0.013896 7.20514e-007 1.33875e-006 -2.17218e-006 
-0.000417 0.000311 0.013904 -1.26537e-006 -1.319e-006 -1.20203e-006 
-0.002116 0.001206 0.015216 -1.10857e-006 -1.91076e-006 1.86536e-006 
-0.002196 0.002641 0.014637 1.33962e-006 1.9039e-006 -1.55424e-006 
-0.002002 0.001601 0.01484 -1.60576e-006 -1.66479e-006 -5.14855e-006 
-0.002937 0.002883 0.014146 3.85268e-009 3.56643e-007 -4.74766e-007 
-0.003085 0.002194 0.014294 -1.22524e-006 -3.41415e-007 4.05014e-007 
0.000911 0.001596 0.009295 -7.947e-007 -1.68282e-006 2.72815e-006 
6e-006 0.001387 0.008671 -2.80589e-006 7.28632e-008 1.2687e-006 
0.000246 0.000706 0.008208 6.31639e-007 -2.57204e-006 1.13635e-006 
0.001305 0.001968 0.009264 3.13986e-006 1.48825e-008 -1.62527e-006 
0.000401 0.001421 0.008369 -3.26943e-008 3.09447e-006 -2.96023e-006 
0.001007 0.003043 0.009741 -6.79441e-007 1.13413e-006 -2.43383e-007 
0.00123 0.00269 0.009863 2.10769e-007 -1.787e-007 5.34406e-007 
-0.000147 0.000248 0.006832 3.30454e-007 1.17223e-007 -8.3873e-007 
-0.000125 0.000347 0.008539 -1.93536e-007 -3.03162e-006 9.21648e-007 
-1.5e-005 0.000758 0.008214 -3.28203e-007 4.04163e-006 -3.18428e-006 
-0.000373 0.001116 0.010027 3.57715e-006 -6.33444e-007 1.23919e-006 
-0.000957 0.001808 0.01147 9.20881e-007 -4.12196e-006 2.93235e-006 
-0.001458 0.001347 0.010559 -4.42383e-006 -2.57522e-006 -3.63134e-007 
-0.00142 0.002716 0.012402 -2.16308e-007 -1.2371e-006 1.62534e-006 
-0.001853 0.002379 0.01181 -7.08242e-007 -4.4954e-007 3.48526e-007 
-0.001676 0.002665 0.011816 -2.27757e-006 4.94001e-006 -3.35459e-006 
-0.000836 0.002455 0.011669 3.64965e-006 3.06724e-006 -1.65053e-007 
-0.000327 0.000414 0.012819 5.32699e-007 -7.97801e-007 -2.35294e-006 
0.001062 -0.001161 0.014446 2.56072e-006 1.13929e-006 1.87164e-007 
0.00062 -0.001484 0.014236 2.77348e-008 -9.29529e-007 -4.67042e-006 
0.000286 -0.002269 0.014646 -2.88548e-006 -1.05629e-006 -1.96803e-007 
0.001156 -0.003043 0.013772 -2.61531e-007 -4.81182e-007 -2.21343e-007 
0.001309 -0.00244 0.013809 1.1281e-006 3.61194e-009 1.47246e-007 
0.000552 -0.001689 0.014762 6.30002e-007 4.38336e-007 4.50124e-006 
-0.000168 0.000423 0.013411 -1.73224e-006 1.68357e-006 2.60586e-006 
2.9e-005 0.000191 0 2.93441e-006 -3.39243e-006 -3.42523e-007 
-8e-006 0.000605 0.000569 8.77272e-006 7.41417e-006 -1.32344e-007 
-8.7e-005 0.000197 0.007763 -1.44341e-006 -1.09557e-005 -1.16445e-007 
-0.000481 0.00064 0 -2.92761e-006 3.38457e-006 -3.38094e-007 
-0.000445 0.000227 0.000569 -6.78465e-006 -6.11792e-006 -4.77697e-009 
-0.000366 0.000623 0.007745 -6.55472e-006 1.06063e-005 9.7413e-008 
9.8e-005 0.000406 0.012421 0.999877 -0.0161789 0.00106184 
-2.4e-005 0.000168 0.01243 1.99974 -0.0323741 0.00212375 
-0.000435 0.000172 0.012432 -5.21973e-006 -4.53192e-006 -1.38915e-007 
-0.000508 0.000603 0.016425 -1.05999e-005 1.96802e-006 1.07153e-007 
-0.000227 0.000441 0.018251 -2.99727e-007 1.08042e-006 3.69589e-007 
-2e-005 0.000677 0.016421 1.99974 -0.0323602 0.00212404 
-0.000156 -2.8e-005 0.017696 -3.46889e-006 -5.2366e-006 1.11084e-007 
8.7e-005 7.7e-005 0.017764 0.99987 -0.0161849 0.00106206 
3 0 1 2 
3 3 4 5 
3 1 6 7 
3 8 9 10 
3 11 12 13 
3 14 15 16 
3 17 18 19 
3 7 20 1 
3 17 21 18 
3 13 12 22 
3 0 23 24 
3 25 26 13 
3 27 25 28 
3 19 29 30 
3 31 32 14 
3 16 33 14 
3 14 33 31 
3 34 35 16 
3 16 35 33 
3 36 37 35 
3 15 32 36 
3 36 32 37 
3 14 32 15 
3 38 29 19 
3 24 11 26 
3 39 13 22 
3 28 25 13 
3 28 39 22 
3 18 21 8 
3 38 40 41 
3 42 43 44 
3 19 30 45 
3 10 18 8 
3 2 46 0 
3 26 47 24 
3 13 26 11 
3 48 10 9 
3 10 48 18 
3 19 48 9 
3 29 38 41 
3 41 5 45 
3 46 49 3 
3 24 23 11 
3 8 22 12 
3 0 24 6 
3 21 17 28 
3 47 27 7 
3 50 17 19 
3 1 20 49 
3 49 20 45 
3 20 50 45 
3 19 45 50 
3 27 28 7 
3 2 1 49 
3 5 49 45 
3 19 18 48 
3 0 46 3 
3 5 41 3 
3 34 15 36 
3 16 15 34 
3 51 52 43 
3 0 53 23 
3 51 42 54 
3 51 43 42 
3 0 3 53 
3 53 41 40 
3 3 41 53 
3 49 4 3 
3 30 41 45 
3 41 30 29 
3 47 6 24 
3 47 25 27 
3 2 49 46 
3 28 13 39 
3 1 0 6 
3 34 36 35 
3 47 7 6 
3 19 9 38 
3 8 21 22 
3 28 22 21 
3 47 26 25 
3 9 8 38 
3 5 4 49 
3 8 12 38 
3 55 56 57 
3 58 55 57 
3 58 59 55 
3 60 61 57 
3 61 59 58 
3 56 62 63 
3 63 61 60 
3 64 56 63 
3 61 63 62 
3 64 60 56 
3 63 60 64 
3 57 61 58 
3 60 57 56 
3 55 59 62 
3 59 61 62 
3 56 55 62 
3 65 66 67 
3 65 68 66 
3 69 70 65 
3 71 72 73 
3 69 74 72 
3 74 69 67 
3 75 71 73 
3 72 74 73 
3 74 75 73 
3 75 67 71 
3 74 67 75 
3 67 69 65 
3 68 65 70 
3 66 68 71 
3 67 66 71 
3 68 70 72 
3 72 70 69 
3 68 72 71 
3 76 77 78 
3 76 79 77 
3 76 80 79 
3 81 80 76 
3 82 83 84 
3 85 81 78 
3 81 85 83 
3 84 78 82 
3 85 78 84 
3 84 83 85 
3 78 81 76 
3 77 79 82 
3 78 77 82 
3 79 80 83 
3 80 81 83 
3 79 83 82 
3 86 87 88 
3 89 90 91 
3 87 91 90 
3 91 87 86 
3 92 89 91 
3 92 86 89 
3 91 86 92 
3 88 87 93 
3 88 93 89 
3 86 88 89 
3 93 87 90 
3 89 93 90 
3 94 95 96 
3 97 98 94 
3 99 98 97 
3 100 98 99 
3 101 100 99 
3 98 100 101 
3 99 97 102 
3 99 102 101 
3 94 98 95 
3 96 95 102 
3 97 96 102 
3 94 96 97 
3 95 98 101 
3 102 95 101 
3 103 104 105 
3 106 105 107 
3 104 108 105 
3 108 104 109 
3 105 108 107 
3 107 109 106 
3 108 109 107 
3 110 104 103 
3 109 104 110 
3 106 110 103 
3 109 110 106 
3 106 103 105 
3 111 112 113 
3 114 115 116 
3 113 117 118 
3 113 118 119 
3 116 113 120 
3 121 122 120 
3 121 120 123 
3 124 122 121 
3 116 122 117 
3 120 122 116 
3 120 119 123 
3 119 120 113 
3 123 118 124 
3 119 118 123 
3 118 117 122 
3 118 122 124 
3 112 111 114 
3 114 111 115 
3 116 115 113 
3 113 112 117 
3 112 116 117 
3 116 112 114 
3 113 115 111 
