ply
format ascii 1.0
comment VCGLIB generated
element vertex 436
property float x
property float y
property float z
property float nx
property float ny
property float nz
element face 806
property list uchar int vertex_indices
end_header
0.17 0.508 5.8605 28296.22 248254.5 8307.875 
-0.3365 0.111 6.846 -227866.6 102504.7 8345.43 
-0.182 0.362 29.952 -229534.5 99065.28 159.3671 
0.458 0.5075001 30.7365 22974.82 248942.1 46.75865 
0.02 -0.517 7.1125 -166501.5 -186355.4 6997.682 
-0.182 -0.302 29.7445 -154807 -196302.7 277.1389 
0.7465 -0.508 6.259 121707.9 -218252.3 7290.508 
0.458 -0.5075001 29.6795 121608.9 -218428.4 578.4076 
0.839 0.203 5.9725 242390.7 60867.56 6473.994 
0.8535 -0.03 30.5635 244237.8 53362.42 603.2376 
-0.168 0.3335 -5.0595 -156576.6 64738.73 -183827.8 
0.4655 0.539 -5.059 13572.97 171272.1 -181608.6 
0.2815 0 -5.059 231.2335 1.455192e-06 -250000 
-0.168 -0.3335 -5.0595 -109990.4 -129793.7 -183182.2 
0.4655 -0.539 -5.059 90995.63 -147064.3 -180532.3 
0.8575 0 -5.0585 169086.8 40923.29 -179541 
0.2585 0.604 82.0735 36427.28 172441.4 177304.9 
-0.322 0.1545 82.0735 -150780.1 86709.13 179574.2 
0.2775 -0.02 82.0735 0 0 250000 
-0.074 -0.536 82.0735 -128472.3 -116408.3 180122.2 
0.6595 -0.514 82.0735 71824.4 -159913.9 178238.1 
0.865 0.191 82.0735 176096.4 18938.88 176440.9 
0.273 0.3985 78.561 -20392.81 84375.73 -234445.9 
-0.1135 0.099 78.56001 -80518.81 5159.437 -236622.3 
-1.0315 0.3215 78.8775 -204859.4 38302.05 -138078.3 
0.177 1.2575 78.8775 -24597.96 208468.3 -135778.9 
0.052 -0.361 78.56001 -27748.44 -77976.3 -235902 
-0.515 -1.1165 78.8775 -96834.76 -183571.5 -139372 
0.5405 -0.346 78.561 72573.52 -54531.84 -232936.5 
1.0125 -1.07 78.8775 144999.3 -149645.3 -138136 
0.677 0.1235 78.561 77819.16 51254.05 -231985.4 
1.44 0.3975 78.8775 190043.9 89175.46 -135761.1 
-0.528 0.567 1.159 -204009.3 108482 95456.27 
-0.528 -0.567 1.159 -167565.9 -160159.6 93651.38 
0.5505 -0.9175 1.16 102647.7 -209818 89106.07 
1.217 0 1.1605 232528.4 35272.65 84772.67 
0.5505 0.9175 1.16 46180.6 230033 86326.19 
0.1445 0.522 68.0705 17898.45 249352.3 1764.936 
0.7805 0.1935 67.778 245509.5 47153.55 1281.308 
0.6245 -0.3365 67.331 133187.5 -211564.8 1216.599 
0.1325 -0.5305 67.872 -146264.1 -202738.1 2021.497 
-0.256 0.0745 68.1265 -233847.3 88387.45 1772.113 
0.4225 0.432 75.2005 26448.52 248576 3238.891 
0.7365 0 75.201 246214.6 43262.36 2602.696 
0.4225 -0.432 74.381 127094.5 -215268 2588.414 
-0.085 -0.267 74.3805 -159975.6 -192102.4 2118.627 
-0.085 0.267 75.2 -230681.9 96322.58 2799.028 
0.273 0.3985 78.561 92523.85 232222.5 3472.153 
0.677 0.1235 78.561 249059.8 -21492.27 2704.575 
0.5405 -0.346 78.561 59800.92 -242739.1 1274.118 
0.052 -0.361 78.56001 -208940.4 -137270.1 918.9253 
-0.1135 0.099 78.56001 -193284.9 158531.4 2957.173 
0.7345 1.7355 -0.001 80604.8 230640.7 52988.15 
-1.306 1.0725 -0.0025 -193802.5 147659.7 56010.91 
-1.306 -1.0725 -0.0025 -199545.6 -140769.1 53531.66 
0.7345 -1.7355 -0.001 73768.41 -233829.1 48807.95 
1.995 0 0 245238.2 -3338.815 48447.08 
4.705 -3.247 85.756 -217295.5 -106888.4 62109.49 
4.772 -3.4085 85.117 -108678.9 -212369.1 -74754.84 
7.864501 -3.88 86.835 -59499.5 -149047.4 191689.1 
7.8775 -3.856 85.9515 -11901.1 -115311.1 -221498.8 
7.2075 -2.0905 86.8385 18665.36 82954.84 235096 
8.9205 -1.135 86.154 134751 69773.54 198680.3 
4.2075 -1.2975 85.465 -95046.55 37806.67 228115.8 
7.1405 -0.195 85.8805 -22757.48 184537.6 167116.8 
7.287 -0.141 85.2125 130837.2 182055.8 -110622.6 
9.1855 -1.1745 85.5745 189048 -79114.76 -143184.3 
7.265 -2.2065 86.1875 97012.85 -72748.3 -218623.5 
4.7555 -1.693 84.4365 58100.93 -87050.08 -227038.7 
0.1225 -0.4175 81.4825 28422.96 -24909.42 -247126.8 
0.0145 -0.309 81.9925 -208685.4 63076.72 122359.1 
2.872 0.8605 82.166 17134.86 210400.8 -133932.5 
3.409 0.378 83.8015 -63771.86 203802.3 129991.4 
1.821 -2.7925 82.551 -96158.55 -216620.4 -79555.93 
1.4375 -2.628 83.30901 -148889.1 -168604.4 109108.3 
2.7505 -1.15 82.9425 105595.5 -101207.6 -202747.7 
2.2895 -0.8425 83.8165 -143679.2 43792.75 199846.2 
2.7255 -2.5935 83.7835 -25243.61 -242353 55926.78 
9.528 -4.9785 85.9665 -34985.11 -246496 -22711.1 
9.250501 -2.9725 85.728 -44625.55 -6188.752 -245907.1 
12.604 -4.161 85.1035 222386.6 -47608.63 -103815.4 
9.417 -2.895 86.496 82890.85 16987.77 235245.7 
10.5475 -1.787 85.531 30760 240120 -62419.74 
4.451 -3.264 85.018 84252.32 -226144 65272.21 
8.051499 0.413 80.8805 84529.53 -122634.1 200787.6 
7.8825 0.0005 80.4205 -41594.58 -244397.2 32247.97 
10.1885 1.5185 79.5865 100065.7 -214114.6 -81497.38 
5.9005 1.473 81.2965 22902.88 -7634.933 248831.7 
9.287499 2.3325 80.68549 107135.5 19626.36 225026.3 
6.6575 2.8115 80.954 -3093.008 164583.2 188156.4 
9.296 4.0395 80.094 111977 193480.8 -111921.2 
6.5205 2.8295 80.5795 -41537.36 118041.2 -216427.7 
5.78 1.4435 80.778 -22979.67 2940.281 -248924.3 
9.113 2.2945 80.4795 -98228.72 14365.74 -229444.5 
3.601 2.7145 80.358 -25428.91 37415.87 -245872.8 
0.1225 0.0365 81.9155 -210308.4 -37262.48 -129930.4 
3.734 2.6695 81.019 104130.1 163048.4 158341.9 
-0.0275 0.026 82.5115 -44374.55 -17834.38 245383.1 
3.011 -0.8135 81.359 54929.62 -202249.8 136300.4 
2.907 -0.969 81.0045 -49215.93 -216598.3 -114730.2 
4.2625 -0.3025 81.04401 64724.72 -167031.4 174388.2 
7.2225 -0.039 80.7775 236150.5 -81456.13 -9891.436 
3.332 0.852 81.7565 37516.54 -799.7084 247167.8 
4.191 -0.4405 80.21149 26735.12 -179515.3 -171928.8 
3.1535 0.8365 80.86349 28033.36 20748.68 -247555.3 
1.6215 0.399 81.27299 -85877.59 -21353.93 -233814.2 
1.7905 0.4535 81.921 57237.64 -5697.032 243292.9 
11.1995 2.8045 79.012 205136.7 37047.04 138009 
11.74 1.34 78.002 93464.68 55863.39 -225041.5 
9.6985 4.1345 79.74799 -164591.1 165132.6 90227.52 
10.776 4.1695 77.7715 -70607.23 225424.4 -81844.38 
10.697 2.6725 78.679 -197210 -52726.3 -144319.7 
12.2945 3.098 75.2785 24389.99 65369.52 -240066.6 
11.711 1.2225 77.4095 -34605.54 -219133.3 115252.3 
4.4225 2.997 80.7835 -98209.02 229765.3 7932.601 
5.475 3.7225 82.23801 43910.47 -241371.6 48079.32 
5.166 3.835 81.6355 95352.6 -183593.3 -140361.7 
7.0345 6.673 81.3895 207229 -85906.78 110345.8 
6.7615 6.4685 80.8545 847.0293 -110641.5 -224182.5 
5.63 6.7585 82.528 56564.28 72462.02 232486 
4.9445 8.581 81.683 65059.27 233808.4 60007.95 
3.4625 4.2095 82.428 74208.04 -22660.57 237654.6 
3.5115 7.3625 82.6915 -79164.98 92332.77 218420.7 
3.343 7.1895 82.01649 -165518.4 143619.8 -120320.7 
4.744 8.353 81.39751 -38120.32 77436.05 -234628.5 
5.2785 6.6835 81.507 -25722.16 1657.364 -248667.8 
3.4245 4.2085 81.8355 -36553.64 -34531.56 -244890.6 
-0.2275 0.061 81.63 -94168.94 -31439.81 -229442.3 
-0.278 -0.1455 82.273 -24286.69 -136172.1 208248.3 
0.002 2.968 81.65501 -229091.5 85490.5 -52043.3 
1.1675 3.7 82.2455 -137557.2 72598.23 195723.1 
2.6185 0.7645 80.835 122377.7 -209559.3 -60071.66 
2.5315 0.926 81.4985 145354.6 -158724.5 127195.1 
1.719 2.3445 81.398 5686.843 7822.469 -249812.9 
1.812 2.2475 82.501 38379.09 -52156.94 241467.9 
3.213 2.0005 81.601 194718 -156789.4 -1415.458 
7.945 7.511 79.8165 185824.9 -146010.3 -81548.26 
6.3565 8.0325 80.578 -113399.6 -92161.99 -202846.6 
7.7835 10.359 78.05299 34653.59 101189.4 -225964.3 
6.7705 8.431499 81.2365 138717 114863.1 173390 
5.4695 9.603001 80.2415 -222219.3 114309.7 7203.363 
4.978 3.4335 81.62 238122.6 47174.23 -59768.41 
-3.3315 -6.5615 84.564 -221296.8 111868.5 31830.9 
-2.973 -6.8115 84.0625 -139698.9 83025.34 -189976.4 
-3.2445 -9.576 84.575 -153503.5 -72418.08 -183554.8 
-1.0785 -5.2595 84.132 -51678.23 155075.4 189158.7 
-1.956 -8.367001 85.9585 -55903.93 29903.31 241827.6 
-0.2135 -6.391 84.82349 112476.8 68783.16 212409.7 
-0.269 -9.306499 85.726 146813.9 -183034.9 86278.26 
0.1285 -6.6755 84.258 158223.7 -121468.3 -150700.8 
-0.997 -5.3855 83.7625 34032.46 -106397.2 -223654.8 
-1.6425 -8.474 85.082 75516.01 -67458.73 -228575.3 
1.0845 -4.196 82.965 84713.95 -142075.5 -187451.7 
0.415 0.2685 81.2995 78806.91 77056.88 -224391.9 
1.0545 -4.185 83.623 43547.55 -58889.43 239030.7 
0.2495 0.5840001 82.0675 -40273.05 154922.5 192034.2 
-1.8825 -2.195 82.1665 -236539.4 80682.51 -6283.765 
-1.716 -2.3265 81.82001 -117710.6 -19994.72 -219646.2 
-1.9705 -3.4975 82.65549 -214984.7 84181.46 95890.91 
-3.0805 -6.549 83.896 -107821.4 -218315.4 -56683.01 
-0.4805 -2.855 83.064 -53210.43 102003.9 221954.7 
-1.634 -3.6925 82.2935 -90929.81 -87660.16 -215748.7 
-0.3035 -3.155 82.4115 22069.07 -160178.6 -190671.9 
0.0045 -1.6795 81.738 39520.49 -85828.41 -231455.5 
-0.154 -1.4045 82.5055 -66786.75 83030.96 226153.5 
-2.036 -10.9085 85.0925 -79553.98 -107583.1 211180.2 
-3.61 -11.625 83.9735 95359.38 -216349.2 -81238.06 
-0.2075 -9.8205 85.69701 231219 88354.07 35090.6 
-0.6105 -11.74 84.5435 240340 -67594.13 -12952.16 
-1.939 -10.77 84.7885 69701.7 76739.45 -227492.3 
-1.7395 -14.278 82.6025 96510.45 -165879.9 -160217.4 
-3.3505 -11.7735 83.5845 -184473.5 168449.6 9710.63 
1.222 -4.8545 83.721 235789.4 55270.56 62036.61 
-3.418 4.976 84.169 243637.9 54599.98 12626.59 
-3.6445 4.8695 83.603 175157.3 133592.2 -118207.8 
-6.35 6.7385 83.9995 90226.33 154900.1 174256.1 
-6.153 6.732 83.518 95852.83 73942.84 -218734.4 
-6.4045 5.095 84.6515 -79969.34 -5254.092 236806.5 
-8.209001 4.773 83.686 -229439.9 51594.7 84825.33 
-3.8255 2.9185 84.1925 35004.71 -22232.47 246536.8 
-7.1045 3.047 84.1175 -93983.27 -155616.5 171612 
-6.9775 3.111 83.33549 -158896.6 -91402.75 -169992.5 
-8.03 4.695 83.412 -78486.96 58356.5 -230074.6 
-6.37 5.128 83.631 -18122.68 72527.83 -238560.9 
-3.945 3.146 83.2775 22937.22 60736.82 -241422.8 
-0.035 -0.142 81.506 32035.94 -18503.25 -247247.5 
0.0075 -0.2255 81.84 141297.5 -124354.8 164532.5 
-2.9235 -0.033 81.58099 -80312.16 -196794.1 -131613.4 
-3.5655 0.7555 82.9325 -50998.09 -188780.6 155759.7 
-0.6745 2.627 81.88451 164471 126095.8 -139818.4 
-0.377 2.664 82.61349 206268.9 129578.9 56235.88 
-2.1905 1.7845 81.932 -20521.74 97730.55 -229189.1 
-2.094 1.523 82.7945 78123.74 -56230.82 230726.7 
-1.575 3.334 82.717 114531.1 221786.3 13910.24 
-7.153 8.2795 82.992 152698 196869.3 20634.87 
-7.814499 6.541 83.393 76560.25 -34164.32 -235523.6 
-9.881 8.608999 81.599 -120735.3 75266.68 -205567.4 
-8.0225 6.639 83.8285 -103940.6 68764.21 216720.7 
-9.136499 6.004 82.6995 -135726.3 -200366.1 -62704.29 
-3.125 4.959 83.45551 -61137.55 240297.7 31925.39 
-6.49 -2.245 82.695 8590.716 246699.3 39568.82 
-6.2925 -2.4165 82.1335 -63793.61 205279.7 -127634.8 
-8.8345 -4.6375 82.0065 -168861 120380.5 139622.8 
-8.549 -4.505 81.441 12965.55 133994.3 -210659.5 
-7.353 -5.1175 82.91351 -66418.2 -80873.45 227042.1 
-7.3385 -7.171 82.0485 -98850.82 -182329.2 139587.2 
-4.659 -3.1325 82.9195 -36977.32 22910.68 246186.5 
-5.505 -6.083 82.6995 86760.07 -120536.4 201106.2 
-5.3295 -6.0495 82.22 139646.9 -183819.4 -95964.53 
-7.079 -7.102 81.32951 -29836.58 -79222.63 -235230.9 
-7.1315 -5.0585 82.0875 -3565.126 7083.671 -249874.2 
-4.728 -3.1475 81.8975 18330.64 45921.45 -245061.7 
-0.2835 -0.0635 81.6935 91128.74 18386.88 -232072.2 
-0.3275 -0.0775 81.959 102269.2 100125.1 204978 
-1.128 -2.73 81.603 209547.5 -128838.9 -44613.88 
-2.3625 -3.1995 82.231 131001.7 -102264.7 186763.3 
-3.1495 0.017 81.15 -63186.11 214820.5 -111174.2 
-3.2185 0.1425 81.9375 -97435.84 210486 93284.23 
-2.615 -1.723 81.6535 -21080.42 2583.625 -249096.3 
-2.5885 -1.664 82.6315 18095.62 45244.21 245205.1 
-4.0495 -0.945 81.8765 -186038.2 164009.1 -31477.38 
-10.272 -4.9895 80.3675 -144987.3 197641.7 -49157.66 
-8.4585 -6.0175 80.889 128284.9 68741.38 -203267.4 
-10.4515 -7.614 79.065 -74253.06 -164086.3 -173384.5 
-8.874 -6.3105 81.5585 -139890.9 -99385.34 181805.2 
-8.302999 -7.536 80.6815 173720.7 -179772.8 -1705.591 
-5.8235 -2.073 82.1 -242327.3 50243.5 -35399.5 
3.4145 -7.167 80.8175 -172545.8 -115535.8 139210.1 
3.3675 -7.014 80.424 -245237 -13255 -46723.86 
5.0355 -8.856 79.227 -200501.7 -101151.2 -109852.4 
3.821 -4.7195 81.085 -36735.15 -17272.08 246682.4 
5.865 -7.853499 80.829 61317.05 -106811.6 217558.1 
5.6675 -4.8535 81.136 164088.7 77166.32 172105.5 
7.1325 -7.0335 79.7925 217064.1 -19048.72 -122557.5 
5.3985 -4.7445 80.172 69931.8 96767.54 -219648.8 
3.7395 -4.6205 80.735 -55834.93 33948.17 -241309 
5.634 -7.2945 79.797 -34203.4 93432.81 -229347.9 
4.235 -2.1305 80.2915 19091.55 22775.43 -248227.3 
0.561 0.347 82.129 -114518.9 203641 -88970.88 
4.41 -2.355 81.02499 176555.9 -50349.66 169684.8 
0.698 0.134 82.454 5387.831 33783.36 247648.3 
0.549 -2.922 81.68999 -195583.5 -120074.6 99142.26 
0.577 -2.694 81.183 -189293 -16090.16 -162509.4 
1.5765 -3.7915 81.1305 -124129.2 -146316.1 160261 
3.046 -6.4635 80.546 5580.271 -212399.5 -131739.8 
2.409 -2.51 81.709 31164.44 -49999.77 242958.5 
1.6275 -3.607 80.7015 -116316 -62196.8 -212372.7 
2.3105 -2.372 81.13499 5622.857 -27916.96 -248372.8 
1.3775 -0.9995 81.2175 -53798.13 51112.74 -238732.7 
1.555 -1.202 82.0245 40400.19 -52453.12 241073.7 
6.822 -9.457 78.743 118436.9 -188995.2 112931.5 
5.2305 -10.536 77.331 39648.02 -56099.64 -240376.6 
7.419 -7.4595 79.354 149922.6 199405.3 16148.57 
7.5255 -8.515 77.4535 175457 152437.4 -92074.62 
6.3495 -8.7515 78.27299 -115261.4 169338.1 -143315.9 
7.15 -10.081 74.672 50592.56 57290.69 -238029.8 
5.491 -10.051 77.0775 -226108.7 -64797.14 84712.52 
4.708 -2.885 80.718 127393.9 215046.3 -5088.62 
-4.3555 2.2515 85.7215 184666.4 168506.1 -2007.981 
-4.5395 2.155 85.263 28217.87 203349.2 -142663.5 
-7.5655 2.17 86.7065 60840.18 195393.3 143596.5 
-7.566 2.104 86.31651 -2160.011 115687.7 -221611.6 
-6.534 0.7965 87.016 55181 -38067.93 240844.2 
-8.2885 -0.611 86.8325 -127950 -87479.62 196153.3 
-3.661 0.4355 85.3695 108731.6 14322.81 224660.4 
-6.1445 -1.0895 86.262 76497.91 -141592.3 191310.5 
-6.288 -1.275 85.7055 -110473 -198988.5 -103437.6 
-8.1105 -0.556 86.21049 -153813.8 -6025.454 -196990 
-6.8565 0.7815 86.0495 -93515.88 53922.77 -225493.1 
-3.8765 0.469 84.9375 -78752.8 60200.65 -229508 
0.47 -0.108 81.453 -48164.06 4922.898 -245267.2 
0.5779999 -0.1315 81.9455 225931.2 -1925.314 107011.3 
-1.935 -1.7795 82.4495 18701.35 -224647.3 -108091.9 
-2.4755 -1.24 84.0505 107466.5 -174015.1 143769.7 
-1.494 1.7425 82.65701 20777.8 207432.5 -137985.7 
-1.236 1.8605 83.057 104649 225436.6 26962.25 
-2.1375 0.2665 83.0475 -145563.5 60353.41 -194084.4 
-1.5665 0.1515 83.9325 152278.8 10409.68 197997 
-2.379 1.729 83.7015 -24673.44 247644.6 -23736.28 
-9.4235 3.2045 86.0935 56222.27 238098.8 -51458.96 
-8.744 1.1475 86.06001 23807.14 14961.58 -248413.8 
-12.3165 1.6165 85.553 -214951.1 3233.784 -127615 
-8.925 1.0905 87.293 -40641.61 11111.57 246424.1 
-9.853 -0.4465 86.03049 5902.106 -241456.6 -64528.13 
-4.006 2.0065 84.92 -181900.7 153962 75550.53 
3.2565 4.235 85.671 213274.7 -107400.3 74021.04 
3.0295 4.4355 85.1295 153818.5 -118782.6 -157259.6 
3.1855 7.146 85.10001 199772.2 -14726.91 -149580.2 
1.0275 3.1485 85.1245 9099.082 -150388.8 199500.4 
1.965 6.36 86.555 25337.97 3402.43 248689.4 
0.124 4.407 85.5565 -163612.8 -32579.55 186197.3 
0.4585 7.325 85.7665 -143957.5 204141.5 10125.05 
-0.044 4.6775 84.832 -129210.6 89308.3 -194495.9 
1.014 3.273 84.756 27715.56 96833.67 -228812.4 
1.7165 6.3425 85.402 -41244.59 22882.54 -245510.3 
-1.0875 2.9835 83.48199 36462.64 208685.9 -132743 
-0.2595 -0.2935 80.969 -19874.46 -3802.268 -249179.8 
-1.09 2.61 84.2165 -156948.2 -20855.5 193474.3 
-0.3995 -0.8945 81.43501 -84721.66 -222897.7 75092.54 
2.0295 0.4605 83.08299 192144.2 -155589.8 37046.44 
1.988 0.8325 82.519 166688 26818.89 -184379.8 
1.9695 1.53 83.757 143857.5 -148155.3 140908 
2.8475 3.539 84.9935 152025.5 168831.8 104326.8 
0.3695 1.1325 83.8565 -23721.46 -150860.6 197935.3 
2.0875 2.065 82.9775 180285.6 98850.86 -142216.9 
0.4205 1.735 83.1165 23385.95 214011.8 -127090.8 
0.2165 0.8675 82.1375 42449.64 156768.9 -190056.7 
0.0635 0.3205 82.721 -40777.66 -173613.9 175201.1 
2.5655 8.961499 85.461 70885.91 134262.5 198617.2 
4.1555 9.002 84.1445 37132.37 160834.1 -187759.5 
0.519 7.8735 85.592 -245729.7 -44993.85 9617.105 
1.024 9.5945 84.10699 -231343.5 62283.2 -71421.59 
2.3515 8.4445 84.6705 -42650.38 -114229.8 -218248.8 
2.885 11.5775 82.019 -11796.06 103118.9 -227436.5 
4.0035 9.146501 83.6585 191923.6 -158346.5 24325.72 
-0.6525 3.093 84.37 -249578 -12004.09 -8168.92 
0.254 -5.169 86.264 -226660 -13345.57 104628.8 
0.486 -5.233 85.75 -211904.1 12343.09 -132076.9 
1.5215 -7.814499 85.6335 -189587.1 -110682.5 -119608.3 
1.368 -2.943 85.824 -61407.98 133550.1 202221.3 
2.503 -6.209 86.8185 16970.36 -5576.767 249361.1 
2.8505 -3.691 85.7955 165630.4 100820.1 157803.4 
4.0235 -5.855 86.1815 241352.8 -58780.43 -28172.97 
2.8545 -3.757 85.43 182399.4 -28739.94 -168536.3 
1.5735 -3.468 84.716 48827.2 -97847.13 -224815.2 
2.601 -6.1275 85.8805 79502.93 -4111.223 -236986.1 
2.748 -1.718 83.7825 90739.86 -200696.2 -118268 
0.309 0.3425 81.2945 5393.684 19801.75 -249156.2 
2.5095 -1.4855 84.0755 146977.3 100744 175352.1 
0.1425 0.945 81.7825 -14373.33 243310.7 55617.92 
-1.1705 -1.404 83.7235 -240136.3 32570.74 61430.55 
-1.0245 -1.881 82.91 -117470.9 -145514.9 -165909.7 
-0.4955 -2.2555 84.41051 -178056.6 47088.43 169051.9 
0.2355 -4.9125 85.652 -97570.77 -224681.8 49980.73 
0.813 -1.127 84.1895 -34571.98 149805.7 197137.2 
-0.194 -2.7805 83.566 -93349.34 -189179 -134153.7 
1.037 -1.6835 83.473 77263.23 -178498.2 -157063.1 
0.6185 -0.7435 82.608 53429.63 -157335 -186791.3 
0.5095 -0.2065 83.15549 -20292.64 177642.8 174732 
3.2985 -8.739 85.9005 30643.39 -144954.7 201368.2 
1.88 -9.742001 84.8105 83459.55 -164663 -168584.2 
4.7885 -6.615 85.946 165193.2 186827.7 -17510.71 
4.6355 -8.5875 84.5355 219519.4 50788.22 -108313.4 
3.1665 -8.314 85.255 -43917.16 106744.4 -221758.7 
4.158 -11.331 82.531 36369.04 -69882.8 -237263 
2.262 -9.7175 84.35 -244759.8 26817.24 43283.88 
2.986 -2.0475 84.572 226413.1 92272.96 -52180.83 
-3.5315 -2.191 78.472 -228578.1 68039.24 74984.99 
-3.24 -2.017 78.242 -16235.61 249193.9 -11783.05 
-3.347 -3.4655 76.84151 -91164.93 166065.2 -163129.8 
-1.933 -2.8985 80.0305 -138672.1 -28579.57 206041.9 
-2.6855 -4.397 78.43 -174624.3 -143268.4 107147.4 
-0.9345 -4.264 79.784 24707.54 -188525.1 162320.1 
-1.067 -5.3585 78.6025 145314.9 -184781 -85085.69 
-0.735 -3.969 79.40051 219590.4 -4302.666 -119421.9 
-1.4785 -2.6615 79.5355 139067.6 91704.09 -186415.1 
-1.911 -3.919 77.945 186792.4 111318.5 -123356.5 
0.7255 -3.1685 80.39149 214725.8 22103.79 -126112.1 
-0.0225 -0.155 81.9905 173622.5 168337.6 63385.2 
0.3445 -3.503 80.751 -29778.73 -228653.7 96595.85 
-0.296 -0.28 82.466 -16103.59 40662.68 246144.8 
-2.2805 0.0245 80.41399 -200183.4 144792.2 38234.16 
-1.905 0.239 80.099 20113.1 223277.7 -110646.2 
-2.3055 -0.8035 79.9045 -245040.6 8368.631 48837.52 
-3.016 -1.737 78.7915 -173255.1 -22652.42 -178800.4 
-1.097 -1.738 80.8785 -161088.3 -100377.8 162711 
-1.802 -0.632 79.4355 -17019.85 139975.8 -206439.1 
-0.455 -1.399 80.1735 109804.3 17270.89 -223930.3 
-0.1475 -0.699 80.89 169529.6 123896.8 -135681 
-0.96 -1.23 81.7315 -167451.9 -101560.9 155387.5 
-2.5445 -4.89 76.714 -174953.3 -177176.2 -22359.84 
-3.447 -3.353 75.438 48597.45 -38372.34 -242210.4 
-0.789 -5.95 78.2305 207536.1 -60249.98 125693 
-1.2415 -5.427 76.504 195856.8 -139359.3 -68696.03 
-2.098 -4.4145 76.695 170967.6 179637.3 -31631.14 
-1.4655 -4.787 73.5085 145630.7 -59989.8 -194146.7 
-3.059 -3.638 75.15549 -161033.6 168415.9 90577.72 
0.189 -3.543 80.35101 217215.9 -98357.05 75121.12 
3.5355 2.439 78.393 238676.9 43447.39 60379.56 
3.502 1.9815 78.3805 138391.3 -181411.3 102165.6 
3.215 2.771 76.2565 154181.6 -185911.9 -64535.39 
2.3005 3.1105 79.716 151265.7 100420.5 171855.8 
3.0335 4.0045 77.356 179823.9 173203.8 12799.36 
1.6 4.3345 79.0805 -15804.57 231162.7 93883.25 
1.431 4.741 77.1385 -137581.5 127988.9 -164894.5 
1.1235 3.7255 78.6845 -228131.5 -39095.41 -94485.93 
1.811 2.629 79.254 -154234.7 -154615.8 -121678.4 
2.4035 3.467 77.25951 -199109.1 -142304.7 -51039.02 
0.005 3.157 79.922 -65515.34 -47184.86 -236603.8 
-0.3225 0.3375 81.7655 -185195.5 -164160.6 35410.8 
0.379 3.455 80.2815 37604.17 228268.3 94760.34 
0.0585 0.7395 82.2995 16387.37 50980.76 244197.5 
2.313 0.71 81.0545 212508.5 -49263.89 122119.8 
2.058 0.1615 80.6395 42090.14 -200235.6 -143645.9 
2.214 1.4115 80.293 216518.2 33913.73 120290.3 
3.341 2.107 78.7145 215610.7 -82791.92 -95695.22 
1.32 2.0705 80.812 130542.2 104388.8 185907.9 
2.1 1.1645 80.067 81577.42 -135316.5 -193738.5 
1.0915 1.8715 80.5065 -80465.41 -81720.6 -222142 
0.558 1.1965 80.9145 -87680.87 -98251.23 -212506 
0.8015 1.503 81.4425 114305 124549.3 184178.9 
2.5765 3.542 74.982 173390.1 154010.3 -93363.57 
3.2715 2.0345 74.6265 -40449.82 -146704.2 -198347.5 
1.44 4.6775 76.36 -166176.3 144028.8 118916.7 
0.9825 3.8775 74.271 -200930.8 142062 -44104.97 
2.089 2.9705 75.3835 -151288.5 -186197.8 70300.73 
1.121 2.1 70.887 -114634.7 -52102.23 -215972.8 
3.0255 1.8675 73.889 204398.4 -108942.3 94089.84 
0.508 3.563 79.902 -223808.1 69159.66 87332.05 
1.14 -2.5115 78.679 -12987.64 -201271.8 147719.4 
0.819 -2.4305 78.7135 -161002.5 -183126.9 55161.18 
1.619 -2.279 76.5225 65632.04 -239273.1 -30673.48 
1.169 -2.104 76.6225 -243444.4 56606.05 5531.609 
2.583 -1.5045 77.44 218761.5 -116907.3 -31242.67 
3.3665 0.0775 76.363 209847.3 -57916.02 -122922.2 
2.296 -1.4555 79.593 183830.4 -159512.8 57114.64 
3.3035 0.188 78.039 238064.7 -17301.56 74336.14 
3.1255 0.8595001 78.0285 75533.99 235892.2 -33904.54 
2.8085 0.566 76.233 -157676.8 116977.4 -154771.9 
2.2245 -1.218 77.408 -206626 120895.4 -72041.71 
1.7545 -1.0495 79.3165 -221252 108791.1 -41377.18 
-0.0455 0.0145 82.504 -199249.6 149551.5 -20832.16 
0.5705 -0.4055 82.609 88192.85 -84826.56 218005.8 
1.564 0.9235 80.9365 28452.2 234438.5 82031.13 
2.2035 0.3395 80.4695 214316.2 26438.49 125974.6 
-0.233 -1.6755 80.7875 -245811.7 -44314.81 -10621.38 
-0.109 -2.0795 80.924 -145039 -201887.4 26555.85 
0.8745 -0.5185 80.5605 -185540.4 106524.7 -129334 
1.522 -0.9745 80.9365 157436.1 -141898.7 132584.5 
0.421 -1.798 80.1465 -170737.2 -145461.8 -110407.1 
0.759 -2.157 75.025 -126493.3 -211711.5 -40959.98 
1.9075 -0.9805 75.8505 -196805.4 137405.2 69910.48 
0.8615 -0.098 72.3615 -114223.2 102817.8 -197184.2 
2.266 -1.2025 75.6355 195254.9 -126201.3 -91917.25 
2.5345 0.514 75.1925 112692 202802.9 93121.04 
0.759 -2.3645 78.9845 -66897.32 -142947.3 -193883.6 
3 0 1 2 
3 0 2 3 
3 1 4 5 
3 1 5 2 
3 4 6 7 
3 4 7 5 
3 6 8 9 
3 6 9 7 
3 8 0 3 
3 8 3 9 
3 10 11 12 
3 13 10 12 
3 14 13 12 
3 15 14 12 
3 11 15 12 
3 16 17 18 
3 17 19 18 
3 19 20 18 
3 20 21 18 
3 21 16 18 
3 22 23 24 
3 22 24 25 
3 23 26 27 
3 23 27 24 
3 26 28 29 
3 26 29 27 
3 28 30 31 
3 28 31 29 
3 30 22 25 
3 30 25 31 
3 25 24 17 
3 25 17 16 
3 24 27 19 
3 24 19 17 
3 27 29 20 
3 27 20 19 
3 29 31 21 
3 29 21 20 
3 31 25 16 
3 31 16 21 
3 32 33 4 
3 32 4 1 
3 33 34 6 
3 33 6 4 
3 34 35 8 
3 34 8 6 
3 35 36 0 
3 35 0 8 
3 36 32 1 
3 36 1 0 
3 9 3 37 
3 9 37 38 
3 7 9 38 
3 7 38 39 
3 5 7 39 
3 5 39 40 
3 2 5 40 
3 2 40 41 
3 3 2 41 
3 3 41 37 
3 38 37 42 
3 38 42 43 
3 39 38 43 
3 39 43 44 
3 40 39 44 
3 40 44 45 
3 41 40 45 
3 41 45 46 
3 37 41 46 
3 37 46 42 
3 43 42 47 
3 43 47 48 
3 44 43 48 
3 44 48 49 
3 45 44 49 
3 45 49 50 
3 46 45 50 
3 46 50 51 
3 42 46 51 
3 42 51 47 
3 32 36 52 
3 32 52 53 
3 33 32 53 
3 33 53 54 
3 34 33 54 
3 34 54 55 
3 35 34 55 
3 35 55 56 
3 36 35 56 
3 36 56 52 
3 53 52 11 
3 53 11 10 
3 54 53 10 
3 54 10 13 
3 55 54 13 
3 55 13 14 
3 56 55 14 
3 56 14 15 
3 52 56 15 
3 52 15 11 
3 57 58 59 
3 59 58 60 
3 61 62 63 
3 64 63 62 
3 64 62 65 
3 65 62 66 
3 67 68 66 
3 68 65 66 
3 69 70 71 
3 71 70 72 
3 69 73 70 
3 70 73 74 
3 61 63 59 
3 63 57 59 
3 67 60 68 
3 58 68 60 
3 71 65 75 
3 75 65 68 
3 71 72 65 
3 65 72 64 
3 72 76 64 
3 64 76 63 
3 69 71 75 
3 73 77 74 
3 73 69 77 
3 77 69 75 
3 78 79 80 
3 59 60 78 
3 61 59 81 
3 81 59 78 
3 79 82 80 
3 81 78 80 
3 82 81 80 
3 67 79 60 
3 60 79 78 
3 74 77 70 
3 70 77 76 
3 72 70 76 
3 82 61 81 
3 67 82 79 
3 77 83 76 
3 76 83 63 
3 77 75 83 
3 83 75 68 
3 63 68 57 
3 57 68 58 
3 61 67 62 
3 62 67 66 
3 61 82 67 
3 63 83 68 
3 84 85 86 
3 87 88 89 
3 89 88 90 
3 91 89 90 
3 92 91 93 
3 91 90 93 
3 94 95 96 
3 96 95 97 
3 97 95 98 
3 98 95 99 
3 86 88 84 
3 87 84 88 
3 93 86 92 
3 85 92 86 
3 100 101 102 
3 102 101 87 
3 103 101 100 
3 103 104 101 
3 101 104 92 
3 105 94 104 
3 97 106 96 
3 98 106 97 
3 99 103 98 
3 98 103 100 
3 99 105 103 
3 103 105 104 
3 88 86 107 
3 107 86 108 
3 88 107 109 
3 109 107 110 
3 111 110 112 
3 107 113 112 
3 110 107 112 
3 93 111 86 
3 86 111 108 
3 93 109 111 
3 111 109 110 
3 95 105 99 
3 94 105 95 
3 98 100 106 
3 106 100 102 
3 96 106 102 
3 113 111 112 
3 102 87 114 
3 114 87 89 
3 91 114 89 
3 104 114 92 
3 92 114 91 
3 87 101 92 
3 102 104 96 
3 96 104 94 
3 88 109 93 
3 107 108 111 
3 107 111 113 
3 88 93 90 
3 84 87 85 
3 85 87 92 
3 102 114 104 
3 115 116 117 
3 117 116 118 
3 119 120 121 
3 122 121 120 
3 122 120 123 
3 123 120 124 
3 125 126 124 
3 126 123 124 
3 127 128 129 
3 129 128 130 
3 127 131 128 
3 128 131 132 
3 119 121 117 
3 121 115 117 
3 125 118 126 
3 116 126 118 
3 129 123 133 
3 133 123 126 
3 129 130 123 
3 123 130 122 
3 130 134 122 
3 122 134 121 
3 127 129 133 
3 131 135 132 
3 131 127 135 
3 135 127 133 
3 136 137 138 
3 117 118 136 
3 119 117 139 
3 139 117 136 
3 137 140 138 
3 139 136 138 
3 140 139 138 
3 125 137 118 
3 118 137 136 
3 132 135 128 
3 128 135 134 
3 130 128 134 
3 140 119 139 
3 125 140 137 
3 135 141 134 
3 134 141 121 
3 135 133 141 
3 141 133 126 
3 121 126 115 
3 115 126 116 
3 119 125 120 
3 120 125 124 
3 119 140 125 
3 121 141 126 
3 142 143 144 
3 145 146 147 
3 147 146 148 
3 149 147 148 
3 150 149 151 
3 149 148 151 
3 152 153 154 
3 154 153 155 
3 155 153 156 
3 156 153 157 
3 144 146 142 
3 145 142 146 
3 151 144 150 
3 143 150 144 
3 158 159 160 
3 160 159 145 
3 161 159 158 
3 161 162 159 
3 159 162 150 
3 163 152 162 
3 155 164 154 
3 156 164 155 
3 157 161 156 
3 156 161 158 
3 157 163 161 
3 161 163 162 
3 146 144 165 
3 165 144 166 
3 146 165 167 
3 167 165 168 
3 169 168 170 
3 165 171 170 
3 168 165 170 
3 151 169 144 
3 144 169 166 
3 151 167 169 
3 169 167 168 
3 153 163 157 
3 152 163 153 
3 156 158 164 
3 164 158 160 
3 154 164 160 
3 171 169 170 
3 160 145 172 
3 172 145 147 
3 149 172 147 
3 162 172 150 
3 150 172 149 
3 145 159 150 
3 160 162 154 
3 154 162 152 
3 146 167 151 
3 165 166 169 
3 165 169 171 
3 146 151 148 
3 142 145 143 
3 143 145 150 
3 160 172 162 
3 173 174 175 
3 175 174 176 
3 177 178 179 
3 180 179 178 
3 180 178 181 
3 181 178 182 
3 183 184 182 
3 184 181 182 
3 185 186 187 
3 187 186 188 
3 185 189 186 
3 186 189 190 
3 177 179 175 
3 179 173 175 
3 183 176 184 
3 174 184 176 
3 187 181 191 
3 191 181 184 
3 187 188 181 
3 181 188 180 
3 188 192 180 
3 180 192 179 
3 185 187 191 
3 189 193 190 
3 189 185 193 
3 193 185 191 
3 194 195 196 
3 175 176 194 
3 177 175 197 
3 197 175 194 
3 195 198 196 
3 197 194 196 
3 198 197 196 
3 183 195 176 
3 176 195 194 
3 190 193 186 
3 186 193 192 
3 188 186 192 
3 198 177 197 
3 183 198 195 
3 193 199 192 
3 192 199 179 
3 193 191 199 
3 199 191 184 
3 179 184 173 
3 173 184 174 
3 177 183 178 
3 178 183 182 
3 177 198 183 
3 179 199 184 
3 200 201 202 
3 202 201 203 
3 204 205 206 
3 207 206 205 
3 207 205 208 
3 208 205 209 
3 210 211 209 
3 211 208 209 
3 212 213 214 
3 214 213 215 
3 212 216 213 
3 213 216 217 
3 204 206 202 
3 206 200 202 
3 210 203 211 
3 201 211 203 
3 214 208 218 
3 218 208 211 
3 214 215 208 
3 208 215 207 
3 215 219 207 
3 207 219 206 
3 212 214 218 
3 216 220 217 
3 216 212 220 
3 220 212 218 
3 221 222 223 
3 202 203 221 
3 204 202 224 
3 224 202 221 
3 222 225 223 
3 224 221 223 
3 225 224 223 
3 210 222 203 
3 203 222 221 
3 217 220 213 
3 213 220 219 
3 215 213 219 
3 225 204 224 
3 210 225 222 
3 220 226 219 
3 219 226 206 
3 220 218 226 
3 226 218 211 
3 206 211 200 
3 200 211 201 
3 204 210 205 
3 205 210 209 
3 204 225 210 
3 206 226 211 
3 227 228 229 
3 230 231 232 
3 232 231 233 
3 234 232 233 
3 235 234 236 
3 234 233 236 
3 237 238 239 
3 239 238 240 
3 240 238 241 
3 241 238 242 
3 229 231 227 
3 230 227 231 
3 236 229 235 
3 228 235 229 
3 243 244 245 
3 245 244 230 
3 246 244 243 
3 246 247 244 
3 244 247 235 
3 248 237 247 
3 240 249 239 
3 241 249 240 
3 242 246 241 
3 241 246 243 
3 242 248 246 
3 246 248 247 
3 231 229 250 
3 250 229 251 
3 231 250 252 
3 252 250 253 
3 254 253 255 
3 250 256 255 
3 253 250 255 
3 236 254 229 
3 229 254 251 
3 236 252 254 
3 254 252 253 
3 238 248 242 
3 237 248 238 
3 241 243 249 
3 249 243 245 
3 239 249 245 
3 256 254 255 
3 245 230 257 
3 257 230 232 
3 234 257 232 
3 247 257 235 
3 235 257 234 
3 230 244 235 
3 245 247 239 
3 239 247 237 
3 231 252 236 
3 250 251 254 
3 250 254 256 
3 231 236 233 
3 227 230 228 
3 228 230 235 
3 245 257 247 
3 258 259 260 
3 260 259 261 
3 262 263 264 
3 265 264 263 
3 265 263 266 
3 266 263 267 
3 268 269 267 
3 269 266 267 
3 270 271 272 
3 272 271 273 
3 270 274 271 
3 271 274 275 
3 262 264 260 
3 264 258 260 
3 268 261 269 
3 259 269 261 
3 272 266 276 
3 276 266 269 
3 272 273 266 
3 266 273 265 
3 273 277 265 
3 265 277 264 
3 270 272 276 
3 274 278 275 
3 274 270 278 
3 278 270 276 
3 279 280 281 
3 260 261 279 
3 262 260 282 
3 282 260 279 
3 280 283 281 
3 282 279 281 
3 283 282 281 
3 268 280 261 
3 261 280 279 
3 275 278 271 
3 271 278 277 
3 273 271 277 
3 283 262 282 
3 268 283 280 
3 278 284 277 
3 277 284 264 
3 278 276 284 
3 284 276 269 
3 264 269 258 
3 258 269 259 
3 262 268 263 
3 263 268 267 
3 262 283 268 
3 264 284 269 
3 285 286 287 
3 288 289 290 
3 290 289 291 
3 292 290 291 
3 293 292 294 
3 292 291 294 
3 295 296 297 
3 297 296 298 
3 298 296 299 
3 299 296 300 
3 287 289 285 
3 288 285 289 
3 294 287 293 
3 286 293 287 
3 301 302 303 
3 303 302 288 
3 304 302 301 
3 304 305 302 
3 302 305 293 
3 306 295 305 
3 298 307 297 
3 299 307 298 
3 300 304 299 
3 299 304 301 
3 300 306 304 
3 304 306 305 
3 289 287 308 
3 308 287 309 
3 289 308 310 
3 310 308 311 
3 312 311 313 
3 308 314 313 
3 311 308 313 
3 294 312 287 
3 287 312 309 
3 294 310 312 
3 312 310 311 
3 296 306 300 
3 295 306 296 
3 299 301 307 
3 307 301 303 
3 297 307 303 
3 314 312 313 
3 303 288 315 
3 315 288 290 
3 292 315 290 
3 305 315 293 
3 293 315 292 
3 288 302 293 
3 303 305 297 
3 297 305 295 
3 289 310 294 
3 308 309 312 
3 308 312 314 
3 289 294 291 
3 285 288 286 
3 286 288 293 
3 303 315 305 
3 316 317 318 
3 319 320 321 
3 321 320 322 
3 323 321 322 
3 324 323 325 
3 323 322 325 
3 326 327 328 
3 328 327 329 
3 329 327 330 
3 330 327 331 
3 318 320 316 
3 319 316 320 
3 325 318 324 
3 317 324 318 
3 332 333 334 
3 334 333 319 
3 335 333 332 
3 335 336 333 
3 333 336 324 
3 337 326 336 
3 329 338 328 
3 330 338 329 
3 331 335 330 
3 330 335 332 
3 331 337 335 
3 335 337 336 
3 320 318 339 
3 339 318 340 
3 320 339 341 
3 341 339 342 
3 343 342 344 
3 339 345 344 
3 342 339 344 
3 325 343 318 
3 318 343 340 
3 325 341 343 
3 343 341 342 
3 327 337 331 
3 326 337 327 
3 330 332 338 
3 338 332 334 
3 328 338 334 
3 345 343 344 
3 334 319 346 
3 346 319 321 
3 323 346 321 
3 336 346 324 
3 324 346 323 
3 319 333 324 
3 334 336 328 
3 328 336 326 
3 320 341 325 
3 339 340 343 
3 339 343 345 
3 320 325 322 
3 316 319 317 
3 317 319 324 
3 334 346 336 
3 347 348 349 
3 350 351 352 
3 352 351 353 
3 354 352 353 
3 355 354 356 
3 354 353 356 
3 357 358 359 
3 359 358 360 
3 360 358 361 
3 361 358 362 
3 349 351 347 
3 350 347 351 
3 356 349 355 
3 348 355 349 
3 363 364 365 
3 365 364 350 
3 366 364 363 
3 366 367 364 
3 364 367 355 
3 368 357 367 
3 360 369 359 
3 361 369 360 
3 362 366 361 
3 361 366 363 
3 362 368 366 
3 366 368 367 
3 351 349 370 
3 370 349 371 
3 351 370 372 
3 372 370 373 
3 374 373 375 
3 370 376 375 
3 373 370 375 
3 356 374 349 
3 349 374 371 
3 356 372 374 
3 374 372 373 
3 358 368 362 
3 357 368 358 
3 361 363 369 
3 369 363 365 
3 359 369 365 
3 376 374 375 
3 365 350 377 
3 377 350 352 
3 354 377 352 
3 367 377 355 
3 355 377 354 
3 350 364 355 
3 365 367 359 
3 359 367 357 
3 351 372 356 
3 370 371 374 
3 370 374 376 
3 351 356 353 
3 347 350 348 
3 348 350 355 
3 365 377 367 
3 378 379 380 
3 381 382 383 
3 383 382 384 
3 385 383 384 
3 386 385 387 
3 385 384 387 
3 388 389 390 
3 390 389 391 
3 391 389 392 
3 392 389 393 
3 380 382 378 
3 381 378 382 
3 387 380 386 
3 379 386 380 
3 394 395 396 
3 396 395 381 
3 397 395 394 
3 397 398 395 
3 395 398 386 
3 399 388 398 
3 391 400 390 
3 392 400 391 
3 393 397 392 
3 392 397 394 
3 393 399 397 
3 397 399 398 
3 382 380 401 
3 401 380 402 
3 382 401 403 
3 403 401 404 
3 405 404 406 
3 401 407 406 
3 404 401 406 
3 387 405 380 
3 380 405 402 
3 387 403 405 
3 405 403 404 
3 389 399 393 
3 388 399 389 
3 392 394 400 
3 400 394 396 
3 390 400 396 
3 407 405 406 
3 396 381 408 
3 408 381 383 
3 385 408 383 
3 398 408 386 
3 386 408 385 
3 381 395 386 
3 396 398 390 
3 390 398 388 
3 382 403 387 
3 401 402 405 
3 401 405 407 
3 382 387 384 
3 378 381 379 
3 379 381 386 
3 396 408 398 
3 409 410 411 
3 411 410 412 
3 413 414 415 
3 416 415 414 
3 416 414 417 
3 417 414 418 
3 419 420 418 
3 420 417 418 
3 421 422 423 
3 423 422 424 
3 421 425 422 
3 422 425 426 
3 413 415 411 
3 415 409 411 
3 419 412 420 
3 410 420 412 
3 423 417 427 
3 427 417 420 
3 423 424 417 
3 417 424 416 
3 424 428 416 
3 416 428 415 
3 421 423 427 
3 425 429 426 
3 425 421 429 
3 429 421 427 
3 430 431 432 
3 411 412 430 
3 413 411 433 
3 433 411 430 
3 431 434 432 
3 433 430 432 
3 434 433 432 
3 419 431 412 
3 412 431 430 
3 426 429 422 
3 422 429 428 
3 424 422 428 
3 434 413 433 
3 419 434 431 
3 429 435 428 
3 428 435 415 
3 429 427 435 
3 435 427 420 
3 415 420 409 
3 409 420 410 
3 413 419 414 
3 414 419 418 
3 413 434 419 
3 415 435 420 
