ply
format ascii 1.0
comment VCGLIB generated
element vertex 533
property float x
property float y
property float z
property float nx
property float ny
property float nz
element face 1032
property list uchar int vertex_indices
end_header
0.010855 -0.003552 0.037877 6.3044 -0.462687 -0.408266 
0.008609 -0.008037 0.038386 2.21951 -3.14575 0.0979972 
0.008124 -0.010947 0.016756 2.4433 -3.59294 1.64195 
0.012757 -0.004701 0.016579 5.14231 -0.903095 1.523 
0.016953 0.004564 0.164889 0.135074 -2.91162 -0.7101 
0.017937 0.004579 0.165017 1.08082 -1.88242 -0.595907 
0.017825 0.005592 0.164598 2.02649 -0.853225 -0.481703 
0.008488 0.005445 0.011486 1.62824 4.59046 1.88014 
0.002241 0.005074 0.014885 -1.6188 1.63176 1.8637 
0.001296 0.001971 0.038386 -3.40361 2.31256 0.235456 
0.006252 0.002748 0.04292 -1.35333 6.8255 0.0282282 
0.009499 0.000289 0.04292 2.26212 1.17023 0.0273908 
0.012786 0.000818 0.011486 3.01842 2.45168 1.66167 
-0.002392 -0.001173 0.014709 -5.4985 -0.84185 1.83007 
-0.002879 -0.006886 0.011486 -2.71821 -3.26912 1.83633 
0.000407 -0.006355 0.034293 -2.51812 -2.45837 0.256454 
-0.000949 -0.002514 0.037877 -5.86267 -1.18395 0.306236 
-0.007903 0.004051 0.205761 -2.20696 -1.99304 0.396374 
-0.006688 0.002744 0.205953 -0.472003 -1.3665 0.260636 
-0.006648 0.003793 0.205923 1.2629 -0.739903 0.124891 
0.001419 -0.011513 0.011486 -0.147235 -5.62421 1.77053 
0.003654 -0.008814 0.034293 1.65962 -6.6249 0.100178 
-0.02736 -0.022853 0.198732 0.183926 -2.97579 0.332954 
-0.025542 -0.022714 0.198973 0.601958 -1.11964 0.0689874 
-0.026708 -0.022043 0.19911 1.01992 0.736496 -0.194967 
0.037535 0.000645 0.173281 -2.90237 -4.14765e-005 0.759104 
0.037647 -0.0004 0.173714 -1.76703 -0.974567 0.357199 
0.038641 -0.000204 0.173555 -0.631681 -1.94901 -0.0446947 
0.004953 -0.003033 0.064133 -1.18017 0.639634 3.39018 
0.002091 0.002785 0.059441 -5.01715 3.91125 2.42363 
-0.000141 -0.00153 0.064893 0.338961 4.54833 1.8047 
0.002213 -0.004478 0.066322 3.36232 3.62002 2.52282 
-0.000871 -0.000772 0.053261 -5.44148 -0.0607954 -0.651573 
-0.003871 -0.00292 0.06113 -4.4539 2.63595 -0.297356 
0.00012 -0.006698 0.051758 -1.62701 -4.22067 0.0141086 
-0.003458 -0.007267 0.060365 -1.93572 -2.78472 -0.66785 
0.004209 -0.0111 0.053261 1.45913 -4.64725 0.642798 
0.007814 -0.008851 0.059441 3.91346 -3.27709 1.49996 
0.003111 -0.008142 0.064893 2.72139 -1.06637 1.4718 
-0.000267 -0.010248 0.06113 1.6805 -5.6383 0.662054 
0.007962 -0.003981 0.068483 -4.14526 -2.51044 1.99892 
0.00804 0.000677 0.068483 -5.31979 -0.279559 2.58181 
0.012405 0.000632 0.054407 3.43767 4.67409 -0.646596 
0.008316 0.005034 0.055909 -1.47904 2.71675 0.924395 
0.011847 0.002179 0.065942 -0.841148 2.09179 0.962125 
0.015079 -0.00048 0.065942 3.57614 4.75322 -0.403363 
0.011699 -0.006761 0.068483 -0.0803959 -4.71087 0.384482 
0.013395 -0.005294 0.055909 3.77467 1.16183 -0.480625 
0.015212 -0.004663 0.065942 3.28041 -0.0728214 -0.487667 
-0.00921 0.00076 0.00278 -4.84128 1.36334 2.41405 
-0.001721 0.008682 0.006363 -1.11906 1.53343 2.14138 
-0.002186 0.011483 0 -0.143842 2.46987 1.17813 
-0.009984 0.000967 -0 -2.28984 1.72757 0.878707 
-0.008232 -0.009518 -0 -2.16917 -0.730237 0.856515 
-0.006603 -0.008717 0.00592 -3.20684 -1.38805 2.31104 
-0.000997 -0.017306 -0 -0.723356 -2.60478 0.718044 
0.000257 -0.016101 0.00592 -1.60626 -4.92977 2.17918 
0.012092 -0.017548 -0 1.54441 -2.12636 0.727546 
0.011722 -0.016796 0.002877 2.4385 -2.94302 2.01546 
0.019116 -0.006826 0.00278 4.94935 -1.02553 2.05215 
0.01989 -0.007033 -0 2.33197 -1.72568 0.764147 
0.018138 0.003452 0 2.16013 0.742753 0.847 
0.017455 0.003116 0.00278 4.42632 0.824368 2.29235 
0.010689 0.008452 0.006266 4.72704 4.2597 2.77083 
0.010903 0.01124 0 1.38272 1.31805 0.592317 
0.015596 -0.006446 0.08935 -3.46987 -3.51867 1.29484 
0.014182 -0.002338 0.088778 -5.41212 -1.66254 1.74169 
0.017097 0.000152 0.088166 -1.44811 1.71445 0.746066 
0.020739 -0.001273 0.087702 2.12485 5.51583 -0.134191 
0.019712 -0.007835 0.088778 1.21345 -4.57146 -0.0231584 
0.022184 -0.004905 0.088167 2.87775 0.701825 -0.540138 
-0.002989 -0.006637 0.102662 2.8351 4.12136 1.23923 
-0.001689 -0.009694 0.103095 4.96597 2.11286 2.04711 
-0.007412 -0.006512 0.101901 -2.52915 4.0867 -0.677912 
-0.008705 -0.010031 0.101901 -2.63847 -2.13671 -0.833512 
-0.00269 -0.012862 0.102662 3.02563 -2.00221 1.066 
-0.007081 -0.013411 0.101901 0.583842 -5.77459 -0.328282 
-0.016359 -0.007793 0.125479 3.67905 3.232 1.49076 
-0.016898 -0.01109 0.12573 5.44261 0.838334 2.0247 
-0.020018 -0.00529 0.124771 -1.35238 4.56539 -0.270847 
-0.022987 -0.007571 0.12459 -2.83794 -1.25161 -1.08862 
-0.019424 -0.013209 0.125132 2.25782 -2.54126 0.676134 
-0.023415 -0.011291 0.124387 -1.17046 -5.87033 -0.214185 
0.020418 -0.005685 0.102725 -2.0907 -4.12711 1.86002 
0.018451 -0.003658 0.102353 -4.87517 -2.82077 2.00899 
0.019479 -0.001387 0.101955 -1.95417 1.41431 0.690373 
0.022017 -0.001218 0.101653 0.706779 5.6581 -1.18216 
0.023224 -0.005364 0.102353 2.78113 -3.89341 0.508573 
0.02387 -0.002956 0.101955 2.93987 1.49898 -1.02394 
0.022509 -0.000358 0.114681 -0.945219 -4.50287 3.17723 
0.020395 0.001042 0.111507 -3.82521 -4.08512 1.56009 
0.021367 0.003192 0.111131 -1.67196 0.581969 -0.378402 
0.024017 0.003866 0.113667 -1.58972 5.70382 -0.0321563 
0.02503 -0.000615 0.111507 3.38806 -3.47886 0.352693 
0.025639 0.001664 0.111131 1.16296 0.87707 -0.108288 
-0.01996 -0.006552 0.14288 3.63775 2.85889 -0.684798 
-0.019259 -0.009609 0.14697 5.83873 0.839832 1.45078 
-0.023828 -0.005906 0.142405 -0.130101 1.6609 0.66168 
-0.025455 -0.009055 0.146198 -2.12474 -3.28508 1.06256 
-0.020416 -0.012056 0.142584 2.47277 -2.89089 -0.660273 
-0.024332 -0.012005 0.142076 -0.679802 -5.61167 -1.3088 
-0.018875 -0.016947 0.152485 2.65647 -3.55147 -0.785396 
-0.021612 -0.016923 0.152608 -0.244086 -5.46974 -2.42294 
-0.018618 -0.014619 0.153417 3.15187 2.04913 1.40847 
-0.02306 -0.014162 0.153772 0.0653441 -0.227066 0.411647 
-0.022466 -0.019231 0.15855 2.11914 -3.73925 -1.42836 
-0.025144 -0.018926 0.159012 -1.28103 -4.71483 -3.17398 
-0.021774 -0.017373 0.159883 3.36038 1.00136 2.32534 
-0.024533 -0.017133 0.160304 -0.191969 0.202774 -0.163299 
-0.025107 -0.026369 0.166035 1.20443 -3.86944 -1.65246 
-0.027419 -0.024944 0.166343 -2.59214 -4.43306 -2.55911 
-0.023652 -0.024655 0.166842 3.83815 0.783857 0.859537 
-0.026067 -0.023265 0.167126 -0.293451 -0.182927 0.610923 
-0.026294 -0.027431 0.175075 0.747195 -4.19837 -1.14782 
-0.028053 -0.026347 0.17531 -3.05292 -7.79344 -0.718875 
-0.025187 -0.026127 0.175689 2.79004 -1.84756 -0.432468 
-0.027024 -0.02507 0.175905 1.06383 -0.243367 0.699601 
-0.017102 -0.005426 0.154264 2.3186 -2.90515 0.16459 
-0.021076 -0.004105 0.155566 -0.993069 -5.4186 2.14387 
-0.016601 -0.001922 0.15433 3.49084 2.5354 -1.4861 
-0.020466 -0.000667 0.155889 0.0411699 0.00132966 0.0092003 
-0.013273 -0.004411 0.161981 2.33925 -2.83706 -0.0783077 
-0.016068 -0.003686 0.163676 -0.863738 -5.4772 2.07181 
-0.013606 -0.001826 0.161264 3.23798 2.67849 -1.95294 
-0.016256 -0.001074 0.163122 0.222818 0.158763 0.606155 
-0.011534 -0.001404 0.1685 2.53521 -2.78666 0.348088 
-0.013788 -0.000918 0.168055 -0.90354 -5.52949 1.54177 
-0.011462 0.000491 0.168447 3.42305 2.85356 -1.17151 
-0.013726 0.000956 0.168154 -0.0904851 0.00335872 -0.233699 
-0.00933 -0.001623 0.179889 2.7626 -2.39472 0.238598 
-0.011704 -0.001112 0.17942 -1.03916 -5.71576 -0.97045 
-0.009254 0.000372 0.179833 1.67821 -0.392064 -0.0948992 
-0.01164 0.000862 0.179524 -1.63717 -2.11846 0.748217 
0.020806 0.00179 0.117963 1.40172 -2.64867 1.90733 
0.018446 0.002519 0.117612 -2.31198 -5.25167 1.44194 
0.021338 0.00432 0.11695 2.74399 2.64837 0.462228 
0.019115 0.00478 0.117235 -0.875989 0.212781 0.022298 
0.02571 0.001279 0.120662 -2.58284 -1.92894 1.41392 
0.026242 0.003801 0.119648 -4.97233 2.04879 2.59458 
0.028167 0.000992 0.120311 2.62254 -3.45154 -0.944892 
0.028463 0.003333 0.119934 0.252069 0.412104 0.300758 
0.018739 0.00478 0.123647 2.20152 -2.56752 1.75631 
0.016299 0.005178 0.123295 -1.15571 -5.63666 1.52775 
0.018917 0.00736 0.122633 2.87885 3.01438 0.338504 
0.016652 0.007509 0.122919 -0.37864 -0.0624104 -0.299309 
0.014373 0.007923 0.138662 2.71778 -2.66147 0.529816 
0.01313 0.007903 0.1385 -0.320879 -5.93816 0.483464 
0.01423 0.009204 0.138132 2.68453 3.27696 0.327965 
0.013098 0.009084 0.13829 -0.213616 0.00152206 -0.0942394 
0.014646 0.007942 0.147883 2.94134 -2.95684 -0.772134 
0.013096 0.007917 0.147681 2.43338 -7.68524 0.63109 
0.014466 0.009538 0.147223 3.38368 0.547705 -0.694701 
0.013058 0.009388 0.14742 1.20165 0.826069 0.333728 
0.032702 0.000802 0.131315 -2.39521 -2.30092 1.43147 
0.032881 0.003373 0.130302 -5.36711 1.02703 1.80004 
0.03517 0.000853 0.130964 2.84725 -2.94645 -0.439774 
0.035141 0.003212 0.130588 -0.123046 0.183118 -0.424805 
0.033668 0.002179 0.140533 -2.50188 -2.94438 0.317011 
0.033455 0.004107 0.139734 -5.95558 -0.0773981 0.662952 
0.035498 0.002539 0.14024 3.37144 -2.52592 -0.00691906 
0.035164 0.004287 0.139928 -0.00168526 0.256775 0.192541 
0.035118 0.001747 0.150516 -2.41688 -3.1862 0.0128561 
0.034937 0.003392 0.149833 -7.76962 -2.57091 1.45438 
0.036682 0.002053 0.150265 0.885245 -3.41256 -0.376032 
0.036399 0.003549 0.149999 0.715681 -0.889451 0.608757 
-0.016862 -0.005983 0.200045 -0.478607 -2.87447 -0.712987 
-0.015356 -0.006308 0.200342 0.360944 -1.24199 -0.187342 
-0.016821 -0.004731 0.200111 1.20037 0.390516 0.338289 
-0.031783 -0.036384 0.204754 -1.57141 -2.32 -1.07159 
-0.030857 -0.036954 0.204631 -0.295267 -2.20413 -0.671743 
-0.030276 -0.036268 0.204954 0.980788 -2.08821 -0.271907 
0.034485 0.00853 0.169688 -1.85493 -2.34558 0.239764 
0.035405 0.007826 0.169915 -0.260028 -1.36236 0.235647 
0.035254 0.008612 0.169775 1.33484 -0.379117 0.231523 
0.009884 0.008537 0.170272 2.29487 -1.93123 0.062621 
0.010609 0.009389 0.170031 1.43795 -0.296061 0.134717 
0.009863 0.00931 0.170135 0.581 1.33908 0.206808 
-0.00689 -0.000798 0.187019 0.774929 -2.02507 0.440711 
-0.008562 0.001001 0.186755 -4.35913 -3.85372 1.34822 
-0.006836 0.000646 0.186979 0.704141 -2.07606 -0.059572 
-0.025632 -0.032147 0.186561 0.715254 -4.22431 -1.13363 
-0.026905 -0.031363 0.186731 -3.1596 -4.70523 -1.95944 
-0.024832 -0.031203 0.187005 0.761695 -4.09098 -1.50732 
0.037105 0.005008 0.155502 1.07918 -1.55266 0.914379 
0.035841 0.005976 0.15519 -3.69893 -4.33991 1.51346 
0.036897 0.006088 0.15531 1.07259 -1.71508 0.327648 
0.012286 0.010911 0.155459 1.98736 1.17838 0.60614 
0.011293 0.00974 0.15579 4.60038 -3.62989 0.956583 
0.011265 0.010803 0.155601 1.94511 1.08115 0.0394144 
0.016197 0.007579 0.152383 3.0241 -2.87497 -0.988397 
0.01465 0.007557 0.152181 0.215313 -5.89858 -0.977731 
0.016021 0.009177 0.151723 2.9957 -2.93895 -1.34164 
-0.027288 -0.02467 0.182452 1.60576 -0.342734 0.219522 
-0.030154 -0.02489 0.182073 0.319352 -5.89658 1.00426 
-0.029125 -0.023613 0.182668 1.63811 -0.357323 0.226666 
0.034357 0.000956 0.16113 -2.422 -3.21415 -0.267166 
0.034177 0.002603 0.160447 -5.86201 -0.425682 0.515361 
0.03592 0.001263 0.16088 -2.38804 -3.07903 0.156017 
-0.011943 -0.002895 0.184294 1.52084 -0.847657 0.170863 
-0.014318 -0.002384 0.183825 -0.873122 -5.6611 -1.75175 
-0.014254 -0.00041 0.183929 1.39623 -0.931663 0.516536 
0.011943 0.020543 0.220412 0.000569965 0.000258714 -0.000236834 
0.018879 -0.001615 0.223096 0.000777759 0.000269124 -2.82647e-005 
0.015627 -0.002373 0.209423 0.000677978 0.000135492 -0.000386046 
0.011188 0.02053 0.225112 0.000310924 0.000174074 0.00024524 
0.015109 6.7e-005 0.229314 0.000590797 0.000363534 0.000458326 
0.006976 0.024838 0.219961 6.81296e-005 0.00020639 -0.000107309 
0.008698 0.009984 0.211153 0.000514527 0.000527442 -0.000743195 
0.004774 0.021061 0.227024 0.000376371 0.000383487 0.000408091 
0.01907 -0.009625 0.218838 0.000651517 -3.36059e-005 -0.000383809 
0.022474 -0.006312 0.228104 0.000414997 -1.87876e-005 5.84732e-007 
0.000952 0.024099 0.219584 0.000262696 0.00061171 -0.000177302 
0.019481 -0.004278 0.233241 0.000142084 8.77369e-005 0.000164025 
0.011353 0.00303 0.237786 0.000259768 0.000126884 0.000177299 
-0.00019 0.016526 0.236296 0.000506664 0.000396504 0.000647104 
-0.005119 0.026665 0.233991 0.000142466 0.000427171 0.000152698 
0.010761 0.000917 0.205681 0.000114833 7.07607e-005 -0.000308097 
0.018171 -0.025448 0.218811 0.000610662 -0.000314453 0.000187652 
-0.007814 0.026011 0.225364 0.000190874 0.0005015 9.11746e-005 
-0.009012 0.027248 0.210464 0.000226243 0.000320588 -0.000185324 
-0.000366 0.004828 0.205116 0.000258463 0.000181922 -0.000622291 
0.018577 -0.013853 0.231185 0.000381594 -0.0002674 0.000420475 
0.011686 -0.006945 0.235693 0.000277879 -0.000161858 0.000631644 
-0.010423 0.023805 0.238179 -9.37196e-005 0.000175652 0.000667139 
-0.010711 0.027106 0.215212 0.000125357 0.000542001 -0.0001219 
-0.005977 0.021853 0.207694 0.000217259 0.000213095 -0.000515415 
0.008477 -0.009181 0.206669 0.000719492 -0.000211414 -0.00139916 
0.00865 -0.002097 0.240326 9.1049e-005 -2.3702e-005 0.000670641 
-0.015894 0.02307 0.231061 -0.000107654 0.000388439 0.000543083 
-0.019839 0.034034 0.228475 4.50899e-005 0.000187605 0.000301036 
-0.020019 0.034745 0.223802 0.000101053 0.000394085 -0.000146612 
0.015786 -0.025111 0.214751 0.000423384 -0.000121069 -0.000498087 
0.007285 -0.024137 0.231454 0.000657031 -0.000358026 0.000818496 
-0.002202 -0.011505 0.237766 0.00021569 -6.60999e-005 0.000924547 
-0.002279 0.006606 0.239341 2.9605e-005 7.48301e-005 0.000639772 
-0.02456 0.027436 0.215206 -8.56328e-005 0.000575853 -0.000423765 
-0.014097 0.025985 0.207558 -6.4173e-005 0.000298732 -0.000392084 
0.014796 -0.031264 0.218475 0.000126608 -0.000180369 -0.000122773 
0.008835 -0.032926 0.221574 0.000452389 -0.00025537 0.000237061 
-0.010036 -0.003646 0.239111 1.20714e-005 1.16129e-005 0.000988992 
-0.012535 0.013172 0.204274 -2.55563e-005 0.000221895 -0.000527966 
-0.005987 0.008698 0.20318 0.00010032 0.000122313 -0.000263629 
0.00379 -0.027426 0.209416 0.000665943 -0.000643935 -0.00102825 
-0.017022 0.010559 0.237262 -4.14918e-005 0.000217319 0.000617243 
-0.026889 0.033417 0.225449 -0.000186004 0.000282201 2.21369e-005 
-0.024682 0.018153 0.20771 -5.91122e-005 0.000424178 -0.000798455 
-0.007844 -0.019241 0.202636 0.000550895 -0.000164144 -0.00126011 
0.000582 -0.03156 0.239688 0.000456927 -0.000155725 0.00041932 
-0.02577 0.012655 0.236735 -7.10738e-005 0.000413487 0.000730337 
-0.027311 0.023911 0.229671 -0.000197412 0.000431325 0.000695336 
-0.014383 0.008394 0.199342 -4.63432e-005 0.000149078 -0.000340648 
-0.008838 0.004864 0.199646 0.000265211 5.17222e-006 -0.000792241 
0.006553 -0.035222 0.219433 0.000249801 -0.000376433 -0.000258358 
0.005339 -0.038083 0.228273 0.00024232 -0.000136647 9.93525e-005 
-0.00099 -0.022038 0.240208 0.000217874 5.76925e-005 0.000286402 
-0.006729 -0.026059 0.242502 -4.4492e-005 -5.57537e-006 0.000545761 
-0.032338 0.025553 0.215185 -0.000117326 0.000292019 -3.5042e-005 
-0.023579 0.008414 0.203867 -6.04541e-005 0.000259533 -0.000622559 
-0.013715 -0.011854 0.239814 0.000117184 -6.52463e-005 0.000547977 
-0.022921 0.001687 0.243154 -1.41467e-005 0.000179857 0.000450176 
-0.017164 -0.001921 0.241969 0.000138468 5.18925e-005 0.000342671 
-0.032336 0.026176 0.224176 -0.000143574 0.000175731 6.9743e-005 
-0.03792 0.025719 0.211892 -5.75304e-005 0.000485823 -0.000263757 
-0.043744 0.019073 0.206686 -0.000143127 0.000326236 -0.000891017 
-0.015233 0.000303 0.199227 6.05745e-005 0.000178335 -0.000807077 
-4.7e-005 -0.042909 0.225613 0.000226902 -0.000395366 -1.97397e-005 
-0.014371 -0.018616 0.239729 -3.40614e-005 2.76581e-007 0.000573831 
-0.02368 -0.004965 0.244042 7.60069e-006 -6.86583e-005 0.000488897 
-0.042909 0.014349 0.232618 -0.000187627 0.000462972 0.000915006 
-0.039431 0.02364 0.224265 -0.000125352 0.000637346 0.000198339 
-0.028227 0.000529 0.202014 -0.000106498 0.000279304 -0.00092174 
-0.01558 -0.011119 0.195475 0.000100992 0.000107602 -0.000633799 
-0.003645 -0.031962 0.204932 0.000173283 -0.000236616 -0.000648087 
-0.012863 -0.04137 0.208366 0.000328122 -0.000573306 -0.000736272 
-0.008372 -0.045756 0.219066 0.000458347 -0.000613597 -0.000338376 
-0.000392 -0.041455 0.232348 0.000146955 -0.000303428 0.000224154 
-0.004913 -0.035833 0.239298 -4.20732e-005 -0.000243537 0.000364816 
-0.029497 -0.001388 0.24174 -0.000151279 5.06887e-005 0.000448634 
-0.035759 0.008425 0.237011 -0.000132967 0.000211695 0.000532188 
-0.016208 -0.018626 0.195858 -9.97101e-006 -0.00020766 -0.000707859 
-0.016177 -0.03139 0.237284 -7.74308e-005 -0.000200568 0.000671305 
-0.026637 -0.018371 0.240313 0.000119373 -0.000107853 0.000839193 
-0.043746 0.021719 0.228688 1.29257e-005 0.000173653 0.000195799 
-0.048724 0.021596 0.212668 -0.000338104 0.000493588 -0.000238942 
-0.040755 -0.008137 0.199277 -0.000165383 9.15557e-005 -0.00121265 
-0.01622 -0.02463 0.201183 0.000105498 -0.00030028 -0.000669887 
-0.012805 -0.050905 0.220089 0.000207963 -0.000363752 -2.44877e-005 
-0.012535 -0.045973 0.228625 0.000155239 -0.000348376 0.000141568 
-0.009985 -0.042172 0.231665 5.31901e-005 -0.0003143 0.00051757 
-0.032481 -0.014686 0.240311 -9.55749e-005 -2.10869e-005 0.00122128 
-0.039951 0.000501 0.238225 -3.79543e-005 0.000173563 0.00076253 
-0.057748 0.019368 0.229263 -0.000239851 0.000184654 0.000371977 
-0.050779 0.023203 0.225285 -0.000138735 0.000402317 -7.60135e-006 
-0.04346 0.006403 0.205166 -0.000225507 0.000285979 -0.000743818 
-0.043288 -0.002986 0.199993 -1.09376e-005 0.000143494 -0.000359312 
-0.025237 -0.036637 0.20591 0.000110034 -0.000459909 -0.00092636 
-0.019523 -0.04733 0.232896 0.0001037 -0.000330529 0.000281243 
-0.022811 -0.034348 0.238307 0.000136302 -0.000127737 0.000480029 
-0.045208 0.003095 0.236431 -0.000122613 0.000247419 0.000468682 
-0.058727 0.016177 0.221755 -0.000425488 0.000285744 -0.000235778 
-0.0492 0.010756 0.209696 -0.000364522 0.00024284 -0.000449238 
-0.051633 -0.006491 0.199923 -0.000184985 2.5765e-005 -0.000552171 
-0.031365 -0.024887 0.200726 -8.17945e-005 -0.000213749 -0.00110284 
-0.028985 -0.029928 0.201584 6.26194e-005 -0.000120917 -0.000348091 
-0.027117 -0.041099 0.236051 5.67597e-005 -0.000314945 0.000520021 
-0.035473 -0.04933 0.211451 2.65299e-005 -0.000715498 -0.000666509 
-0.017662 -0.048287 0.211924 5.20739e-005 -0.000534281 -0.000285803 
-0.029518 -0.034012 0.240974 8.09702e-005 -7.37836e-005 0.00034913 
-0.031815 -0.029342 0.242094 -2.37834e-005 5.34571e-006 0.000262115 
-0.054352 0.005996 0.231565 -0.000538035 0.000431806 0.000856993 
-0.059436 0.007956 0.215559 -0.000313417 0.000297211 -0.00020747 
-0.053264 -0.004779 0.205173 -0.000397321 0.000113282 -0.000834963 
-0.044688 -0.022895 0.200942 -0.000236684 -7.14489e-005 -0.000900374 
-0.039214 -0.037344 0.201463 -3.45608e-006 -0.000192846 -0.0005626 
-0.020268 -0.052262 0.220182 9.24776e-006 -0.00055309 2.53948e-005 
-0.053808 -0.011933 0.242932 3.88156e-005 -2.5995e-005 0.000697445 
-0.055959 -0.007558 0.241882 -0.000173075 0.000257831 0.000473978 
-0.059935 0.009234 0.224009 -0.000596725 0.000385648 0.000214629 
-0.058765 0.003264 0.20865 -0.000239072 0.000266955 -0.000468804 
-0.026764 -0.048617 0.231876 -6.16319e-005 -0.000507525 0.000383758 
-0.042519 -0.039624 0.234569 -0.000156544 -0.000372889 0.000493508 
-0.036146 -0.038516 0.24042 -4.07412e-005 -0.000116072 0.000184398 
-0.038159 -0.031682 0.239539 -0.000162728 -5.30036e-005 0.000589316 
-0.047722 -0.022182 0.238663 -0.0001244 -0.000232895 0.000781955 
-0.048206 -0.030817 0.203482 -0.000114339 -0.000144371 -0.000352669 
-0.035547 -0.041505 0.207067 2.79631e-005 -0.000189268 -0.000237603 
-0.037213 -0.050786 0.223768 2.77159e-005 -0.000840705 2.74398e-005 
-0.038435 -0.047937 0.228128 -4.1151e-005 -0.000267484 0.000297859 
-0.062713 -0.007892 0.236274 -0.000241564 0.000116655 0.000163328 
-0.063871 -0.009077 0.231265 -0.000448489 3.6202e-006 0.000412922 
-0.069294 -0.001906 0.213548 -0.000658327 0.000302705 -0.000407026 
-0.063392 -0.004704 0.208115 -0.000138247 3.91283e-005 -0.000278031 
-0.058885 -0.029881 0.204579 -0.000235703 -5.00754e-005 -0.000710103 
-0.04483 -0.037375 0.204192 -0.000270048 -0.00048149 -0.000649538 
-0.058956 -0.015531 0.240131 -0.00026309 -0.000153487 0.000306338 
-0.072417 -0.007773 0.227365 -0.000312527 0.000140322 0.000421581 
-0.073058 -0.004152 0.224194 -0.000280974 0.00020537 2.3697e-005 
-0.061479 -0.013594 0.207627 -0.000447109 3.31412e-005 -0.000628097 
-0.049052 -0.045286 0.229193 -0.000342223 -0.000401737 0.000697874 
-0.046276 -0.031986 0.237125 -0.000277217 -0.000253611 0.000678733 
-0.045857 -0.052751 0.217609 -0.000423658 -0.000917481 -0.000585064 
-0.048007 -0.05141 0.227657 -8.49346e-006 -0.000231255 0.000147051 
-0.05932 -0.023612 0.233495 -0.000321108 -0.000168452 0.000492889 
-0.074323 -0.010208 0.221905 -0.000254656 -2.55784e-005 -5.46106e-005 
-0.064561 -0.02816 0.207066 -0.000487622 -8.07318e-005 -0.000353415 
-0.061728 -0.033116 0.210412 -0.000492122 -0.000599166 -0.000622819 
-0.070376 -0.016311 0.217315 -0.000810435 -7.30669e-005 -0.000422555 
-0.053884 -0.049407 0.225912 -0.000210495 -0.000204949 7.40168e-005 
-0.065439 -0.020921 0.230065 -0.000223846 1.10206e-005 0.000321248 
-0.063347 -0.029905 0.230096 -0.000319118 -0.000277885 0.000672914 
-0.070727 -0.015285 0.223945 -0.000299015 -4.67108e-005 0.000208786 
-0.063371 -0.038679 0.219215 -0.000446008 -0.000433231 -0.000121317 
-0.071482 -0.025717 0.227294 -0.000305048 -7.48084e-006 0.000139706 
-0.069511 -0.032528 0.222626 -0.000571683 -0.000236081 -0.000180754 
-0.068965 -0.032185 0.22815 -8.39346e-005 -7.74414e-005 9.64527e-005 
-0.063777 -0.038086 0.224068 -0.000184511 -0.000252428 0.000180496 
0.003653 -0.02127 0.179371 -0.000444295 -0.000675333 3.70872e-005 
-0.010791 -0.00396 0.185383 -0.000497524 -0.000250521 8.56038e-005 
-0.007483 -0.006382 0.174233 -0.000573752 -0.000293166 -0.000301558 
-0.003754 -0.00687 0.186329 -0.000355869 -0.000420019 0.000469489 
-0.00032 -0.006426 0.167858 -0.000828741 -0.00046234 -0.00173226 
0.012681 -0.021192 0.178724 -0.000141343 -0.000742312 -9.55856e-005 
0.000501 -0.00367 0.194935 -0.000243691 -0.00016448 0.000591088 
0.014015 -0.01691 0.190633 -0.000246523 -0.00064446 0.000430937 
-0.012328 0.011293 0.17812 -0.00149075 0.000404898 -0.000559645 
0.020847 -0.021064 0.171596 -2.70276e-005 -0.000685472 -0.000733627 
-0.009765 0.002595 0.187791 -0.000386186 7.37593e-005 0.000493497 
0.024918 -0.016266 0.187694 0.000265506 -0.000642644 0.000804611 
0.017714 -0.016137 0.194131 7.90461e-005 -7.85417e-005 0.0005894 
0.026823 -0.02334 0.182507 0.00010574 -0.00045189 0.00010653 
0.010363 -0.00687 0.167229 -6.18855e-005 -0.00015781 -0.000267547 
0.006223 0.005988 0.192934 -0.000252763 -3.51952e-005 0.00134842 
-0.003932 0.01301 0.188001 -0.000470169 4.76468e-005 0.00047629 
0.032421 -0.017363 0.175303 0.000301417 -0.000540137 -0.000325555 
-0.002518 0.027748 0.1887 -0.000533497 0.000285159 0.000250652 
0.004352 0.037821 0.179119 -0.000892899 0.000957359 -0.000187937 
0.015187 -0.00451 0.163141 -4.89672e-005 -0.000383912 -0.00151696 
0.002238 0.021513 0.167273 -0.000856492 0.00046591 -0.00142934 
0.022663 -0.006711 0.19254 2.44275e-005 -9.3708e-005 0.000485123 
0.030219 -0.01045 0.169444 0.000187698 -0.000358336 -0.000818083 
0.013375 0.019183 0.164343 -0.00048449 0.000325128 -0.00153811 
-0.000796 0.02017 0.194436 -0.00022759 8.06526e-005 0.000433864 
0.005984 0.017898 0.196635 1.61892e-006 5.55106e-006 0.000292115 
0.024844 0.001325 0.197145 9.39201e-005 -0.000247906 0.00121591 
0.028493 0.003494 0.164992 0.000150004 -0.000238232 -0.000693898 
0.037876 -0.014508 0.182313 0.000403671 -0.000600321 0.00032137 
0.04458 -0.006422 0.168643 0.000136827 -0.00023322 -0.000525331 
0.013489 0.014267 0.194469 -1.87748e-005 5.31043e-005 0.000694133 
0.042794 -0.003126 0.188911 0.000349602 -0.000428214 0.000902162 
0.014849 0.014728 0.160181 -2.42352e-005 5.05665e-005 -0.000997648 
0.037179 0.006411 0.193293 0.000270731 7.53256e-005 0.000627214 
0.0086 0.03708 0.172737 -0.000250096 0.000495065 -0.000311911 
0.011673 0.024185 0.192558 -0.000115018 0.000175688 0.000756672 
0.027889 0.015827 0.194923 0.000158411 3.06138e-005 0.00099599 
0.048896 -0.007063 0.173319 0.000446415 -0.00039005 -0.000203517 
0.044114 0.014482 0.163358 0.00028546 -0.000125253 -0.0011718 
0.004417 0.030649 0.188166 -0.000136688 0.000242755 0.000341534 
0.051282 -0.004592 0.185184 0.000329566 -0.0003034 0.000271901 
0.041239 0.002902 0.167456 0.000345253 -0.000187816 -0.000640052 
0.021548 0.042254 0.172367 -0.000345535 0.000644779 -0.000756521 
0.054974 -0.000574 0.180421 0.000362617 -0.000124761 -0.000217349 
0.034911 0.024929 0.164154 0.000250608 0.000260059 -0.00123925 
0.027284 0.034291 0.164562 -3.45787e-005 0.00045842 -0.00103114 
0.010216 0.03683 0.189128 -0.00033373 0.000540519 0.000667974 
0.023773 0.026529 0.196317 5.34594e-005 0.000229835 0.00106984 
0.049215 0.005895 0.188088 0.000335609 -2.98423e-005 0.00071288 
0.051812 0.009011 0.170178 0.000618502 -0.000132284 -0.000853711 
0.038783 0.015311 0.187359 0.000250081 -1.03196e-005 0.000733036 
0.054155 0.004873 0.182182 0.00044455 -0.000151985 8.04423e-005 
0.022725 0.03706 0.194628 -1.17414e-005 0.000200268 0.000309102 
0.032616 0.04261 0.186234 0.000196786 0.000577658 0.00088233 
0.037338 0.02515 0.193635 0.000178443 -7.85445e-005 0.000397359 
0.030328 0.046893 0.185033 -0.000154089 0.000941969 0.000216084 
0.05255 0.019423 0.187853 0.000175159 -3.93202e-005 0.000664929 
0.048347 0.033743 0.16894 0.00072779 0.000594984 -0.00123534 
0.060579 0.01804 0.182327 0.000675467 4.90044e-005 0.000266134 
0.058342 0.015446 0.174006 0.000721001 6.85364e-005 -0.000400809 
0.030837 0.047912 0.175275 0.000219152 0.00081986 -0.000478101 
0.045583 0.029076 0.189596 0.000169907 0.000140511 0.000880693 
0.050332 0.035568 0.188943 0.000295321 0.000241129 0.000454715 
0.050938 0.038205 0.181101 0.00087917 0.000865035 -9.45184e-005 
-0.018549 0.01119 0.168889 -0.000371451 -0.000318038 8.10007e-006 
-0.022907 0.023652 0.17241 -0.000562102 -3.37223e-005 0.000237407 
-0.017674 0.020146 0.162147 -0.000456976 -6.94255e-005 -0.000560483 
-0.016657 0.021488 0.178004 -0.000153748 2.66054e-005 0.00033591 
-0.009783 0.011112 0.177533 -0.000191812 -0.000260811 0.000484367 
-0.020612 0.032331 0.168156 -0.000417527 0.000278754 -0.000203009 
-0.009079 0.007765 0.164336 -0.000106949 -0.000424169 -0.000615554 
-0.011849 0.039335 0.174352 -0.000294317 0.000346587 0.000492813 
-0.00627 0.005288 0.170725 0.000116225 -0.000625367 0.000285805 
-0.011134 0.025414 0.177659 -5.06682e-005 5.62923e-005 0.000496208 
0.006946 0.010911 0.162607 0.000211428 -0.000359013 -0.000224607 
-0.00601 0.043446 0.168741 -0.0002034 0.00073389 -0.000184444 
-0.008777 0.018007 0.159384 -0.000103056 -0.000153081 -0.000715246 
-0.010523 0.034939 0.161804 -0.00030594 0.000343262 -0.000678319 
-0.002281 0.019219 0.179298 0.000150492 -0.000206465 0.00125668 
0.010991 0.022469 0.159511 0.00026747 -0.000263531 -0.000937845 
0.010688 0.014428 0.172293 0.000518203 -0.000655332 0.000351708 
-0.005005 0.028624 0.157651 -3.27013e-005 5.14098e-005 -0.000586399 
-0.004801 0.034463 0.176612 -7.1747e-005 7.2814e-005 0.000434938 
0.005837 0.036793 0.160216 9.87673e-005 0.000391358 -0.000856528 
0.003907 0.039249 0.177824 5.24827e-005 0.000316095 0.00078441 
0.017505 0.022279 0.163701 0.000329715 -0.000107201 -0.000304962 
0.013579 0.022391 0.177676 0.00011781 -8.49408e-005 0.000276207 
0.018737 0.032752 0.174495 0.000653628 0.000172138 0.000644514 
0.010099 0.043076 0.172205 9.65672e-005 0.000318925 0.000177413 
0.017274 0.03216 0.162781 0.000314728 0.000134746 -0.000246199 
0.019178 0.021905 0.169164 0.000174728 -8.4168e-005 6.1722e-005 
0.010588 0.043531 0.16649 0.000220152 0.000402389 -0.000214612 
-0.037432 -0.064512 0.208388 -4.62991e-005 -0.000486802 8.05945e-006 
-0.049225 -0.058574 0.211908 -0.000380952 -0.000414758 0.000237426 
-0.043024 -0.05746 0.201645 -0.000280484 -0.000367378 -0.000560507 
-0.043225 -0.055789 0.217503 -0.000129101 -8.76909e-005 0.00033596 
-0.031072 -0.058479 0.217031 4.31765e-005 -0.00032087 0.000484404 
-0.053603 -0.050737 0.207655 -0.000493968 -8.94932e-005 -0.000203032 
-0.028241 -0.060397 0.203835 0.000217695 -0.000379408 -0.000615548 
-0.052164 -0.03961 0.213851 -0.000452457 4.48799e-005 0.000492852 
-0.0245 -0.060228 0.210224 0.000518032 -0.000369117 0.000285786 
-0.041979 -0.049128 0.217158 -7.55338e-005 5.30852e-006 0.000496235 
-0.018899 -0.047002 0.202105 0.000401481 -0.000111389 -0.000224612 
-0.050819 -0.032598 0.20824 -0.000656109 0.000386656 -0.00018448 
-0.035138 -0.05282 0.198883 3.22218e-005 -0.000181684 -0.000715212 
-0.048156 -0.041853 0.201303 -0.000458518 3.44315e-005 -0.000678337 
-0.031307 -0.047435 0.218797 0.000251676 -4.39756e-005 0.00125669 
-0.024018 -0.035878 0.19901 0.000375449 -3.77734e-006 -0.000937848 
-0.01865 -0.041873 0.211792 0.000827988 -0.000111466 0.000351679 
-0.0398 -0.042562 0.19715 -5.92375e-005 1.42656e-005 -0.000586408 
-0.043709 -0.03822 0.21611 -0.000102189 2.54324e-006 0.000434951 
-0.037675 -0.029154 0.199715 -0.000200823 0.000350117 -0.000856533 
-0.040769 -0.028728 0.217323 -0.000181796 0.000263834 0.000784419 
-0.019199 -0.03149 0.2032 0.000311643 0.00015188 -0.000304963 
-0.022101 -0.034137 0.217174 0.000143747 2.07427e-005 0.000276199 
-0.025588 -0.0231 0.213993 0.000350638 0.000577883 0.000644506 
-0.038974 -0.021674 0.211704 -0.000152069 0.000296502 0.000177418 
-0.026229 -0.024543 0.202279 0.000132792 0.000315544 -0.000246208 
-0.017736 -0.030597 0.208663 0.000184151 6.08197e-005 6.17309e-005 
-0.038938 -0.021007 0.205989 -0.000121152 0.000442402 -0.000214627 
0.027496 0.028008 0.165579 -0.000486784 4.64333e-005 8.09467e-006 
0.033437 0.039799 0.169099 -0.000414618 0.000381062 0.00023744 
0.034549 0.033598 0.158837 -0.000367281 0.000280597 -0.000560495 
0.036221 0.033798 0.174694 -8.76422e-005 0.00012913 0.000335954 
0.033528 0.021646 0.174223 -0.000320875 -4.30751e-005 0.00048437 
0.041276 0.044174 0.164846 -8.93391e-005 0.000493989 -0.000203024 
0.031608 0.018816 0.161026 -0.000379479 -0.000217595 -0.000615545 
0.052402 0.042732 0.171042 4.50153e-005 0.000452446 0.000492836 
0.031776 0.015075 0.167415 -0.000369277 -0.000517896 0.000285789 
0.042881 0.03255 0.174349 5.34162e-006 7.55388e-005 0.00049619 
0.045 0.009469 0.159297 -0.00011152 -0.000401447 -0.000224612 
0.059414 0.041385 0.165431 0.00038685 0.000655986 -0.000184477 
0.039187 0.02571 0.156074 -0.000181714 -3.21507e-005 -0.000715235 
0.050158 0.038725 0.158494 3.45513e-005 0.000458515 -0.000678339 
0.04457 0.021878 0.175988 -4.40617e-005 -0.000251642 0.00125666 
0.056126 0.014585 0.156201 -3.89496e-006 -0.000375478 -0.000937861 
0.050129 0.009219 0.168983 -0.000111736 -0.000827987 0.000351718 
0.049447 0.030369 0.154341 1.4283e-005 5.92335e-005 -0.00058642 
0.05379 0.034277 0.173301 2.57341e-006 0.000102191 0.000434945 
0.062854 0.02824 0.156906 0.0003502 0.000200709 -0.000856515 
0.063281 0.031334 0.174514 0.00026388 0.000181737 0.000784426 
0.060513 0.009765 0.160391 0.000151811 -0.000311692 -0.000304982 
0.057867 0.012668 0.174366 2.06835e-005 -0.00014376 0.000276208 
0.068904 0.016151 0.171185 0.000577766 -0.000350775 0.000644531 
0.070334 0.029537 0.168895 0.000296555 0.000151981 0.000177402 
0.067462 0.016793 0.159471 0.000315512 -0.000132885 -0.000246186 
0.061406 0.008301 0.165854 6.0762e-005 -0.00018418 6.17307e-005 
0.071001 0.0295 0.16318 0.000442437 0.000121015 -0.000214607 
-0.023378 -0.001503 0.202021 -0.000283735 -0.000398274 8.06075e-006 
-0.030615 0.00954 0.205542 -0.000537358 -0.000168356 0.000237447 
-0.024689 0.0074 0.195279 -0.000426727 -0.000177639 -0.000560512 
-0.024026 0.008948 0.211136 -0.00015563 -1.12674e-005 0.000335969 
-0.014852 0.000536 0.210665 -0.000123216 -0.000299387 0.000484365 
-0.030482 0.018516 0.201289 -0.000472441 0.000169788 -0.000203042 
-0.013361 -0.002541 0.197468 -1.44047e-006 -0.000437432 -0.000615503 
-0.023666 0.027428 0.207484 -0.000369223 0.000265348 0.000492884 
-0.010038 -0.004267 0.203857 0.00026367 -0.000578843 0.000285768 
-0.019613 0.01409 0.210791 -6.27526e-005 4.2403e-005 0.000496199 
0.001431 0.004378 0.195739 0.000291778 -0.000297392 -0.000224594 
-0.018992 0.032826 0.201873 -0.000374451 0.000663151 -0.000184503 
-0.015539 0.00747 0.192516 -6.30754e-005 -0.000173421 -0.000715225 
-0.021319 0.02348 0.194936 -0.000379745 0.00025932 -0.000678368 
-0.009528 0.010214 0.21243 0.000195857 -0.000164062 0.00125669 
0.002568 0.01657 0.192643 0.000323143 -0.000191222 -0.000937817 
0.004214 0.008693 0.205425 0.000660981 -0.000510975 0.000351699 
-0.01444 0.018685 0.190783 -4.41397e-005 4.20016e-005 -0.000586391 
-0.015651 0.0244 0.209744 -8.71992e-005 5.33542e-005 0.00043495 
-0.005889 0.029227 0.193348 1.42466e-006 0.000403625 -0.000856504 
-0.008354 0.031146 0.210956 -2.53212e-005 0.000319422 0.000784424 
0.008936 0.017957 0.196833 0.000345847 -2.44861e-005 -0.000304984 
0.005099 0.017119 0.210808 0.000134824 -5.40139e-005 0.000276219 
0.007605 0.028418 0.207627 0.000592791 0.000324757 0.000644487 
-0.003269 0.036353 0.205337 1.67827e-005 0.000332804 0.000177378 
0.006327 0.027491 0.195913 0.000272915 0.000206712 -0.000246199 
0.01065 0.017998 0.202296 0.000189876 -3.95333e-005 6.17272e-005 
-0.002905 0.036912 0.199622 0.000116564 0.000443616 -0.000214622 
3 0 1 2 
3 0 2 3 
3 4 5 6 
3 7 8 9 
3 7 9 10 
3 10 11 12 
3 10 12 7 
3 13 14 15 
3 13 15 16 
3 17 18 19 
3 20 2 1 
3 20 1 21 
3 16 9 8 
3 16 8 13 
3 21 15 14 
3 21 14 20 
3 22 23 24 
3 25 26 27 
3 3 12 11 
3 3 11 0 
3 28 29 30 
3 28 30 31 
3 29 32 33 
3 29 33 30 
3 32 34 35 
3 32 35 33 
3 36 37 38 
3 36 38 39 
3 37 28 31 
3 37 31 38 
3 34 36 39 
3 34 39 35 
3 29 28 40 
3 29 40 41 
3 42 43 44 
3 42 44 45 
3 43 29 41 
3 43 41 44 
3 28 37 46 
3 28 46 40 
3 37 47 48 
3 37 48 46 
3 47 42 45 
3 47 45 48 
3 10 9 29 
3 10 29 43 
3 42 11 10 
3 42 10 43 
3 0 11 42 
3 0 42 47 
3 37 1 0 
3 37 0 47 
3 21 1 37 
3 21 37 36 
3 34 15 21 
3 34 21 36 
3 16 15 34 
3 16 34 32 
3 32 29 9 
3 32 9 16 
3 49 50 51 
3 49 51 52 
3 52 53 54 
3 52 54 49 
3 53 55 56 
3 53 56 54 
3 55 57 58 
3 55 58 56 
3 59 58 57 
3 59 57 60 
3 60 61 62 
3 60 62 59 
3 63 62 61 
3 63 61 64 
3 51 50 63 
3 51 63 64 
3 7 12 62 
3 7 62 63 
3 59 62 12 
3 59 12 3 
3 3 2 58 
3 3 58 59 
3 56 58 2 
3 56 2 20 
3 20 14 54 
3 20 54 56 
3 49 54 14 
3 49 14 13 
3 13 8 50 
3 13 50 49 
3 63 50 8 
3 63 8 7 
3 41 40 65 
3 41 65 66 
3 45 44 67 
3 45 67 68 
3 44 41 66 
3 44 66 67 
3 40 46 69 
3 40 69 65 
3 46 48 70 
3 46 70 69 
3 48 45 68 
3 48 68 70 
3 31 30 71 
3 31 71 72 
3 30 33 73 
3 30 73 71 
3 33 35 74 
3 33 74 73 
3 39 38 75 
3 39 75 76 
3 38 31 72 
3 38 72 75 
3 35 39 76 
3 35 76 74 
3 72 71 77 
3 72 77 78 
3 71 73 79 
3 71 79 77 
3 73 74 80 
3 73 80 79 
3 76 75 81 
3 76 81 82 
3 75 72 78 
3 75 78 81 
3 74 76 82 
3 74 82 80 
3 66 65 83 
3 66 83 84 
3 68 67 85 
3 68 85 86 
3 67 66 84 
3 67 84 85 
3 65 69 87 
3 65 87 83 
3 69 70 88 
3 69 88 87 
3 70 68 86 
3 70 86 88 
3 84 83 89 
3 84 89 90 
3 86 85 91 
3 86 91 92 
3 85 84 90 
3 85 90 91 
3 83 87 93 
3 83 93 89 
3 87 88 94 
3 87 94 93 
3 88 86 92 
3 88 92 94 
3 78 77 95 
3 78 95 96 
3 77 79 97 
3 77 97 95 
3 79 80 98 
3 79 98 97 
3 82 81 99 
3 82 99 100 
3 81 78 96 
3 81 96 99 
3 80 82 100 
3 80 100 98 
3 100 99 101 
3 100 101 102 
3 99 96 103 
3 99 103 101 
3 96 98 104 
3 96 104 103 
3 98 100 102 
3 98 102 104 
3 102 101 105 
3 102 105 106 
3 101 103 107 
3 101 107 105 
3 103 104 108 
3 103 108 107 
3 104 102 106 
3 104 106 108 
3 106 105 109 
3 106 109 110 
3 105 107 111 
3 105 111 109 
3 107 108 112 
3 107 112 111 
3 108 106 110 
3 108 110 112 
3 110 109 113 
3 110 113 114 
3 109 111 115 
3 109 115 113 
3 111 112 116 
3 111 116 115 
3 112 110 114 
3 112 114 116 
3 98 96 117 
3 98 117 118 
3 96 95 119 
3 96 119 117 
3 95 97 120 
3 95 120 119 
3 97 98 118 
3 97 118 120 
3 118 117 121 
3 118 121 122 
3 117 119 123 
3 117 123 121 
3 119 120 124 
3 119 124 123 
3 120 118 122 
3 120 122 124 
3 122 121 125 
3 122 125 126 
3 121 123 127 
3 121 127 125 
3 123 124 128 
3 123 128 127 
3 124 122 126 
3 124 126 128 
3 126 125 129 
3 126 129 130 
3 125 127 131 
3 125 131 129 
3 127 128 132 
3 127 132 131 
3 128 126 130 
3 128 130 132 
3 90 89 133 
3 90 133 134 
3 89 92 135 
3 89 135 133 
3 92 91 136 
3 92 136 135 
3 91 90 134 
3 91 134 136 
3 92 89 137 
3 92 137 138 
3 89 93 139 
3 89 139 137 
3 93 94 140 
3 93 140 139 
3 94 92 138 
3 94 138 140 
3 134 133 141 
3 134 141 142 
3 133 135 143 
3 133 143 141 
3 135 136 144 
3 135 144 143 
3 136 134 142 
3 136 142 144 
3 142 141 145 
3 142 145 146 
3 141 143 147 
3 141 147 145 
3 143 144 148 
3 143 148 147 
3 144 142 146 
3 144 146 148 
3 146 145 149 
3 146 149 150 
3 145 147 151 
3 145 151 149 
3 147 148 152 
3 147 152 151 
3 148 146 150 
3 148 150 152 
3 138 137 153 
3 138 153 154 
3 137 139 155 
3 137 155 153 
3 139 140 156 
3 139 156 155 
3 140 138 154 
3 140 154 156 
3 154 153 157 
3 154 157 158 
3 153 155 159 
3 153 159 157 
3 155 156 160 
3 155 160 159 
3 156 154 158 
3 156 158 160 
3 158 157 161 
3 158 161 162 
3 157 159 163 
3 157 163 161 
3 159 160 164 
3 159 164 163 
3 160 158 162 
3 160 162 164 
3 165 166 167 
3 168 169 170 
3 171 172 173 
3 174 175 176 
3 132 129 177 
3 132 177 178 
3 129 131 179 
3 129 179 177 
3 131 132 178 
3 131 178 179 
3 114 113 180 
3 114 180 181 
3 113 115 182 
3 113 182 180 
3 115 114 181 
3 115 181 182 
3 162 163 183 
3 162 183 184 
3 163 164 185 
3 163 185 183 
3 164 162 184 
3 164 184 185 
3 150 151 186 
3 150 186 187 
3 151 152 188 
3 151 188 186 
3 152 150 187 
3 152 187 188 
3 178 177 18 
3 178 18 17 
3 177 179 19 
3 177 19 18 
3 179 178 17 
3 179 17 19 
3 181 180 169 
3 181 169 168 
3 180 182 170 
3 180 170 169 
3 182 181 168 
3 182 168 170 
3 184 183 172 
3 184 172 171 
3 183 185 173 
3 183 173 172 
3 185 184 171 
3 185 171 173 
3 187 186 175 
3 187 175 174 
3 186 188 176 
3 186 176 175 
3 188 187 174 
3 188 174 176 
3 150 149 189 
3 150 189 190 
3 149 151 191 
3 149 191 189 
3 151 150 190 
3 151 190 191 
3 114 115 192 
3 114 192 193 
3 115 116 194 
3 115 194 192 
3 116 114 193 
3 116 193 194 
3 162 161 195 
3 162 195 196 
3 161 163 197 
3 161 197 195 
3 163 162 196 
3 163 196 197 
3 130 129 198 
3 130 198 199 
3 129 132 200 
3 129 200 198 
3 132 130 199 
3 132 199 200 
3 190 189 5 
3 190 5 4 
3 189 191 6 
3 189 6 5 
3 191 190 4 
3 191 4 6 
3 193 192 23 
3 193 23 22 
3 192 194 24 
3 192 24 23 
3 194 193 22 
3 194 22 24 
3 196 195 26 
3 196 26 25 
3 195 197 27 
3 195 27 26 
3 197 196 25 
3 197 25 27 
3 199 198 166 
3 199 166 165 
3 198 200 167 
3 198 167 166 
3 200 199 165 
3 200 165 167 
3 201 202 203 
3 202 204 205 
3 201 206 204 
3 207 201 203 
3 205 204 208 
3 208 204 206 
3 203 202 209 
3 209 202 210 
3 206 201 207 
3 208 206 211 
3 202 212 210 
3 202 205 212 
3 213 205 214 
3 205 208 214 
3 214 208 215 
3 208 211 215 
3 211 206 207 
3 207 203 216 
3 209 210 217 
3 211 218 215 
3 207 219 211 
3 207 216 220 
3 210 221 217 
3 210 212 221 
3 205 222 212 
3 205 213 222 
3 214 215 223 
3 211 224 218 
3 224 211 219 
3 207 225 219 
3 203 226 216 
3 203 209 226 
3 212 222 221 
3 222 213 227 
3 227 213 214 
3 215 228 223 
3 215 218 228 
3 218 229 228 
3 218 230 229 
3 218 224 230 
3 207 220 225 
3 216 226 220 
3 226 209 231 
3 231 209 217 
3 221 222 232 
3 222 233 232 
3 222 227 233 
3 214 223 234 
3 224 235 230 
3 219 236 224 
3 225 236 219 
3 231 217 237 
3 217 238 237 
3 217 232 238 
3 221 232 217 
3 227 214 234 
3 234 223 239 
3 224 236 235 
3 236 225 240 
3 220 241 225 
3 225 241 240 
3 231 242 226 
3 227 234 239 
3 223 243 239 
3 223 228 243 
3 229 230 244 
3 244 230 235 
3 236 240 245 
3 226 242 246 
3 231 237 242 
3 238 232 247 
3 233 227 239 
3 248 228 249 
3 228 229 249 
3 229 244 249 
3 235 236 245 
3 240 241 250 
3 220 251 241 
3 241 251 250 
3 220 226 251 
3 246 251 226 
3 237 238 252 
3 238 247 253 
3 247 232 254 
3 232 233 254 
3 233 255 254 
3 243 228 248 
3 244 235 256 
3 245 240 257 
3 240 250 257 
3 237 252 242 
3 247 254 255 
3 233 239 258 
3 243 259 260 
3 243 248 259 
3 249 244 261 
3 244 256 261 
3 256 235 262 
3 235 245 262 
3 262 245 263 
3 250 251 264 
3 264 251 246 
3 252 238 265 
3 238 253 265 
3 233 266 255 
3 233 258 266 
3 258 239 260 
3 239 243 260 
3 260 259 267 
3 248 249 268 
3 261 256 269 
3 269 256 262 
3 257 263 245 
3 257 250 270 
3 270 250 264 
3 264 246 271 
3 246 242 272 
3 272 242 273 
3 252 274 242 
3 252 265 274 
3 253 275 265 
3 247 275 253 
3 247 276 275 
3 255 276 247 
3 258 260 267 
3 267 259 277 
3 259 278 277 
3 248 278 259 
3 248 268 278 
3 261 269 249 
3 249 269 268 
3 257 270 263 
3 271 246 279 
3 273 242 274 
3 255 280 276 
3 255 266 280 
3 258 281 266 
3 281 258 267 
3 269 282 268 
3 262 283 269 
3 262 263 283 
3 264 284 270 
3 264 271 284 
3 246 285 279 
3 272 285 246 
3 273 274 286 
3 265 287 274 
3 275 287 265 
3 275 288 287 
3 276 288 275 
3 276 280 288 
3 266 281 280 
3 267 277 289 
3 289 277 290 
3 277 278 290 
3 268 282 291 
3 269 292 282 
3 282 292 291 
3 269 283 292 
3 263 270 293 
3 293 270 294 
3 270 284 294 
3 271 279 284 
3 285 272 295 
3 286 274 287 
3 288 296 287 
3 281 297 280 
3 280 297 288 
3 267 289 281 
3 290 278 298 
3 278 268 298 
3 283 299 292 
3 283 263 300 
3 300 263 293 
3 293 294 301 
3 284 301 294 
3 279 302 284 
3 284 302 301 
3 279 285 302 
3 302 285 303 
3 295 303 285 
3 272 273 295 
3 304 288 297 
3 291 292 299 
3 283 300 299 
3 273 305 295 
3 273 306 305 
3 273 286 306 
3 286 287 296 
3 304 297 307 
3 297 281 307 
3 307 281 308 
3 281 289 308 
3 268 309 298 
3 310 299 300 
3 301 311 293 
3 301 302 312 
3 312 302 313 
3 302 303 313 
3 303 295 313 
3 286 314 306 
3 286 296 314 
3 296 288 304 
3 289 290 315 
3 298 316 290 
3 290 316 315 
3 298 309 316 
3 268 291 309 
3 291 299 317 
3 317 299 310 
3 310 300 318 
3 293 318 300 
3 293 311 318 
3 301 312 311 
3 296 319 314 
3 304 319 296 
3 319 304 320 
3 307 321 304 
3 304 321 320 
3 308 289 322 
3 322 289 323 
3 323 289 315 
3 309 291 317 
3 312 313 324 
3 313 295 325 
3 295 305 325 
3 314 326 306 
3 319 326 314 
3 319 320 327 
3 307 322 321 
3 308 322 307 
3 316 309 328 
3 328 309 329 
3 310 318 330 
3 318 331 330 
3 311 331 318 
3 311 312 332 
3 312 324 332 
3 313 333 324 
3 313 325 333 
3 305 306 326 
3 319 327 326 
3 315 334 323 
3 315 316 334 
3 316 328 334 
3 317 335 309 
3 317 336 335 
3 317 330 336 
3 310 330 317 
3 331 311 337 
3 337 311 332 
3 325 305 333 
3 327 320 338 
3 322 320 321 
3 322 339 320 
3 322 323 339 
3 309 335 329 
3 330 331 337 
3 305 326 340 
3 326 327 341 
3 342 334 329 
3 334 328 329 
3 330 343 336 
3 344 332 345 
3 332 324 345 
3 305 340 333 
3 340 326 341 
3 341 327 338 
3 334 342 323 
3 330 337 346 
3 332 344 337 
3 324 333 345 
3 347 340 341 
3 339 323 342 
3 342 329 348 
3 336 343 335 
3 330 346 343 
3 320 339 338 
3 339 342 349 
3 342 348 349 
3 329 350 348 
3 329 335 350 
3 335 343 350 
3 337 344 346 
3 340 345 333 
3 347 351 340 
3 340 351 345 
3 347 341 338 
3 338 339 349 
3 350 343 346 
3 348 352 349 
3 348 350 352 
3 353 346 344 
3 347 338 351 
3 352 354 349 
3 344 345 353 
3 338 349 355 
3 355 349 354 
3 346 352 350 
3 346 353 352 
3 351 338 355 
3 352 353 354 
3 351 353 345 
3 351 355 353 
3 202 201 204 
3 353 355 354 
3 356 357 358 
3 357 356 359 
3 360 356 358 
3 361 356 360 
3 362 359 363 
3 359 356 363 
3 356 361 363 
3 358 357 364 
3 360 365 361 
3 357 366 364 
3 359 366 357 
3 359 362 366 
3 363 367 368 
3 363 361 367 
3 361 369 367 
3 361 365 369 
3 360 370 365 
3 360 358 364 
3 366 371 372 
3 366 362 371 
3 363 368 362 
3 365 373 369 
3 364 374 375 
3 364 372 374 
3 366 372 364 
3 362 368 371 
3 370 376 365 
3 364 377 360 
3 368 378 371 
3 368 367 378 
3 365 376 379 
3 360 377 380 
3 364 375 377 
3 374 372 381 
3 373 365 379 
3 370 360 376 
3 380 376 360 
3 372 371 381 
3 371 382 381 
3 378 367 383 
3 379 376 384 
3 378 383 371 
3 367 369 385 
3 369 373 385 
3 373 379 386 
3 371 387 382 
3 383 367 388 
3 384 386 379 
3 376 380 389 
3 387 371 383 
3 383 388 390 
3 367 385 388 
3 391 377 375 
3 382 392 381 
3 382 387 392 
3 393 387 383 
3 373 394 385 
3 373 386 394 
3 376 395 384 
3 376 389 395 
3 374 396 375 
3 381 396 374 
3 381 392 396 
3 387 393 392 
3 383 390 393 
3 388 385 397 
3 385 394 397 
3 386 384 398 
3 398 384 395 
3 380 377 399 
3 394 400 397 
3 394 386 398 
3 389 401 395 
3 389 380 401 
3 401 380 402 
3 399 402 380 
3 377 391 399 
3 403 396 392 
3 394 398 400 
3 375 396 403 
3 403 392 404 
3 392 393 404 
3 388 405 390 
3 406 400 398 
3 395 406 398 
3 393 390 407 
3 390 405 407 
3 388 397 405 
3 397 400 408 
3 408 400 406 
3 395 401 406 
3 404 409 403 
3 403 409 410 
3 404 393 411 
3 411 393 407 
3 405 397 408 
3 375 412 391 
3 403 412 375 
3 407 405 413 
3 406 401 414 
3 401 402 414 
3 399 391 412 
3 403 410 412 
3 408 415 405 
3 408 416 415 
3 406 416 408 
3 416 406 414 
3 404 410 409 
3 405 415 413 
3 399 412 417 
3 418 407 413 
3 399 417 402 
3 407 418 411 
3 404 411 418 
3 418 413 419 
3 416 420 415 
3 413 415 419 
3 416 414 420 
3 417 414 402 
3 412 420 417 
3 417 420 414 
3 410 404 418 
3 412 410 420 
3 410 418 419 
3 420 419 415 
3 420 410 419 
3 421 422 423 
3 424 422 425 
3 422 421 425 
3 423 422 426 
3 423 427 421 
3 422 428 426 
3 422 424 428 
3 425 421 429 
3 421 427 429 
3 428 424 430 
3 427 431 429 
3 426 428 432 
3 424 425 430 
3 423 433 427 
3 426 434 423 
3 426 432 434 
3 434 433 423 
3 425 429 435 
3 427 433 436 
3 425 435 430 
3 435 429 437 
3 436 431 427 
3 433 434 438 
3 439 430 435 
3 433 438 436 
3 430 439 428 
3 429 431 437 
3 438 440 436 
3 438 434 440 
3 432 440 434 
3 441 428 439 
3 431 436 437 
3 432 428 441 
3 439 435 441 
3 442 437 436 
3 435 437 443 
3 436 440 442 
3 441 435 444 
3 444 435 443 
3 441 445 432 
3 442 440 446 
3 437 442 447 
3 432 445 448 
3 444 443 437 
3 432 448 440 
3 442 444 447 
3 437 447 444 
3 442 446 444 
3 448 446 440 
3 445 444 448 
3 448 444 446 
3 445 441 444 
3 449 450 451 
3 452 450 453 
3 450 449 453 
3 451 450 454 
3 451 455 449 
3 450 456 454 
3 450 452 456 
3 453 449 457 
3 449 455 457 
3 456 452 458 
3 455 459 457 
3 454 456 460 
3 452 453 458 
3 451 461 455 
3 454 462 451 
3 454 460 462 
3 462 461 451 
3 453 457 463 
3 455 461 464 
3 453 463 458 
3 463 457 465 
3 464 459 455 
3 461 462 466 
3 467 458 463 
3 461 466 464 
3 458 467 456 
3 457 459 465 
3 466 468 464 
3 466 462 468 
3 460 468 462 
3 469 456 467 
3 459 464 465 
3 460 456 469 
3 467 463 469 
3 470 465 464 
3 463 465 471 
3 464 468 470 
3 469 463 472 
3 472 463 471 
3 469 473 460 
3 470 468 474 
3 465 470 475 
3 460 473 476 
3 472 471 465 
3 460 476 468 
3 470 472 475 
3 465 475 472 
3 470 474 472 
3 476 474 468 
3 473 472 476 
3 476 472 474 
3 473 469 472 
3 477 478 479 
3 480 478 481 
3 478 477 481 
3 479 478 482 
3 479 483 477 
3 478 484 482 
3 478 480 484 
3 481 477 485 
3 477 483 485 
3 484 480 486 
3 483 487 485 
3 482 484 488 
3 480 481 486 
3 479 489 483 
3 482 490 479 
3 482 488 490 
3 490 489 479 
3 481 485 491 
3 483 489 492 
3 481 491 486 
3 491 485 493 
3 492 487 483 
3 489 490 494 
3 495 486 491 
3 489 494 492 
3 486 495 484 
3 485 487 493 
3 494 496 492 
3 494 490 496 
3 488 496 490 
3 497 484 495 
3 487 492 493 
3 488 484 497 
3 495 491 497 
3 498 493 492 
3 491 493 499 
3 492 496 498 
3 497 491 500 
3 500 491 499 
3 497 501 488 
3 498 496 502 
3 493 498 503 
3 488 501 504 
3 500 499 493 
3 488 504 496 
3 498 500 503 
3 493 503 500 
3 498 502 500 
3 504 502 496 
3 501 500 504 
3 504 500 502 
3 501 497 500 
3 505 506 507 
3 508 506 509 
3 506 505 509 
3 507 506 510 
3 507 511 505 
3 506 512 510 
3 506 508 512 
3 509 505 513 
3 505 511 513 
3 512 508 514 
3 511 515 513 
3 510 512 516 
3 508 509 514 
3 507 517 511 
3 510 518 507 
3 510 516 518 
3 518 517 507 
3 509 513 519 
3 511 517 520 
3 509 519 514 
3 519 513 521 
3 520 515 511 
3 517 518 522 
3 523 514 519 
3 517 522 520 
3 514 523 512 
3 513 515 521 
3 522 524 520 
3 522 518 524 
3 516 524 518 
3 525 512 523 
3 515 520 521 
3 516 512 525 
3 523 519 525 
3 526 521 520 
3 519 521 527 
3 520 524 526 
3 525 519 528 
3 528 519 527 
3 525 529 516 
3 526 524 530 
3 521 526 531 
3 516 529 532 
3 528 527 521 
3 516 532 524 
3 526 528 531 
3 521 531 528 
3 526 530 528 
3 532 530 524 
3 529 528 532 
3 532 528 530 
3 529 525 528 
