ply
format ascii 1.0
comment VCGLIB generated
element vertex 311
property float x
property float y
property float z
property float nx
property float ny
property float nz
element face 400
property list uchar int vertex_indices
end_header
-0.04 0.3625 9.7645 -176536 -174666.6 28751.4 
0.1905 0.396 9.775 171181.5 -178102.3 38425.15 
-0.1755 1.1465 12.7505 -79731.26 -231364.3 51122.38 
0.2025 0.825 11.29 192057.9 -157066.5 30722.56 
0.32 1.2415 12.8975 102839.1 -222297.4 50079.81 
-0.1755 1.1465 12.7505 23428.55 -242057.8 57958.37 
0.32 1.2415 12.8975 29390.13 -241615.8 57079.54 
0.3325 2.1405 16.6965 20584.03 -241122.5 62739.5 
0.485 2.7455 17.531 141370.1 201552.8 -43485.35 
-0.033 2.7815 18.798 72370.84 -125418.1 203796 
0.4515 2.2125 17.034 193574.2 -129470.6 90919.86 
0.0245 2.0075 15.1825 -20051.64 241658.2 -60821.48 
0.2285 1.001 11.2385 -30243.79 240078.1 -62831.74 
-0.1485 1.354 12.692 -14356.14 241657.9 -62413.12 
-0.1485 1.354 12.692 -129511.9 200555.9 -74189.19 
0.2285 1.001 11.2385 149353.3 183500.8 -80753.31 
-0.0685 0.8715 11.248 -192367 149050.5 -57261.86 
0.3475 1.448 12.837 -46008.01 237518.5 -62993.91 
0.2145 0.4965 9.8325 195114 152557.3 -34012.18 
-0.0505 0.2425 8.016 -172058.4 179841.3 -23516.71 
0.428 1.254 12.4455 248045.4 -15992.96 -26790.22 
0.3475 1.448 12.837 147468.5 191301.5 -64473.24 
-0.2405 1.1615 12.402 -247406.6 -5502.256 -35492.44 
-0.315 1.674 14.966 16968.55 -242349.3 58982.25 
-0.293 2.122 16.795 17728.13 -240064.2 67490.24 
-0.1485 1.354 12.692 -63417.67 229547.4 -76067.1 
-0.297 1.8795 14.923 -88596.77 231507.9 -32476.39 
0.0245 2.0075 15.1825 -30169.18 241116.4 -58760.07 
-1.0545 2.498 17.902 -124708.9 216260.1 -13388.47 
-0.01 2.6315 17.8725 -63148.02 235651 -54598.38 
0.345 2.344 16.6355 397.0571 243534.4 -56487.63 
-0.01 2.6315 17.8725 397.0571 243534.4 -56487.63 
-0.293 2.122 16.795 -13915.98 -240143.9 68097.64 
0.345 2.344 16.6355 33658.74 244648.8 -38911.38 
0.428 1.254 12.4455 216051.3 -10220.64 -125369 
1.3535 1.75 14 228482.9 143.0003 -101467 
0.32 1.2415 12.8975 69950.95 -236378 41621.28 
0.3475 1.448 12.837 12905.69 239110.6 -71830.39 
1.399 2.0835 15.479 129437.1 209978.6 -40682.2 
0.3325 2.1405 16.6965 30081.95 -242358.7 53454.21 
1.154 2.3395 16.766 162846.8 3672.758 189650.8 
-0.2405 1.1615 12.402 -197008.4 -51182.64 -145148.4 
-0.1755 1.1465 12.7505 -29822.6 -246521.2 28947.17 
-1.179 1.368 13.603 -228148.1 -41758.25 -93299.2 
-0.315 1.674 14.966 -69508.46 -223139.2 88755.18 
-1.143 1.7225 15.015 -42833.77 44330.58 242281 
-0.033 2.7815 18.798 18950.91 -237496.8 75737.38 
-0.1075 -0.1455 6.1795 -215573.6 -125372.7 17599.22 
0.163 -0.117 6.1925 128873.7 -212912.3 23662.66 
0.181 -0.229 4.455 188194.8 158179 -45410.69 
0.197 0.256 7.826 184015.4 167662.8 -22968.67 
-0.0935 0.0035 6.1655 -154067.6 194965.3 -27417.74 
-0.1045 -0.3105 4.449 -174835.7 -178639.7 -4514.063 
-1.1105 1.9865 16.0225 -229828.2 -14058.57 -97372.45 
2.168 -1.1095 6.466 -146138.4 -202665.6 -8380.897 
3.9915 -2.4045 8.0435 -81479.94 -189339 -141463 
3.041 -1.6475 7.5805 -118686 97831.52 197085.4 
3.9955 -2.3715 8.2545 -169509.4 -48862.45 177141.4 
4.981 -3.4345 8.603 -175863.6 -177639.3 4037.368 
4.1755 -2.2805 8.221001 102157.7 210976.8 86905.68 
5.1945 -3.2635 8.383 173329.8 139794.6 -113641 
4.171 -2.3135 8.01 126677.4 35096.59 -212652.5 
3.234 -1.613 7.3735 184275.3 129290.8 -108750 
4.863 -3.0375 8.267501 -2031.417 -95648.96 -230970.1 
4.9315 -2.9915 8.862 -18223.66 132343.3 211312.9 
7.3295 -6.785 9.665 -123373.2 -118992.3 181988.8 
6.6855 -6.0205 8.733 -218914.7 -120720.9 -1686.878 
7.555 -7.513 9.278 247022 8390.364 -37546.95 
6.916 -6.1885 8.467 179857.6 6565.449 -173517 
6.9785 -5.916 8.895 226510.2 90547.52 -54720.16 
7.1595 -7.134 8.105499 -169323.8 -16761.86 -183162.6 
4.981 -3.4345 8.603 -209418.2 -130544.7 -40026.94 
4.863 -3.0375 8.267501 -87418.51 74276.33 -222128.5 
5.5645 -4.0765 7.644 83297.52 85994.04 -219468.8 
5.1945 -3.2635 8.383 180054.8 154166.4 -79454.55 
5.1945 -3.2635 8.383 193293.7 158132.8 -11472.89 
4.9315 -2.9915 8.862 -43558.26 147587.2 197029.7 
5.909 -4.03 9.856 -22060.21 122325.2 216909.9 
4.981 -3.4345 8.603 -202291 -109714.8 97678.35 
6.0655 -4.938 8.805 -196311.3 -130394.7 83421.29 
5.909 -4.03 9.856 -85518.97 -18788.74 234165.6 
6.0655 -4.938 8.805 -213840.5 -128153.8 18678.54 
6.865 -5.275 9.8805 218858.6 111347.3 46933.26 
6.335 -4.8285 8.7495 206791 130962.7 -50855.19 
6.335 -4.8285 8.7495 203766.8 142744.1 -24560.8 
2.391 -1.0515 6.361 198230 68609.88 -136005.8 
2.306 -0.9645 6.5025 17105.53 226815 103742 
0.558 -0.0555 4.3465 -15010.74 231197 93928.99 
0.6015 -0.09999999 4.197 -4916.553 -221685.9 -115460.9 
6.709 -6.078 7.883 -95670.09 -209875.6 -96433.9 
2.004 0.3495 8.875501 199568.9 -133540.3 -69564.84 
2.7755 0.5915 10.2355 167602.5 -152114.2 -106163.6 
1.848 0.302 9.193001 -184246.4 -119233.3 119735.9 
3.3105 0.8285 11.3945 -188166.5 -80690.63 143465.7 
3.9185 0.8255 11.4145 86348.32 -231557 -37753.86 
3.937 1.077 11.214 20057.52 229010.2 -98244.91 
2.766 0.7600001 10.236 -21102.04 236909.8 -76996.76 
3.5905 0.9945 11.523 -104753.8 225498.4 26021.82 
1.991 0.503 9.0815 35849.45 240557.6 -57852.35 
3.628 0.9285001 10.8945 159451.2 3454.323 -192518.6 
5.519 1.184 12.861 -5218.818 -241196.3 65552.44 
3.9185 0.8255 11.4145 -5218.818 -241196.3 65552.44 
7.1495 1.3425 13.574 -5218.818 -241196.3 65552.44 
3.5905 0.9945 11.523 -54669.34 243919.5 3820.211 
5.5155 1.405 12.8605 -54669.34 243919.5 3820.211 
3.937 1.077 11.214 -54669.34 243919.5 3820.211 
7.023 1.449 12.068 138409.1 -84520.16 -190261.1 
7.255 1.5985 13.3815 -18052.9 248937 -14300.88 
8.2865 1.6405 13.773 26040.79 246510.7 -32471.25 
7.711 1.8005 14.3075 -16992.73 244013.3 51660.29 
8.505 1.547 13.209 203026.2 -6089.973 -145750.8 
9.0645 1.532 14.531 113759 4516.941 222572.5 
3.9185 0.8255 11.4145 38862.71 -246802.1 -8855.759 
3.628 0.9285001 10.8945 54725.78 -134312 -203630.5 
3.937 1.077 11.214 -69083.03 239920.3 -12876.9 
5.4235 1.501 11.139 -19446.16 242243.4 -58651.73 
5.5155 1.405 12.8605 -46850.63 236819.3 64974.13 
7.1495 1.3425 13.574 28755.75 -248336.2 -1511.386 
3.5905 0.9945 11.523 -107149.9 222606.7 38277.69 
3.3105 0.8285 11.3945 -216420 -72821.73 101781.2 
3.9755 0.9445 12.8915 -178528.5 132119.9 114769 
5.3585 1.2215 13.622 165501 -165969.5 86968.8 
5.519 1.184 12.861 39919.08 -222084.2 107634.2 
6.388 1.361 14.125 -146753.9 -2134.807 202382.7 
1.2275 0.2315 7.466 -188093.7 160696.6 36019.48 
0.259 -0.2585 4.164 -61440.11 -239003.5 40030.56 
0.4665 -0.145 4.1375 45133.57 240278.9 -52240.26 
1.4175 0.284 7.403 62207.78 236698.7 -51028.8 
0.6905 -0.6325 7.5815 -237390.5 47638.34 62260.39 
0.8945 -0.712 7.5455 17315.56 -245850.3 -41926.37 
1.602 -1.1645 10.774 -116739.9 -221048.3 -3078.629 
1.7905 -1.1635 10.7065 171499 -156032.7 -93498.08 
2.361 -1.391 11.861 118814.3 -197142.5 -97560.39 
1.602 -1.1645 10.774 -14217.58 -244242.6 -51414.18 
2.361 -1.391 11.861 34922.08 -236344.7 -73631.91 
3.1995 -1.943 14.0305 -24196.13 -244278 -47358.61 
2.09 -1.453 12.2245 -53171.47 -242040.4 -33004.43 
5.4275 -2.844 17.2935 110604.4 208319 82884.84 
4.55 -2.8015 17.4745 -103203.9 -174375.5 146431.5 
5.2825 -2.559 15.878 68717.74 -225654.1 -82813.87 
2.1805 -1.25 12.2565 7250.683 246080.3 43496.53 
1.867 -0.9895 10.734 6354.828 246553.7 40876.86 
1.6775 -0.9905 10.801 12688.46 246522.7 39567.38 
2.4535 -1.188 11.894 4529.136 245792.3 45449.79 
1.867 -0.9895 10.734 229935.7 47086.38 -86095.79 
1.3955 -0.764 9.1905 178836.3 172569 -27157.83 
1.6775 -0.9905 10.801 -102269.9 220314.3 59182.15 
2.4535 -1.188 11.894 207798.6 -74177.42 -117547.7 
1.6775 -0.9905 10.801 -232193.5 64003.73 67005.26 
1.602 -1.1645 10.774 -218821.4 81024 89734.75 
2.09 -1.453 12.2245 -178207.7 -175211.5 6557 
2.361 -1.391 11.861 63912.13 -192116.5 -146651 
2.9345 -1.614 12.8655 81116.62 -221060.3 -83978.9 
3.1995 -1.943 14.0305 -12543.12 -242753 -58426.86 
4.043 -1.727 13.4195 126542 203671.3 -70746.9 
2.989 -1.418 12.9515 9039.048 245040.6 48717.66 
2.7675 -2.0885 15.413 -43549.38 -243038.8 -39186.61 
2.7675 -2.0885 15.413 -207857.4 53878.17 128033.1 
3.7535 -2.3225 16.908 -48824.18 210909.4 125033.9 
4.8705 -2.487 16.618 58820.08 235626.7 59331.85 
2.4535 -1.188 11.894 107848.5 171828.4 -146095 
3.4255 -1.4295 12.3275 223502 -72385.48 -85482.3 
2.989 -1.418 12.9515 77261.7 234924.3 36622.6 
4.0065 -2.1295 15.7315 33280.75 241193.1 56730.07 
1.9035 -1.624 13.685 -148793.2 185657.9 76757.89 
2.1805 -1.25 12.2565 -20480.96 241980 59382.09 
0.1565 -0.2015 4.4405 -248798.1 13296.94 20560.41 
0.3085 -0.2915 4.499 166267.1 -173629.3 -68615.9 
-2.51 -0.052 7.6295 187064.2 100228.3 132141.3 
-3.382 0.469 8.1255 59781.27 207927.5 -125269.2 
-4.122 0.7615 8.9545 152385 4364.216 198140.8 
-4.192 0.884 8.398 -37000.95 95043.47 -228249.2 
-4.4215 1.201 8.758 132023.2 210603.8 -26757.14 
-4.48 0.89 8.960999 -113941.2 -220190.3 32150.92 
-4.5215 0.975 8.548 -153045.3 -166174.9 -107065.8 
-3.442 0.2565 8.301 -60224.82 -225890.4 88580.59 
-3.489 0.3075 8.1015 -153190.1 -109177.8 -164660.3 
-2.6115 -0.1995 7.606 -15048.35 -241678 62171.73 
-2.689 -0.143 7.438 -181768.3 -20228.33 -170443.9 
-5.1315 1.3915 10.019 167611.4 172449.2 68320.81 
-4.4215 1.201 8.758 167611.4 172449.2 68320.81 
-6.9175 3.0515 9.4445 154947.4 187118.6 58974.29 
-5.2755 1.774 7.9435 10858.07 41188.12 -246344.6 
-4.5215 0.975 8.548 -132600.5 -192390.6 -88898.74 
-7.0735 2.87 9.217999 -155963 -181985 -71112.94 
-4.5215 0.975 8.548 -152504.8 -196498 -25117.23 
-4.48 0.89 8.960999 -152504.8 -196498 -25117.23 
-7.0735 2.87 9.217999 -152504.8 -196498 -25117.23 
-7.5805 3.222 10.177 -135117.4 -171899.3 121218.5 
-6.9175 3.0515 9.4445 147775.8 200893.2 17442.97 
-8.336 3.889 10.0815 -150854.8 60164.04 190060.9 
-8.0535 3.8425 8.9165 30923.69 65624.28 -239243 
-4.192 0.884 8.398 83591.62 -18195.37 -234907.2 
-4.122 0.7615 8.9545 179033.9 156502.4 77161.29 
-4.122 0.7615 8.9545 -81161.81 -229080.6 58607.73 
-5.1315 1.3915 10.019 -72615 -204402.1 124285.4 
-4.48 0.89 8.960999 -129830 -212863.8 18254.05 
-0.5875 -0.2905 4.055 205383.4 -104756.3 96663.28 
-2.002 -0.019 6.406 -22763.4 247458.5 -27315.63 
-1.94 -0.2175 6.5125 149061.7 -182080.1 84424.41 
-1.581 -0.2755 5.5115 -130029.9 -202871.6 -66598.51 
-0.672 -0.3005 3.8785 -197435.9 69535.73 -136689 
-4.4215 1.201 8.758 157968.1 191259.7 -31077.76 
-7.226 3.1855 9.0385 19530.02 64595.04 -240719.9 
-1.641 -0.556 8.5225 -206827.5 120647.4 -71879.32 
-2.1365 -0.757 9.901501 -3172.515 243370.6 57102.77 
-1.455 -0.642 8.872 226309.5 -31943.41 101309.6 
-2.246 -0.8165 9.726 -186149 112467.5 -123286.7 
-3.1715 -1.141 10.7065 -115485.4 220039.4 -27309.21 
-2.6435 -1.0875 10.766 208852.2 -19523.64 136013.2 
-3.103 -1.4025 10.5215 17575.97 -228827.3 -99142.23 
-2.1855 -0.993 9.739 9003.362 -233904.9 -87792.29 
-2.8315 -1.282 10.8595 150929.2 -195932.7 36479.91 
-1.5845 -0.714 8.7395 14741.8 -246368.1 -39817.97 
-2.8815 -1.209 10.24 -147884 -41734.21 -197201.9 
-3.1715 -1.141 10.7065 -76708.8 237670.8 11331.1 
-4.689 -1.6785 11.7075 -76708.8 237670.8 11331.1 
-4.4165 -1.642 11.886 -58421.09 239737 40164.46 
-2.8315 -1.282 10.8595 92800.97 -231994.3 8165.209 
-4.3455 -1.851 11.9 92800.97 -231994.3 8165.209 
-3.103 -1.4025 10.5215 92800.97 -231994.3 8165.209 
-4.689 -1.6785 11.7075 -73673.31 238699.1 9746.403 
-6.811 -2.4365 12.594 -98873.25 229405.1 -9868.182 
-6.6465 -2.4305 13.704 -65366.82 216269 107027.8 
-7.562 -2.7735 13.3295 -236861.8 -54632.33 -58410.97 
-6.804 -2.507 12.067 -179405.6 107247.5 -137155.5 
-6.7495 -2.6275 12.607 59759.55 -242745.9 -1797.563 
-3.1715 -1.141 10.7065 -75486.78 237883.4 -14603.09 
-2.8815 -1.209 10.24 -5236.676 -3881.84 -249915 
-4.281 -1.7675 10.278 31136.74 -212518 -127932.2 
-3.103 -1.4025 10.5215 81493.78 -231609.5 -47072.48 
-4.3455 -1.851 11.9 78802.52 -230751.3 55172.67 
-2.6435 -1.0875 10.766 200421.5 114021.4 96593.89 
-3.1855 -1.281 12.119 202323.4 -83269.74 120960.4 
-2.8315 -1.282 10.8595 150115.5 -195376.8 42347.14 
-4.4165 -1.642 11.886 -77804.42 212922.3 105406.8 
-4.297 -1.6795 12.6435 -199168.1 122818.4 88021.14 
-6.804 -2.507 12.067 -93560.45 231155.1 -17714.4 
-0.4675 -0.298 4.0145 7120.396 -221540.7 -115624.6 
-0.381 -0.1655 4.1965 194324.3 156086.2 -19369.5 
-0.98 -0.4475 7.271 223347.6 -102446.7 46049.23 
-1.1445 -0.532 7.1835 53592.07 -243993.2 -9758.294 
-0.345 -0.2875 4.3165 239077.6 -71086.55 -16988.52 
-5.1845 -1.964 13.033 159929 60872.46 182256.1 
-0.8865 0.09 8.934 103794.2 227276.2 8504.261 
-1.433 0.255 10.3105 -80657.82 230611.8 -53033.59 
-1.2645 0.2115 10.4125 208769 125398.4 56486.96 
-1.951 0.305 11.139 -211294.3 94163.27 -94805.03 
-1.7855 0.145 11.773 1259.427 -248759.7 24840.37 
-1.513 0.08 10.3105 -194850.1 -145627.5 -57672.43 
-0.962 -0.0675 9.139001 147750.2 -195365.2 50023.68 
-0.803 -0.155 7.3195 -210837.1 -128848.9 -38022.54 
-1.2645 0.2115 10.4125 19814 246542.9 -36387.23 
-2.378 0.582 12.3165 36606.61 245783.8 -27392.21 
-1.692 0.35 11.773 81089.86 236479.3 1406.49 
-1.692 0.35 11.773 94988.78 231075.5 9014.646 
-2.378 0.582 12.3165 26218.46 248452.8 -9154.317 
-1.792 0.3235 13.506 165715.1 184471.5 31761.33 
-1.951 0.305 11.139 -196249.6 7892.772 -154673.3 
-4.752 1.421 16.411 68176.05 240328.2 -9716.79 
-4.0395 1.204 16.043 68176.05 240328.2 -9716.79 
-4.0395 1.204 16.043 100345.1 228189.4 18986.43 
-1.7855 0.145 11.773 -73516.88 -238762.6 -9366.347 
-2.487 0.3395 12.321 -65317.14 -241314.6 -990.1017 
-3.3785 0.8425 16.3515 171465.1 151942.8 100065.5 
-2.3685 0.48 14.8885 49479.86 -236334.1 64791.82 
-4.0895 1.1275 16.927 12459.47 -516.7871 249688.8 
-4.752 1.421 16.411 -225763.1 107320.9 -3646.599 
-4.234 1.072 15.761 -133782 -211115.4 -5717.591 
-2.487 0.3395 12.321 -168539 -183577.4 -19848.11 
-3.4545 0.7005 14.964 -90367.99 -232980.9 7317.011 
-3.3645 0.795 12.6295 -181451 -134466.5 -107211.5 
-1.951 0.305 11.139 -112535.1 35480.41 -220401.9 
-2.815 0.5805 11.6245 -202890 94489.12 111388.9 
-1.2645 0.2115 10.4125 246371.5 -4680.467 42180.43 
-1.7855 0.145 11.773 44086.25 -244770.2 25376.82 
-2.3685 0.48 14.8885 -51846.48 -244057.3 15748.34 
-3.4545 0.7005 14.964 -68753.73 -239615.5 18903.95 
-4.234 1.072 15.761 -88417.32 -232801.9 22038.42 
-4.0895 1.1275 16.927 -88417.32 -232801.9 22038.42 
-0.5395 -0.047 7.37 218953.5 116501 31415.16 
-0.361 -0.213 4.738 -144250.1 201373.7 -33772.47 
-0.289 -0.247 5.886 181405.5 -167364.1 39765.77 
-0.0915 -0.2875 4.4145 211905.2 119562.6 -57454.36 
-0.382 -0.2895 4.21 43321.27 -46299.49 -241825.7 
-0.1485 -0.395 4.4135 23953.43 -245852.6 -38506.38 
-2.4685 0.4575 12.046 -230534.3 96284.74 9122.654 
-0.4495 -0.8845 0.345 -153977.4 -190317.6 -50697.36 
0.5455 -0.74 0.345 189147 -154976.1 -52017.74 
0.262 -0.5635 2.3375 122501.9 -214200.9 40140.75 
-0.3195 0.169 -0.2285 -164240.4 59856.14 -178724.3 
0.24 0.25 -0.2285 44310.53 121571.4 -213908.8 
-0.256 -0.566 -0.2285 -44266.74 -121597.9 -213902.8 
0.3025 -0.485 -0.2285 164169.7 -59970.37 -178750.9 
-0.282 -0.6045 2.3215 -212413.3 -126418.5 37402.76 
-0.562 0.424 0.345 -172746.9 177756.2 -32576.96 
-0.276 -0.031 2.7265 -185773.1 158797 52649.05 
0.2685 0.008 2.742 164221.3 178449.4 60722.36 
0.434 0.568 0.345 188057.9 152365.3 -62602.41 
-0.282 -0.6045 2.3215 -160751 -179634.7 -66260.93 
0.262 -0.5635 2.3375 138494.8 -203523.9 -43557.51 
-0.6195 -0.5775 4.227 -129079.8 -206243.2 57464.59 
0.2685 0.008 2.742 82826.56 230092.2 -51936.34 
0.818 -0.1935 3.4535 243522 32397.19 -46340.85 
0.657 0.09 4.28 159157.6 186112 50310.9 
0.64 -0.432 4.283 150828 -183317.1 78395.1 
-0.276 -0.031 2.7265 -141475.3 198067.1 -57045.73 
-0.6070001 -0.051 4.223 -134139.3 202707.7 58448.97 
-0.8055 -0.3525 3.3915 -245513.3 26753.53 -38826.11 
0.537 -0.159 4.717 93556.48 101883.4 208247.4 
-0.49 -0.2935 4.664 -106191.7 -90354.56 207507.5 
3 0 1 2 
3 2 1 3 
3 3 4 2 
3 5 6 7 
3 8 9 10 
3 11 12 13 
3 14 15 16 
3 11 17 12 
3 15 18 16 
3 16 18 19 
3 1 18 3 
3 3 18 15 
3 20 15 21 
3 15 20 3 
3 3 20 4 
3 19 0 16 
3 16 0 2 
3 16 2 22 
3 16 22 14 
3 5 7 23 
3 23 7 24 
3 25 26 27 
3 28 29 27 
3 30 11 31 
3 28 32 9 
3 33 29 8 
3 8 29 9 
3 34 35 36 
3 34 37 35 
3 35 37 38 
3 36 35 38 
3 36 38 39 
3 39 38 40 
3 41 42 43 
3 41 43 25 
3 42 44 43 
3 43 44 45 
3 45 26 43 
3 43 26 25 
3 46 24 7 
3 9 39 10 
3 9 29 28 
3 47 48 0 
3 0 48 1 
3 48 49 50 
3 48 50 1 
3 1 50 18 
3 18 50 19 
3 50 49 51 
3 50 51 19 
3 52 47 51 
3 51 47 19 
3 47 0 19 
3 47 52 48 
3 48 52 49 
3 51 49 52 
3 37 27 38 
3 27 33 38 
3 38 33 40 
3 44 32 53 
3 53 32 28 
3 27 53 28 
3 27 26 53 
3 33 10 40 
3 10 39 40 
3 45 44 26 
3 44 53 26 
3 8 10 33 
3 54 55 56 
3 56 55 57 
3 55 58 57 
3 59 60 61 
3 59 61 62 
3 54 62 55 
3 55 62 61 
3 55 61 63 
3 63 61 60 
3 55 63 58 
3 56 59 62 
3 56 57 59 
3 59 57 64 
3 64 57 58 
3 59 64 60 
3 65 66 67 
3 68 69 67 
3 68 67 70 
3 71 72 73 
3 72 74 73 
3 75 76 77 
3 76 78 77 
3 78 79 77 
3 80 81 65 
3 81 66 65 
3 80 65 82 
3 83 82 69 
3 75 77 84 
3 83 80 82 
3 69 82 65 
3 67 66 70 
3 65 67 69 
3 54 85 62 
3 86 62 85 
3 86 85 87 
3 87 54 86 
3 54 56 86 
3 86 56 62 
3 87 88 54 
3 88 85 54 
3 87 85 88 
3 71 73 81 
3 66 81 89 
3 89 81 73 
3 74 83 73 
3 83 69 73 
3 68 66 89 
3 68 89 69 
3 69 89 73 
3 66 68 70 
3 90 91 92 
3 92 91 93 
3 91 94 93 
3 95 96 97 
3 97 96 93 
3 93 96 92 
3 92 96 98 
3 90 98 91 
3 91 98 96 
3 91 96 99 
3 99 96 95 
3 91 99 94 
3 100 101 102 
3 103 104 105 
3 106 107 108 
3 107 109 108 
3 106 108 110 
3 110 108 111 
3 112 113 106 
3 113 114 115 
3 113 115 106 
3 114 116 115 
3 116 107 115 
3 115 107 106 
3 117 106 110 
3 112 106 117 
3 118 119 120 
3 119 112 120 
3 120 112 121 
3 112 122 121 
3 120 116 118 
3 121 116 120 
3 123 111 109 
3 111 117 110 
3 111 108 109 
3 124 125 90 
3 125 126 90 
3 90 92 124 
3 90 126 127 
3 90 127 98 
3 92 98 124 
3 124 98 127 
3 127 126 124 
3 126 125 124 
3 122 117 123 
3 123 117 111 
3 116 123 107 
3 107 123 109 
3 116 122 123 
3 122 116 121 
3 128 129 130 
3 130 129 131 
3 131 132 130 
3 133 134 135 
3 136 133 135 
3 137 138 139 
3 140 141 142 
3 140 143 141 
3 144 145 146 
3 146 145 128 
3 129 145 131 
3 131 145 144 
3 131 144 147 
3 131 147 132 
3 128 130 146 
3 148 149 150 
3 151 152 153 
3 152 154 139 
3 143 140 155 
3 136 135 156 
3 157 153 138 
3 158 157 138 
3 139 159 137 
3 151 160 161 
3 162 163 154 
3 154 163 159 
3 154 159 139 
3 151 161 152 
3 148 164 165 
3 148 150 164 
3 164 150 157 
3 162 157 163 
3 163 157 158 
3 165 164 162 
3 162 164 157 
3 138 153 139 
3 137 159 138 
3 138 159 163 
3 138 163 158 
3 166 167 129 
3 166 129 128 
3 129 167 145 
3 145 167 166 
3 145 166 128 
3 153 152 139 
3 160 162 161 
3 162 152 161 
3 152 162 154 
3 168 169 170 
3 169 171 172 
3 170 169 172 
3 173 174 175 
3 175 174 176 
3 175 176 177 
3 177 176 178 
3 178 169 168 
3 169 178 176 
3 169 176 171 
3 171 176 174 
3 177 168 175 
3 175 168 170 
3 175 170 173 
3 179 180 181 
3 182 183 184 
3 185 186 187 
3 188 189 190 
3 189 191 190 
3 191 184 190 
3 192 183 182 
3 193 180 179 
3 194 195 196 
3 195 189 188 
3 196 195 188 
3 188 184 196 
3 190 184 188 
3 197 198 199 
3 198 168 199 
3 200 178 198 
3 198 178 168 
3 177 178 199 
3 199 178 200 
3 197 199 200 
3 177 199 168 
3 201 198 197 
3 201 200 198 
3 197 200 201 
3 192 182 202 
3 202 182 189 
3 182 184 203 
3 203 189 182 
3 189 203 191 
3 191 203 184 
3 204 205 206 
3 204 207 205 
3 207 208 205 
3 209 205 208 
3 210 211 212 
3 212 211 209 
3 209 211 206 
3 206 211 213 
3 207 204 211 
3 204 213 211 
3 214 211 210 
3 211 214 207 
3 207 214 208 
3 206 205 209 
3 215 216 217 
3 218 219 220 
3 221 222 223 
3 223 222 224 
3 225 226 224 
3 227 228 229 
3 228 230 229 
3 230 231 229 
3 231 226 229 
3 229 226 225 
3 227 229 225 
3 232 227 233 
3 232 233 234 
3 235 236 227 
3 227 236 233 
3 236 231 233 
3 233 231 234 
3 222 221 225 
3 237 216 215 
3 224 222 225 
3 224 226 223 
3 238 204 239 
3 239 204 240 
3 240 204 206 
3 204 238 241 
3 204 241 213 
3 206 213 240 
3 240 213 241 
3 242 241 238 
3 240 241 239 
3 239 241 242 
3 242 238 239 
3 235 221 243 
3 243 221 223 
3 231 243 226 
3 226 243 223 
3 235 243 231 
3 236 235 231 
3 244 245 246 
3 245 247 246 
3 248 247 249 
3 248 249 250 
3 251 245 244 
3 251 249 245 
3 245 249 247 
3 244 246 250 
3 250 246 248 
3 252 253 254 
3 255 256 257 
3 258 253 252 
3 259 260 253 
3 261 257 256 
3 262 263 258 
3 257 264 265 
3 257 261 264 
3 264 261 266 
3 267 268 266 
3 269 270 271 
3 271 270 268 
3 271 268 267 
3 272 273 256 
3 274 255 257 
3 274 257 275 
3 275 257 265 
3 263 276 277 
3 270 265 264 
3 263 262 276 
3 266 261 267 
3 278 277 279 
3 266 270 264 
3 280 281 244 
3 281 251 244 
3 250 249 251 
3 250 251 282 
3 283 280 282 
3 282 280 250 
3 280 244 250 
3 284 281 283 
3 281 280 283 
3 282 251 285 
3 285 251 281 
3 285 281 284 
3 284 283 285 
3 285 283 282 
3 256 271 267 
3 269 273 272 
3 269 286 273 
3 273 286 256 
3 286 269 271 
3 286 271 256 
3 287 288 289 
3 290 291 292 
3 292 291 293 
3 287 289 294 
3 295 294 296 
3 295 287 294 
3 297 298 295 
3 297 295 296 
3 288 297 289 
3 298 297 288 
3 299 300 301 
3 300 302 303 
3 302 304 303 
3 300 303 305 
3 302 306 307 
3 306 299 308 
3 299 301 308 
3 306 308 307 
3 303 304 305 
3 309 307 310 
3 310 307 301 
3 308 301 307 
3 310 305 309 
3 309 305 304 
3 300 305 301 
3 310 301 305 
3 304 302 307 
3 309 304 307 
3 295 298 291 
3 295 291 290 
3 287 295 290 
3 287 290 292 
3 298 288 293 
3 298 293 291 
3 288 287 292 
3 288 292 293 
