ply
format ascii 1.0
comment VCGLIB generated
element vertex 96
property float x
property float y
property float z
property float nx
property float ny
property float nz
element face 180
property list uchar int vertex_indices
end_header
1.995581 -65.00453 75.88065 -0.04766238 -3.172268 -0.6034567 
-0.0511563 11.04219 206.6209 -2.491321 3.658163 2.188415 
-9.225807 9.859945 179.8485 -4.904058 1.981358 0.3143852 
-33.62022 12.5336 58.97608 -0.2469721 -1.222701 -5.232821 
38.53244 7.779803 84.17423 5.480165 1.183231 2.368459 
40.21225 3.881102 118.2424 5.028346 0.135771 0.6313486 
-44.70398 -40.26085 90.62202 -3.286615 -3.307652 0.9220949 
-61.61945 18.2917 71.95688 -2.660634 1.140896 -0.8100137 
-15.54726 -24.43688 127.973 -2.984488 -4.823546 2.404268 
4.326361 -32.70218 129.2955 -0.5796984 -5.546132 2.382699 
-7.138405 55.11749 52.55103 -1.121199 3.73972 -2.722975 
3.000716 1.457918 224.2103 -0.03662033 -0.06486353 0.7993609 
21.21669 9.864179 181.1767 4.927289 1.550303 0.9956733 
10.60478 21.14435 184.2279 1.485451 4.462706 0.7040488 
3.992384 -40.26161 112.2121 0.2234577 -5.359428 2.739762 
-24.97952 -14.88877 152.4726 -3.467372 -2.169871 1.816954 
-33.56372 -2.668771 128.6965 -5.105257 -2.074052 2.637037 
-62.3286 2.95955 101.7379 -4.169003 0.07021407 1.238206 
-7.920037 -13.17064 173.4421 -2.576247 -3.799387 2.320171 
17.96264 6.073098 163.2319 5.904284 -0.72957 0.5464286 
15.96538 44.74238 117.4252 3.197167 4.123498 0.6407267 
1.89617 22.03684 155.2618 0.142161 5.616729 2.707026 
13.60088 -13.27936 179.6869 2.302718 -3.729085 0.1384193 
8.065603 -10.92302 169.0826 3.037151 -4.842553 0.651054 
25.5379 -25.70714 136.6794 3.336245 -3.231703 2.249008 
47.34264 -40.26084 71.44398 2.872278 -2.181511 0.1295269 
14.71267 43.88003 108.5849 2.351323 4.791499 1.008417 
-0.858575 65.00453 76.82721 -0.3349476 3.803926 0.3723412 
28.52012 50.59085 84.74259 3.432433 3.335693 1.258505 
-6.8145 44.79877 45.70076 -1.145912 0.2850682 -4.144344 
-5.620996 6.775508 81.56116 0.05108108 -1.563774 -4.459486 
-41.59668 -36.52122 71.95687 -2.049078 -2.044569 -3.141095 
43.05999 -35.69514 64.32384 1.200396 -2.084583 -4.628595 
1.372298 -59.13066 71.95687 -0.8105574 -2.030601 -5.051977 
31.5303 36.8602 45.70076 0.6729287 0.5769967 -4.746498 
62.3286 6.745527 59.91948 2.722302 0.2455425 -0.4265099 
38.64902 42.62489 52.15811 2.8876 2.655447 -1.606911 
38.58326 6.756019 47.60801 -0.1773301 -0.9971864 -4.817377 
50.05119 -31.76491 69.05969 4.186914 -1.117494 -0.1964363 
21.37725 0.4234927 175.6826 5.022565 -1.641147 -0.477905 
19.83905 11.56584 172.4655 5.231059 2.404779 -0.2799502 
17.05677 21.0771 155.1206 3.218611 3.868581 2.242918 
14.53247 16.34054 169.9656 2.502566 5.524683 0.8409241 
1.190833 18.0543 173.8653 -1.933928 5.678618 -0.2166305 
0.8615863 19.34401 182.5481 -2.496987 5.099669 0.3831514 
-4.916192 13.13299 173.1032 -4.649244 3.785183 0.570118 
-13.1385 39.14091 124.6997 -2.230145 4.266403 -0.1835138 
-6.484567 7.56884 171.7971 -4.081486 2.675084 0.2736869 
-10.50354 5.158409 173.5955 -4.993993 2.125734 1.1258 
6.913031 47.61282 120.8818 -0.242226 4.229028 0.4535928 
-38.30486 22.24612 123.4872 -3.797716 2.7108 3.308964 
-15.34008 16.12502 153.8748 -4.647768 2.099697 3.121578 
-18.02067 5.584247 149.368 -4.832588 1.27281 3.214332 
39.02969 -34.71233 96.60983 2.056469 -1.986423 -0.6200792 
33.67874 -25.67494 86.83134 4.531913 -1.649603 0.9080389 
-51.03351 20.08719 95.35408 -2.438565 -0.05048345 -5.761688 
-37.75402 14.73624 89.04209 -2.13206 2.463261 -0.3569731 
-24.95197 49.95127 94.61094 -0.8047398 3.642706 -0.547204 
-11.24447 43.31523 87.86536 -1.828573 4.441735 0.8469883 
-47.15458 38.05377 92.62865 -1.854653 1.523388 -1.218121 
7.898748 10.40299 8.644938 4.386196 3.895004 1.868482 
-17.98016 14.91875 2.790193e-06 -1.601471 1.79305 -1.444244 
-0.6959545 14.93759 12.6095 1.045005 5.82402 1.105009 
-12.70729 12.81727 15.43473 -2.815167 5.017358 1.39793 
-18.55247 5.077022 17.01142 -5.32461 1.622324 1.692396 
-7.736435 -8.487084 0 -0.5465297 -2.860589 -2.29733 
-18.03566 -1.100841 18.19474 -4.093764 -2.728118 1.449861 
11.02981 -5.178101 3.944614e-07 1.533368 -2.197533 -1.716376 
11.51027 1.435933 9.43502 5.500366 -0.4315397 2.073805 
8.537138 -4.246172 10.90312 3.984333 -4.392748 0.2914483 
2.248877 18.94734 3.270438e-06 0.6735289 2.351741 -1.375957 
18.70357 4.349791 1.530275e-06 1.601685 0.1208079 -0.6246714 
-0.3250897 4.349791 1.530275e-06 7.082554e-15 7.490141e-07 -6.283185 
-21.7284 -0.7199034 9.259201e-07 -2.181736 -0.9415609 -1.540133 
6.114996 9.686966 32.6619 4.331962 3.27684 0.7691438 
-2.195474 13.10066 36.7448 0.05409855 5.414954 0.8880324 
-2.761651 12.75909 49.53178 1.613053 4.287126 -0.1062152 
-10.98942 3.110734 35.66314 -5.849977 1.002973 0.9888225 
-14.69948 2.854384 57.8053 -5.278962 0.3380609 -0.05104029 
1.733969 -4.518012 47.57925 1.680002 -4.808579 0.5196411 
3.468894 0.9304423 53.65085 6.033603 -1.556222 0.5311154 
4.862974 6.514205 45.55149 4.776822 2.715296 1.149406 
-0.5387509 7.621801 53.22005 3.528277 4.08638 0.007068368 
1.580886 11.04347 86.75227 1.632897 2.413026 -0.1551424 
-10.54016 10.18146 57.58949 -3.807524 4.219164 -0.04547867 
-3.75866 12.14816 86.75227 -0.8231119 2.638435 0.1550059 
-10.57419 4.49554 86.75227 -2.73625 0.6386953 0.3412647 
-13.1617 -0.8200461 58.14882 -3.642333 -3.982007 0.07911725 
-8.861084 -0.6810039 86.75227 -1.789373 -2.153163 0.287136 
1.174048 -2.757076 86.75227 1.181454 -2.126469 0.07565784 
4.961164 6.765055 86.75227 2.615764 0.475566 -0.1636536 
-6.172715 10.44643 37.2613 -4.18855 4.511389 0.598934 
-9.877548 -1.62483 36.48538 -3.421458 -4.231086 0.340028 
8.361091 -3.223302 30.60749 3.510975 -2.517062 0.8636559 
0.459212 -9.337801 16.05126 0.5377344 -5.26666 0.4191582 
-3.579446 -2.776563 33.42372 -0.9456038 -6.129846 0.5780324 
3 14 0 25 
3 9 14 24 
3 24 14 53 
3 18 11 2 
3 2 1 44 
3 2 45 47 
3 1 2 11 
3 7 10 3 
3 3 10 29 
3 34 37 30 
3 28 4 36 
3 36 4 35 
3 5 4 26 
3 6 7 31 
3 16 17 8 
3 8 17 6 
3 8 9 18 
3 18 22 11 
3 50 26 57 
3 7 27 10 
3 11 39 12 
3 11 12 13 
3 1 13 44 
3 15 16 8 
3 2 48 18 
3 8 14 9 
3 0 14 6 
3 6 14 8 
3 31 33 6 
3 6 33 0 
3 7 6 17 
3 31 7 3 
3 18 9 24 
3 16 15 50 
3 47 48 2 
3 50 17 16 
3 59 17 50 
3 18 15 8 
3 18 24 23 
3 19 5 41 
3 41 5 20 
3 21 41 20 
3 20 49 21 
3 49 46 21 
3 22 39 11 
3 5 19 24 
3 24 19 23 
3 53 4 24 
3 24 4 5 
3 38 4 25 
3 0 33 25 
3 25 33 32 
3 58 26 27 
3 27 26 28 
3 4 28 26 
3 27 28 10 
3 10 28 36 
3 30 29 34 
3 7 58 27 
3 50 57 59 
3 3 29 30 
3 31 3 30 
3 33 31 30 
3 37 32 30 
3 30 32 33 
3 35 4 38 
3 29 10 34 
3 34 10 36 
3 35 37 36 
3 36 37 34 
3 32 37 38 
3 38 37 35 
3 25 32 38 
3 18 23 22 
3 19 39 23 
3 23 39 22 
3 39 19 40 
3 40 19 41 
3 42 40 41 
3 21 42 41 
3 12 39 40 
3 13 12 42 
3 42 12 40 
3 44 13 43 
3 43 13 42 
3 2 44 45 
3 45 44 43 
3 43 42 21 
3 45 43 21 
3 47 45 51 
3 45 21 46 
3 46 51 45 
3 47 51 52 
3 52 48 47 
3 52 15 48 
3 18 48 15 
3 11 13 1 
3 20 5 26 
3 49 20 26 
3 50 46 49 
3 49 26 50 
3 51 46 50 
3 52 51 50 
3 50 15 52 
3 53 14 54 
3 54 4 53 
3 54 14 25 
3 25 4 54 
3 55 58 56 
3 56 17 55 
3 56 58 7 
3 7 17 56 
3 57 26 58 
3 59 57 58 
3 58 55 59 
3 55 17 59 
3 71 70 60 
3 60 70 62 
3 70 61 62 
3 62 61 63 
3 63 61 64 
3 61 73 64 
3 64 73 66 
3 73 65 66 
3 66 65 94 
3 67 69 65 
3 65 69 94 
3 71 68 67 
3 67 68 69 
3 71 60 68 
3 70 71 72 
3 61 70 72 
3 73 61 72 
3 65 73 72 
3 67 65 72 
3 71 67 72 
3 74 75 82 
3 82 75 76 
3 75 91 76 
3 76 91 84 
3 77 78 91 
3 91 78 84 
3 92 87 77 
3 77 87 78 
3 95 87 92 
3 95 79 87 
3 95 93 79 
3 79 93 80 
3 80 93 81 
3 93 74 81 
3 81 74 82 
3 82 76 83 
3 83 76 85 
3 76 84 85 
3 84 78 85 
3 85 78 86 
3 78 87 86 
3 86 87 88 
3 87 79 88 
3 88 79 89 
3 79 80 89 
3 80 81 89 
3 89 81 90 
3 81 82 90 
3 90 82 83 
3 60 62 74 
3 74 62 75 
3 62 63 75 
3 75 63 91 
3 63 64 91 
3 91 64 77 
3 66 92 64 
3 64 92 77 
3 66 95 92 
3 94 95 66 
3 69 93 94 
3 94 93 95 
3 69 68 93 
3 68 60 93 
3 93 60 74 
