ply
format ascii 1.0
comment VCGLIB generated
element vertex 45
property float x
property float y
property float z
property float nx
property float ny
property float nz
property float texture_u
property float texture_v
element face 68
property list uchar int vertex_indices
end_header
24.0971 -12.2261 -0.2434992 0.229898 -0.03042626 0.972739 0.959821 0.236803
24.6585 -0.2733994 -0.2434997 0.266011 0.004783023 0.9639581 0.970534 0.494114
16.5516 -0.2826004 0.8067017 0.05507058 0.01412474 0.9983826 0.815838 0.493916
15.4438 -13.85 0.8067023 0.04776898 -0.05816193 0.9971637 0.794699 0.201844
24.0991 11.676 -0.2435003 0.206547 0.03600584 0.977774 0.959859 0.751355
15.4438 13.2844 0.8067011 0.0343893 0.08730335 0.995588 0.794699 0.785980
23.3303 -21.1191 -0.8066989 0.116725 -0.319086 0.9405102 0.945189 0.045358
22.1987 -19.8309 -0.2434989 0.154347 -0.170735 0.9731529 0.923596 0.073090
13.6066 -21.4467 -0.2434988 0.0304628 -0.256726 0.966004 0.759641 0.038306
13.2567 -22.8937 -0.8066987 0.02867229 -0.3708559 0.9282477 0.752964 0.007156
22.1842 19.2579 -0.2435006 0.1577759 0.164003 0.9737607 0.923319 0.914575
13.5772 21.3569 -0.2435007 0.05727562 0.2327721 0.9708433 0.759080 0.959761
13.2216 22.8945 -0.8067008 0.05642578 0.349909 0.9350828 0.752295 0.992861
-0.8162994 23.2261 -0.8067008 -2.09976e-06 0.354461 0.9350709 0.484423 1.000000
-0.8303995 21.7824 -0.2435007 0.009976263 0.2840511 0.9587573 0.484154 0.968921
-0.9045992 14.2033 0.8067011 -0.001597519 0.114573 0.9934136 0.482738 0.805762
-0.913599 -0.2837982 0.8067017 -0.001216579 0.02166663 0.9997645 0.482567 0.493891
-0.9039993 -14.7688 0.8067023 -1.27831e-06 -0.08148015 0.996675 0.482750 0.182065
-0.8302994 -21.8729 -0.2434988 -1.98447e-06 -0.298879 0.954291 0.484156 0.029131
-23.0797 20.5966 -0.8067006 -0.177474 0.29434 0.9390777 0.059593 0.943393
-22.312 19.2641 -0.2435006 -0.192226 0.1770621 0.9652452 0.074242 0.914708
-15.2311 21.3571 -0.2435007 -0.04424949 0.245872 0.9682918 0.209360 0.959765
-14.8425 22.8948 -0.8067008 -0.03995251 0.3539751 0.9344012 0.216775 0.992868
-24.3554 11.6655 -0.2435003 -0.26495 0.06438944 0.96211 0.035250 0.751129
-24.9508 -0.2734985 -0.2434997 -0.3195399 -8.143192e-07 0.9475728 0.023889 0.494112
-18.3787 -0.282299 0.8067017 -0.06633221 0.005912694 0.9977801 0.149298 0.493923
-17.2709 13.2844 0.8067011 -0.06118572 0.08117187 0.9948203 0.170437 0.785980
-24.3553 -12.2159 -0.2434992 -0.2510611 -0.04573267 0.9668903 0.035252 0.237022
-17.2709 -13.85 0.8067023 -0.03935881 -0.06610507 0.9970362 0.170437 0.201844
-22.3324 -19.831 -0.2434989 -0.178513 -0.188713 0.965671 0.073853 0.073088
-15.2653 -21.4468 -0.2434988 -0.0483618 -0.250866 0.966813 0.208707 0.038304
-23.4648 20.2096 -0.8067006 -0.3464721 0.1477581 0.9263502 0.052245 0.935062
-25.7049 11.3572 -0.8067002 -0.3953611 0.04596095 0.9173752 0.009499 0.744492
23.6404 -20.8212 -0.8066989 0.290915 -0.1080699 0.9506258 0.951106 0.051772
25.7454 -11.9168 -0.8066992 0.336794 -0.006633419 0.941555 0.991274 0.243461
26.2027 -0.271698 -0.8066998 0.334573 0.01357484 0.9422721 1.000000 0.494151
25.7477 11.3696 -0.8067002 0.3261239 0.03656652 0.9446195 0.991318 0.744759
23.2925 20.5726 -0.8067006 0.126043 0.3000171 0.9455702 0.944468 0.942877
-0.8162994 -23.2261 -0.8066987 -2.520279e-06 -0.3743149 0.9273017 0.484423 0.000000
-26.2027 -0.271801 -0.8066998 -0.399211 -1.032063e-06 0.9168591 0.000000 0.494149
-25.7047 -11.9046 -0.8066992 -0.3959542 -0.04579898 0.9171274 0.009503 0.243724
-23.1274 -21.1312 -0.8066989 -0.127937 -0.3372421 0.9326843 0.058683 0.045098
-14.8833 -22.8938 -0.8066987 -0.03370121 -0.3723551 0.9274783 0.215997 0.007154
23.6438 20.2188 -0.8067006 0.268134 0.1481441 0.9519231 0.951171 0.935260
-23.4656 -20.8094 -0.8066989 -0.3131849 -0.1761359 0.9332156 0.052229 0.052026
3 0 1 2 
3 0 2 3 
3 2 1 4 
3 2 4 5 
3 6 7 8 
3 6 8 9 
3 5 10 11 
3 12 13 14 
3 12 14 11 
3 15 16 2 
3 15 2 5 
3 16 17 3 
3 16 3 2 
3 17 18 8 
3 17 8 3 
3 19 20 21 
3 19 21 22 
3 23 24 25 
3 23 25 26 
3 25 24 27 
3 25 27 28 
3 28 29 30 
3 22 21 14 
3 22 14 13 
3 26 25 16 
3 26 16 15 
3 25 28 17 
3 25 17 16 
3 17 28 30 
3 17 30 18 
3 31 32 23 
3 31 23 20 
3 19 31 20 
3 5 4 10 
3 0 7 33 
3 0 33 34 
3 6 33 7 
3 28 27 29 
3 1 0 34 
3 1 34 35 
3 1 35 36 
3 1 36 4 
3 7 3 8 
3 37 12 11 
3 37 11 10 
3 15 5 11 
3 15 11 14 
3 18 38 9 
3 18 9 8 
3 20 26 21 
3 32 39 24 
3 32 24 23 
3 24 39 40 
3 24 40 27 
3 41 42 30 
3 41 30 29 
3 21 26 15 
3 21 15 14 
3 42 38 18 
3 42 18 30 
3 23 26 20 
3 43 10 4 
3 43 4 36 
3 10 43 37 
3 0 3 7 
3 44 29 27 
3 44 27 40 
3 29 44 41 
